<svg xmlns="http://www.w3.org/2000/svg" width="40" height="40" fill="none" viewBox="0 0 40 40">
    <path fill="#fff" d="M15.929 21.625c.321 0 .642-.254.642-.61v-2.03c0-.305-.321-.61-.642-.61h-2.143c-.375 0-.643.305-.643.61v2.03c0 .356.268.61.643.61h2.143zm5.785-.61v-2.03c0-.305-.321-.61-.643-.61H18.93c-.375 0-.643.305-.643.61v2.03c0 .356.268.61.643.61h2.142c.322 0 .643-.254.643-.61zm5.143 0v-2.03c0-.305-.321-.61-.643-.61h-2.143c-.375 0-.642.305-.642.61v2.03c0 .356.267.61.642.61h2.143c.322 0 .643-.254.643-.61zm-5.143 4.876v-2.032c0-.304-.321-.609-.643-.609H18.93c-.375 0-.643.305-.643.61v2.03c0 .356.268.61.643.61h2.142c.322 0 .643-.254.643-.61zm-5.143 0v-2.032c0-.304-.321-.609-.642-.609h-2.143c-.375 0-.643.305-.643.61v2.03c0 .356.268.61.643.61h2.143c.321 0 .642-.254.642-.61zm10.286 0v-2.032c0-.304-.321-.609-.643-.609h-2.143c-.375 0-.642.305-.642.61v2.03c0 .356.267.61.642.61h2.143c.322 0 .643-.254.643-.61zM32 12.688c0-1.32-1.179-2.438-2.571-2.438h-2.572V7.61c0-.305-.321-.61-.643-.61h-2.143c-.375 0-.642.305-.642.61v2.64H16.57V7.61c0-.305-.321-.61-.642-.61h-2.143c-.375 0-.643.305-.643.61v2.64H10.57C9.125 10.25 8 11.367 8 12.688v17.874C8 31.934 9.125 33 10.571 33H29.43C30.82 33 32 31.934 32 30.562V12.688zm-2.571 17.57c0 .203-.161.305-.322.305H10.893c-.214 0-.322-.102-.322-.305V15.125H29.43v15.133z"/>
</svg>
