<svg id="Layer_1" data-name="Layer 1" xmlns="http://www.w3.org/2000/svg" viewBox="0 0 123.55 15.63"><path d="M37.32,10.79l1.83,1.85a7.65,7.65,0,0,1-6.09,2.61A7.25,7.25,0,0,1,25.5,7.81,7.25,7.25,0,0,1,33.07.39,7.64,7.64,0,0,1,39.16,3L37.32,4.84a5.65,5.65,0,0,0-4-1.95c-2.81,0-4.75,1.84-4.75,4.92a4.53,4.53,0,0,0,4.75,4.91A5.56,5.56,0,0,0,37.32,10.79ZM41,.18h2.68V15H41ZM55.4,10.6H48.5a2.49,2.49,0,0,0,2.6,2.46,3.43,3.43,0,0,0,2.58-1l1.53,1.53a6.11,6.11,0,0,1-4.34,1.65c-3.11,0-5.14-2-5.14-5.26a5,5,0,0,1,5.11-5.27c2.94,0,4.58,1.82,4.58,4.79ZM52.63,8.79a1.82,1.82,0,0,0-1.9-2,2.17,2.17,0,0,0-2.17,2Zm10.76,4.85a3.65,3.65,0,0,1-3.26,1.61A2.87,2.87,0,0,1,57,12.36C57,10.19,58.91,9,63.23,9v-.6c0-1-.58-1.61-1.8-1.61a3.38,3.38,0,0,0-2.81,1.45L57.09,6.7a5.48,5.48,0,0,1,4.48-2c2.69,0,4.34,1.16,4.34,4.09V15H63.39Zm-3.61-1.56c0,.62.45,1.09,1.4,1.09a1.93,1.93,0,0,0,2-2.1v-.39C60.42,10.7,59.78,11.2,59.78,12.08Zm11.27-.69V15H68.37V4.91h2.68V7a3.61,3.61,0,0,1,3.6-2.29V7.57C71.8,7.57,71.05,8.87,71.05,11.39ZM81.4,15.25A8.32,8.32,0,0,1,76,13.45l1.45-2.25a6.74,6.74,0,0,0,4,1.53c1.65,0,2.46-.6,2.46-1.69,0-2.69-7.31-.71-7.31-6.28C76.65,2,78.9.38,81.83.38a7.18,7.18,0,0,1,4.9,1.71l-1.45,2.2a5.49,5.49,0,0,0-3.4-1.39c-1.35,0-2.21.64-2.21,1.64,0,2.84,7.28.78,7.28,6.23C87,13.35,85,15.25,81.4,15.25Zm16.44-8.8L96.16,8.14a3,3,0,0,0-2.4-1.07c-1.53,0-2.6,1-2.6,2.91s1.07,2.91,2.6,2.91a3,3,0,0,0,2.4-1.07l1.69,1.69a5.41,5.41,0,0,1-4.09,1.74A5,5,0,0,1,88.39,10a5,5,0,0,1,5.37-5.26A5.42,5.42,0,0,1,97.84,6.45ZM104,4.72A5,5,0,0,1,109.18,10a5.24,5.24,0,1,1-10.47,0A5,5,0,0,1,104,4.72Zm0,8.18c1.61,0,2.48-1.14,2.48-2.91s-.87-2.91-2.48-2.91-2.48,1.13-2.48,2.91.85,2.9,2.48,2.9Zm9.9-1.51V15h-2.69V4.91h2.69V7a3.59,3.59,0,0,1,3.59-2.29V7.57C114.59,7.57,113.85,8.87,113.85,11.39Zm14.06-.79H121a2.49,2.49,0,0,0,2.6,2.46,3.46,3.46,0,0,0,2.55-1l1.56,1.52a6.11,6.11,0,0,1-4.34,1.65c-3.11,0-5.14-2-5.14-5.27a5,5,0,0,1,5.11-5.26c3,0,4.58,1.81,4.58,4.79Zm-2.77-1.81a1.82,1.82,0,0,0-1.9-2,2.17,2.17,0,0,0-2.17,2Z" transform="translate(-4.37 -0.17)"/><path d="M5.13.17V9.11a4.74,4.74,0,0,1,2.69,0V2.88h9.49v9.47H11.07a4.74,4.74,0,0,1,.2,1.35,4.68,4.68,0,0,1-.2,1.34H20V.17Z" transform="translate(-4.37 -0.17)"/><circle cx="2.1" cy="13.53" r="2.1"/></svg>