<svg width="185" height="53" viewBox="0 0 185 53" fill="none" xmlns="http://www.w3.org/2000/svg">
<rect width="185" height="53" rx="26.5" fill="white"/>
<path d="M76.9362 30.2009C76.6808 30.1996 76.4257 30.185 76.1719 30.157V31.4498H74.3131V22.9362H75.8291L75.9735 23.66C76.5647 23.1336 77.2572 22.7805 77.9799 22.7805C79.7107 22.7805 80.5481 24.3127 80.5481 26.1998C80.5481 29.0073 79.0183 30.2009 76.9419 30.2009H76.9362ZM77.4614 24.1846C77.1154 24.1846 76.6397 24.3838 76.1777 24.7808V28.7542C76.423 28.8533 76.7257 28.8959 77.0432 28.8959C77.9795 28.8959 78.6438 28.1436 78.6438 26.4551C78.6438 24.9935 78.1979 24.1846 77.4614 24.1846ZM52.4842 30.3781C50.5358 30.3781 49.5469 29.1582 49.5469 26.6885C49.5469 24.3785 50.7717 22.7993 52.7058 22.7993C53.5917 22.7993 54.3002 23.1187 54.8317 23.7139L54.1669 24.6729C53.8361 24.3645 53.3978 24.1927 52.9421 24.193C52.0709 24.193 51.5104 24.9777 51.5104 26.5021C51.5104 28.2738 51.9973 28.9718 52.8534 28.9718C53.4437 28.9718 53.931 28.7822 54.4179 28.3616L54.9944 29.3196C54.4179 29.9008 53.6064 30.3803 52.4842 30.3803V30.3781ZM58.4628 30.3921C56.4256 30.3921 55.2004 29.4192 55.2004 26.7464C55.2004 24.0605 56.5732 22.7984 58.7731 22.7984C60.8102 22.7984 62.035 23.7714 62.035 26.4293C62.035 29.1305 60.6622 30.3935 58.4628 30.3935V30.3921ZM58.5965 24.1776C57.7244 24.1776 57.1475 24.7733 57.1475 26.4279C57.1475 28.4756 57.6647 29.0125 58.6393 29.0125C59.5101 29.0125 60.0857 28.4173 60.0857 26.7618C60.0857 24.7141 59.5542 24.1763 58.5947 24.1763L58.5965 24.1776ZM73.1503 30.232H71.2461C71.2461 28.7651 71.2906 27.2693 71.2906 26.4266C71.2906 24.6838 70.9656 24.2917 70.3312 24.2917C69.9473 24.2917 69.4162 24.5676 68.9285 24.9453C68.9731 25.1778 69.0025 25.5116 69.0025 26.0345V30.232H67.1125V26.4275C67.1125 24.7141 66.7879 24.2925 66.1681 24.2925C65.8141 24.2925 65.3264 24.525 64.8399 24.8882V30.232H62.9334V22.9568H64.4984L64.6322 23.7262C65.2225 23.1889 65.976 22.7971 66.8169 22.7971C67.7318 22.7971 68.3368 23.2468 68.6177 23.8425C69.3262 23.2182 70.0935 22.7971 70.9808 22.7971C72.4276 22.7971 73.1949 23.7262 73.1949 26.0792C73.1949 26.9789 73.1503 28.6353 73.1503 30.2329V30.232ZM85.8891 30.232L85.7553 29.4916C85.1208 30.0289 84.4418 30.3917 83.4975 30.3917C82.0065 30.3917 81.2093 29.6657 81.2093 28.3155C81.2093 26.8043 82.4341 25.8028 85.0178 25.8028H85.4753V25.2515C85.4753 24.5105 85.0473 24.1473 84.1025 24.1473C83.3347 24.1473 82.5232 24.3509 81.8585 24.5834L81.6074 23.4503C82.4787 23.0726 83.4827 22.7967 84.5894 22.7967C86.4789 22.7967 87.3497 23.6824 87.3497 25.0619V30.232H85.8891ZM85.4757 26.9355H84.9144C83.4676 26.9355 83.069 27.4149 83.069 28.083C83.069 28.6928 83.4083 29.0705 84.0579 29.0705C84.5158 29.0705 85.0178 28.8235 85.4753 28.4313L85.4757 26.9355ZM92.6644 24.6119C92.4537 24.547 92.2346 24.5127 92.0139 24.5101C91.6005 24.5101 91.2465 24.786 90.5822 25.6138V30.232H88.6788V22.9568H90.2438L90.3914 24.0894C91.144 23.1165 91.6456 22.8116 92.1775 22.8116C92.4274 22.8117 92.6742 22.8663 92.9002 22.9713L92.6644 24.6119ZM94.7911 26.9666V27.068C94.7911 28.4046 95.3962 28.9713 96.4439 28.9713C97.1083 28.9713 97.979 28.8397 98.8516 28.5502L99.1191 29.624C98.2194 30.089 97.1573 30.3939 96.0783 30.3939C94.129 30.3939 92.8601 29.4503 92.8601 26.792C92.8601 24.1925 94.129 22.8002 96.2107 22.8002C98.1003 22.8002 99.3554 23.8455 99.1632 26.9675L94.7911 26.9666ZM97.3294 25.7761C97.3294 24.6136 96.9165 24.0478 96.1189 24.0478C95.307 24.0478 94.8642 24.7882 94.8054 25.805H97.3294V25.7761ZM128.931 30.232H127.027C127.027 28.7651 127.072 27.2693 127.072 26.4266C127.072 24.6838 126.746 24.2917 126.113 24.2917C125.728 24.2917 125.198 24.5676 124.71 24.9453C124.754 25.1778 124.784 25.5116 124.784 26.0345V30.232H122.894V26.4275C122.894 24.7141 122.569 24.2925 121.949 24.2925C121.593 24.2925 121.109 24.525 120.621 24.8882V30.232H118.717V22.9568H120.281L120.415 23.7262C121.006 23.1889 121.759 22.7971 122.6 22.7971C123.514 22.7971 124.119 23.2468 124.401 23.8425C125.109 23.2182 125.877 22.7971 126.764 22.7971C128.21 22.7971 128.978 23.7262 128.978 26.0792C128.978 26.9789 128.933 28.6353 128.933 30.2329L128.931 30.232ZM134.527 30.232L134.393 29.4916C133.758 30.0289 133.079 30.3917 132.134 30.3917C130.643 30.3917 129.846 29.6657 129.846 28.3155C129.846 26.8043 131.071 25.8028 133.655 25.8028H134.112V25.2515C134.112 24.5105 133.683 24.1473 132.739 24.1473C131.972 24.1473 131.16 24.3509 130.495 24.5834L130.244 23.4503C131.115 23.0726 132.12 22.7967 133.226 22.7967C135.116 22.7967 135.987 23.6824 135.987 25.0619V30.232H134.527ZM134.113 26.9355H133.553C132.106 26.9355 131.707 27.4149 131.707 28.083C131.707 28.6928 132.046 29.0705 132.696 29.0705C133.154 29.0705 133.656 28.8235 134.113 28.4313V26.9355ZM141.45 24.6119C141.239 24.5473 141.02 24.5132 140.799 24.5105C140.386 24.5105 140.032 24.7865 139.368 25.6142V30.232H137.464V22.9568H139.028L139.176 24.0907C139.929 23.1178 140.43 22.8129 140.962 22.8129C141.212 22.813 141.459 22.8676 141.685 22.9726L141.45 24.6119ZM146.292 30.2329L144.314 26.631V30.2329H142.409V21.7461H144.314V25.7594L146.01 22.9568H148.225L146.025 25.9924L148.52 30.2329H146.292ZM150.44 26.9666V27.068C150.44 28.4046 151.046 28.9713 152.094 28.9713C152.758 28.9713 153.629 28.8397 154.502 28.5502L154.769 29.6245C153.869 30.089 152.808 30.3939 151.728 30.3939C149.779 30.3939 148.51 29.4503 148.51 26.792C148.51 24.1925 149.779 22.8002 151.861 22.8002C153.751 22.8002 155.005 23.8455 154.813 26.9675L150.44 26.9666ZM152.98 25.7761C152.98 24.6136 152.567 24.0478 151.769 24.0478C150.957 24.0478 150.514 24.7882 150.456 25.805H152.98V25.7761ZM158.013 30.3781C156.641 30.3781 156.138 29.8697 156.138 28.4756V24.2662H155.192V22.9568H156.197C156.373 22.5625 156.526 22.1584 156.654 21.7465H158.026V22.9572H159.665V24.2662H158.026V28.0128C158.026 28.7537 158.205 28.9858 158.705 28.9858C158.928 28.9858 159.237 28.9568 159.709 28.8261L159.857 29.9008C159.163 30.2518 158.573 30.3803 158.012 30.3803L158.013 30.3781ZM102.593 30.3342C101.364 30.3342 100.925 29.8162 100.925 28.4199V23.9153H99.7545V23.0818H100.94C101.057 22.4484 101.159 22.5032 101.247 21.7549H102.08V23.0818H104.026V23.9153H102.08V28.1335C102.08 29.1126 102.241 29.4578 102.943 29.4578C103.192 29.4578 103.528 29.4139 104.07 29.2275L104.216 29.9184C103.631 30.1921 103.075 30.336 102.592 30.336L102.593 30.3342ZM110.743 30.2189H109.602C109.602 28.8656 109.631 27.2969 109.631 26.4187C109.631 24.5325 109.134 23.885 108.241 23.885C107.758 23.885 107.1 24.1873 106.458 24.7343V30.2176H105.298V21.7514H106.454V23.8569C107.054 23.3678 107.771 22.9643 108.634 22.9643C109.951 22.9643 110.785 23.785 110.785 26.1314C110.785 26.9951 110.74 28.7371 110.74 30.2197L110.743 30.2189ZM112.997 26.7912V26.935C112.997 28.72 113.699 29.4398 115.001 29.4398C115.73 29.4344 116.451 29.2878 117.123 29.0082L117.342 29.6846C116.534 30.103 115.636 30.3251 114.722 30.3325C112.967 30.3325 111.796 29.3968 111.796 26.8635C111.796 24.3724 112.894 22.9616 114.767 22.9616C116.479 22.9616 117.518 24.0416 117.357 26.7912H112.997ZM116.23 25.9704C116.23 24.6027 115.733 23.7824 114.693 23.7824C113.623 23.7824 113.07 24.8045 112.997 26.0283H116.23V25.9704ZM161.172 23.1564V24.9246H160.927V23.1564H160.411V22.9647H161.692V23.1564H161.172ZM163.716 24.9242C163.704 24.3175 163.658 23.667 163.604 23.2691H163.601L163.04 24.9242H162.854L162.287 23.2691H162.282C162.244 23.7047 162.214 24.3175 162.205 24.9242H161.966C161.982 24.2689 162.031 23.6147 162.114 22.9643H162.429L162.97 24.5176L163.511 22.9643H163.817C163.897 23.5942 163.956 24.2969 163.974 24.9242H163.716Z" fill="#011831"/>
<path d="M33.6618 38.8687C40.6418 38.8687 46.3002 33.3016 46.3002 26.4343C46.3002 19.567 40.6418 14 33.6618 14C26.6818 14 21.0234 19.567 21.0234 26.4343C21.0234 33.3016 26.6818 38.8687 33.6618 38.8687Z" fill="url(#paint0_linear)"/>
<path d="M28.2074 32.6875C28.1628 34.1855 27.8373 35.6603 27.2617 37.1544C28.9732 38.1426 30.8969 38.721 32.8774 38.8429C34.858 38.9648 36.84 38.6268 38.6633 37.8563C36.1763 35.2839 32.5153 33.2104 28.2074 32.6875Z" fill="url(#paint1_linear)"/>
<path opacity="0.55" d="M28.2048 32.6875C28.1812 33.4669 28.0838 34.2424 27.9141 35.0041C31.09 35.2208 34.1024 36.4709 36.4768 38.5572C37.2246 38.3893 37.9551 38.1544 38.6593 37.8554C36.1741 35.2853 32.5127 33.2104 28.2048 32.6875Z" fill="url(#paint2_linear)"/>
<path d="M28.1758 37.6341C29.8273 38.4179 31.6329 38.8371 33.4664 38.8624C32.2906 36.6769 30.2169 35.747 28.1758 37.6341Z" fill="url(#paint3_linear)"/>
<path d="M36.4929 31.4622C35.2855 31.2376 34.1058 31.492 33.2773 31.9285L33.2858 31.932C34.9756 32.6812 34.4451 33.5112 34.9952 34.9869C36.3442 35.7758 37.5778 36.7417 38.662 37.8579C39.406 37.5425 40.1173 37.1572 40.7861 36.7073C40.7861 36.7042 40.7861 36.7007 40.7825 36.6976C39.5956 33.0721 38.0213 31.7469 36.4929 31.4622Z" fill="url(#paint4_linear)"/>
<path d="M33.2851 31.9324L33.2767 31.9289C30.9461 30.9485 28.0819 30.8502 28.0859 30.8792C28.1854 31.5648 28.2246 32.0197 28.2054 32.69C30.3678 32.9544 32.4604 33.6161 34.3744 34.6407C34.5842 34.7527 34.7908 34.8682 34.9941 34.9872C34.4444 33.5133 34.9745 32.6816 33.2851 31.9324Z" fill="url(#paint5_linear)"/>
<path d="M39.9389 19.7036C39.9389 19.7036 38.9192 19.8124 38.4515 19.8282C37.6703 19.8549 37.0042 19.894 36.8245 19.8453C35.6925 19.6509 34.729 18.5188 34.4463 17.9564C34.4463 17.952 34.4419 17.9485 34.4396 17.9445C34.433 17.928 34.4231 17.913 34.4105 17.9002C34.398 17.8875 34.383 17.8773 34.3664 17.8703C34.3498 17.8633 34.332 17.8596 34.314 17.8594C34.2959 17.8592 34.278 17.8625 34.2613 17.8691C34.1503 17.9007 33.9759 18.0038 33.6665 18.1323L33.6415 18.1424H33.6389C33.3933 18.2413 33.1416 18.325 32.8854 18.3929C31.6949 18.7144 30.4777 18.7626 28.8137 19.5834C27.1725 20.3914 25.9286 21.5942 25.3574 23.0212C24.249 25.7848 25.5193 27.7802 27.0258 29.0747C27.5694 29.5441 27.9417 30.1759 28.0857 30.8733C28.0816 30.8443 30.9459 30.9426 33.2764 31.923C34.0927 31.4931 35.2502 31.2395 36.4393 31.4475C35.8151 30.2574 36.3733 29.4735 36.5539 29.1774C36.7697 28.8216 36.8442 28.744 37.1393 28.4479C37.0568 28.4203 36.9052 28.4097 36.866 28.2944C36.866 28.2944 37.607 27.6447 38.06 26.9086C38.0652 26.9005 38.0699 26.892 38.0738 26.8832C38.4974 25.998 38.8171 25.2781 38.8171 25.2781C39.9933 24.2016 40.7472 23.348 41.009 22.5843C42.2262 22.2522 42.4553 19.3562 39.9389 19.7036Z" fill="url(#paint6_linear)"/>
<path d="M38.0959 26.8511V26.859C37.6656 27.5854 36.9344 28.2412 36.8729 28.2956L36.8693 28.2987C36.9085 28.414 37.0601 28.4246 37.1426 28.4522C36.8475 28.7483 36.773 28.8259 36.5572 29.1817C36.3766 29.4791 35.8157 30.2568 36.4399 31.4474L36.4426 31.4518H36.4399L36.4114 31.4465L36.3775 31.4408C36.3655 31.4408 36.3539 31.4377 36.3423 31.4355L36.2674 31.425L36.2139 31.4171L36.1207 31.4066H36.1055L36.0382 31.3987C35.9861 31.3939 35.9343 31.3904 35.8826 31.3868C35.5015 31.363 35.1189 31.382 34.7421 31.4434H34.7367C34.6703 31.4544 34.603 31.4667 34.5397 31.4798C34.3449 31.5201 34.1529 31.5719 33.9645 31.6351C33.87 31.6671 33.779 31.7022 33.6903 31.7387C33.6422 31.758 33.5949 31.7781 33.5485 31.7987C33.5039 31.8185 33.4594 31.8391 33.4148 31.8602L33.405 31.865C33.3622 31.8855 33.3202 31.9065 33.2792 31.9282C33.2222 31.904 33.1651 31.8808 33.1076 31.858L33.0786 31.8466C33.0251 31.8255 32.9716 31.8049 32.9176 31.7847L32.8762 31.7689C32.8316 31.7501 32.787 31.7334 32.7393 31.7185C32.7183 31.7119 32.6978 31.7049 32.6773 31.6974L32.5181 31.643C32.4548 31.622 32.3915 31.6018 32.3282 31.5816L32.2903 31.5698C32.1664 31.5312 32.0426 31.4946 31.9189 31.4601L31.8815 31.45C31.8257 31.4347 31.77 31.4193 31.7147 31.4061L31.6951 31.4009C31.6407 31.3864 31.5858 31.3728 31.5319 31.3592H31.5265C31.4619 31.343 31.3977 31.3276 31.3335 31.3123L31.2996 31.3044L31.132 31.2662L31.1177 31.2631C31.0539 31.2491 30.9911 31.2355 30.9282 31.2228L30.9166 31.2202C30.7329 31.182 30.5532 31.1478 30.3789 31.1175L30.353 31.1131C30.2986 31.1035 30.2447 31.0943 30.1916 31.0859H30.1809L30.0329 31.0622H30.016L29.8996 31.0447H29.8934L29.7881 31.0293L29.7583 31.0254L29.6758 31.014L29.6459 31.01L29.5434 30.9964H29.5398L29.4368 30.9837H29.4261L29.3369 30.9732L29.3213 30.971C29.25 30.9631 29.1809 30.9552 29.1149 30.9486H29.1069L28.9816 30.9363H28.9722L28.9254 30.932L28.9013 30.9293L28.8371 30.9241H28.8318L28.7849 30.9205H28.7667C28.7274 30.917 28.6895 30.9144 28.6534 30.9118H28.6472L28.5317 30.9039L28.4826 30.9012H28.4764L28.4349 30.8986L28.3904 30.8964H28.0916C28.084 30.8644 28.0751 30.8324 28.0667 30.8008C28.0542 30.7547 28.0408 30.7095 28.0265 30.6644C27.9993 30.5766 27.9686 30.4928 27.9374 30.4091C27.9374 30.4051 27.9342 30.4012 27.9329 30.3972C27.8852 30.2691 27.8268 30.1451 27.7581 30.0265L27.7332 29.9827L27.71 29.9423C27.6886 29.9042 27.6823 29.8936 27.6587 29.8577C27.6206 29.7963 27.581 29.7362 27.5396 29.6774C27.5156 29.6436 27.4911 29.6098 27.4656 29.5765L27.4567 29.5642C27.3924 29.4781 27.3232 29.3956 27.2494 29.3172C27.2106 29.2734 27.1709 29.2339 27.1299 29.1935C27.0782 29.1417 27.0248 29.0915 26.9698 29.0431C26.9119 28.9922 26.8544 28.94 26.7973 28.8873L26.7866 28.8777C26.7304 28.8251 26.6742 28.7715 26.6189 28.7167L26.6163 28.7141V28.7114C26.5601 28.6556 26.5047 28.5987 26.45 28.5408V28.5386C26.3942 28.4798 26.3398 28.4202 26.2859 28.3592V28.357C26.2453 28.3109 26.2052 28.2644 26.166 28.2171C25.5614 27.4893 25.0999 26.6111 24.9871 25.5763C24.9153 24.9139 24.9871 24.1875 25.2546 23.3948V23.3926C25.2716 23.344 25.288 23.2953 25.3059 23.2466V23.2422C24.8721 27.3125 27.4995 28.0491 30.1667 27.7898C29.9938 27.9531 29.81 28.1047 29.6165 28.2438C29.5986 28.257 29.596 28.2916 29.6232 28.2965C30.3655 28.4219 31.062 28.1061 31.7281 27.8214C31.5901 28.0083 31.435 28.1825 31.2648 28.3416C31.2608 28.3456 31.258 28.3507 31.2569 28.3563C31.2558 28.3618 31.2563 28.3675 31.2585 28.3727C31.2607 28.378 31.2644 28.3824 31.2692 28.3855C31.274 28.3887 31.2796 28.3903 31.2853 28.3903C32.252 28.3794 33.0835 27.7793 33.8267 27.2301C33.7887 27.3415 33.7511 27.4526 33.7139 27.5635C33.7122 27.5683 33.7118 27.5736 33.713 27.5786C33.7141 27.5837 33.7166 27.5883 33.7203 27.592C33.724 27.5957 33.7286 27.5983 33.7337 27.5996C33.7388 27.6008 33.7442 27.6006 33.7492 27.599C34.4313 27.3797 34.9976 26.941 35.4394 26.3979C35.5395 26.2566 35.6685 26.1375 35.8182 26.0483C35.968 25.9591 36.135 25.9018 36.3087 25.88C36.4823 25.8582 36.6586 25.8725 36.8263 25.9219C36.994 25.9712 37.1493 26.0547 37.2822 26.1668L38.0959 26.8511Z" fill="url(#paint7_linear)"/>
<path d="M28.5331 24.443C28.3057 24.146 28.1461 23.7442 28.1978 23.3674C28.0725 23.4341 27.9512 23.5073 27.8251 23.5718C27.8206 23.5744 27.8155 23.5759 27.8103 23.5759C27.805 23.576 27.7999 23.5747 27.7953 23.5721C27.7908 23.5696 27.787 23.5659 27.7844 23.5614C27.7818 23.557 27.7805 23.5519 27.7805 23.5468C27.8081 23.1788 28.0007 22.8761 28.1211 22.5379C27.9548 22.5641 27.7903 22.6003 27.6284 22.6462C27.6226 22.648 27.6164 22.6479 27.6106 22.646C27.6049 22.6441 27.5998 22.6406 27.5962 22.6357C27.5926 22.6309 27.5906 22.6251 27.5904 22.6192C27.5903 22.6132 27.5921 22.6073 27.5955 22.6024C27.9887 22.0128 28.6606 21.6254 29.3307 21.3978L29.3468 21.3623C29.3849 21.2957 29.4006 21.2188 29.3914 21.1429V21.1346C29.2023 20.4068 27.6588 21.0249 26.9338 21.8715C26.2481 22.6721 26.0697 23.7376 26.2761 24.6316C26.4902 25.5563 27.1162 26.2985 28.0186 26.3731C28.2186 26.3908 28.4202 26.3784 28.6165 26.3363L28.6374 26.3314C28.782 26.2982 28.9218 26.2472 29.0534 26.1796C29.4578 25.9717 29.7302 25.4725 29.5751 24.9707C29.1952 24.8347 28.7993 24.7908 28.5331 24.443Z" fill="url(#paint8_linear)"/>
<path opacity="0.71" d="M41.8931 21.0945C41.8931 21.0506 41.8887 21.0032 41.8842 20.9576C41.8797 20.912 41.8735 20.8734 41.8659 20.8317C41.861 20.8063 41.8561 20.7808 41.8503 20.7554C41.8249 20.645 41.7869 20.5377 41.7371 20.4356C41.707 20.3747 41.6724 20.3161 41.6336 20.2601C41.5938 20.2037 41.5497 20.1504 41.5016 20.1005C41.4518 20.0497 41.3979 20.003 41.3402 19.961C41.3003 19.9322 41.2588 19.9055 41.2159 19.8811C40.9095 19.7057 40.4904 19.6285 39.9402 19.7057C39.9402 19.7057 38.9228 19.814 38.4546 19.8303C37.8215 19.8522 37.2722 19.8816 36.9833 19.8667C36.9311 19.8652 36.8791 19.8587 36.8281 19.8474C38.3213 20.3119 35.8874 24.0335 39.6745 24.463C40.1485 23.9783 40.5118 23.5418 40.7553 23.1325L40.7593 23.1264C40.7807 23.09 40.8016 23.054 40.8208 23.0185V23.0163C40.8387 22.9838 40.8556 22.9513 40.8721 22.9189L40.881 22.9009C40.8975 22.8676 40.9136 22.8347 40.9283 22.8018C40.9283 22.8018 40.9283 22.7978 40.9305 22.7961C40.9439 22.7662 40.9568 22.7364 40.9684 22.7083C40.972 22.7004 40.9751 22.6925 40.9782 22.6846C40.9902 22.6531 41.0023 22.6215 41.013 22.5903C41.0259 22.5868 41.0388 22.5824 41.0513 22.578C41.0638 22.5737 41.0776 22.5693 41.0906 22.5644C41.1282 22.5501 41.1648 22.5334 41.2002 22.5144C41.2208 22.5035 41.2408 22.4916 41.2604 22.4793L41.2925 22.4583C41.3356 22.4285 41.3765 22.3957 41.4147 22.36L41.4192 22.3561C41.6033 22.1744 41.7376 21.9499 41.8097 21.7033C41.8708 21.5062 41.899 21.3005 41.8931 21.0945Z" fill="url(#paint9_linear)"/>
<path opacity="0.83" d="M31.6408 20.0273C31.7405 20.028 31.8401 20.0209 31.9386 20.0058C31.9444 20.0041 31.9507 20.0041 31.9564 20.006C31.9622 20.0079 31.9672 20.0115 31.9709 20.0163C31.9745 20.0211 31.9765 20.0269 31.9766 20.0329C31.9768 20.0388 31.975 20.0447 31.9716 20.0497C31.7086 20.5879 31.4789 21.1025 31.5784 21.7135C31.6173 21.9612 31.7 22.2002 31.8227 22.4198C31.8433 22.456 31.8764 22.4838 31.9159 22.4983C32.3863 20.5182 36.127 21.735 36.8239 19.8453C35.6919 19.6509 34.7284 18.5188 34.4457 17.9564C34.4457 17.952 34.4412 17.9485 34.439 17.9445C34.4324 17.928 34.4225 17.913 34.4099 17.9002C34.3974 17.8875 34.3824 17.8773 34.3658 17.8703C34.3492 17.8633 34.3314 17.8596 34.3133 17.8594C34.2953 17.8592 34.2774 17.8625 34.2607 17.8691C34.1496 17.9007 33.9753 18.0038 33.6659 18.1323L33.6409 18.1424H33.6382C33.5678 18.1713 33.4915 18.2012 33.4073 18.2301C32.6573 18.5968 32.0242 19.2952 31.6408 20.0273Z" fill="url(#paint10_linear)"/>
<path d="M34.5518 19.6881C33.8455 19.7675 33.5486 21.105 33.125 21.3888C33.883 21.1488 34.8532 21.1063 35.624 20.8558C35.7226 19.9658 35.1657 19.6197 34.5518 19.6881Z" fill="url(#paint11_linear)"/>
<path d="M34.7544 20.3489C34.3892 20.3704 34.193 21.0271 33.9688 21.1964C34.4115 21.1179 34.8721 21.0538 35.2952 20.9499C35.346 20.516 35.0696 20.3305 34.7544 20.3489Z" fill="url(#paint12_linear)"/>
<path opacity="0.8" d="M37.7053 26.6826C37.809 26.7273 37.9264 26.7303 38.0323 26.6908C38.1381 26.6514 38.224 26.5727 38.2716 26.4716V26.4681L38.2752 26.461L38.3144 26.3768L38.3166 26.372C38.3585 26.2825 38.3985 26.197 38.4366 26.1154C38.6595 25.621 38.816 25.2819 38.816 25.2819C39.9908 24.2063 40.7443 23.354 41.0069 22.5898C38.4655 24.169 36.0989 22.5368 34.682 23.5474C34.653 23.572 34.5807 23.6391 34.4849 23.7304C34.3607 23.8488 34.268 23.9954 34.2149 24.1574C34.1619 24.3194 34.1501 24.4917 34.1807 24.6592C34.2112 24.8266 34.2832 24.9842 34.3902 25.1179C34.4972 25.2515 34.636 25.3573 34.7943 25.4258L37.7053 26.6826Z" fill="url(#paint13_radial)"/>
<path d="M40.0038 19.6964L39.9962 19.7078C39.9568 19.7797 39.9278 19.8566 39.9102 19.9364L39.9137 19.9395C39.9818 20.0003 40.0622 20.0463 40.1496 20.0746C40.253 20.1075 40.294 20.1623 40.3511 20.2562C40.3862 20.3228 40.4153 20.3924 40.4381 20.4641C40.4497 20.4931 40.4637 20.5211 40.48 20.5479C41.0912 20.7453 41.9513 20.8396 41.8541 21.523C42.0414 20.6181 41.5759 19.5104 40.0038 19.6964Z" fill="url(#paint14_linear)"/>
<defs>
<linearGradient id="paint0_linear" x1="26.7777" y1="16.0047" x2="40.2332" y2="37.0645" gradientUnits="userSpaceOnUse">
<stop stop-color="#D6D6D6"/>
<stop offset="0.03" stop-color="#E0E0E0"/>
<stop offset="0.09" stop-color="#EBEBEB"/>
<stop offset="0.15" stop-color="#EFEFEF"/>
<stop offset="0.64" stop-color="#EFEFEF"/>
<stop offset="0.73" stop-color="#EFEFEF"/>
<stop offset="0.8" stop-color="#EAEAEA"/>
<stop offset="0.88" stop-color="#DADADA"/>
<stop offset="0.98" stop-color="#C0C0C0"/>
<stop offset="1" stop-color="#BABABA"/>
</linearGradient>
<linearGradient id="paint1_linear" x1="27.0419" y1="35.2787" x2="44.9146" y2="37.9614" gradientUnits="userSpaceOnUse">
<stop offset="0.1" stop-color="#641724"/>
<stop offset="0.21" stop-color="#711825"/>
<stop offset="0.42" stop-color="#941B26"/>
<stop offset="0.58" stop-color="#B31E28"/>
<stop offset="1" stop-color="#D2202F"/>
</linearGradient>
<linearGradient id="paint2_linear" x1="27.8599" y1="34.969" x2="43.4257" y2="37.3109" gradientUnits="userSpaceOnUse">
<stop offset="0.08" stop-color="#321724"/>
<stop offset="0.32" stop-color="#471825" stop-opacity="0.87"/>
<stop offset="0.66" stop-color="#801B29" stop-opacity="0.51"/>
<stop offset="1" stop-color="#D2202F" stop-opacity="0"/>
</linearGradient>
<linearGradient id="paint3_linear" x1="29.7005" y1="45.6866" x2="31.0215" y2="36.6155" gradientUnits="userSpaceOnUse">
<stop stop-color="#95191D" stop-opacity="0"/>
<stop offset="1" stop-color="#4A191D"/>
</linearGradient>
<linearGradient id="paint4_linear" x1="33.2773" y1="34.6184" x2="41.7888" y2="34.6184" gradientUnits="userSpaceOnUse">
<stop stop-color="#B59F2C"/>
<stop offset="0.87" stop-color="#F0EEC5"/>
</linearGradient>
<linearGradient id="paint5_linear" x1="1282.47" y1="1909.52" x2="1932.23" y2="1401.29" gradientUnits="userSpaceOnUse">
<stop stop-color="#B59F2C"/>
<stop offset="0.87" stop-color="#F0EEC5"/>
</linearGradient>
<linearGradient id="paint6_linear" x1="26.9474" y1="29.6367" x2="41.0667" y2="18.8225" gradientUnits="userSpaceOnUse">
<stop stop-color="#25130E"/>
<stop offset="0.02" stop-color="#2A1711"/>
<stop offset="0.46" stop-color="#AC8864"/>
<stop offset="0.66" stop-color="#E0B585"/>
<stop offset="0.8" stop-color="#E9C08F"/>
<stop offset="1" stop-color="#FBD6A4"/>
</linearGradient>
<linearGradient id="paint7_linear" x1="36.4373" y1="24.6139" x2="23.8552" y2="30.9559" gradientUnits="userSpaceOnUse">
<stop stop-color="#E0B585" stop-opacity="0"/>
<stop offset="0.03" stop-color="#D3AA7D" stop-opacity="0.07"/>
<stop offset="0.29" stop-color="#73573F" stop-opacity="0.58"/>
<stop offset="0.55" stop-color="#39251A" stop-opacity="0.89"/>
<stop offset="0.81" stop-color="#26140E"/>
<stop offset="1" stop-color="#25130E"/>
</linearGradient>
<linearGradient id="paint8_linear" x1="26.4277" y1="23.2801" x2="30.592" y2="23.938" gradientUnits="userSpaceOnUse">
<stop offset="0.07" stop-color="#25130E"/>
<stop offset="0.79" stop-color="#5A321E" stop-opacity="0.4"/>
</linearGradient>
<linearGradient id="paint9_linear" x1="37.2183" y1="22.5807" x2="41.7724" y2="20.6331" gradientUnits="userSpaceOnUse">
<stop offset="0.21" stop-color="#E0B585" stop-opacity="0.2"/>
<stop offset="0.49" stop-color="#A8805E" stop-opacity="0.56"/>
<stop offset="0.77" stop-color="#7A563F" stop-opacity="0.85"/>
<stop offset="0.96" stop-color="#6A4634" stop-opacity="0.96"/>
</linearGradient>
<linearGradient id="paint10_linear" x1="31.2092" y1="20.1791" x2="37.0549" y2="20.1791" gradientUnits="userSpaceOnUse">
<stop stop-color="#5A321E" stop-opacity="0.1"/>
<stop offset="0.14" stop-color="#512C1B" stop-opacity="0.39"/>
<stop offset="0.35" stop-color="#462617" stop-opacity="0.73"/>
<stop offset="0.56" stop-color="#3F2215" stop-opacity="0.93"/>
<stop offset="0.78" stop-color="#3D2114"/>
</linearGradient>
<linearGradient id="paint11_linear" x1="33.1232" y1="20.5343" x2="35.6343" y2="20.5343" gradientUnits="userSpaceOnUse">
<stop stop-color="#5A321E" stop-opacity="0.1"/>
<stop offset="0.38" stop-color="#402316" stop-opacity="0.39"/>
<stop offset="1" stop-color="#25130E" stop-opacity="0.7"/>
</linearGradient>
<linearGradient id="paint12_linear" x1="33.9688" y1="20.7722" x2="35.3014" y2="20.7722" gradientUnits="userSpaceOnUse">
<stop stop-color="#25130E" stop-opacity="0.2"/>
<stop offset="0.53" stop-color="#25130E" stop-opacity="0.69"/>
<stop offset="1" stop-color="#25130E"/>
</linearGradient>
<radialGradient id="paint13_radial" cx="0" cy="0" r="1" gradientUnits="userSpaceOnUse" gradientTransform="translate(40.6763 21.4746) rotate(-10.7993) scale(6.72704 4.80352)">
<stop offset="0.39" stop-color="#47210E"/>
<stop offset="0.58" stop-color="#4D2713" stop-opacity="0.96"/>
<stop offset="0.71" stop-color="#603922" stop-opacity="0.83"/>
<stop offset="0.82" stop-color="#81593B" stop-opacity="0.62"/>
<stop offset="0.92" stop-color="#AF865F" stop-opacity="0.32"/>
<stop offset="1" stop-color="#E0B585" stop-opacity="0"/>
</radialGradient>
<linearGradient id="paint14_linear" x1="40.0421" y1="21.0953" x2="41.9821" y2="19.9982" gradientUnits="userSpaceOnUse">
<stop offset="0.14" stop-color="#5A321E" stop-opacity="0.3"/>
<stop offset="1" stop-color="#25130E" stop-opacity="0.9"/>
</linearGradient>
</defs>
</svg>
