<svg xmlns="http://www.w3.org/2000/svg" width="135" height="31"><path d="M29.737 23.48l-.04.148h-.264v.812h-.18v-.812h-.28v-.15h.764zm-11.034-1.5c0 .76-.325 1.315-.964 1.315-.63 0-.99-.53-.99-1.315 0-.75.31-1.296.96-1.296.63 0 .99.52.99 1.296zm4.543-5.084h-1.57c0-.445.3-.89.793-.89.52 0 .75.456.77.89zm-7.794.45c0 .76-.325 1.315-.964 1.315-.625 0-.99-.52-.99-1.31 0-.75.314-1.29.964-1.29.628 0 .99.52.99 1.3zm6.646-5.084H20.53c0-.44.296-.885.79-.885.52 0 .76.45.778.885zm-6.007.454c0 .758-.32 1.31-.96 1.31-.62 0-.99-.526-.99-1.31 0-.752.32-1.296.97-1.296.63 0 .99.52.99 1.296zm-8.12-.752c0 1.26-.73 2.02-1.77 2.02-1.06 0-1.79-.76-1.79-2.02 0-1.27.73-2.04 1.79-2.04 1.08 0 1.78.802 1.78 2.04zm22.78 18.85c-.93.005-1.62.02-1.98.005-2.54-.11-4.32-.87-5.9-2.79-2.55 1.43-5.26 2.09-8.08 1.98-3.11-.13-6.02-1.22-8.49-3.17C2.37 23.73.26 19.36.26 14.19c0-4.002 1.534-7.54 4.366-10.215C7.454 1.3 11.014.025 15.094.19c3.843.152 7.48 1.795 10.272 4.656 2.91 2.987 4.446 6.685 4.446 10.77 0 2.865-.697 5.41-2.034 7.567l-1.16-1.484 1.66-1.73h-1.19l-1.296 1.37h-.015v-3.38h-1.025V24h1.025v-1.88h.015L27.226 24c.776.948 1.737.876 2.708.916.242.01.524.02.81-.007v5.9zm-6.4-6.81c-.07-.206-.07-.495-.07-1.12V19.97h-1.03v2.976c-.17.152-.44.332-.77.332-.49 0-.72-.314-.72-.82V19.97h-1.03v2.55c0 1.297.84 1.568 1.37 1.568.54 0 .96-.228 1.24-.484l.178.4h.85zm-3.61-.495a.59.59 0 0 0-1.18-.01c0 .34.27.6.6.6a.6.6 0 0 0 .59-.61zm-.97-1.54c0-.62-.19-1.15-.54-1.52-.35-.37-.86-.58-1.48-.58-.59 0-1.07.21-1.43.57-.38.38-.59.93-.59 1.56 0 .65.22 1.2.62 1.58.35.32.83.5 1.39.5.61 0 1.1-.22 1.46-.58.38-.38.58-.93.58-1.54zm-3.92 1.68l-.25-.68c-.28.16-.57.28-.95.28-.802 0-1.18-.61-1.18-1.31 0-.75.497-1.3 1.188-1.3.417 0 .736.12 1.02.33l.01-.83c-.23-.15-.602-.28-1.15-.28-1.204 0-2.09.9-2.09 2.13 0 1.13.67 2.08 1.985 2.08.55 0 1.1-.22 1.42-.44zm-3.22-.15c0-.35-.26-.62-.59-.62a.59.59 0 0 0-.59.61.594.594 0 0 0 1.19-.01zm11.68-5.88v-.3c0-1.26-.71-2.08-1.8-2.08-1.15 0-1.83.95-1.83 2.1 0 1.08.6 2.11 2.01 2.11.475 0 1.014-.13 1.465-.45l-.24-.66c-.35.19-.66.28-1.05.28-.62 0-1.11-.42-1.13-1.02h2.6zm-3.87 1.74v-2.68c0-1.09-.65-1.45-1.27-1.45-.54 0-.98.2-1.41.52l-.112-.43h-.87v4.03H17.8v-2.82c.32-.24.67-.43 1.03-.43.52 0 .6.46.6.874v2.38h1.02zm-3.93-2.02c0-.62-.18-1.15-.54-1.52-.35-.37-.86-.58-1.48-.58-.59 0-1.07.21-1.43.57-.37.38-.583.93-.583 1.56 0 .65.22 1.2.62 1.58.35.32.828.5 1.39.5.61 0 1.104-.22 1.46-.59.376-.378.57-.92.57-1.537zm-3.83 2.03v-.81l-1.8.02 1.81-3.25H9.44l.224.8 1.517-.03-1.85 3.26h3.34zm10.49-6.39v-.3c0-1.26-.71-2.08-1.81-2.08-1.15 0-1.83.95-1.83 2.11 0 1.08.6 2.1 2.003 2.1.48 0 1.02-.12 1.47-.44l-.25-.66c-.35.19-.663.29-1.046.29-.63 0-1.12-.42-1.14-1.01h2.6zm-3.413 1.39l-.28-.648c-.16.1-.42.22-.68.22-.267 0-.386-.15-.386-.46v-2.03h.953l.3-.77H18.4V9.46l-1.024.308v4.104c0 .545.28.945 1 .945.39 0 .94-.136 1.354-.436zm-2.6-1.68c0-.616-.19-1.14-.54-1.518-.36-.37-.86-.59-1.49-.59-.59 0-1.08.21-1.43.57-.38.39-.59.93-.59 1.56 0 .642.22 1.2.62 1.58.35.32.83.5 1.39.5.61 0 1.1-.218 1.46-.58.37-.38.57-.92.57-1.54zm-4.19 2.03c-.07-.205-.08-.497-.08-1.118V10.7h-1.02v2.977c-.18.156-.45.337-.78.337-.5 0-.73-.318-.73-.82V10.7H9.33v2.55c0 1.298.834 1.57 1.362 1.57.538 0 .957-.23 1.24-.486l.18.4h.84zm-3.9-2.788c0-.828-.27-1.565-.777-2.074-.507-.506-1.22-.803-2.09-.803-.848 0-1.563.31-2.065.817-.513.53-.813 1.28-.813 2.11 0 .87.317 1.63.877 2.15.305.29.7.5 1.144.62.512.72 1.194 1.37 2.166 1.37.39 0 .784-.05 1.1-.19l-.23-.71a1.82 1.82 0 0 1-.6.106c-.476 0-.81-.213-1.122-.51a2.784 2.784 0 0 0 1.61-.79c.52-.51.796-1.26.796-2.07zm21.685 12.5h-.176v-.675a.52.52 0 0 1-.06.097l-.197.31h-.08l-.21-.313a.35.35 0 0 1-.06-.09v.68h-.17v-.96h.17l.27.38c.03.04.047.07.065.11l.06-.1.245-.38h.17v.96zm4.196-5.71c0-2.245.735-4.225 3.76-4.225 2.867 0 3.78 1.49 3.78 3.98v7.58c0 1.335-.38 2.624-.936 3.246l.042.044c.4-.2 1.135-.264 2.09-.264v1.6c-1.666 0-4 .133-4.98.133-2.845 0-3.756-1.49-3.756-3.98v-8.11zm2.225 8.25c0 1.376.623 2.11 1.534 2.11.933 0 1.556-.734 1.556-2.11V18.55c0-1.578-.537-2.313-1.56-2.313-1 0-1.534.733-1.534 2.312v8.42zm13.14 3.71h-1.96v-.934h-.042a2.06 2.06 0 0 1-.8.78c-.333.2-.71.29-1.134.29-1.045 0-1.957-.558-1.957-2.2v-9.09h2.09v8.69c0 .58.154 1 .8 1 .51 0 .91-.312.91-1.18v-8.51h2.09v11.16zm1.49-8.29c0-1.89 1.09-3.003 2.956-3.003 1.6 0 2.98.71 2.98 2.78v5.646c0 1.89-1.09 3-2.958 3-1.6 0-2.98-.71-2.98-2.78V22.4zm2.09 5.557c0 .89.22 1.4.89 1.4.643 0 .865-.51.865-1.4v-5.69c0-.89-.23-1.4-.87-1.4-.67 0-.89.512-.89 1.4v5.692zm5.736-6.96h-1.05v-1.46h1.044v-2.11l2.09-.734v2.846h1.28V21H61.7v7.225c0 .845.38 1.002 1 1.002.247 0 .4-.023.536-.067v1.467a15.17 15.17 0 0 1-1.356.066c-1.667 0-2.267-.488-2.267-1.49V21zm4.045 1.402c0-1.89 1.09-3.003 3.026-3.003 1.667 0 3.046.71 3.046 2.78v3.6h-3.98v2.38c0 1.045.356 1.334 1.023 1.334.78 0 1-.55 1-1.44v-1.02h1.957v1.58c0 1.14-.8 2.23-3.112 2.23-1.57 0-2.95-.71-2.95-2.78V22.4zm2.09 1.91h2.025v-2.18c0-1-.29-1.4-1-1.4-.778 0-1.023.424-1.023 1.225v2.356zm4.89 4.36l2.917-7.54h-2.92v-1.6h4.87v1.823l-3 7.736h3v1.6h-4.87v-2.02zm5.85-6.27c0-1.89 1.09-3.003 2.957-3.003 1.6 0 2.97.71 2.97 2.78v5.646c0 1.89-1.09 3-2.96 3-1.6 0-2.98-.71-2.98-2.78V22.4zm2.09 5.557c0 .89.223 1.4.89 1.4.646 0 .866-.51.866-1.4v-5.69c0-.89-.22-1.4-.865-1.4-.67 0-.89.512-.89 1.4v5.692zm5.336-8.426h1.957v.935h.045c.2-.334.467-.6.8-.778.333-.2.71-.29 1.134-.29 1.043 0 1.955.557 1.955 2.202v9.09h-2.09V22c0-.58-.15-1.002-.8-1.002-.51 0-.91.313-.91 1.18v8.514h-2.09v-11.16zm7.314 2.87c0-1.89 1.09-3.003 3.023-3.003 1.668 0 3.045.71 3.045 2.78v3.602h-3.98v2.38c0 1.044.357 1.333 1.025 1.333.775 0 1-.55 1-1.44v-1.02h1.95v1.58c0 1.14-.8 2.23-3.113 2.23-1.58 0-2.958-.71-2.958-2.78V22.4zm2.09 1.91h2.023v-2.18c0-1-.29-1.4-1-1.4-.78 0-1.023.424-1.023 1.225v2.356zm5.403 3.757h2.623v2.624h-2.63v-2.62zm3.845-5.667c0-1.89 1.09-3.003 2.937-3.003 1.89 0 2.714.937 2.714 2.226v1.67h-1.96v-1.22c0-.84-.31-1.2-.8-1.2-.49 0-.8.45-.8 1.31v6.14c0 .67.24 1.05.8 1.05s.8-.4.8-1.09v-1.34h1.95v1.69c0 1.69-1.41 2.2-2.69 2.2-1.58 0-2.96-.71-2.96-2.78V22.4zm6.85 0c0-1.89 1.09-3.003 2.956-3.003 1.603 0 2.98.71 2.98 2.78v5.65c0 1.89-1.09 3-2.957 3-1.6 0-2.98-.71-2.98-2.78V22.4zm2.09 5.557c0 .89.222 1.4.89 1.4.644 0 .865-.51.865-1.4v-5.69c0-.89-.22-1.4-.87-1.4-.665 0-.89.515-.89 1.4v5.695zm5.335.11h2.62v2.626h-2.622v-2.62zm10.024 2.625h-1.954v-.934h-.046c-.2.336-.47.604-.81.78-.33.2-.71.29-1.14.29-1.05 0-1.96-.56-1.96-2.202V19.53h2.09v8.692c0 .58.15 1.002.8 1.002.51 0 .91-.313.91-1.18V19.53h2.09v11.16zm1.515-16.05h2.09v9.626h.043l1.89-4.733h1.958l-2.022 5 2.29 6.16h-2.22l-1.89-5.735h-.04v5.738h-2.09V14.64z" fill="#ED1C24"/></svg>
