<svg  xmlns="http://www.w3.org/2000/svg" xmlns:xlink="http://www.w3.org/1999/xlink" viewBox="0 0 278.9 112.3">
    <style type="text/css">
        .st0{opacity:0.3;fill:url(#g1);}
        .st1{opacity:0.55;fill:url(#g2);}
        .st2{fill:url(#g3);}
        path {fill:url(#g4);}
    </style>
    <defs>
        <linearGradient id="g1" gradientUnits="userSpaceOnUse" x1="-2211.6343" y1="-534.9544" x2="-2104.783" y2="-522.5656" gradientTransform="matrix(0.8537 -0.5208 -0.5208 -0.8537 1617.7212 -1517.7925)">
            <stop  offset="0" style="stop-color:#776FB1"/>
            <stop  offset="1" style="stop-color:#B0117D"/>
        </linearGradient>
        <linearGradient id="g2" gradientUnits="userSpaceOnUse" x1="-831.3683" y1="-352.263" x2="-750.6921" y2="-314.0229" gradientTransform="matrix(0.9758 -0.2188 -0.2188 -0.9758 753.5431 -437.1664)">
            <stop  offset="0" style="stop-color:#776FB1"/>
            <stop  offset="1" style="stop-color:#B0117D"/>
        </linearGradient>
        <linearGradient id="g3" gradientUnits="userSpaceOnUse" x1="25.5472" y1="34.8496" x2="79.7142" y2="77.1696" gradientTransform="matrix(1 0 0 -1 0 111.864)">
			<stop  offset="0" style="stop-color:#593EA0"/>
			<stop  offset="1" style="stop-color:#881058"/>
		</linearGradient>
        <linearGradient id="g4" x1="30%" y1="100%" x2="100%" y2="0" gradientUnits="userSpaceOnUse">
            <stop offset="0%" style="stop-color:#62388E;stop-opacity:1" />
            <stop offset="100%" style="stop-color:#881058;stop-opacity:1" />
        </linearGradient>
    </defs>
    <g>
        <path class="st0" d="M97.7,30c15.6,25.5,7.5,58.8-18,74.4s-58.8,7.5-74.4-18c-15.6-25.5,7.1-49.7,18-74.4 C34.2-12.7,82.1,4.5,97.7,30z"/>
	    <path class="st1" d="M97.5,49.1c5.4,24-9.7,47.9-33.8,53.3s-47.9-9.7-53.3-33.8s18.7-36.9,33.8-53.3C59.2-1,92.1,25.1,97.5,49.1z" />
        <path class="st2" d="M83.8,41.2c8.1,17.2,0.7,37.7-16.5,45.8s-37.7,0.7-45.8-16.5c-8.1-17.2,7.9-31,16.5-45.8 C46.6,9.9,75.7,24,83.8,41.2z"/>
	</g>
    <g>
        <path id="m" d="M118.8,33.1l2.8-29.5c0.1-1.1,0.7-1.6,1.7-1.6h2.5c0.9,0,1.6,0.4,1.9,1.3l10.2,24.5l10.2-24.5 c0.4-0.9,1-1.3,2-1.3h2.4c1.1,0,1.7,0.5,1.8,1.6l2.8,29.5c0.1,1.2-0.5,1.8-1.6,1.8H154c-1.1,0-1.7-0.5-1.8-1.6l-2-23.7l-9.8,23.6 c-0.4,0.9-1,1.3-2,1.3h-0.8c-1,0-1.6-0.4-1.9-1.3l-9.8-23.6l-2.1,23.7c-0.1,1.1-0.7,1.6-1.8,1.6h-1.6 C119.4,34.9,118.7,34.3,118.8,33.1z"/>
        <path d="M161.9,23.1c0-6.8,5.5-12.3,12.4-12.3c6.9,0,12.5,5.5,12.5,12.3c0,6.8-5.6,12.3-12.5,12.3 C167.5,35.4,161.9,29.9,161.9,23.1z M182,23.1c0-4.5-3.4-8.1-7.7-8.1c-4.2,0-7.6,3.6-7.6,8.1c0,4.5,3.4,8,7.6,8 C178.6,31.2,182,27.6,182,23.1z"/>
        <path d="M192.2,33.2V13c0-1.1,0.7-1.7,1.7-1.7h1.4c1.1,0,1.7,0.6,1.7,1.7v2.9c1-3.3,4-5.1,7.8-5.1c5.2,0,9,3.4,9,10.8 v11.6c0,1.1-0.7,1.7-1.7,1.7h-1.4c-1.1,0-1.7-0.6-1.7-1.7V21.6c0-4.8-2.2-6.6-4.7-6.6c-2.4,0-7.3,1.6-7.3,8.8v9.4 c0,1.1-0.6,1.7-1.7,1.7h-1.4C192.8,34.9,192.2,34.3,192.2,33.2z"/>
        <path id="e" d="M218.9,23.2c0-6.9,5.4-12.4,12.7-12.4c5.9,0,11.3,3.5,12,11c0.1,1.1-0.5,1.7-1.6,1.7h-18.2 c-0.1,4.4,3.5,7.6,8.6,7.6c2.3,0,4.4-0.6,6.4-2c0.9-0.6,1.6-0.5,2.4,0.2l0.3,0.4c0.8,0.8,0.8,1.8-0.3,2.7c-2.7,2.2-5.9,2.9-8.8,2.9 C223.9,35.4,218.9,29.9,218.9,23.2z M238.7,20c-1.2-4.2-4.5-5.1-7.1-5.1c-2.7,0-6.1,1.1-7.6,5.1H238.7z"/>
        <path d="M251.3,43.4l3.6-9.4l-9-20.7c-0.5-1.2,0-2,1.3-2h1.9c1,0,1.6,0.4,1.9,1.3l6.5,15.9l6-15.9c0.3-0.9,1-1.4,2-1.4 h1.9c1.3,0,1.8,0.8,1.3,2l-13.1,30.8c-0.4,0.9-1,1.3-2,1.3h-1.1C251.3,45.4,250.8,44.6,251.3,43.4z"/>
    </g>
    <g>
        <path d="M117.6,64.5c-0.5-1,0.1-1.8,1.1-2.1l1.4-0.3c1-0.2,1.6,0.1,2.1,1.1c1.2,2,3.7,3.6,7,3.6c4.2,0,6.8-2.1,6.8-4.9 c0-2.5-2.1-4-4.7-5l-4.9-1.6c-6.2-2.1-7.7-5.8-7.7-8.8c0-5.7,5-9.2,10.7-9.2c5.2,0,8.8,2.5,10.3,6.2c0.4,1-0.1,1.8-1.1,2.1 l-1.2,0.4c-1,0.3-1.7-0.1-2.2-1.1c-1.1-2.2-3.1-3.2-5.8-3.2c-3.1,0-5.7,1.7-5.7,4.6c0,1.4,0.4,3.1,4.2,4.6l4.9,1.8 c5.5,1.7,8.1,5.4,8.1,8.9c0,5.9-4.7,9.6-11.6,9.6C123.4,71.2,119.3,68.4,117.6,64.5z"/>
        <path d="M145.9,60.4V48.8c0-1.1,0.6-1.7,1.7-1.7h1.4c1.1,0,1.7,0.6,1.7,1.7v11.6c0,4.8,2.2,6.6,4.7,6.6 c2.4,0,7.3-1.7,7.3-8.8v-9.4c0-1.1,0.6-1.7,1.7-1.7h1.4c1.1,0,1.7,0.6,1.7,1.7V69c0,1.1-0.7,1.7-1.7,1.7h-1.4 c-1.1,0-1.7-0.6-1.7-1.7v-2.9c-1,3.3-4,5.1-7.8,5.1C149.6,71.2,145.9,67.8,145.9,60.4z"/>
        <path d="M174.6,79.5V48.8c0-1.1,0.7-1.7,1.7-1.7h1.4c1.1,0,1.7,0.6,1.7,1.7v2c2.2-3.1,5.3-4.2,8.5-4.2 c7,0,11.7,5.5,11.7,12.3s-4.7,12.3-11.7,12.3c-3.1,0-6.3-1.1-8.5-4.2v12.5c0,1.1-0.6,1.7-1.7,1.7h-1.4 C175.2,81.2,174.6,80.6,174.6,79.5z M194.7,58.9c0-4.4-2.7-8.1-7.5-8.1c-4.6,0-7.8,3.4-7.8,8.1c0,4.7,3.2,8.1,7.8,8.1 C192,67,194.7,63.3,194.7,58.9z"/>
        <path d="M203.1,59c0-6.9,5.4-12.4,12.7-12.4c5.9,0,11.3,3.5,12,11c0.1,1.1-0.5,1.7-1.6,1.7h-18.2 c-0.1,4.4,3.5,7.6,8.6,7.6c2.3,0,4.4-0.6,6.4-2c0.9-0.6,1.6-0.5,2.4,0.2l0.3,0.4c0.8,0.8,0.8,1.8-0.3,2.7c-2.7,2.2-5.9,2.9-8.8,2.9 C208.2,71.2,203.1,65.7,203.1,59z M223,55.8c-1.2-4.2-4.5-5.1-7.1-5.1c-2.7,0-6.1,1.1-7.6,5.1H223z"/>
        <path id="r" d="M232.9,69V48.8c0-1.1,0.7-1.7,1.7-1.7h1.4c1.1,0,1.7,0.6,1.7,1.7v3.6c0.8-3.8,3.5-5.8,6.3-5.8l1,0 c1,0.1,1.1,0.9,1.1,1.9v1.4c0,1.2-0.5,1.6-1.3,1.5c-0.4-0.1-0.8-0.1-1.3-0.1c-1.7,0-5.9,0.8-5.9,10.5V69c0,1.1-0.6,1.7-1.7,1.7 h-1.4C233.6,70.7,232.9,70.1,232.9,69z"/>
    </g>
    <g>
        <path d="M118.4,107.6l2.8-29.5c0.1-1.1,0.7-1.6,1.7-1.6h2.5c0.9,0,1.6,0.4,1.9,1.3l10.2,24.5l10.2-24.5 c0.4-0.9,1-1.3,2-1.3h2.4c1.1,0,1.7,0.5,1.8,1.6l2.8,29.5c0.1,1.2-0.5,1.8-1.6,1.8h-1.6c-1.1,0-1.7-0.5-1.8-1.6l-2-23.7l-9.8,23.6 c-0.4,0.9-1,1.3-2,1.3h-0.8c-1,0-1.6-0.4-1.9-1.3l-9.8-23.6l-2.1,23.7c-0.1,1.1-0.7,1.6-1.8,1.6h-1.6 C119,109.4,118.3,108.8,118.4,107.6z"/>
        <path d="M161.6,97.6c0-6.8,4.7-12.3,11.7-12.3c3.1,0,6.2,1.1,8.4,4.2v-2c0-1.1,0.7-1.7,1.7-1.7h1.4 c1.1,0,1.7,0.6,1.7,1.7v20.2c0,1.1-0.6,1.7-1.7,1.7h-1.4c-1.1,0-1.7-0.6-1.7-1.7v-2c-2.2,3.1-5.3,4.2-8.4,4.2 C166.2,109.9,161.6,104.4,161.6,97.6z M181.7,97.6c0-4.7-3.2-8.1-7.8-8.1c-4.7,0-7.5,3.7-7.5,8.1c0,4.4,2.7,8.1,7.5,8.1 C178.6,105.7,181.7,102.3,181.7,97.6z"/>
        <path d="M193.6,107.7V87.6c0-1.1,0.7-1.7,1.7-1.7h1.4c1.1,0,1.7,0.6,1.7,1.7v3.6c0.8-3.8,3.5-5.8,6.3-5.8l1,0 c1,0.1,1.1,0.9,1.1,1.9v1.4c0,1.2-0.5,1.6-1.3,1.5c-0.4-0.1-0.8-0.1-1.3-0.1c-1.7,0-5.9,0.8-5.9,10.5v7.3c0,1.1-0.6,1.7-1.7,1.7 h-1.4C194.3,109.4,193.6,108.8,193.6,107.7z"/>
        <path d="M220.4,104.9l-4.6-7.5v10.3c0,1.1-0.6,1.7-1.7,1.7h-1.4c-1.1,0-1.7-0.6-1.7-1.7V77.1c0-1.1,0.7-1.7,1.7-1.7 h1.4c1.1,0,1.7,0.6,1.7,1.7v18.6l7.2-8.9c0.5-0.7,1.2-1,2.1-1h1.8c1.5,0,1.9,0.9,1,2.1l-7.2,8.7l3.9,6c1.4,1.9,2,3.1,4.1,3.1 c0.4,0,1.3,0,2.1-0.4c0.7-0.2,1-0.1,1.4,0.4l0.8,1.5c0.2,0.6,0,1.4-1.2,1.9c-1.6,0.8-3.2,0.8-3.7,0.8 C223.4,109.9,221.8,107,220.4,104.9z"/>
        <path d="M233.6,97.7c0-6.9,5.4-12.4,12.7-12.4c5.9,0,11.3,3.5,12,11c0.1,1.1-0.5,1.7-1.6,1.7h-18.2 c-0.1,4.4,3.5,7.6,8.6,7.6c2.3,0,4.4-0.6,6.4-2c0.9-0.6,1.6-0.5,2.4,0.2l0.3,0.4c0.8,0.8,0.8,1.8-0.3,2.7c-2.7,2.2-5.9,2.9-8.8,2.9 C238.7,109.9,233.6,104.4,233.6,97.7z M253.5,94.6c-1.2-4.2-4.5-5.1-7.1-5.1c-2.7,0-6.1,1.1-7.6,5.1H253.5z"/>
        <path d="M264.4,101.9V89.6h-2.9c-0.6,0-0.9-0.4-0.9-1v-1.8c0-0.6,0.3-0.9,0.9-0.9h3l0.8-5.4c0.1-0.9,0.7-1.4,1.5-1.4h1 c0.9,0,1.4,0.6,1.4,1.5v5.3h6.4c0.6,0,0.9,0.3,0.9,0.9v1.8c0,0.6-0.3,1-0.9,1h-6.4v12.6c0,2.5,1.2,3.5,2.7,3.5 c1.5,0,2.8-0.8,2.8-2.5c0-0.2,0-0.5-0.1-0.9c-0.1-0.7,0.2-1.1,0.8-1.1h2.2c0.6,0,1,0.2,1.1,0.8c0.2,0.8,0.2,1.7,0.2,1.7 c0,3.5-2.5,6.1-7,6.1C268.1,109.9,264.4,108,264.4,101.9z"/>
    </g>
</svg>
