<?xml version="1.0" encoding="utf-8"?>
<!-- Generator: Adobe Illustrator 25.0.1, SVG Export Plug-In . SVG Version: 6.00 Build 0)  -->
<svg version="1.1" id="Layer_1" xmlns="http://www.w3.org/2000/svg" xmlns:xlink="http://www.w3.org/1999/xlink" x="0px" y="0px"
	 viewBox="0 0 218 38" style="enable-background:new 0 0 218 38;" xml:space="preserve">
<style type="text/css">
	.st0{fill:#014A8F;}
	.st1{fill:url(#SVGID_1_);}
	.st2{fill:url(#SVGID_2_);}
	.st3{opacity:0.55;fill:url(#SVGID_3_);enable-background:new    ;}
	.st4{fill:url(#SVGID_4_);}
	.st5{fill:url(#SVGID_5_);}
	.st6{fill:url(#SVGID_6_);}
	.st7{fill:url(#SVGID_7_);}
	.st8{fill:url(#SVGID_8_);}
	.st9{fill:url(#SVGID_9_);}
	.st10{opacity:0.71;fill:url(#SVGID_10_);enable-background:new    ;}
	.st11{opacity:0.83;fill:url(#SVGID_11_);enable-background:new    ;}
	.st12{fill:url(#SVGID_12_);}
	.st13{fill:url(#SVGID_13_);}
	.st14{opacity:0.8;fill:url(#SVGID_14_);enable-background:new    ;}
	.st15{fill:url(#SVGID_15_);}
</style>
<path class="st0" d="M85.3,24.6c-0.4,0-0.8,0-1.2-0.1v2h-2.8V13.6h2.3l0.2,1.1c0.9-0.8,2-1.3,3.1-1.3c2.6,0,3.9,2.3,3.9,5.2
	C90.8,22.8,88.4,24.6,85.3,24.6L85.3,24.6z M86.1,15.5c-0.5,0-1.3,0.3-2,0.9v6c0.4,0.2,0.8,0.2,1.3,0.2c1.4,0,2.4-1.1,2.4-3.7
	C87.9,16.7,87.2,15.5,86.1,15.5z M48,24.9c-3,0-4.5-1.9-4.5-5.6c0-3.5,1.9-5.9,4.8-5.9c1.4,0,2.4,0.5,3.2,1.4l-1,1.5
	c-0.5-0.5-1.2-0.7-1.9-0.7c-1.3,0-2.2,1.2-2.2,3.5c0,2.7,0.7,3.8,2,3.8c0.9,0,1.6-0.3,2.4-0.9l0.9,1.5C50.9,24.2,49.7,24.9,48,24.9
	L48,24.9z M57.1,24.9c-3.1,0-5-1.5-5-5.5c0-4.1,2.1-6,5.4-6c3.1,0,5,1.5,5,5.5C62.6,23,60.5,24.9,57.1,24.9L57.1,24.9z M57.3,15.5
	c-1.3,0-2.2,0.9-2.2,3.4c0,3.1,0.8,3.9,2.3,3.9c1.3,0,2.2-0.9,2.2-3.4C59.6,16.3,58.8,15.5,57.3,15.5L57.3,15.5z M79.5,24.7h-2.9
	c0-2.2,0.1-4.5,0.1-5.8c0-2.6-0.5-3.2-1.5-3.2c-0.6,0-1.4,0.4-2.1,1c0.1,0.4,0.1,0.9,0.1,1.7v6.4h-2.9v-5.8c0-2.6-0.5-3.2-1.4-3.2
	c-0.5,0-1.3,0.4-2,0.9v8.1h-2.9V13.6h2.4l0.2,1.2c0.9-0.8,2-1.4,3.3-1.4c1.4,0,2.3,0.7,2.7,1.6c1.1-0.9,2.2-1.6,3.6-1.6
	c2.2,0,3.4,1.4,3.4,5C79.6,19.7,79.5,22.2,79.5,24.7L79.5,24.7z M98.9,24.7l-0.2-1.1c-1,0.8-2,1.4-3.4,1.4c-2.3,0-3.5-1.1-3.5-3.2
	c0-2.3,1.9-3.8,5.8-3.8h0.7v-0.8c0-1.1-0.7-1.7-2.1-1.7c-1.2,0-2.4,0.3-3.4,0.7l-0.4-1.7c1.3-0.6,2.9-1,4.5-1c2.9,0,4.2,1.3,4.2,3.4
	v7.9H98.9z M98.3,19.7h-0.9c-2.2,0-2.8,0.7-2.8,1.7c0,0.9,0.5,1.5,1.5,1.5c0.7,0,1.5-0.4,2.2-1L98.3,19.7z M109.3,16.1
	c-0.3-0.1-0.7-0.2-1-0.2c-0.6,0-1.2,0.4-2.2,1.7v7h-2.9V13.6h2.4l0.2,1.7c1.1-1.5,1.9-1.9,2.7-1.9c0.4,0,0.8,0.1,1.1,0.2L109.3,16.1
	z M112.5,19.7v0.2c0,2,0.9,2.9,2.5,2.9c1,0,2.3-0.2,3.7-0.6l0.4,1.6c-1.4,0.7-3,1.2-4.6,1.2c-3,0-4.9-1.4-4.9-5.5
	c0-4,1.9-6.1,5.1-6.1c2.9,0,4.8,1.6,4.5,6.3L112.5,19.7z M116.4,17.9c0-1.8-0.6-2.6-1.8-2.6c-1.2,0-1.9,1.1-2,2.7L116.4,17.9
	L116.4,17.9z M164.5,24.7h-2.9c0-2.2,0.1-4.5,0.1-5.8c0-2.6-0.5-3.2-1.5-3.2c-0.6,0-1.4,0.4-2.1,1c0.1,0.4,0.1,0.9,0.1,1.7v6.4h-2.9
	v-5.8c0-2.6-0.5-3.2-1.4-3.2c-0.5,0-1.3,0.4-2,0.9v8.1H149V13.6h2.4l0.2,1.2c0.9-0.8,2-1.4,3.3-1.4c1.4,0,2.3,0.7,2.7,1.6
	c1.1-0.9,2.2-1.6,3.6-1.6c2.2,0,3.4,1.4,3.4,5C164.6,19.7,164.5,22.2,164.5,24.7L164.5,24.7z M173.1,24.7l-0.2-1.1
	c-1,0.8-2,1.4-3.4,1.4c-2.3,0-3.5-1.1-3.5-3.2c0-2.3,1.9-3.8,5.8-3.8h0.7v-0.8c0-1.1-0.7-1.7-2.1-1.7c-1.2,0-2.4,0.3-3.4,0.7
	l-0.4-1.7c1.3-0.6,2.9-1,4.5-1c2.9,0,4.2,1.3,4.2,3.4v7.9H173.1z M172.4,19.7h-0.9c-2.2,0-2.8,0.7-2.8,1.7c0,0.9,0.5,1.5,1.5,1.5
	c0.7,0,1.5-0.4,2.2-1V19.7z M183.6,16.1c-0.3-0.1-0.7-0.2-1-0.2c-0.6,0-1.2,0.4-2.2,1.7v7h-2.9V13.6h2.4l0.2,1.7
	c1.1-1.5,1.9-1.9,2.7-1.9c0.4,0,0.8,0.1,1.1,0.2L183.6,16.1z M191,24.7l-3-5.5v5.5h-2.9V11.8h2.9v6.1l2.6-4.3h3.4l-3.4,4.6l3.8,6.4
	H191z M197.3,19.7v0.2c0,2,0.9,2.9,2.5,2.9c1,0,2.3-0.2,3.7-0.6l0.4,1.6c-1.4,0.7-3,1.2-4.6,1.2c-3,0-4.9-1.4-4.9-5.5
	c0-4,1.9-6.1,5.1-6.1c2.9,0,4.8,1.6,4.5,6.3L197.3,19.7z M201.2,17.9c0-1.8-0.6-2.6-1.8-2.6c-1.2,0-1.9,1.1-2,2.7L201.2,17.9
	L201.2,17.9z M208.9,24.9c-2.1,0-2.9-0.8-2.9-2.9v-6.4h-1.4v-2h1.5c0.3-0.6,0.5-1.2,0.7-1.8h2.1v1.8h2.5v2h-2.5v5.7
	c0,1.1,0.3,1.5,1,1.5c0.3,0,0.8,0,1.5-0.2l0.2,1.6C210.6,24.7,209.7,24.9,208.9,24.9L208.9,24.9z M124.4,24.8
	c-1.9,0-2.5-0.8-2.5-2.9v-6.8h-1.8v-1.3h1.8c0.2-1,0.3-0.9,0.5-2h1.3v2h3v1.3h-3v6.4c0,1.5,0.2,2,1.3,2c0.4,0,0.9-0.1,1.7-0.4
	l0.2,1.1C126,24.6,125.1,24.8,124.4,24.8L124.4,24.8z M136.8,24.7h-1.7c0-2.1,0-4.4,0-5.8c0-2.9-0.8-3.9-2.1-3.9
	c-0.7,0-1.7,0.5-2.7,1.3v8.3h-1.8V11.8h1.8V15c0.9-0.7,2-1.4,3.3-1.4c2,0,3.3,1.2,3.3,4.8C136.9,19.8,136.8,22.4,136.8,24.7
	L136.8,24.7z M140.2,19.4v0.2c0,2.7,1.1,3.8,3.1,3.8c1.1,0,2.2-0.2,3.2-0.7l0.3,1c-1.2,0.6-2.6,1-4,1c-2.7,0-4.5-1.4-4.5-5.3
	c0-3.8,1.7-5.9,4.5-5.9c2.6,0,4.2,1.6,3.9,5.8H140.2z M145.2,18.2c0-2.1-0.8-3.3-2.3-3.3c-1.6,0-2.5,1.6-2.6,3.4L145.2,18.2
	L145.2,18.2z M213.7,13.9v2.7h-0.4v-2.7h-0.8v-0.3h2v0.3H213.7z M217.6,16.6c0-0.9-0.1-1.9-0.2-2.5h0l-0.9,2.5h-0.3l-0.9-2.5h0
	c-0.1,0.7-0.1,1.6-0.1,2.5h-0.4c0-1,0.1-2,0.2-3h0.5l0.8,2.4l0.8-2.4h0.5c0.1,1,0.2,2,0.2,3H217.6z"/>
<linearGradient id="SVGID_1_" gradientUnits="userSpaceOnUse" x1="9.0908" y1="37.1321" x2="29.5172" y2="5.0676" gradientTransform="matrix(1 0 0 -1 0 40)">
	<stop  offset="0" style="stop-color:#D6D6D6"/>
	<stop  offset="3.000000e-02" style="stop-color:#E0E0E0"/>
	<stop  offset="9.000000e-02" style="stop-color:#EBEBEB"/>
	<stop  offset="0.15" style="stop-color:#EFEFEF"/>
	<stop  offset="0.64" style="stop-color:#EFEFEF"/>
	<stop  offset="0.73" style="stop-color:#EFEFEF"/>
	<stop  offset="0.8" style="stop-color:#EAEAEA"/>
	<stop  offset="0.88" style="stop-color:#DADADA"/>
	<stop  offset="0.98" style="stop-color:#C0C0C0"/>
	<stop  offset="1" style="stop-color:#BABABA"/>
</linearGradient>
<path class="st1" d="M19.3,37.8c10.6,0,19.3-8.5,19.3-18.9S29.9,0,19.3,0S0,8.5,0,18.9S8.7,37.8,19.3,37.8z"/>
<linearGradient id="SVGID_2_" gradientUnits="userSpaceOnUse" x1="9.2144" y1="7.6879" x2="36.4573" y2="3.5866" gradientTransform="matrix(1 0 0 -1 0 40)">
	<stop  offset="0.1" style="stop-color:#641724"/>
	<stop  offset="0.21" style="stop-color:#711825"/>
	<stop  offset="0.42" style="stop-color:#941B26"/>
	<stop  offset="0.58" style="stop-color:#B31E28"/>
	<stop  offset="1" style="stop-color:#D2202F"/>
</linearGradient>
<path class="st2" d="M11,28.4c-0.1,2.3-0.6,4.5-1.4,6.8c2.6,1.5,5.5,2.4,8.6,2.6c3,0.2,6-0.3,8.8-1.5C23.1,32.4,17.6,29.2,11,28.4z"
	/>
<linearGradient id="SVGID_3_" gradientUnits="userSpaceOnUse" x1="10.4692" y1="8.1699" x2="34.1957" y2="4.5897" gradientTransform="matrix(1 0 0 -1 0 40)">
	<stop  offset="8.000000e-02" style="stop-color:#321724"/>
	<stop  offset="0.32" style="stop-color:#471825;stop-opacity:0.87"/>
	<stop  offset="0.66" style="stop-color:#801B29;stop-opacity:0.51"/>
	<stop  offset="1" style="stop-color:#D2202F;stop-opacity:0"/>
</linearGradient>
<path class="st3" d="M11,28.4c0,1.2-0.2,2.4-0.4,3.5c4.8,0.3,9.4,2.2,13.1,5.4c1.1-0.3,2.3-0.6,3.3-1.1C23.1,32.4,17.6,29.2,11,28.4
	z"/>
<linearGradient id="SVGID_4_" gradientUnits="userSpaceOnUse" x1="13.329" y1="-8.1759" x2="15.3314" y2="5.6139" gradientTransform="matrix(1 0 0 -1 0 40)">
	<stop  offset="0" style="stop-color:#95191D;stop-opacity:0"/>
	<stop  offset="1" style="stop-color:#4A191D"/>
</linearGradient>
<path class="st4" d="M10.9,35.9c2.5,1.2,5.3,1.8,8.1,1.9C17.2,34.5,14.1,33.1,10.9,35.9z"/>
<linearGradient id="SVGID_5_" gradientUnits="userSpaceOnUse" x1="18.7129" y1="8.6604" x2="31.6884" y2="8.6604" gradientTransform="matrix(1 0 0 -1 0 40)">
	<stop  offset="0" style="stop-color:#B59F2C"/>
	<stop  offset="0.87" style="stop-color:#F0EEC5"/>
</linearGradient>
<path class="st5" d="M23.6,26.5c-1.8-0.3-3.6,0-4.9,0.7l0,0c2.6,1.1,1.8,2.4,2.6,4.6c2.1,1.2,3.9,2.7,5.6,4.4
	c1.1-0.5,2.2-1.1,3.2-1.7c0,0,0,0,0,0C28.3,29,25.9,27,23.6,26.5z"/>
<linearGradient id="SVGID_6_" gradientUnits="userSpaceOnUse" x1="-188.5967" y1="-149.3317" x2="799.7333" y2="625.988" gradientTransform="matrix(1 0 0 -1 0 40)">
	<stop  offset="0" style="stop-color:#B59F2C"/>
	<stop  offset="0.87" style="stop-color:#F0EEC5"/>
</linearGradient>
<path class="st6" d="M18.7,27.3L18.7,27.3c-3.6-1.5-7.9-1.6-7.9-1.6c0.2,1,0.2,1.7,0.2,2.8c3.3,0.4,6.5,1.4,9.4,3
	c0.3,0.2,0.6,0.3,0.9,0.5C20.5,29.7,21.3,28.4,18.7,27.3z"/>
<linearGradient id="SVGID_7_" gradientUnits="userSpaceOnUse" x1="9.1713" y1="16.0918" x2="30.649" y2="32.5904" gradientTransform="matrix(1 0 0 -1 0 40)">
	<stop  offset="0" style="stop-color:#25130E"/>
	<stop  offset="2.000000e-02" style="stop-color:#2A1711"/>
	<stop  offset="0.46" style="stop-color:#AC8864"/>
	<stop  offset="0.66" style="stop-color:#E0B585"/>
	<stop  offset="0.8" style="stop-color:#E9C08F"/>
	<stop  offset="1" style="stop-color:#FBD6A4"/>
</linearGradient>
<path class="st7" d="M28.9,8.7c0,0-1.6,0.2-2.3,0.2c-1.2,0-2.2,0.1-2.5,0c-1.7-0.3-3.2-2-3.6-2.9c0,0,0,0,0,0c0,0,0,0,0-0.1
	c0,0,0,0-0.1,0c0,0-0.1,0-0.1,0c0,0-0.1,0-0.1,0c-0.2,0-0.4,0.2-0.9,0.4l0,0h0c-0.4,0.2-0.8,0.3-1.1,0.4c-1.8,0.5-3.7,0.6-6.2,1.8
	c-2.5,1.2-4.4,3.1-5.3,5.2c-1.7,4.2,0.2,7.2,2.5,9.2c0.8,0.7,1.4,1.7,1.6,2.7c0,0,4.4,0.1,7.9,1.6c1.2-0.7,3-1,4.8-0.7
	c-1-1.8-0.1-3,0.2-3.5c0.3-0.5,0.4-0.7,0.9-1.1c-0.1,0-0.4-0.1-0.4-0.2c0,0,1.1-1,1.8-2.1c0,0,0,0,0,0c0.6-1.3,1.1-2.4,1.1-2.4
	c1.8-1.6,2.9-2.9,3.3-4.1C32.4,12.5,32.7,8.1,28.9,8.7z"/>
<linearGradient id="SVGID_8_" gradientUnits="userSpaceOnUse" x1="23.4789" y1="23.975" x2="4.3208" y2="14.2899" gradientTransform="matrix(1 0 0 -1 0 40)">
	<stop  offset="0" style="stop-color:#E0B585;stop-opacity:0"/>
	<stop  offset="3.000000e-02" style="stop-color:#D3AA7D;stop-opacity:7.000000e-02"/>
	<stop  offset="0.29" style="stop-color:#73573F;stop-opacity:0.58"/>
	<stop  offset="0.55" style="stop-color:#39251A;stop-opacity:0.89"/>
	<stop  offset="0.81" style="stop-color:#26140E"/>
	<stop  offset="1" style="stop-color:#25130E"/>
</linearGradient>
<path class="st8" d="M26.1,19.5L26.1,19.5c-0.7,1.1-1.8,2.1-1.9,2.2l0,0c0.1,0.2,0.3,0.2,0.4,0.2c-0.4,0.5-0.6,0.6-0.9,1.1
	c-0.3,0.5-1.1,1.6-0.2,3.4l0,0h0l0,0l-0.1,0c0,0,0,0-0.1,0l-0.1,0l-0.1,0l-0.1,0h0l-0.1,0c-0.1,0-0.2,0-0.2,0c-0.6,0-1.2,0-1.7,0.1
	h0c-0.1,0-0.2,0-0.3,0.1c-0.3,0.1-0.6,0.1-0.9,0.2c-0.1,0-0.3,0.1-0.4,0.2c-0.1,0-0.1,0.1-0.2,0.1c-0.1,0-0.1,0.1-0.2,0.1l0,0
	c-0.1,0-0.1,0.1-0.2,0.1c-0.1,0-0.2-0.1-0.3-0.1l0,0c-0.1,0-0.2-0.1-0.2-0.1l-0.1,0C18,27,18,27,17.9,26.9c0,0-0.1,0-0.1,0l-0.2-0.1
	c-0.1,0-0.2-0.1-0.3-0.1l-0.1,0c-0.2-0.1-0.4-0.1-0.6-0.2l-0.1,0c-0.1,0-0.2,0-0.3-0.1l0,0c-0.1,0-0.2,0-0.2-0.1h0
	c-0.1,0-0.2,0-0.3-0.1l-0.1,0l-0.3-0.1l0,0c-0.1,0-0.2,0-0.3-0.1l0,0c-0.3-0.1-0.6-0.1-0.8-0.2l0,0c-0.1,0-0.2,0-0.2,0h0l-0.2,0h0
	l-0.2,0h0l-0.2,0l0,0l-0.1,0l0,0l-0.2,0h0l-0.2,0h0l-0.1,0l0,0c-0.1,0-0.2,0-0.3,0h0l-0.2,0h0l-0.1,0l0,0l-0.1,0h0l-0.1,0h0
	c-0.1,0-0.1,0-0.2,0h0l-0.2,0l-0.1,0h0l-0.1,0l-0.1,0h-0.5c0,0,0-0.1,0-0.1c0-0.1,0-0.1-0.1-0.2c0-0.1-0.1-0.3-0.1-0.4c0,0,0,0,0,0
	c-0.1-0.2-0.2-0.4-0.3-0.6l0-0.1l0-0.1c0-0.1,0-0.1-0.1-0.1C10.1,24,10,23.9,10,23.8c0-0.1-0.1-0.1-0.1-0.2l0,0
	c-0.1-0.1-0.2-0.3-0.3-0.4c-0.1-0.1-0.1-0.1-0.2-0.2c-0.1-0.1-0.2-0.2-0.2-0.2c-0.1-0.1-0.2-0.2-0.3-0.2l0,0
	c-0.1-0.1-0.2-0.2-0.3-0.2l0,0v0c-0.1-0.1-0.2-0.2-0.3-0.3v0c-0.1-0.1-0.2-0.2-0.3-0.3v0c-0.1-0.1-0.1-0.1-0.2-0.2
	c-0.9-1.1-1.6-2.4-1.8-4c-0.1-1,0-2.1,0.4-3.3v0c0-0.1,0.1-0.1,0.1-0.2v0C5.9,20.2,9.9,21.4,14,21c-0.3,0.2-0.5,0.5-0.8,0.7
	c0,0,0,0.1,0,0.1c1.1,0.2,2.2-0.3,3.2-0.7c-0.2,0.3-0.4,0.5-0.7,0.8c0,0,0,0,0,0c0,0,0,0,0,0c0,0,0,0,0,0c0,0,0,0,0,0
	c1.5,0,2.7-0.9,3.9-1.8c-0.1,0.2-0.1,0.3-0.2,0.5c0,0,0,0,0,0c0,0,0,0,0,0c0,0,0,0,0,0c0,0,0,0,0,0c1-0.3,1.9-1,2.6-1.8
	c0.2-0.2,0.3-0.4,0.6-0.5c0.2-0.1,0.5-0.2,0.7-0.3c0.3,0,0.5,0,0.8,0.1c0.3,0.1,0.5,0.2,0.7,0.4L26.1,19.5z"/>
<linearGradient id="SVGID_9_" gradientUnits="userSpaceOnUse" x1="8.2752" y1="25.9112" x2="14.6225" y2="24.9054" gradientTransform="matrix(1 0 0 -1 0 40)">
	<stop  offset="7.000000e-02" style="stop-color:#25130E"/>
	<stop  offset="0.79" style="stop-color:#5A321E;stop-opacity:0.4"/>
</linearGradient>
<path class="st9" d="M11.5,15.9c-0.3-0.5-0.6-1.1-0.5-1.6c-0.2,0.1-0.4,0.2-0.6,0.3c0,0,0,0,0,0s0,0,0,0c0,0,0,0,0,0c0,0,0,0,0,0
	c0-0.6,0.3-1,0.5-1.5c-0.3,0-0.5,0.1-0.8,0.2c0,0,0,0,0,0c0,0,0,0,0,0s0,0,0,0s0,0,0,0c0.6-0.9,1.6-1.5,2.6-1.8l0-0.1
	c0.1-0.1,0.1-0.2,0.1-0.3v0C12.5,9.7,10.1,10.7,9,12c-1,1.2-1.3,2.8-1,4.2c0.3,1.4,1.3,2.5,2.7,2.6c0.3,0,0.6,0,0.9-0.1l0,0
	c0.2-0.1,0.4-0.1,0.6-0.2c0.6-0.3,1-1.1,0.8-1.8C12.5,16.5,11.9,16.4,11.5,15.9z"/>
<linearGradient id="SVGID_10_" gradientUnits="userSpaceOnUse" x1="24.7321" y1="26.9323" x2="31.6684" y2="29.9074" gradientTransform="matrix(1 0 0 -1 0 40)">
	<stop  offset="0.21" style="stop-color:#E0B585;stop-opacity:0.2"/>
	<stop  offset="0.49" style="stop-color:#A8805E;stop-opacity:0.56"/>
	<stop  offset="0.77" style="stop-color:#7A563F;stop-opacity:0.85"/>
	<stop  offset="0.96" style="stop-color:#6A4634;stop-opacity:0.96"/>
</linearGradient>
<path class="st10" d="M31.8,10.8c0-0.1,0-0.1,0-0.2c0-0.1,0-0.1,0-0.2c0,0,0-0.1,0-0.1c0-0.2-0.1-0.3-0.2-0.5c0-0.1-0.1-0.2-0.2-0.3
	c-0.1-0.1-0.1-0.2-0.2-0.2c-0.1-0.1-0.2-0.1-0.2-0.2c-0.1,0-0.1-0.1-0.2-0.1c-0.5-0.3-1.1-0.4-1.9-0.3c0,0-1.6,0.2-2.3,0.2
	c-1,0-1.8,0.1-2.2,0.1c-0.1,0-0.2,0-0.2,0c2.3,0.7-1.4,6.4,4.3,7c0.7-0.7,1.3-1.4,1.6-2l0,0c0-0.1,0.1-0.1,0.1-0.2v0
	c0,0,0.1-0.1,0.1-0.1l0,0c0-0.1,0-0.1,0.1-0.2c0,0,0,0,0,0c0,0,0-0.1,0.1-0.1c0,0,0,0,0,0c0,0,0-0.1,0.1-0.1c0,0,0,0,0.1,0
	c0,0,0,0,0.1,0c0.1,0,0.1,0,0.2-0.1c0,0,0.1,0,0.1-0.1l0,0c0.1,0,0.1-0.1,0.2-0.1l0,0c0.3-0.3,0.5-0.6,0.6-1
	C31.8,11.4,31.9,11.1,31.8,10.8z"/>
<linearGradient id="SVGID_11_" gradientUnits="userSpaceOnUse" x1="15.5612" y1="30.6048" x2="24.4728" y2="30.6048" gradientTransform="matrix(1 0 0 -1 0 40)">
	<stop  offset="0" style="stop-color:#5A321E;stop-opacity:0.1"/>
	<stop  offset="0.14" style="stop-color:#512C1B;stop-opacity:0.39"/>
	<stop  offset="0.35" style="stop-color:#462617;stop-opacity:0.73"/>
	<stop  offset="0.56" style="stop-color:#3F2215;stop-opacity:0.93"/>
	<stop  offset="0.78" style="stop-color:#3D2114"/>
</linearGradient>
<path class="st11" d="M16.2,9.2c0.2,0,0.3,0,0.5,0c0,0,0,0,0,0c0,0,0,0,0,0c0,0,0,0,0,0c0,0,0,0,0,0c-0.4,0.8-0.8,1.6-0.6,2.5
	c0.1,0.4,0.2,0.7,0.4,1.1c0,0.1,0.1,0.1,0.1,0.1c0.7-3,6.4-1.2,7.5-4c-1.7-0.3-3.2-2-3.6-2.9c0,0,0,0,0,0c0,0,0,0,0-0.1
	c0,0,0,0-0.1,0c0,0-0.1,0-0.1,0c0,0-0.1,0-0.1,0c-0.2,0-0.4,0.2-0.9,0.4l0,0h0c-0.1,0-0.2,0.1-0.4,0.1C17.8,7,16.8,8.1,16.2,9.2z"/>
<linearGradient id="SVGID_12_" gradientUnits="userSpaceOnUse" x1="18.4824" y1="30.0678" x2="22.3095" y2="30.0678" gradientTransform="matrix(1 0 0 -1 0 40)">
	<stop  offset="0" style="stop-color:#5A321E;stop-opacity:0.1"/>
	<stop  offset="0.38" style="stop-color:#402316;stop-opacity:0.39"/>
	<stop  offset="1" style="stop-color:#25130E;stop-opacity:0.7"/>
</linearGradient>
<path class="st12" d="M20.7,8.6c-1.1,0.1-1.5,2.2-2.2,2.6c1.2-0.4,2.6-0.4,3.8-0.8C22.4,9.1,21.6,8.5,20.7,8.6z"/>
<linearGradient id="SVGID_13_" gradientUnits="userSpaceOnUse" x1="19.7695" y1="29.7094" x2="21.8008" y2="29.7094" gradientTransform="matrix(1 0 0 -1 0 40)">
	<stop  offset="0" style="stop-color:#25130E;stop-opacity:0.2"/>
	<stop  offset="0.53" style="stop-color:#25130E;stop-opacity:0.69"/>
	<stop  offset="1" style="stop-color:#25130E"/>
</linearGradient>
<path class="st13" d="M21,9.6c-0.6,0-0.9,1-1.2,1.3c0.7-0.1,1.4-0.2,2-0.4C21.9,9.9,21.4,9.6,21,9.6z"/>
<radialGradient id="SVGID_14_" cx="-431.4292" cy="1065.236" r="1" gradientTransform="matrix(10.0736 -1.9159 -1.3643 -7.1735 5829.3672 6826.2959)" gradientUnits="userSpaceOnUse">
	<stop  offset="0.39" style="stop-color:#47210E"/>
	<stop  offset="0.58" style="stop-color:#4D2713;stop-opacity:0.96"/>
	<stop  offset="0.71" style="stop-color:#603922;stop-opacity:0.83"/>
	<stop  offset="0.82" style="stop-color:#81593B;stop-opacity:0.62"/>
	<stop  offset="0.92" style="stop-color:#AF865F;stop-opacity:0.32"/>
	<stop  offset="1" style="stop-color:#E0B585;stop-opacity:0"/>
</radialGradient>
<path class="st14" d="M25.5,19.3c0.2,0.1,0.3,0.1,0.5,0c0.2-0.1,0.3-0.2,0.4-0.3v0l0,0l0.1-0.1l0,0c0.1-0.1,0.1-0.3,0.2-0.4
	c0.3-0.8,0.6-1.3,0.6-1.3c1.8-1.6,2.9-2.9,3.3-4.1c-3.9,2.4-7.5-0.1-9.6,1.5c0,0-0.2,0.1-0.3,0.3c-0.2,0.2-0.3,0.4-0.4,0.6
	c-0.1,0.2-0.1,0.5-0.1,0.8c0,0.3,0.2,0.5,0.3,0.7c0.2,0.2,0.4,0.4,0.6,0.5L25.5,19.3z"/>
<linearGradient id="SVGID_15_" gradientUnits="userSpaceOnUse" x1="29.0397" y1="29.1926" x2="31.9928" y2="30.8677" gradientTransform="matrix(1 0 0 -1 0 40)">
	<stop  offset="0.14" style="stop-color:#5A321E;stop-opacity:0.3"/>
	<stop  offset="1" style="stop-color:#25130E;stop-opacity:0.9"/>
</linearGradient>
<path class="st15" d="M29,8.7L29,8.7c-0.1,0.1-0.1,0.2-0.1,0.4l0,0c0.1,0.1,0.2,0.2,0.4,0.2c0.2,0.1,0.2,0.1,0.3,0.3
	c0.1,0.1,0.1,0.2,0.1,0.3c0,0,0,0.1,0.1,0.1c0.9,0.3,2.2,0.4,2.1,1.5C32.1,10.1,31.4,8.4,29,8.7z"/>
</svg>
