<svg xmlns="http://www.w3.org/2000/svg" width="30" height="30" viewBox="0 0 30 30">
  <path id="Path_833" data-name="Path 833" d="M8900.979,689.579a1.584,1.584,0,0,0,0,2.236l2.229,2.236a1.593,1.593,0,0,0,2.247,0l10.061-10.063,10.062,10.063a1.592,1.592,0,0,0,2.246,0l2.23-2.236a1.582,1.582,0,0,0,0-2.236l-10.062-10.064,10.062-10.064a1.582,1.582,0,0,0,0-2.236l-2.23-2.236a1.592,1.592,0,0,0-2.246,0l-10.062,10.064-10.061-10.064a1.593,1.593,0,0,0-2.247,0l-2.229,2.236a1.583,1.583,0,0,0,0,2.236l10.061,10.064Z" transform="translate(-8900.518 -664.515)" fill="#fff" fill-rule="evenodd"/>
</svg>
