<?xml version="1.0" encoding="utf-8"?>
<!-- Generator: Adobe Illustrator 19.0.0, SVG Export Plug-In . SVG Version: 6.00 Build 0)  -->
<svg version="1.1" baseProfile="tiny" xmlns="http://www.w3.org/2000/svg" xmlns:xlink="http://www.w3.org/1999/xlink" x="0px"
	 y="0px" viewBox="0 0 230 140" xml:space="preserve">
<g id="Layer_2">
</g>
<g id="Layer_1">
</g>
<g id="Layer_6">
</g>
<g id="Layer_5">
</g>
<g id="Layer_7">
</g>
<g id="Layer_9">
</g>
<g id="Layer_8">
</g>
<g id="Layer_11">
</g>
<g id="Layer_12">
</g>
<g id="Layer_4">
</g>
<g id="Layer_10">
</g>
<g id="Layer_13">
</g>
<g id="Layer_15">
</g>
<g id="Layer_16">
</g>
<g id="Layer_17">
</g>
<g id="Layer_20">
</g>
<g id="Layer_19">
</g>
<g id="Layer_18">
</g>
<g id="Layer_21">
</g>
<g id="Layer_22">
	<g id="XMLID_247_">
		<circle id="XMLID_3240_" fill="#ECECEB" cx="115.2" cy="69.7" r="66.9"/>
		<g id="XMLID_2860_">
			<path id="XMLID_3206_" fill="#A9ACAD" d="M151,127.5H76.3c-1.6,0-2.9-1.3-2.9-2.9s1.3-2.9,2.9-2.9H151c1.6,0,2.9,1.3,2.9,2.9
				S152.5,127.5,151,127.5z"/>
			<g id="XMLID_3145_">
				<path id="XMLID_3205_" fill="#ECECEC" d="M199.8,45.1h-36.1l2.6,4.6v43.7H205V53.2v-2.7C205,47.6,202.7,45.1,199.8,45.1z"/>
				<path id="XMLID_3204_" fill="#ECECEC" d="M205.7,96.7l-0.7-1.2V51.8h-38.8v42.9c0,3,2.4,5.4,5.3,5.4h31.9
					C204,98.9,204.8,97.7,205.7,96.7z"/>
				<g id="XMLID_3201_">
					<path id="XMLID_3203_" fill="#FFFFFF" d="M197.6,45.1h-37.2l2.7,4.6v43.7H203V53.2v-2.7C203,47.6,200.6,45.1,197.6,45.1z"/>
					<path id="XMLID_3202_" fill="#BBBBBB" d="M163.1,53.2v-5.6c0-1.4-1.1-2.5-2.5-2.5s-2.5,1.1-2.5,2.5v5.6H163.1z"/>
				</g>
				<g id="XMLID_3198_">
					<path id="XMLID_3200_" fill="#FFFFFF" d="M168.5,100.1h37.2l-2.7-4.6V51.8h-39.9V92v2.7C163.1,97.7,165.5,100.1,168.5,100.1z"
						/>
					<path id="XMLID_3199_" fill="#BBBBBB" d="M203,92v5.6c0,1.4,1.1,2.5,2.5,2.5c1.4,0,2.5-1.1,2.5-2.5V92H203z"/>
				</g>
				<g id="XMLID_3179_">
					<path id="XMLID_3182_" fill="#BBBBBB" d="M197.8,54.5h-29.5c-0.5,0-1-0.4-1-1c0-0.5,0.4-1,1-1h29.5c0.5,0,1,0.4,1,1
						C198.7,54.1,198.3,54.5,197.8,54.5z"/>
					<path id="XMLID_3181_" fill="#BBBBBB" d="M197.8,60.2h-29.5c-0.5,0-1-0.4-1-1c0-0.5,0.4-1,1-1h29.5c0.5,0,1,0.4,1,1
						C198.7,59.8,198.3,60.2,197.8,60.2z"/>
					<path id="XMLID_3180_" fill="#BBBBBB" d="M179.7,65.9h-11.4c-0.5,0-1-0.4-1-1s0.4-1,1-1h11.4c0.5,0,1,0.4,1,1
						S180.2,65.9,179.7,65.9z"/>
				</g>
			</g>
		</g>
		<g id="XMLID_235_">
			<path id="XMLID_240_" fill="#2A8ECC" d="M198.3,74c0,0-1.8-4.4-13.5-4.4c-11.7,0-13.5,4.4-13.5,4.4s-0.2,6.4,0.9,11.6
				c1.1,5.2,8.3,12.8,12.6,12.8c4.3,0,11.5-7.6,12.6-12.8C198.5,80.4,198.3,74,198.3,74z"/>
			<g id="XMLID_237_">
				<path id="XMLID_239_" fill="#0071BC" d="M184.8,69.6c-11.7,0-13.5,4.4-13.5,4.4s-0.2,6.4,0.9,11.6c1.1,5.2,8.3,12.8,12.6,12.8
					C184.8,98.4,184.8,69.6,184.8,69.6z"/>
			</g>
			<path id="XMLID_236_" fill="#FFFFFF" d="M197.1,68.9l-12.2,14.8l-4.5-4.6h-4.5l8.1,8.3c0.6,0.6,1.6,0.6,2.2-0.1L199.6,71
				L197.1,68.9z"/>
		</g>
		<g id="XMLID_2263_">
			<g id="XMLID_2316_">
				<g id="XMLID_2317_">
					<g id="XMLID_2325_">
						<path id="XMLID_2326_" fill="#0A6C98" d="M104.4,75.1c-2.3-2.6-10-0.3-14.8,4.8L73.2,97.3l7.3,10.7l19.9-21.3
							C103.1,84.4,106.7,77.7,104.4,75.1z"/>
					</g>
					<g id="XMLID_2318_">
						<g id="XMLID_2320_">
							<path id="XMLID_2324_" fill="#E6A47B" d="M183.6,110.2c-0.5-1.2,0-2.6,1.2-3.1l7.5-3.3c1.2-0.5,2.6,0,3.1,1.2
								c0.5,1.2,0,2.6-1.2,3.1l-7.5,3.3C185.5,111.9,184.1,111.4,183.6,110.2z"/>
							<rect id="XMLID_2323_" x="170.2" y="108.4" fill="#FBC49D" width="8.7" height="8.4"/>
							<path id="XMLID_2322_" fill="#FBC49D" d="M204.9,109.9c0.7-0.4,1-1.3,0.6-2.1c-1.3-2.7-3.8-1.7-6.4-0.4l-6.4,2.8
								c0,0-6.9-4-10.4-4c-7,0-7.4,2.9-7.6,5.1c-0.2,0.9,0,5.6,0,5.6c8.2,0,17.3,0,17.3,0L204.9,109.9z"/>
							<rect id="XMLID_2321_" x="170.3" y="106.2" fill="#0A6C98" width="3.5" height="11.1"/>
						</g>
						<path id="XMLID_2319_" fill="#0A6C98" d="M154.2,105.3L139,81.5c-3.7-5.9-10.9-9.6-13.6-7.5c-2.8,2.1-0.4,9.3,1.7,12.1
							l17,26.8c2,3.2,5.5,5.1,9.3,5.1H171l0-12.7L154.2,105.3z"/>
					</g>
				</g>
			</g>
			<path id="XMLID_2315_" fill="#2D90BF" d="M139,81.5c-3.2-5.1-9-8.6-12.3-8c0.5,2.5,1.6,5.1,2.7,6.5l17,26.8
				c2,3.2,5.5,5.1,9.3,5.1H171l0-6.6l-16.7,0L139,81.5z"/>
			<g id="XMLID_2312_">
				<g id="XMLID_2313_">
					<path id="XMLID_2314_" fill="#0A6C98" d="M135.7,127.7V84.9c0-6.6-5.1-11.9-11.4-11.9h-20c-6.3,0-11.4,5.3-11.4,11.9v42.8
						H135.7z"/>
				</g>
			</g>
			<g id="XMLID_2310_">
				<path id="XMLID_2311_" fill="#FBC49D" d="M122.1,72.8V65h-15.4v7.8c0,0,0,0.1,0,0.2H104c0.7,4.9,5.1,7.7,10.4,7.7
					s9.7-2.8,10.4-7.7h-2.7C122.1,72.8,122.1,72.8,122.1,72.8z"/>
			</g>
			<g id="XMLID_2308_">
				<path id="XMLID_2309_" fill="#2D90BF" d="M125.9,73c0,6.9-6.5,9.9-12.3,9.9V108h22.6V84.9C136.2,78.7,132,73.6,125.9,73z"/>
			</g>
			<g id="XMLID_2305_">
				<path id="XMLID_2307_" fill="#F3B200" d="M132.8,92.7V74.5c-3.2-2-6.5-2.4-6.5-2.4v21.7h-23.7V72.2c0,0-3.3,0.3-6.5,2.4v18.1
					c0,7.4-4.1,8.1-4.1,8.1v26.9h44.8v-26.9C136.7,100.7,132.8,99.4,132.8,92.7z"/>
				<path id="XMLID_2306_" fill="#F5D52A" d="M136.7,127.7v-26.9c0,0-4-1.4-4-8.1V74.5c-3.2-2-6.5-2.4-6.5-2.4v21.7h-4.4v33.8H136.7
					z"/>
			</g>
			<g id="XMLID_2302_">
				<path id="XMLID_2304_" fill="#F5D52A" d="M95.5,112.8l-0.4-1.3c0.1,0,7.6-2.6,7.6-9.2v-0.7h19.2v1.4H104
					c-0.2,2.8-1.7,5.4-4.3,7.4C97.6,112.1,95.5,112.8,95.5,112.8z"/>
				<path id="XMLID_2303_" fill="#F3B200" d="M133.2,112.8c-0.1,0-2.2-0.7-4.3-2.3c-2.6-2-4.1-4.6-4.3-7.4h-2.8v-1.4h4.1v0.7
					c0,6.5,7.6,9.1,7.6,9.2L133.2,112.8z"/>
			</g>
			<path id="XMLID_2301_" fill="#E6A47B" d="M106.7,65.5v7.3c0,0,0,0.1,0,0.2H104c0.5,3.5,2.9,5.9,6.1,7l11.8-11.8L106.7,65.5z"/>
			<g id="XMLID_2284_">
				<g id="XMLID_2286_">
					<g id="XMLID_2298_">
						<path id="XMLID_2300_" fill="#E6A47B" d="M97.5,39.8c-3.4,0.1-6.1,2.8-6.1,6.2c0,3.4,2.7,6.1,6.1,6.2V39.8z"/>
						<path id="XMLID_2299_" fill="#E6A47B" d="M131.3,39.8c3.4,0.1,6.1,2.8,6.1,6.2c0,3.4-2.7,6.1-6.1,6.2V39.8z"/>
					</g>
					<path id="XMLID_2297_" fill="#FBC49D" d="M114.2,69.9c0.1,0,0.1,0,0.2,0c4.7,0,9.1-2,12.3-5.4c2.4-2.6,4.5-6.7,4.5-9.1
						l1.7-29.2H95.8l1.7,29.2c0,2.5,2.1,6.6,4.5,9.2C105.1,68,109.6,69.9,114.2,69.9z"/>
					<g id="XMLID_2290_">
						<g id="XMLID_2294_">
							<circle id="XMLID_2296_" fill="#5C2F15" cx="105.1" cy="42" r="1.9"/>
							<circle id="XMLID_2295_" fill="#FAA67A" cx="105.1" cy="50.9" r="2.6"/>
						</g>
						<g id="XMLID_2291_">
							<circle id="XMLID_2293_" fill="#5C2F15" cx="123.5" cy="42" r="1.9"/>
							<circle id="XMLID_2292_" fill="#FAA67A" cx="123.5" cy="50.9" r="2.6"/>
						</g>
					</g>
					<path id="XMLID_2289_" fill="#FFD3AF" d="M114.5,55.4c-1.5,0-2.8-1.3-2.8-2.8v-9.9c0-1.5,1.3-2.8,2.8-2.8
						c1.5,0,2.8,1.3,2.8,2.8v9.9C117.3,54.1,116,55.4,114.5,55.4z"/>
					<path id="XMLID_2288_" fill="#BE7F3C" d="M115.5,16.1c14.8,0,17.4,8.6,18.2,11.4c0,0.1,0,0.1,0,0.2c0,0.1,0.1,0.2,0.1,0.4
						c0,0.1,0,0.2,0,0.2L133,47.5c-0.3,0-0.7,0-1.3,0V31.1c0-2.3-1.9-4.2-4.2-4.2c-4.7,1.2-9.5,1.8-14.3,1.7V20c0,0,0,0,0-0.1h2.2
						V16.1z"/>
					<path id="XMLID_2287_" fill="#975837" d="M115.9,16.1h-2.8c-14.8,0-17.4,8.6-18.2,11.4c0,0.1,0,0.1,0,0.2
						c0,0.1-0.1,0.2-0.1,0.4c0,0.1,0,0.2,0,0.2l0.8,19.2c0.3,0,0.7,0,1.3,0V31.1c0-2.3,1.9-4.2,4.2-4.2c4,1,8,1.6,12,1.7
						c0,0,1.3,0.1,3.2,0C125.9,28.2,125.4,16.1,115.9,16.1z"/>
				</g>
				<path id="XMLID_2285_" fill="#FAA67A" d="M119.9,60.1h-11.1c0,1.8,1.4,3.2,3.2,3.2h4.8C118.5,63.3,119.9,61.9,119.9,60.1z"/>
			</g>
			<path id="XMLID_2282_" fill="#595959" d="M95,33.2v-4.6c0-8.8,7.9-16,17.5-16h4.4c9.6,0,17.5,7.2,17.5,16v4.6H95z"/>
			<path id="XMLID_2281_" fill="#404040" d="M112.5,12.6c-9.6,0-17.5,7.2-17.5,16v4.6h24.2v-9.9C119.1,14.2,112.5,12.6,112.5,12.6z"
				/>
			<path id="XMLID_2280_" fill="#595959" d="M101.9,28.8c0-10.4,7.8-14.8,10.7-16.1c-0.1,0-0.2,0-0.2,0c-1,0-2,0.1-2.9,0.2
				c-3.7,2.4-8.9,7.3-8.9,15.9v3.7h1.4V28.8z"/>
			<path id="XMLID_2279_" fill="#404040" d="M116.8,12.6h-0.2c16.6,2.5,15.2,15,15.2,15v5.6h2.5v-4.6
				C134.3,19.8,126.4,12.6,116.8,12.6z"/>
			<path id="XMLID_2278_" fill="#595959" d="M95,33.2l13.5,5.3c4,1.6,8.3,2,12.5,1.2l0.6-0.1c6.5-1.3,13.2-1.2,19.7,0.1
				c1.2,0.2,1.8-1.3,0.7-1.9l-7.6-4.5c0,0-5.8-3-18.3-3S95,33.2,95,33.2z"/>
			<path id="XMLID_2277_" fill="#404040" d="M129.7,37.7c0-0.3-0.1-0.6-0.4-0.8l-8.6-5.5c-0.8,0-1.7-0.1-2.6-0.1
				c-10.8,0-18.3,2.3-18.3,2.3l9.9,3.9c3.4,1.4,7.2,1.7,10.8,1l0.6-0.1C123.8,37.9,126.8,37.7,129.7,37.7z"/>
			<path id="XMLID_2276_" fill="#404040" d="M114.5,10.5H111c-0.6,0-1.1,0.5-1.1,1.1s0.5,1.1,1.1,1.1h3.5c0.6,0,1.1-0.5,1.1-1.1
				S115.1,10.5,114.5,10.5z"/>
			<path id="XMLID_2275_" fill="#FFFFFF" d="M122.9,26.8h-7.7c-1.5,0-2.7-1.2-2.7-2.7v-1.4c0-1.5,1.2-2.7,2.7-2.7h7.7
				c1.5,0,2.7,1.2,2.7,2.7v1.4C125.5,25.6,124.3,26.8,122.9,26.8z"/>
			<path id="XMLID_2274_" fill="#0A6C98" d="M76.7,109.2c-2.4,0-4.7-1.3-5.9-3.6L56.1,76.3c-1.6-3.2-0.3-7.2,2.9-8.8
				c3.2-1.6,7.2-0.3,8.8,2.9l14.7,29.3c1.6,3.2,0.3,7.2-2.9,8.8C78.7,109,77.7,109.2,76.7,109.2z"/>
			<path id="XMLID_2273_" fill="#1384B3" d="M80.7,95.9L67.8,70.4c-1.6-3.2-5.6-4.5-8.8-2.9c-0.4,0.2-0.8,0.5-1.2,0.8
				c2.1,0.2,4.1,1.5,5.2,3.6l14,27.8L80.7,95.9z"/>
			
				<rect id="XMLID_2271_" x="56.6" y="48.4" transform="matrix(0.8132 0.582 -0.582 0.8132 50.5361 -23.1366)" fill="#424242" width="9.4" height="37.6"/>
			<g id="XMLID_2268_">
				<path id="XMLID_2270_" fill="#424242" d="M83.5,42.5L79,48.9c-0.7,1-2,1.2-3,0.5l-2.6-1.9c-1-0.7-1.2-2-0.5-3l4.6-6.4
					c0.2-0.2,0.1-0.6-0.1-0.7c-2.2-1.6-5.8-1.4-7.4,0.8L66,43.7c-1.6,2.2-0.6,5.7,1.7,7.3l6.9,5c2.2,1.6,5.8,1.5,7.4-0.8l3.9-5.5
					c1.6-2.2,0.6-5.7-1.7-7.3C84,42.2,83.7,42.3,83.5,42.5z"/>
				<path id="XMLID_2269_" fill="#424242" d="M45.2,96.2l4.6-6.4c0.7-1,0.5-2.3-0.5-3l-2.6-1.9c-1-0.7-2.3-0.5-3,0.5l-4.6,6.4
					c-0.2,0.2-0.5,0.3-0.7,0.1c-2.2-1.6-3.3-5.1-1.7-7.3l3.9-5.5c1.6-2.2,5.2-2.4,7.4-0.8l6.9,5c2.2,1.6,3.3,5.1,1.7,7.3l-3.9,5.5
					c-1.6,2.2-5.2,2.4-7.4,0.8C45,96.7,45,96.4,45.2,96.2z"/>
			</g>
			<g id="XMLID_2264_">
				<g id="XMLID_2265_">
					<circle id="XMLID_2267_" fill="#FBC49D" cx="60" cy="66.2" r="9.4"/>
					<path id="XMLID_2266_" fill="#FBC49D" d="M72.5,66.4c0.8-1.2,0.5-2.8-0.7-3.6l-6.4-4.2c-1.2-0.8-2.8-0.5-3.6,0.7
						c-0.8,1.2-0.5,2.8,0.7,3.6l6.4,4.2C70.1,68,71.7,67.6,72.5,66.4z"/>
				</g>
			</g>
		</g>
	</g>
</g>
<g id="Layer_14" display="none">
	<circle id="XMLID_2871_" display="inline" fill="none" stroke="#424242" stroke-miterlimit="10" cx="172" cy="-88" r="100"/>
	<circle id="XMLID_2939_" display="inline" fill="#878427" cx="172.8" cy="208" r="100.4"/>
</g>
</svg>
