<?xml version="1.0" encoding="utf-8"?>
<!-- Generator: Adobe Illustrator 19.0.0, SVG Export Plug-In . SVG Version: 6.00 Build 0)  -->
<svg version="1.0" xmlns="http://www.w3.org/2000/svg" xmlns:xlink="http://www.w3.org/1999/xlink" x="0px" y="0px"
	 viewBox="0 0 230 140" enable-background="new 0 0 230 140" xml:space="preserve">
<g id="Layer_2">
</g>
<g id="Layer_1">
</g>
<g id="Layer_6">
</g>
<g id="Layer_5">
</g>
<g id="Layer_7">
</g>
<g id="Layer_9">
</g>
<g id="Layer_8">
</g>
<g id="Layer_11">
</g>
<g id="Layer_12">
</g>
<g id="Layer_4">
</g>
<g id="Layer_10">
</g>
<g id="Layer_13">
</g>
<g id="Layer_15">
</g>
<g id="Layer_16">
</g>
<g id="Layer_17">
</g>
<g id="Layer_20">
</g>
<g id="Layer_19">
</g>
<g id="Layer_18">
</g>
<g id="Layer_21">
</g>
<g id="Layer_22">
	<g id="XMLID_171_">
		<circle id="XMLID_233_" fill="#ECECEB" cx="115.5" cy="69.7" r="66.9"/>
		<g id="XMLID_241_">
			<g id="XMLID_3093_">
				<g id="XMLID_3104_">
					<g id="XMLID_3123_">
						<path id="XMLID_3125_" fill="#4E4E4E" d="M53.5,19.6c0-0.9-0.8-1.1-1.7-1.1c-0.9,0-1.7,0.2-1.7,1.1v19.7h3.4V19.6z"/>
						<path id="XMLID_3124_" fill="#4E4E4E" d="M50.1,88.3c0,3.5-2.9,6.4-6.4,6.4s-6.4-2.9-6.4-6.4c0-0.9-0.8-1.7-1.7-1.7
							c-0.9,0-1.7,0.8-1.7,1.7c0,5.4,4.4,9.7,9.7,9.7c5.4,0,9.7-4.4,9.7-9.7v-9.1h-3.4V88.3z"/>
					</g>
					<path id="XMLID_3122_" fill="#4E4E4E" d="M14.2,62.4v1.8c0,0.5,0.4,0.7,1,0.7c0.5,0,1-0.1,1-0.7v-1.8H14.2z"/>
					<path id="XMLID_3121_" fill="#4E4E4E" d="M37.2,62.4v1.8c0,0.5,0.4,0.7,1,0.7s1-0.1,1-0.7v-1.8H37.2z"/>
					<path id="XMLID_3120_" fill="#4E4E4E" d="M64.4,62.4v1.8c0,0.5,0.4,0.7,1,0.7c0.5,0,1-0.1,1-0.7v-1.8H64.4z"/>
					<path id="XMLID_3119_" fill="#4E4E4E" d="M87.4,62.4v1.8c0,0.5,0.4,0.7,1,0.7c0.5,0,1-0.1,1-0.7v-1.8H87.4z"/>
					<rect id="XMLID_3118_" x="50.1" y="39.3" fill="#A7AAA8" width="3.4" height="39.9"/>
					<path id="XMLID_3117_" fill="#7B7F7D" d="M50.1,66.6l3.4-3.4v-3.9c-1-0.1-2.2-0.3-3.4-0.5V66.6z"/>
					<g id="XMLID_3113_">
						<radialGradient id="XMLID_2_" cx="51.1146" cy="25.8248" r="45.9228" gradientUnits="userSpaceOnUse">
							<stop  offset="0" style="stop-color:#FFB600"/>
							<stop  offset="1" style="stop-color:#F48800"/>
						</radialGradient>
						<path id="XMLID_3116_" fill="url(#XMLID_2_)" d="M38.2,63.6c0-20.7,6.1-37.4,13.6-37.4c-20.7,0-37.5,16.7-37.6,37.4
							c1.5-1.2,6.3-2.1,12-2.1C31.9,61.5,36.7,62.4,38.2,63.6z"/>
						<radialGradient id="XMLID_3_" cx="51.1146" cy="25.8248" r="45.9228" gradientUnits="userSpaceOnUse">
							<stop  offset="0" style="stop-color:#FFB600"/>
							<stop  offset="1" style="stop-color:#F48800"/>
						</radialGradient>
						<path id="XMLID_3115_" fill="url(#XMLID_3_)" d="M51.8,26.3c7.5,0,13.6,16.7,13.6,37.4c1.5-1.2,6.3-2.1,12-2.1
							c5.7,0,10.5,0.9,12,2.1C89.3,43,72.5,26.3,51.8,26.3z"/>
						<radialGradient id="XMLID_4_" cx="51.8494" cy="26.5596" r="40.0464" gradientUnits="userSpaceOnUse">
							<stop  offset="0" style="stop-color:#FFED42"/>
							<stop  offset="0.2757" style="stop-color:#FFE741"/>
							<stop  offset="0.6477" style="stop-color:#FFD640"/>
							<stop  offset="1" style="stop-color:#FFBF3E"/>
						</radialGradient>
						<path id="XMLID_3114_" fill="url(#XMLID_4_)" d="M38.2,63.6c1.7-1.2,7.2-2.1,13.6-2.1c6.5,0,11.9,0.9,13.6,2.1
							c0-20.7-6.1-37.4-13.6-37.4C44.3,26.3,38.3,43,38.2,63.6z"/>
					</g>
					<g id="XMLID_3111_">
						
							<radialGradient id="XMLID_5_" cx="7.6887" cy="26.5596" r="40.0464" gradientTransform="matrix(0.9414 0 0 1 44.609 0)" gradientUnits="userSpaceOnUse">
							<stop  offset="0" style="stop-color:#FFC51A"/>
							<stop  offset="0.2757" style="stop-color:#FEBF19"/>
							<stop  offset="0.6477" style="stop-color:#FCAE18"/>
							<stop  offset="1" style="stop-color:#F99716"/>
						</radialGradient>
						<path id="XMLID_3112_" fill="url(#XMLID_5_)" d="M51.8,61.5c5.7,0,10.5,0.7,12.8,1.7c-0.1-20.5-5.8-36.9-12.8-36.9
							c-7,0-12.7,16.5-12.8,36.9C41.3,62.2,46.2,61.5,51.8,61.5z"/>
					</g>
					<g id="XMLID_3109_">
						<radialGradient id="XMLID_6_" cx="51.1146" cy="25.8248" r="45.9229" gradientUnits="userSpaceOnUse">
							<stop  offset="0" style="stop-color:#FFF378"/>
							<stop  offset="0.9965" style="stop-color:#FFC14C"/>
						</radialGradient>
						<path id="XMLID_3110_" fill="url(#XMLID_6_)" d="M88.5,63.1c0.4,0.2,0.7,0.3,0.9,0.5C89.3,43,72.5,26.3,51.8,26.3
							C71.8,26.3,88.1,42.7,88.5,63.1z"/>
					</g>
					<g id="XMLID_3107_">
						
							<radialGradient id="XMLID_7_" cx="1514.9423" cy="25.8248" r="45.9229" gradientTransform="matrix(-1 0 0 1 1567.4487 0)" gradientUnits="userSpaceOnUse">
							<stop  offset="0" style="stop-color:#FFF378"/>
							<stop  offset="0.9965" style="stop-color:#FFC14C"/>
						</radialGradient>
						<path id="XMLID_3108_" fill="url(#XMLID_7_)" d="M15.1,63.1c-0.4,0.2-0.7,0.3-0.9,0.5C14.3,43,31.1,26.3,51.8,26.3
							C31.8,26.3,15.5,42.7,15.1,63.1z"/>
					</g>
					<radialGradient id="XMLID_8_" cx="44.5339" cy="26.5631" r="38.7248" gradientUnits="userSpaceOnUse">
						<stop  offset="0" style="stop-color:#FFC51A"/>
						<stop  offset="0.2757" style="stop-color:#FEBF19"/>
						<stop  offset="0.6477" style="stop-color:#FCAE18"/>
						<stop  offset="1" style="stop-color:#F99716"/>
					</radialGradient>
					<path id="XMLID_3106_" opacity="0.31" fill="url(#XMLID_8_)" d="M37.2,63.1c0.4,0.2,0.7,0.4,1,0.6c0-20.7,6.1-37.4,13.6-37.4
						C44.1,26.3,37.7,42.5,37.2,63.1z"/>
					
						<radialGradient id="XMLID_9_" cx="1446.0038" cy="26.5631" r="38.7248" gradientTransform="matrix(-1 0 0 1 1505.274 0)" gradientUnits="userSpaceOnUse">
						<stop  offset="0" style="stop-color:#FFC51A"/>
						<stop  offset="0.2757" style="stop-color:#FEBF19"/>
						<stop  offset="0.6477" style="stop-color:#FCAE18"/>
						<stop  offset="1" style="stop-color:#F99716"/>
					</radialGradient>
					<path id="XMLID_3105_" opacity="0.31" fill="url(#XMLID_9_)" d="M66.6,63.1c-0.4,0.2-0.7,0.4-1,0.6c0-20.7-6.1-37.4-13.6-37.4
						C59.7,26.3,66.1,42.5,66.6,63.1z"/>
				</g>
			</g>
			<path id="XMLID_3092_" fill="#A9ACAD" d="M154,127.5H79.3c-1.6,0-2.9-1.3-2.9-2.9s1.3-2.9,2.9-2.9H154c1.6,0,2.9,1.3,2.9,2.9
				S155.5,127.5,154,127.5z"/>
			<g id="XMLID_270_">
				<path id="XMLID_3091_" fill="#ECECEC" d="M202.8,45.1h-36.1l2.6,4.6v43.7H208V53.2v-2.7C208,47.6,205.7,45.1,202.8,45.1z"/>
				<path id="XMLID_3090_" fill="#ECECEC" d="M208.7,96.7l-0.7-1.2V51.8h-38.8v42.9c0,3,2.4,5.4,5.3,5.4h31.9
					C207,98.9,207.8,97.7,208.7,96.7z"/>
				<g id="XMLID_3087_">
					<path id="XMLID_3089_" fill="#FFFFFF" d="M200.6,45.1h-37.2l2.7,4.6v43.7H206V53.2v-2.7C206,47.6,203.6,45.1,200.6,45.1z"/>
					<path id="XMLID_3088_" fill="#BBBBBB" d="M166.1,53.2v-5.6c0-1.4-1.1-2.5-2.5-2.5s-2.5,1.1-2.5,2.5v5.6H166.1z"/>
				</g>
				<g id="XMLID_3084_">
					<path id="XMLID_3086_" fill="#FFFFFF" d="M171.5,100.1h37.2l-2.7-4.6V51.8h-39.9V92v2.7C166.1,97.7,168.5,100.1,171.5,100.1z"
						/>
					<path id="XMLID_3085_" fill="#BBBBBB" d="M206,92v5.6c0,1.4,1.1,2.5,2.5,2.5c1.4,0,2.5-1.1,2.5-2.5V92H206z"/>
				</g>
				<g id="XMLID_3069_">
					<g id="XMLID_3077_">
						<g id="XMLID_3079_">
							<path id="XMLID_3083_" fill="#E6A47B" d="M185.2,110.5c-0.5-1.2,0-2.6,1.2-3.1l7.4-3.3c1.2-0.5,2.6,0,3.1,1.2
								c0.5,1.2,0,2.6-1.2,3.1l-7.4,3.3C187.1,112.2,185.7,111.6,185.2,110.5z"/>
							<rect id="XMLID_3082_" x="172" y="108.7" fill="#FBC49D" width="8.6" height="8.3"/>
							<path id="XMLID_3081_" fill="#FBC49D" d="M206.2,110.1c0.7-0.4,1-1.3,0.6-2.1c-1.3-2.6-3.7-1.7-6.4-0.4l-6.4,2.7
								c0,0-6.8-3.9-10.3-3.9c-6.9,0-7.3,2.8-7.5,5c-0.2,0.9,0,5.5,0,5.5c8.1,0,17.1,0,17.1,0L206.2,110.1z"/>
							<rect id="XMLID_3080_" x="172.1" y="106.6" fill="#FFFFFF" width="3.5" height="11"/>
						</g>
						<path id="XMLID_3078_" fill="#4E4E4E" d="M156.2,105.6l-15.1-23.5c-3.7-5.8-10.7-9.5-13.5-7.4c-2.7,2.1-0.4,9.2,1.7,11.9
							l16.8,26.5c2,3.1,5.4,5,9.1,5h17.4l0-12.5L156.2,105.6z"/>
					</g>
					<g id="XMLID_3070_">
						<g id="XMLID_3072_">
							<path id="XMLID_3076_" fill="#E6A47B" d="M48.3,110.5c0.5-1.2,0-2.6-1.2-3.1l-7.4-3.3c-1.2-0.5-2.6,0-3.1,1.2
								c-0.5,1.2,0,2.6,1.2,3.1l7.4,3.3C46.4,112.2,47.8,111.6,48.3,110.5z"/>
							<rect id="XMLID_3075_" x="52.9" y="108.7" fill="#FBC49D" width="8.6" height="8.3"/>
							<path id="XMLID_3074_" fill="#FBC49D" d="M27.3,110.1c-0.7-0.4-1-1.3-0.6-2.1c1.3-2.6,3.7-1.7,6.4-0.4l6.4,2.7
								c0,0,6.8-3.9,10.3-3.9c6.9,0,7.3,2.8,7.5,5c0.2,0.9,0,5.5,0,5.5c-8.1,0-17.1,0-17.1,0L27.3,110.1z"/>
							<rect id="XMLID_3073_" x="57.9" y="106.6" fill="#FFFFFF" width="3.5" height="11"/>
						</g>
						<path id="XMLID_3071_" fill="#424242" d="M77.3,105.6l15.1-23.5c3.7-5.8,10.7-9.5,13.5-7.4c2.7,2.1,0.4,9.2-1.7,11.9
							l-16.8,26.5c-2,3.1-5.4,5-9.1,5H60.8l0-12.5L77.3,105.6z"/>
					</g>
				</g>
				<g id="XMLID_3065_">
					<path id="XMLID_3068_" fill="#BBBBBB" d="M200.8,54.5h-29.5c-0.5,0-1-0.4-1-1c0-0.5,0.4-1,1-1h29.5c0.5,0,1,0.4,1,1
						C201.7,54.1,201.3,54.5,200.8,54.5z"/>
					<path id="XMLID_3067_" fill="#BBBBBB" d="M200.8,60.2h-29.5c-0.5,0-1-0.4-1-1c0-0.5,0.4-1,1-1h29.5c0.5,0,1,0.4,1,1
						C201.7,59.8,201.3,60.2,200.8,60.2z"/>
					<path id="XMLID_3066_" fill="#BBBBBB" d="M182.7,65.9h-11.4c-0.5,0-1-0.4-1-1s0.4-1,1-1h11.4c0.5,0,1,0.4,1,1
						S183.2,65.9,182.7,65.9z"/>
				</g>
				<g id="XMLID_272_">
					<g id="XMLID_273_">
						<g id="XMLID_275_">
							<rect id="XMLID_3064_" x="107.8" y="78.1" fill="#E8E8E8" width="17.9" height="49.1"/>
							<g id="XMLID_398_">
								<g id="XMLID_399_">
									<g id="XMLID_473_">
										<polygon id="XMLID_2978_" fill="#CA2E00" points="123.9,127.1 118.8,90.3 114.7,90.3 109.6,127.1 										"/>
										<polygon id="XMLID_2859_" fill="#B91F00" points="122.4,81.2 111.2,81.2 114.7,90.3 118.8,90.3 										"/>
									</g>
									<g id="XMLID_464_">
										<polygon id="XMLID_465_" fill="#F2F2F2" points="111.5,88.9 102.8,77.6 104.2,77.1 108.2,71.6 116.8,81.3 										"/>
									</g>
									<g id="XMLID_462_">
										<polygon id="XMLID_463_" fill="#F2F2F2" points="122,88.9 130.7,77.6 129.3,77.1 125.3,71.6 116.7,81.3 										"/>
									</g>
									<path id="XMLID_461_" fill="#FFFFFF" d="M122,88.1l7.3-10.9l-3.5-5c-0.3-0.4-0.8-0.7-1.4-0.7H109c-0.5,0-1,0.2-1.4,0.7
										l-3.5,5l7.3,10.9l5.2-6.8h0.1L122,88.1z"/>
									<g id="XMLID_400_">
										<path id="XMLID_460_" fill="#ADADAD" d="M124.8,72.4h-16c-0.3,0-0.4,0.4-0.2,0.6l8.2,8.2L125,73
											C125.2,72.8,125.1,72.4,124.8,72.4z"/>
									</g>
								</g>
							</g>
							<g id="XMLID_395_">
								<g id="XMLID_396_">
									<polygon id="XMLID_397_" fill="#E6A47B" points="124.4,73.5 116.8,81.3 109.1,73.5 109.1,65.8 124.4,65.8 									"/>
								</g>
							</g>
							<g id="XMLID_393_">
								<path id="XMLID_394_" fill="#4E4E4E" d="M120.4,127.1v-12.3l-14-41.1c-6.5,0-11.8,5.3-11.8,11.8v41.7H120.4z"/>
							</g>
							<g id="XMLID_391_">
								<path id="XMLID_392_" fill="#666666" d="M138.9,127.1V85.4c0-6.5-5.3-11.8-11.8-11.8L113,114.8l0.1,12.3H138.9z"/>
							</g>
							<g id="XMLID_279_">
								<polygon id="XMLID_390_" fill="#666666" points="120.4,114.8 106.4,73.7 100.4,79.4 103.3,82.3 99.7,86.1 								"/>
								<g id="XMLID_388_">
									<polygon id="XMLID_389_" fill="#4E4E4E" points="113,114.8 127.1,73.7 133.1,79.4 130.3,82.3 133.8,86.1 									"/>
								</g>
							</g>
							<g id="XMLID_277_">
								<circle id="XMLID_278_" fill="#A3A3A3" cx="116.8" cy="117" r="1.6"/>
							</g>
						</g>
					</g>
				</g>
			</g>
			<polygon id="XMLID_268_" fill="#D79471" points="124.4,70.5 124.4,68.7 118.2,65.8 109.1,65.8 109.1,73.5 115.2,79.7 			"/>
			<g id="XMLID_264_">
				<path id="XMLID_267_" fill="#E6A47B" d="M99.8,40.9c-3.3,0.1-6,2.8-6,6.2c0,3.4,2.7,6.1,6,6.2V40.9z"/>
				<path id="XMLID_265_" fill="#E6A47B" d="M133.7,40.9c3.3,0.1,6,2.8,6,6.2c0,3.4-2.7,6.1-6,6.2V40.9z"/>
			</g>
			<path id="XMLID_262_" fill="#FFBB8E" d="M98.4,27.7l1.7,29.9c0,6,4.8,9.6,7.6,11.6c1.2,0.9,2.7,1.3,4.1,1.3h9.8
				c1.4,0,2.8-0.4,4-1.2c2.9-2,7.8-5.5,7.8-11.7l1.7-29.9H98.4z"/>
			<path id="XMLID_260_" fill="#FFCBAB" d="M135.1,27.7H118c-0.7,0.6-1.1,1-1.1,1v41.7h4.7c1.4,0,2.8-0.4,4-1.2
				c2.9-2,7.8-5.5,7.8-11.7L135.1,27.7z"/>
			<g id="XMLID_251_">
				<g id="XMLID_255_">
					<circle id="XMLID_259_" fill="#5C2F15" cx="107.7" cy="42.3" r="1.9"/>
					<circle id="XMLID_258_" fill="#FAA67A" cx="107.7" cy="51.1" r="2.6"/>
				</g>
				<g id="XMLID_252_">
					<circle id="XMLID_254_" fill="#5C2F15" cx="125.8" cy="42.3" r="1.9"/>
					<circle id="XMLID_253_" fill="#FAA67A" cx="125.8" cy="51.1" r="2.6"/>
				</g>
			</g>
			<path id="XMLID_250_" fill="#FFD3AF" d="M116.9,57.4c-1.5,0-2.8-1.2-2.8-2.8v-9.8c0-1.5,1.2-2.8,2.8-2.8c1.5,0,2.8,1.2,2.8,2.8
				v9.8C119.7,56.1,118.4,57.4,116.9,57.4z"/>
			<path id="XMLID_249_" fill="#BE7F3C" d="M117.9,17.5c14.7,0,17.2,8.5,17.9,11.3c0,0.1,0,0.1,0,0.2c0,0.1,0.1,0.2,0.1,0.4
				c0,0.1,0,0.2,0,0.2l-0.8,19c-0.3,0-0.7,0-1.3,0V32.4c0-2.3-1.8-4.1-4.1-4.1c-4.6,1.2-9.4,1.7-14.1,1.6v-8.5c0,0,0,0,0-0.1h2.2
				V17.5z"/>
			<path id="XMLID_248_" fill="#975837" d="M118.3,17.5h-2.7c-14.7,0-17.2,8.5-17.9,11.3c0,0.1,0,0.1,0,0.2c0,0.1-0.1,0.2-0.1,0.4
				c0,0.1,0,0.2,0,0.2l0.8,19c0.3,0,0.7,0,1.3,0V32.4c0-2.3,1.8-4.1,4.1-4.1c3.9,1,7.9,1.6,11.9,1.6c0,0,1.3,0.1,3.2,0
				C128.2,29.5,127.7,17.5,118.3,17.5z"/>
			<path id="XMLID_246_" fill="#FAA67A" d="M122.3,61h-11c0,1.7,1.4,3.1,3.1,3.1h4.7C120.8,64.2,122.3,62.8,122.3,61z"/>
			<path id="XMLID_243_" fill="#975837" d="M117.9,14.5v15.4c6.1,0,8.9-3.7,8.9-7.8C126.7,18.1,122.8,14.7,117.9,14.5z"/>
		</g>
		<g id="XMLID_228_">
			<path id="XMLID_232_" fill="#2A8ECC" d="M201.3,74c0,0-1.8-4.4-13.5-4.4c-11.7,0-13.5,4.4-13.5,4.4s-0.2,6.4,0.9,11.6
				c1.1,5.2,8.3,12.8,12.6,12.8c4.3,0,11.5-7.6,12.6-12.8C201.5,80.4,201.3,74,201.3,74z"/>
			<g id="XMLID_230_">
				<path id="XMLID_231_" fill="#0071BC" d="M187.8,69.6c-11.7,0-13.5,4.4-13.5,4.4s-0.2,6.4,0.9,11.6c1.1,5.2,8.3,12.8,12.6,12.8
					C187.8,98.4,187.8,69.6,187.8,69.6z"/>
			</g>
			<path id="XMLID_229_" fill="#FFFFFF" d="M200.1,68.9l-12.2,14.8l-4.5-4.6h-4.5l8.1,8.3c0.6,0.6,1.6,0.6,2.2-0.1L202.6,71
				L200.1,68.9z"/>
		</g>
	</g>
</g>
<g id="Layer_14" display="none">
	<circle id="XMLID_2871_" display="inline" fill="none" stroke="#424242" stroke-miterlimit="10" cx="172" cy="88" r="100"/>
</g>
</svg>
