<?xml version="1.0" encoding="utf-8"?>
<!-- Generator: Adobe Illustrator 19.0.0, SVG Export Plug-In . SVG Version: 6.00 Build 0)  -->
<svg version="1.0" xmlns="http://www.w3.org/2000/svg" xmlns:xlink="http://www.w3.org/1999/xlink" x="0px" y="0px"
	 viewBox="0 0 230 140" enable-background="new 0 0 230 140" xml:space="preserve">
<g id="Layer_2">
</g>
<g id="Layer_1">
</g>
<g id="Layer_6">
</g>
<g id="Layer_5">
</g>
<g id="Layer_7">
</g>
<g id="Layer_9">
</g>
<g id="Layer_8">
</g>
<g id="Layer_11">
</g>
<g id="Layer_12">
</g>
<g id="Layer_4">
</g>
<g id="Layer_10">
</g>
<g id="Layer_13">
</g>
<g id="Layer_15">
</g>
<g id="Layer_16">
</g>
<g id="Layer_17">
</g>
<g id="Layer_20">
</g>
<g id="Layer_19">
</g>
<g id="Layer_18">
</g>
<g id="Layer_21">
</g>
<g id="Layer_22">
	<g id="XMLID_68_">
		<circle id="XMLID_2471_" fill="#ECECEB" cx="115.2" cy="69.7" r="66.9"/>
		<g id="XMLID_2461_">
			<path id="XMLID_2465_" fill="#2A8ECC" d="M128.1,14.2c0,0-1.8-4.4-13.5-4.4c-11.7,0-13.5,4.4-13.5,4.4s-0.2,6.4,0.9,11.6
				c1.1,5.2,8.3,12.8,12.6,12.8c4.3,0,11.5-7.6,12.6-12.8C128.3,20.6,128.1,14.2,128.1,14.2z"/>
			<g id="XMLID_2463_">
				<path id="XMLID_2464_" fill="#0071BC" d="M114.6,9.8c-11.7,0-13.5,4.4-13.5,4.4s-0.2,6.4,0.9,11.6c1.1,5.2,8.3,12.8,12.6,12.8
					C114.6,38.6,114.6,9.8,114.6,9.8z"/>
			</g>
			<path id="XMLID_2462_" fill="#FFFFFF" d="M126.9,9.1l-12.2,14.8l-4.5-4.6h-4.5l8.1,8.3c0.6,0.6,1.6,0.6,2.2-0.1l13.4-16.2
				L126.9,9.1z"/>
		</g>
		<g id="XMLID_2473_">
			<path id="XMLID_2616_" fill="#404040" d="M176.5,42.3c-0.5,0-0.9-0.2-1.3-0.5l-2.2-1.8c-0.4-0.3-0.6-0.9-0.4-1.4
				c0.2-0.5,0.6-0.8,1.2-0.8h2.5c1.3,0,2.4,1.1,2.4,2.4C178.6,41.4,177.6,42.3,176.5,42.3z M173.7,39c0,0-0.1,0-0.1,0.1
				c0,0.1,0,0.1,0,0.1l2.2,1.8c0.2,0.1,0.4,0.2,0.6,0.2c0.5,0,1-0.4,1-1c0-0.7-0.5-1.2-1.2-1.2H173.7z"/>
			<path id="XMLID_2613_" fill="#404040" d="M176.2,37.9h-2.5c-0.5,0-1-0.3-1.2-0.8c-0.2-0.5,0-1.1,0.4-1.4l2.2-1.8
				c0.4-0.3,0.8-0.5,1.3-0.5c1.2,0,2.1,0.9,2.1,2.1C178.6,36.8,177.5,37.9,176.2,37.9z M176.5,34.6c-0.2,0-0.4,0.1-0.6,0.2l-2.2,1.8
				c0,0-0.1,0,0,0.1c0,0.1,0.1,0.1,0.1,0.1h2.5c0.7,0,1.2-0.5,1.2-1.2C177.4,34.9,176.9,34.6,176.5,34.6z"/>
			<path id="XMLID_2612_" fill="#A9ACAD" d="M185.5,130.9H37.1c-1.3,0-2.4-1.1-2.4-2.4c0-1.3,1.1-2.4,2.4-2.4h148.4
				c1.3,0,2.4,1.1,2.4,2.4C187.9,129.8,186.8,130.9,185.5,130.9z"/>
			<g id="XMLID_2606_">
				<rect id="XMLID_2611_" x="169.8" y="113.2" fill="#ECB088" width="5" height="5.6"/>
				<path id="XMLID_2610_" fill="#424242" d="M175.3,114.8h-6.1v-10.3c0-2,0.4-3.9,1.1-5.7l5.6-14.2l5.7,2.3l-5.6,14.2
					c-0.4,1.1-0.7,2.3-0.7,3.5V114.8z"/>
				<path id="XMLID_2609_" fill="#424242" d="M175.5,118.2h-6.3v1c0,0.8-0.7,1.5-1.5,1.5h-5c-1.5,0-2.7,1.2-2.7,2.7v2.6
					c0,0.3,0.2,0.5,0.5,0.5H175c0.3,0,0.5-0.2,0.5-0.5V118.2z"/>
				<path id="XMLID_2608_" fill="#FFFFFF" d="M164.5,124.4v-3.7h-1.7c-1.5,0-2.7,1.2-2.7,2.7v1H164.5z"/>
				<path id="XMLID_2607_" fill="#E8E8E8" d="M160,124.9v1.1c0,0.3,0.2,0.5,0.5,0.5H175c0.3,0,0.5-0.2,0.5-0.5v-1.1H160z"/>
			</g>
			<path id="XMLID_2605_" fill="#E6E6E6" d="M168.1,57.6c-1-1.7-3.2-2.4-4.9-1.4l-9.8,5.4l-9.9-4.3c-1.8-0.8-3.9,0-4.7,1.9
				c-0.8,1.8,0,3.9,1.9,4.7l11.6,5.1c1.3,0.6,2.7,0.3,3.7-0.5l10.8-6C168.5,61.6,169.1,59.4,168.1,57.6z"/>
			<g id="XMLID_2576_">
				<path id="XMLID_2579_" fill="#424242" d="M143.6,57.4c-1.8-0.8-3.9,0-4.7,1.9c-0.8,1.8,0,3.9,1.9,4.7l4.1,1.8l2.8-6.6
					L143.6,57.4z"/>
				<path id="XMLID_2578_" fill="#424242" d="M151.3,60.8l-2.8,6.6l3.8,1.7c1,0.4,2,0.4,2.9,0l-2.1-7.5L151.3,60.8z"/>
				<path id="XMLID_2577_" fill="#424242" d="M168.1,57.6c-1-1.7-3.2-2.4-4.9-1.4l-6.4,3.6l2,7.1l8-4.4
					C168.5,61.6,169.1,59.4,168.1,57.6z"/>
			</g>
			<path id="XMLID_2575_" fill="#424242" d="M182.5,91.8h0.3c5.8,0,10.4-4.7,10.4-10.4v-3H172v3C172,87.1,176.7,91.8,182.5,91.8z"/>
			<g id="XMLID_2572_">
				<g id="XMLID_2573_">
					<path id="XMLID_2574_" fill="#5C5C5C" d="M193.2,84.8v-6.5h-14.7v6.5c0,3.9,3.1,7,7,7h0.8C190,91.8,193.2,88.7,193.2,84.8z"/>
				</g>
			</g>
			<g id="XMLID_2566_">
				<rect id="XMLID_2571_" x="179.9" y="113.2" fill="#ECB088" width="5" height="5.6"/>
				<path id="XMLID_2570_" fill="#5C5C5C" d="M185.5,114.8h-6.1v-11.2c0-1.3,0.2-2.6,0.7-3.9l3.9-13.2l5.9,1.7l-4,13.5
					c-0.2,0.6-0.3,1.2-0.3,1.9V114.8z"/>
				<path id="XMLID_2569_" fill="#5C5C5C" d="M185.6,118.2h-6.3v1c0,0.8-0.7,1.5-1.5,1.5h-5c-1.5,0-2.7,1.2-2.7,2.7v2.6
					c0,0.3,0.2,0.5,0.5,0.5h14.5c0.3,0,0.5-0.2,0.5-0.5V118.2z"/>
				<path id="XMLID_2568_" fill="#FFFFFF" d="M174.6,124.4v-3.7h-1.7c-1.5,0-2.7,1.2-2.7,2.7v1H174.6z"/>
				<path id="XMLID_2567_" fill="#FFFFFF" d="M170.1,124.9v1.1c0,0.3,0.2,0.5,0.5,0.5h14.5c0.3,0,0.5-0.2,0.5-0.5v-1.1H170.1z"/>
			</g>
			<path id="XMLID_2565_" fill="#E6E6E6" d="M172,80.8h21.4c0,0,0.5-29.3-19.3-30.8l-13.6,7.8C160.4,57.8,172,66.7,172,80.8z"/>
			<path id="XMLID_2564_" fill="#FFFFFF" d="M174.1,50l-3.5,2l-2.8,4l12.2,3.7l-3.7,9.6c0,0,2.6,4.8,2.4,11.4h14.7
				C193.4,80.8,193.8,51.4,174.1,50z"/>
			<g id="XMLID_2558_">
				<g id="XMLID_2560_">
					<g id="XMLID_2561_">
						<g id="XMLID_2562_">
							<polygon id="XMLID_2563_" fill="#FBC49D" points="172.8,50.6 174.1,50 169.7,63.3 164.4,55.5 165.7,54.8 163.8,50.5 171,47 
															"/>
						</g>
					</g>
				</g>
				<polygon id="XMLID_2559_" fill="#ECB088" points="166.8,59 171.5,48.7 171,47.1 171,47 163.8,50.5 165.7,54.8 164.4,55.5 				
					"/>
			</g>
			<g id="XMLID_2527_">
				<g id="XMLID_2542_">
					<g id="XMLID_2556_">
						<path id="XMLID_2557_" fill="#ECB088" d="M154.1,38.2c-1.8,0-3.2,1.5-3.2,3.2c0,1.8,1.4,3.2,3.2,3.2V38.2z"/>
					</g>
					<path id="XMLID_2555_" fill="#FBC49D" d="M152.8,30.2l0.9,16.9c0,3.2,2.1,5,3.6,6.1c0.7,0.5,1.4,0.7,2.2,0.7h5.1
						c0.7,0,1.5-0.2,2.1-0.6c1.5-1,5.3-3.1,5.3-6.4l0.8-16.6H152.8z"/>
					<g id="XMLID_2552_">
						<path id="XMLID_2553_" fill="#CDA984" d="M161.1,47.4c-6.3,0-4.8,4.9-4.3,5.3c0,0,0,0,0,0c0.1,0.1,0.3,0.2,0.4,0.3
							c0.1,0.1,0.3,0.2,0.4,0.2c0.6,0.3,1.2,0.5,1.8,0.5h4.8h0.4c0.2,0,0.4,0,0.6-0.1c0.2,0,0.4-0.1,0.6-0.2
							c0.3-0.1,0.6-0.2,0.8-0.4C167.3,52.7,169.6,47.4,161.1,47.4z"/>
					</g>
					<g id="XMLID_2546_">
						<g id="XMLID_2549_">
							<circle id="XMLID_2551_" fill="#404040" cx="156.7" cy="38.6" r="0.8"/>
							<circle id="XMLID_2550_" fill="#FAA67A" cx="156.7" cy="43.6" r="1.4"/>
						</g>
						<g id="XMLID_2547_">
							<circle id="XMLID_2548_" fill="#FAA67A" cx="165.9" cy="43.6" r="1.4"/>
						</g>
					</g>
					<path id="XMLID_2545_" fill="#BF9F80" d="M163.7,24.8c7.7,0,9.8,4.4,10.2,6c0,0,0,0.1,0,0.1c0,0.1,0,0.1,0,0.2
						c0,0.1,0,0.1,0,0.1l-0.1,4.8c0,1.5-0.2,3-0.5,4.5C172.7,43,172,47,172,47v-4.7c0,0-1.7,0-1.8,0v-8.6c0-1.2-1.6-3.3-2.8-3.3
						c-2.4,0.6-2.4,0.9-4.9,0.9v-4.5c0,0,0,0,0,0h1.2V24.8z"/>
					<path id="XMLID_2544_" fill="#BF9F80" d="M163.9,24.8h-1.4c-7.7,0-9.1,4.4-9.4,6c0,0,0,0.1,0,0.1c0,0.1,0,0.1,0,0.2
						c0,0.1,0,0.1,0,0.1l0.4,11.1c0.2,0,0.4,0,0.7,0v-8.5c0-1.2,1-3.3,2.2-3.3c2.1,0.5,4.2,0.8,6.3,0.9c0,0,0.7,0.1,1.7,0
						C169.1,31.1,168.9,24.8,163.9,24.8z"/>
					<path id="XMLID_2543_" fill="#FFD3AF" d="M161.1,46.1c-0.8,0-1.4-0.7-1.4-1.4v-4.1c0-0.8,0.7-1.4,1.4-1.4
						c0.8,0,1.4,0.7,1.4,1.4v4.1C162.5,45.4,161.9,46.1,161.1,46.1z"/>
				</g>
				<path id="XMLID_2539_" fill="#404040" d="M166.1,35.7c-2.2,0-3.9,1.3-3.9,2.9c0,1.6,1.7,2.9,3.9,2.9s3.9-1.3,3.9-2.9
					C170,37,168.2,35.7,166.1,35.7z M166.1,40.3c-1.2,0-2.2-0.7-2.2-1.7s1-1.7,2.2-1.7c1.2,0,2.2,0.7,2.2,1.7S167.3,40.3,166.1,40.3
					z"/>
				<path id="XMLID_2536_" fill="#404040" d="M156.6,35.7c-1.9,0-3.4,1.3-3.4,2.9c0,1.6,1.5,2.9,3.4,2.9c1.9,0,3.4-1.3,3.4-2.9
					C160,37,158.5,35.7,156.6,35.7z M156.6,40.3c-1.1,0-2-0.7-2-1.7s0.9-1.7,2-1.7c1.1,0,2,0.7,2,1.7S157.7,40.3,156.6,40.3z"/>
				<circle id="XMLID_2535_" fill="#404040" cx="165.9" cy="38.6" r="0.8"/>
				<rect id="XMLID_2534_" x="168.9" y="36.8" fill="#404040" width="5" height="2.1"/>
				<path id="XMLID_2533_" fill="#ECB088" d="M171,39.4c0-0.6,0.7-1.1,1.2-0.8c1.1,0.5,1.9,1.6,1.9,3c0,1.8-1.4,3.2-3.2,3.2V39.4z"
					/>
				<path id="XMLID_2532_" fill="#404040" d="M163.1,39.8c0-0.5-0.9-0.8-2-0.8c-1.1,0-2,0.4-2,0.8v-1.7c0-0.5,0.9-0.8,2-0.8
					c1.1,0,2,0.4,2,0.8V39.8z"/>
				<path id="XMLID_2531_" fill="#404040" d="M174.3,33.3v-1.5c0-4.9-4.4-8.9-9.7-8.9h-2.4c-5.3,0-9.7,4-9.7,8.9v1.5H174.3z"/>
				<path id="XMLID_2530_" fill="#595959" d="M166.3,23c-4.6,0.7-8.1,4.4-8.1,8.7v1.5h16.1v-1.5C174.3,27.4,170.8,23.7,166.3,23z"/>
				<rect id="XMLID_2529_" x="151.7" y="30.6" fill="#404040" width="23" height="3.3"/>
				<rect id="XMLID_2528_" x="156.7" y="31.3" fill="#595959" width="18.1" height="2.7"/>
			</g>
			
				<rect id="XMLID_2526_" x="139.3" y="32.7" transform="matrix(0.9233 0.3841 -0.3841 0.9233 32.7989 -49.5307)" fill="#424242" width="2.2" height="49.3"/>
			<g id="XMLID_2522_">
				<g id="XMLID_2523_">
					<circle id="XMLID_2525_" fill="#FBC49D" cx="139.4" cy="59.8" r="4.6"/>
					<path id="XMLID_2524_" fill="#FBC49D" d="M145.4,59.6c0.4-0.6,0.2-1.4-0.4-1.7l-3.2-1.9c-0.6-0.4-1.4-0.2-1.7,0.4
						c-0.4,0.6-0.2,1.4,0.4,1.7l3.2,1.9C144.3,60.4,145.1,60.2,145.4,59.6z"/>
				</g>
			</g>
			<g id="XMLID_2493_">
				<g id="XMLID_2519_">
					<path id="XMLID_2521_" fill="#0A6C98" d="M142.9,64.9h5.7c2.4,0,2.5,2,2.5,4.4v2.6c0,2.4-0.1,4.4-2.5,4.4h-10.8l-1.6-4.3
						l2.4-3.9C139.8,66.1,140.9,64.9,142.9,64.9z"/>
					<path id="XMLID_2520_" fill="#0A6C98" d="M43,64.9h-5.7c-2.4,0-4.4,2-4.4,4.4v2.6c0,2.4,2,4.4,4.4,4.4H48l1.6-4.3L47.2,68
						C46.1,66.1,44.9,64.9,43,64.9z"/>
				</g>
				<g id="XMLID_2501_">
					<g id="XMLID_2516_">
						<path id="XMLID_2518_" fill="#404040" d="M51,98.6h-0.9c-4.4,0-7.9,3.5-7.9,7.9v13.8c0,4.4,3.5,7.9,7.9,7.9H51
							c4.4,0,7.9-3.5,7.9-7.9v-13.8C58.9,102.1,55.4,98.6,51,98.6z"/>
						<path id="XMLID_2517_" fill="#404040" d="M135.8,98.6h-0.9c-4.4,0-7.9,3.5-7.9,7.9v13.8c0,4.4,3.5,7.9,7.9,7.9h0.9
							c4.4,0,7.9-3.5,7.9-7.9v-13.8C143.7,102.1,140.2,98.6,135.8,98.6z"/>
					</g>
					<g id="XMLID_2514_">
						<path id="XMLID_2515_" fill="#2D90BF" d="M130,53.8c-0.6-1.2-1.7-2.3-3.4-3.3c-2.2-1.2-13-2.8-32.7-2.8s-32.4,1.5-34.6,2.8
							c-1.7,0.9-2.8,2-3.4,3.3c-2.4,5.3-13,33-13,35v22.9c0,1.8,3.4,6.4,5.2,6.4h47.8h42c1.8,0,5.2-4.6,5.2-6.4V88.8
							C143,86.9,132.4,59.1,130,53.8z"/>
					</g>
					<g id="XMLID_2511_">
						<path id="XMLID_2513_" fill="#0A6C98" d="M70.8,91.2L52,85.3c-1.3-0.4-2.3-1.3-2.8-2.3c-0.4-0.9-0.3-1.8,0.1-2.7l3.3-8.3
							l1.5,0.6L50.8,81c-0.2,0.4-0.2,0.9-0.1,1.3c0.3,0.6,0.9,1.1,1.7,1.4l18.8,5.9L70.8,91.2z"/>
						<path id="XMLID_2512_" fill="#0A6C98" d="M115.1,91.2l-0.5-1.6l18.8-5.9c0.9-0.3,1.5-0.8,1.8-1.4c0.2-0.4,0.2-0.9-0.1-1.3
							l0-0.1l-3.3-8.3l1.5-0.6l3.3,8.3c0.4,0.9,0.5,1.8,0.1,2.7c-0.5,1.1-1.5,1.9-2.8,2.4L115.1,91.2z"/>
					</g>
					<path id="XMLID_2510_" fill="#87A093" d="M124,52.9h-62c-2.2,0-4.2,1.4-5,3.5c-1.8,4.7-4.9,12.7-6.1,15.5
						c-0.9,1.9,5.3,2.2,7.4,2.2h69.6c2.1,0,8.2-0.3,7.4-2.2c-1.3-2.8-4.4-10.8-6.1-15.5C128.2,54.3,126.2,52.9,124,52.9z"/>
					<rect id="XMLID_2509_" x="68" y="88.8" fill="#004969" width="49.8" height="9"/>
					<path id="XMLID_2508_" fill="#A5B8AF" d="M119.8,66.6c-1.1-3.1-2.3-8-3-9.6c0-0.1-0.1-0.2-0.2-0.3c-0.6-1-1.6-1.5-2.7-1.5h-42
						c-1.1,0-2.2,0.5-2.7,1.5c-0.1,0.1-0.1,0.2-0.2,0.3c-0.7,1.6-1.8,6.5-3,9.6H119.8z"/>
					<g id="XMLID_2505_">
						<path id="XMLID_2507_" fill="#FFFEFF" d="M46.9,89.2v4.7c0,1.6,1.3,3,3,3l13,0.8c0.9,0,1.7-0.7,1.7-1.7v-1.9
							c0-1.4-0.9-2.7-2.2-3.2l-12.1-4.3C48.6,86.2,46.9,87.4,46.9,89.2z"/>
						<path id="XMLID_2506_" fill="#FFFEFF" d="M139,89.2v4.7c0,1.6-1.3,3-3,3l-13,0.8c-0.9,0-1.7-0.7-1.7-1.7v-1.9
							c0-1.4,0.9-2.7,2.2-3.2l12.1-4.3C137.3,86.2,139,87.4,139,89.2z"/>
					</g>
					<g id="XMLID_2502_">
						<path id="XMLID_2504_" fill="#526363" d="M81.5,69.4H61.4v-0.1c0-3.3,2.7-6,6-6h8.1C78.8,63.4,81.5,66.1,81.5,69.4L81.5,69.4z
							"/>
						<path id="XMLID_2503_" fill="#526363" d="M124.5,69.4h-20.1v-0.1c0-3.3,2.7-6,6-6h8.1C121.8,63.4,124.5,66.1,124.5,69.4
							L124.5,69.4z"/>
					</g>
				</g>
				<path id="XMLID_2500_" fill="#0A6C98" d="M119.4,101.9h-53l-23.6,0v8.3c0,1.8,3.4,6,5.2,6h89.8c1.8,0,5.2-4.2,5.2-6v-8.3
					L119.4,101.9z"/>
				<rect id="XMLID_2499_" x="68.1" y="105.4" fill="#004969" width="49.8" height="4.7"/>
				<g id="XMLID_2496_">
					<rect id="XMLID_2498_" x="47" y="105.4" fill="#004969" width="12.5" height="4.7"/>
					<rect id="XMLID_2497_" x="126.5" y="105.4" fill="#004969" width="12.5" height="4.7"/>
				</g>
				<rect id="XMLID_2495_" x="68" y="91.7" fill="#0A6C98" width="49.8" height="2.1"/>
				<rect id="XMLID_2494_" x="68" y="96.5" fill="#0A6C98" width="49.8" height="2.1"/>
			</g>
			<path id="XMLID_2492_" fill="#526363" d="M133.5,68h-81c-0.6,1.4-1.1,2.7-1.7,3.9c-0.9,1.9,5.3,2.2,7.4,2.2h69.6
				c2.1,0,8.2-0.3,7.4-2.2C134.6,70.7,134,69.4,133.5,68z"/>
			<polygon id="XMLID_2491_" fill="#BECCC6" points="96.1,73.9 105,52.9 79.9,52.9 71,73.9 			"/>
			<path id="XMLID_2490_" fill="#2D90BF" d="M133.5,68.1c0.5-0.5,1-1.1,1.6-1.6c-2.2-5.7-4.2-10.7-5.1-12.6
				c-0.1-0.3-0.3-0.6-0.6-0.9c-0.4,0.7-0.9,1.3-1.5,1.8c0.4,0.5,0.7,1,1,1.6C130.2,59.6,132.1,64.5,133.5,68.1z"/>
			<path id="XMLID_2489_" fill="#EFEFEF" d="M159,49.9c0,0,1.3-0.1,2.8-0.8c1.3-0.6,2.3,0.1,2.1,1C163.7,50.9,161.2,51.5,159,49.9z"
				/>
			<g id="XMLID_2485_">
				<path id="XMLID_2488_" fill="#424242" d="M171.7,76.9h21.5c-0.1-1.3-0.3-2.8-0.5-4.5l-21.7,1C171.3,74.6,171.5,75.7,171.7,76.9z
					"/>
				<path id="XMLID_2487_" fill="#424242" d="M167.8,66.5c0.6,1.1,1.3,2.2,1.8,3.5l22-2.4c-0.5-1.7-1-3.5-1.8-5.2L167.8,66.5z"/>
				<path id="XMLID_2486_" fill="#424242" d="M183.4,53.5L162.9,60c0.9,1,2,2.2,3.1,3.7l20.8-6.6C185.8,55.7,184.7,54.5,183.4,53.5z
					"/>
			</g>
			<path id="XMLID_2484_" fill="#FFFFFF" d="M155.4,62.7c0-2,1.7-3.6,3.7-3.5l17.2-4.6c1.9-0.4,3.8,0.9,4.2,2.9
				c0.4,1.9-0.9,4.3-2.9,4.2l-18.7,4.8C157,66.3,155.4,64.7,155.4,62.7z"/>
			<path id="XMLID_2483_" fill="#FFFFFF" d="M161.1,59.9l-14.7-13.2l-4.9,5.4l14.6,13.2c1.5,1.4,3.8,1.3,5.1-0.2
				C162.7,63.5,162.6,61.2,161.1,59.9z"/>
			<g id="XMLID_2480_">
				<circle id="XMLID_2482_" fill="#FBC49D" cx="144.1" cy="49.6" r="4.6"/>
				<path id="XMLID_2481_" fill="#FBC49D" d="M142.4,43.8c0.5-0.5,1.3-0.6,1.8-0.1l2.8,2.4c0.5,0.5,0.6,1.3,0.1,1.8
					c-0.5,0.5-1.3,0.6-1.8,0.1l-2.8-2.4C142,45.1,141.9,44.3,142.4,43.8z"/>
			</g>
			<g id="XMLID_2477_">
				<polygon id="XMLID_2479_" fill="#424242" points="171,56 172.8,62.9 176.8,61.8 175,54.9 				"/>
				<polygon id="XMLID_2478_" fill="#424242" points="162.1,58.3 163.9,65.1 167.9,64.1 166.1,57.3 				"/>
			</g>
			<g id="XMLID_2474_">
				<polygon id="XMLID_2476_" fill="#424242" points="150.9,50.7 146.1,56.2 149.6,59.2 154.4,53.8 				"/>
				<polygon id="XMLID_2475_" fill="#424242" points="157.1,56.3 152.3,61.7 155.8,64.8 160.6,59.4 				"/>
			</g>
		</g>
	</g>
</g>
<g id="Layer_14" display="none">
</g>
</svg>
