<?xml version="1.0" encoding="utf-8"?>
<!-- Generator: Adobe Illustrator 19.0.0, SVG Export Plug-In . SVG Version: 6.00 Build 0)  -->
<svg version="1.1" baseProfile="tiny" xmlns="http://www.w3.org/2000/svg" xmlns:xlink="http://www.w3.org/1999/xlink" x="0px"
	 y="0px" viewBox="0 0 230 140" xml:space="preserve">
<g id="Layer_2">
</g>
<g id="Layer_1">
</g>
<g id="Layer_6">
</g>
<g id="Layer_5">
</g>
<g id="Layer_7">
</g>
<g id="Layer_9">
</g>
<g id="Layer_8">
</g>
<g id="Layer_11">
</g>
<g id="Layer_12">
</g>
<g id="Layer_4">
</g>
<g id="Layer_10">
</g>
<g id="Layer_13">
</g>
<g id="Layer_15">
</g>
<g id="Layer_16">
</g>
<g id="Layer_17">
</g>
<g id="Layer_20">
</g>
<g id="Layer_19">
</g>
<g id="Layer_18">
</g>
<g id="Layer_21">
</g>
<g id="Layer_22">
	<g id="XMLID_280_">
		<circle id="XMLID_387_" fill="#ECECEB" cx="114.9" cy="70" r="66.9"/>
		<g id="XMLID_287_">
			<g id="XMLID_288_">
				<polygon id="XMLID_386_" fill="#FFB900" points="96.3,68.4 102.3,59.6 103.1,70.2 112.8,65.6 108.2,75.3 118.8,76.1 110,82.1 
					118.8,88.1 108.2,89 112.8,98.6 103.1,94 102.3,104.6 96.3,95.8 90.2,104.6 89.4,94 79.8,98.6 84.4,89 73.8,88.1 82.6,82.1 
					73.8,76.1 84.4,75.3 79.8,65.6 89.4,70.2 90.2,59.6 				"/>
				<polygon id="XMLID_385_" fill="#FFFFFF" points="96.3,74.7 99.5,70 100,75.7 105.1,73.3 102.7,78.4 108.4,78.9 103.6,82.1 
					108.4,85.4 102.7,85.8 105.1,91 100,88.5 99.5,94.2 96.3,89.5 93,94.2 92.6,88.5 87.4,91 89.9,85.8 84.2,85.4 88.9,82.1 
					84.2,78.9 89.9,78.4 87.4,73.3 92.6,75.7 93,70 				"/>
				<path id="XMLID_384_" fill="#A9ACAD" d="M201.8,114.7H93.5c-1,0-1.9-0.8-1.9-1.9c0-1,0.8-1.9,1.9-1.9h108.3c1,0,1.9,0.8,1.9,1.9
					C203.6,113.8,202.8,114.7,201.8,114.7z"/>
				<path id="XMLID_383_" fill="#A9ACAD" d="M94.2,114.7H25.9c-1,0-1.9-0.8-1.9-1.9c0-1,0.8-1.9,1.9-1.9h68.3c1,0,0.8,0.8,0.8,1.9
					C94.9,113.8,95.2,114.7,94.2,114.7z"/>
				<g id="XMLID_380_">
					<path id="XMLID_381_" fill="#FF5A14" d="M199.9,82.8l-5.6-5.2c-7.7-7.2-17.9-11.3-28.5-11.3h-14.7c-7.2,0-14.2,2.2-20.1,6.2
						l-14.5,9.9l-13.7,2C97,85.2,92.7,90.2,92.7,96c0,5.2,0,10.4,0,10.5h11.5c0-0.3,0-2.9,0-3.2c0-4.2,2.6-7.9,6.2-9.4
						c0,0,0.1,0,0.1-0.1c0,0,0.1,0,0.2-0.1c3.7-1.4,8.1-0.7,11,2.3c2,2,3,4.7,3,7.4c0,0,0,0.6,0,0.6c0,0,0,0.1,0,0.1v2.4h46.6v-2.9
						c0-0.1,0-0.2,0-0.3c0-4.2,2.6-7.9,6.2-9.4c0,0,0.1,0,0.1-0.1c0,0,0.1,0,0.2-0.1c3.7-1.4,8.1-0.7,11,2.3c1.9,1.9,2.9,4.1,3,7.6
						v2.8c0,0,5.5,0.1,8.9,0c1.4,0,2.5-1.1,2.5-2.6V90.2C203.1,87.4,201.9,84.8,199.9,82.8z"/>
				</g>
				<path id="XMLID_379_" fill="#404040" d="M120.6,109.7c-0.5,0.5-1.1,1-1.8,1.4c-0.1,0.1-0.2,0.1-0.4,0.2c0,0-0.1,0-0.1,0
					c-0.1,0-0.2,0.1-0.3,0.1c0,0-0.1,0-0.1,0.1c-0.1,0-0.2,0.1-0.2,0.1c-0.1,0-0.1,0.1-0.2,0.1c-0.1,0-0.1,0-0.2,0.1
					c-0.1,0-0.2,0.1-0.3,0.1c0,0-0.1,0-0.1,0c-0.1,0-0.2,0.1-0.4,0.1c-0.7,0.2-1.5,0.3-2.2,0.3c-4.9,0-8.9-4-8.9-8.9
					c0-3.6,2.2-6.8,5.4-8.1c0,0,0.1,0,0.1,0c0,0,0.1,0,0.1-0.1c3.2-1.3,7-0.6,9.5,2C124.1,100.6,124.1,106.2,120.6,109.7z"/>
				<path id="XMLID_378_" fill="#999999" d="M117.3,106.4c-0.3,0.3-0.5,0.5-0.8,0.6c-0.1,0-0.1,0.1-0.2,0.1c0,0,0,0,0,0
					c0,0-0.1,0-0.1,0.1c0,0,0,0-0.1,0c0,0-0.1,0-0.1,0c0,0-0.1,0-0.1,0c0,0-0.1,0-0.1,0c0,0-0.1,0-0.1,0c0,0,0,0-0.1,0
					c-0.1,0-0.1,0-0.2,0c-0.3,0.1-0.7,0.1-1.1,0.1c-2.3,0-4.2-1.9-4.2-4.2c0-1.7,1-3.2,2.5-3.9c0,0,0,0,0.1,0c0,0,0,0,0.1,0
					c1.5-0.6,3.3-0.3,4.5,0.9C119,102.1,119,104.7,117.3,106.4z"/>
				<path id="XMLID_377_" fill="#404040" d="M187.6,109.7c-0.5,0.5-1.1,1-1.8,1.4c-0.1,0.1-0.2,0.1-0.4,0.2c0,0-0.1,0-0.1,0
					c-0.1,0-0.2,0.1-0.3,0.1c0,0-0.1,0-0.1,0.1c-0.1,0-0.2,0.1-0.2,0.1c-0.1,0-0.1,0.1-0.2,0.1c-0.1,0-0.1,0-0.2,0.1
					c-0.1,0-0.2,0.1-0.3,0.1c0,0-0.1,0-0.1,0c-0.1,0-0.2,0.1-0.4,0.1c-0.7,0.2-1.5,0.3-2.2,0.3c-4.9,0-8.9-4-8.9-8.9
					c0-3.6,2.2-6.8,5.4-8.1c0,0,0.1,0,0.1,0c0,0,0.1,0,0.1-0.1c3.2-1.3,7-0.6,9.5,2C191.1,100.6,191.1,106.2,187.6,109.7z"/>
				<path id="XMLID_376_" fill="#999999" d="M184.3,106.4c-0.3,0.3-0.5,0.5-0.8,0.6c-0.1,0-0.1,0.1-0.2,0.1c0,0,0,0,0,0
					c0,0-0.1,0-0.1,0.1c0,0,0,0-0.1,0c0,0-0.1,0-0.1,0c0,0-0.1,0-0.1,0c0,0-0.1,0-0.1,0c0,0-0.1,0-0.1,0c0,0,0,0-0.1,0
					c-0.1,0-0.1,0-0.2,0c-0.3,0.1-0.7,0.1-1.1,0.1c-2.3,0-4.2-1.9-4.2-4.2c0-1.7,1-3.2,2.5-3.9c0,0,0,0,0.1,0c0,0,0,0,0.1,0
					c1.5-0.6,3.3-0.3,4.5,0.9C186,102.1,186,104.7,184.3,106.4z"/>
				<path id="XMLID_375_" fill="#F53D00" d="M100,98.7c0,5.2,0,7.7,0,7.8h4.2c0-0.3,0-2.9,0-3.2c0-4.2,2.6-7.9,6.2-9.4
					c0,0,0.1,0,0.1-0.1c0,0,0.1,0,0.2-0.1c3.7-1.4,8.1-0.7,11,2.3c2,2,3,4.7,3,7.4c0,0,0,0.6,0,0.6c0,0,0,0.1,0,0.1v2.4h46.6v-2.9
					c0-0.1,0-0.2,0-0.3c0-4.2,2.6-7.9,6.2-9.4c0,0,0.1,0,0.1-0.1c0,0,0.1,0,0.2-0.1c3.7-1.4,8.1-0.7,11,2.3c1.9,1.9,2.9,4.1,3,7.6
					v2.8c0,0,0.1,0.1,3.5,0c1.4,0,2.5-1.1,2.5-2.6v-7.7c0-4.2-3.4-7.7-7.7-7.7h-80.3c-6.1,0-11.2,4-11.2,10.1
					C98.5,98.8,100,98.7,100,98.7z"/>
				<g id="XMLID_373_">
					<path id="XMLID_374_" fill="#FFFEFF" d="M100.9,87.8c-2.3,0-4.5,1.1-5.7,3.1c-1,1.7-1.6,3.7-1.6,5.9c0,0,0.6,0,1.9,0
						c1,0,1.8-0.7,2.1-1.7c0.6-2.2,2.1-4.4,3.9-5.9C102,88.7,101.6,87.8,100.9,87.8z"/>
				</g>
				<rect id="XMLID_372_" x="94.6" y="100.3" fill="#B92400" width="2.9" height="4.6"/>
				<path id="XMLID_371_" fill="#E17937" d="M151.3,104h-23.9v-0.7c0-8.1-4.9-10.4-4.9-10.4l-0.4-0.2v-9.8h1.3v9
					c1.3,0.7,5.1,3.6,5.3,10.7H150v-19h1.3V104z"/>
				<path id="XMLID_370_" fill="#E17937" d="M169.3,104h-19.5v-1.3H168c0.3-10.5,8.8-12.6,11.2-13v-6h1.3v7.2l-0.6,0
					c-0.4,0-10.6,1-10.6,12.5V104z"/>
				<g id="XMLID_368_">
					<path id="XMLID_369_" fill="#87A093" d="M169.8,69.3h-16.9c-7.2,0-14.2,2.2-20.1,6.2l-10.3,7c-0.5,0.4-0.3,1.2,0.4,1.2H188
						c1.1,0,2-0.9,2-2C190,81.7,178.1,69.3,169.8,69.3z"/>
				</g>
				<circle id="XMLID_367_" fill="#B92400" cx="191.9" cy="92.9" r="2.5"/>
				<rect id="XMLID_366_" x="141.9" y="87.8" fill="#B92400" width="6.2" height="1.9"/>
				<rect id="XMLID_365_" x="167.5" y="87.8" fill="#B92400" width="6.2" height="1.9"/>
				<path id="XMLID_364_" fill="#FFFEFF" d="M203.1,99.8h-0.5c-1.4,0-2.4-1.1-2.4-2.4v-4.5c0-1.4,1.1-2.4,2.4-2.4h0.5V99.8z"/>
				<path id="XMLID_363_" fill="#87A093" d="M199.9,82.8l-5.6-5.2c-2.9-2.8-6.3-5.1-9.8-6.8c-0.4,0.2-0.8,0.4-0.7,0.5L196,81.6
					c1,0.9,2.3,1.3,3.6,1.3L199.9,82.8C199.9,82.9,199.9,82.9,199.9,82.8z"/>
				<rect id="XMLID_362_" x="175.8" y="70.1" fill="#FF5A14" width="3.1" height="14.7"/>
				<g id="XMLID_359_">
					<path id="XMLID_361_" fill="#526363" d="M129.9,83.6h1.8l-1.6-3.4c-0.2-0.4-0.7-0.6-1.1-0.4c-0.4,0.2-0.6,0.7-0.4,1.1
						L129.9,83.6z"/>
					<polygon id="XMLID_360_" fill="#526363" points="130.4,83.6 129.3,81.3 124.2,83.6 					"/>
				</g>
				<path id="XMLID_358_" fill="#526363" d="M148,80.7l-0.6,2.9h4v-4.5H150C149,79.1,148.2,79.8,148,80.7z"/>
				<path id="XMLID_357_" fill="#526363" d="M172.6,80.7l-0.6,2.9h4v-4.5h-1.4C173.6,79.1,172.8,79.8,172.6,80.7z"/>
				<rect id="XMLID_356_" x="151.4" y="67.5" fill="#FF5A14" width="3" height="16.1"/>
				<path id="XMLID_355_" fill="#526363" d="M199.6,82.9h0.4c0,0-0.1-0.1-0.1-0.1l-4-3.8H193l3,2.5C197,82.5,198.3,82.9,199.6,82.9z
					"/>
				<path id="XMLID_354_" fill="#526363" d="M187.3,79.1H179v4.5h9.1c1.1,0,2-0.9,2-2C190,81.7,189,80.6,187.3,79.1z"/>
				<g id="XMLID_351_">
					<path id="XMLID_353_" fill="#AFC0B8" d="M138.5,72.3l-4.8,11.3h9.1l5.9-14.1C145.2,69.9,141.7,70.9,138.5,72.3z"/>
					<path id="XMLID_352_" fill="#AFC0B8" d="M169.8,69.3h-6.5l-6,14.3h9.5l5.9-13.9C171.6,69.4,170.7,69.3,169.8,69.3z"/>
				</g>
				<g id="XMLID_293_">
					<g id="XMLID_348_">
						<path id="XMLID_350_" fill="#0A6C98" d="M85.7,67.5L89,67c1.4-0.2,1.6,0.9,1.8,2.3l0.2,1.4c0.2,1.4,0.4,2.5-1,2.7l-6.1,1
							l-1.3-2.3l1-2.5C84.1,68.5,84.6,67.7,85.7,67.5z"/>
						<path id="XMLID_349_" fill="#0A6C98" d="M29.1,76.6l-3.3,0.5c-1.4,0.2-2.3,1.5-2.1,2.9l0.2,1.4c0.2,1.4,1.5,2.3,2.9,2.1l6.1-1
							l0.5-2.6l-1.7-2C30.9,77,30.2,76.4,29.1,76.6z"/>
					</g>
					<g id="XMLID_324_">
						<g id="XMLID_341_">
							<path id="XMLID_347_" fill="#404040" d="M37,94.9l-1.1,0.2c-2.3,0.4-3.9,2.5-3.5,4.9l1.3,8.4c0.4,2.3,2.5,3.9,4.9,3.5
								l1.1-0.2c2.3-0.4,3.9-2.5,3.5-4.9l-1.3-8.4C41.5,96.1,39.3,94.5,37,94.9z"/>
							<path id="XMLID_344_" fill="#404040" d="M85.1,87.2L84,87.4c-2.3,0.4-3.9,2.5-3.5,4.9l1.3,8.4c0.4,2.3,2.5,3.9,4.9,3.5
								l1.1-0.2c2.3-0.4,3.9-2.5,3.5-4.9l-1.3-8.4C89.6,88.4,87.4,86.8,85.1,87.2z"/>
						</g>
						<g id="XMLID_339_">
							<path id="XMLID_340_" fill="#2D90BF" d="M77.4,62.4c-0.4-0.7-1.2-1.2-2.2-1.6c-1.4-0.5-7.6-0.4-18.8,1.4S38.1,66.1,37,67
								c-0.9,0.7-1.4,1.4-1.6,2.2c-0.9,3.2-4.4,19.9-4.2,21l2.1,13c0.2,1,2.5,3.3,3.5,3.2l27.1-4.3l23.8-3.8c1-0.2,2.5-3.1,2.4-4.1
								l-2.1-13C87.8,79.9,79.3,65.2,77.4,62.4z"/>
						</g>
						<g id="XMLID_336_">
							<path id="XMLID_338_" fill="#0A6C98" d="M47.2,89L36,87.3c-0.8-0.1-1.4-0.5-1.8-1.1c-0.3-0.5-0.4-1-0.2-1.5l1.1-5l0.9,0.2
								L35,85c-0.1,0.3-0.1,0.5,0.1,0.7c0.2,0.3,0.6,0.6,1.1,0.6L47.4,88L47.2,89z"/>
							<path id="XMLID_337_" fill="#0A6C98" d="M72.4,84.9l-0.4-0.9l10.1-5c0.5-0.2,0.8-0.6,0.9-1c0.1-0.3,0-0.5-0.2-0.7l0,0
								l-2.6-4.4l0.8-0.5l2.6,4.4c0.3,0.4,0.4,1,0.3,1.5c-0.2,0.7-0.7,1.2-1.4,1.6L72.4,84.9z"/>
						</g>
						<path id="XMLID_335_" fill="#87A093" d="M73.9,62.4L38.7,68c-1.3,0.2-2.3,1.2-2.5,2.4c-0.6,2.8-1.6,7.7-2.1,9.3
							c-0.3,1.1,3.2,0.7,4.4,0.6L78,74c1.2-0.2,4.6-0.9,4-1.9c-1-1.5-3.5-5.7-4.9-8.2C76.4,62.8,75.2,62.2,73.9,62.4z"/>
						
							<rect id="XMLID_334_" x="45.7" y="85.6" transform="matrix(0.9874 -0.1581 0.1581 0.9874 -13.1825 10.5964)" fill="#004969" width="28.6" height="5.2"/>
						<path id="XMLID_333_" fill="#A5B8AF" d="M72.8,70.5c-0.9-1.6-2-4.3-2.6-5.2c0-0.1-0.1-0.1-0.1-0.2c-0.4-0.5-1.1-0.7-1.7-0.6
							l-23.8,3.8c-0.6,0.1-1.2,0.5-1.4,1.1c0,0.1,0,0.1-0.1,0.2c-0.2,1-0.4,3.8-0.8,5.7L72.8,70.5z"/>
						<g id="XMLID_330_">
							<path id="XMLID_332_" fill="#FFFEFF" d="M33.5,90l0.4,2.7c0.1,0.9,1,1.6,2,1.4l7.5-0.7c0.5-0.1,0.9-0.6,0.8-1.1L44,91.2
								c-0.1-0.8-0.7-1.4-1.5-1.6l-7.2-1.4C34.2,88.1,33.3,89,33.5,90z"/>
							<path id="XMLID_331_" fill="#FFFEFF" d="M85.8,81.6l0.4,2.7c0.1,0.9-0.5,1.8-1.4,2l-7.3,1.7c-0.5,0.1-1-0.3-1.1-0.8l-0.2-1.1
								c-0.1-0.8,0.2-1.6,0.9-2l6.5-3.5C84.5,80.1,85.6,80.6,85.8,81.6z"/>
						</g>
						<path id="XMLID_329_" fill="#526363" d="M80.7,70.1l-46,7.4c-0.2,0.8-0.4,1.6-0.6,2.3c-0.3,1.1,3.2,0.7,4.4,0.6L78,74
							c1.2-0.2,4.6-0.9,4-1.9C81.6,71.5,81.1,70.8,80.7,70.1z"/>
						<g id="XMLID_326_">
							<path id="XMLID_328_" fill="#526363" d="M51.3,75.7l-11.4,1.8l-0.1-0.4c-0.3-1.7,0.9-3.3,2.6-3.5l5.3-0.8
								c1.7-0.3,3.3,0.9,3.5,2.6L51.3,75.7z"/>
							<path id="XMLID_327_" fill="#526363" d="M75.7,71.7l-11.4,1.8l-0.1-0.4c-0.3-1.7,0.9-3.3,2.6-3.5l5.3-0.8
								c1.7-0.3,3.3,0.9,3.5,2.6L75.7,71.7z"/>
						</g>
						<polygon id="XMLID_325_" fill="#BECCC6" points="60,76.8 63.2,64.1 48.9,66.4 45.8,79.1 						"/>
					</g>
					<path id="XMLID_323_" fill="#0A6C98" d="M75.8,90.6l-30.1,4.8l-13.4,2.1l0.8,4.7c0.2,1,2.5,3.1,3.5,3l50.9-8.2
						c1-0.2,2.6-2.9,2.4-3.9l-0.8-4.7L75.8,90.6z"/>
					
						<rect id="XMLID_322_" x="47" y="95" transform="matrix(0.9874 -0.1581 0.1581 0.9874 -14.4687 10.9086)" fill="#004969" width="28.6" height="2.7"/>
					<g id="XMLID_313_">
						
							<rect id="XMLID_320_" x="35.2" y="98.6" transform="matrix(0.9874 -0.1581 0.1581 0.9874 -15.3233 7.3886)" fill="#004969" width="7.2" height="2.7"/>
						
							<rect id="XMLID_314_" x="80.3" y="91.4" transform="matrix(0.9874 -0.1581 0.1581 0.9874 -13.6138 14.4285)" fill="#004969" width="7.2" height="2.7"/>
					</g>
					
						<rect id="XMLID_300_" x="45.6" y="87.2" transform="matrix(0.9874 -0.1581 0.1581 0.9874 -13.1333 10.5844)" fill="#0A6C98" width="28.6" height="1.2"/>
					
						<rect id="XMLID_295_" x="46.1" y="89.9" transform="matrix(0.9874 -0.1581 0.1581 0.9874 -13.556 10.6871)" fill="#0A6C98" width="28.6" height="1.2"/>
				</g>
			</g>
		</g>
		<g id="XMLID_281_">
			<path id="XMLID_286_" fill="#2A8ECC" d="M127.8,23.2c0,0-1.8-4.4-13.5-4.4c-11.7,0-13.5,4.4-13.5,4.4s-0.2,6.4,0.9,11.6
				c1.1,5.2,8.3,12.8,12.6,12.8c4.3,0,11.5-7.6,12.6-12.8C128,29.6,127.8,23.2,127.8,23.2z"/>
			<g id="XMLID_283_">
				<path id="XMLID_285_" fill="#0071BC" d="M114.3,18.8c-11.7,0-13.5,4.4-13.5,4.4s-0.2,6.4,0.9,11.6c1.1,5.2,8.3,12.8,12.6,12.8
					C114.3,47.6,114.3,18.8,114.3,18.8z"/>
			</g>
			<path id="XMLID_282_" fill="#FFFFFF" d="M126.6,18.1l-12.2,14.8l-4.5-4.6h-4.5l8.1,8.3c0.6,0.6,1.6,0.6,2.2-0.1L129,20.2
				L126.6,18.1z"/>
		</g>
	</g>
</g>
<g id="Layer_14" display="none">
	<circle id="XMLID_1964_" display="inline" fill="none" stroke="#424242" stroke-miterlimit="10" cx="175" cy="5" r="100"/>
</g>
</svg>
