<?xml version="1.0" encoding="utf-8"?>
<!-- Generator: Adobe Illustrator 19.0.0, SVG Export Plug-In . SVG Version: 6.00 Build 0)  -->
<svg version="1.0" xmlns="http://www.w3.org/2000/svg" xmlns:xlink="http://www.w3.org/1999/xlink" x="0px" y="0px"
	 viewBox="0 0 230 140" enable-background="new 0 0 230 140" xml:space="preserve">
<g id="Layer_2">
</g>
<g id="Layer_1">
</g>
<g id="Layer_6">
</g>
<g id="Layer_5">
</g>
<g id="Layer_7">
</g>
<g id="Layer_9">
</g>
<g id="Layer_8">
</g>
<g id="Layer_11">
</g>
<g id="Layer_12">
</g>
<g id="Layer_4">
</g>
<g id="Layer_10">
</g>
<g id="Layer_13">
</g>
<g id="Layer_15">
</g>
<g id="Layer_16">
</g>
<g id="Layer_17">
</g>
<g id="Layer_20">
</g>
<g id="Layer_19">
</g>
<g id="Layer_18">
</g>
<g id="Layer_21">
</g>
<g id="Layer_22">
	<g id="XMLID_136_">
		<circle id="XMLID_2985_" fill="#ECECEB" cx="115.2" cy="70.7" r="66.9"/>
		<g id="XMLID_2010_">
			<path id="XMLID_2212_" fill="#A9ACAD" d="M194,131.6H39.6c-1.4,0-2.6-1.2-2.6-2.6c0-1.4,1.2-2.6,2.6-2.6H194
				c1.4,0,2.6,1.2,2.6,2.6C196.6,130.4,195.4,131.6,194,131.6z"/>
			<g id="XMLID_2030_">
				<g id="XMLID_2205_">
					<polygon id="XMLID_2211_" fill="#F5F1E6" points="157.6,12.6 139.1,12.6 139.1,29.8 157.6,44 					"/>
					<polygon id="XMLID_2210_" fill="#E8E0DD" points="157.6,15 141.5,31.4 139.5,29.8 139.5,15 					"/>
					<polygon id="XMLID_2209_" fill="#FFFFFF" points="157.1,12.6 157.1,43.6 157.6,44 157.6,12.6 					"/>
					<rect id="XMLID_2208_" x="139.1" y="13.3" fill="#E8E0D2" width="18.5" height="3.3"/>
					<rect id="XMLID_2207_" x="137.5" y="7.4" fill="#FFFFFF" width="21.7" height="7.6"/>
					<rect id="XMLID_2206_" x="137.5" y="8.1" fill="#F4EFE2" width="20.9" height="7"/>
				</g>
				<g id="XMLID_2202_">
					<polygon id="XMLID_2204_" fill="#FFFFFF" points="116.4,17.8 69.2,59.5 69.2,114.7 116.4,114.7 163.7,114.7 163.7,59.5 					
						"/>
					<rect id="XMLID_2203_" x="69.2" y="114.7" fill="#A28D80" width="94.5" height="13.6"/>
				</g>
				<polygon id="XMLID_2201_" fill="#DF0000" points="116.4,11.3 116.4,22.6 169.1,64 175.1,58 				"/>
				<polygon id="XMLID_2200_" fill="#BF0000" points="57.8,58 63.8,64 116.4,22.6 116.4,11.3 				"/>
				<rect id="XMLID_2199_" x="79.1" y="59.7" fill="#CD9655" width="40.7" height="55"/>
				<rect id="XMLID_2198_" x="82.1" y="62.4" fill="#D7A462" width="34.6" height="52.3"/>
				<g id="XMLID_2191_">
					<g id="XMLID_2192_">
						<rect id="XMLID_2197_" x="129.9" y="59.6" fill="#CD9655" width="24.4" height="32.4"/>
						<rect id="XMLID_2196_" x="132.4" y="62" fill="#FFFEFC" width="8.6" height="12.7"/>
						<rect id="XMLID_2195_" x="143.2" y="62" fill="#FFFEFC" width="8.6" height="12.7"/>
						<rect id="XMLID_2194_" x="132.4" y="77" fill="#FFFEFC" width="8.6" height="12.7"/>
						<rect id="XMLID_2193_" x="143.2" y="77" fill="#FFFEFC" width="8.6" height="12.7"/>
					</g>
				</g>
				<polygon id="XMLID_2190_" fill="#C4B0A2" points="82.1,62.4 82.1,114.7 83.1,114.7 83.1,63.3 115.7,63.3 115.7,114.7 
					116.7,114.7 116.7,62.4 				"/>
				<g id="XMLID_2158_">
					<rect id="XMLID_2189_" x="88.5" y="70.3" fill="#E3BE90" width="9.5" height="37.3"/>
					<rect id="XMLID_2161_" x="89.1" y="71" fill="#D7A462" width="8.2" height="35.9"/>
					<polygon id="XMLID_2160_" fill="#B99E7E" points="98,107.6 97.3,106.9 89.1,106.9 88.4,107.6 					"/>
					<polygon id="XMLID_2159_" fill="#B99E7E" points="88.4,107.6 89.1,106.9 89.1,71 88.4,70.3 					"/>
				</g>
				<g id="XMLID_2153_">
					<rect id="XMLID_2157_" x="100.4" y="70.3" fill="#E3BE90" width="9.5" height="37.3"/>
					<rect id="XMLID_2156_" x="101" y="71" fill="#D7A462" width="8.2" height="35.9"/>
					<polygon id="XMLID_2155_" fill="#B99E7E" points="109.9,107.6 109.2,106.9 101,106.9 100.3,107.6 					"/>
					<polygon id="XMLID_2154_" fill="#B99E7E" points="100.3,107.6 101,106.9 101,71 100.3,70.3 					"/>
				</g>
				<path id="XMLID_2150_" fill="#F0F0F0" d="M112.9,97L112.9,97c-0.8,0-1.4-0.6-1.4-1.4v-7.2c0-0.8,0.6-1.4,1.4-1.4l0,0
					c0.8,0,1.4,0.6,1.4,1.4v7.2C114.3,96.4,113.7,97,112.9,97z"/>
				<path id="XMLID_2149_" fill="#A8A8A8" d="M112.9,94.5c-0.2,0-0.3-0.1-0.3-0.3v-0.8c0-0.2,0.1-0.3,0.3-0.3c0.2,0,0.3,0.1,0.3,0.3
					v0.8C113.2,94.4,113,94.5,112.9,94.5z"/>
				<path id="XMLID_2036_" fill="#F0F0F0" d="M108.5,91.3h4.4c0.4,0,0.7-0.3,0.7-0.7c0-0.4-0.3-0.7-0.7-0.7h-4.4
					c-0.4,0-0.7,0.3-0.7,0.7C107.8,91,108.1,91.3,108.5,91.3z"/>
				<polygon id="XMLID_2035_" fill="#F8F5ED" points="121.5,117.4 77.1,117.4 78.6,114.7 120.1,114.7 				"/>
				<rect id="XMLID_2034_" x="77.1" y="117.4" fill="#BFB09D" width="44.4" height="3.6"/>
				<path id="XMLID_2033_" fill="#CACACA" d="M112.9,90h-1.5c0.4,0,0.7,0.3,0.7,0.7c0,0.4-0.3,0.7-0.7,0.7h1.5
					c0.4,0,0.7-0.3,0.7-0.7C113.5,90.3,113.2,90,112.9,90z"/>
				<polygon id="XMLID_2032_" fill="#F8F5ED" points="123.3,123.7 75.4,123.7 76.8,121 121.8,121 				"/>
				<rect id="XMLID_2031_" x="75.4" y="123.7" fill="#BFB09D" width="47.9" height="4.5"/>
			</g>
			<g id="XMLID_2020_">
				<g id="XMLID_2027_">
					<ellipse id="XMLID_2029_" fill="#98C82F" cx="182.1" cy="111.3" rx="12.3" ry="13.9"/>
					<path id="XMLID_2028_" fill="#8BBC2F" d="M177.7,98.3c-4.6,2-7.8,7.1-7.8,13c0,5.9,3.3,11,7.8,13c4.6-2,7.8-7.1,7.8-13
						C185.5,105.4,182.3,100.3,177.7,98.3z"/>
				</g>
				<rect id="XMLID_2026_" x="179.9" y="124.1" fill="#C88B43" width="4.4" height="4.2"/>
			</g>
			<g id="XMLID_2014_">
				<g id="XMLID_2017_">
					<ellipse id="XMLID_2019_" fill="#98C82F" cx="53.2" cy="111.3" rx="12.3" ry="13.9"/>
					<path id="XMLID_2018_" fill="#8BBC2F" d="M48.8,98.3c-4.6,2-7.8,7.1-7.8,13c0,5.9,3.3,11,7.8,13c4.6-2,7.8-7.1,7.8-13
						C56.6,105.4,53.4,100.3,48.8,98.3z"/>
				</g>
				<rect id="XMLID_2016_" x="51" y="124.1" fill="#C88B43" width="4.4" height="4.2"/>
			</g>
			<g id="XMLID_2011_">
				<ellipse id="XMLID_2013_" fill="#98C82F" cx="160.2" cy="120.3" rx="8.7" ry="8.3"/>
				<path id="XMLID_2012_" fill="#8BBC2F" d="M157,112.6c-3.3,1.2-5.6,4.2-5.6,7.7c0,3.5,2.3,6.5,5.6,7.7c3.3-1.2,5.6-4.2,5.6-7.7
					C162.6,116.8,160.3,113.8,157,112.6z"/>
			</g>
		</g>
		<g id="XMLID_2980_">
			<path id="XMLID_2984_" fill="#2A8ECC" d="M128.1,15.2c0,0-1.8-4.4-13.5-4.4c-11.7,0-13.5,4.4-13.5,4.4s-0.2,6.4,0.9,11.6
				c1.1,5.2,8.3,12.8,12.6,12.8c4.3,0,11.5-7.6,12.6-12.8C128.3,21.6,128.1,15.2,128.1,15.2z"/>
			<g id="XMLID_2982_">
				<path id="XMLID_2983_" fill="#0071BC" d="M114.6,10.8c-11.7,0-13.5,4.4-13.5,4.4s-0.2,6.4,0.9,11.6c1.1,5.2,8.3,12.8,12.6,12.8
					C114.6,39.6,114.6,10.8,114.6,10.8z"/>
			</g>
			<path id="XMLID_2981_" fill="#FFFFFF" d="M126.9,10.1l-12.2,14.8l-4.5-4.6h-4.5l8.1,8.3c0.6,0.6,1.6,0.6,2.2-0.1l13.4-16.2
				L126.9,10.1z"/>
		</g>
	</g>
</g>
<g id="Layer_14" display="none">
	<circle id="XMLID_2644_" display="inline" fill="none" stroke="#424242" stroke-miterlimit="10" cx="171" cy="6" r="100"/>
</g>
</svg>
