<?xml version="1.0" encoding="utf-8"?>
<!-- Generator: Adobe Illustrator 19.0.0, SVG Export Plug-In . SVG Version: 6.00 Build 0)  -->
<svg version="1.0" xmlns="http://www.w3.org/2000/svg" xmlns:xlink="http://www.w3.org/1999/xlink" x="0px" y="0px"
	 viewBox="0 0 230 140" enable-background="new 0 0 230 140" xml:space="preserve">
<g id="Layer_2">
</g>
<g id="Layer_1">
</g>
<g id="Layer_6">
</g>
<g id="Layer_5">
</g>
<g id="Layer_7">
</g>
<g id="Layer_9">
</g>
<g id="Layer_8">
</g>
<g id="Layer_11">
</g>
<g id="Layer_12">
</g>
<g id="Layer_4">
</g>
<g id="Layer_10">
</g>
<g id="Layer_13">
</g>
<g id="Layer_15">
</g>
<g id="Layer_16">
</g>
<g id="Layer_17">
</g>
<g id="Layer_20">
</g>
<g id="Layer_19">
</g>
<g id="Layer_18">
</g>
<g id="Layer_21">
</g>
<g id="Layer_22">
	<g id="XMLID_1614_">
		<circle id="XMLID_2438_" fill="#ECECEB" cx="115.4" cy="70" r="66.7"/>
		<g id="XMLID_1664_">
			<defs>
				<circle id="XMLID_1665_" cx="115.4" cy="70" r="66.7"/>
			</defs>
			<clipPath id="XMLID_2_">
				<use xlink:href="#XMLID_1665_"  overflow="visible"/>
			</clipPath>
			<g id="XMLID_1666_" clip-path="url(#XMLID_2_)">
				<g id="XMLID_2422_">
					<g id="XMLID_2423_">
						<polygon id="XMLID_2437_" fill="#CE885B" points="97.9,56.8 108.6,54.5 108.6,45.2 98.3,45.2 						"/>
						<path id="XMLID_2436_" fill="#FBC49D" d="M97.6,50.1c0.8,0,1.5-0.7,1.5-1.5V38c0-0.8-0.7-1.5-1.5-1.5s-1.5,0.7-1.5,1.5v10.6
							C96.1,49.4,96.8,50.1,97.6,50.1z"/>
						<path id="XMLID_2435_" fill="#FBC49D" d="M100.8,50.1c0.8,0,1.5-0.7,1.5-1.5v-3.2c0-0.8-0.7-1.5-1.5-1.5
							c-0.8,0-1.5,0.7-1.5,1.5v3.2C99.3,49.4,100,50.1,100.8,50.1z"/>
						<path id="XMLID_2434_" fill="#FBC49D" d="M104,50.1c0.8,0,1.5-0.7,1.5-1.5v-3.2c0-0.8-0.7-1.5-1.5-1.5c-0.8,0-1.5,0.7-1.5,1.5
							v3.2C102.5,49.4,103.1,50.1,104,50.1z"/>
						<path id="XMLID_2433_" fill="#FBC49D" d="M107.1,50.1c0.8,0,1.5-0.7,1.5-1.5v-3.2c0-0.8-0.7-1.5-1.5-1.5
							c-0.8,0-1.5,0.7-1.5,1.5v3.2C105.6,49.4,106.3,50.1,107.1,50.1z"/>
						<path id="XMLID_2432_" fill="#FBC49D" d="M95,51.2h3.3c4.7,1.2,5.4,2.2,5.4,5h2v8.1h-8v-6.7c0,0-2.7,0-2.7-3.9V51.2z"/>
						<path id="XMLID_2431_" fill="#FBC49D" d="M108.6,51.2c0,0-5.9-2.2-5.9,5h-4.6v8.1h8v-6.7c0,0,2.5,0.2,2.5-3.5V51.2z"/>
						<path id="XMLID_2430_" opacity="0.5" fill="#DCC5A8" d="M97.7,57.6c0,0,3.1,0.8,5.2-0.4c0,0,1.6,0.9,3.2,0.4v5.7
							c-2.3-0.3-6-0.9-8.4-1.2V57.6z"/>
						<rect id="XMLID_2429_" x="95" y="48.2" fill="#FBC49D" width="3.3" height="5.5"/>
						<g id="XMLID_2426_" opacity="0.5">
							<path id="XMLID_2428_" fill="#DCC5A8" d="M99.1,46.5v2.1c0,0.5-0.2,0.9-0.6,1.2h-1.8c-0.4-0.3-0.6-0.7-0.6-1.2v-2.1H99.1z"/>
							<path id="XMLID_2427_" fill="#DCC5A8" d="M102.3,46.8v0.8v1c0,0.8-0.7,1.5-1.5,1.5c-0.3,0-0.6-0.1-0.9-0.3
								c-0.2-0.1-0.3-0.3-0.4-0.5c0-0.1,0-0.1-0.1-0.1c0,0,0,0,0,0c0,0,0-0.1,0-0.1c0,0,0,0,0-0.1c0,0,0-0.1,0-0.1c0,0,0,0,0,0
								c0-0.1,0-0.1,0-0.2v-1.8v-0.3h3V46.8z"/>
						</g>
						<path id="XMLID_2425_" fill="#FBC49D" d="M95,50.3v-1.1c0-1.2,1-2.2,2.2-2.2h4.4v0.8c0,1.4-1.1,2.6-2.6,2.6H95z"/>
						<rect id="XMLID_2424_" x="97.7" y="59.1" fill="#FFFFFF" width="8.4" height="2"/>
					</g>
				</g>
				<path id="XMLID_2421_" fill="#4E4E4E" d="M99.5,90.6L73.3,78.3l3.5-11l19.8,10.1V61.1h10.5v24.1
					C107.1,89.2,103.2,91.9,99.5,90.6z"/>
				<g id="XMLID_2417_">
					<path id="XMLID_2420_" fill="#A9ACAD" d="M103.1,190.7H48.1c-1.7,0-3.1-1.4-3.1-3.1c0-1.7,1.4-3.1,3.1-3.1h55.1
						c1.7,0,3.1,1.4,3.1,3.1C106.2,189.4,104.8,190.7,103.1,190.7z"/>
					<path id="XMLID_2419_" fill="#A9ACAD" d="M176.3,202.6H39.9c-1.7,0-3.1-1.4-3.1-3.1c0-1.7,1.4-3.1,13-3.1h136.3
						c-8.2,0-6.9,1.4-6.9,3.1C179.3,201.2,177.9,202.6,176.3,202.6z"/>
					<path id="XMLID_2418_" fill="#A9ACAD" d="M96.6,193.5c0-1.7,1.4-3.1,3.1-3.1H51.1c1.7,0,3.1,1.4,3.1,3.1c0,1.7-1.4,3.1-3.1,3.1
						h48.6C98,196.6,96.6,195.2,96.6,193.5z"/>
				</g>
				<g id="XMLID_2407_">
					<g id="XMLID_2411_">
						<g id="XMLID_2415_">
							<path id="XMLID_2416_" fill="#6D3B19" d="M89.8,192h-8.3l-4.4-1.3v1.3h-6.5v-9.3h8.5l2.4,3.4l7.7,1.7c2,0.6,1.9,0.8,1.9,2.9
								C91.2,191.3,90.6,192,89.8,192z"/>
						</g>
					</g>
					<g id="XMLID_2409_">
						<rect id="XMLID_2410_" x="69.8" y="123.1" fill="#424242" width="12.2" height="61.1"/>
					</g>
				</g>
				<g id="XMLID_1874_">
					<polygon id="XMLID_2404_" fill="#CA2E00" points="69.9,80.4 65.5,112.1 71.7,118.1 77.8,112.1 73.4,80.4 					"/>
					<polygon id="XMLID_1875_" fill="#B91F00" points="76.4,72.7 66.9,72.7 69.9,80.4 73.4,80.4 					"/>
				</g>
				<path id="XMLID_1873_" fill="#FFFFFF" d="M76.1,78.6l3.1-9.3l-3-4.3c-0.3-0.4-0.7-0.6-1.2-0.6H61.9c-0.5,0-0.9,0.2-1.2,0.6
					l-3,4.3l9.4,9.3l4.4-5.8h0.1L76.1,78.6z"/>
				<g id="XMLID_1851_">
					<path id="XMLID_1867_" fill="#ADADAD" d="M75.4,65.2H61.7c-0.3,0-0.4,0.3-0.2,0.5l10.1,7l3.9-7C75.7,65.5,75.6,65.2,75.4,65.2z
						"/>
				</g>
				<polygon id="XMLID_1849_" fill="#E6A47B" points="75,66.7 71.6,72.8 62,66 62,59.6 75,59.6 				"/>
				<path id="XMLID_1847_" fill="#5C5C5C" d="M72.7,135h-7.9c-7.4,0-13.4-6-13.4-13.4v-8.7h34.7v8.7C86.1,129,80.1,135,72.7,135z"/>
				<g id="XMLID_1843_">
					<g id="XMLID_1844_">
						<path id="XMLID_1845_" fill="#424242" d="M51.4,123.6v-10.6h24.2v10.6c0,6.3-5.1,11.4-11.4,11.4h-1.3
							C56.5,135,51.4,129.9,51.4,123.6z"/>
					</g>
				</g>
				<g id="XMLID_1830_">
					<g id="XMLID_1841_">
						<path id="XMLID_1842_" fill="#E6A47B" d="M85.4,38.4c2.8,0.1,5.1,2.4,5.1,5.3s-2.3,5.2-5.1,5.3V38.4z"/>
					</g>
					<path id="XMLID_1840_" fill="#FBC49D" d="M86.5,25.3l-1.4,27.3c0,5.1-2.3,8.1-4.8,9.8c-1.1,0.7-2.3,1.1-3.5,1.1h-8.3
						c-1.2,0-2.4-0.3-3.4-1c-2.4-1.7-8.4-4.7-8.4-9.9l-1.4-27.3H86.5z"/>
					<g id="XMLID_1833_">
						<g id="XMLID_1837_">
							<circle id="XMLID_1839_" fill="#5C2F15" cx="81.1" cy="39.5" r="1.6"/>
							<circle id="XMLID_1838_" fill="#FAA67A" cx="81.1" cy="47" r="2.2"/>
						</g>
						<g id="XMLID_1834_">
							<circle id="XMLID_1836_" fill="#5C2F15" cx="66.4" cy="39.5" r="1.6"/>
							<circle id="XMLID_1835_" fill="#FAA67A" cx="66.4" cy="47" r="2.2"/>
						</g>
					</g>
					<path id="XMLID_1832_" fill="#FFD3AF" d="M74.3,52.4c1.3,0,2.3-1.1,2.3-2.3v-8.3c0-1.3-1.1-2.3-2.3-2.3c-1.3,0-2.3,1.1-2.3,2.3
						V50C72,51.3,73.1,52.4,74.3,52.4z"/>
					<path id="XMLID_1831_" fill="#BE7F3C" d="M87.3,26.7c0-0.1,0-0.2-0.1-0.3c0,0,0-0.1,0-0.2c-0.6-2.4-2.8-9.6-15.3-9.6l-2.7,10.6
						c1.6,0.1,2.7,0,2.7,0c3.4-0.1,6.8-0.5,10.1-1.4c1.9,0,3.5,3.4,3.5,5.3v13.8c0.5,0,0.9,0,1.1,0l0.7-18
						C87.3,26.8,87.3,26.8,87.3,26.7z"/>
				</g>
				<path id="XMLID_1829_" fill="#FAA67A" d="M79,55.5h-9.4c0,1.5,1.2,2.7,2.7,2.7h4C77.8,58.2,79,57,79,55.5z"/>
				<path id="XMLID_1828_" fill="#975837" d="M71.8,14v2.5h-1.9h-0.3c-0.1,0-0.2,0-0.3,0c-0.4,0-0.7,0-1.1,0c-0.4,0-0.7,0-1,0.1
					c-0.1,0-0.1,0-0.2,0c-0.2,0-0.5,0.1-0.7,0.1c-0.2,0-0.3,0-0.5,0.1c-0.1,0-0.2,0-0.3,0c-9,1.4-11.6,7.2-12.1,9.3
					c0,0.1,0,0.1,0,0.2c0,0.1,0,0.2,0,0.3c0,0.1,0,0.2,0,0.2l1.3,25.8c0.1,0,1.8,0,1.8,0v-7.8c0,0,2.7,0,2.9,0V31.1
					c0-1.4,1.4-3.6,2.9-4.7c2,0.4,4.1,0.7,6.3,0.7c0.2,0,0.4,0,0.6,0.1c0.2,0,0.5,0,0.7,0c6,0,9.5-3.1,9.5-6.6
					C79.4,17.1,76,14.2,71.8,14z"/>
				<path id="XMLID_1827_" fill="#E6A47B" d="M58,38.4c-2.8,0.1-5.1,2.4-5.1,5.3s2.3,5.2,5.1,5.3V38.4z"/>
				<g id="XMLID_1825_">
					<path id="XMLID_1826_" fill="#4E4E4E" d="M59.7,66.5c-5.5,0-10.1,3.9-10.1,12.7V111l-2.3,15h22.4c4.5,0,8.1-3.6,8.1-8.1v-16.3
						L59.7,66.5z"/>
				</g>
				<polygon id="XMLID_1824_" fill="#666666" points="77.8,101.5 59.7,66.5 56.4,69.9 59.2,72.3 56.8,75.6 				"/>
				<g id="XMLID_1822_">
					<path id="XMLID_1823_" fill="#666666" d="M77.4,66.5c5.1,1.4,10,4.6,10,12.7V126h-7.6c-4.5,0-8.1-3.6-8.1-8.1l-0.1-16.3
						L77.4,66.5z"/>
				</g>
				<g id="XMLID_1820_">
					<polygon id="XMLID_1821_" fill="#4E4E4E" points="71.6,101.5 77.4,66.5 81.3,71.4 79.4,73.8 82.9,77.1 					"/>
				</g>
				<g id="XMLID_1814_">
					<g id="XMLID_1817_">
						<g id="XMLID_1818_">
							<path id="XMLID_1819_" fill="#6D3B19" d="M75.7,198.6h-8.3l-4.4-1.3v1.3h-6.5v-9.3h8.5l2.4,3.4l7.7,1.7
								c2,0.6,1.9,0.8,1.9,2.9C77.1,198,76.5,198.6,75.7,198.6z"/>
						</g>
					</g>
					<g id="XMLID_1815_">
						<rect id="XMLID_1816_" x="55.7" y="129.7" fill="#424242" width="12.2" height="61.1"/>
					</g>
				</g>
				<g id="XMLID_1789_">
					<path id="XMLID_1812_" fill="#FFFFFF" d="M119.3,79.2H95.5c-0.9,0-1.7,0.8-1.7,1.7V111h23.8l0-30.1
						C117.6,80,118.4,79.2,119.3,79.2z"/>
					<path id="XMLID_1811_" fill="#BBBBBB" d="M119.3,79.2H95.5c0.9,0,1.7,0.8,1.7,1.7v3.8H121v-3.8C121,80,120.3,79.2,119.3,79.2z"
						/>
					<g id="XMLID_1808_">
						<path id="XMLID_1810_" fill="#FFFFFF" d="M113.9,114.4H92l1.8-3.1V93.5h23.8l0,17.2C117.6,112.7,116,114.4,113.9,114.4z"/>
						<path id="XMLID_1809_" fill="#A6A6A6" d="M93.8,108.9v3.8c0,0.9-0.8,1.7-1.7,1.7c-0.9,0-1.7-0.8-1.7-1.7v-3.8H93.8z"/>
					</g>
					<g id="XMLID_1790_">
						<g id="XMLID_1795_">
							<g id="XMLID_3177_">
								<g id="XMLID_3184_">
									<polygon id="XMLID_3185_" fill="#B91F00" points="108.3,90 105.7,96.9 104.6,99.8 106.9,98.4 107.7,101 108.8,98.1 
										111.4,91.2 									"/>
								</g>
								<g id="XMLID_3178_">
									<polygon id="XMLID_3183_" fill="#B91F00" points="112.3,90 114.9,96.9 116,99.8 113.7,98.4 112.9,101 111.8,98.1 
										109.2,91.2 									"/>
								</g>
							</g>
						</g>
						<circle id="XMLID_1794_" fill="#EF3C39" cx="110.3" cy="91" r="5"/>
						<circle id="XMLID_1791_" fill="#B91F00" cx="110.3" cy="91" r="2.8"/>
					</g>
				</g>
				<g id="XMLID_1787_">
					<circle id="XMLID_1788_" fill="#A3A3A3" cx="74.8" cy="113.4" r="1.4"/>
				</g>
				<path id="XMLID_1786_" fill="#FBC49D" d="M86.6,97.9v7.8h8.6c1.6,0,2.3-1.7,2.3-3.9c0-2.2-0.7-3.9-2.3-3.9H86.6z"/>
				<rect id="XMLID_1785_" x="85.2" y="97.5" fill="#FFFFFF" width="3.7" height="8.7"/>
				<path id="XMLID_1784_" fill="#424242" d="M86.1,96.5H66.4l-5.9-21.9c-1-2.8-4-4.3-6.9-3.4c-2.8,1-3.7,5.6-2.4,9.9l6.2,22.5
					c0.7,2.2,2.8,3.7,5.1,3.7h23.5V96.5z"/>
				<polygon id="XMLID_1783_" fill="#666666" points="69.8,91.6 72.7,91.5 59.7,66.5 56.6,69.9 59.5,72.3 57,75.6 				"/>
				<g id="XMLID_1778_">
					<path id="XMLID_1782_" fill="#FBC49D" d="M101.7,96.7h-8.5v2.5h8.5c0.7,0,1.2-0.6,1.2-1.2C103,97.3,102.4,96.7,101.7,96.7z"/>
					<path id="XMLID_1781_" fill="#FBC49D" d="M103.2,99.4h-6.6v2.5h6.6c0.7,0,1.2-0.6,1.2-1.2C104.4,99.9,103.9,99.4,103.2,99.4z"
						/>
					<path id="XMLID_1780_" fill="#FBC49D" d="M102.2,102.1h-5.6v2.5h5.6c0.7,0,1.2-0.6,1.2-1.2
						C103.5,102.6,102.9,102.1,102.2,102.1z"/>
					<path id="XMLID_1779_" fill="#FBC49D" d="M100.7,104.7H89l1.2,1.5c0.5,0.6,1.3,1,2.2,1h8.4c0.7,0,1.2-0.6,1.2-1.2
						C101.9,105.3,101.4,104.7,100.7,104.7z"/>
				</g>
				<path id="XMLID_1777_" fill="#FBC49D" d="M93.8,93.5c-0.7-0.4-1.6-0.1-2,0.6l-2.2,4.3h4.2V93.5z"/>
				<g id="XMLID_1667_">
					<g id="XMLID_1669_">
						<g id="XMLID_1770_">
							<path id="XMLID_1774_" fill="#EEEEEE" d="M165.6,65.9c-0.7,0-1.4-0.4-1.7-1c-0.4-0.6-0.4-1.3-0.1-2l2-4.1
								c0.6-1.2,1.8-1.9,3.1-1.9c1.3,0,2.5,0.8,3.1,2c0.9,1.9,0,4.2-1.9,5.1l-3.7,1.7C166.2,65.8,165.9,65.9,165.6,65.9z
								 M168.9,58.8c-0.6,0-1.1,0.3-1.4,0.9l-2,4.1c0,0,0,0.1,0,0.2c0,0.1,0.1,0.1,0.2,0.1l3.7-1.7c1-0.5,1.4-1.6,1-2.6
								C170.1,59.2,169.5,58.8,168.9,58.8z"/>
							<path id="XMLID_1771_" fill="#FFFFFF" d="M171.3,69.1c-0.3,0-0.6,0-0.9-0.1l-4.4-1.1c-0.8-0.2-1.5-0.9-1.5-1.8
								c-0.1-0.9,0.4-1.7,1.2-2l3.7-1.7c0.5-0.2,1-0.4,1.6-0.4c1.5,0,2.9,0.9,3.5,2.2c0.5,1.1,0.4,2.3-0.2,3.3
								C173.6,68.5,172.5,69.1,171.3,69.1z M171,63.8c-0.3,0-0.6,0.1-0.8,0.2l-3.7,1.7c0,0-0.1,0.1-0.1,0.2c0,0.1,0.1,0.2,0.1,0.2
								l4.4,1.1c0.7,0.2,1.3-0.1,1.7-0.7c0.3-0.5,0.3-1,0.1-1.5C172.4,64.3,171.7,63.8,171,63.8z"/>
						</g>
						<g id="XMLID_1767_">
							<path id="XMLID_1769_" fill="#E6A47B" d="M124.3,105.3l1.1,0.7h3l11.5-19.1l-7-4.2l-10,16.7
								C121.6,101.5,122.3,104.1,124.3,105.3z"/>
							<path id="XMLID_1768_" fill="#009195" d="M147.4,78.1l-8.1,13.6l-10.5-6.3l8.1-13.6c2.5-3.9,12.9-6.1,15.8-4.3l-7.4,2.2
								C148.2,71.4,149.1,75.2,147.4,78.1z"/>
						</g>
						<g id="XMLID_1752_">
							<g id="XMLID_1763_">
								<g id="XMLID_1765_">
									<path id="XMLID_1766_" fill="#E6A47B" d="M162.3,196.8v-7.2h-8.2v1.3c0,1.1-0.9,2-2,2h-5.6c-2,0-3.5,0.6-3.5,2.5v1.5
										c0,0.4,0.3,0.6,0.6,0.6h18C162,197.4,162.3,197.1,162.3,196.8z"/>
								</g>
							</g>
							<g id="XMLID_1755_">
								<g id="XMLID_1756_">
									<path id="XMLID_1762_" fill="#FFFFFF" d="M149,197.2v-5h-5c-2,0-3.5,1.6-3.5,3.5v3.3c0,0.4,0.3,0.6,0.6,0.6h21.4
										c0.4,0,0.6-0.3,0.6-0.6v-1.8H149z"/>
								</g>
							</g>
						</g>
						<path id="XMLID_1751_" fill="#009195" d="M153,136.1h7.9c7.4,0,13.4-6,13.4-13.4v-8.7h-34.7v8.7
							C139.7,130.1,145.6,136.1,153,136.1z"/>
						<g id="XMLID_1746_">
							<g id="XMLID_1747_">
								<g id="XMLID_1748_">
									<g id="XMLID_1749_">
										<rect id="XMLID_1750_" x="151" y="130.8" fill="#009195" width="12.2" height="60.1"/>
									</g>
								</g>
							</g>
						</g>
						<g id="XMLID_1743_">
							<g id="XMLID_1744_">
								<path id="XMLID_1745_" fill="#69CECD" d="M174.3,124.7v-10.6h-24.2v10.6c0,6.3,5.1,11.4,11.4,11.4h1.3
									C169.2,136.1,174.3,131,174.3,124.7z"/>
							</g>
						</g>
						<rect id="XMLID_1742_" x="139.7" y="114.1" fill="#009195" width="34.7" height="9.6"/>
						<path id="XMLID_1741_" fill="#2EBBBA" d="M176,122.2V81c0-5.9-4.9-13.8-10.8-13.8h-16.1c-5.9,0-10.8,7.8-10.8,13.8v41.2H176z"
							/>
						<path id="XMLID_1740_" fill="#69CECD" d="M165.2,67.2h-6.6c-5.9,0-7.4,3.9-7.4,9.9V84l-5.5,6.6v31.5H176V75.3
							C176,69.4,171.2,67.2,165.2,67.2z"/>
						<path id="XMLID_1739_" fill="#666666" d="M154.9,46"/>
						
							<rect id="XMLID_1738_" x="137.4" y="155.7" transform="matrix(0.3979 0.9174 -0.9174 0.3979 231.6071 -33.3693)" fill="#ECB088" width="7.6" height="8.1"/>
						<path id="XMLID_1737_" fill="#FFFFFF" d="M134.5,162.8l4.6,9.6l-9.9,4.4c-3.8,1.7-5.5,6.2-3.8,10c1.7,3.8,6.2,5.5,10,3.8
							l18-8.1c3.2-1.4,4.6-5.2,3.2-8.3l-8.3-17.7L134.5,162.8z"/>
						<g id="XMLID_1735_">
							<path id="XMLID_1736_" fill="#FBC49D" d="M148.6,98.8l-22.3,0c-2.3,0-4.1,1.8-4.1,4.1c0,2.3,1.8,4.1,4.1,4.1l22.4,0
								L148.6,98.8z"/>
						</g>
						<g id="XMLID_1733_">
							<polygon id="XMLID_1734_" fill="#E6A47B" points="130.5,106.9 147.9,106.9 147.9,98.8 130.5,98.8 							"/>
						</g>
						<path id="XMLID_1732_" fill="#FFFFFF" d="M155.6,97.8c-1.3-1.1-2.9-1.8-4.8-1.8H145c-1.3,0-2.6,0.4-3.8,1l-1.3,0.8h-8.4v10.7
							h8.4c1.2,1.2,2.7,1.8,4.3,1.8h6.6c1.8,0,3.5-0.7,4.8-1.8V97.8z"/>
						<rect id="XMLID_1731_" x="150.1" y="99" fill="#EEEEEE" width="1.4" height="10.5"/>
						<path id="XMLID_1730_" fill="#EEEEEE" d="M151.6,108.7h-6.6c-1.6,0-3.2-0.6-4.3-1.8h-6v-9.2h-1.4v9.2h-1.9v1.6h8.4
							c1.2,1.2,2.7,1.8,4.3,1.8h6.6c1.8,0,3.5-0.7,4.8-1.8v-1C154.5,108.3,153.1,108.7,151.6,108.7z"/>
						<g id="XMLID_1728_">
							<path id="XMLID_1729_" fill="#D3D3D3" d="M149.9,96l-7.2,13.3c-0.2,0.4-0.5,0.8-0.9,1.1h3.3l7.6-14.1c-0.6-0.2-1.3-0.3-2-0.3
								H149.9z"/>
						</g>
						<g id="XMLID_1724_">
							<g id="XMLID_1725_">
								<g id="XMLID_1726_">
									<polygon id="XMLID_1727_" fill="#E6A47B" points="163.6,67.3 166,67.3 151.1,84.4 148.3,67.3 150.7,67.3 150.7,60.7 
										163.6,60.7 									"/>
								</g>
							</g>
						</g>
						<path id="XMLID_1723_" fill="#FFFFFF" d="M165.6,65.6c-0.5-0.8-1.2-1.5-1.9-2.1v4.2c0.8,1.6,0.8,3.5,0,5.1l-19.3,35.5
							c-0.6,1.1-1.7,1.9-2.9,1.9c-0.8,0-1.4-0.1-2.1-0.8c-0.2-0.2-0.4-0.5-0.5-0.8h-3c0.1,0.6,0.4,1.3,0.9,1.9
							c1.1,1.5,2.8,2.3,4.7,2.3c2.2,0,4.3-1.3,5.3-3.3L166.1,74l0-0.1C167.4,71.2,167.2,68.1,165.6,65.6z"/>
						<path id="XMLID_1722_" fill="#FBC49D" d="M148.3,97.9l1.1-2c0.4-0.7,0.1-1.6-0.6-2c-0.7-0.4-1.6-0.1-2,0.6l-2,3.5H148.3z"/>
						<path id="XMLID_1721_" fill="#FBC49D" d="M157.4,97.9h-2.5v2.5h2.5c0.7,0,1.2-0.6,1.2-1.2C158.7,98.5,158.1,97.9,157.4,97.9z"
							/>
						<path id="XMLID_1720_" fill="#FBC49D" d="M158.9,100.6h-3.9v2.5h3.9c0.7,0,1.2-0.6,1.2-1.2
							C160.1,101.1,159.5,100.6,158.9,100.6z"/>
						<path id="XMLID_1719_" fill="#FBC49D" d="M157.9,103.3h-3v2.5h3c0.7,0,1.2-0.6,1.2-1.2C159.1,103.8,158.6,103.3,157.9,103.3z"
							/>
						<path id="XMLID_1718_" fill="#FBC49D" d="M156.4,105.9h-1.4v2.5h1.4c0.7,0,1.2-0.6,1.2-1.2C157.6,106.5,157,105.9,156.4,105.9
							z"/>
						<path id="XMLID_1717_" fill="#EBEBEB" d="M139.9,97.8l0.6-0.3l7.1-26.3c0.5-1.6,1.6-2.9,3.1-3.7v-2.9c-2.7,0.9-4.9,3-5.7,5.9
							l-7.4,27.4H139.9z"/>
						<g id="XMLID_1703_">
							<g id="XMLID_1715_">
								<path id="XMLID_1716_" fill="#E6A47B" d="M140.4,39.5c-2.8,0.1-5.1,2.4-5.1,5.3s2.3,5.2,5.1,5.3V39.5z"/>
							</g>
							<path id="XMLID_1714_" fill="#FBC49D" d="M139.2,26.4l1.4,27.3c0,5.1,2.3,8.1,4.8,9.8c1.1,0.7,2.3,1.1,3.5,1.1h8.3
								c1.2,0,2.4-0.3,3.4-1c2.4-1.7,8.4-4.7,8.4-9.9l1.4-27.3H139.2z"/>
							<g id="XMLID_1707_">
								<g id="XMLID_1711_">
									<circle id="XMLID_1713_" fill="#5C2F15" cx="144.6" cy="40.6" r="1.6"/>
									<circle id="XMLID_1712_" fill="#FAA67A" cx="144.6" cy="48.1" r="2.2"/>
								</g>
								<g id="XMLID_1708_">
									<circle id="XMLID_1710_" fill="#5C2F15" cx="159.3" cy="40.6" r="1.6"/>
									<circle id="XMLID_1709_" fill="#FAA67A" cx="159.3" cy="48.1" r="2.2"/>
								</g>
							</g>
							<path id="XMLID_1706_" fill="#FFD3AF" d="M151.6,53.5c-1.3,0-2.3-1.1-2.3-2.3v-8.3c0-1.3,1.1-2.3,2.3-2.3
								c1.3,0,2.3,1.1,2.3,2.3v8.3C153.9,52.4,152.9,53.5,151.6,53.5z"/>
							<path id="XMLID_1705_" fill="#7A9398" d="M155.9,17.7c12.5,0,15.9,7.2,16.5,9.6c0,0.1,0,0.1,0,0.2c0,0.1,0,0.2,0,0.3
								c0,0.1,0,0.2,0,0.2L171,53.7c-0.1,0-1.8,0-1.8,0V46c0,0-2.7,0-2.9,0V32.2c0-1.9-2.6-5.3-4.5-5.3c-3.9,1-3.8,1.5-7.9,1.4V21
								c0,0,0,0,0,0h1.9V17.7z"/>
							<path id="XMLID_1704_" fill="#4A6C73" d="M156.2,17.7h-2.3c-12.5,0-14.7,7.2-15.3,9.6c0,0.1,0,0.1,0,0.2c0,0.1,0,0.2-0.1,0.3
								c0,0.1,0,0.2,0,0.2l0.7,18c0.3,0,0.6,0,1.1,0V32.2c0-1.9,1.6-5.3,3.5-5.3c3.3,0.9,6.7,1.3,10.1,1.4c0,0,1.1,0.1,2.7,0
								C164.6,27.9,164.2,17.7,156.2,17.7z"/>
						</g>
						<path id="XMLID_1702_" fill="#E2E2E2" d="M134.9,191l18.6-8.4c1.9-0.8,1.4-3.7-1.1-2.6c-4.6,1.9-15.7,7.1-19.3,9
							C130.7,190.2,132.3,192,134.9,191z"/>
						<path id="XMLID_1701_" fill="#975837" d="M191.5,88.5h-33.9V86c0-2.2,1.8-4,4-4h25.9c2.2,0,4,1.8,4,4V88.5z"/>
						<rect id="XMLID_1700_" x="158.4" y="87" fill="#724723" width="32.1" height="1.5"/>
						<rect id="XMLID_1699_" x="171.9" y="142.6" fill="#D4BA9A" width="5.1" height="57"/>
						<rect id="XMLID_1698_" x="171.5" y="193.2" fill="#515A64" width="6" height="6.5"/>
						<polygon id="XMLID_1697_" fill="#B68A53" points="181.2,111.8 164.6,111.8 163.8,108.1 182,108.1 						"/>
						<g id="XMLID_1695_">
							<polygon id="XMLID_1696_" fill="#CBAC85" points="160,87.8 169.2,142.7 169.2,156.1 171.9,156.1 171.9,142.5 162.7,87.8 
															"/>
						</g>
						<g id="XMLID_1692_">
							<path id="XMLID_1694_" fill="#E6A47B" d="M178.6,86l10.2,9.8l2.7-2.8c1.6-1.7,1.6-4.4-0.1-6.1l-7.1-6.8L178.6,86z"/>
							<path id="XMLID_1693_" fill="#2EBBBA" d="M169,79.5l11.5,11l8.5-8.8l-11.5-11c-2.4-2.3-6.3-2.3-8.7,0.2
								C166.5,73.3,166.6,77.2,169,79.5z"/>
						</g>
						<g id="XMLID_1687_">
							<path id="XMLID_1691_" fill="#FBC49D" d="M184.9,88.8l-10.6,16.6l6.9,4.3l10.5-16.5c1.2-1.9,0.6-4.5-1.3-5.7
								C188.6,86.4,186.1,86.9,184.9,88.8z"/>
							<g id="XMLID_1688_">
								<circle id="XMLID_1690_" fill="#FBC49D" cx="176.1" cy="110.8" r="7.1"/>
								<path id="XMLID_1689_" fill="#FBC49D" d="M167.6,114.6c-0.9-0.6-1.1-1.8-0.6-2.7l3.1-4.8c0.6-0.9,1.8-1.1,2.7-0.6
									c0.9,0.6,1.1,1.8,0.6,2.7l-3.1,4.8C169.7,115,168.5,115.2,167.6,114.6z"/>
							</g>
						</g>
						<rect id="XMLID_1686_" x="137.2" y="97.8" fill="#EEEEEE" width="1.4" height="10.5"/>
						<path id="XMLID_1685_" fill="#EEEEEE" d="M139.4,107.9l1.3,0.4l3.4-12.2c-0.5,0.1-1,0.2-1.5,0.4L139.4,107.9z"/>
						<polygon id="XMLID_1684_" fill="#E2E2E2" points="140.5,175.2 139.2,172.4 152.9,166.2 152.2,164.7 138.4,170.9 139.1,172.4 
							137.6,173.1 143.9,185.8 145.4,185.1 141.3,176.7 146.6,175.4 150.8,183.8 152.3,183.1 148.3,175 156.1,173.1 155.4,171.6 
													"/>
						<polygon id="XMLID_1683_" fill="#E2E2E2" points="149.8,159.6 136,165.8 136.7,167.4 150.5,161.1 						"/>
						<polygon id="XMLID_1682_" fill="#E2E2E2" points="138.4,187.9 139.8,187.3 133.7,174.8 132.2,175.5 						"/>
						<path id="XMLID_1681_" fill="#E2E2E2" d="M127.6,177.9l6.3,12.6l1.5-0.6L129,177C128.5,177.2,128,177.5,127.6,177.9z"/>
						<path id="XMLID_1680_" fill="#E2E2E2" d="M172.8,26.7c-0.4-1.1-1-2.4-2.1-3.7h-31c-1,1.2-1.6,2.5-2,3.5v10.8h35.1V26.7z"/>
						<path id="XMLID_1679_" fill="#FFFFFF" d="M172.8,25.6c-0.4-1.1-1-2.4-2.1-3.7h-31c-1,1.2-1.6,2.5-2,3.5v10.8h35.1V25.6z"/>
						<path id="XMLID_1678_" fill="#E6A47B" d="M167.7,39.5c2.8,0.1,5.1,2.4,5.1,5.3s-2.3,5.2-5.1,5.3V39.5z"/>
						<polygon id="XMLID_1677_" fill="#E2E2E2" points="145.7,36.2 151,36.2 172.6,29.4 172.6,27.8 						"/>
						<polygon id="XMLID_1676_" fill="#E2E2E2" points="156.9,25.2 137.8,31.2 137.8,32.8 162.2,25.2 						"/>
						<path id="XMLID_1675_" fill="#E2E2E2" d="M137.8,25.4V26h35.1v-0.5c-0.1-0.3-0.3-0.7-0.5-1.1h-34.2
							C138,24.8,137.9,25.1,137.8,25.4z"/>
						<path id="XMLID_1674_" fill="#E2E2E2" d="M160.8,32.3c-0.5,0.5-1.2,0.9-1.9,1.1l10.1,2.8h3.8v-0.6L160.8,32.3z"/>
						<path id="XMLID_1673_" fill="#EEEEEE" d="M139.9,23.3c-0.4,0.7-0.8,1.5-1,2.1v10.8h3.4V25.4c0.2-0.6,0.6-1.4,1-2.1H139.9z"/>
						<g id="XMLID_1670_">
							<path id="XMLID_1672_" fill="#FEF7F1" d="M180.9,98.1c0,0.9,0.7,1.7,1.7,1.7h5l0.3-0.4h-3.8v-2.5h4.5v1.4l1.1-1.8h-7.2
								C181.7,96.4,180.9,97.2,180.9,98.1z"/>
							<polygon id="XMLID_1671_" fill="#EFCFBC" points="188.6,96.9 184.1,96.9 184.1,99.3 187.9,99.3 188.6,98.2 							"/>
						</g>
					</g>
					<path id="XMLID_1668_" fill="#F0966D" d="M152.2,59.8h-1.3c-2.1,0-3.7-1.7-3.7-3.7c0-0.2,0.2-0.5,0.5-0.5s0.5,0.2,0.5,0.5
						c0,1.6,1.3,2.8,2.8,2.8h1.3c1.6,0,2.8-1.3,2.8-2.8c0-0.2,0.2-0.5,0.5-0.5s0.5,0.2,0.5,0.5C155.9,58.1,154.2,59.8,152.2,59.8z"
						/>
				</g>
			</g>
		</g>
		<polygon id="XMLID_1663_" fill="#E6A47B" points="75,66.7 71.6,72.8 62,66 62,59.6 75,59.6 		"/>
		<g id="XMLID_1650_">
			<g id="XMLID_1661_">
				<path id="XMLID_1662_" fill="#E6A47B" d="M85.4,38.4c2.8,0.1,5.1,2.4,5.1,5.3s-2.3,5.2-5.1,5.3V38.4z"/>
			</g>
			<path id="XMLID_1660_" fill="#FBC49D" d="M86.5,25.3l-1.4,27.3c0,5.1-2.3,8.1-4.8,9.8c-1.1,0.7-2.3,1.1-3.5,1.1h-8.3
				c-1.2,0-2.4-0.3-3.4-1c-2.4-1.7-8.4-4.7-8.4-9.9l-1.4-27.3H86.5z"/>
			<g id="XMLID_1653_">
				<g id="XMLID_1657_">
					<circle id="XMLID_1659_" fill="#5C2F15" cx="81.1" cy="39.5" r="1.6"/>
					<circle id="XMLID_1658_" fill="#FAA67A" cx="81.1" cy="47" r="2.2"/>
				</g>
				<g id="XMLID_1654_">
					<circle id="XMLID_1656_" fill="#5C2F15" cx="66.4" cy="39.5" r="1.6"/>
					<circle id="XMLID_1655_" fill="#FAA67A" cx="66.4" cy="47" r="2.2"/>
				</g>
			</g>
			<path id="XMLID_1652_" fill="#FFD3AF" d="M74.3,52.4c1.3,0,2.3-1.1,2.3-2.3v-8.3c0-1.3-1.1-2.3-2.3-2.3c-1.3,0-2.3,1.1-2.3,2.3
				V50C72,51.3,73.1,52.4,74.3,52.4z"/>
			<path id="XMLID_1651_" fill="#BE7F3C" d="M87.3,26.7c0-0.1,0-0.2-0.1-0.3c0,0,0-0.1,0-0.2c-0.6-2.4-2.8-9.6-15.3-9.6l-2.7,10.6
				c1.6,0.1,2.7,0,2.7,0c3.4-0.1,6.8-0.5,10.1-1.4c1.9,0,3.5,3.4,3.5,5.3v13.8c0.5,0,0.9,0,1.1,0l0.7-18
				C87.3,26.8,87.3,26.8,87.3,26.7z"/>
		</g>
		<path id="XMLID_1649_" fill="#FAA67A" d="M79,55.5h-9.4c0,1.5,1.2,2.7,2.7,2.7h4C77.8,58.2,79,57,79,55.5z"/>
		<path id="XMLID_1648_" fill="#975837" d="M71.8,14v2.5h-1.9h-0.3c-0.1,0-0.2,0-0.3,0c-0.4,0-0.7,0-1.1,0c-0.4,0-0.7,0-1,0.1
			c-0.1,0-0.1,0-0.2,0c-0.2,0-0.5,0.1-0.7,0.1c-0.2,0-0.3,0-0.5,0.1c-0.1,0-0.2,0-0.3,0c-9,1.4-11.6,7.2-12.1,9.3c0,0.1,0,0.1,0,0.2
			c0,0.1,0,0.2,0,0.3c0,0.1,0,0.2,0,0.2l1.3,25.8c0.1,0,1.8,0,1.8,0v-7.8c0,0,2.7,0,2.9,0V31.1c0-1.4,1.4-3.6,2.9-4.7
			c2,0.4,4.1,0.7,6.3,0.7c0.2,0,0.4,0,0.6,0.1c0.2,0,0.5,0,0.7,0c6,0,9.5-3.1,9.5-6.6C79.4,17.1,76,14.2,71.8,14z"/>
		<path id="XMLID_1647_" fill="#E6A47B" d="M58,38.4c-2.8,0.1-5.1,2.4-5.1,5.3s2.3,5.2,5.1,5.3V38.4z"/>
		<path id="XMLID_1646_" fill="#975837" d="M191.5,88.5h-33.9V86c0-2.2,1.8-4,4-4h25.9c2.2,0,4,1.8,4,4V88.5z"/>
		<g id="XMLID_1643_">
			<path id="XMLID_1645_" fill="#E6A47B" d="M178.6,86l10.2,9.8l2.7-2.8c1.6-1.7,1.6-4.4-0.1-6.1l-7.1-6.8L178.6,86z"/>
			<path id="XMLID_1644_" fill="#2EBBBA" d="M169,79.5l11.5,11l8.5-8.8l-11.5-11c-2.4-2.3-6.3-2.3-8.7,0.2
				C166.5,73.3,166.6,77.2,169,79.5z"/>
		</g>
		<g id="XMLID_1638_">
			<path id="XMLID_1642_" fill="#FBC49D" d="M184.9,88.8l-10.6,16.6l6.9,4.3l10.5-16.5c1.2-1.9,0.6-4.5-1.3-5.7
				C188.6,86.4,186.1,86.9,184.9,88.8z"/>
			<g id="XMLID_1639_">
				<circle id="XMLID_1641_" fill="#FBC49D" cx="176.1" cy="110.8" r="7.1"/>
				<path id="XMLID_1640_" fill="#FBC49D" d="M167.6,114.6c-0.9-0.6-1.1-1.8-0.6-2.7l3.1-4.8c0.6-0.9,1.8-1.1,2.7-0.6
					c0.9,0.6,1.1,1.8,0.6,2.7l-3.1,4.8C169.7,115,168.5,115.2,167.6,114.6z"/>
			</g>
		</g>
		<g id="XMLID_1635_">
			<path id="XMLID_1637_" fill="#FEF7F1" d="M180.9,98.1c0,0.9,0.7,1.7,1.7,1.7h5l0.3-0.4h-3.8v-2.5h4.5v1.4l1.1-1.8h-7.2
				C181.7,96.4,180.9,97.2,180.9,98.1z"/>
			<polygon id="XMLID_1636_" fill="#EFCFBC" points="188.6,96.9 184.1,96.9 184.1,99.3 187.9,99.3 188.6,98.2 			"/>
		</g>
		<g id="XMLID_1622_">
			<g id="XMLID_1633_">
				<path id="XMLID_1634_" fill="#E6A47B" d="M140.4,39.5c-2.8,0.1-5.1,2.4-5.1,5.3s2.3,5.2,5.1,5.3V39.5z"/>
			</g>
			<g id="XMLID_1626_">
				<g id="XMLID_1630_">
					<circle id="XMLID_1632_" fill="#5C2F15" cx="144.6" cy="40.6" r="1.6"/>
					<circle id="XMLID_1631_" fill="#FAA67A" cx="144.6" cy="48.1" r="2.2"/>
				</g>
				<g id="XMLID_1627_">
					<circle id="XMLID_1629_" fill="#5C2F15" cx="159.3" cy="40.6" r="1.6"/>
					<circle id="XMLID_1628_" fill="#FAA67A" cx="159.3" cy="48.1" r="2.2"/>
				</g>
			</g>
			<path id="XMLID_1625_" fill="#FFD3AF" d="M151.6,53.5c-1.3,0-2.3-1.1-2.3-2.3v-8.3c0-1.3,1.1-2.3,2.3-2.3c1.3,0,2.3,1.1,2.3,2.3
				v8.3C153.9,52.4,152.9,53.5,151.6,53.5z"/>
			<path id="XMLID_1624_" fill="#7A9398" d="M166.4,32.2v2.1h5.6l0.3-6.3c0,0,0-0.1,0-0.2c0-0.1,0-0.2,0-0.3c0,0,0-0.1,0-0.2
				c-0.6-2.4-4-9.6-16.5-9.6V21H154c0,0,0,0,0,0v7.3c4,0.1,3.9-0.4,7.9-1.4C163.8,26.9,166.4,30.2,166.4,32.2z"/>
			<path id="XMLID_1623_" fill="#4A6C73" d="M156.2,17.7h-2.3c-12.5,0-14.7,7.2-15.3,9.6c0,0.1,0,0.1,0,0.2c0,0.1,0,0.2-0.1,0.3
				c0,0.1,0,0.2,0,0.2l0.7,18c0.3,0,0.6,0,1.1,0V32.2c0-1.9,1.6-5.3,3.5-5.3c3.3,0.9,6.7,1.3,10.1,1.4c0,0,1.1,0.1,2.7,0
				C164.6,27.9,164.2,17.7,156.2,17.7z"/>
		</g>
		<path id="XMLID_1621_" fill="#E2E2E2" d="M172.8,26.7c-0.4-1.1-1-2.4-2.1-3.7h-31c-1,1.2-1.6,2.5-2,3.5v10.8h35.1V26.7z"/>
		<path id="XMLID_1620_" fill="#FFFFFF" d="M172.8,25.6c-0.4-1.1-1-2.4-2.1-3.7h-31c-1,1.2-1.6,2.5-2,3.5v10.8h35.1V25.6z"/>
		<polygon id="XMLID_1619_" fill="#E2E2E2" points="145.7,36.2 151,36.2 172.6,29.4 172.6,27.8 		"/>
		<polygon id="XMLID_1618_" fill="#E2E2E2" points="156.9,25.2 137.8,31.2 137.8,32.8 162.2,25.2 		"/>
		<path id="XMLID_1617_" fill="#E2E2E2" d="M137.8,25.4V26h35.1v-0.5c-0.1-0.3-0.3-0.7-0.5-1.1h-34.2
			C138,24.8,137.9,25.1,137.8,25.4z"/>
		<path id="XMLID_1616_" fill="#E2E2E2" d="M160.8,32.3c-0.5,0.5-1.2,0.9-1.9,1.1l10.1,2.8h3.8v-0.6L160.8,32.3z"/>
		<path id="XMLID_1615_" fill="#EEEEEE" d="M139.9,23.3c-0.4,0.7-0.8,1.5-1,2.1v10.8h3.4V25.4c0.2-0.6,0.6-1.4,1-2.1H139.9z"/>
	</g>
	<g id="XMLID_1609_">
		<path id="XMLID_1613_" fill="#2A8ECC" d="M130.2,16.5c0,0-1.8-4.4-13.5-4.4c-11.7,0-13.5,4.4-13.5,4.4s-0.2,6.4,0.9,11.5
			c1.1,5.2,8.3,12.7,12.6,12.7c4.3,0,11.5-7.6,12.6-12.7C130.5,22.8,130.2,16.5,130.2,16.5z"/>
		<g id="XMLID_1611_">
			<path id="XMLID_1612_" fill="#0071BC" d="M116.7,12.1c-11.7,0-13.5,4.4-13.5,4.4s-0.2,6.4,0.9,11.5c1.1,5.2,8.3,12.7,12.6,12.7
				C116.8,40.8,116.8,12.1,116.7,12.1z"/>
		</g>
		<path id="XMLID_1610_" fill="#FFFFFF" d="M129.1,11.3l-12.1,14.7l-4.5-4.6h-4.5l8,8.2c0.6,0.6,1.6,0.6,2.2-0.1l13.3-16.2
			L129.1,11.3z"/>
	</g>
</g>
<g id="Layer_14" display="none">
	<circle id="XMLID_1965_" display="inline" fill="none" stroke="#424242" stroke-miterlimit="10" cx="175" cy="95" r="100"/>
</g>
</svg>
