<?xml version="1.0" encoding="utf-8"?>
<!-- Generator: Adobe Illustrator 19.0.0, SVG Export Plug-In . SVG Version: 6.00 Build 0)  -->
<svg version="1.0" xmlns="http://www.w3.org/2000/svg" xmlns:xlink="http://www.w3.org/1999/xlink" x="0px" y="0px"
	 viewBox="0 0 230 140" enable-background="new 0 0 230 140" xml:space="preserve">
<g id="Layer_2">
</g>
<g id="Layer_1">
</g>
<g id="Layer_6">
</g>
<g id="Layer_5">
</g>
<g id="Layer_7">
</g>
<g id="Layer_9">
</g>
<g id="Layer_8">
</g>
<g id="Layer_11">
</g>
<g id="Layer_12">
</g>
<g id="Layer_4">
</g>
<g id="Layer_10">
</g>
<g id="Layer_13">
</g>
<g id="Layer_15">
</g>
<g id="Layer_16">
</g>
<g id="Layer_17">
</g>
<g id="Layer_20">
</g>
<g id="Layer_19">
</g>
<g id="Layer_18">
</g>
<g id="Layer_21">
</g>
<g id="Layer_22">
	<g id="XMLID_135_">
		<circle id="XMLID_1084_" fill="#ECECEB" cx="113.5" cy="70.7" r="66.9"/>
		<g id="XMLID_1079_">
			<path id="XMLID_1083_" fill="#2A8ECC" d="M126.5,15.2c0,0-1.8-4.4-13.5-4.4c-11.7,0-13.5,4.4-13.5,4.4s-0.2,6.4,0.9,11.6
				c1.1,5.2,8.3,12.8,12.6,12.8c4.3,0,11.5-7.6,12.6-12.8C126.7,21.6,126.5,15.2,126.5,15.2z"/>
			<g id="XMLID_1081_">
				<path id="XMLID_1082_" fill="#0071BC" d="M112.9,10.8c-11.7,0-13.5,4.4-13.5,4.4s-0.2,6.4,0.9,11.6c1.1,5.2,8.3,12.8,12.6,12.8
					C112.9,39.6,112.9,10.8,112.9,10.8z"/>
			</g>
			<path id="XMLID_1080_" fill="#FFFFFF" d="M125.3,10.1l-12.2,14.8l-4.5-4.6h-4.5l8.1,8.3c0.6,0.6,1.6,0.6,2.2-0.1l13.4-16.2
				L125.3,10.1z"/>
		</g>
		<g id="XMLID_1086_">
			<g id="XMLID_2661_">
				<path id="XMLID_2664_" fill="#D4D5D6" d="M27.2,62.3h64.5c2.7,0,5-2.2,5-5s-2.2-5-5-5H27.2c-2.7,0-5,2.2-5,5
					S24.5,62.3,27.2,62.3z"/>
				<path id="XMLID_2663_" fill="#D4D5D6" d="M7.7,81.6h88.8c2.7,0,5-2.2,5-5s-1.9-5-5-5H7.7c-3.3,0-5,2.2-5,5S5,81.6,7.7,81.6z"/>
				<path id="XMLID_2662_" fill="#D4D5D6" d="M37.8,66.8c0-2.7-2.2-5-5-5h53.9c-2.7,0-5,2.2-5,5c0,2.7,2.2,5,5,5H32.8
					C35.5,71.8,37.8,69.6,37.8,66.8z"/>
			</g>
			<g id="XMLID_1087_">
				<polygon id="XMLID_2660_" fill="#FFB900" points="199.4,67 207.4,55.3 208.5,69.4 221.3,63.3 215.2,76.1 229.4,77.2 217.6,85.2 
					229.4,93.2 215.2,94.3 221.3,107.1 208.5,101 207.4,115.1 199.4,103.4 191.4,115.1 190.3,101 177.5,107.1 183.6,94.3 
					169.5,93.2 181.2,85.2 169.5,77.2 183.6,76.1 177.5,63.3 190.3,69.4 191.4,55.3 				"/>
				<polygon id="XMLID_2659_" fill="#FFFFFF" points="199.4,75.4 203.7,69.1 204.3,76.7 211.2,73.4 207.9,80.3 215.5,80.9 
					209.2,85.2 215.5,89.5 207.9,90.1 211.2,97 204.3,93.7 203.7,101.3 199.4,95 195.1,101.3 194.5,93.7 187.7,97 190.9,90.1 
					183.3,89.5 189.6,85.2 183.3,80.9 190.9,80.3 187.7,73.4 194.5,76.7 195.1,69.1 				"/>
				<path id="XMLID_2658_" fill="#71AA00" d="M217.9,43c-1.4-2.3-3.2-4.3-5.3-5.7c3.4-6.1,3.6-13.8-0.2-20.2
					c-5.7-9.6-18-12.7-27.6-7c-1.3,0.8-2.5,1.7-3.5,2.7c-0.3-0.6-0.6-1.2-0.9-1.8c-4.9-8.2-15.4-10.9-23.6-6s-10.9,15.4-6,23.6
					c0.4,0.6,0.7,1.2,1.1,1.7c-1.4,0.5-2.7,1.1-4,1.8c-9.6,5.7-12.7,18-7,27.6c3.8,6.4,10.7,10,17.6,9.8c0.3,2.5,1.1,5,2.5,7.4
					c5.3,9,16.9,11.9,25.9,6.6c4.9-2.9,8-7.6,8.9-12.8c5,1.6,10.6,1.2,15.5-1.7C220.3,63.6,223.3,52,217.9,43z"/>
				<path id="XMLID_2657_" fill="#98C82F" d="M212.7,37.3c3.4-6.1,3.6-13.8-0.2-20.2c-5.7-9.6-18-12.7-27.6-7
					c-1.3,0.8-2.5,1.7-3.5,2.7c-0.3-0.6-0.6-1.2-0.9-1.8c-4.9-8.2-15.4-10.9-23.6-6s-10.9,15.4-6,23.6c0.4,0.6,0.7,1.2,1.1,1.7
					c-1.4,0.5-13.5,7-6.7,20.6c3.7,7.5,13.8,7.9,20,5.7c0.6,2,1.5,4,2.9,5.8c5.4,7.4,15.5,9.9,23.7,5.9c5.6-2.8,9.2-7.9,10.2-13.5
					c3.1,2,7.8,2.6,11.7,0C218.3,51.6,219.4,42.1,212.7,37.3z"/>
				<path id="XMLID_2656_" fill="#A9ACAD" d="M34.9,121.9h142.8c1.3,0,2.5-1.1,2.5-2.5c0-1.3-1.1-2.5-2.5-2.5H34.9
					c-1.3,0-2.5,1.1-2.5,2.5C32.4,120.8,33.5,121.9,34.9,121.9z"/>
				<g id="XMLID_1096_">
					<g id="XMLID_2653_">
						<path id="XMLID_2654_" fill="#FFCA0C" d="M38.1,74.4l-2.4,18.2c-0.2,1.8,1,3.5,2.9,3.8c4.4,0.6,11.6,1.5,11.6,1.5l0.5-3.7
							c0.7-4.6,2.5-7.3,5.2-9.4c4.4-3.4,10.3-3.6,14.8-1.1c0.1,0,0.1,0.1,0.2,0.1c0.1,0,0.1,0.1,0.2,0.1c4.5,2.7,7.2,7.9,6.5,13.4
							c0,0.1-0.1,0.3-0.1,0.4l-0.5,3.8l60.9,8.1l0.4-3.1c0-0.1,0-0.1,0-0.2c0,0,0.1-0.7,0.1-0.7c0.4-3.5,2.1-6.9,5.2-9.2
							c4.4-3.4,10.3-3.6,14.8-1.1c0.1,0,0.1,0.1,0.2,0.1c0.1,0,0.1,0.1,0.2,0.1c4.5,2.7,7.2,7.9,6.5,13.4c-0.1,0.4-0.5,3.7-0.6,4.2
							l15,2c0.1-0.2,1-7,1.9-13.8c1-7.7-3.7-14.9-11.2-17l-17.6-5l-17.3-15.4c-7.1-6.3-15.9-10.3-25.2-11.6l-19.2-2.6
							C77,47.9,63,51.4,51.7,59.5l-8.2,5.9C40.5,67.5,38.6,70.8,38.1,74.4z"/>
					</g>
					<path id="XMLID_2652_" fill="#404040" d="M142.4,114.3c0.6,0.8,1.3,1.5,2.1,2.1c0.1,0.1,0.3,0.2,0.4,0.3c0,0,0.1,0,0.1,0.1
						c0.1,0.1,0.2,0.2,0.4,0.2c0.1,0,0.1,0.1,0.2,0.1c0.1,0.1,0.2,0.1,0.3,0.2c0.1,0.1,0.2,0.1,0.3,0.1c0.1,0,0.1,0.1,0.2,0.1
						c0.1,0.1,0.2,0.1,0.3,0.2c0,0,0.1,0,0.1,0.1c0.2,0.1,0.3,0.1,0.5,0.2c0.9,0.4,1.9,0.6,2.9,0.8c6.4,0.9,12.3-3.7,13.2-10.1
						c0.6-4.8-1.7-9.2-5.6-11.6c0,0-0.1-0.1-0.1-0.1c-0.1,0-0.1-0.1-0.2-0.1c-3.9-2.2-9-2-12.8,0.9
						C139.4,101.8,138.5,109.2,142.4,114.3z"/>
					<path id="XMLID_2651_" fill="#999999" d="M147.3,110.6c0.3,0.4,0.6,0.7,1,1c0.1,0.1,0.1,0.1,0.2,0.2c0,0,0,0,0,0
						c0.1,0,0.1,0.1,0.2,0.1c0,0,0.1,0,0.1,0.1c0,0,0.1,0.1,0.1,0.1c0,0,0.1,0,0.1,0.1c0,0,0.1,0,0.1,0.1c0.1,0,0.1,0.1,0.2,0.1
						c0,0,0,0,0.1,0c0.1,0,0.1,0.1,0.2,0.1c0.4,0.2,0.9,0.3,1.4,0.4c3,0.4,5.8-1.7,6.2-4.8c0.3-2.3-0.8-4.4-2.6-5.5c0,0,0,0-0.1,0
						c0,0-0.1,0-0.1,0c-1.9-1-4.3-0.9-6.1,0.4C145.9,104.7,145.4,108.1,147.3,110.6z"/>
					<path id="XMLID_2650_" fill="#404040" d="M54.8,102.6c0.6,0.8,1.3,1.5,2.1,2.1c0.1,0.1,0.3,0.2,0.4,0.3c0,0,0.1,0,0.1,0.1
						c0.1,0.1,0.2,0.2,0.4,0.2c0.1,0,0.1,0.1,0.2,0.1c0.1,0.1,0.2,0.1,0.3,0.2c0.1,0.1,0.2,0.1,0.3,0.1c0.1,0,0.1,0.1,0.2,0.1
						c0.1,0.1,0.2,0.1,0.3,0.2c0,0,0.1,0,0.1,0.1c0.2,0.1,0.3,0.1,0.5,0.2c0.9,0.4,1.9,0.6,2.9,0.8c6.4,0.9,12.3-3.7,13.2-10.1
						c0.6-4.8-1.7-9.2-5.6-11.6c0,0-0.1-0.1-0.1-0.1c-0.1,0-0.1-0.1-0.2-0.1c-3.9-2.2-9-2-12.8,0.9C51.9,90.1,50.9,97.5,54.8,102.6z
						"/>
					<path id="XMLID_2649_" fill="#999999" d="M59.7,98.9c0.3,0.4,0.6,0.7,1,1c0.1,0.1,0.1,0.1,0.2,0.2c0,0,0,0,0,0
						c0.1,0,0.1,0.1,0.2,0.1c0,0,0.1,0,0.1,0.1c0,0,0.1,0.1,0.1,0.1c0,0,0.1,0,0.1,0.1c0,0,0.1,0,0.1,0.1c0.1,0,0.1,0.1,0.2,0.1
						c0,0,0,0,0.1,0c0.1,0,0.1,0.1,0.2,0.1c0.4,0.2,0.9,0.3,1.4,0.4c3,0.4,5.8-1.7,6.2-4.8c0.3-2.3-0.8-4.4-2.6-5.5c0,0,0,0-0.1,0
						c0,0-0.1,0-0.1,0c-1.9-1-4.3-0.9-6.1,0.4C58.3,93,57.8,96.4,59.7,98.9z"/>
					<path id="XMLID_2648_" fill="#F7A800" d="M171.3,103.6c-0.9,6.8-1.3,10.1-1.4,10.3l-5.5-0.7c0.1-0.4,0.6-3.7,0.6-4.2
						c0.7-5.5-2-10.7-6.5-13.4c-0.1,0-0.1-0.1-0.2-0.1c-0.1,0-0.1-0.1-0.2-0.1c-4.6-2.5-10.4-2.3-14.8,1.1c-3,2.3-4.7,5.7-5.2,9.2
						c0,0-0.1,0.7-0.1,0.7c0,0.1,0,0.1,0,0.2l-0.4,3.1l-60.9-8.1l0.5-3.8c0-0.1,0.1-0.3,0.1-0.4c0.7-5.5-2-10.7-6.5-13.4
						c-0.1,0-0.1-0.1-0.2-0.1c-0.1,0-0.1-0.1-0.2-0.1c-4.6-2.5-10.4-2.3-14.8,1.1c-2.8,2.1-4.5,4.9-5.2,9.4l-0.5,3.7
						c0,0-0.2,0-4.6-0.5c-1.8-0.2-3.1-1.9-2.9-3.8L44,83.4c0.7-5.5,5.8-9.4,11.4-8.7l104.9,14c8,1.1,13.9,7.1,12.9,15.1
						C173.2,103.9,171.3,103.6,171.3,103.6z"/>
					<g id="XMLID_2646_">
						<path id="XMLID_2647_" fill="#FFFEFF" d="M172.1,89.1c3,0.4,5.7,2.3,6.9,5c1.1,2.4,1.4,5.1,1.1,8c0,0-0.8-0.1-2.5-0.3
							c-1.3-0.2-2.3-1.3-2.4-2.6c-0.3-3-2-6.1-4-8.3C170.5,90.1,171.1,89,172.1,89.1z"/>
					</g>
					
						<rect id="XMLID_2645_" x="173.8" y="106.3" transform="matrix(-0.9912 -0.1323 0.1323 -0.9912 335.4807 241.0108)" fill="#C26E00" width="3.9" height="6"/>
					<path id="XMLID_1535_" fill="#D7A23A" d="M134.5,105.7l-31.2-4.2l3.6-26.6l1.7,0.2l-3.3,24.9l27.7,3.7c1.5-9.3,7-12.3,8.8-13.1
						l1.6-11.7l1.7,0.2l-1.7,12.8l-0.5,0.2c-0.3,0.1-6.8,2.3-8.2,12.7L134.5,105.7z"/>
					<path id="XMLID_1534_" fill="#D7A23A" d="M105.3,101.8l-25.5-3.4l0.1-0.9c2-15-11.1-18-11.7-18.2l-0.8-0.2l1.3-9.4l1.7,0.2
						l-1,7.8c3,0.9,13.7,5.3,12.4,19l23.8,3.2L105.3,101.8z"/>
					<g id="XMLID_1532_">
						<path id="XMLID_1533_" fill="#87A093" d="M85.2,52.9l22.1,3c9.4,1.3,18.2,5.3,25.2,11.6l12.2,10.9c0.6,0.6,0.2,1.6-0.7,1.5
							L58.9,68.5c-1.4-0.2-2.4-1.5-2.2-2.9C56.6,65.6,74.3,51.5,85.2,52.9z"/>
					</g>
					<circle id="XMLID_1531_" fill="#C26E00" cx="52.2" cy="79.9" r="3.4"/>
					
						<rect id="XMLID_1530_" x="110.2" y="81.5" transform="matrix(-0.9912 -0.1323 0.1323 -0.9912 216.5937 179.8205)" fill="#C26E00" width="8.1" height="2.5"/>
					
						<rect id="XMLID_1529_" x="76.7" y="77" transform="matrix(-0.9912 -0.1323 0.1323 -0.9912 150.5358 166.492)" fill="#C26E00" width="8.1" height="2.5"/>
					<path id="XMLID_1528_" fill="#87A093" d="M43.5,65.4l8.2-5.9c4.3-3.1,9.1-5.5,14-7.2c0.5,0.3,1,0.6,0.8,0.8L48.7,64.5
						c-1.5,0.9-3.2,1.3-4.9,1.1l-0.5-0.1C43.4,65.5,43.4,65.4,43.5,65.4z"/>
					
						<rect id="XMLID_1527_" x="71.8" y="52.6" transform="matrix(-0.9912 -0.1324 0.1324 -0.9912 138.762 133.7755)" fill="#FFCA0C" width="4.1" height="19.4"/>
					<g id="XMLID_1524_">
						<path id="XMLID_1526_" fill="#526363" d="M134.8,78.6l-2.3-0.3l2.7-4.2c0.3-0.5,1-0.6,1.5-0.3c0.5,0.3,0.6,1,0.3,1.5
							L134.8,78.6z"/>
						<polygon id="XMLID_1525_" fill="#526363" points="134.2,78.6 136.1,75.7 142.2,79.6 						"/>
					</g>
					<path id="XMLID_1523_" fill="#526363" d="M111.6,71.6l0.3,4l-5.2-0.7l0.8-5.9l1.8,0.2C110.6,69.4,111.5,70.4,111.6,71.6z"/>
					<path id="XMLID_1103_" fill="#526363" d="M79.6,67.3l0.3,4l-5.2-0.7l0.8-5.9l1.8,0.2C78.5,65.1,79.5,66.1,79.6,67.3z"/>
					
						<rect id="XMLID_1102_" x="104.2" y="53.5" transform="matrix(-0.9912 -0.1323 0.1323 -0.9912 202.8816 141.7411)" fill="#FFCA0C" width="3.9" height="21.3"/>
					<path id="XMLID_1101_" fill="#526363" d="M43.8,65.6l-0.5-0.1c0,0,0.1-0.1,0.1-0.1l5.9-4.2l3.7,0.5l-4.3,2.8
						C47.3,65.4,45.5,65.8,43.8,65.6z"/>
					<path id="XMLID_1100_" fill="#526363" d="M60.5,62.7l10.9,1.5l-0.8,5.9l-11.8-1.6c-1.4-0.2-2.4-1.5-2.2-2.9
						C56.6,65.6,58.1,64.4,60.5,62.7z"/>
					<g id="XMLID_1097_">
						<path id="XMLID_1099_" fill="#A5B8AF" d="M125.6,62.3l4.3,15.6L118,76.4l-5.3-19.5C117.2,58.1,121.6,59.9,125.6,62.3z"/>
						<path id="XMLID_1098_" fill="#A5B8AF" d="M85.2,52.9l8.5,1.1l5.4,19.8l-12.4-1.7L81.4,53C82.7,52.8,84,52.8,85.2,52.9z"/>
					</g>
				</g>
				<g id="XMLID_1091_">
					
						<rect id="XMLID_1095_" x="185.3" y="45.8" transform="matrix(-0.8598 0.5106 -0.5106 -0.8598 377.5991 9.5043)" fill="#C88B43" width="4.3" height="21.6"/>
					<g id="XMLID_1092_">
						<path id="XMLID_1094_" fill="#C88B43" d="M191.9,61.6c-2.2-3.1-5.1-10.8,0.4-17.8l3.3,2.6c-4.9,6.3-0.5,12.5-0.3,12.8
							L191.9,61.6z"/>
						<path id="XMLID_1093_" fill="#C88B43" d="M185.9,64.7c-0.1-0.3-3.5-7.1-11.4-5.8l-0.7-4.2c8.8-1.4,14.2,4.7,15.9,8.2
							L185.9,64.7z"/>
					</g>
				</g>
				<g id="XMLID_1088_">
					<path id="XMLID_1090_" fill="#C88B43" d="M204.6,82.7l-3.7-0.8l0.4,4.5l-3.7-1.7l-13.8-23.3l-0.1-1.7c-0.3-4.5,4.6-7.4,8.4-5
						l1.5,0.9l13.1,22l-3-0.5L204.6,82.7z"/>
					<path id="XMLID_1089_" fill="#C88B43" d="M217.6,118.5h-13.9h-13.9c5.1-3.5,8.2-9.4,8.2-15.6V87.5l2.3,3.4l2-4.1l2.8,2.6l2-5.3
						l2.3,1.9v16.8C209.3,109.1,212.4,114.9,217.6,118.5z"/>
				</g>
			</g>
		</g>
	</g>
</g>
<g id="Layer_14" display="none">
	<circle id="XMLID_2644_" display="inline" fill="none" stroke="#424242" stroke-miterlimit="10" cx="171" cy="170" r="100"/>
</g>
</svg>
