<?xml version="1.0" encoding="utf-8"?>
<!-- Generator: Adobe Illustrator 19.0.0, SVG Export Plug-In . SVG Version: 6.00 Build 0)  -->
<svg version="1.0" xmlns="http://www.w3.org/2000/svg" xmlns:xlink="http://www.w3.org/1999/xlink" x="0px" y="0px"
	 viewBox="0 0 400 400" enable-background="new 0 0 400 400" xml:space="preserve">
<g id="Layer_3" display="none">
</g>
<g id="Layer_6">
	<g id="XMLID_1369_">
		<g id="XMLID_1049_">
			<linearGradient id="XMLID_2_" gradientUnits="userSpaceOnUse" x1="200.1946" y1="270.1668" x2="214.9923" y2="253.5935">
				<stop  offset="0" style="stop-color:#FFFFFF"/>
				<stop  offset="0.5716" style="stop-color:#F7F7F7"/>
				<stop  offset="1" style="stop-color:#EEEEEE"/>
			</linearGradient>
			<polygon id="XMLID_1378_" fill="url(#XMLID_2_)" points="274.1,283.7 171.3,386.5 124.4,386.5 124.4,258.7 264.9,255.2 			"/>
			<circle id="XMLID_1377_" fill="#DADADA" cx="203.6" cy="185.3" r="102.5"/>
			<path id="XMLID_1376_" fill="#424342" d="M274.1,281.9H136.8c-2.2,0-4-1.8-4-4V90.6c0-2.2,1.8-4,4-4h137.3c2.2,0,4,1.8,4,4v187.2
				C278.1,280.1,276.3,281.9,274.1,281.9z"/>
			<g id="XMLID_1338_">
				<g id="XMLID_1358_">
					<g id="XMLID_1359_">
						<g id="XMLID_1360_">
							<path id="XMLID_1371_" fill="#CFBEAD" d="M268.4,277.9H142.5c-3.2,0-5.7-2.6-5.7-5.7V98.6c0-3.2,2.6-5.7,5.7-5.7h125.9
								c3.2,0,5.7,2.6,5.7,5.7v173.5C274.1,275.3,271.5,277.9,268.4,277.9z"/>
							<path id="XMLID_1370_" fill="#FFFFFF" d="M268.4,276H142.5c-3.2,0-5.7-2.6-5.7-5.7V96.7c0-3.2,2.6-5.7,5.7-5.7h125.9
								c3.2,0,5.7,2.6,5.7,5.7v173.5C274.1,273.5,271.5,276,268.4,276z"/>
						</g>
					</g>
				</g>
				<rect id="XMLID_1357_" x="184" y="120.1" fill="#6B6B6B" width="69.9" height="1.4"/>
				<g id="XMLID_1352_">
					<rect id="XMLID_1356_" x="175.6" y="132.7" fill="#BFBFBF" width="78.3" height="1.9"/>
					<rect id="XMLID_1355_" x="156.9" y="130.9" fill="#6B6B6B" width="13.5" height="3.8"/>
					<rect id="XMLID_1354_" x="156.9" y="140.8" fill="#BFBFBF" width="97" height="1.9"/>
					<rect id="XMLID_1353_" x="156.9" y="148.1" fill="#BFBFBF" width="37.3" height="1.9"/>
				</g>
				<rect id="XMLID_1351_" x="157.7" y="256.3" fill="#6B6B6B" width="38.5" height="0.7"/>
				<rect id="XMLID_1350_" x="157.7" y="262.1" fill="#BFBFBF" width="38.5" height="0.7"/>
				<rect id="XMLID_1349_" x="215.5" y="262.1" fill="#BFBFBF" width="38.5" height="0.7"/>
				<g id="XMLID_1344_">
					<rect id="XMLID_1348_" x="175.6" y="166.1" fill="#BFBFBF" width="78.3" height="1.9"/>
					<rect id="XMLID_1347_" x="156.9" y="164.2" fill="#6B6B6B" width="13.5" height="3.8"/>
					<rect id="XMLID_1346_" x="156.9" y="174.2" fill="#BFBFBF" width="97" height="1.9"/>
					<rect id="XMLID_1345_" x="156.9" y="181.5" fill="#BFBFBF" width="37.3" height="1.9"/>
				</g>
				<g id="XMLID_1339_">
					<rect id="XMLID_1343_" x="175.6" y="199" fill="#BFBFBF" width="78.3" height="1.9"/>
					<rect id="XMLID_1342_" x="156.9" y="197.2" fill="#6B6B6B" width="13.5" height="3.8"/>
					<rect id="XMLID_1341_" x="156.9" y="207.1" fill="#BFBFBF" width="97" height="1.9"/>
					<rect id="XMLID_1340_" x="156.9" y="214.4" fill="#BFBFBF" width="37.3" height="1.9"/>
				</g>
				<g id="XMLID_1374_">
					<g id="XMLID_1380_">
						<path id="XMLID_1384_" fill="#FF788E" d="M170.8,103.3h-11.2c0,1.5-1.2,2.7-2.7,2.7v8.1c0,0.1,0,0.1,0,0.2
							c0.1,2.4,1.4,4.5,3.4,5.7l4.9,2.6l4.9-2.6c2-1.2,3.3-3.4,3.4-5.7c0-0.1,0-0.1,0-0.2V106C172,106,170.8,104.8,170.8,103.3z"/>
						<g id="XMLID_1381_">
							<path id="XMLID_1382_" fill="#FFFFFF" d="M165.2,120.4C165.2,120.4,165.2,120.4,165.2,120.4l-3.8-2c-1.5-0.9-2.4-2.5-2.4-4.2
								c0,0,0-0.1,0-0.1v-6.2c0,0,0-0.1,0.1-0.1c1-0.4,1.8-1.1,2.1-2.1c0,0,0.1-0.1,0.1-0.1h7.9c0,0,0.1,0,0.1,0.1
								c0.4,1,1.1,1.8,2.1,2.1c0,0,0.1,0.1,0.1,0.1v6.2c0,0,0,0.1,0,0.1c0,1.7-1,3.2-2.4,4.2L165.2,120.4
								C165.3,120.4,165.2,120.4,165.2,120.4z"/>
						</g>
					</g>
					<polygon id="XMLID_1379_" fill="#FF788E" points="163.8,116.5 160.4,113.1 161.4,112 163.8,114.5 169,109.3 170.1,110.3 					
						"/>
				</g>
			</g>
			<g id="XMLID_1104_">
				<g id="XMLID_1111_">
					<g id="XMLID_1112_">
						<path id="XMLID_1337_" fill="#F5D1A5" d="M269.1,131.7l9.2,21.2v42.4l7.9-5.1c1.1-0.7,2-1.7,2.6-2.9l19.9-38.2
							c1.4-3,2.1-6.2,2-9.5L310.4,75V11.2h-34.5v58.2l-0.6,0.6C253.8,89.8,269.1,131.7,269.1,131.7z"/>
						<path id="XMLID_1336_" fill="#F9E1C6" d="M269.1,131.7l9.2,21.2v42.4l3.8-2.5v-39.9l-9.2-21.2c0,0-15.3-41.9,6.2-61.8l0.6-0.6
							V11.2h-3.8v58.2l-0.6,0.6C253.8,89.8,269.1,131.7,269.1,131.7z"/>
						<g id="XMLID_1334_">
							<path id="XMLID_1335_" fill="#F9E1C6" d="M307.1,11.2v63.1l0.3,64.7c0,3.3-0.7,6.5-2,9.5l-19.9,38.2
								c-0.6,1.2-1.5,2.2-2.6,2.9l-4.7,3v2.8l7.9-5.1c1.1-0.7,2-1.7,2.6-2.9l19.9-38.2c1.4-3,2.1-6.2,2-9.5L310.4,75V11.2H307.1z"/>
						</g>
						<path id="XMLID_1282_" fill="#F9E1C6" d="M294.7,131.4c0,3.3,0.1,15.4,0.1,15.4c0,1.3-16.6,35.5-16.6,35.5v-45.8l10.4-10.2
							C288.7,126.3,294.7,125.5,294.7,131.4z"/>
						<g id="XMLID_1142_">
							<path id="XMLID_1281_" fill="#D6D6D6" d="M265.2,128.1v18l-2.9,13c-2.4,17.8,9.8,16.6,12.3,13.5l5.8-16.2
								c-2.7-0.7-5.3-2.8-5.8-5.7c-3.7-19.7-5.9-39.7-5.9-59.8h-8C258.8,107.3,263.9,124.1,265.2,128.1z"/>
						</g>
						<path id="XMLID_1115_" fill="#F5D1A5" d="M277.6,172.2l7.9-21.8c0.3-1.4,0.5-2.8,0.5-4.2c0,0,0-6.7,0-15.3
							c0-6.3,6.3-6.4,6.3-6.4l-24,1.6v19.6l-2.9,13C262.9,176.5,275.1,175.4,277.6,172.2z"/>
						<path id="XMLID_1114_" fill="#F9E1C6" d="M268.2,129.2v16.6l-2.9,13c-1.8,13.1,4.4,15.9,8.8,15.3c-1.3-0.1-6.7-1.8-3.9-9.7
							l6.2-16.6l-0.5-18.7c-5.1-15.4-6.5-23.1-4.4-37.9c2.9-20.3,22.4-22.1,22.4-22.1c-6.1-1-16-0.4-19.1,1.3
							C256.8,85.4,265.3,119.8,268.2,129.2z"/>
						<path id="XMLID_1113_" fill="#FCF1E5" d="M268.2,129.2v16.6l-2.9,13c-1.6,12,3.4,15.4,7.6,15.3c-3.6-1-6.9-5-5.6-15.1l2.9-13
							v-16.6c-2.6-8.5-10-38,2.5-54.6c4.7-6.3,16.3-6.4,21.1-5.9c-5.5-1.4-16-0.8-19.1,1.3C256.8,85.4,265.3,119.8,268.2,129.2z"/>
					</g>
				</g>
				<g id="XMLID_1108_">
					<polygon id="XMLID_1110_" fill="#DAD2C8" points="278.1,195.3 280.9,193.6 280.9,162.2 278.1,169.1 					"/>
					<path id="XMLID_1109_" fill="#C2B28E" d="M281,167.7l6.9-17.3c0.6-1.3,0.9-2.7,0.9-4.2l-0.2-19.9c-0.7,0.5-1.4,0.6-1.9,1.1
						c-0.4,0.6-0.6,1.3-0.8,2.2c-0.1,0.6-0.1,1.3-0.1,2.3c0,8.1,0,14.4,0,14.4c0,0.6,0,1.3-0.1,1.9c-0.1,1.2-0.4,2.4-0.8,3.6
						l-6.8,18.9v3.9L281,167.7z"/>
				</g>
				<path id="XMLID_1107_" fill="#FFFBF6" d="M275.7,160l4.5,1.4c0.7,0.1,1.1,0.8,0.9,1.5c-1.2,3.7-3.1,9.5-3.4,9.9
					c-0.3,0.4-4.1-0.6-4.8-1c-1.7-1-2.1-3.3-1.5-5.1l1.9-5.4C273.7,160.4,274.5,159.9,275.7,160z"/>
				<g id="XMLID_1105_">
					<path id="XMLID_1106_" fill="#F9ECDA" d="M273.1,171.4c0.2,0.1,0.6,0.3,1.2,0.4l3.5-10.7l-2.1-0.7c-1.1-0.1-1.8,0.3-2.1,1.1
						l-1.8,5C271.1,168.3,271.6,170.4,273.1,171.4z"/>
				</g>
			</g>
			<g id="XMLID_1067_">
				<g id="XMLID_1074_">
					<g id="XMLID_1091_">
						<path id="XMLID_1103_" fill="#F5D1A5" d="M141.9,235l-9.2-21.2v-42.4l-7.9,5.1c-1.1,0.7-2,1.7-2.6,2.9l-19.9,38.2
							c-1.4,3-2.1,6.2-2,9.5l0.3,64.7V321H135v-23.7l0.6-0.6C157.2,276.9,141.9,235,141.9,235z"/>
						<path id="XMLID_1102_" fill="#F9E1C6" d="M141.9,235l-9.2-21.2v-42.4l-3.8,2.5v39.9l9.2,21.2c0,0,15.3,41.9-6.2,61.8l-0.6,0.6
							V321h3.8v-23.7l0.6-0.6C157.2,276.9,141.9,235,141.9,235z"/>
						<g id="XMLID_1100_">
							<path id="XMLID_1101_" fill="#F9E1C6" d="M103.8,321v-28.6l-0.3-64.7c0-3.3,0.7-6.5,2-9.5l19.9-38.2c0.6-1.2,1.5-2.2,2.6-2.9
								l4.7-3v-2.8l-7.9,5.1c-1.1,0.7-2,1.7-2.6,2.9l-19.9,38.2c-1.4,3-2.1,6.2-2,9.5l0.3,64.7V321H103.8z"/>
						</g>
						<g id="XMLID_1098_">
							<polygon id="XMLID_1099_" fill="#DAD2C8" points="100.6,347.4 100.6,308.5 135,308.5 135,347.4 							"/>
						</g>
						<path id="XMLID_1097_" fill="#F9E1C6" d="M116.3,235.3c0-3.3-0.1-15.4-0.1-15.4c0-1.3,16.6-35.5,16.6-35.5v45.8l-10.4,10.2
							C122.3,240.4,116.3,241.2,116.3,235.3z"/>
						<g id="XMLID_1095_">
							<path id="XMLID_1096_" fill="#D6D6D6" d="M145.8,238.6v-18l2.9-13c2.4-17.8-9.8-16.6-12.3-13.5l-5.8,16.2
								c2.7,0.7,5.3,2.8,5.8,5.7c3.7,19.7,5.9,39.7,5.9,59.8h8C152.2,259.5,147.1,242.7,145.8,238.6z"/>
						</g>
						<path id="XMLID_1094_" fill="#F5D1A5" d="M133.4,194.5l-7.9,21.8c-0.3,1.4-0.5,2.8-0.5,4.2c0,0,0,6.7,0,15.3
							c0,6.3-6.3,6.4-6.3,6.4l24-1.6V221l2.9-13C148.1,190.2,135.9,191.3,133.4,194.5z"/>
						<path id="XMLID_1093_" fill="#F9E1C6" d="M142.7,237.5V221l2.9-13c1.8-13.1-4.4-15.9-8.8-15.3c1.3,0.1,6.7,1.8,3.9,9.7
							l-6.2,16.6l0.5,18.7c5.1,15.4,6.5,23.1,4.4,37.9c-2.9,20.3-22.4,22.1-22.4,22.1c6.1,1,16,0.4,19.1-1.3
							C154.1,281.3,145.6,246.9,142.7,237.5z"/>
						<path id="XMLID_1092_" fill="#FCF1E5" d="M142.7,237.5V221l2.9-13c1.6-12-3.4-15.4-7.6-15.3c3.6,1,6.9,5,5.6,15.1l-2.9,13
							v16.6c2.6,8.5,10,38-2.5,54.6c-4.7,6.3-16.3,6.4-21.1,5.9c5.5,1.4,16,0.8,19.1-1.3C154.1,281.3,145.6,246.9,142.7,237.5z"/>
					</g>
					<g id="XMLID_1082_">
						<g id="XMLID_1086_">
							<g id="XMLID_1089_">
								<polygon id="XMLID_1090_" fill="#FFFFFF" points="97.7,348.6 97.7,309.7 138.2,309.7 138.2,348.6 								"/>
							</g>
							<g id="XMLID_1087_">
								<rect id="XMLID_1088_" x="97.7" y="312.6" fill="#E6E6E6" width="20.6" height="34.1"/>
							</g>
						</g>
						<g id="XMLID_1083_">
							<polygon id="XMLID_1085_" fill="#696968" points="140.7,322.4 140.7,387 95.2,387 95.2,322.4 							"/>
							<polygon id="XMLID_1084_" fill="#424342" points="122.1,325.4 122.1,387 95.2,387 95.2,325.4 							"/>
						</g>
					</g>
					<g id="XMLID_1075_">
						<circle id="XMLID_1081_" fill="#FFFFFF" cx="133.3" cy="332.3" r="3.4"/>
						<g id="XMLID_1076_">
							<circle id="XMLID_1080_" fill="#555554" cx="133" cy="331" r="0.7"/>
							<circle id="XMLID_1079_" fill="#555554" cx="134.5" cy="331.9" r="0.7"/>
							<circle id="XMLID_1078_" fill="#555554" cx="132.1" cy="332.7" r="0.7"/>
							<circle id="XMLID_1077_" fill="#555554" cx="133.6" cy="333.5" r="0.7"/>
						</g>
					</g>
				</g>
				<path id="XMLID_1073_" fill="#C2B28E" d="M130,199.1l-6.9,17.3c-0.6,1.3-0.9,2.7-0.9,4.2l0.2,19.9c0.7-0.5,1.4-0.6,1.9-1.1
					c0.4-0.6,0.6-1.3,0.8-2.2c0.1-0.6,0.1-1.3,0.1-2.3c0-8.1,0-14.4,0-14.4c0-0.6,0-1.3,0.1-1.9c0.1-1.2,0.4-2.4,0.8-3.6l6.8-18.9
					v-3.9L130,199.1z"/>
				<g id="XMLID_1071_">
					<polygon id="XMLID_1072_" fill="#DAD2C8" points="132.7,171.4 130,173.1 130,204.5 132.7,197.6 					"/>
				</g>
				<path id="XMLID_1070_" fill="#FFFBF6" d="M135.3,206.7l-4.5-1.4c-0.7-0.1-1.1-0.8-0.9-1.5c1.2-3.7,3.1-9.5,3.4-9.9
					c0.3-0.4,4.1,0.6,4.8,1c1.7,1,2.1,3.3,1.5,5.1l-1.9,5.4C137.3,206.3,136.5,206.9,135.3,206.7z"/>
				<g id="XMLID_1068_">
					<path id="XMLID_1069_" fill="#F9ECDA" d="M137.8,195.3c-0.2-0.1-0.6-0.3-1.2-0.4l-3.5,10.7l2.1,0.7c1.1,0.1,1.8-0.3,2.1-1.1
						l1.8-5C139.8,198.4,139.4,196.3,137.8,195.3z"/>
				</g>
			</g>
			<g id="XMLID_1050_">
				<g id="XMLID_1064_">
					<g id="XMLID_1120_">
						<path id="XMLID_1122_" fill="#FFB0BD" d="M233.8,262.9c-6.1,0-11.9-3.4-14.9-9.1l2.2-1.1c3.2,6.2,10.4,9.2,17.1,7.1
							c6.7-2.1,10.8-8.7,9.8-15.7l2.5-0.4c1.2,8.1-3.7,15.9-11.5,18.4C237.2,262.6,235.5,262.9,233.8,262.9z"/>
						<path id="XMLID_1121_" fill="#FFB0BD" d="M217.2,248.5c-1.2-8.1,3.7-15.9,11.5-18.4c7.9-2.5,16.3,1,20,8.3l-2.2,1.1
							c-3.2-6.2-10.4-9.2-17.1-7.1c-6.7,2.1-10.8,8.7-9.8,15.7L217.2,248.5z"/>
					</g>
				</g>
				
					<rect id="XMLID_1063_" x="213.6" y="242.8" transform="matrix(0.9527 -0.304 0.304 0.9527 -63.7487 82.7341)" fill="#FFFFFF" width="40.3" height="6.6"/>
				<path id="XMLID_1060_" fill="#FF788E" d="M233.8,266.3c-8.5,0-16.5-5.5-19.2-14c-3.4-10.6,2.5-22,13.1-25.4
					c10.6-3.4,22,2.5,25.4,13.1c3.4,10.6-2.5,22-13.1,25.4C237.9,266,235.9,266.3,233.8,266.3z M233.8,227.5c-1.9,0-3.8,0.3-5.6,0.9
					c-9.8,3.1-15.2,13.6-12,23.3c3.1,9.8,13.6,15.2,23.3,12c9.8-3.1,15.2-13.6,12-23.3C249,232.6,241.7,227.5,233.8,227.5z"/>
				<g id="XMLID_1055_">
					<path id="XMLID_1056_" fill="#FF788E" d="M233.8,258.3c-1.9,0-3.8-0.5-5.6-1.4c-2.9-1.5-5-4-6-7.1c-2-6.4,1.5-13.3,7.9-15.3
						c6.4-2,13.3,1.5,15.3,7.9c2,6.4-1.5,13.3-7.9,15.3C236.3,258.1,235,258.3,233.8,258.3z M233.8,235.6c-1.1,0-2.1,0.2-3.2,0.5
						c-5.5,1.8-8.6,7.7-6.8,13.2c0.9,2.7,2.7,4.8,5.2,6.1c2.5,1.3,5.3,1.5,8,0.7c5.5-1.8,8.6-7.7,6.8-13.2
						C242.4,238.4,238.3,235.6,233.8,235.6z"/>
				</g>
				
					<rect id="XMLID_1054_" x="226.3" y="243.7" transform="matrix(0.9527 -0.304 0.304 0.9527 -63.7501 82.7365)" fill="#FFB0BD" width="15" height="4.7"/>
			</g>
		</g>
	</g>
</g>
</svg>
