<?xml version="1.0" encoding="utf-8"?>
<!-- Generator: Adobe Illustrator 19.0.0, SVG Export Plug-In . SVG Version: 6.00 Build 0)  -->
<svg version="1.0" xmlns="http://www.w3.org/2000/svg" xmlns:xlink="http://www.w3.org/1999/xlink" x="0px" y="0px"
	 viewBox="0 0 400 400" enable-background="new 0 0 400 400" xml:space="preserve">
<g id="Layer_3" display="none">
</g>
<g id="Layer_2">
	<g id="XMLID_210_">
		<path id="XMLID_213_" fill="#D4D5D6" d="M348.8,208.1H262c-3.7,0-6.7-3-6.7-6.7s3-6.7,6.7-6.7h86.8c3.7,0,6.7,3,6.7,6.7
			S352.4,208.1,348.8,208.1z"/>
		<path id="XMLID_212_" fill="#D4D5D6" d="M374.9,234H255.5c-3.7,0-6.7-3-6.7-6.7c0-3.7,2.5-6.7,6.7-6.7h119.4c4.4,0,6.7,3,6.7,6.7
			C381.6,231,378.6,234,374.9,234z"/>
		<path id="XMLID_211_" fill="#D4D5D6" d="M334.6,214.2c0-3.7,3-6.7,6.7-6.7h-72.5c3.7,0,6.7,3,6.7,6.7s-3,6.7-6.7,6.7h72.5
			C337.6,220.9,334.6,217.9,334.6,214.2z"/>
	</g>
	<g id="XMLID_168_">
		<path id="XMLID_209_" fill="#D4D5D6" d="M137.8,181.1H51c-3.7,0-6.7-3-6.7-6.7s3-6.7,6.7-6.7h86.8c3.7,0,6.7,3,6.7,6.7
			S141.5,181.1,137.8,181.1z"/>
		<path id="XMLID_182_" fill="#D4D5D6" d="M149.4,207H30c-3.7,0-6.7-3-6.7-6.7c0-3.7,2.5-6.7,6.7-6.7h119.4c4.4,0,6.7,3,6.7,6.7
			C156.1,204,153.1,207,149.4,207z"/>
		<path id="XMLID_181_" fill="#D4D5D6" d="M123.6,187.2c0-3.7,3-6.7,6.7-6.7H57.7c3.7,0,6.7,3,6.7,6.7s-3,6.7-6.7,6.7h72.5
			C126.6,193.8,123.6,190.8,123.6,187.2z"/>
	</g>
</g>
<g id="Layer_1">
	<g id="XMLID_1302_">
		<g id="XMLID_1323_">
			<g id="XMLID_1332_">
				<g id="XMLID_1522_">
					<g id="XMLID_1523_">
						<g id="XMLID_1524_">
							<path id="XMLID_1525_" fill="#989898" d="M246.2,74.4h-92.4c-2.4,0-4.4-2-4.4-4.4V47.4c0-2.4,2-4.4,4.4-4.4h92.4
								c2.4,0,4.4,2,4.4,4.4v22.6C250.6,72.4,248.6,74.4,246.2,74.4z"/>
						</g>
					</g>
				</g>
				<rect id="XMLID_1521_" x="105.4" y="99.6" fill="#EBE6DD" width="189.8" height="209.4"/>
				<rect id="XMLID_1520_" x="105.4" y="74.8" fill="#B60E0C" width="189.8" height="12"/>
				<polygon id="XMLID_1519_" fill="#EBE6DD" points="105.4,203 105.4,298 172.8,298 172.8,185.6 122.7,185.6 				"/>
				<rect id="XMLID_1518_" x="121.8" y="159.3" fill="#FFFFFF" width="156.4" height="100.1"/>
				<rect id="XMLID_1517_" x="127.8" y="165.6" fill="#A4968D" width="144.4" height="87.6"/>
				<path id="XMLID_1515_" fill="#FFFFFF" d="M242.7,208.5c0,0-0.8-1-2.5-1.5l-0.2,2.7l3,0.9L242.7,208.5z"/>
				<path id="XMLID_1514_" fill="#FFFFFF" d="M222.3,208.5c0,0,0.8-1,2.5-1.5l0.2,2.7l-3,0.9L222.3,208.5z"/>
				<g id="XMLID_1452_">
					<g id="XMLID_1453_">
						<path id="XMLID_1513_" fill="#ABD1EC" d="M238.9,207.4c-2-0.3-4.5-0.5-7.1-0.5v8.9l12.7-1.8
							C244.5,210.7,242.2,207.8,238.9,207.4z"/>
						<path id="XMLID_1512_" fill="#88C0E3" d="M222.7,208.9c0,0,0.8-2.1,6.1-2.1v8.9l-8.5-1.3L222.7,208.9z"/>
						<g id="XMLID_1470_">
							<rect id="XMLID_1511_" x="223.8" y="201" fill="#FFD2B6" width="17.6" height="22.4"/>
							<polygon id="XMLID_1510_" fill="#F6B07A" points="241.4,198.5 236.1,201 223.8,201 223.8,215.9 222.4,221.2 241.4,202.2 
															"/>
							<path id="XMLID_1508_" fill="#D58D00" d="M211.2,156.7l-1.3,15.3c6.3-8.3,16.1-12.1,16.1-12.1c-2.8,4.2-5.8,6.7-5.8,6.7
								c10.7,2.1,21-4.6,21.2-4.9c0,0,0,3.5,7.6,9l2.2-13.9H211.2z"/>
							<g id="XMLID_1488_">
								<g id="XMLID_1505_">
									<path id="XMLID_1507_" fill="#FFBD90" d="M212.4,178.5c-1.2-1.2-5.8-1.9-6.8,3c-0.9,4.4,4.1,10.4,7.9,10.5L212.4,178.5z"/>
									<path id="XMLID_1506_" fill="#DE8A52" d="M211.8,184.5c-0.1,0-0.2-0.1-0.2-0.2c0,0-0.3-2.3-1.6-3c-0.4-0.2-1-0.2-1.5,0
										c-0.1,0.1-0.2,0-0.3-0.1c-0.1-0.1,0-0.2,0.1-0.3c0.7-0.3,1.4-0.3,1.9,0c1.4,0.8,1.8,3.2,1.8,3.3
										C212,184.4,211.9,184.5,211.8,184.5z"/>
								</g>
								<g id="XMLID_1490_">
									<g id="XMLID_1500_">
										<path id="XMLID_1504_" fill="#DF9C00" d="M254.3,160.6c0-0.1,0-0.1-0.1-0.2c-1.3-5.1-6.1-6.6-6.1-6.6s-2.1-7.5-15.2-8
											c-0.6,0-1,0-1.4,0c-13,0-23.6,7-22.1,19.8c0,0,0.9,24.1,3.5,24.1c1.3,0,10.1,3,18.6,2.9v-0.7v0.7
											c8.4,0.2,17.9-1.8,19.1-1.8c2.6,0,4.1-24.1,4.1-24.1c0.1-0.7,0.1-1.3,0.1-1.9C254.7,163.1,254.5,161.7,254.3,160.6z"/>
										<path id="XMLID_1503_" fill="#C37900" d="M226,146.2c-10.3,1.7-17.9,8.4-16.6,19.4c0,0,0.9,24.1,3.5,24.1
											c0.9,0,6,1.6,12,2.4l1.5-25.6c0,0-10.7-2.7-9.8-10.7C217.1,150.8,222.2,147.8,226,146.2z"/>
										<path id="XMLID_1502_" fill="#FFD2B6" d="M211.2,157.7l0.7,32.2c0,6.5,6.1,12.2,9.2,14.3c0.3,0.2,0.3,2.9,6.3,2.9
											c10.5,0,21.3-8.4,21.3-17.2l1.2-32.2H211.2z"/>
										<path id="XMLID_1501_" fill="#FFBD90" d="M226,179.1v-20.6h-14.8l0.7,31.3c0,6.5,3.5,11,6.2,13.6c1.7,1.7,3.6,3.3,7.9,3.5
											v-13.7l-2.3-1.5c-1-0.4-1.5-1.5-1.2-2.5L226,179.1z"/>
									</g>
									<path id="XMLID_1498_" fill="#DF9C00" d="M211.2,156.7l-1.3,15.3c6.3-8.3,16.1-12.1,16.1-12.1c-2.8,4.2-5.8,6.7-5.8,6.7
										c10.7,2.1,21-4.6,21.2-4.9c0,0,0,3.5,7.6,9l2.2-13.9H211.2z"/>
									<g id="XMLID_1493_">
										<g id="XMLID_1495_">
											<g id="XMLID_1496_">
												<circle id="XMLID_1497_" fill="#5C2F15" cx="216.9" cy="179.6" r="2"/>
											</g>
										</g>
										<path id="XMLID_1494_" fill="#DE8A52" d="M222,173.7c-0.1,0-0.2,0-0.3-0.1c-4-3.5-8.1-0.9-8.3-0.8
											c-0.2,0.1-0.5,0.1-0.6-0.1c-0.1-0.2-0.1-0.5,0.1-0.6c0,0,4.8-3.1,9.4,0.9c0.2,0.2,0.2,0.5,0,0.6
											C222.3,173.6,222.1,173.7,222,173.7z"/>
									</g>
									<g id="XMLID_1491_">
										<path id="XMLID_1492_" fill="#DE8A52" d="M231.1,173.7c-0.1,0-0.3-0.1-0.3-0.2c-0.2-0.2-0.1-0.5,0-0.6
											c4.6-3.9,9.3-0.9,9.4-0.9c0.2,0.1,0.3,0.4,0.1,0.6c-0.1,0.2-0.4,0.3-0.6,0.1c-0.2-0.1-4.3-2.7-8.3,0.8
											C231.3,173.6,231.2,173.7,231.1,173.7z"/>
									</g>
								</g>
								<path id="XMLID_1489_" fill="#E6AF7A" d="M226.8,197.1c2.3,0,4.4-0.3,5.8-0.7c-0.7,2.5-2.5,4.3-5.8,4.3
									c-3.3,0-5.1-1.8-5.8-4.3C222.4,196.9,224.5,197.1,226.8,197.1z"/>
							</g>
							<path id="XMLID_1487_" fill="#DF9C00" d="M246.5,165v24.1c1.9-2.2,2.8-6.7,3.1-9.6l2-13.7L246.5,165z"/>
							<path id="XMLID_1486_" fill="#FFD2B6" d="M256.7,181.5c-0.4-2.1-1.5-3.2-2.7-3.6c-1.9-0.7-4.1,0.3-4.9,2.2
								c-0.3,0.7-0.6,1.6-0.6,2.4l-0.3,8c0,0.5,0,1-0.1,1.6l0.7-0.1C252.6,191.9,257.6,185.9,256.7,181.5z"/>
							<g id="XMLID_1483_">
								<g id="XMLID_1484_">
									<path id="XMLID_1485_" fill="#DE8A52" d="M250.6,184.5c-0.2,0-0.2-0.1-0.2-0.3c0-0.1,0.4-2.6,1.8-3.3
										c0.6-0.3,1.2-0.3,1.9,0c0.1,0,0.2,0.2,0.1,0.3c0,0.1-0.2,0.2-0.3,0.1c-0.6-0.3-1.1-0.3-1.5,0c-1.2,0.7-1.6,3-1.6,3
										C250.8,184.4,250.7,184.5,250.6,184.5z"/>
								</g>
							</g>
							<g id="XMLID_1479_">
								<g id="XMLID_1480_">
									<g id="XMLID_1481_">
										<circle id="XMLID_1482_" fill="#5C2F15" cx="235.1" cy="179.6" r="2"/>
									</g>
								</g>
							</g>
							<g id="XMLID_1476_">
								<path id="XMLID_1478_" fill="#C37900" d="M209.9,172c3-3.9,6.7-6.8,9.9-8.8c-1.8-1.5-3.3-3.6-3.3-6.5h-5.2L209.9,172z"/>
								<path id="XMLID_1477_" fill="#C37900" d="M222.1,164.8c-1.1,1.1-1.9,1.8-1.9,1.8c2.1,0.4,4.1,0.5,6.1,0.3l0-0.4
									C226.3,166.5,224.3,166,222.1,164.8z"/>
							</g>
							<g id="XMLID_1473_">
								<path id="XMLID_1475_" fill="#C37900" d="M251.4,166.9l-1.7,12.3c0.9-1.2,2.5-1.8,4-1.5c0.6-5.7,0.9-11.1,0.9-11.1
									c0.1-0.7,0.1-1.3,0.1-1.9c0-0.2,0-0.4,0-0.6C253.8,165.2,252.7,166.1,251.4,166.9z"/>
								<path id="XMLID_1474_" fill="#C37900" d="M246.5,169.4v19.7c0.8-0.9,1.5-2.4,2-3.9l0.1-2.8c0-0.7,0.3-1.6,0.6-2.4
									c0.1-0.3,0.3-0.6,0.5-0.9l1.7-12.3C250,167.9,248.3,168.7,246.5,169.4z"/>
							</g>
							<ellipse id="XMLID_1472_" fill="#FAA67A" cx="235.1" cy="187.5" rx="2.8" ry="2.1"/>
							<ellipse id="XMLID_1471_" fill="#FAA67A" cx="216.9" cy="187.5" rx="2.8" ry="2.1"/>
						</g>
						<g id="XMLID_1464_">
							<g id="XMLID_1468_">
								<path id="XMLID_1469_" fill="#88C0E3" d="M229.4,257v-34.5l-4.3-7.1l-3.5-1.3l-10.7,2.8c0,0-9,2.3-10,13.1l-1.6,27.1H229.4z
									"/>
							</g>
							<path id="XMLID_1467_" fill="#88C0E3" d="M181.3,259.1h38.9c3.5,0,6.3-1.5,6.3-6.3l-2.1-4.5h-32.3
								C186.2,248.3,181.3,253.2,181.3,259.1z"/>
							<g id="XMLID_1465_">
								<path id="XMLID_1466_" fill="#6AB0DC" d="M211,257v-30.1c0-0.6-0.8-0.8-1.1-0.2l-1.6,30.3H211z"/>
							</g>
						</g>
						<path id="XMLID_1463_" fill="#FFFFFF" d="M225.1,215.3c0,0-2.8-2.8-2.4-6.4l-2.5,4.5c0,0-0.8,2.9,0.2,7.5L225.1,215.3z"/>
						<g id="XMLID_1454_">
							<path id="XMLID_1462_" fill="#ABD1EC" d="M264.3,229.9c-1-10.8-10-13.1-10-13.1l-10.7-2.8l-7.1,1.3l-7.1,7.1V257h13.3
								l23.6-4.2L264.3,229.9z"/>
							<g id="XMLID_1460_">
								<path id="XMLID_1461_" fill="#88C0E3" d="M254.2,252v-25.1c0-0.6,0.8-0.8,1.1-0.2l1.6,25.4H254.2z"/>
							</g>
							<g id="XMLID_1457_">
								<path id="XMLID_1459_" fill="#77939C" d="M251.6,229.4v-14.8l-4.2-1.9v10.1c0,6.2-7.1,11.3-13.3,11.3h-4.7V260h18l7.3-0.1
									v-19.8C252.7,236.9,251.6,233.2,251.6,229.4z"/>
								<path id="XMLID_1458_" fill="#3F6672" d="M227.3,234.1c-6.2,0-9.2-5-9.2-11.3v-10.1l-4.2,1.9v14.8c0,3.9-1.1,7.6-3.1,10.9
									v19.7l7.4,0.1h11.2v-25.9H227.3z"/>
							</g>
							<path id="XMLID_1456_" fill="#5B7D88" d="M254.7,246.5h-25c-3.5,0-6.3,2.8-6.3,6.3v4.5h31.3V246.5z"/>
							<path id="XMLID_1455_" fill="#FFFFFF" d="M236.5,215.3c0,0,6.2-2.4,6.2-6.8l3.4,4.9c0,0,0.9,3.4-4.8,8.3L236.5,215.3z"/>
						</g>
					</g>
				</g>
				<path id="XMLID_1451_" fill="#FFD2B6" d="M183.7,249.1c-0.8,0-1.6,0.3-2.3,0.8l-8.6,6.7h10.9v0.5h15.5v-1.3c0-3.7-3-6.7-6.7-6.7
					H183.7z"/>
				<path id="XMLID_1450_" fill="#ABD1EC" d="M219.7,259.1h40.3c3.5,0,6.3-1.5,6.3-6.3l-2.1-4.5h-33.7
					C224.5,248.3,219.7,253.2,219.7,259.1z"/>
				<g id="XMLID_1434_">
					<path id="XMLID_1449_" fill="#FFD2B6" d="M221.2,249.1c-0.8,0-1.6,0.3-2.3,0.8l-8.6,6.7h10.9v0.5h15.5v-1.3
						c0-3.7-3-6.7-6.7-6.7H221.2z"/>
					<path id="XMLID_1448_" fill="#808181" d="M224.1,256.5h-61.6v-3.4c0-0.1,0.1-0.2,0.2-0.2h61.1c0.1,0,0.2,0.1,0.2,0.2V256.5z"/>
					<path id="XMLID_1447_" fill="#494A4A" d="M196.3,256.5h-61.6v-3.4c0-0.1,0.1-0.2,0.2-0.2H196c0.1,0,0.2,0.1,0.2,0.2V256.5z"/>
					<path id="XMLID_1446_" fill="#B2B3B3" d="M204.1,242.2h-83.5c-0.8,0-1.4-0.6-1.4-1.4V187c0-0.8,0.6-1.4,1.4-1.4h83.5
						c0.8,0,1.4,0.6,1.4,1.4v53.8C205.5,241.6,204.9,242.2,204.1,242.2z"/>
					<path id="XMLID_1445_" fill="#494A4A" d="M201.7,242.2h-83.5c-0.8,0-1.4-0.6-1.4-1.4V187c0-0.8,0.6-1.4,1.4-1.4h83.5
						c0.8,0,1.4,0.6,1.4,1.4v53.8C203.1,241.6,202.4,242.2,201.7,242.2z"/>
					<g id="XMLID_1439_">
						<rect id="XMLID_1444_" x="130.6" y="233.5" width="1.5" height="4.6"/>
						<rect id="XMLID_1443_" x="134.1" y="233.5" width="1.5" height="4.6"/>
						<rect id="XMLID_1442_" x="137.5" y="233.5" width="1.5" height="4.6"/>
						<circle id="XMLID_1441_" cx="128" cy="234" r="0.9"/>
						<circle id="XMLID_1440_" cx="124.6" cy="234" r="0.9"/>
					</g>
					<rect id="XMLID_1438_" x="145.5" y="221.5" fill="#B2B3B3" width="21.8" height="35.5"/>
					<rect id="XMLID_1435_" x="144.3" y="221.5" fill="#7C7D7D" width="21.8" height="35.5"/>
				</g>
				<circle id="XMLID_1433_" fill="#FFFFFF" cx="233.1" cy="229" r="1.4"/>
				<polygon id="XMLID_1432_" fill="#FFFFFF" points="222.3,208.5 220.2,213.4 222.3,211.9 				"/>
				<g id="XMLID_1424_">
					<path id="XMLID_1431_" fill="#B60E0C" d="M86.8,116.4h32.3v7.9c0,8.5-7.2,14.3-16,14.3h-0.3c-8.9,0-16-5.8-16-14.3V116.4z"/>
					<path id="XMLID_1430_" fill="#D7C5C4" d="M119.2,116.4h32.3v7.9c0,8.5-7.2,14.3-16,14.3h-0.3c-8.9,0-16-5.8-16-14.3V116.4z"/>
					<path id="XMLID_1429_" fill="#B60E0C" d="M151.5,116.4h32.3v7.9c0,8.5-7.2,14.3-16,14.3h-0.3c-8.9,0-16-5.8-16-14.3V116.4z"/>
					<path id="XMLID_1428_" fill="#D7C5C4" d="M183.8,116.4h32.3v7.9c0,8.5-7.2,14.3-16,14.3h-0.3c-8.9,0-16-5.8-16-14.3V116.4z"/>
					<path id="XMLID_1427_" fill="#B60E0C" d="M216.2,116.4h32.3v7.9c0,8.5-7.2,14.3-16,14.3h-0.3c-8.9,0-16-5.8-16-14.3V116.4z"/>
					<path id="XMLID_1426_" fill="#D7C5C4" d="M248.5,116.4h32.3v7.9c0,8.5-7.2,14.3-16,14.3h-0.3c-8.9,0-16-5.8-16-14.3V116.4z"/>
					<path id="XMLID_1425_" fill="#B60E0C" d="M280.8,116.4h32.3v7.9c0,8.5-7.2,14.3-16,14.3h-0.3c-8.9,0-16-5.8-16-14.3V116.4z"/>
				</g>
				<rect id="XMLID_1423_" x="105.4" y="259.1" fill="#D2C7B9" width="189.8" height="51.1"/>
				<rect id="XMLID_1422_" x="105.1" y="262.5" fill="#DFD7C8" width="27.1" height="11.8"/>
				<rect id="XMLID_1421_" x="146" y="274.7" fill="#DFD7C8" width="27.1" height="11.8"/>
				<rect id="XMLID_1420_" x="187" y="262.5" fill="#DFD7C8" width="27.1" height="11.8"/>
				<rect id="XMLID_1419_" x="132.2" y="286.5" fill="#DFD7C8" width="27.1" height="11.8"/>
				<rect id="XMLID_1418_" x="199.7" y="298.1" fill="#DFD7C8" width="27.1" height="11.8"/>
				<rect id="XMLID_1417_" x="254" y="274.7" fill="#DFD7C8" width="27.1" height="11.8"/>
				<rect id="XMLID_1416_" x="200.5" y="274.7" fill="#DFD7C8" width="27.1" height="11.8"/>
				<rect id="XMLID_1415_" x="267.8" y="286.3" fill="#DFD7C8" width="27.1" height="11.8"/>
				<rect id="XMLID_1414_" x="105.1" y="298.1" fill="#DFD7C8" width="13.7" height="11.8"/>
				<rect id="XMLID_1413_" x="105.4" y="273.9" fill="#FFFFFF" width="189.8" height="1.4"/>
				<rect id="XMLID_1412_" x="105.4" y="285.8" fill="#FFFFFF" width="189.8" height="1.4"/>
				<rect id="XMLID_1411_" x="105.1" y="262" fill="#FFFFFF" width="189.8" height="1.4"/>
				<rect id="XMLID_1410_" x="105.4" y="297.7" fill="#FFFFFF" width="189.8" height="1.4"/>
				<g id="XMLID_1364_">
					<g id="XMLID_1403_">
						<rect id="XMLID_1409_" x="131.5" y="263.1" fill="#FFFFFF" width="1.4" height="11.2"/>
						<rect id="XMLID_1408_" x="158.6" y="263.1" fill="#FFFFFF" width="1.4" height="11.2"/>
						<rect id="XMLID_1407_" x="185.8" y="263.1" fill="#FFFFFF" width="1.4" height="11.2"/>
						<rect id="XMLID_1406_" x="212.9" y="263.1" fill="#FFFFFF" width="1.4" height="11.2"/>
						<rect id="XMLID_1405_" x="240" y="263.1" fill="#FFFFFF" width="1.4" height="11.2"/>
						<rect id="XMLID_1404_" x="267.1" y="263.1" fill="#FFFFFF" width="1.4" height="11.2"/>
					</g>
					<g id="XMLID_1395_">
						<rect id="XMLID_1402_" x="118" y="275.1" fill="#FFFFFF" width="1.4" height="11.2"/>
						<rect id="XMLID_1401_" x="145.1" y="275.1" fill="#FFFFFF" width="1.4" height="11.2"/>
						<rect id="XMLID_1400_" x="172.2" y="275.1" fill="#FFFFFF" width="1.4" height="11.2"/>
						<rect id="XMLID_1399_" x="199.3" y="275.1" fill="#FFFFFF" width="1.4" height="11.2"/>
						<rect id="XMLID_1398_" x="226.4" y="275.1" fill="#FFFFFF" width="1.4" height="11.2"/>
						<rect id="XMLID_1397_" x="253.5" y="275.1" fill="#FFFFFF" width="1.4" height="11.2"/>
						<rect id="XMLID_1396_" x="280.7" y="275.1" fill="#FFFFFF" width="1.4" height="11.2"/>
					</g>
					<g id="XMLID_1388_">
						<rect id="XMLID_1394_" x="131.5" y="287.1" fill="#FFFFFF" width="1.4" height="11.2"/>
						<rect id="XMLID_1393_" x="158.6" y="287.1" fill="#FFFFFF" width="1.4" height="11.2"/>
						<rect id="XMLID_1392_" x="185.8" y="287.1" fill="#FFFFFF" width="1.4" height="11.2"/>
						<rect id="XMLID_1391_" x="212.9" y="287.1" fill="#FFFFFF" width="1.4" height="11.2"/>
						<rect id="XMLID_1390_" x="240" y="287.1" fill="#FFFFFF" width="1.4" height="11.2"/>
						<rect id="XMLID_1389_" x="267.1" y="287.1" fill="#FFFFFF" width="1.4" height="11.2"/>
					</g>
					<g id="XMLID_1365_">
						<rect id="XMLID_1387_" x="118" y="299.1" fill="#FFFFFF" width="1.4" height="11.2"/>
						<rect id="XMLID_1386_" x="145.1" y="299.1" fill="#FFFFFF" width="1.4" height="11.2"/>
						<rect id="XMLID_1385_" x="172.2" y="299.1" fill="#FFFFFF" width="1.4" height="11.2"/>
						<rect id="XMLID_1372_" x="199.3" y="299.1" fill="#FFFFFF" width="1.4" height="11.2"/>
						<rect id="XMLID_1368_" x="226.4" y="299.1" fill="#FFFFFF" width="1.4" height="11.2"/>
						<rect id="XMLID_1367_" x="253.5" y="299.1" fill="#FFFFFF" width="1.4" height="11.2"/>
						<rect id="XMLID_1366_" x="280.7" y="299.1" fill="#FFFFFF" width="1.4" height="11.2"/>
					</g>
				</g>
				<rect id="XMLID_1363_" x="85.3" y="309.6" fill="#F5F5F5" width="229.3" height="9.2"/>
				<rect id="XMLID_1362_" x="85.3" y="314.2" fill="#C5C5C5" width="229.3" height="9.2"/>
				<rect id="XMLID_1361_" x="104.8" y="259.7" fill="#B4B4B4" width="190.3" height="5.5"/>
				<rect id="XMLID_1333_" x="103.8" y="256.6" fill="#FFFFFF" width="192.5" height="5.5"/>
			</g>
			<g id="XMLID_1324_">
				<polygon id="XMLID_1331_" fill="#EA6562" points="159.3,80.8 151.5,116.4 183.8,116.4 186.4,80.8 				"/>
				<polygon id="XMLID_1330_" fill="#FFFFF7" points="186.4,80.8 183.8,116.4 216.2,116.4 213.6,80.8 				"/>
				<polygon id="XMLID_1329_" fill="#FFFFF7" points="132.2,80.8 119.2,116.4 151.5,116.4 159.3,80.8 				"/>
				<polygon id="XMLID_1328_" fill="#EA6562" points="105.1,80.8 86.8,116.4 119.2,116.4 132.2,80.8 				"/>
				<polygon id="XMLID_1327_" fill="#EA6562" points="294.9,80.8 267.8,80.8 280.8,116.4 313.2,116.4 				"/>
				<polygon id="XMLID_1326_" fill="#FFFFF7" points="240.7,80.8 248.5,116.4 280.8,116.4 267.8,80.8 				"/>
				<polygon id="XMLID_1325_" fill="#EA6562" points="213.6,80.8 216.2,116.4 248.5,116.4 240.7,80.8 				"/>
			</g>
		</g>
		<g id="XMLID_1312_">
			<g id="XMLID_1319_">
				<g id="XMLID_1321_">
					<polygon id="XMLID_1322_" fill="#FFFFFF" points="191.9,157.6 201.5,157.3 207.7,173.4 191.6,167.2 					"/>
				</g>
				<circle id="XMLID_1320_" fill="#FFFFFF" cx="175.4" cy="143.2" r="29.9"/>
			</g>
			<g id="XMLID_1313_">
				<path id="XMLID_1316_" fill="#A7ADB5" d="M191.3,157.1l-31.7,0c-1,0-1.9-0.4-2.6-1.1c-0.7-0.7-1.1-1.6-1.1-2.6l0-19.3
					c0-1,0.4-1.9,1.1-2.6c0.7-0.7,1.6-1.1,2.6-1.1l31.7,0c1,0,1.9,0.4,2.6,1.1c0.7,0.7,1.1,1.6,1.1,2.6l0,19.3
					C194.9,155.5,193.3,157.1,191.3,157.1z M191.3,154.7c0.7,0,1.3-0.6,1.3-1.3l0-19.3c0-0.3-0.1-0.7-0.4-0.9
					c-0.2-0.2-0.6-0.4-0.9-0.4l-31.7,0c-0.7,0-1.3,0.6-1.3,1.3l0,19.3c0,0.3,0.1,0.7,0.4,0.9c0.2,0.2,0.6,0.4,0.9,0.4L191.3,154.7z"
					/>
				<rect id="XMLID_1315_" x="157.1" y="137.8" fill="#A7ADB5" width="36.7" height="4.1"/>
				<rect id="XMLID_1314_" x="161.8" y="148.3" fill="#A7ADB5" width="13.7" height="2.5"/>
			</g>
		</g>
		<g id="XMLID_1303_">
			<path id="XMLID_1311_" fill="#FFFFFF" d="M195,56.5c0,0.2-0.1,0.3-0.2,0.4c-0.1,0.1-0.3,0.2-0.4,0.2c0,0-3.3,0-4.6,0l-4.6,0
				c-0.2,0-0.3-0.1-0.4-0.2c-0.1-0.1-0.2-0.3-0.2-0.4v-9.2h-3.1V70h3.1v-9.2c0-0.3,0.3-0.6,0.6-0.6c1.4,0,2.8,0,4.2,0
				c1.4,0,3.5,0,4.9,0c0.3,0,0.6,0.3,0.6,0.6V70h3.1V47.3H195V56.5z"/>
			<path id="XMLID_1310_" fill="#FFFFFF" d="M176.5,59c-0.3-0.3-0.6-0.6-0.9-0.8c-0.5-0.3-1.1-0.6-1.7-0.7c-0.6-0.1-1.2-0.2-1.9-0.2
				h-4.7c-0.6,0-1.1-0.1-1.5-0.2c-0.3-0.1-0.5-0.2-0.6-0.3c-0.1-0.1-0.2-0.1-0.3-0.2c-0.1-0.1-0.2-0.3-0.3-0.5
				c-0.1-0.3-0.1-0.6-0.1-1v-2c0-0.5,0.1-0.9,0.2-1.2c0.1-0.2,0.2-0.4,0.3-0.6c0.2-0.2,0.4-0.4,0.8-0.5c0.4-0.2,0.9-0.2,1.5-0.2h4.7
				c0.5,0,1,0.1,1.4,0.2c0.2,0.1,0.4,0.2,0.6,0.3c0.1,0.1,0.2,0.2,0.3,0.3c0.1,0.2,0.3,0.4,0.3,0.7c0,0.1,0.1,0.3,0.1,0.4h3.1
				c0-0.6-0.2-1.1-0.4-1.7c-0.2-0.5-0.5-1-0.8-1.5c-0.5-0.6-1.2-1.1-2-1.4c-0.8-0.3-1.6-0.4-2.6-0.4h-4.7c-0.9,0-1.6,0.1-2.3,0.3
				c-0.6,0.2-1.1,0.4-1.5,0.8c-0.3,0.3-0.6,0.5-0.9,0.9c-0.4,0.5-0.7,1.1-0.9,1.7c-0.2,0.6-0.3,1.2-0.3,1.9v2c0,0.9,0.1,1.6,0.4,2.3
				c0.2,0.5,0.5,1,0.9,1.4c0.3,0.3,0.6,0.5,1,0.7c0.5,0.3,1.1,0.5,1.7,0.6c0.6,0.1,1.2,0.2,1.9,0.2h4.7c0.5,0,1,0.1,1.4,0.2
				c0.2,0.1,0.5,0.2,0.6,0.3c0.1,0.1,0.2,0.2,0.3,0.3c0.1,0.2,0.2,0.3,0.3,0.6c0.1,0.3,0.1,0.6,0.1,1v2c0,0.5-0.1,0.8-0.2,1.2
				c-0.1,0.2-0.2,0.3-0.3,0.5c-0.1,0.1-0.2,0.2-0.3,0.3c-0.2,0.1-0.5,0.2-0.8,0.3c-0.4,0.1-0.8,0.1-1.2,0.1h-4.7
				c-0.5,0-1-0.1-1.4-0.2c-0.3-0.1-0.5-0.2-0.6-0.3c-0.1-0.1-0.2-0.2-0.3-0.3c-0.1-0.2-0.2-0.3-0.3-0.6c0-0.1-0.1-0.3-0.1-0.4h-3.1
				c0,0.6,0.2,1.1,0.4,1.6c0.2,0.5,0.5,1,0.9,1.4c0.3,0.3,0.6,0.6,0.9,0.8c0.5,0.3,1.1,0.6,1.7,0.7c0.6,0.1,1.2,0.2,1.9,0.2h4.7
				c0.9,0,1.6-0.1,2.3-0.3c0.6-0.2,1.1-0.4,1.5-0.7c0.3-0.2,0.7-0.5,0.9-0.8c0.4-0.5,0.7-1,0.9-1.6c0.2-0.6,0.3-1.2,0.3-1.9v-2
				c0-0.8-0.1-1.6-0.4-2.3C177.2,59.8,176.9,59.4,176.5,59z"/>
			<path id="XMLID_1307_" fill="#FFFFFF" d="M215.5,48.6c-1.1-0.7-2.3-1.1-3.6-1.1h-3c-0.9,0-1.7,0.2-2.5,0.5
				c-1.1,0.5-2.1,1.3-2.8,2.3c-0.7,1.1-1.1,2.3-1.1,3.6v9.6c0,0.9,0.2,1.7,0.5,2.5c0.5,1.1,1.3,2.1,2.3,2.8c1.1,0.7,2.3,1.1,3.6,1.1
				h3c0.9,0,1.7-0.2,2.5-0.5c1.1-0.5,2.1-1.3,2.8-2.3c0.7-1.1,1.1-2.3,1.1-3.6v-9.6c0-0.9-0.2-1.7-0.5-2.5
				C217.3,50.3,216.5,49.3,215.5,48.6z M215.3,63.6c0,0.5-0.1,0.9-0.3,1.3c-0.3,0.6-0.7,1.1-1.2,1.5c-0.6,0.4-1.2,0.6-1.9,0.6h-3
				c-0.5,0-0.9-0.1-1.3-0.3c-0.6-0.3-1.1-0.7-1.5-1.2c-0.4-0.6-0.6-1.2-0.6-1.9v-9.6c0-0.5,0.1-0.9,0.3-1.3c0.3-0.6,0.7-1.1,1.2-1.5
				c0.6-0.4,1.2-0.6,1.9-0.6h3c0.5,0,0.9,0.1,1.3,0.3c0.6,0.3,1.1,0.7,1.5,1.2c0.4,0.6,0.6,1.2,0.6,1.9V63.6z"/>
			<path id="XMLID_1304_" fill="#FFFFFF" d="M238.2,51.9c-0.2-0.6-0.5-1.2-1-1.8c-0.6-0.8-1.5-1.5-2.5-1.9c-1-0.5-2.3-0.7-3.6-0.7
				h-8.5V70h3.1v-7.9c0-0.3,0.3-0.6,0.6-0.6h4.5c1,0,1.9-0.1,2.7-0.3c0.7-0.2,1.4-0.4,1.9-0.7c0.5-0.3,0.9-0.6,1.3-1
				c0.6-0.6,1.1-1.3,1.4-2.1c0.3-0.8,0.5-1.8,0.5-2.8C238.6,53.6,238.5,52.7,238.2,51.9z M235.5,55.7c-0.1,0.5-0.3,0.9-0.5,1.3
				c-0.2,0.2-0.4,0.4-0.6,0.6c-0.4,0.3-0.9,0.5-1.4,0.6c-0.6,0.1-1.2,0.2-2,0.2h-4.5c-0.3,0-0.6-0.3-0.6-0.6v-6.6
				c0-0.3,0.3-0.6,0.6-0.6h4.8c0.8,0,1.6,0.1,2.2,0.3c0.4,0.1,0.7,0.3,1,0.6c0.4,0.3,0.7,0.7,0.9,1.2c0.2,0.5,0.3,1.1,0.3,1.7
				C235.6,54.9,235.5,55.3,235.5,55.7z"/>
		</g>
	</g>
	<path id="XMLID_4_" fill="#BFC3C9" d="M298.6,235.8"/>
</g>
</svg>
