<?xml version="1.0" encoding="utf-8"?>
<!-- Generator: Adobe Illustrator 19.0.0, SVG Export Plug-In . SVG Version: 6.00 Build 0)  -->
<svg version="1.0" xmlns="http://www.w3.org/2000/svg" xmlns:xlink="http://www.w3.org/1999/xlink" x="0px" y="0px"
	 viewBox="0 0 400 400" enable-background="new 0 0 400 400" xml:space="preserve">
<g id="Layer_3" display="none">
	<circle id="XMLID_1193_" display="inline" fill="#5E5D23" cx="238" cy="238" r="181.5"/>
</g>
<g id="Layer_4">
	<linearGradient id="XMLID_2_" gradientUnits="userSpaceOnUse" x1="86.0954" y1="318.3309" x2="252.9579" y2="161.8972">
		<stop  offset="0" style="stop-color:#FFFFFF"/>
		<stop  offset="1" style="stop-color:#E9EFEE"/>
	</linearGradient>
	<polygon id="XMLID_1221_" fill="url(#XMLID_2_)" points="162.9,400 281.8,260.4 132.4,121.2 0,269.4 0,400 	"/>
	<linearGradient id="XMLID_3_" gradientUnits="userSpaceOnUse" x1="233.5925" y1="217.616" x2="334.9967" y2="122.5496">
		<stop  offset="0" style="stop-color:#FFFFFF"/>
		<stop  offset="1" style="stop-color:#E9EFEE"/>
	</linearGradient>
	<polygon id="XMLID_1222_" fill="url(#XMLID_3_)" points="293.8,267.6 360.1,190.5 294.1,129.6 133.8,204.7 164.8,249.7 	"/>
</g>
<g id="Layer_5">
	<circle id="XMLID_1279_" fill="#CBCBCB" cx="199.5" cy="199.5" r="102.5"/>
	<path id="XMLID_1190_" fill="#8F8F8F" d="M359.3,197.4L345.1,169l-25.4-50.9l-40.5,20.2l-3.9,1.9l1.8,3.6l-17.5,8.8l2.8,5.7
		c-0.2,0-0.3,0-0.5,0.1c0-0.2-0.1-0.3-0.1-0.5c-0.5,0.1-1.1,0.2-1.6,0.2c-0.5,0.1-1.1,0.2-1.6,0.3c-0.5,0.1-1.1,0.2-1.7,0.3
		c-0.2,0-0.4,0.1-0.6,0.1c-0.4,0.1-0.8,0.1-1.2,0.2c-0.2,0-0.5,0.1-0.8,0.1c-0.4,0-0.7,0.1-1.1,0.1c-0.3,0-0.6,0.1-0.9,0.1
		c-0.4,0-0.7,0.1-1.1,0.1c-0.3,0-0.7,0-1,0.1c-0.4,0-0.8,0-1.2,0.1c-0.3,0-0.7,0-1.1,0c-0.4,0-0.9,0-1.3,0c-1.6-0.5-3.2-1-4.7-1.5
		c-1.5-0.5-3.1-1-4.6-1.5c-0.7-0.3-1.5-0.5-2.2-0.7c-3.6-1.2-6.9-2.3-9.5-3.2c-2.1-0.7-3.7-1.2-4.8-1.5c-0.5-0.1-0.9-0.2-1-0.2
		c-2.5-0.8-33.8,0-39.4,0c-0.4,0-1,0.2-1.7,0.5c-0.7,0.3-1.4,0.8-2.2,1.3c-0.8,0.6-1.7,1.2-2.7,2c-1,0.8-2.1,1.6-3.2,2.5
		c-0.2,0.1-0.3,0.3-0.5,0.4c-0.1,0-0.2,0-0.3,0c-6.4,0.5-12.4,0.6-17.8,0.6c-2.7,0-5.2-0.1-7.5-0.2c-0.1,0-0.3,0-0.4,0
		c-1.1-0.1-2.1-0.1-3.1-0.2c-0.1,0-0.1,0-0.2,0c-0.1,0-0.2,0-0.4,0c-0.7,0-1.3-0.1-2-0.2l2.4-4.8l-17.5-8.8l1.8-3.6l-3.9-1.9
		l-40.5-20.2l-39.6,79.3l40.5,20.2l3.9,1.9l3.6-7.1l14.7,7.4l2.8,1.4l3.3-6.5c1,0.6,2.1,1.2,3.2,1.8c0,0,0.1,0,0.1,0
		c0.5,0.3,1,0.5,1.5,0.8c0.1,0.1,0.3,0.1,0.4,0.2c0.8,0.4,1.6,0.8,2.4,1.2c0.1,0,0.2,0.1,0.4,0.2c0,0,0.1,0,0.1,0.1
		c0.1,0.1,0.3,0.2,0.5,0.3c0.5,0.4,1.1,0.8,1.7,1.2c1.2,0.9,2.7,2,4.3,3.3c1.7,1.3,3.5,2.8,5.4,4.3c0.1,0.1,0.1,0.1,0.2,0.2
		c0.2,0.2,0.5,0.4,0.7,0.6c0.3,0.3,0.7,0.6,1,0.9l-0.5,0.9c-0.2,0.3-0.3,0.6-0.4,1l-0.9,1.6c-1.3,2.5-1.6,4.9-1.2,6.9
		c0.1,0.3,0.2,0.6,0.3,0.9c0,0.1,0.1,0.1,0.1,0.2c0.1,0.2,0.2,0.5,0.3,0.7c0,0.1,0.1,0.2,0.1,0.3c0.1,0.2,0.2,0.4,0.3,0.6
		c0.1,0.1,0.1,0.2,0.2,0.3c0.1,0.2,0.2,0.4,0.4,0.5c0.1,0.1,0.2,0.2,0.2,0.3c0.1,0.2,0.3,0.3,0.4,0.5c0.1,0.1,0.2,0.2,0.3,0.3
		c0.2,0.2,0.3,0.3,0.5,0.5c0.1,0.1,0.2,0.2,0.3,0.3c0.2,0.2,0.4,0.3,0.6,0.5c0.1,0.1,0.2,0.2,0.3,0.2c0.3,0.2,0.6,0.5,1,0.7
		c4.6,2.3,10.2,1.3,13.3-3.5c0,0,0.1,0.1,0.1,0.1c0,0.1,0,0.1-0.1,0.2l-1.4,2.7c-2.1,4.1-1.7,7.6,0.5,10.5c0,0,0,0.1,0.1,0.1
		c0.2,0.2,0.4,0.5,0.6,0.7c0,0.1,0.1,0.1,0.1,0.2c0.2,0.2,0.4,0.4,0.6,0.6c0.1,0.1,0.1,0.1,0.2,0.2c0.2,0.2,0.4,0.4,0.7,0.6
		c0.1,0.1,0.1,0.1,0.2,0.2c0.3,0.2,0.6,0.5,1,0.7c0.6,0.3,1.3,0.6,1.9,0.8c1,0.3,2,0.4,3,0.4c0.6,0,1.2-0.1,1.8-0.2
		c1.7-0.3,3.2-1,4.6-2.2c1.1-0.9,2-2.1,2.7-3.5l0.6-1.1c0.1,0.1,0.2,0.1,0.3,0.2l-0.6,1.2c-2.4,5-1.3,9,2.3,12.1
		c0,0,0.1,0.1,0.1,0.1c0.2,0.2,0.5,0.4,0.8,0.6c0.1,0,0.1,0.1,0.2,0.1c0.3,0.2,0.7,0.5,1,0.7c0.9,0.5,1.9,0.8,2.9,0.9
		c0.7,0.1,1.3,0.2,2,0.2c3.5,0,6.9-1.9,8.9-5.8c0.1,0,0.1,0.1,0.2,0.1c-2,4.6-0.9,8.4,2.5,11.4c0.3,0.3,0.6,0.5,0.8,0.7
		c0,0,0.1,0.1,0.1,0.1c0.3,0.2,0.6,0.5,1,0.7c0.6,0.3,1.3,0.6,1.9,0.8c1,0.3,2,0.4,3,0.4c3.1,0,6.1-1.4,8.1-4.2
		c0.3,0.2,0.5,0.3,0.8,0.5c0.3,0.2,0.7,0.4,1,0.6c4.3,2.4,7.1,3.9,7.1,3.9c0.6,0.3,1.3,0.5,2,0.7c0.7,0.2,1.3,0.3,2,0.3s1.3,0,1.9,0
		c0.6-0.1,1.2-0.2,1.8-0.3c1.2-0.3,2.3-0.9,3.2-1.6c0.9-0.7,1.7-1.7,2.2-2.8c0.2-0.5,0.4-0.9,0.5-1.4c0-0.1,0.1-0.3,0.1-0.4
		c0-0.1,0-0.1,0-0.2c0-0.1,0-0.2,0-0.2c0-0.1,0-0.1,0-0.2c0.1-0.4,0.2-0.8,0.2-1.2c0.1-1.2-0.1-2.5-0.4-3.6c-0.7-2.1-2.2-4-4.7-5.2
		l-1.4-0.8c0.1-0.1,0.2-0.1,0.3-0.2l10.7,6.1c1.4,0.6,2.8,0.9,4.3,1.1c1.4,0.1,2.9,0,4.2-0.3c1.3-0.3,2.6-0.9,3.6-1.6
		c1.1-0.8,2-1.8,2.6-3c0.2-0.4,0.4-0.9,0.6-1.3c0-0.1,0.1-0.2,0.1-0.2c0.4-1.5,0.5-3.1,0.2-4.7c0.6-3.7-3.8-7-6.9-8.8
		c0.1-0.1,0.2-0.1,0.3-0.2l8.8,4.6c5.8,2.7,12.3,0.8,14.6-4.2c0.3-0.6,0.4-1.1,0.6-1.7c0.1-0.2,0.1-0.5,0.1-0.7
		c0.1-0.3,0.1-0.6,0.1-1c0-0.3,0-0.6,0-1c0-0.2,0-0.4,0-0.7c-0.3-3.5-2.3-6.9-6.3-8.7c0,0-2.5-1.4-2.5-1.4c0.1-0.1,0.1-0.1,0.2-0.2
		l9.3,4.9c1.8,0.8,3.7,1.2,5.6,1.1c2.2-0.1,4.3-0.9,6.1-2.2c1.5-1.1,2.7-2.5,3.5-4.3c0.2-0.4,0.3-0.8,0.5-1.3c1.3-4.2,0-8.6-3-11.5
		c-0.3-0.3-0.6-0.5-0.9-0.8c0,0-0.1-0.1-0.1-0.1c-0.3-0.2-0.6-0.4-0.9-0.6c-0.1,0-0.1-0.1-0.2-0.1c-0.4-0.2-0.7-0.4-1.1-0.6
		c0,0-2.7-1.6-2.7-1.6c1.5-1.4,2.8-2.6,3.8-3.2c0.3-0.2,0.6-0.4,0.9-0.5c0.5-0.2,1-0.4,1.6-0.6c0.2-0.1,0.3-0.1,0.5-0.2
		c0.5-0.2,1-0.3,1.5-0.5c0.1,0,0.2-0.1,0.3-0.1c0.6-0.2,1.2-0.4,1.8-0.6c0.2-0.1,0.4-0.1,0.6-0.2c0.5-0.2,0.9-0.3,1.4-0.5
		c0.2-0.1,0.3-0.1,0.5-0.2c0.6-0.2,1.2-0.4,1.8-0.6c0.1,0,0.2-0.1,0.4-0.1c0.5-0.2,1-0.3,1.5-0.5c0.1,0,0.2-0.1,0.4-0.1
		c1-0.3,2-0.6,2.8-0.8l6.2,12.4l2.8-1.4l14.7-7.4l3.6,7.1l3.9-1.9L359.3,197.4z"/>
	<g id="XMLID_136_">
		<path id="XMLID_224_" fill="#F1C8A0" d="M195,185.9c13.8,46.2,6.9,79.2,6.9,79.2s30.2-15.9,43.4-29.2c5.4-5.4,16-17.9,22.7-24.2
			l-69.8-39.2C196.1,179.8,195,185.9,195,185.9z"/>
		<path id="XMLID_223_" fill="#EFC99C" d="M270.8,213.3l-67-41.2c-3.3-9.8-19.1-22-26.1-21.2c-29,3.5-53.1-1-53.1-1
			s-22.3,22.1-22.1,54c0,0,7.7,5.5,15.2,9c2.4,1.1,22.5,17.5,29.8,24.7c4.4,4.5,61.6,36.2,61.6,36.2c5.1,2.4,11,0.7,13-3.8
			c2-4.4,1-10.1-4.2-12.4l-14.9-8.6l0.6,0.1l23.9,13.6c5.6,2.3,12.2,1,14.7-3.8c2.5-4.9,0.3-11.6-5.3-14.5l-22.5-12.2l0.3-0.6
			l30.6,16.6c5.8,2.7,12.3,0.8,14.6-4.2c2.3-5,0.4-11-5.4-13.7l-32-17l0.1-0.4l38.9,20.7c5.8,2.7,12.6,0.2,15.1-5.4
			C279.2,222.6,276.6,215.9,270.8,213.3z"/>
		<path id="XMLID_222_" fill="#E9B68A" d="M222.6,262.8c-2.1,4.3-7.8,5.9-12.9,3.6c0,0-1.5-0.8-4-2.2c1.8-3.2,4.7-8.3,4.7-8.3
			c1.7-2.9,2.6-11.9-5.6-16.1c-3.7-1.9-8.2-1.5-10.3,0.4c1.2-5.5-1.1-10-6.4-12.7c-3.3-1.7-7.8-1.9-11.4,0.3
			c-0.1-3.7-2.9-7.9-6.1-9.5c-3.9-2-8.4-2-11.8,0.8c0.8-4.9-1.9-8.3-6.1-10.4c-5-2.5-14.3-2.7-18.2,3.4l-2.3,3.7
			c-0.2-0.1-1.1-0.9-2.4-1.9c-8-6.2-10-15.4-7.2-25.1c4.6-15.9,9.4-30.2,9.4-30.2c0-0.8-33.6,40-33.6,39.2c-0.4,3.2,3.8,2.6,3.9,6.1
			c0,0,7.7,5.5,15.2,9c2.4,1.1,22.5,17.5,29.8,24.7c4.4,4.5,61.6,36.2,61.6,36.2c5.1,2.4,11,0.7,13-3.8
			C223.2,267.8,223.3,265.2,222.6,262.8z"/>
		<g id="XMLID_220_">
			<path id="XMLID_221_" fill="#E9B68A" d="M242.4,254.3c-3.6,5.1-9.2,2.9-14.7,0.5L208.8,244l-1.9,6.9l20.6,11.8
				c5.6,2.3,12.2,1,14.7-3.8c1-1.9,1.2-4.1,0.8-6.2C242.9,253.2,242.8,253.8,242.4,254.3z"/>
		</g>
		<path id="XMLID_219_" fill="#C7976D" d="M172.4,237c2.9-5.8,0.3-11.2-4.7-13.7c-4.7-2.4-9.9-1.2-12.9,3.9
			c2.8-5.7-0.1-10.6-4.8-13.6c-5.8-3.6-12.5-2.8-15.4,3l-3.7,6.6c5.6,4.6,13.3,11.3,16.5,14.5c0.2,0.2,0.5,0.4,0.8,0.7
			c0.6-0.7,1.2-1.5,1.6-2.4l4.1-7.3l-5.4,10c2.8,2.1,9.3,6.1,17.2,10.7c0-0.1,0.1-0.1,0.1-0.1L172.4,237z"/>
		<path id="XMLID_218_" fill="#C7976D" d="M222.9,265.2c-0.1,1.2-0.4,2.4-0.9,3.5c-2,4.4-7.9,6.1-13,3.8c0,0-57.2-31.7-61.6-36.2
			c-4.4-4.5-13.9-12-20.8-18c-12.1-10.6-8-26.6-8-26.6l-8.6,15.8c-4.3-2.6-7.6-4.9-7.6-4.9c0-2.1-1.7-2.7-2.8-3.6
			c-0.3,0.3-0.5,0.6-0.7,0.7c1,1.5,3.5,1.7,3.5,4.4c0,0,2.9,2.1,7,4.5c0.6,0.4,1.2,0.7,1.8,1.1c0.1,0.1,0.2,0.1,0.3,0.2
			c0.6,0.3,1.2,0.7,1.8,1c0,0,0.1,0,0.1,0c0.6,0.3,1.2,0.7,1.9,1c0.1,0.1,0.3,0.2,0.4,0.2c0.6,0.3,1.3,0.6,1.9,0.9
			c0.1,0,0.2,0.1,0.4,0.2c0,0,0.1,0,0.1,0.1c0.1,0.1,0.3,0.2,0.5,0.3c0.5,0.3,1.1,0.8,1.7,1.2c6.3,4.7,21.1,16.9,27.1,22.9
			c4.4,4.5,61.6,36.2,61.6,36.2c5.1,2.4,11,0.7,13-3.8c0.7-1.5,1-3.1,0.9-4.6C223,265.4,223,265.3,222.9,265.2z"/>
		<path id="XMLID_217_" fill="#C7976D" d="M190.7,245.9c2.8-5.8,0-11.2-5-13.7c-5-2.4-10.4-0.9-13.2,4.9l-6.2,12.3c0,0,0,0.1,0,0.1
			c5.5,3.2,11.6,6.7,17.4,10c0.3-0.4,0.6-0.9,0.8-1.4L190.7,245.9z"/>
		<g id="XMLID_206_">
			<path id="XMLID_216_" fill="#EFC99C" d="M150.2,254.4c-5.1-3.4-7-7.9-4.1-13.7l6.5-12.1c2.9-5.8,8.3-7.2,13.3-4.7
				c5,2.5,7.6,8,4.7,13.7l-6.5,12.1C161.3,255.6,155.2,256.9,150.2,254.4z"/>
			<path id="XMLID_215_" fill="#F1C8A0" d="M155.4,230.3c0,0,2.4,5.1,9.2,5.9l-1.4,2.4c-1,1.7-3,2.5-4.8,1.9
				c-1.5-0.5-3.2-1.4-4.4-3.3c-0.8-1.2-0.8-2.8-0.1-4.1L155.4,230.3z"/>
			<path id="XMLID_214_" fill="#F8D5AC" d="M151.3,248.5c-4.3-2.8-5.8-6.6-3.4-11.4l5.4-10.1c2.4-4.8,6.9-6,11.1-3.9
				c4.1,2.1,6.3,6.6,3.9,11.4l-5.4,10.1C160.5,249.5,155.5,250.6,151.3,248.5z"/>
			<path id="XMLID_208_" fill="#FBE3C8" d="M157.7,225.9c1.9-2.5,4.5-1.6,7.3-0.1c2.8,1.5,5.2,4.2,3.4,6.7c-1.4,2-4.4,0.5-6.7-0.8
				C159,230.1,156.7,227.2,157.7,225.9z"/>
			<path id="XMLID_207_" fill="#FEFBF7" d="M157,230.9c1.1,1.4,3.3,3.5,6.9,4.3c0.7,0.1,1,0.9,0.6,1.5l-0.7,1.1
				c-1,1.7-3,2.5-4.8,1.9c-1.5-0.5-3.3-1.4-4.4-3.3c-0.8-1.2-0.8-2.8-0.1-4.1l0.7-1.3C155.6,230.4,156.5,230.3,157,230.9z"/>
		</g>
		<path id="XMLID_205_" fill="#C7976D" d="M242.6,256.7c-2.5,4.9-9.2,6.2-14.7,3.8l-19.9-11.3c-1-2.1-2.8-3.8-5-5
			c-5-2.5-10.4-1.1-13.3,4.7l-4.8,8.7c-0.4,0.7-0.7,1.5-0.9,2.2c6.4,3.7,12.5,7.1,17,9.6c0.7-0.8,1.3-1.7,1.9-2.7l4.8-8.7
			c1-2,1.4-4,1.1-5.9l18.6,10.6c5.6,2.3,12.2,1,14.7-3.8c0.6-1.1,0.9-2.2,1-3.4C243,255.9,242.9,256.3,242.6,256.7z"/>
		<g id="XMLID_199_">
			<path id="XMLID_204_" fill="#EFC99C" d="M134.2,241.2c-5.1-3.4-7-7.9-4.1-13.7l4.8-8.7c2.9-5.8,8.3-7.2,13.3-4.7
				c5,2.5,7.6,8,4.7,13.7l-4.8,8.7C145.3,242.4,139.2,243.7,134.2,241.2z"/>
			<path id="XMLID_203_" fill="#F8D5AC" d="M134.9,236.7c-4.4-2.9-6-6.8-3.5-11.7l4.1-7.4c2.5-4.9,7.1-6.1,11.4-4
				c4.3,2.1,6.5,6.8,4,11.7l-4.1,7.4C144.4,237.6,139.2,238.8,134.9,236.7z"/>
			<path id="XMLID_202_" fill="#F1C8A0" d="M137.8,220.6c0,0,2.4,5.1,9.2,5.9l-1.4,2.4c-1,1.7-3,2.5-4.8,1.9
				c-1.5-0.5-3.2-1.4-4.4-3.3c-0.8-1.2-0.8-2.8-0.1-4.1L137.8,220.6z"/>
			<path id="XMLID_201_" fill="#FBE3C8" d="M140.1,216.2c1.9-2.5,4.5-1.6,7.3-0.1c2.8,1.5,5.2,4.2,3.4,6.7c-1.4,2-4.4,0.5-6.7-0.8
				C141.3,220.4,139.1,217.5,140.1,216.2z"/>
			<path id="XMLID_200_" fill="#FEFBF7" d="M139.3,221.2c1.1,1.4,3.3,3.5,6.9,4.3c0.7,0.1,1,0.9,0.6,1.5l-0.7,1.1
				c-1,1.7-3,2.5-4.8,1.9c-1.5-0.5-3.3-1.4-4.4-3.3c-0.8-1.2-0.8-2.8-0.1-4.1l0.7-1.3C137.9,220.7,138.9,220.6,139.3,221.2z"/>
		</g>
		<path id="XMLID_198_" fill="#F8D5AC" d="M274.9,216.3c-1.1-1.3-2.4-2.3-4.1-3.1l-45.6-27.9c-8.5-4.1-16.6-6.8-22-8
			c-4-1-8.3-0.6-12,1.2c-2.2,1.1-6.3,2.1-13.3,4.1c-23.4,6.9-27.5-12.2-27.5-12.2l42.2-12.5c-5.4-4.4-11.3-7.5-15-7
			c-15.8,1.9-30.1,1.5-39.9,0.6c-1.5,4.5-3,9.1-4.7,13.9c-4.3,11.7,0.9,24.7,12,30.3c17.5,8.8,38.8,19.3,47.7,23.6
			c1.8,0.9,23.8,2.3,23.8,2.3l30,15.4c0,0,13.3,1.3,7.8-6.7l-37.9-21c3-2.7,5.8-4.9,8-4.9c2.9-0.1,35.3,16.7,40.5,18.9
			C269.2,225.1,275.3,223,274.9,216.3z"/>
		<g id="XMLID_192_">
			<path id="XMLID_197_" fill="#EFC99C" d="M187.2,271.9c-5.1-3.4-7-7.9-4.1-13.7l4.8-8.7c2.9-5.8,8.3-7.2,13.3-4.7
				c5,2.5,7.6,8,4.7,13.7l-4.8,8.7C198.3,273.1,192.2,274.5,187.2,271.9z"/>
			<path id="XMLID_196_" fill="#F8D5AC" d="M188,266.8c-4.3-2.8-5.8-6.6-3.4-11.5l4-7.2c2.4-4.8,7-6,11.1-3.9
				c4.2,2.1,6.4,6.7,3.9,11.5l-4,7.2C197.3,267.7,192.2,268.9,188,266.8z"/>
			<path id="XMLID_195_" fill="#F1C8A0" d="M190.8,251.4c0,0,2.4,5.1,9.2,5.9l-1.4,2.4c-1,1.7-3,2.5-4.8,1.9
				c-1.5-0.5-3.2-1.4-4.4-3.3c-0.8-1.2-0.8-2.8-0.1-4.1L190.8,251.4z"/>
			<path id="XMLID_194_" fill="#FBE3C8" d="M193.1,246.9c1.9-2.5,4.5-1.6,7.3-0.1c2.8,1.5,5.2,4.2,3.4,6.7c-1.4,2-4.4,0.5-6.7-0.8
				C194.3,251.2,192.1,248.2,193.1,246.9z"/>
			<path id="XMLID_193_" fill="#FEFBF7" d="M192.3,251.9c1.1,1.4,3.3,3.5,6.9,4.3c0.7,0.1,1,0.9,0.6,1.5l-0.7,1.1
				c-1,1.7-3,2.5-4.8,1.9c-1.5-0.5-3.3-1.4-4.4-3.3c-0.8-1.2-0.8-2.8-0.1-4.1l0.7-1.3C190.9,251.4,191.9,251.3,192.3,251.9z"/>
		</g>
		<g id="XMLID_186_">
			<path id="XMLID_191_" fill="#EFC99C" d="M168.9,263.7c-5.2-3.3-7.1-7.8-4.3-13.6l6.2-12.3c2.8-5.8,8.2-7.3,13.2-4.9
				c5,2.4,7.8,7.8,5,13.7l-6.2,12.3C180,264.6,173.9,266.1,168.9,263.7z"/>
			<path id="XMLID_190_" fill="#F8D5AC" d="M169.9,257.7c-4.3-2.7-5.9-6.5-3.6-11.3l5.2-10.2c2.3-4.8,6.8-6.1,11-4.1
				c4.2,2,6.5,6.5,4.2,11.3l-5.2,10.2C179.1,258.5,174.1,259.7,169.9,257.7z"/>
			<path id="XMLID_189_" fill="#F1C8A0" d="M173.6,239.5c0,0,2.5,5,9.4,5.7l-1.4,2.5c-0.9,1.7-2.9,2.5-4.8,2
				c-1.5-0.5-3.3-1.4-4.5-3.2c-0.8-1.2-0.8-2.8-0.2-4.1L173.6,239.5z"/>
			<path id="XMLID_188_" fill="#FBE3C8" d="M175.8,235c1.9-2.5,4.5-1.7,7.3-0.3c2.8,1.5,5.3,4.1,3.6,6.6c-1.4,2-4.3,0.6-6.7-0.7
				C177.1,239.2,174.8,236.3,175.8,235z"/>
			<path id="XMLID_187_" fill="#FEFBF7" d="M175.2,240c1.1,1.4,3.4,3.4,7,4.1c0.7,0.1,1,0.9,0.7,1.5l-0.6,1.1
				c-0.9,1.7-2.9,2.5-4.8,2c-1.6-0.5-3.3-1.4-4.5-3.2c-0.8-1.2-0.8-2.8-0.2-4.1l0.6-1.3C173.8,239.5,174.7,239.4,175.2,240z"/>
		</g>
		<g id="XMLID_184_">
			<path id="XMLID_185_" fill="#E9B68A" d="M276.9,224.8c-2.6,5.6-9.2,6.9-14.9,4.2l-35-18.1c-4.1-1.8-5.3-0.9-5.9-0.1
				c-0.4,0.5,0.7,1.9,1.5,2.3l39,20.5c5.8,2.7,12.6,0.2,15.1-5.4c0.8-1.7,1-3.5,0.9-5.2C277.4,223.6,277.2,224.2,276.9,224.8z"/>
		</g>
		<path id="XMLID_183_" fill="#C7976D" d="M159.3,177.9c0,0,9.2,5.2,22.7-4.9l5.7-3.7l18.5,6.2l23,11.8l-23.7-15.1l-10.4-6.3
			l-11.8,0.3L159.3,177.9z"/>
		<path id="XMLID_180_" fill="#E9B68A" d="M260.5,237.9c-0.1,0.5-0.3,1-0.5,1.6c-2.3,5-8.8,6.9-14.6,4.2L217,228.6
			c-2.2-1-4.6-1.2-5.1-0.2c-0.5,1,0.7,2.6,1.7,3.1l31.6,16.8c5.8,2.7,12.3,0.8,14.6-4.2C260.7,242,260.9,239.9,260.5,237.9z"/>
		<path id="XMLID_179_" fill="#E9B68A" d="M268.8,151.6c0,0-11.5,2.1-21.9,2.1c-0.1,0-0.1,0-0.2,0c-12.4-4-25.4-8.3-26.8-8.7
			c-2.5-0.8-33.8,0-39.4,0c-3.6,0-14,10.6-25.5,18.7c-4.3,3-2.2,18,13.1,14.7c7.9-1.7,19.1-11.4,19.1-11.4l18.7,6.8l62.2,38
			c2.1-2,3.8-3.4,4.8-3.8c6.2-2.5,17.5-5.7,17.5-5.7C290.5,170.3,268.8,151.6,268.8,151.6z"/>
		<path id="XMLID_178_" fill="#F8D5AC" d="M261.8,152.1c-4.3,0.6-8.5,1.6-15.1,1.5c0,0,0,0,0,0c-12.4-4-25.4-8.7-26.8-8.7
			c-9.3-0.3-33.8,0-39.4,0c-3.6,0-14,10.6-25.5,18.7c-1.4,1-2.2,3.4-1.9,5.9c3.1,3.4,8.4,6.6,15,2.5c7.7-4.8,16.6-12.4,16.6-12.4
			l24.5,7.5c0,0,24.4,16.4,37.4,22.2c5.9,2.7,9.7,4.9,16.2,4.1c5.6-0.7,9.2-6.4,7.6-11.9C268,173.6,264.6,161.7,261.8,152.1z"/>
		<path id="XMLID_177_" fill="#FBE3C8" d="M170.1,151.7c-12.7,1-24.1,0.6-32.2-0.1c-0.3,1-3.8,11.4-4.1,12.4
			c7.9,0.6,18.5,1,30.5,0.2C165.1,163.1,169.1,152.7,170.1,151.7z"/>
		<path id="XMLID_176_" fill="#C7976D" d="M268,211.7c2.1-2,3.8-3.4,4.8-3.8c4.5-1.8,11.6-4,15.2-5.1l-3.3-6c0,0-14.9,9.8-22.4,6.3
			c-7.5-3.4-56.5-29.5-56.5-29.5L268,211.7z"/>
		<path id="XMLID_175_" fill="#FBE3C8" d="M155.9,166.2c11.5-8.1,22-18.7,25.5-18.7c5.6,0,27.3,3.4,36.6,3.7
			c1.4,0,7.8,21.1,39.2,24.1c0.1,0-7.6-19.2-6.5-19.2c3.6-0.2,8-0.7,11.9-1.2c-0.3-1-0.6-1.9-0.8-2.9c-4.3,0.6-8.4,1.5-14.9,1.5
			c-0.1,0-0.1,0-0.2,0c-12.4-4-25.4-8.7-26.8-8.7c-9.3-0.3-33.8,0-39.4,0c-3.6,0-14,10.6-25.5,18.7c-1.4,1-2.2,3.4-1.9,5.9
			c0.3,0.3,0.5,0.6,0.8,0.8C154.1,168.6,154.8,167,155.9,166.2z"/>
		<path id="XMLID_174_" fill="#FEFBF7" d="M170.6,157.4l-3.3-3.3c-3.8,3.1-8.1,6.6-12.5,9.7c0,0,0,0.1,0,0.1c0.5,0.7,1.2,1.5,2,2.1
			c2.1,1.6,5.2,1.3,7.2-0.3l6.4-5.2C171.4,159.8,171.5,158.3,170.6,157.4z"/>
		<g id="XMLID_171_">
			<path id="XMLID_173_" fill="#FBE3C8" d="M216.5,209.3c-0.4,0.3-0.7,0.8-1.1,1.4c-0.9,1.4-0.5,3.3,1,4.1
				c9.1,5.2,37.2,21.3,37.7,21.3c1.7-0.5,2.7-3.1,0.3-5.7L216.5,209.3z"/>
			<path id="XMLID_172_" fill="#FBE3C8" d="M274.9,216.3c-1.1-1.3-2.4-2.3-4.1-3.1l-45.6-27.9c-8.5-4.1-16.6-6.8-22-8
				c-1.9-0.5-3.9-0.6-5.9-0.4c0.1,1,17.6,7.4,26.1,11.5l45.6,27.9c1.6,0.7,4.5,3.6,3.8,5.8C274.2,220.8,275,218.9,274.9,216.3z"/>
		</g>
		<g id="XMLID_165_">
			<path id="XMLID_170_" fill="#CCA77B" d="M148.2,236.6l4.8-8.7c1.4-2.8,1.5-5.5,0.7-7.8c0.5,2.1,0.2,4.4-1,6.8l-4.8,8.7
				c-2.9,5.8-9,7.1-14,4.6c-2.5-1.7-4.2-3.6-5-5.8c0.6,2.6,2.4,4.9,5.3,6.8C139.2,243.7,145.3,242.4,148.2,236.6z"/>
			<path id="XMLID_169_" fill="#CCA77B" d="M170.7,237.7c1.4-2.8,1.5-5.5,0.7-7.8c0.5,2.1,0.2,4.4-1,6.8l-6.5,12.1
				c-2.9,5.8-9,7.1-14,4.6c-2.5-1.7-4.2-3.6-5-5.8c0.5,2.6,2.4,4.9,5.2,6.8c5,2.5,11.1,1.1,14-4.6L170.7,237.7z"/>
			<path id="XMLID_167_" fill="#CCA77B" d="M189,246.5c1.3-2.7,1.4-5.2,0.7-7.5c0,0,0,0,0,0.1c0.4,2,0.2,4.2-0.9,6.4l-6.2,12.3
				c-2.8,5.8-8.9,7.3-13.9,4.9c-2.5-1.6-4.3-3.5-5.1-5.7c0.6,2.6,2.5,4.8,5.4,6.7c5,2.4,11.1,0.9,13.9-4.9L189,246.5z"/>
			<path id="XMLID_166_" fill="#CCA77B" d="M206.8,251.2c0,0,0,0.1,0,0.1c0.3,2,0,4.1-1.1,6.3l-4.8,8.7c-2.9,5.8-9,7.1-14,4.6
				c-2.4-1.6-4.1-3.5-4.9-5.6c0.6,2.6,2.4,4.8,5.2,6.6c5,2.5,11.1,1.1,14-4.6l4.8-8.7C207.4,256,207.5,253.5,206.8,251.2z"/>
		</g>
		<g id="XMLID_163_">
			<path id="XMLID_164_" fill="#FBE3C8" d="M236.1,243.8c-3.1-1.9-22.6-12.3-22.6-12.3s-1.8-1.1-1.7-3.1l-0.9,1.1
				c-1.9,2.4-1.5,4.8,1,6.6c6.2,4.5,19,10.8,21.2,12.3c3.8,2.5,7.4,4.1,6.9,8.3c0,0,2.6-1,3-3.9C243.7,249,239.3,245.7,236.1,243.8z
				"/>
		</g>
		<g id="XMLID_150_">
			
				<rect id="XMLID_162_" x="77" y="131.7" transform="matrix(0.8945 0.4471 -0.4471 0.8945 86.7641 -27.5865)" fill="#FFFFFF" width="49.6" height="76.6"/>
			
				<rect id="XMLID_161_" x="68.4" y="168.5" transform="matrix(0.8945 0.4471 -0.4471 0.8945 93.2893 -21.2124)" fill="#E6E6E6" width="46.5" height="37.1"/>
			
				<rect id="XMLID_160_" x="58.6" y="118.7" transform="matrix(0.8945 0.4471 -0.4471 0.8945 81.6929 -20.1021)" fill="#555554" width="49.6" height="88.6"/>
			
				<rect id="XMLID_159_" x="45.9" y="172.6" transform="matrix(0.8945 0.4471 -0.4471 0.8945 91.72 -11.7364)" fill="#424241" width="49.6" height="31.7"/>
			<g id="XMLID_152_">
				<circle id="XMLID_158_" fill="#FFFFFF" cx="80" cy="198.4" r="5.6"/>
				<g id="XMLID_153_">
					<circle id="XMLID_157_" fill="#555554" cx="78.8" cy="196.7" r="1.1"/>
					<circle id="XMLID_156_" fill="#555554" cx="81.6" cy="197" r="1.1"/>
					<circle id="XMLID_155_" fill="#555554" cx="78.5" cy="199.8" r="1.1"/>
					<circle id="XMLID_154_" fill="#555554" cx="81.3" cy="200.1" r="1.1"/>
				</g>
			</g>
			
				<rect id="XMLID_151_" x="101.5" y="128.8" transform="matrix(0.8945 0.4471 -0.4471 0.8945 88.3538 -28.0869)" fill="#424241" width="4.3" height="88.6"/>
		</g>
		<g id="XMLID_137_">
			
				<rect id="XMLID_149_" x="274.2" y="131.7" transform="matrix(-0.8945 0.4471 -0.4471 -0.8945 642.3865 188.4509)" fill="#FFFFFF" width="49.6" height="76.6"/>
			
				<rect id="XMLID_148_" x="286" y="168.5" transform="matrix(-0.8945 0.4471 -0.4471 -0.8945 669.3951 216.0996)" fill="#E6E6E6" width="46.5" height="37.1"/>
			
				<rect id="XMLID_147_" x="292.6" y="118.7" transform="matrix(-0.8945 0.4471 -0.4471 -0.8945 674.1002 166.9604)" fill="#555554" width="49.6" height="88.6"/>
			
				<rect id="XMLID_146_" x="305.3" y="172.6" transform="matrix(-0.8945 0.4471 -0.4471 -0.8945 709.5476 209.4517)" fill="#424241" width="49.6" height="31.7"/>
			<g id="XMLID_139_">
				<circle id="XMLID_145_" fill="#FFFFFF" cx="320.8" cy="198.4" r="5.6"/>
				<g id="XMLID_140_">
					<circle id="XMLID_144_" fill="#555554" cx="322" cy="196.7" r="1.1"/>
					<circle id="XMLID_143_" fill="#555554" cx="319.2" cy="197" r="1.1"/>
					<circle id="XMLID_142_" fill="#555554" cx="322.3" cy="199.8" r="1.1"/>
					<circle id="XMLID_141_" fill="#555554" cx="319.5" cy="200.1" r="1.1"/>
				</g>
			</g>
			
				<rect id="XMLID_138_" x="294.9" y="128.8" transform="matrix(-0.8945 0.4471 -0.4471 -0.8945 640.2661 195.1888)" fill="#424241" width="4.3" height="88.6"/>
		</g>
	</g>
</g>
</svg>
