<?xml version="1.0" standalone="no"?>
<!DOCTYPE svg PUBLIC "-//W3C//DTD SVG 1.1//EN" "http://www.w3.org/Graphics/SVG/1.1/DTD/svg11.dtd" >
<svg xmlns="http://www.w3.org/2000/svg" xmlns:xlink="http://www.w3.org/1999/xlink" version="1.1">
<metadata>
Created by FontForge 20170731 at Tue Dec  1 20:24:56 2020
 By Aleksey,,,
Copyright (c) 2016-2019 by TypeType. Designers Ivan Gladkikh, Pavel Emelyanov. Technical designers Vika Usmanova, Olexa Volochay, Nadyr Rakhimov. All rights reserved. |DCNT
</metadata>
<defs>
<font id="TTNormsPro-ThinItalic" horiz-adv-x="1187" >
  <font-face 
    font-family="TT Norms Pro Thin"
    font-weight="250"
    font-style="italic"
    font-stretch="normal"
    units-per-em="2048"
    panose-1="2 0 5 3 2 0 0 9 0 3"
    ascent="1434"
    descent="-614"
    x-height="983"
    cap-height="1434"
    bbox="-711 -451 3078 2028"
    underline-thickness="102"
    underline-position="-307"
    slope="-12"
    unicode-range="U+000D-FB06"
  />
<missing-glyph horiz-adv-x="0" 
 />
    <glyph glyph-name="f_f" unicode="ff" horiz-adv-x="1126" 
d="M246 0l198 942h-163l10 41h164l43 201q27 122 94 175.5t158 53.5q46 0 96 -16q14 -6 41 -15l-8 -41q-27 9 -41 15q-50 16 -97 16q-158 0 -202 -188l-43 -201h491l51 242q27 122 94 175.5t158 53.5q46 0 96 -16q14 -6 41 -15l-8 -41q-27 9 -41 15q-50 16 -96 16
q-159 0 -203 -188l-51 -242h246l-10 -41h-246l-199 -942h-41l199 942h-492l-198 -942h-41z" />
    <glyph glyph-name="uniFB01" unicode="fi" horiz-adv-x="1024" 
d="M246 0l198 942h-163l10 41h164l51 242q27 122 94 175.5t158 53.5q46 0 96 -16q14 -6 41 -15l-8 -41q-27 9 -41 15q-50 16 -96 16q-159 0 -203 -188l-51 -242h532l-209 -983h-41l199 942h-492l-198 -942h-41zM1079 1311q-17 0 -27 11t-10 28t14.5 30t33.5 13
q17 0 26.5 -10.5t9.5 -28.5q0 -17 -14 -30t-33 -13z" />
    <glyph glyph-name="f_f_i" unicode="ffi" horiz-adv-x="1556" 
d="M246 0l198 942h-163l10 41h164l43 201q27 122 94 175.5t158 53.5q46 0 96 -16q14 -6 41 -15l-8 -41q-27 9 -41 15q-50 16 -97 16q-158 0 -202 -188l-43 -201h491l51 242q27 122 94 175.5t158 53.5q46 0 96 -16q14 -6 41 -15l-8 -41q-27 9 -41 15q-50 16 -96 16
q-159 0 -203 -188l-51 -242h533l-209 -983h-41l198 942h-491l-199 -942h-41l199 942h-492l-198 -942h-41zM1612 1311q-17 0 -27 11t-10 28t14 30t33 13q17 0 27 -11t10 -28t-14 -30t-33 -13z" />
    <glyph glyph-name=".notdef" horiz-adv-x="0" 
 />
    <glyph glyph-name=".null" horiz-adv-x="0" 
 />
    <glyph glyph-name="nonmarkingreturn" horiz-adv-x="682" 
 />
    <glyph glyph-name="NULL" horiz-adv-x="0" 
 />
    <glyph glyph-name="NULL" horiz-adv-x="0" 
 />
    <glyph glyph-name="CR" unicode="&#xd;" horiz-adv-x="0" 
 />
    <glyph glyph-name="space" unicode=" " horiz-adv-x="409" 
 />
    <glyph glyph-name="exclam" unicode="!" horiz-adv-x="573" 
d="M324 297l241 1137h41l-241 -1137h-41zM297 82q17 0 27 -11t10 -28t-14 -30t-33 -13q-17 0 -27 11t-10 28t14 30t33 13z" />
    <glyph glyph-name="quotedbl" unicode="&#x22;" horiz-adv-x="655" 
d="M356 1004l90 430h41l-90 -430h-41zM643 1004l90 430h41l-90 -430h-41z" />
    <glyph glyph-name="numbersign" unicode="#" horiz-adv-x="1433" 
d="M274 0l193 471h-307l18 41h307l170 410h-319l20 41h318l192 471h45l-192 -471h504l192 471h45l-192 -471h307l-19 -41h-307l-170 -410h320l-21 -41h-317l-193 -471h-45l193 471h-504l-193 -471h-45zM530 512h504l170 410h-504z" />
    <glyph glyph-name="dollar" unicode="$" horiz-adv-x="1116" 
d="M494 -225l43 207q-48 6 -92 18t-77.5 27.5t-63 34t-50.5 38t-38.5 38t-29 35t-19.5 29t-11 20.5l-4 7l38 27l4 -8q3 -7 11.5 -21t20.5 -31.5t31 -37.5t42.5 -39t55.5 -37t68.5 -32t84.5 -22t100 -8q184 0 309 106t125 255q0 77 -37.5 137t-97.5 98.5t-132.5 72t-145 67.5
t-132.5 73.5t-97.5 101t-37.5 140.5q0 163 132.5 273t328.5 110q8 0 23 -1t22 -1l47 207h41l-47 -211q141 -21 256 -119q44 -38 80 -90l-35 -27q-5 8 -14.5 22t-44.5 49t-76.5 61.5t-112 48.5t-149.5 22q-174 0 -292 -100t-118 -238q0 -58 23.5 -105.5t63 -81t90.5 -62.5
t107.5 -54.5l113 -51t107.5 -57t90.5 -68.5t63 -90.5t23.5 -117.5q0 -172 -139.5 -290.5t-343.5 -118.5h-24l-43 -205h-41z" />
    <glyph glyph-name="percent" unicode="%" horiz-adv-x="1556" 
d="M301 0l1210 1434h54l-1211 -1434h-53zM608 819q-121 0 -195.5 77.5t-74.5 199.5q0 154 100.5 256t235.5 102q118 0 193 -78t75 -198q0 -154 -100.5 -256.5t-233.5 -102.5zM612 860q115 0 202 89t87 225q0 106 -64.5 172.5t-168.5 66.5q-115 0 -202 -88.5t-87 -224.5
q0 -106 64.5 -173t168.5 -67zM1257 614q121 0 196 -77t75 -199q0 -154 -100.5 -256t-235.5 -102q-118 0 -193 78t-75 198q0 154 100 256t233 102zM1253 573q-115 0 -201.5 -88.5t-86.5 -224.5q0 -106 64.5 -173t168.5 -67q115 0 202 89t87 225q0 106 -65 172.5t-169 66.5z
" />
    <glyph glyph-name="ampersand" unicode="&#x26;" horiz-adv-x="1239" 
d="M1255 51l-6 -41l-18 -6q-28 -4 -37 -4q-77 0 -147 70q-34 34 -56 71q-167 -161 -383 -161q-164 0 -268 93.5t-104 231.5q0 60 22 114t54 93.5t84.5 80t98.5 68.5t110 65q4 2 6.5 3.5t6.5 3.5t7 4q-42 56 -78 127q-76 144 -76 260q0 139 100 234.5t232 95.5
q118 0 195 -80.5t77 -199.5q0 -46 -12.5 -89t-31 -77t-52 -69t-62.5 -59.5t-76.5 -55t-79.5 -49.5t-85 -48l319 -518q168 191 226 467h36q-67 -321 -239 -504q87 -131 188 -131q5 0 33 4zM969 174l-328 535q-51 -28 -79.5 -45t-72.5 -45.5t-69.5 -50t-56 -53t-46.5 -61.5
t-27 -68t-11 -79q0 -122 91 -204.5t240 -82.5q101 0 196.5 42t162.5 112zM659 758q48 25 79.5 43t74.5 45.5t71.5 51t59.5 55.5t48.5 64t29.5 71.5t12 82.5q0 106 -66.5 174t-170.5 68q-114 0 -199.5 -82t-85.5 -205q0 -108 74 -245q41 -77 73 -123z" />
    <glyph glyph-name="quotesingle" unicode="'" horiz-adv-x="368" 
d="M356 1004l90 430h41l-90 -430h-41z" />
    <glyph glyph-name="parenleft" unicode="(" horiz-adv-x="665" 
d="M520 -430l-35 -21q-55 88 -96 203q-96 257 -96 535q0 468 297 878q130 180 297 310l26 -23q-165 -127 -290 -301q-125 -168 -207 -389.5t-82 -480.5q0 -276 92 -517q40 -108 94 -194z" />
    <glyph glyph-name="parenright" unicode=")" horiz-adv-x="665" 
d="M16 -451l-26 23q163 126 289 301q127 170 208.5 390t81.5 480q0 267 -94 517q-43 113 -92 194l35 21q52 -88 96 -203q96 -268 96 -535q0 -472 -297 -878q-133 -180 -297 -310z" />
    <glyph glyph-name="asterisk" unicode="*" horiz-adv-x="798" 
d="M369 870l174 236l-267 82l11 41l266 -82v287h41v-287l266 82l10 -41l-266 -82l174 -236l-30 -30l-175 235l-174 -235z" />
    <glyph glyph-name="plus" unicode="+" horiz-adv-x="1024" 
d="M625 184v400h-389v41h389v399h41v-399h389v-41h-389v-400h-41z" />
    <glyph glyph-name="comma" unicode="," horiz-adv-x="337" 
d="M-29 -236l230 318l45 -31l-256 -297z" />
    <glyph glyph-name="hyphen" unicode="-" horiz-adv-x="757" 
d="M225 584l8 41h553l-8 -41h-553z" />
    <glyph glyph-name="period" unicode="." horiz-adv-x="368" 
d="M215 82q17 0 27 -11t10 -28t-14 -30t-33 -13q-17 0 -27 11t-10 28t14 30t33 13z" />
    <glyph glyph-name="slash" unicode="/" horiz-adv-x="675" 
d="M-131 -430l1032 1884h45l-1032 -1884h-45z" />
    <glyph glyph-name="zero" unicode="0" horiz-adv-x="1351" 
d="M700 -20q-191 0 -316.5 157t-125.5 424q0 165 39.5 311t105.5 250.5t151.5 180.5t178.5 113.5t185 37.5q191 0 316.5 -157.5t125.5 -424.5q0 -167 -39.5 -313t-105.5 -250t-151.5 -179.5t-178.5 -112.5t-185 -37zM702 20q85 0 171.5 34.5t166.5 106.5t142 170.5
t99.5 237.5t37.5 297q0 254 -116 400.5t-294 146.5q-69 0 -140.5 -25t-139.5 -72.5t-128 -121t-105 -164.5t-71 -210.5t-26 -252.5q0 -251 115 -399t288 -148z" />
    <glyph glyph-name="one" unicode="1" horiz-adv-x="665" 
d="M379 0l285 1341q-40 -47 -78 -75q-107 -82 -236 -99l8 41q134 13 246 121q48 42 88 105h31l-303 -1434h-41z" />
    <glyph glyph-name="two" unicode="2" horiz-adv-x="1095" 
d="M154 41h825l-8 -41h-869q14 95 59.5 175t110 137.5t144.5 108t165 92.5t168.5 83.5t158 89t131.5 101.5t90.5 127.5t33.5 160.5q0 157 -103.5 247.5t-262.5 90.5q-172 0 -301 -117q-58 -58 -88 -114l-37 12q39 72 98 129q135 131 332 131q111 0 202 -43.5t147 -131
t56 -202.5q0 -92 -33 -170t-89.5 -135t-130 -107t-156.5 -92t-167 -82.5t-163.5 -86t-143.5 -96t-109.5 -119t-59.5 -148.5z" />
    <glyph glyph-name="three" unicode="3" horiz-adv-x="1085" 
d="M141 227l39 29l4 -8q4 -8 12 -21.5t19.5 -31.5t29.5 -37.5t40 -39t52.5 -37.5t65 -31.5t79 -21.5t93.5 -8q182 0 305.5 110.5t123.5 270.5q0 137 -106.5 236.5t-268.5 99.5h-90l8 41h153q182 0 298 96t116 240q0 124 -96 211.5t-260 87.5q-124 0 -240 -63
q-43 -22 -92 -64l-25 35q45 39 99 65q130 68 258 68q182 0 289.5 -98.5t107.5 -239.5q0 -65 -19.5 -121t-49 -93t-66.5 -66.5t-72 -46.5t-67 -28t-48.5 -14.5t-19.5 -3.5q66 -27 117 -73q117 -113 117 -258q0 -183 -140.5 -307.5t-341.5 -124.5q-206 0 -334 122
q-51 46 -90 125z" />
    <glyph glyph-name="four" unicode="4" horiz-adv-x="1105" 
d="M125 348l8 41l969 1045h41l-221 -1045h194l-8 -41h-195l-73 -348h-41l73 348h-747zM186 389h695l204 969z" />
    <glyph glyph-name="five" unicode="5" horiz-adv-x="1177" 
d="M223 227l37 27q29 -62 84 -117q125 -117 309 -117q191 0 323 129t132 326q0 157 -101.5 261t-261.5 104q-128 0 -245 -80q-48 -31 -88 -78h-41l209 752h675l-8 -41h-637l-178 -635q42 36 88 61q110 62 232 62q175 0 286 -116.5t111 -287.5q0 -142 -69 -256.5t-184 -177.5
t-251 -63q-204 0 -332 122q-51 46 -90 125z" />
    <glyph glyph-name="six" unicode="6" horiz-adv-x="1146" 
d="M430 821l543 613h49l-547 -623q33 22 68 35q94 35 186 35q186 0 302 -116.5t116 -289.5q0 -140 -68.5 -254.5t-182.5 -177.5t-247 -63q-186 0 -302 116t-116 289q0 47 7.5 92.5t24 85.5t31 71t38.5 64.5t36.5 50t36 43t25.5 29.5zM655 20q120 0 223 57.5t165.5 161.5
t62.5 232q0 161 -106.5 265t-276.5 104q-120 0 -223 -57.5t-165.5 -161.5t-62.5 -232q0 -161 106.5 -265t276.5 -104z" />
    <glyph glyph-name="seven" unicode="7" horiz-adv-x="972" 
d="M170 0l971 1393h-799l8 41h850l-8 -41l-971 -1393h-51z" />
    <glyph glyph-name="eight" unicode="8" horiz-adv-x="1167" 
d="M627 795q-83 39 -139 119.5t-56 177.5q0 151 122.5 256.5t299.5 105.5q174 0 280.5 -97.5t106.5 -232.5q0 -74 -30.5 -138.5t-79.5 -109t-107.5 -73.5t-118.5 -39q111 -42 179.5 -136.5t68.5 -215.5q0 -120 -71 -220.5t-184.5 -156t-240.5 -55.5q-195 0 -315.5 115
t-120.5 280q0 113 60 206.5t151 146.5t195 67zM475 1090q0 -122 94.5 -206.5t253.5 -84.5t267 94.5t108 228.5q0 122 -94.5 206.5t-253.5 84.5t-267 -94.5t-108 -228.5zM260 373q0 -146 111 -249.5t291 -103.5q188 0 319 113.5t131 272.5q0 146 -111.5 249t-289.5 103
q-188 0 -319.5 -113t-131.5 -272z" />
    <glyph glyph-name="nine" unicode="9" horiz-adv-x="1146" 
d="M412 0l546 623q-27 -19 -67 -35q-84 -35 -182 -35q-186 0 -302 116t-116 289q0 140 68 254.5t182 178t247 63.5q186 0 302 -116t116 -289q0 -76 -20 -146.5t-57 -129.5t-58.5 -87t-55.5 -66q-5 -6 -7 -8l-543 -612h-53zM782 1413q-120 0 -222.5 -57t-165 -161t-62.5 -232
q0 -161 106.5 -265t276.5 -104q120 0 222.5 57t165 161t62.5 232q0 161 -106.5 265t-276.5 104z" />
    <glyph glyph-name="colon" unicode=":" horiz-adv-x="368" 
d="M215 82q17 0 27 -11t10 -28t-14 -30t-33 -13q-17 0 -27 11t-10 28t14 30t33 13zM408 983q17 0 26.5 -10.5t9.5 -28.5q0 -17 -14 -30t-33 -13q-17 0 -27 11t-10 28t14.5 30t33.5 13z" />
    <glyph glyph-name="semicolon" unicode=";" horiz-adv-x="368" 
d="M397 901q-17 0 -27 11t-10 28t14.5 30t33.5 13q17 0 26.5 -10.5t9.5 -28.5q0 -17 -14 -30t-33 -13zM-29 -236l230 318l45 -31l-256 -297z" />
    <glyph glyph-name="less" unicode="&#x3c;" horiz-adv-x="1003" 
d="M215 481v41l758 410v-47l-709 -383l709 -383v-47z" />
    <glyph glyph-name="equal" unicode="=" horiz-adv-x="1024" 
d="M256 758v41h778v-41h-778zM256 410v41h778v-41h-778z" />
    <glyph glyph-name="greater" unicode="&#x3e;" horiz-adv-x="1003" 
d="M301 72v47l709 383l-709 383v47l758 -410v-41z" />
    <glyph glyph-name="question" unicode="?" horiz-adv-x="1034" 
d="M461 82q17 0 27 -11t10 -28t-14 -30t-33 -13q-17 0 -27 11t-10 28t14 30t33 13zM487 297l25 111q17 74 57.5 134t92 100t109.5 75.5t113 71t100 76.5t72 101.5t27 137.5q0 129 -101 219t-269 90q-172 0 -289 -117q-58 -58 -82 -116l-37 14q35 72 92 129q131 131 320 131
q183 0 295 -102t112 -244q0 -83 -27.5 -149t-73 -109t-101 -79.5t-114 -71t-109.5 -72t-91 -93.5t-55 -126l-25 -111h-41z" />
    <glyph glyph-name="at" unicode="@" horiz-adv-x="1802" 
d="M1337 -117l19 -33q-52 -34 -119 -59q-140 -57 -303 -57q-196 0 -353 94.5t-243 253.5t-86 350q0 182 72 344t190 273.5t272 176t316 64.5q152 0 283.5 -55.5t221 -147t140.5 -211.5t51 -249q0 -108 -30.5 -204t-80 -160.5t-111.5 -102t-124 -37.5q-73 0 -123.5 52
t-56.5 126q-34 -52 -78 -90q-95 -88 -231 -88q-126 0 -208.5 88.5t-82.5 237.5q0 97 34 180t89 137t122.5 84.5t135.5 30.5q141 0 221 -107q36 -45 55 -106l43 202h41l-90 -424q-30 -140 14.5 -211t126.5 -71q50 0 102 33.5t94.5 91.5t69.5 147t27 189q0 122 -49.5 235.5
t-135.5 199.5t-210.5 137.5t-265.5 51.5q-156 0 -302 -61t-256.5 -167t-177.5 -260t-67 -329q0 -134 48 -254.5t132 -209.5t206 -141t263 -52q142 0 283 53q59 20 112 55zM967 164q131 0 232 110t101 281q0 133 -70.5 209t-182.5 76q-131 0 -232.5 -110t-101.5 -281
q0 -133 71 -209t183 -76z" />
    <glyph glyph-name="A" unicode="A" horiz-adv-x="1351" 
d="M92 0l897 1434h41l291 -1434h-39l-92 451h-770l-281 -451h-47zM446 492h736l-178 886z" />
    <glyph glyph-name="B" unicode="B" horiz-adv-x="1341" 
d="M451 778h512q157 0 254.5 94.5t97.5 247.5q0 119 -82.5 196t-218.5 77h-432zM295 41h524q194 0 307 108.5t113 276.5q0 139 -95 225t-243 86h-459zM246 0l303 1434h465q153 0 247.5 -88.5t94.5 -227.5q0 -219 -180 -320q-54 -31 -132 -48q67 -22 119 -62
q119 -95 119 -258q0 -191 -130.5 -310.5t-332.5 -119.5h-573z" />
    <glyph glyph-name="C" unicode="C" horiz-adv-x="1525" 
d="M1462 260l31 -24q-67 -73 -158 -130q-208 -126 -430 -126q-141 0 -263.5 51.5t-209 140.5t-135.5 213.5t-49 267.5q0 170 69 321.5t181.5 255t259 164t299.5 60.5q256 0 432 -156q79 -69 127 -153l-37 -21q-49 80 -123 144q-177 145 -405 145q-143 0 -280.5 -57
t-244 -155t-172 -241t-65.5 -303q0 -130 45.5 -247t126 -203t197.5 -136.5t253 -50.5q210 0 404 119q80 51 147 121z" />
    <glyph glyph-name="D" unicode="D" horiz-adv-x="1495" 
d="M246 0l303 1434h301q139 0 263 -44t218.5 -125t149.5 -205t55 -274q0 -169 -64 -316t-173 -249.5t-258 -161.5t-316 -59h-479zM295 41h436q211 0 385.5 94.5t276.5 265t102 383.5q0 178 -84 317.5t-231 215.5t-330 76h-268z" />
    <glyph glyph-name="E" unicode="E" horiz-adv-x="1280" 
d="M246 0l303 1434h932l-8 -41h-891l-133 -625h727l-9 -41h-727l-145 -686h911l-8 -41h-952z" />
    <glyph glyph-name="F" unicode="F" horiz-adv-x="1239" 
d="M246 0l303 1434h921l-8 -41h-880l-138 -645h717l-8 -41h-717l-149 -707h-41z" />
    <glyph glyph-name="G" unicode="G" horiz-adv-x="1597" 
d="M1462 260l84 395h-420l9 41h460l-102 -460q-67 -73 -158 -130q-208 -126 -430 -126q-141 0 -263.5 51.5t-209 140.5t-135.5 213.5t-49 267.5q0 170 69 321.5t181.5 255t259 164t299.5 60.5q256 0 432 -156q79 -69 127 -153l-37 -21q-49 80 -123 144q-177 145 -405 145
q-143 0 -280.5 -57t-244 -155t-172 -241t-65.5 -303q0 -130 45.5 -247t126 -203t197.5 -136.5t253 -50.5q210 0 404 119q80 51 147 121z" />
    <glyph glyph-name="H" unicode="H" horiz-adv-x="1525" 
d="M246 0l303 1434h41l-146 -686h953l145 686h41l-303 -1434h-41l150 707h-953l-149 -707h-41z" />
    <glyph glyph-name="I" unicode="I" horiz-adv-x="532" 
d="M246 0l303 1434h41l-303 -1434h-41z" />
    <glyph glyph-name="J" unicode="J" horiz-adv-x="983" 
d="M55 143l37 29q22 -35 70 -76q92 -76 227 -76q143 0 260.5 97t149.5 250l227 1067h41l-227 -1072q-36 -168 -163 -275t-284 -107q-147 0 -256 81q-48 37 -82 82z" />
    <glyph glyph-name="K" unicode="K" horiz-adv-x="1331" 
d="M246 0l303 1434h41l-207 -971l1085 971h58l-674 -605l418 -829h-45l-406 803l-448 -402l-84 -401h-41z" />
    <glyph glyph-name="L" unicode="L" horiz-adv-x="1105" 
d="M246 0l303 1434h41l-295 -1393h799l-9 -41h-839z" />
    <glyph glyph-name="M" unicode="M" horiz-adv-x="1863" 
d="M246 0l303 1434h26l463 -912l848 912h35l-303 -1434h-41l287 1352l-838 -901l-453 901l-286 -1352h-41z" />
    <glyph glyph-name="N" unicode="N" horiz-adv-x="1587" 
d="M246 0l303 1434h31l737 -1356l287 1356h41l-304 -1434h-30l-736 1356l-288 -1356h-41z" />
    <glyph glyph-name="O" unicode="O" horiz-adv-x="1679" 
d="M1051 1413q-143 0 -281 -57.5t-244.5 -156t-171.5 -241t-65 -301.5q0 -178 78.5 -323t221.5 -229.5t322 -84.5q143 0 281 57.5t244.5 156t171.5 241t65 301.5q0 178 -78.5 323t-221.5 229.5t-322 84.5zM905 -20q-193 0 -344 91t-232 244t-81 338q0 134 44 259t122 222
t179.5 170t221.5 111.5t242 38.5q145 0 269 -53.5t208.5 -144.5t132 -214.5t47.5 -261.5q0 -167 -68.5 -317.5t-181 -255t-259.5 -166t-300 -61.5z" />
    <glyph glyph-name="P" unicode="P" horiz-adv-x="1320" 
d="M246 0l303 1434h434q177 0 297.5 -109t120.5 -285q0 -191 -141 -318.5t-351 -127.5h-497l-125 -594h-41zM420 635h493q197 0 322 116.5t125 295.5q0 152 -105 249t-260 97h-413z" />
    <glyph glyph-name="Q" unicode="Q" horiz-adv-x="1679" 
d="M1653 -236l-8 -40l-25 -7q-28 -4 -61 -4q-92 0 -169 23t-124 54.5t-83.5 75t-53 75t-27.5 63.5q-108 -24 -197 -24q-193 0 -344 91t-232 244t-81 338q0 134 44 259t122 222t179.5 170t221.5 111.5t242 38.5q145 0 269 -53.5t208.5 -144.5t132 -214.5t47.5 -261.5
q0 -136 -45 -261.5t-123 -223.5t-182 -170t-223 -109q11 -30 26.5 -58t49.5 -67.5t76.5 -67.5t112.5 -48.5t153 -20.5q25 0 61 4zM911 20q143 0 281 57.5t244.5 156t171.5 241t65 301.5q0 178 -78.5 323t-221.5 229.5t-322 84.5q-143 0 -281 -57.5t-244.5 -156t-171.5 -241
t-65 -301.5q0 -178 78.5 -323t221.5 -229.5t322 -84.5z" />
    <glyph glyph-name="R" unicode="R" horiz-adv-x="1372" 
d="M246 0l303 1434h475q177 0 283 -106t106 -253q0 -181 -116.5 -299.5t-297.5 -136.5l220 -639h-48l-215 635h-65h-471l-133 -635h-41zM430 676h531q183 0 297 113.5t114 285.5q0 134 -98 226t-250 92h-442z" />
    <glyph glyph-name="S" unicode="S" horiz-adv-x="1116" 
d="M152 229l38 27l4 -8q3 -7 11.5 -21t20.5 -31.5t31 -37.5t42.5 -39t55.5 -37t68.5 -32t84.5 -22t100 -8q184 0 309 106t125 255q0 77 -37.5 137t-97.5 98.5t-132.5 72t-145 67.5t-132.5 73.5t-97.5 101t-37.5 140.5q0 163 132.5 273t328.5 110q190 0 324 -108
q53 -42 98 -107l-35 -27q-5 8 -14.5 22t-44.5 49t-76.5 61.5t-112 48.5t-149.5 22q-174 0 -292 -100t-118 -238q0 -58 23.5 -105.5t63 -81t90.5 -62.5t107.5 -54.5l113 -51t107.5 -57t90.5 -68.5t63 -90.5t23.5 -117.5q0 -172 -139.5 -290.5t-343.5 -118.5
q-71 0 -134.5 13.5t-108 35.5t-81.5 48.5t-59.5 53.5t-38 49t-22.5 36z" />
    <glyph glyph-name="T" unicode="T" horiz-adv-x="1095" 
d="M502 0l295 1393h-492l8 41h1024l-8 -41h-491l-295 -1393h-41z" />
    <glyph glyph-name="U" unicode="U" horiz-adv-x="1536" 
d="M340 594l178 840h41l-178 -844q-33 -148 13.5 -279t159.5 -211t265 -80q122 0 236 61t196.5 170t112.5 243l199 940h41l-201 -949q-32 -144 -121 -260t-212 -180.5t-257 -64.5q-163 0 -284.5 87t-171.5 228.5t-17 298.5z" />
    <glyph glyph-name="V" unicode="V" horiz-adv-x="1290" 
d="M594 0l-260 1434h43l248 -1373l829 1373h47l-866 -1434h-41z" />
    <glyph glyph-name="W" unicode="W" horiz-adv-x="1986" 
d="M492 0l-158 1434h41l149 -1366l729 1366h21l151 -1366l727 1366h46l-764 -1434h-39l-150 1331l-710 -1331h-43z" />
    <glyph glyph-name="X" unicode="X" horiz-adv-x="1228" 
d="M61 0l684 737l-350 697h47l332 -660l610 660h56l-645 -697l372 -737h-47l-354 700l-649 -700h-56z" />
    <glyph glyph-name="Y" unicode="Y" horiz-adv-x="1228" 
d="M563 0l107 502l-336 932h43l317 -887l695 887h51l-729 -932l-107 -502h-41z" />
    <glyph glyph-name="Z" unicode="Z" horiz-adv-x="1146" 
d="M92 0l8 41l1194 1352h-876l8 41h932l-8 -41l-1192 -1352h925l-8 -41h-983z" />
    <glyph glyph-name="bracketleft" unicode="[" horiz-adv-x="706" 
d="M154 -430l399 1884h358l-8 -41h-317l-383 -1802h317l-8 -41h-358z" />
    <glyph glyph-name="backslash" unicode="\" horiz-adv-x="675" 
d="M584 -430l-236 1884h41l236 -1884h-41z" />
    <glyph glyph-name="bracketright" unicode="]" horiz-adv-x="706" 
d="M10 -430l8 41h318l383 1802h-318l9 41h358l-399 -1884h-359z" />
    <glyph glyph-name="asciicircum" unicode="^" horiz-adv-x="778" 
d="M297 881l246 553h41l245 -553h-41l-225 512l-225 -512h-41z" />
    <glyph glyph-name="underscore" unicode="_" horiz-adv-x="634" 
d="M-51 -297l8 41h674l-8 -41h-674z" />
    <glyph glyph-name="grave" unicode="`" horiz-adv-x="327" 
d="M473 1167l-113 246h48l102 -246h-37z" />
    <glyph glyph-name="a" unicode="a" horiz-adv-x="1024" 
d="M895 389l37 174l-465 -76q-260 -43 -260 -241q0 -92 77 -159t203 -67q154 0 263.5 99.5t144.5 269.5zM813 0l45 211q-29 -62 -84 -117q-118 -114 -297 -114q-143 0 -227 78.5t-84 185.5q0 232 319 284l457 76q37 146 -44 252.5t-230 106.5q-107 0 -209 -62
q-50 -29 -80 -59l-25 32q46 42 86 64q110 66 230 66q110 0 190.5 -54t112.5 -146.5t8 -201.5l-127 -602h-41z" />
    <glyph glyph-name="b" unicode="b" horiz-adv-x="1234" 
d="M205 0l303 1434h41l-141 -670q51 71 110 119q148 121 313 121q167 0 280.5 -127t113.5 -326q0 -124 -46.5 -233t-121 -181.5t-168.5 -114.5t-189 -42q-151 0 -253 97.5t-132 254.5l-69 -332h-41zM707 20q86 0 170.5 38t153 105t111 168.5t42.5 217.5q0 184 -102.5 299
t-256.5 115q-86 0 -170.5 -38t-153 -105t-111 -168.5t-42.5 -217.5q0 -184 102.5 -299t256.5 -115z" />
    <glyph glyph-name="c" unicode="c" horiz-adv-x="1064" 
d="M971 168l30 -25q-44 -45 -100 -82q-124 -81 -264 -81q-183 0 -302.5 126.5t-119.5 327.5q0 122 46 230t121.5 181.5t172.5 116t199 42.5q167 0 282 -111q53 -50 80 -111l-39 -16q-27 55 -73 98q-103 99 -256 99q-95 0 -184 -39t-157.5 -106.5t-109.5 -167.5t-41 -214
q0 -186 109.5 -301t277.5 -115q130 0 238 74q47 31 90 74z" />
    <glyph glyph-name="d" unicode="d" horiz-adv-x="1228" 
d="M989 0l47 223q-50 -76 -108 -123q-137 -120 -316 -120q-166 0 -281.5 125t-115.5 315q0 122 45 232t118.5 186.5t169 121t193.5 44.5q82 0 152 -31.5t117 -83.5t76.5 -114.5t39.5 -129.5l166 789h41l-303 -1434h-41zM616 20q86 0 170.5 38t153.5 105t111.5 168.5
t42.5 217.5q0 184 -102.5 299t-256.5 115q-86 0 -170.5 -38t-153 -105t-111 -168.5t-42.5 -217.5q0 -184 102 -299t256 -115z" />
    <glyph glyph-name="e" unicode="e" horiz-adv-x="1136" 
d="M969 168l30 -25q-42 -45 -100 -82q-130 -81 -272 -81q-176 0 -294 125.5t-118 322.5q0 127 45 237t119 183t167 114.5t189 41.5q176 0 290 -118t114 -306q0 -24 -4 -70l-5 -39h-872q-2 -4 -2 -14v-37q0 -168 106.5 -284t270.5 -116q138 0 246 74q47 31 90 74zM262 512
h834q0 19 2 29q0 8 1 23t1 22q0 165 -103.5 271t-263.5 106q-110 0 -209 -51.5t-171 -156t-91 -243.5z" />
    <glyph glyph-name="f" unicode="f" horiz-adv-x="593" 
d="M246 0l198 942h-163l10 41h164l51 242q27 122 94 175.5t158 53.5q46 0 96 -16q14 -6 41 -15l-8 -41q-27 9 -41 15q-50 16 -96 16q-159 0 -203 -188l-51 -242h245l-10 -41h-246l-198 -942h-41z" />
    <glyph glyph-name="g" unicode="g" horiz-adv-x="1198" 
d="M135 -188l35 18q27 -61 74 -111q108 -108 270 -108q164 0 291.5 115.5t167.5 298.5l49 229q-44 -64 -102 -117q-135 -117 -304 -117q-173 0 -285 120t-112 313q0 120 44 225t115.5 175t162.5 110.5t186 40.5q80 0 148.5 -27.5t115.5 -74t77.5 -104t43.5 -120.5l66 305h41
l-205 -963q-41 -198 -181 -324t-319 -126q-182 0 -295 121q-54 54 -84 121zM616 61q84 0 167 38.5t148 104.5t105.5 162t40.5 203q0 170 -96.5 282t-255.5 112q-83 0 -165.5 -37.5t-148 -102.5t-106.5 -161.5t-41 -206.5q0 -177 99 -285.5t253 -108.5z" />
    <glyph glyph-name="h" unicode="h" 
d="M205 0l303 1434h41l-135 -639q50 87 146 148t210 61q131 0 220.5 -63t122 -165t7.5 -223l-116 -553h-41l116 553q22 109 -5 201t-107.5 150.5t-202.5 58.5q-137 0 -245 -97t-144 -260l-129 -606h-41z" />
    <glyph glyph-name="i" unicode="i" horiz-adv-x="450" 
d="M205 0l209 983h41l-209 -983h-41zM506 1311q-17 0 -27 11t-10 28t14 30t33 13q17 0 27 -11t10 -28t-14 -30t-33 -13z" />
    <glyph glyph-name="j" unicode="j" horiz-adv-x="450" 
d="M506 1311q-17 0 -27 11t-10 28t14 30t33 13q17 0 27 -11t10 -28t-14 -30t-33 -13zM-190 -385l8 41q11 -11 39 -23q39 -22 104 -22q75 0 127 46.5t72 137.5l254 1188h41l-254 -1188q-23 -108 -89.5 -166.5t-160.5 -58.5q-66 0 -105 22q-23 10 -36 23z" />
    <glyph glyph-name="k" unicode="k" horiz-adv-x="1024" 
d="M205 0l303 1434h41l-238 -1121l750 670h59l-446 -399l299 -584h-47l-285 555l-344 -307l-51 -248h-41z" />
    <glyph glyph-name="l" unicode="l" horiz-adv-x="450" 
d="M205 0l303 1434h41l-303 -1434h-41z" />
    <glyph glyph-name="m" unicode="m" horiz-adv-x="1771" 
d="M195 0l208 983h41l-41 -188q36 60 82 104q113 105 246 105q174 0 256 -144q37 -68 45 -143q46 120 145.5 203.5t235.5 83.5q166 0 249 -131t42 -322l-117 -551h-41l117 555q37 174 -37 291t-229 117q-125 0 -225 -98t-132 -259l-129 -606h-41l113 535q41 186 -36 307
t-226 121q-118 0 -219.5 -94t-136.5 -263l-129 -606h-41z" />
    <glyph glyph-name="n" unicode="n" horiz-adv-x="1177" 
d="M195 0l208 983h41l-41 -188q50 87 146.5 148t210.5 61q131 0 220.5 -63t122 -165t7.5 -223l-117 -553h-41l117 553q22 109 -5 201t-107.5 150.5t-202.5 58.5q-137 0 -245 -97t-144 -260l-129 -606h-41z" />
    <glyph glyph-name="o" unicode="o" 
d="M637 -20q-184 0 -303 128t-119 326q0 124 46.5 232t122 181t172.5 115t198 42q184 0 303 -128.5t119 -326.5q0 -164 -79 -296.5t-201.5 -202.5t-258.5 -70zM748 963q-93 0 -181.5 -38.5t-157.5 -106t-111 -168t-42 -216.5q0 -183 108.5 -298.5t278.5 -115.5
q93 0 181.5 38.5t157.5 106t111 168t42 216.5q0 183 -108.5 298.5t-278.5 115.5z" />
    <glyph glyph-name="p" unicode="p" horiz-adv-x="1239" 
d="M113 -430l301 1413h41l-47 -223q52 75 108 121q141 123 315 123q166 0 282 -125.5t116 -315.5q0 -122 -45.5 -232t-119 -186t-169 -120.5t-193.5 -44.5q-81 0 -151 31t-117.5 83t-77.5 114.5t-39 129.5l-163 -768h-41zM827 963q-86 0 -170.5 -38t-153 -105t-111 -168.5
t-42.5 -217.5q0 -184 102.5 -299t256.5 -115q86 0 170.5 38t153 105t111 168.5t42.5 217.5q0 184 -102.5 299t-256.5 115z" />
    <glyph glyph-name="q" unicode="q" horiz-adv-x="1218" 
d="M893 -430l139 649q-49 -72 -110 -121q-144 -118 -314 -118q-167 0 -280 126.5t-113 325.5q0 124 46 233t120.5 182t168.5 115t189 42q151 0 253 -98t132 -255l70 332h41l-301 -1413h-41zM733 963q-86 0 -170.5 -38t-153 -105t-111 -168.5t-42.5 -217.5q0 -184 102 -299
t256 -115q86 0 170.5 38t153.5 105t111.5 168.5t42.5 217.5q0 184 -102.5 299t-256.5 115z" />
    <glyph glyph-name="r" unicode="r" horiz-adv-x="706" 
d="M195 0l208 983h41l-47 -215q37 64 90 117q127 119 291 119h80l-10 -41h-76q-142 0 -259 -103t-153 -266l-124 -594h-41z" />
    <glyph glyph-name="s" unicode="s" horiz-adv-x="890" 
d="M141 178l37 27q0 -2 10 -20t34 -46t58 -54.5t89.5 -45.5t119.5 -19q130 0 216 73t86 179q0 47 -27 85t-70 64t-95 49.5t-104 47.5t-95 52t-70 69.5t-27 93.5q0 111 92.5 191t222.5 80q166 0 280 -129q12 -14 36 -48l-39 -26q-25 40 -68 80q-94 82 -213 82
q-114 0 -191 -67t-77 -159q0 -45 27 -81.5t70 -61.5t95 -48t104 -47t95 -52.5t70 -71.5t27 -96q0 -125 -102 -212t-249 -87q-156 0 -266 98q-53 49 -76 100z" />
    <glyph glyph-name="t" unicode="t" horiz-adv-x="675" 
d="M317 246l148 696h-205l10 41h144q61 0 73 61l58 267h41l-70 -328h225l-10 -41h-225l-150 -706q-22 -103 25 -159.5t131 -56.5q36 0 76 15q36 16 37 16l-9 -45q-13 -8 -32 -14q-46 -12 -78 -12q-99 0 -157 72t-32 194z" />
    <glyph glyph-name="u" unicode="u" 
d="M287 430l116 553h41l-116 -553q-22 -109 5 -201t107.5 -150.5t202.5 -58.5q137 0 245 97t144 260l129 606h41l-209 -983h-41l41 188q-48 -86 -144.5 -147t-211.5 -61q-99 0 -175.5 36.5t-119 98.5t-59.5 143.5t4 171.5z" />
    <glyph glyph-name="v" unicode="v" horiz-adv-x="962" 
d="M440 0l-190 983h43l178 -922l571 922h48l-609 -983h-41z" />
    <glyph glyph-name="w" unicode="w" horiz-adv-x="1413" 
d="M358 0l-108 983h41l100 -915l492 915h20l103 -915l489 915h45l-526 -983h-39l-103 879l-471 -879h-43z" />
    <glyph glyph-name="x" unicode="x" horiz-adv-x="921" 
d="M61 0l484 512l-244 471h47l223 -436l412 436h55l-444 -471l266 -512h-47l-248 477l-448 -477h-56z" />
    <glyph glyph-name="y" unicode="y" horiz-adv-x="962" 
d="M-16 -410l8 41l20 -10q23 -10 58 -10q128 0 227 164l143 231l-190 977h43l180 -922l569 922h48l-746 -1208q-68 -114 -132 -159.5t-151 -45.5q-34 0 -57 10z" />
    <glyph glyph-name="z" unicode="z" horiz-adv-x="870" 
d="M72 0l8 41l860 901h-649l10 41h707l-11 -41l-858 -901h688l-8 -41h-747z" />
    <glyph glyph-name="braceleft" unicode="{" horiz-adv-x="737" 
d="M561 -430h-10q-140 0 -208.5 73.5t-41.5 202.5l100 461q18 81 -17 133t-118 52l8 40q89 0 138 36t67 108l115 541q26 123 94 180t191 57h82l-9 -41h-73q-110 0 -165.5 -44t-78.5 -152l-115 -541q-22 -101 -102 -146q-33 -19 -78 -22q35 -14 63 -39q59 -59 39 -162
l-100 -461q-15 -57 -5.5 -97.5t28.5 -67t53 -42.5t68 -22t73 -6h10z" />
    <glyph glyph-name="bar" unicode="|" horiz-adv-x="532" 
d="M399 -430v1884h41v-1884h-41z" />
    <glyph glyph-name="braceright" unicode="}" horiz-adv-x="737" 
d="M10 -430l8 41h74q110 0 165.5 44t78.5 152l115 541q19 100 102 146q40 19 78 22q-37 12 -64 39q-61 61 -39 162l101 461q14 57 4.5 98.5t-28 68t-52 41.5t-67 21t-74.5 6h-11l9 41h10q139 0 209 -74.5t41 -201.5l-101 -461q-18 -81 17 -133t119 -52l-9 -40
q-89 0 -137.5 -36t-66.5 -108l-115 -541q-26 -123 -94 -180t-191 -57h-82z" />
    <glyph glyph-name="asciitilde" unicode="~" horiz-adv-x="1044" 
d="M266 522l-30 21q22 42 55 75q78 78 170 78q51 0 94.5 -16t75 -38t62.5 -44.5t71 -38.5t86 -16q82 0 147 65q30 30 47 68l31 -21q-21 -43 -55 -77q-76 -76 -170 -76q-51 0 -94.5 16t-75 38t-62.5 44.5t-71 38.5t-86 16q-81 0 -148 -67q-29 -29 -47 -66z" />
    <glyph glyph-name="nbspace" unicode="&#xa0;" horiz-adv-x="409" 
 />
    <glyph glyph-name="exclamdown" unicode="&#xa1;" horiz-adv-x="573" 
d="M174 -430l238 1116h41l-238 -1116h-41zM479 901q-17 0 -27 11t-10 28t14 30t33 13q17 0 27 -11t10 -28t-14 -30t-33 -13z" />
    <glyph glyph-name="cent" unicode="&#xa2;" horiz-adv-x="1064" 
d="M528 -225l43 209q-161 27 -257.5 147t-96.5 303q0 122 46 230t121.5 181.5t172.5 116t199 42.5h35l43 204h40l-45 -211q131 -23 224 -120q36 -39 65 -95l-39 -16q-27 55 -73 98q-103 99 -256 99q-95 0 -184 -39t-157.5 -106.5t-109.5 -167.5t-41 -214q0 -186 109.5 -301
t277.5 -115q130 0 238 74q47 31 90 74l31 -25q-42 -42 -101 -82q-124 -81 -264 -81h-27l-43 -205h-41z" />
    <glyph glyph-name="sterling" unicode="&#xa3;" horiz-adv-x="1085" 
d="M102 0l9 41q80 0 142 47t79 127l94 440h-154l9 41h153l80 381q36 179 153 278t269 99q146 0 254 -92q54 -44 80 -90l-35 -29q-29 46 -74 84q-98 86 -231 86q-136 0 -238 -90.5t-137 -247.5l-80 -379h430l-8 -41h-430l-96 -450q-17 -85 -76 -133q-25 -22 -55 -31h772
l-8 -41h-902z" />
    <glyph glyph-name="currency" unicode="&#xa4;" horiz-adv-x="1167" 
d="M461 686q0 -116 80.5 -196t195.5 -80q116 0 196.5 80.5t80.5 195.5q0 116 -81 196.5t-196 80.5t-195.5 -80.5t-80.5 -196.5zM358 338l140 139q-27 31 -39 55q-39 59 -39 154t39 154q12 24 39 55l-140 139l31 31l139 -139q20 17 56 39q76 39 153 39q78 0 154 -39
q33 -20 55 -39l139 139l31 -31l-139 -139q19 -22 39 -55q39 -76 39 -154t-39 -154q-20 -33 -39 -55l139 -139l-31 -31l-139 139q-28 -24 -55 -38q-59 -39 -154 -39q-94 0 -153 39q-29 15 -56 38l-139 -139z" />
    <glyph glyph-name="yen" unicode="&#xa5;" horiz-adv-x="1228" 
d="M274 287l11 41h348l37 174l-21 51h-317l8 41h297l-303 840h43l317 -887l695 887h51l-660 -840h297l-8 -41h-319l-39 -51l-37 -174h348l-10 -41h-348l-60 -287h-41l60 287h-349z" />
    <glyph glyph-name="brokenbar" unicode="&#xa6;" horiz-adv-x="532" 
d="M399 676v778h41v-778h-41zM399 -430v778h41v-778h-41z" />
    <glyph glyph-name="section" unicode="&#xa7;" horiz-adv-x="1075" 
d="M631 911q-85 -12 -150 -47q-147 -77 -147 -227q0 -24 6.5 -46t14.5 -40t27.5 -37.5t34 -33.5t47 -33t52.5 -30.5t64 -32.5t68.5 -32t78.5 -35q79 11 147 48q150 79 150 227q0 92 -80 155t-313 164zM201 -27l39 27q24 -52 67 -92q96 -92 240 -92q130 0 215.5 73t85.5 189
q0 50 -24 91.5t-63 70t-89 56.5t-102.5 50.5t-102.5 51.5t-89 59.5t-63 76t-24 99.5q0 160 149 252q59 35 152 59q-33 20 -62 49q-61 65 -61 156q0 129 97 217t241 88q135 0 248 -88q48 -41 80 -88l-35 -27q-25 40 -68 80q-94 82 -221 82q-130 0 -215.5 -73t-85.5 -189
q0 -50 24 -91.5t63 -70t89 -56.5t102.5 -50.5t102.5 -51.5t89 -59.5t63 -76t24 -99.5q0 -89 -43 -152t-109 -100q-61 -37 -149 -59q31 -19 61 -49q62 -66 62 -156q0 -129 -97 -217t-241 -88q-158 0 -268 98q-53 44 -82 100z" />
    <glyph glyph-name="dieresis" unicode="&#xa8;" horiz-adv-x="532" 
d="M371 1270q-17 0 -27 11t-10 28t14 30t33 13q17 0 27 -11t10 -28t-14 -30t-33 -13zM698 1270q-17 0 -26.5 10.5t-9.5 28.5q0 17 14 30t33 13q17 0 26.5 -10.5t9.5 -28.5q0 -17 -14 -30t-33 -13z" />
    <glyph glyph-name="copyright" unicode="&#xa9;" horiz-adv-x="1740" 
d="M1014 -20q-147 0 -281.5 58t-232 156.5t-155.5 235t-58 287.5t58 287.5t155.5 235t232 156.5t281.5 58t281.5 -58t232 -156.5t155.5 -235t58 -287.5t-58 -287.5t-155.5 -235t-232 -156.5t-281.5 -58zM1014 20q186 0 343.5 93t250 253.5t92.5 350.5t-92.5 350.5t-250 253
t-343.5 92.5t-343.5 -92.5t-250 -253t-92.5 -350.5t92.5 -350.5t250 -253.5t343.5 -93zM1280 498l31 -27q-32 -43 -74 -72q-89 -71 -213 -71q-148 0 -253 111.5t-105 277.5t105 277.5t253 111.5q112 0 213 -72q52 -41 74 -71l-33 -25q-28 35 -66 63q-89 64 -188 64
q-130 0 -223.5 -98.5t-93.5 -249.5t93.5 -249.5t223.5 -98.5q106 0 188 63q36 26 68 66z" />
    <glyph glyph-name="ordfeminine" unicode="&#xaa;" horiz-adv-x="634" 
d="M637 850l18 90q-20 -34 -51 -55q-63 -56 -168 -56q-77 0 -125.5 42.5t-48.5 109.5q0 79 53.5 123t163.5 63l234 41l4 21q18 80 -23 132t-131 52q-53 0 -121 -35q-27 -15 -47 -32l-24 28q22 19 55 39q62 41 145 41q107 0 158 -66t27 -167l-78 -371h-41zM682 1061l23 106
l-234 -41q-91 -18 -128.5 -48.5t-37.5 -94.5q0 -48 36.5 -80.5t104.5 -32.5q92 0 157.5 59t78.5 132z" />
    <glyph glyph-name="guillemotleft" unicode="&#xab;" horiz-adv-x="819" 
d="M379 184l-152 308l281 307h55l-287 -314l150 -301h-47zM686 184l-151 308l280 307h55l-286 -314l149 -301h-47z" />
    <glyph glyph-name="logicalnot" unicode="&#xac;" horiz-adv-x="983" 
d="M268 707v41h717v-328h-41v287h-676z" />
    <glyph glyph-name="uni00AD" unicode="&#xad;" horiz-adv-x="757" 
d="M225 584l8 41h553l-8 -41h-553z" />
    <glyph glyph-name="registered" unicode="&#xae;" horiz-adv-x="1740" 
d="M1014 -20q-147 0 -281.5 58t-232 156.5t-155.5 235t-58 287.5t58 287.5t155.5 235t232 156.5t281.5 58t281.5 -58t232 -156.5t155.5 -235t58 -287.5t-58 -287.5t-155.5 -235t-232 -156.5t-281.5 -58zM1014 20q186 0 343.5 93t250 253.5t92.5 350.5t-92.5 350.5t-250 253
t-343.5 92.5t-343.5 -92.5t-250 -253t-92.5 -350.5t92.5 -350.5t250 -253.5t343.5 -93zM788 338v758h246q114 0 180 -60t66 -155q0 -76 -43.5 -131.5t-120.5 -75.5l184 -336h-51l-174 330q-14 -2 -41 -2h-205v-328h-41zM829 707h205q98 0 151.5 47t53.5 127t-53.5 127
t-151.5 47h-205v-348z" />
    <glyph glyph-name="overscore" unicode="&#xaf;" horiz-adv-x="634" 
d="M346 1341l8 41h512l-8 -41h-512z" />
    <glyph glyph-name="degree" unicode="&#xb0;" horiz-adv-x="696" 
d="M299 1208q0 100 73 173t173 73t173 -73t73 -173t-73 -172.5t-173 -72.5t-173 72.5t-73 172.5zM545 1004q86 0 145.5 59t59.5 145t-59.5 145.5t-145.5 59.5t-145.5 -59.5t-59.5 -145.5t59.5 -145t145.5 -59z" />
    <glyph glyph-name="plusminus" unicode="&#xb1;" horiz-adv-x="1024" 
d="M625 338v420h-389v41h389v399h41v-399h389v-41h-389v-420h-41zM236 143v41h819v-41h-819z" />
    <glyph glyph-name="uni00B2" unicode="&#xb2;" horiz-adv-x="552" 
d="M274 963h410l-8 -41h-451q12 62 47 111t82 81t101.5 59.5t106 53t94 54.5t68.5 72.5t26 98.5q0 70 -44.5 112t-121.5 42q-80 0 -144 -56q-26 -23 -45 -55l-39 12q20 39 56 70q80 72 174 72q92 0 148.5 -54.5t56.5 -142.5q0 -80 -45 -138t-113.5 -94.5t-139.5 -68.5
t-133.5 -79.5t-85.5 -108.5z" />
    <glyph glyph-name="uni00B3" unicode="&#xb3;" horiz-adv-x="573" 
d="M238 1051l36 26q12 -31 48 -63q70 -62 172 -62q84 0 138 50t54 124q0 66 -44.5 110t-123.5 44h-88l10 41h117q74 0 123 45t49 111q0 56 -42.5 92.5t-117.5 36.5q-65 0 -129 -37q-23 -13 -49 -35l-24 33q29 25 55 41q62 41 149 41q91 0 145 -49t54 -123q0 -95 -76 -148
q-43 -26 -73 -35q32 -13 53 -34q53 -49 53 -127q0 -93 -70 -157.5t-172 -64.5q-114 0 -192 70q-34 30 -55 70z" />
    <glyph glyph-name="acute" unicode="&#xb4;" horiz-adv-x="327" 
d="M309 1167l205 246h55l-215 -246h-45z" />
    <glyph glyph-name="uni00B5" unicode="&#xb5;" horiz-adv-x="1208" 
d="M102 -430l301 1413h41l-118 -553q-22 -108 5 -200.5t106 -151t198 -58.5q127 0 234 97.5t143 259.5l129 606h41l-170 -799q-17 -73 15 -113t106 -40q22 0 26 2q6 0 8 2l-10 -41q-2 -2 -8 -2q-4 -2 -23 -2q-85 0 -130 54t-25 138l2 8q-38 -81 -140 -145.5t-204 -64.5
q-77 0 -139.5 22t-103 60t-65 80t-36.5 89l-142 -661h-41z" />
    <glyph glyph-name="paragraph" unicode="&#xb6;" horiz-adv-x="1024" 
d="M584 -205v1024q-123 0 -215.5 92t-92.5 215t92.5 215.5t215.5 92.5h348v-1639h-41v1598h-266v-1598h-41z" />
    <glyph glyph-name="middot" unicode="&#xb7;" horiz-adv-x="409" 
d="M324 553q17 0 26.5 -10.5t9.5 -28.5q0 -17 -14 -30t-33 -13q-17 0 -27 11t-10 28t14.5 30t33.5 13z" />
    <glyph glyph-name="cedilla" unicode="&#xb8;" horiz-adv-x="440" 
d="M-14 -342l26 27q16 -20 33 -27q44 -27 102 -27q60 0 99 37t39 94q0 37 -28 64t-77 27q-24 0 -45 -9l-18 -6l-17 23l129 180h47l-104 -145q73 0 113.5 -36.5t40.5 -92.5q0 -74 -54.5 -125.5t-130.5 -51.5q-58 0 -114 33q-28 20 -41 35z" />
    <glyph glyph-name="uni00B9" unicode="&#xb9;" horiz-adv-x="419" 
d="M389 922l135 630q-24 -21 -51 -36q-67 -39 -119 -41l8 41q77 8 138 65q35 31 53 57h31l-154 -716h-41z" />
    <glyph glyph-name="ordmasculine" unicode="&#xba;" horiz-adv-x="716" 
d="M532 819q-119 0 -194.5 79.5t-75.5 203.5q0 101 48.5 183t125 125.5t162.5 43.5q119 0 194.5 -79.5t75.5 -203.5q0 -101 -48.5 -183t-125 -125.5t-162.5 -43.5zM537 860q115 0 202.5 87t87.5 222q0 110 -64.5 177t-168.5 67q-117 0 -204 -88t-87 -221q0 -110 64.5 -177
t169.5 -67z" />
    <glyph glyph-name="guillemotright" unicode="&#xbb;" horiz-adv-x="819" 
d="M489 184l287 314l-151 301h47l153 -307l-280 -308h-56zM182 184l287 314l-152 301h48l153 -307l-280 -308h-56z" />
    <glyph glyph-name="onequarter" unicode="&#xbc;" horiz-adv-x="1331" 
d="M410 717l135 631q-27 -24 -51 -37q-67 -39 -119 -41l8 41q76 8 137 65q33 29 53 58h31l-153 -717h-41zM164 0l1198 1434h53l-1198 -1434h-53zM799 195l10 41l471 481h41l-102 -481h102l-10 -41h-103l-41 -195h-41l41 195h-368zM864 236h314l86 407z" />
    <glyph glyph-name="onehalf" unicode="&#xbd;" horiz-adv-x="1413" 
d="M410 717l135 631q-27 -24 -51 -37q-67 -39 -119 -41l8 41q76 8 137 65q33 29 53 58h31l-153 -717h-41zM164 0l1198 1434h53l-1198 -1434h-53zM909 41h410l-8 -41h-451q12 62 47 111t82 81t101 59.5t106 53t94 54.5t68 72.5t26 98.5q0 70 -44 112t-121 42q-81 0 -144 -55
q-24 -22 -45 -56l-39 13q19 37 56 69q80 72 174 72q92 0 148 -54.5t56 -142.5q0 -80 -45 -138t-113 -94.5t-139 -68.5t-133.5 -79.5t-85.5 -108.5z" />
    <glyph glyph-name="threequarters" unicode="&#xbe;" horiz-adv-x="1454" 
d="M236 846l36 26q13 -32 47 -63q69 -61 173 -61q84 0 138 50t54 124q0 66 -44.5 109.5t-123.5 43.5h-88l10 41h117q74 0 123 45t49 111q0 56 -42.5 92.5t-117.5 36.5q-65 0 -129 -37q-23 -13 -49 -35l-24 33q29 25 55 41q62 41 149 41q91 0 145 -49t54 -123q0 -95 -76 -148
q-39 -24 -74 -34q32 -13 54 -35q53 -49 53 -127q0 -93 -70 -157t-172 -64q-115 0 -192 69q-34 30 -55 70zM879 195l10 41l471 481h41l-103 -481h103l-10 -41h-103l-41 -195h-41l41 195h-368zM944 236h313l86 407zM244 0l1198 1434h53l-1198 -1434h-53z" />
    <glyph glyph-name="questiondown" unicode="&#xbf;" horiz-adv-x="931" 
d="M733 901q-17 0 -27 11t-10 28t14 30t33 13q17 0 27 -11t10 -28t-14 -30t-33 -13zM856 -176l37 -14q-35 -75 -92 -132q-129 -129 -320 -129q-182 0 -294.5 102.5t-112.5 244.5q0 70 21.5 127.5t57 96t81.5 74t95.5 62t99.5 59.5t92 66.5t74.5 83.5t45.5 110l25 111h41
l-25 -111q-17 -72 -57.5 -130t-91 -97t-108.5 -74t-112.5 -70t-99 -74.5t-71.5 -98t-27 -131.5q0 -130 101 -220t269 -90q172 0 289 117q52 52 82 117z" />
    <glyph glyph-name="Agrave" unicode="&#xc0;" horiz-adv-x="1351" 
d="M92 0l897 1434h41l291 -1434h-39l-92 451h-770l-281 -451h-47zM446 492h736l-178 886zM1006 1638l-113 246h47l102 -246h-36z" />
    <glyph glyph-name="Aacute" unicode="&#xc1;" horiz-adv-x="1351" 
d="M92 0l897 1434h41l291 -1434h-39l-92 451h-770l-281 -451h-47zM446 492h736l-178 886zM1026 1638l205 246h55l-215 -246h-45z" />
    <glyph glyph-name="Acircumflex" unicode="&#xc2;" horiz-adv-x="1351" 
d="M92 0l897 1434h41l291 -1434h-39l-92 451h-770l-281 -451h-47zM446 492h736l-178 886zM801 1638l266 246h41l164 -246h-47l-140 215l-229 -215h-55z" />
    <glyph glyph-name="Atilde" unicode="&#xc3;" horiz-adv-x="1351" 
d="M92 0l897 1434h41l291 -1434h-39l-92 451h-770l-281 -451h-47zM446 492h736l-178 886zM825 1638h-41q11 103 54.5 154t101.5 51q34 0 62 -17t47 -41t37.5 -48t42 -41t51.5 -17q89 0 108 164h41q-10 -103 -53 -154t-102 -51q-34 0 -61.5 17t-46 41t-36.5 48t-41.5 41
t-52.5 17q-92 0 -111 -164z" />
    <glyph glyph-name="Adieresis" unicode="&#xc4;" horiz-adv-x="1351" 
d="M92 0l897 1434h41l291 -1434h-39l-92 451h-770l-281 -451h-47zM446 492h736l-178 886zM893 1720q-17 0 -27 11t-10 28t14 30t33 13q17 0 27 -11t10 -28t-14 -30t-33 -13zM1221 1720q-17 0 -27 11t-10 28t14 30t33 13q17 0 27 -11t10 -28t-14 -30t-33 -13z" />
    <glyph glyph-name="Aring" unicode="&#xc5;" horiz-adv-x="1351" 
d="M92 0l897 1434h41l291 -1434h-39l-92 451h-770l-281 -451h-47zM446 492h736l-178 886zM1053 1577q-77 0 -123.5 46.5t-46.5 119.5q0 85 61.5 144t145.5 59q77 0 123.5 -46.5t46.5 -119.5q0 -85 -61.5 -144t-145.5 -59zM1081 1905q-65 0 -110 -45t-45 -115
q0 -56 36.5 -91.5t98.5 -35.5q65 0 110.5 45t45.5 115q0 56 -37 91.5t-99 35.5z" />
    <glyph glyph-name="AE" unicode="&#xc6;" horiz-adv-x="1914" 
d="M-31 0l1102 1434h1045l-9 -41h-778l-133 -625h614l-8 -41h-614l-146 -686h799l-8 -41h-840l99 471h-711l-363 -471h-49zM414 512h688l186 881h-198z" />
    <glyph glyph-name="Ccedilla" unicode="&#xc7;" horiz-adv-x="1525" 
d="M627 -342l26 27q16 -20 33 -27q44 -27 102 -27q60 0 99 37t39 94q0 37 -28 64t-77 27q-24 0 -45 -9l-18 -6l-17 23l86 123q-257 25 -418 212t-161 457q0 170 69 321.5t181.5 255t259 164t299.5 60.5q256 0 432 -156q79 -69 127 -153l-37 -21q-49 80 -123 144
q-177 145 -405 145q-143 0 -280.5 -57t-244 -155t-172 -241t-65.5 -303q0 -130 45.5 -247t126 -203t197.5 -136.5t253 -50.5q210 0 404 119q80 51 147 121l31 -24q-67 -73 -158 -130q-208 -126 -430 -126q-5 0 -16.5 1t-16.5 1l-59 -86q73 0 113.5 -36.5t40.5 -92.5
q0 -74 -54.5 -125.5t-130.5 -51.5q-58 0 -114 33q-28 20 -41 35z" />
    <glyph glyph-name="Egrave" unicode="&#xc8;" horiz-adv-x="1280" 
d="M246 0l303 1434h932l-8 -41h-891l-133 -625h727l-9 -41h-727l-145 -686h911l-8 -41h-952zM1016 1638l-113 246h47l103 -246h-37z" />
    <glyph glyph-name="Eacute" unicode="&#xc9;" horiz-adv-x="1280" 
d="M246 0l303 1434h932l-8 -41h-891l-133 -625h727l-9 -41h-727l-145 -686h911l-8 -41h-952zM1016 1638l205 246h55l-215 -246h-45z" />
    <glyph glyph-name="Ecircumflex" unicode="&#xca;" horiz-adv-x="1280" 
d="M246 0l303 1434h932l-8 -41h-891l-133 -625h727l-9 -41h-727l-145 -686h911l-8 -41h-952zM801 1638l266 246h41l164 -246h-47l-140 215l-229 -215h-55z" />
    <glyph glyph-name="Edieresis" unicode="&#xcb;" horiz-adv-x="1280" 
d="M246 0l303 1434h932l-8 -41h-891l-133 -625h727l-9 -41h-727l-145 -686h911l-8 -41h-952zM893 1720q-17 0 -27 11t-10 28t14 30t33 13q17 0 27 -11t10 -28t-14 -30t-33 -13zM1221 1720q-17 0 -27 11t-10 28t14 30t33 13q17 0 27 -11t10 -28t-14 -30t-33 -13z" />
    <glyph glyph-name="Igrave" unicode="&#xcc;" horiz-adv-x="532" 
d="M246 0l303 1434h41l-303 -1434h-41zM575 1638l-112 246h47l102 -246h-37z" />
    <glyph glyph-name="Iacute" unicode="&#xcd;" horiz-adv-x="532" 
d="M246 0l303 1434h41l-303 -1434h-41zM596 1638l205 246h55l-215 -246h-45z" />
    <glyph glyph-name="Icircumflex" unicode="&#xce;" horiz-adv-x="532" 
d="M246 0l303 1434h41l-303 -1434h-41zM360 1638l267 246h41l163 -246h-47l-139 215l-229 -215h-56z" />
    <glyph glyph-name="Idieresis" unicode="&#xcf;" horiz-adv-x="532" 
d="M246 0l303 1434h41l-303 -1434h-41zM453 1720q-17 0 -27 11t-10 28t14 30t33 13q17 0 27 -11t10 -28t-14 -30t-33 -13zM780 1720q-17 0 -27 11t-10 28t14.5 30t33.5 13q17 0 26.5 -10.5t9.5 -28.5q0 -17 -14 -30t-33 -13z" />
    <glyph glyph-name="Eth" unicode="&#xd0;" horiz-adv-x="1525" 
d="M276 0l148 696h-215l8 41h215l148 697h301q139 0 263 -44t218.5 -125t149.5 -205t55 -274q0 -169 -64 -316t-173 -249.5t-258 -161.5t-316 -59h-480zM326 41h436q211 0 385.5 94.5t276.5 265t102 383.5q0 178 -84 317.5t-231 215.5t-330 76h-269l-139 -656h379l-8 -41
h-379z" />
    <glyph glyph-name="Ntilde" unicode="&#xd1;" horiz-adv-x="1587" 
d="M246 0l303 1434h31l737 -1356l287 1356h41l-304 -1434h-30l-736 1356l-288 -1356h-41zM918 1638h-41q11 103 54 154t101 51q34 0 62 -17t47 -41t37.5 -48t42 -41t51.5 -17q89 0 108 164h41q-10 -103 -53 -154t-102 -51q-34 0 -61.5 17t-46 41t-36.5 48t-41.5 41t-52.5 17
q-91 0 -110 -164z" />
    <glyph glyph-name="Ograve" unicode="&#xd2;" horiz-adv-x="1679" 
d="M1051 1413q-143 0 -281 -57.5t-244.5 -156t-171.5 -241t-65 -301.5q0 -178 78.5 -323t221.5 -229.5t322 -84.5q143 0 281 57.5t244.5 156t171.5 241t65 301.5q0 178 -78.5 323t-221.5 229.5t-322 84.5zM905 -20q-193 0 -344 91t-232 244t-81 338q0 134 44 259t122 222
t179.5 170t221.5 111.5t242 38.5q145 0 269 -53.5t208.5 -144.5t132 -214.5t47.5 -261.5q0 -167 -68.5 -317.5t-181 -255t-259.5 -166t-300 -61.5zM1108 1638l-113 246h47l103 -246h-37z" />
    <glyph glyph-name="Oacute" unicode="&#xd3;" horiz-adv-x="1679" 
d="M1051 1413q-143 0 -281 -57.5t-244.5 -156t-171.5 -241t-65 -301.5q0 -178 78.5 -323t221.5 -229.5t322 -84.5q143 0 281 57.5t244.5 156t171.5 241t65 301.5q0 178 -78.5 323t-221.5 229.5t-322 84.5zM905 -20q-193 0 -344 91t-232 244t-81 338q0 134 44 259t122 222
t179.5 170t221.5 111.5t242 38.5q145 0 269 -53.5t208.5 -144.5t132 -214.5t47.5 -261.5q0 -167 -68.5 -317.5t-181 -255t-259.5 -166t-300 -61.5zM1108 1638l205 246h55l-215 -246h-45z" />
    <glyph glyph-name="Ocircumflex" unicode="&#xd4;" horiz-adv-x="1679" 
d="M1051 1413q-143 0 -281 -57.5t-244.5 -156t-171.5 -241t-65 -301.5q0 -178 78.5 -323t221.5 -229.5t322 -84.5q143 0 281 57.5t244.5 156t171.5 241t65 301.5q0 178 -78.5 323t-221.5 229.5t-322 84.5zM905 -20q-193 0 -344 91t-232 244t-81 338q0 134 44 259t122 222
t179.5 170t221.5 111.5t242 38.5q145 0 269 -53.5t208.5 -144.5t132 -214.5t47.5 -261.5q0 -167 -68.5 -317.5t-181 -255t-259.5 -166t-300 -61.5zM893 1638l266 246h41l164 -246h-47l-139 215l-230 -215h-55z" />
    <glyph glyph-name="Otilde" unicode="&#xd5;" horiz-adv-x="1679" 
d="M1051 1413q-143 0 -281 -57.5t-244.5 -156t-171.5 -241t-65 -301.5q0 -178 78.5 -323t221.5 -229.5t322 -84.5q143 0 281 57.5t244.5 156t171.5 241t65 301.5q0 178 -78.5 323t-221.5 229.5t-322 84.5zM905 -20q-193 0 -344 91t-232 244t-81 338q0 134 44 259t122 222
t179.5 170t221.5 111.5t242 38.5q145 0 269 -53.5t208.5 -144.5t132 -214.5t47.5 -261.5q0 -167 -68.5 -317.5t-181 -255t-259.5 -166t-300 -61.5zM913 1638h-41q11 103 54.5 154t101.5 51q34 0 62 -17t47 -41t37.5 -48t42 -41t51.5 -17q89 0 108 164h41q-10 -103 -53 -154
t-102 -51q-34 0 -61.5 17t-46 41t-36.5 48t-41.5 41t-52.5 17q-92 0 -111 -164z" />
    <glyph glyph-name="Odieresis" unicode="&#xd6;" horiz-adv-x="1679" 
d="M1051 1413q-143 0 -281 -57.5t-244.5 -156t-171.5 -241t-65 -301.5q0 -178 78.5 -323t221.5 -229.5t322 -84.5q143 0 281 57.5t244.5 156t171.5 241t65 301.5q0 178 -78.5 323t-221.5 229.5t-322 84.5zM905 -20q-193 0 -344 91t-232 244t-81 338q0 134 44 259t122 222
t179.5 170t221.5 111.5t242 38.5q145 0 269 -53.5t208.5 -144.5t132 -214.5t47.5 -261.5q0 -167 -68.5 -317.5t-181 -255t-259.5 -166t-300 -61.5zM985 1720q-17 0 -27 11t-10 28t14 30t33 13q17 0 27 -11t10 -28t-14 -30t-33 -13zM1313 1720q-17 0 -27 11t-10 28t14 30
t33 13q17 0 27 -11t10 -28t-14 -30t-33 -13z" />
    <glyph glyph-name="multiply" unicode="&#xd7;" horiz-adv-x="962" 
d="M307 338l287 297l-287 297l31 31l287 -297l286 297l31 -31l-287 -297l287 -297l-31 -31l-286 297l-287 -297z" />
    <glyph glyph-name="Oslash" unicode="&#xd8;" horiz-adv-x="1679" 
d="M172 -20l-25 30l242 213q-141 183 -141 430q0 168 67.5 318t178.5 255t258.5 166.5t304.5 61.5q150 0 275.5 -56t215.5 -157l242 213l25 -31l-242 -213q141 -183 141 -430q0 -167 -68.5 -317.5t-181 -255t-259.5 -166t-300 -61.5q-301 0 -491 213zM1540 1182l-1094 -961
q182 -201 465 -201q143 0 281 57.5t244.5 156t171.5 241t65 301.5q0 235 -133 406zM422 252l1094 960q-86 96 -205.5 148.5t-259.5 52.5q-143 0 -281 -57.5t-244.5 -156t-171.5 -241t-65 -301.5q0 -240 133 -405z" />
    <glyph glyph-name="Ugrave" unicode="&#xd9;" horiz-adv-x="1536" 
d="M340 594l178 840h41l-178 -844q-33 -148 13.5 -279t159.5 -211t265 -80q122 0 236 61t196.5 170t112.5 243l199 940h41l-201 -949q-32 -144 -121 -260t-212 -180.5t-257 -64.5q-163 0 -284.5 87t-171.5 228.5t-17 298.5zM1057 1638l-113 246h47l103 -246h-37z" />
    <glyph glyph-name="Uacute" unicode="&#xda;" horiz-adv-x="1536" 
d="M340 594l178 840h41l-178 -844q-33 -148 13.5 -279t159.5 -211t265 -80q122 0 236 61t196.5 170t112.5 243l199 940h41l-201 -949q-32 -144 -121 -260t-212 -180.5t-257 -64.5q-163 0 -284.5 87t-171.5 228.5t-17 298.5zM1057 1638l205 246h55l-215 -246h-45z" />
    <glyph glyph-name="Ucircumflex" unicode="&#xdb;" horiz-adv-x="1536" 
d="M340 594l178 840h41l-178 -844q-33 -148 13.5 -279t159.5 -211t265 -80q122 0 236 61t196.5 170t112.5 243l199 940h41l-201 -949q-32 -144 -121 -260t-212 -180.5t-257 -64.5q-163 0 -284.5 87t-171.5 228.5t-17 298.5zM842 1638l266 246h41l164 -246h-47l-140 215
l-229 -215h-55z" />
    <glyph glyph-name="Udieresis" unicode="&#xdc;" horiz-adv-x="1536" 
d="M340 594l178 840h41l-178 -844q-33 -148 13.5 -279t159.5 -211t265 -80q122 0 236 61t196.5 170t112.5 243l199 940h41l-201 -949q-32 -144 -121 -260t-212 -180.5t-257 -64.5q-163 0 -284.5 87t-171.5 228.5t-17 298.5zM934 1720q-17 0 -27 11t-10 28t14 30t33 13
q17 0 27 -11t10 -28t-14 -30t-33 -13zM1262 1720q-17 0 -27 11t-10 28t14 30t33 13q17 0 27 -11t10 -28t-14 -30t-33 -13z" />
    <glyph glyph-name="Yacute" unicode="&#xdd;" horiz-adv-x="1228" 
d="M563 0l107 502l-336 932h43l317 -887l695 887h51l-729 -932l-107 -502h-41zM872 1638l205 246h56l-215 -246h-46z" />
    <glyph glyph-name="Thorn" unicode="&#xde;" horiz-adv-x="1443" 
d="M371 399h643q183 0 296 104t113 269q0 132 -99.5 217.5t-248.5 85.5h-561zM246 0l303 1434h41l-68 -318h553q169 0 279 -97t110 -247q0 -185 -128 -299.5t-322 -114.5h-652l-75 -358h-41z" />
    <glyph glyph-name="germandbls" unicode="&#xdf;" horiz-adv-x="1167" 
d="M205 0l235 1108q35 160 144 253t256 93q150 0 249 -96t99 -228q0 -182 -152 -284q-68 -47 -151 -68q64 -25 129 -76q129 -113 129 -266q0 -176 -135.5 -306t-331.5 -130h-113l8 41h105q182 0 303 112.5t121 270.5q0 140 -100 237t-232 97h-45l8 41h57q142 0 250.5 99
t108.5 232q0 118 -87 200.5t-224 82.5q-133 0 -230 -82t-127 -227l-233 -1104h-41z" />
    <glyph glyph-name="agrave" unicode="&#xe0;" horiz-adv-x="1024" 
d="M895 389l37 174l-465 -76q-260 -43 -260 -241q0 -92 77 -159t203 -67q154 0 263.5 99.5t144.5 269.5zM813 0l45 211q-29 -62 -84 -117q-118 -114 -297 -114q-143 0 -227 78.5t-84 185.5q0 232 319 284l457 76q37 146 -44 252.5t-230 106.5q-107 0 -209 -62
q-50 -29 -80 -59l-25 32q46 42 86 64q110 66 230 66q110 0 190.5 -54t112.5 -146.5t8 -201.5l-127 -602h-41zM729 1167l-113 246h48l102 -246h-37z" />
    <glyph glyph-name="aacute" unicode="&#xe1;" horiz-adv-x="1024" 
d="M895 389l37 174l-465 -76q-260 -43 -260 -241q0 -92 77 -159t203 -67q154 0 263.5 99.5t144.5 269.5zM813 0l45 211q-29 -62 -84 -117q-118 -114 -297 -114q-143 0 -227 78.5t-84 185.5q0 232 319 284l457 76q37 146 -44 252.5t-230 106.5q-107 0 -209 -62
q-50 -29 -80 -59l-25 32q46 42 86 64q110 66 230 66q110 0 190.5 -54t112.5 -146.5t8 -201.5l-127 -602h-41zM719 1167l205 246h55l-215 -246h-45z" />
    <glyph glyph-name="acircumflex" unicode="&#xe2;" horiz-adv-x="1024" 
d="M895 389l37 174l-465 -76q-260 -43 -260 -241q0 -92 77 -159t203 -67q154 0 263.5 99.5t144.5 269.5zM813 0l45 211q-29 -62 -84 -117q-118 -114 -297 -114q-143 0 -227 78.5t-84 185.5q0 232 319 284l457 76q37 146 -44 252.5t-230 106.5q-107 0 -209 -62
q-50 -29 -80 -59l-25 32q46 42 86 64q110 66 230 66q110 0 190.5 -54t112.5 -146.5t8 -201.5l-127 -602h-41zM514 1167l266 246h41l164 -246h-47l-139 215l-230 -215h-55z" />
    <glyph glyph-name="atilde" unicode="&#xe3;" horiz-adv-x="1024" 
d="M895 389l37 174l-465 -76q-260 -43 -260 -241q0 -92 77 -159t203 -67q154 0 263.5 99.5t144.5 269.5zM813 0l45 211q-29 -62 -84 -117q-118 -114 -297 -114q-143 0 -227 78.5t-84 185.5q0 232 319 284l457 76q37 146 -44 252.5t-230 106.5q-107 0 -209 -62
q-50 -29 -80 -59l-25 32q46 42 86 64q110 66 230 66q110 0 190.5 -54t112.5 -146.5t8 -201.5l-127 -602h-41zM549 1167h-41q11 103 54.5 154t101.5 51q34 0 61.5 -17t47 -41t37.5 -48t41.5 -41t51.5 -17q90 0 109 164h41q-10 -103 -53.5 -154t-102.5 -51q-34 0 -61.5 17
t-46 41t-36.5 48t-41.5 41t-52.5 17q-91 0 -110 -164z" />
    <glyph glyph-name="adieresis" unicode="&#xe4;" horiz-adv-x="1024" 
d="M895 389l37 174l-465 -76q-260 -43 -260 -241q0 -92 77 -159t203 -67q154 0 263.5 99.5t144.5 269.5zM813 0l45 211q-29 -62 -84 -117q-118 -114 -297 -114q-143 0 -227 78.5t-84 185.5q0 232 319 284l457 76q37 146 -44 252.5t-230 106.5q-107 0 -209 -62
q-50 -29 -80 -59l-25 32q46 42 86 64q110 66 230 66q110 0 190.5 -54t112.5 -146.5t8 -201.5l-127 -602h-41zM606 1249q-17 0 -27 11t-10 28t14 30t33 13q17 0 27 -11t10 -28t-14 -30t-33 -13zM934 1249q-17 0 -27 11t-10 28t14 30t33 13q17 0 27 -11t10 -28t-14 -30
t-33 -13z" />
    <glyph glyph-name="aring" unicode="&#xe5;" horiz-adv-x="1024" 
d="M895 389l37 174l-465 -76q-260 -43 -260 -241q0 -92 77 -159t203 -67q154 0 263.5 99.5t144.5 269.5zM813 0l45 211q-29 -62 -84 -117q-118 -114 -297 -114q-143 0 -227 78.5t-84 185.5q0 232 319 284l457 76q37 146 -44 252.5t-230 106.5q-107 0 -209 -62
q-50 -29 -80 -59l-25 32q46 42 86 64q110 66 230 66q110 0 190.5 -54t112.5 -146.5t8 -201.5l-127 -602h-41zM766 1126q-77 0 -123.5 46.5t-46.5 119.5q0 85 61.5 144t145.5 59q77 0 123.5 -46.5t46.5 -119.5q0 -85 -61.5 -144t-145.5 -59zM795 1454q-65 0 -110.5 -45
t-45.5 -115q0 -56 36.5 -91.5t98.5 -35.5q65 0 110.5 45t45.5 115q0 56 -36.5 91.5t-98.5 35.5z" />
    <glyph glyph-name="ae" unicode="&#xe6;" horiz-adv-x="1775" 
d="M895 389l23 103h-381q-146 0 -238 -63.5t-92 -182.5q0 -92 77 -159t203 -67q154 0 263.5 99.5t144.5 269.5zM567 532h359l16 72q33 148 -45.5 253.5t-228.5 105.5q-107 0 -209 -62q-50 -29 -80 -59l-25 32q46 42 86 64q110 66 230 66q73 0 132.5 -25t97 -66t60 -85
t31.5 -91q39 71 101 133q138 134 309 134q163 0 270 -112t107 -296q0 -19 -3 -44.5t-6 -42.5t-4 -17h-802q-2 -8 -2 -27q-3 -24 -3 -55q0 -173 94.5 -282.5t245.5 -109.5q125 0 236 76q52 34 88 76l31 -25q-49 -49 -101 -84q-124 -81 -258 -81q-202 0 -311 167
q-48 76 -63 170q-31 -97 -89 -170q-131 -167 -354 -167q-143 0 -227 78.5t-84 185.5q0 134 108.5 211t292.5 77zM971 532h760q0 13 2 19q0 4 1 18t1 23q0 170 -92.5 270.5t-241.5 100.5q-159 0 -286 -126.5t-144 -304.5z" />
    <glyph glyph-name="ccedilla" unicode="&#xe7;" horiz-adv-x="1064" 
d="M379 -342l27 27q16 -20 32 -27q44 -27 103 -27q60 0 98.5 37t38.5 94q0 37 -28 64t-77 27q-24 0 -45 -9l-18 -6l-16 23l86 123q-160 17 -262.5 141t-102.5 309q0 122 46 230t121.5 181.5t172.5 116t199 42.5q167 0 282 -111q53 -50 80 -111l-39 -16q-27 55 -73 98
q-103 99 -256 99q-95 0 -184 -39t-157.5 -106.5t-109.5 -167.5t-41 -214q0 -186 109.5 -301t277.5 -115q130 0 238 74q47 31 90 74l30 -25q-44 -45 -100 -82q-124 -81 -264 -81h-12l-60 -84q73 0 113.5 -36.5t40.5 -92.5q0 -74 -54 -125.5t-130 -51.5q-59 0 -115 33
q-28 20 -41 35z" />
    <glyph glyph-name="egrave" unicode="&#xe8;" horiz-adv-x="1136" 
d="M969 168l30 -25q-42 -45 -100 -82q-130 -81 -272 -81q-176 0 -294 125.5t-118 322.5q0 127 45 237t119 183t167 114.5t189 41.5q176 0 290 -118t114 -306q0 -24 -4 -70l-5 -39h-872q-2 -4 -2 -14v-37q0 -168 106.5 -284t270.5 -116q138 0 246 74q47 31 90 74zM262 512
h834q0 19 2 29q0 8 1 23t1 22q0 165 -103.5 271t-263.5 106q-110 0 -209 -51.5t-171 -156t-91 -243.5zM780 1167l-112 246h47l102 -246h-37z" />
    <glyph glyph-name="eacute" unicode="&#xe9;" horiz-adv-x="1136" 
d="M969 168l30 -25q-42 -45 -100 -82q-130 -81 -272 -81q-176 0 -294 125.5t-118 322.5q0 127 45 237t119 183t167 114.5t189 41.5q176 0 290 -118t114 -306q0 -24 -4 -70l-5 -39h-872q-2 -4 -2 -14v-37q0 -168 106.5 -284t270.5 -116q138 0 246 74q47 31 90 74zM262 512
h834q0 19 2 29q0 8 1 23t1 22q0 165 -103.5 271t-263.5 106q-110 0 -209 -51.5t-171 -156t-91 -243.5zM780 1167l205 246h55l-215 -246h-45z" />
    <glyph glyph-name="ecircumflex" unicode="&#xea;" horiz-adv-x="1136" 
d="M969 168l30 -25q-42 -45 -100 -82q-130 -81 -272 -81q-176 0 -294 125.5t-118 322.5q0 127 45 237t119 183t167 114.5t189 41.5q176 0 290 -118t114 -306q0 -24 -4 -70l-5 -39h-872q-2 -4 -2 -14v-37q0 -168 106.5 -284t270.5 -116q138 0 246 74q47 31 90 74zM262 512
h834q0 19 2 29q0 8 1 23t1 22q0 165 -103.5 271t-263.5 106q-110 0 -209 -51.5t-171 -156t-91 -243.5zM565 1167l266 246h41l164 -246h-47l-139 215l-229 -215h-56z" />
    <glyph glyph-name="edieresis" unicode="&#xeb;" horiz-adv-x="1136" 
d="M969 168l30 -25q-42 -45 -100 -82q-130 -81 -272 -81q-176 0 -294 125.5t-118 322.5q0 127 45 237t119 183t167 114.5t189 41.5q176 0 290 -118t114 -306q0 -24 -4 -70l-5 -39h-872q-2 -4 -2 -14v-37q0 -168 106.5 -284t270.5 -116q138 0 246 74q47 31 90 74zM262 512
h834q0 19 2 29q0 8 1 23t1 22q0 165 -103.5 271t-263.5 106q-110 0 -209 -51.5t-171 -156t-91 -243.5zM647 1249q-17 0 -27 11t-10 28t14 30t33 13q17 0 27 -11t10 -28t-14 -30t-33 -13zM975 1249q-17 0 -27 11t-10 28t14 30t33 13q17 0 27 -11t10 -28t-14 -30t-33 -13z" />
    <glyph glyph-name="igrave" unicode="&#xec;" horiz-adv-x="450" 
d="M205 0l209 983h41l-209 -983h-41zM432 1167l-113 246h48l102 -246h-37z" />
    <glyph glyph-name="iacute" unicode="&#xed;" horiz-adv-x="450" 
d="M205 0l209 983h41l-209 -983h-41zM453 1167l204 246h56l-215 -246h-45z" />
    <glyph glyph-name="icircumflex" unicode="&#xee;" horiz-adv-x="450" 
d="M205 0l209 983h41l-209 -983h-41zM217 1167l266 246h41l164 -246h-47l-139 215l-230 -215h-55z" />
    <glyph glyph-name="idieresis" unicode="&#xef;" horiz-adv-x="450" 
d="M205 0l209 983h41l-209 -983h-41zM309 1249q-17 0 -27 11t-10 28t14 30t33 13q17 0 27 -11t10 -28t-14 -30t-33 -13zM637 1249q-17 0 -27 11t-10 28t14 30t33 13q17 0 27 -11t10 -28t-14 -30t-33 -13z" />
    <glyph glyph-name="eth" unicode="&#xf0;" horiz-adv-x="1208" 
d="M635 1243l254 141q-26 36 -70 80.5t-75 71.5l-31 27l39 24l63 -57q60 -54 113 -123l217 123l33 -25l-228 -127q116 -165 176 -355.5t60 -438.5q0 -140 -45.5 -256.5t-122.5 -191.5t-174 -115.5t-203 -40.5q-183 0 -304.5 126.5t-121.5 315.5q0 145 73 270t196.5 198
t265.5 73q134 0 238.5 -73t152.5 -194q-24 370 -234 658l-241 -135zM647 20q125 0 236 62.5t180.5 177.5t69.5 254q0 172 -110.5 290t-279.5 118q-93 0 -181 -37.5t-155.5 -101.5t-108 -157t-40.5 -198q0 -172 110.5 -290t278.5 -118z" />
    <glyph glyph-name="ntilde" unicode="&#xf1;" horiz-adv-x="1177" 
d="M195 0l208 983h41l-41 -188q50 87 146.5 148t210.5 61q131 0 220.5 -63t122 -165t7.5 -223l-117 -553h-41l117 553q22 109 -5 201t-107.5 150.5t-202.5 58.5q-137 0 -245 -97t-144 -260l-129 -606h-41zM600 1167h-41q11 103 54.5 154t101.5 51q34 0 61.5 -17t47 -41
t37.5 -48t41.5 -41t51.5 -17q90 0 109 164h41q-10 -103 -53.5 -154t-102.5 -51q-34 0 -61.5 17t-46 41t-36 48t-41 41t-52.5 17q-92 0 -111 -164z" />
    <glyph glyph-name="ograve" unicode="&#xf2;" 
d="M637 -20q-184 0 -303 128t-119 326q0 124 46.5 232t122 181t172.5 115t198 42q184 0 303 -128.5t119 -326.5q0 -164 -79 -296.5t-201.5 -202.5t-258.5 -70zM748 963q-93 0 -181.5 -38.5t-157.5 -106t-111 -168t-42 -216.5q0 -183 108.5 -298.5t278.5 -115.5
q93 0 181.5 38.5t157.5 106t111 168t42 216.5q0 183 -108.5 298.5t-278.5 115.5zM791 1167l-113 246h47l102 -246h-36z" />
    <glyph glyph-name="oacute" unicode="&#xf3;" 
d="M637 -20q-184 0 -303 128t-119 326q0 124 46.5 232t122 181t172.5 115t198 42q184 0 303 -128.5t119 -326.5q0 -164 -79 -296.5t-201.5 -202.5t-258.5 -70zM748 963q-93 0 -181.5 -38.5t-157.5 -106t-111 -168t-42 -216.5q0 -183 108.5 -298.5t278.5 -115.5
q93 0 181.5 38.5t157.5 106t111 168t42 216.5q0 183 -108.5 298.5t-278.5 115.5zM791 1167l204 246h56l-215 -246h-45z" />
    <glyph glyph-name="ocircumflex" unicode="&#xf4;" 
d="M637 -20q-184 0 -303 128t-119 326q0 124 46.5 232t122 181t172.5 115t198 42q184 0 303 -128.5t119 -326.5q0 -164 -79 -296.5t-201.5 -202.5t-258.5 -70zM748 963q-93 0 -181.5 -38.5t-157.5 -106t-111 -168t-42 -216.5q0 -183 108.5 -298.5t278.5 -115.5
q93 0 181.5 38.5t157.5 106t111 168t42 216.5q0 183 -108.5 298.5t-278.5 115.5zM575 1167l267 246h41l164 -246h-48l-139 215l-229 -215h-56z" />
    <glyph glyph-name="otilde" unicode="&#xf5;" 
d="M637 -20q-184 0 -303 128t-119 326q0 124 46.5 232t122 181t172.5 115t198 42q184 0 303 -128.5t119 -326.5q0 -164 -79 -296.5t-201.5 -202.5t-258.5 -70zM748 963q-93 0 -181.5 -38.5t-157.5 -106t-111 -168t-42 -216.5q0 -183 108.5 -298.5t278.5 -115.5
q93 0 181.5 38.5t157.5 106t111 168t42 216.5q0 183 -108.5 298.5t-278.5 115.5zM600 1167h-41q11 103 54.5 154t101.5 51q34 0 61.5 -17t47 -41t37.5 -48t41.5 -41t51.5 -17q90 0 109 164h41q-10 -103 -53.5 -154t-102.5 -51q-34 0 -61.5 17t-46 41t-36 48t-41 41t-52.5 17
q-92 0 -111 -164z" />
    <glyph glyph-name="odieresis" unicode="&#xf6;" 
d="M637 -20q-184 0 -303 128t-119 326q0 124 46.5 232t122 181t172.5 115t198 42q184 0 303 -128.5t119 -326.5q0 -164 -79 -296.5t-201.5 -202.5t-258.5 -70zM748 963q-93 0 -181.5 -38.5t-157.5 -106t-111 -168t-42 -216.5q0 -183 108.5 -298.5t278.5 -115.5
q93 0 181.5 38.5t157.5 106t111 168t42 216.5q0 183 -108.5 298.5t-278.5 115.5zM668 1249q-17 0 -27 11t-10 28t14 30t33 13q17 0 27 -11t10 -28t-14 -30t-33 -13zM995 1249q-17 0 -27 11t-10 28t14.5 30t33.5 13q17 0 26.5 -10.5t9.5 -28.5q0 -17 -14 -30t-33 -13z" />
    <glyph glyph-name="divide" unicode="&#xf7;" horiz-adv-x="1003" 
d="M594 983q0 17 12 29t29 12t29 -12t12 -29t-12 -29t-29 -12t-29 12t-12 29zM236 584v41h798v-41h-798zM594 225q0 17 12 29t29 12t29 -12t12 -29t-12 -29t-29 -12t-29 12t-12 29z" />
    <glyph glyph-name="oslash" unicode="&#xf8;" 
d="M139 -31l-24 31l178 158q-78 116 -78 276q0 124 46.5 232t122 181t172.5 115t198 42q198 0 321 -148l176 158l25 -31l-178 -158q78 -116 78 -276q0 -164 -79 -296.5t-201.5 -202.5t-258.5 -70q-98 0 -181 38.5t-141 108.5zM324 186l720 641q-117 136 -296 136
q-93 0 -181.5 -38.5t-157.5 -106t-111 -168t-42 -216.5q0 -140 68 -248zM1067 797l-721 -641q117 -136 297 -136q93 0 181.5 38.5t157.5 106t111 168t42 216.5q0 140 -68 248z" />
    <glyph glyph-name="ugrave" unicode="&#xf9;" 
d="M287 430l116 553h41l-116 -553q-22 -109 5 -201t107.5 -150.5t202.5 -58.5q137 0 245 97t144 260l129 606h41l-209 -983h-41l41 188q-48 -86 -144.5 -147t-211.5 -61q-99 0 -175.5 36.5t-119 98.5t-59.5 143.5t4 171.5zM813 1167l-113 246h48l102 -246h-37z" />
    <glyph glyph-name="uacute" unicode="&#xfa;" 
d="M287 430l116 553h41l-116 -553q-22 -109 5 -201t107.5 -150.5t202.5 -58.5q137 0 245 97t144 260l129 606h41l-209 -983h-41l41 188q-48 -86 -144.5 -147t-211.5 -61q-99 0 -175.5 36.5t-119 98.5t-59.5 143.5t4 171.5zM813 1167l205 246h55l-215 -246h-45z" />
    <glyph glyph-name="ucircumflex" unicode="&#xfb;" 
d="M287 430l116 553h41l-116 -553q-22 -109 5 -201t107.5 -150.5t202.5 -58.5q137 0 245 97t144 260l129 606h41l-209 -983h-41l41 188q-48 -86 -144.5 -147t-211.5 -61q-99 0 -175.5 36.5t-119 98.5t-59.5 143.5t4 171.5zM598 1167l266 246h41l164 -246h-47l-139 215
l-230 -215h-55z" />
    <glyph glyph-name="udieresis" unicode="&#xfc;" 
d="M287 430l116 553h41l-116 -553q-22 -109 5 -201t107.5 -150.5t202.5 -58.5q137 0 245 97t144 260l129 606h41l-209 -983h-41l41 188q-48 -86 -144.5 -147t-211.5 -61q-99 0 -175.5 36.5t-119 98.5t-59.5 143.5t4 171.5zM690 1249q-17 0 -27 11t-10 28t14 30t33 13
q17 0 27 -11t10 -28t-14 -30t-33 -13zM1018 1249q-17 0 -27 11t-10 28t14 30t33 13q17 0 27 -11t10 -28t-14 -30t-33 -13z" />
    <glyph glyph-name="yacute" unicode="&#xfd;" horiz-adv-x="962" 
d="M-16 -410l8 41l20 -10q23 -10 58 -10q128 0 227 164l143 231l-190 977h43l180 -922l569 922h48l-746 -1208q-68 -114 -132 -159.5t-151 -45.5q-34 0 -57 10zM668 1167l204 246h56l-215 -246h-45z" />
    <glyph glyph-name="thorn" unicode="&#xfe;" horiz-adv-x="1239" 
d="M113 -430l395 1864h41l-141 -674q52 75 108 121q141 123 315 123q166 0 282 -125.5t116 -315.5q0 -122 -45.5 -232t-119 -186t-169 -120.5t-193.5 -44.5q-81 0 -151 31t-117.5 83t-77.5 114.5t-39 129.5l-163 -768h-41zM709 20q86 0 170.5 38t153 105t111 168.5
t42.5 217.5q0 184 -102.5 299t-256.5 115q-86 0 -170.5 -38t-153 -105t-111 -168.5t-42.5 -217.5q0 -184 102.5 -299t256.5 -115z" />
    <glyph glyph-name="ydieresis" unicode="&#xff;" horiz-adv-x="962" 
d="M-16 -410l8 41l20 -10q23 -10 58 -10q128 0 227 164l143 231l-190 977h43l180 -922l569 922h48l-746 -1208q-68 -114 -132 -159.5t-151 -45.5q-34 0 -57 10zM545 1249q-17 0 -27 11t-10 28t14 30t33 13q17 0 27 -11t10 -28t-14 -30t-33 -13zM872 1249q-17 0 -26.5 10.5
t-9.5 28.5q0 17 14 30t33 13q17 0 27 -11t10 -28t-14.5 -30t-33.5 -13z" />
    <glyph glyph-name="Amacron" unicode="&#x100;" horiz-adv-x="1351" 
d="M92 0l897 1434h41l291 -1434h-39l-92 451h-770l-281 -451h-47zM446 492h736l-178 886zM817 1741l8 41h512l-8 -41h-512z" />
    <glyph glyph-name="amacron" unicode="&#x101;" horiz-adv-x="1024" 
d="M895 389l37 174l-465 -76q-260 -43 -260 -241q0 -92 77 -159t203 -67q154 0 263.5 99.5t144.5 269.5zM813 0l45 211q-29 -62 -84 -117q-118 -114 -297 -114q-143 0 -227 78.5t-84 185.5q0 232 319 284l457 76q37 146 -44 252.5t-230 106.5q-107 0 -209 -62
q-50 -29 -80 -59l-25 32q46 42 86 64q110 66 230 66q110 0 190.5 -54t112.5 -146.5t8 -201.5l-127 -602h-41zM541 1290l8 41h512l-8 -41h-512z" />
    <glyph glyph-name="Abreve" unicode="&#x102;" horiz-adv-x="1351" 
d="M92 0l897 1434h41l291 -1434h-39l-92 451h-770l-281 -451h-47zM446 492h736l-178 886zM813 1884h39q-2 -2 -2 -10v-21q0 -79 53.5 -126.5t145.5 -47.5q94 0 151 59.5t70 145.5h41q-18 -115 -94 -180.5t-179 -65.5t-165 59.5t-62 153.5v21q0 8 2 12z" />
    <glyph glyph-name="abreve" unicode="&#x103;" horiz-adv-x="1024" 
d="M895 389l37 174l-465 -76q-260 -43 -260 -241q0 -92 77 -159t203 -67q154 0 263.5 99.5t144.5 269.5zM813 0l45 211q-29 -62 -84 -117q-118 -114 -297 -114q-143 0 -227 78.5t-84 185.5q0 232 319 284l457 76q37 146 -44 252.5t-230 106.5q-107 0 -209 -62
q-50 -29 -80 -59l-25 32q46 42 86 64q110 66 230 66q110 0 190.5 -54t112.5 -146.5t8 -201.5l-127 -602h-41zM526 1413h39q-2 -2 -2 -10v-21q0 -79 53.5 -126.5t145.5 -47.5q94 0 151 59.5t70 145.5h41q-18 -115 -93.5 -180.5t-178.5 -65.5t-165.5 60t-62.5 153v21q0 8 2 12
z" />
    <glyph glyph-name="Aogonek" unicode="&#x104;" horiz-adv-x="1351" 
d="M92 0l897 1434h41l291 -1434q-52 -36 -100 -84q-101 -97 -101 -182q0 -41 26 -66.5t77 -25.5q54 0 92 14q36 15 37 16l-9 -41q-6 -3 -18 -8.5t-16 -7.5q-40 -14 -80 -14q-79 0 -114.5 39t-35.5 94q0 89 101 186q50 46 102 80l-92 451h-770l-281 -451h-47zM446 492h736
l-178 886z" />
    <glyph glyph-name="aogonek" unicode="&#x105;" horiz-adv-x="1024" 
d="M885 -328l-8 -41q-6 -3 -18 -8.5t-17 -7.5q-40 -14 -80 -14q-79 0 -114.5 39t-35.5 94q0 89 101 186q44 44 100 80l45 211q-29 -62 -84 -117q-118 -114 -297 -114q-143 0 -227 78.5t-84 185.5q0 232 319 284l457 76q37 146 -44 252.5t-230 106.5q-107 0 -209 -62
q-50 -29 -80 -59l-25 32q46 42 86 64q110 66 230 66q110 0 190.5 -54t112.5 -146.5t8 -201.5l-127 -602q-52 -36 -100 -84q-101 -97 -101 -182q0 -41 26 -66.5t77 -25.5q54 0 92 14q36 16 37 16zM895 389l37 174l-465 -76q-260 -43 -260 -241q0 -92 77 -159t203 -67
q154 0 263.5 99.5t144.5 269.5z" />
    <glyph glyph-name="Cacute" unicode="&#x106;" horiz-adv-x="1525" 
d="M1462 260l31 -24q-67 -73 -158 -130q-208 -126 -430 -126q-141 0 -263.5 51.5t-209 140.5t-135.5 213.5t-49 267.5q0 170 69 321.5t181.5 255t259 164t299.5 60.5q256 0 432 -156q79 -69 127 -153l-37 -21q-49 80 -123 144q-177 145 -405 145q-143 0 -280.5 -57
t-244 -155t-172 -241t-65.5 -303q0 -130 45.5 -247t126 -203t197.5 -136.5t253 -50.5q210 0 404 119q80 51 147 121zM1087 1638l205 246h56l-215 -246h-46z" />
    <glyph glyph-name="cacute" unicode="&#x107;" horiz-adv-x="1064" 
d="M971 168l30 -25q-44 -45 -100 -82q-124 -81 -264 -81q-183 0 -302.5 126.5t-119.5 327.5q0 122 46 230t121.5 181.5t172.5 116t199 42.5q167 0 282 -111q53 -50 80 -111l-39 -16q-27 55 -73 98q-103 99 -256 99q-95 0 -184 -39t-157.5 -106.5t-109.5 -167.5t-41 -214
q0 -186 109.5 -301t277.5 -115q130 0 238 74q47 31 90 74zM780 1167l205 246h55l-215 -246h-45z" />
    <glyph glyph-name="Ccircumflex" unicode="&#x108;" horiz-adv-x="1525" 
d="M1462 260l31 -24q-67 -73 -158 -130q-208 -126 -430 -126q-141 0 -263.5 51.5t-209 140.5t-135.5 213.5t-49 267.5q0 170 69 321.5t181.5 255t259 164t299.5 60.5q256 0 432 -156q79 -69 127 -153l-37 -21q-49 80 -123 144q-177 145 -405 145q-143 0 -280.5 -57
t-244 -155t-172 -241t-65.5 -303q0 -130 45.5 -247t126 -203t197.5 -136.5t253 -50.5q210 0 404 119q80 51 147 121zM872 1638l267 246h41l163 -246h-47l-139 215l-229 -215h-56z" />
    <glyph glyph-name="ccircumflex" unicode="&#x109;" horiz-adv-x="1064" 
d="M971 168l30 -25q-44 -45 -100 -82q-124 -81 -264 -81q-183 0 -302.5 126.5t-119.5 327.5q0 122 46 230t121.5 181.5t172.5 116t199 42.5q167 0 282 -111q53 -50 80 -111l-39 -16q-27 55 -73 98q-103 99 -256 99q-95 0 -184 -39t-157.5 -106.5t-109.5 -167.5t-41 -214
q0 -186 109.5 -301t277.5 -115q130 0 238 74q47 31 90 74zM565 1167l266 246h41l164 -246h-47l-139 215l-229 -215h-56z" />
    <glyph glyph-name="Cdotaccent" unicode="&#x10a;" horiz-adv-x="1525" 
d="M1462 260l31 -24q-67 -73 -158 -130q-208 -126 -430 -126q-141 0 -263.5 51.5t-209 140.5t-135.5 213.5t-49 267.5q0 170 69 321.5t181.5 255t259 164t299.5 60.5q256 0 432 -156q79 -69 127 -153l-37 -21q-49 80 -123 144q-177 145 -405 145q-143 0 -280.5 -57
t-244 -155t-172 -241t-65.5 -303q0 -130 45.5 -247t126 -203t197.5 -136.5t253 -50.5q210 0 404 119q80 51 147 121zM1143 1720q-17 0 -27 11t-10 28t14 30t33 13q17 0 27 -11t10 -28t-14 -30t-33 -13z" />
    <glyph glyph-name="cdotaccent" unicode="&#x10b;" horiz-adv-x="1064" 
d="M971 168l30 -25q-44 -45 -100 -82q-124 -81 -264 -81q-183 0 -302.5 126.5t-119.5 327.5q0 122 46 230t121.5 181.5t172.5 116t199 42.5q167 0 282 -111q53 -50 80 -111l-39 -16q-27 55 -73 98q-103 99 -256 99q-95 0 -184 -39t-157.5 -106.5t-109.5 -167.5t-41 -214
q0 -186 109.5 -301t277.5 -115q130 0 238 74q47 31 90 74zM815 1249q-17 0 -27 11t-10 28t14 30t33 13q17 0 27 -11t10 -28t-14 -30t-33 -13z" />
    <glyph glyph-name="Ccaron" unicode="&#x10c;" horiz-adv-x="1525" 
d="M1462 260l31 -24q-67 -73 -158 -130q-208 -126 -430 -126q-141 0 -263.5 51.5t-209 140.5t-135.5 213.5t-49 267.5q0 170 69 321.5t181.5 255t259 164t299.5 60.5q256 0 432 -156q79 -69 127 -153l-37 -21q-49 80 -123 144q-177 145 -405 145q-143 0 -280.5 -57
t-244 -155t-172 -241t-65.5 -303q0 -130 45.5 -247t126 -203t197.5 -136.5t253 -50.5q210 0 404 119q80 51 147 121zM1087 1638l-163 246h47l139 -215l229 215h56l-267 -246h-41z" />
    <glyph glyph-name="ccaron" unicode="&#x10d;" horiz-adv-x="1064" 
d="M971 168l30 -25q-44 -45 -100 -82q-124 -81 -264 -81q-183 0 -302.5 126.5t-119.5 327.5q0 122 46 230t121.5 181.5t172.5 116t199 42.5q167 0 282 -111q53 -50 80 -111l-39 -16q-27 55 -73 98q-103 99 -256 99q-95 0 -184 -39t-157.5 -106.5t-109.5 -167.5t-41 -214
q0 -186 109.5 -301t277.5 -115q130 0 238 74q47 31 90 74zM780 1167l-164 246h48l139 -215l229 215h55l-266 -246h-41z" />
    <glyph glyph-name="Dcaron" unicode="&#x10e;" horiz-adv-x="1495" 
d="M246 0l303 1434h301q139 0 263 -44t218.5 -125t149.5 -205t55 -274q0 -169 -64 -316t-173 -249.5t-258 -161.5t-316 -59h-479zM295 41h436q211 0 385.5 94.5t276.5 265t102 383.5q0 178 -84 317.5t-231 215.5t-330 76h-268zM1026 1638l-164 246h47l140 -215l229 215h55
l-266 -246h-41z" />
    <glyph glyph-name="dcaron" unicode="&#x10f;" horiz-adv-x="1269" 
d="M989 0l47 223q-50 -76 -108 -123q-137 -120 -316 -120q-166 0 -281.5 125t-115.5 315q0 122 45 232t118.5 186.5t169 121t193.5 44.5q82 0 152 -31.5t117 -83.5t76.5 -114.5t39.5 -129.5l166 789h41l-303 -1434h-41zM616 20q86 0 170.5 38t153.5 105t111.5 168.5
t42.5 217.5q0 184 -102.5 299t-256.5 115q-86 0 -170.5 -38t-153 -105t-111 -168.5t-42.5 -217.5q0 -184 102 -299t256 -115zM1446 1167l147 267h52l-168 -267h-31z" />
    <glyph glyph-name="Dcroat" unicode="&#x110;" horiz-adv-x="1525" 
d="M276 0l148 696h-215l8 41h215l148 697h301q139 0 263 -44t218.5 -125t149.5 -205t55 -274q0 -169 -64 -316t-173 -249.5t-258 -161.5t-316 -59h-480zM326 41h436q211 0 385.5 94.5t276.5 265t102 383.5q0 178 -84 317.5t-231 215.5t-330 76h-269l-139 -656h379l-8 -41
h-379z" />
    <glyph glyph-name="dslash" unicode="&#x111;" horiz-adv-x="1228" 
d="M991 0l45 209q-36 -58 -100 -115q-136 -114 -315 -114q-181 0 -294.5 120t-113.5 301q0 119 40 223.5t108.5 178.5t163.5 117t200 43q215 0 330 -166q48 -65 71 -164l113 534h-317l8 41h317l47 226h41l-47 -226h164l-8 -41h-164l-248 -1167h-41zM625 20q88 0 172.5 37.5
t149.5 102.5t105 160t40 202q0 175 -103 287.5t-268 112.5q-88 0 -172.5 -37.5t-149.5 -102.5t-105 -160t-40 -202q0 -175 103 -287.5t268 -112.5z" />
    <glyph glyph-name="Emacron" unicode="&#x112;" horiz-adv-x="1280" 
d="M246 0l303 1434h932l-8 -41h-891l-133 -625h727l-9 -41h-727l-145 -686h911l-8 -41h-952zM797 1741l8 41h512l-8 -41h-512z" />
    <glyph glyph-name="emacron" unicode="&#x113;" horiz-adv-x="1136" 
d="M969 168l30 -25q-42 -45 -100 -82q-130 -81 -272 -81q-176 0 -294 125.5t-118 322.5q0 127 45 237t119 183t167 114.5t189 41.5q176 0 290 -118t114 -306q0 -24 -4 -70l-5 -39h-872q-2 -4 -2 -14v-37q0 -168 106.5 -284t270.5 -116q138 0 246 74q47 31 90 74zM262 512
h834q0 19 2 29q0 8 1 23t1 22q0 165 -103.5 271t-263.5 106q-110 0 -209 -51.5t-171 -156t-91 -243.5zM561 1290l8 41h512l-8 -41h-512z" />
    <glyph glyph-name="Ebreve" unicode="&#x114;" horiz-adv-x="1280" 
d="M246 0l303 1434h932l-8 -41h-891l-133 -625h727l-9 -41h-727l-145 -686h911l-8 -41h-952zM813 1884h39q-2 -2 -2 -10v-21q0 -79 53.5 -126.5t145.5 -47.5q94 0 151 59.5t70 145.5h41q-18 -115 -94 -180.5t-179 -65.5t-165 59.5t-62 153.5v21q0 8 2 12z" />
    <glyph glyph-name="ebreve" unicode="&#x115;" horiz-adv-x="1136" 
d="M969 168l30 -25q-42 -45 -100 -82q-130 -81 -272 -81q-176 0 -294 125.5t-118 322.5q0 127 45 237t119 183t167 114.5t189 41.5q176 0 290 -118t114 -306q0 -24 -4 -70l-5 -39h-872q-2 -4 -2 -14v-37q0 -168 106.5 -284t270.5 -116q138 0 246 74q47 31 90 74zM262 512
h834q0 19 2 29q0 8 1 23t1 22q0 165 -103.5 271t-263.5 106q-110 0 -209 -51.5t-171 -156t-91 -243.5zM578 1413h38q-2 -2 -2 -10v-21q0 -79 53.5 -126.5t145.5 -47.5q94 0 151 59.5t70 145.5h41q-18 -115 -93.5 -180.5t-178.5 -65.5t-165.5 60t-62.5 153v21q0 6 3 12z" />
    <glyph glyph-name="Edotaccent" unicode="&#x116;" horiz-adv-x="1280" 
d="M246 0l303 1434h932l-8 -41h-891l-133 -625h727l-9 -41h-727l-145 -686h911l-8 -41h-952zM1051 1720q-17 0 -27 11t-10 28t14 30t33 13q17 0 27 -11t10 -28t-14 -30t-33 -13z" />
    <glyph glyph-name="edotaccent" unicode="&#x117;" horiz-adv-x="1136" 
d="M969 168l30 -25q-42 -45 -100 -82q-130 -81 -272 -81q-176 0 -294 125.5t-118 322.5q0 127 45 237t119 183t167 114.5t189 41.5q176 0 290 -118t114 -306q0 -24 -4 -70l-5 -39h-872q-2 -4 -2 -14v-37q0 -168 106.5 -284t270.5 -116q138 0 246 74q47 31 90 74zM262 512
h834q0 19 2 29q0 8 1 23t1 22q0 165 -103.5 271t-263.5 106q-110 0 -209 -51.5t-171 -156t-91 -243.5zM805 1249q-17 0 -27 11t-10 28t14 30t33 13q17 0 27 -11t10 -28t-14 -30t-33 -13z" />
    <glyph glyph-name="Eogonek" unicode="&#x118;" horiz-adv-x="1280" 
d="M246 0l303 1434h932l-8 -41h-891l-133 -625h727l-9 -41h-727l-145 -686h911l-8 -41q-52 -36 -100 -84q-101 -97 -101 -182q0 -41 26 -66.5t77 -25.5q54 0 92 14q36 16 37 16l-8 -41q-6 -3 -18 -8.5t-17 -7.5q-40 -14 -80 -14q-79 0 -114.5 39t-35.5 94q0 89 101 186
q44 44 100 80h-911z" />
    <glyph glyph-name="eogonek" unicode="&#x119;" horiz-adv-x="1136" 
d="M682 -328l-8 -41q-6 -3 -18 -8.5t-17 -7.5q-40 -14 -80 -14q-79 0 -114 39t-35 94q0 71 56 138.5t116 109.5q-160 18 -263.5 140t-103.5 306q0 127 45 237t119 183t167 114.5t189 41.5q176 0 290 -118t114 -306q0 -24 -4 -70l-5 -39h-872q-2 -4 -2 -14v-37
q0 -168 106.5 -284t270.5 -116q138 0 246 74q47 31 90 74l30 -25q-42 -45 -100 -82q-130 -81 -272 -81h-4q-58 -40 -115 -109.5t-57 -136.5q0 -41 25.5 -66.5t76.5 -25.5q54 0 92 14q36 16 37 16zM262 512h834q0 19 2 29q0 8 1 23t1 22q0 165 -103.5 271t-263.5 106
q-110 0 -209 -51.5t-171 -156t-91 -243.5z" />
    <glyph glyph-name="Ecaron" unicode="&#x11a;" horiz-adv-x="1280" 
d="M246 0l303 1434h932l-8 -41h-891l-133 -625h727l-9 -41h-727l-145 -686h911l-8 -41h-952zM1016 1638l-164 246h47l139 -215l230 215h55l-266 -246h-41z" />
    <glyph glyph-name="ecaron" unicode="&#x11b;" horiz-adv-x="1136" 
d="M969 168l30 -25q-42 -45 -100 -82q-130 -81 -272 -81q-176 0 -294 125.5t-118 322.5q0 127 45 237t119 183t167 114.5t189 41.5q176 0 290 -118t114 -306q0 -24 -4 -70l-5 -39h-872q-2 -4 -2 -14v-37q0 -168 106.5 -284t270.5 -116q138 0 246 74q47 31 90 74zM262 512
h834q0 19 2 29q0 8 1 23t1 22q0 165 -103.5 271t-263.5 106q-110 0 -209 -51.5t-171 -156t-91 -243.5zM780 1167l-164 246h48l139 -215l229 215h55l-266 -246h-41z" />
    <glyph glyph-name="Gcircumflex" unicode="&#x11c;" horiz-adv-x="1597" 
d="M1462 260l84 395h-420l9 41h460l-102 -460q-67 -73 -158 -130q-208 -126 -430 -126q-141 0 -263.5 51.5t-209 140.5t-135.5 213.5t-49 267.5q0 170 69 321.5t181.5 255t259 164t299.5 60.5q256 0 432 -156q79 -69 127 -153l-37 -21q-49 80 -123 144q-177 145 -405 145
q-143 0 -280.5 -57t-244 -155t-172 -241t-65.5 -303q0 -130 45.5 -247t126 -203t197.5 -136.5t253 -50.5q210 0 404 119q80 51 147 121zM872 1638l267 246h41l163 -246h-47l-139 215l-229 -215h-56z" />
    <glyph glyph-name="gcircumflex" unicode="&#x11d;" horiz-adv-x="1198" 
d="M135 -188l35 18q27 -61 74 -111q108 -108 270 -108q164 0 291.5 115.5t167.5 298.5l49 229q-44 -64 -102 -117q-135 -117 -304 -117q-173 0 -285 120t-112 313q0 120 44 225t115.5 175t162.5 110.5t186 40.5q80 0 148.5 -27.5t115.5 -74t77.5 -104t43.5 -120.5l66 305h41
l-205 -963q-41 -198 -181 -324t-319 -126q-182 0 -295 121q-54 54 -84 121zM616 61q84 0 167 38.5t148 104.5t105.5 162t40.5 203q0 170 -96.5 282t-255.5 112q-83 0 -165.5 -37.5t-148 -102.5t-106.5 -161.5t-41 -206.5q0 -177 99 -285.5t253 -108.5zM565 1167l266 246h41
l164 -246h-47l-139 215l-229 -215h-56z" />
    <glyph glyph-name="Gbreve" unicode="&#x11e;" horiz-adv-x="1597" 
d="M1462 260l84 395h-420l9 41h460l-102 -460q-67 -73 -158 -130q-208 -126 -430 -126q-141 0 -263.5 51.5t-209 140.5t-135.5 213.5t-49 267.5q0 170 69 321.5t181.5 255t259 164t299.5 60.5q256 0 432 -156q79 -69 127 -153l-37 -21q-49 80 -123 144q-177 145 -405 145
q-143 0 -280.5 -57t-244 -155t-172 -241t-65.5 -303q0 -130 45.5 -247t126 -203t197.5 -136.5t253 -50.5q210 0 404 119q80 51 147 121zM885 1884h39q-2 -2 -2 -10v-21q0 -79 53.5 -126.5t144.5 -47.5q94 0 151 59.5t70 145.5h41q-18 -115 -93.5 -180.5t-178.5 -65.5
t-165 59.5t-62 153.5v21q0 8 2 12z" />
    <glyph glyph-name="gbreve" unicode="&#x11f;" horiz-adv-x="1198" 
d="M135 -188l35 18q27 -61 74 -111q108 -108 270 -108q164 0 291.5 115.5t167.5 298.5l49 229q-44 -64 -102 -117q-135 -117 -304 -117q-173 0 -285 120t-112 313q0 120 44 225t115.5 175t162.5 110.5t186 40.5q80 0 148.5 -27.5t115.5 -74t77.5 -104t43.5 -120.5l66 305h41
l-205 -963q-41 -198 -181 -324t-319 -126q-182 0 -295 121q-54 54 -84 121zM616 61q84 0 167 38.5t148 104.5t105.5 162t40.5 203q0 170 -96.5 282t-255.5 112q-83 0 -165.5 -37.5t-148 -102.5t-106.5 -161.5t-41 -206.5q0 -177 99 -285.5t253 -108.5zM608 1413h39
q-2 -2 -2 -10v-21q0 -79 53.5 -126.5t145.5 -47.5q94 0 151 59.5t70 145.5h41q-18 -115 -93.5 -180.5t-178.5 -65.5t-165.5 60t-62.5 153v21q0 8 2 12z" />
    <glyph glyph-name="Gdotaccent" unicode="&#x120;" horiz-adv-x="1597" 
d="M1462 260l84 395h-420l9 41h460l-102 -460q-67 -73 -158 -130q-208 -126 -430 -126q-141 0 -263.5 51.5t-209 140.5t-135.5 213.5t-49 267.5q0 170 69 321.5t181.5 255t259 164t299.5 60.5q256 0 432 -156q79 -69 127 -153l-37 -21q-49 80 -123 144q-177 145 -405 145
q-143 0 -280.5 -57t-244 -155t-172 -241t-65.5 -303q0 -130 45.5 -247t126 -203t197.5 -136.5t253 -50.5q210 0 404 119q80 51 147 121zM1163 1720q-17 0 -27 11t-10 28t14.5 30t33.5 13q17 0 26.5 -10.5t9.5 -28.5q0 -17 -14 -30t-33 -13z" />
    <glyph glyph-name="gdotaccent" unicode="&#x121;" horiz-adv-x="1198" 
d="M135 -188l35 18q27 -61 74 -111q108 -108 270 -108q164 0 291.5 115.5t167.5 298.5l49 229q-44 -64 -102 -117q-135 -117 -304 -117q-173 0 -285 120t-112 313q0 120 44 225t115.5 175t162.5 110.5t186 40.5q80 0 148.5 -27.5t115.5 -74t77.5 -104t43.5 -120.5l66 305h41
l-205 -963q-41 -198 -181 -324t-319 -126q-182 0 -295 121q-54 54 -84 121zM616 61q84 0 167 38.5t148 104.5t105.5 162t40.5 203q0 170 -96.5 282t-255.5 112q-83 0 -165.5 -37.5t-148 -102.5t-106.5 -161.5t-41 -206.5q0 -177 99 -285.5t253 -108.5zM836 1249
q-17 0 -27 11t-10 28t14 30t33 13q17 0 27 -11t10 -28t-14 -30t-33 -13z" />
    <glyph glyph-name="Gcommaaccent" unicode="&#x122;" horiz-adv-x="1597" 
d="M1462 260l84 395h-420l9 41h460l-102 -460q-67 -73 -158 -130q-208 -126 -430 -126q-141 0 -263.5 51.5t-209 140.5t-135.5 213.5t-49 267.5q0 170 69 321.5t181.5 255t259 164t299.5 60.5q256 0 432 -156q79 -69 127 -153l-37 -21q-49 80 -123 144q-177 145 -405 145
q-143 0 -280.5 -57t-244 -155t-172 -241t-65.5 -303q0 -130 45.5 -247t126 -203t197.5 -136.5t253 -50.5q210 0 404 119q80 51 147 121zM709 -430l145 266h51l-168 -266h-28z" />
    <glyph glyph-name="gcommaaccent" unicode="&#x123;" horiz-adv-x="1198" 
d="M791 1167l167 267h31l-147 -267h-51zM135 -188l35 18q27 -61 74 -111q108 -108 270 -108q164 0 291.5 115.5t167.5 298.5l49 229q-44 -64 -102 -117q-135 -117 -304 -117q-173 0 -285 120t-112 313q0 120 44 225t115.5 175t162.5 110.5t186 40.5q80 0 148.5 -27.5
t115.5 -74t77.5 -104t43.5 -120.5l66 305h41l-205 -963q-41 -198 -181 -324t-319 -126q-182 0 -295 121q-54 54 -84 121zM616 61q84 0 167 38.5t148 104.5t105.5 162t40.5 203q0 170 -96.5 282t-255.5 112q-83 0 -165.5 -37.5t-148 -102.5t-106.5 -161.5t-41 -206.5
q0 -177 99 -285.5t253 -108.5z" />
    <glyph glyph-name="Hcircumflex" unicode="&#x124;" horiz-adv-x="1525" 
d="M246 0l303 1434h41l-146 -686h953l145 686h41l-303 -1434h-41l150 707h-953l-149 -707h-41zM831 1638l267 246h41l164 -246h-48l-139 215l-229 -215h-56z" />
    <glyph glyph-name="hcircumflex" unicode="&#x125;" 
d="M205 0l303 1434h41l-135 -639q50 87 146 148t210 61q131 0 220.5 -63t122 -165t7.5 -223l-116 -553h-41l116 553q22 109 -5 201t-107.5 150.5t-202.5 58.5q-137 0 -245 -97t-144 -260l-129 -606h-41zM678 1638l266 246h41l164 -246h-47l-139 215l-230 -215h-55z" />
    <glyph glyph-name="Hbar" unicode="&#x126;" horiz-adv-x="1546" 
d="M276 0l226 1065h-226l9 41h225l70 328h41l-70 -328h911l70 328h41l-70 -328h226l-9 -41h-225l-225 -1065h-41l141 666h-911l-142 -666h-41zM467 707h911l76 358h-911z" />
    <glyph glyph-name="hbar" unicode="&#x127;" horiz-adv-x="1208" 
d="M236 0l247 1167h-194l8 41h195l47 226h41l-48 -226h318l-8 -41h-318l-102 -475q50 87 146 148t210 61q99 0 175.5 -36.5t119 -98.5t59.5 -143.5t-4 -171.5l-94 -451h-41l94 451q22 109 -5 200.5t-107.5 150t-202.5 58.5q-137 0 -245 -96.5t-144 -259.5l-107 -504h-40z
" />
    <glyph glyph-name="Imacron" unicode="&#x12a;" horiz-adv-x="532" 
d="M246 0l303 1434h41l-303 -1434h-41zM356 1741l9 41h512l-9 -41h-512z" />
    <glyph glyph-name="imacron" unicode="&#x12b;" horiz-adv-x="450" 
d="M205 0l209 983h41l-209 -983h-41zM233 1290l9 41h512l-9 -41h-512z" />
    <glyph glyph-name="Ibreve" unicode="&#x12c;" horiz-adv-x="532" 
d="M246 0l303 1434h41l-303 -1434h-41zM393 1884h39q-2 -2 -2 -10v-21q0 -79 53.5 -126.5t145.5 -47.5q94 0 151 59.5t70 145.5h41q-18 -115 -94 -180.5t-179 -65.5t-165 59.5t-62 153.5v21q0 8 2 12z" />
    <glyph glyph-name="ibreve" unicode="&#x12d;" horiz-adv-x="450" 
d="M205 0l209 983h41l-209 -983h-41zM250 1413h39q-2 -2 -2 -10v-21q0 -79 53.5 -126.5t144.5 -47.5q94 0 151.5 59.5t70.5 145.5h41q-18 -115 -94 -180.5t-179 -65.5t-165 59.5t-62 153.5v21q0 8 2 12z" />
    <glyph glyph-name="Iogonek" unicode="&#x12e;" horiz-adv-x="532" 
d="M317 -328l-8 -41q-6 -3 -18 -8.5t-17 -7.5q-40 -14 -79 -14q-79 0 -114.5 39t-35.5 94q0 90 100 186q42 43 101 80l303 1434h41l-303 -1434q-55 -38 -101 -84q-100 -96 -100 -182q0 -41 25.5 -66.5t76.5 -25.5q55 0 93 14q33 14 36 16z" />
    <glyph glyph-name="iogonek" unicode="&#x12f;" horiz-adv-x="450" 
d="M276 -328l-8 -41q-6 -3 -18 -8.5t-17 -7.5q-40 -14 -79 -14q-79 0 -114.5 39t-35.5 94q0 90 100 186q43 43 101 80l209 983h41l-209 -983q-55 -38 -101 -84q-100 -96 -100 -182q0 -41 25.5 -66.5t76.5 -25.5q55 0 93 14q33 14 36 16zM506 1311q-17 0 -27 11t-10 28t14 30
t33 13q17 0 27 -11t10 -28t-14 -30t-33 -13z" />
    <glyph glyph-name="Idot" unicode="&#x130;" horiz-adv-x="532" 
d="M246 0l303 1434h41l-303 -1434h-41zM631 1720q-17 0 -27 11t-10 28t14 30t33 13q17 0 27 -11t10 -28t-14 -30t-33 -13z" />
    <glyph glyph-name="dotlessi" unicode="&#x131;" horiz-adv-x="450" 
d="M205 0l209 983h41l-209 -983h-41z" />
    <glyph glyph-name="uni0132" unicode="&#x132;" horiz-adv-x="1454" 
d="M246 0l303 1434h41l-303 -1434h-41zM520 143l37 29q22 -35 70 -76q92 -76 227 -76q143 0 260.5 97t149.5 250l227 1067h41l-227 -1072q-36 -168 -163 -275t-284 -107q-147 0 -256 81q-48 37 -82 82z" />
    <glyph glyph-name="uni0133" unicode="&#x133;" horiz-adv-x="880" 
d="M205 0l209 983h41l-209 -983h-41zM936 1311q-17 0 -27 11t-10 28t14 30t33 13q17 0 27 -11t10 -28t-14 -30t-33 -13zM506 1311q-17 0 -27 11t-10 28t14 30t33 13q17 0 27 -11t10 -28t-14 -30t-33 -13zM240 -385l8 41q11 -11 39 -23q39 -22 104 -22q75 0 127 46.5
t72 137.5l254 1188h41l-254 -1188q-23 -108 -89.5 -166.5t-160.5 -58.5q-66 0 -105 22q-23 10 -36 23z" />
    <glyph glyph-name="Jcircumflex" unicode="&#x134;" horiz-adv-x="983" 
d="M55 143l37 29q22 -35 70 -76q92 -76 227 -76q143 0 260.5 97t149.5 250l227 1067h41l-227 -1072q-36 -168 -163 -275t-284 -107q-147 0 -256 81q-48 37 -82 82zM831 1638l267 246h41l164 -246h-48l-139 215l-229 -215h-56z" />
    <glyph glyph-name="jcircumflex" unicode="&#x135;" horiz-adv-x="450" 
d="M-190 -385l8 41q11 -11 39 -23q39 -22 104 -22q75 0 127 46.5t72 137.5l254 1188h41l-254 -1188q-23 -108 -89.5 -166.5t-160.5 -58.5q-66 0 -105 22q-23 10 -36 23zM217 1167l266 246h41l164 -246h-47l-139 215l-230 -215h-55z" />
    <glyph glyph-name="Kcommaaccent" unicode="&#x136;" horiz-adv-x="1331" 
d="M246 0l303 1434h41l-207 -971l1085 971h58l-674 -605l418 -829h-45l-406 803l-448 -402l-84 -401h-41zM575 -430l146 266h51l-168 -266h-29z" />
    <glyph glyph-name="kcommaaccent" unicode="&#x137;" horiz-adv-x="1024" 
d="M205 0l303 1434h41l-238 -1121l750 670h59l-446 -399l299 -584h-47l-285 555l-344 -307l-51 -248h-41zM401 -430l146 266h51l-168 -266h-29z" />
    <glyph glyph-name="Lacute" unicode="&#x139;" horiz-adv-x="1105" 
d="M246 0l303 1434h41l-295 -1393h799l-9 -41h-839zM596 1638l205 246h55l-215 -246h-45z" />
    <glyph glyph-name="lacute" unicode="&#x13a;" horiz-adv-x="450" 
d="M205 0l303 1434h41l-303 -1434h-41zM551 1638l205 246h55l-215 -246h-45z" />
    <glyph glyph-name="Lcommaaccent" unicode="&#x13b;" horiz-adv-x="1105" 
d="M246 0l303 1434h41l-295 -1393h799l-9 -41h-839zM514 -430l145 266h52l-168 -266h-29z" />
    <glyph glyph-name="lcommaaccent" unicode="&#x13c;" horiz-adv-x="450" 
d="M205 0l303 1434h41l-303 -1434h-41zM12 -430l146 266h51l-168 -266h-29z" />
    <glyph glyph-name="Lcaron" unicode="&#x13d;" horiz-adv-x="1105" 
d="M246 0l303 1434h41l-295 -1393h799l-9 -41h-839zM811 1167l145 267h52l-168 -267h-29z" />
    <glyph glyph-name="lcaron" unicode="&#x13e;" horiz-adv-x="491" 
d="M205 0l303 1434h41l-303 -1434h-41zM657 1167l148 267h51l-168 -267h-31z" />
    <glyph glyph-name="Ldot" unicode="&#x13f;" horiz-adv-x="1105" 
d="M246 0l303 1434h41l-295 -1393h799l-9 -41h-839zM866 717q-17 0 -27 11t-10 28t14.5 30t33.5 13q17 0 26.5 -10.5t9.5 -28.5q0 -17 -14 -30t-33 -13z" />
    <glyph glyph-name="ldot" unicode="&#x140;" horiz-adv-x="645" 
d="M205 0l303 1434h41l-303 -1434h-41zM680 758q17 0 27 -11t10 -28t-14 -30t-33 -13q-17 0 -27 11t-10 28t14 30t33 13z" />
    <glyph glyph-name="Lslash" unicode="&#x141;" horiz-adv-x="1167" 
d="M307 0l139 659l-276 -147l-14 35l301 160l153 727h41l-149 -703l393 211l14 -35l-417 -223l-136 -643h799l-8 -41h-840z" />
    <glyph glyph-name="lslash" unicode="&#x142;" horiz-adv-x="655" 
d="M307 0l156 741l-299 -157l-12 34l321 170l137 646h41l-131 -621l299 160l15 -35l-324 -172l-162 -766h-41z" />
    <glyph glyph-name="Nacute" unicode="&#x143;" horiz-adv-x="1587" 
d="M246 0l303 1434h31l737 -1356l287 1356h41l-304 -1434h-30l-736 1356l-288 -1356h-41zM1108 1638l205 246h55l-215 -246h-45z" />
    <glyph glyph-name="nacute" unicode="&#x144;" horiz-adv-x="1177" 
d="M195 0l208 983h41l-41 -188q50 87 146.5 148t210.5 61q131 0 220.5 -63t122 -165t7.5 -223l-117 -553h-41l117 553q22 109 -5 201t-107.5 150.5t-202.5 58.5q-137 0 -245 -97t-144 -260l-129 -606h-41zM791 1167l204 246h56l-215 -246h-45z" />
    <glyph glyph-name="Ncommaaccent" unicode="&#x145;" horiz-adv-x="1587" 
d="M246 0l303 1434h31l737 -1356l287 1356h41l-304 -1434h-30l-736 1356l-288 -1356h-41zM647 -430l146 266h51l-168 -266h-29z" />
    <glyph glyph-name="ncommaaccent" unicode="&#x146;" horiz-adv-x="1177" 
d="M195 0l208 983h41l-41 -188q50 87 146.5 148t210.5 61q131 0 220.5 -63t122 -165t7.5 -223l-117 -553h-41l117 553q22 109 -5 201t-107.5 150.5t-202.5 58.5q-137 0 -245 -97t-144 -260l-129 -606h-41zM432 -430l146 266h51l-168 -266h-29z" />
    <glyph glyph-name="Ncaron" unicode="&#x147;" horiz-adv-x="1587" 
d="M246 0l303 1434h31l737 -1356l287 1356h41l-304 -1434h-30l-736 1356l-288 -1356h-41zM1108 1638l-164 246h47l139 -215l230 215h55l-266 -246h-41z" />
    <glyph glyph-name="ncaron" unicode="&#x148;" horiz-adv-x="1177" 
d="M195 0l208 983h41l-41 -188q50 87 146.5 148t210.5 61q131 0 220.5 -63t122 -165t7.5 -223l-117 -553h-41l117 553q22 109 -5 201t-107.5 150.5t-202.5 58.5q-137 0 -245 -97t-144 -260l-129 -606h-41zM791 1167l-164 246h47l139 -215l229 215h56l-267 -246h-40z" />
    <glyph glyph-name="napostrophe" unicode="&#x149;" horiz-adv-x="1177" 
d="M195 0l208 983h41l-41 -188q50 87 146.5 148t210.5 61q131 0 220.5 -63t122 -165t7.5 -223l-117 -553h-41l117 553q22 109 -5 201t-107.5 150.5t-202.5 58.5q-137 0 -245 -97t-144 -260l-129 -606h-41zM299 1116l147 266h52l-168 -266h-31z" />
    <glyph glyph-name="Eng" unicode="&#x14a;" horiz-adv-x="1587" 
d="M246 0l303 1434h31l737 -1356l287 1356h41l-310 -1465q-36 -179 -166.5 -289t-287.5 -110q-162 0 -265 88q-52 39 -77 88l36 29q23 -40 72 -82q98 -82 238 -82q139 0 253 96.5t154 249.5l15 53l-732 1346l-288 -1356h-41z" />
    <glyph glyph-name="eng" unicode="&#x14b;" horiz-adv-x="1177" 
d="M559 -385l8 41q13 -12 37 -23q39 -22 105 -22q75 0 126.5 46.5t71.5 137.5l162 758q22 109 -5 201t-107.5 150.5t-202.5 58.5q-137 0 -245 -97t-144 -260l-129 -606h-41l208 983h41l-41 -188q50 87 146.5 148t210.5 61q131 0 220.5 -63t122 -165t7.5 -223l-160 -756
q-23 -109 -89 -168t-159 -59q-65 0 -104 22q-28 12 -39 23z" />
    <glyph glyph-name="Omacron" unicode="&#x14c;" horiz-adv-x="1679" 
d="M1051 1413q-143 0 -281 -57.5t-244.5 -156t-171.5 -241t-65 -301.5q0 -178 78.5 -323t221.5 -229.5t322 -84.5q143 0 281 57.5t244.5 156t171.5 241t65 301.5q0 178 -78.5 323t-221.5 229.5t-322 84.5zM905 -20q-193 0 -344 91t-232 244t-81 338q0 134 44 259t122 222
t179.5 170t221.5 111.5t242 38.5q145 0 269 -53.5t208.5 -144.5t132 -214.5t47.5 -261.5q0 -167 -68.5 -317.5t-181 -255t-259.5 -166t-300 -61.5zM909 1741l9 41h512l-9 -41h-512z" />
    <glyph glyph-name="omacron" unicode="&#x14d;" 
d="M637 -20q-184 0 -303 128t-119 326q0 124 46.5 232t122 181t172.5 115t198 42q184 0 303 -128.5t119 -326.5q0 -164 -79 -296.5t-201.5 -202.5t-258.5 -70zM748 963q-93 0 -181.5 -38.5t-157.5 -106t-111 -168t-42 -216.5q0 -183 108.5 -298.5t278.5 -115.5
q93 0 181.5 38.5t157.5 106t111 168t42 216.5q0 183 -108.5 298.5t-278.5 115.5zM592 1290l8 41h512l-8 -41h-512z" />
    <glyph glyph-name="Obreve" unicode="&#x14e;" horiz-adv-x="1679" 
d="M1051 1413q-143 0 -281 -57.5t-244.5 -156t-171.5 -241t-65 -301.5q0 -178 78.5 -323t221.5 -229.5t322 -84.5q143 0 281 57.5t244.5 156t171.5 241t65 301.5q0 178 -78.5 323t-221.5 229.5t-322 84.5zM905 -20q-193 0 -344 91t-232 244t-81 338q0 134 44 259t122 222
t179.5 170t221.5 111.5t242 38.5q145 0 269 -53.5t208.5 -144.5t132 -214.5t47.5 -261.5q0 -167 -68.5 -317.5t-181 -255t-259.5 -166t-300 -61.5zM905 1884h39q-2 -2 -2 -10v-21q0 -79 53.5 -126.5t145.5 -47.5q94 0 151 59.5t70 145.5h41q-18 -115 -94 -180.5t-179 -65.5
t-165 59.5t-62 153.5v21q0 8 2 12z" />
    <glyph glyph-name="obreve" unicode="&#x14f;" 
d="M637 -20q-184 0 -303 128t-119 326q0 124 46.5 232t122 181t172.5 115t198 42q184 0 303 -128.5t119 -326.5q0 -164 -79 -296.5t-201.5 -202.5t-258.5 -70zM748 963q-93 0 -181.5 -38.5t-157.5 -106t-111 -168t-42 -216.5q0 -183 108.5 -298.5t278.5 -115.5
q93 0 181.5 38.5t157.5 106t111 168t42 216.5q0 183 -108.5 298.5t-278.5 115.5zM588 1413h39q-2 -2 -2 -10v-21q0 -79 53.5 -126.5t144.5 -47.5q94 0 151 59.5t70 145.5h41q-18 -115 -93.5 -180.5t-178.5 -65.5t-165 59.5t-62 153.5v21q0 8 2 12z" />
    <glyph glyph-name="Ohungarumlaut" unicode="&#x150;" horiz-adv-x="1679" 
d="M1051 1413q-143 0 -281 -57.5t-244.5 -156t-171.5 -241t-65 -301.5q0 -178 78.5 -323t221.5 -229.5t322 -84.5q143 0 281 57.5t244.5 156t171.5 241t65 301.5q0 178 -78.5 323t-221.5 229.5t-322 84.5zM905 -20q-193 0 -344 91t-232 244t-81 338q0 134 44 259t122 222
t179.5 170t221.5 111.5t242 38.5q145 0 269 -53.5t208.5 -144.5t132 -214.5t47.5 -261.5q0 -167 -68.5 -317.5t-181 -255t-259.5 -166t-300 -61.5zM965 1638l204 246h56l-215 -246h-45zM1231 1638l205 246h55l-215 -246h-45z" />
    <glyph glyph-name="ohungarumlaut" unicode="&#x151;" 
d="M637 -20q-184 0 -303 128t-119 326q0 124 46.5 232t122 181t172.5 115t198 42q184 0 303 -128.5t119 -326.5q0 -164 -79 -296.5t-201.5 -202.5t-258.5 -70zM748 963q-93 0 -181.5 -38.5t-157.5 -106t-111 -168t-42 -216.5q0 -183 108.5 -298.5t278.5 -115.5
q93 0 181.5 38.5t157.5 106t111 168t42 216.5q0 183 -108.5 298.5t-278.5 115.5zM657 1167l205 246h56l-216 -246h-45zM924 1167l204 246h56l-215 -246h-45z" />
    <glyph glyph-name="OE" unicode="&#x152;" horiz-adv-x="1984" 
d="M1112 41h799l-8 -41h-969q-139 0 -263 44t-218.5 124.5t-149.5 204.5t-55 274q0 225 109 406t294 281t408 100h1126l-8 -41h-778l-133 -625h614l-8 -41h-615zM934 41h137l287 1352h-305q-211 0 -385.5 -94.5t-276.5 -265.5t-102 -384q0 -178 84 -317t231 -215t330 -76z
" />
    <glyph glyph-name="oe" unicode="&#x153;" horiz-adv-x="1921" 
d="M1114 512h760q0 19 2 29q4 32 4 51q0 170 -92.5 270.5t-241.5 100.5q-163 0 -289 -127t-143 -324zM1767 170l31 -25q-51 -51 -100 -84q-124 -81 -258 -81q-114 0 -192 47.5t-120 119.5q-48 76 -63 170q-24 -60 -66.5 -118t-100.5 -108t-135.5 -80.5t-160.5 -30.5
q-167 0 -278 123.5t-111 312.5q0 128 45 240.5t117.5 187t164 117.5t185.5 43q82 0 151.5 -30.5t114.5 -80.5t73 -105t40 -112q40 97 98 164q144 164 344 164q163 0 270 -112t107 -296q0 -42 -8 -78l-8 -47h-801q-2 -6 -2 -16v-45q0 -173 94.5 -282.5t245.5 -109.5
q124 0 235 76q52 34 88 76zM606 20q86 0 168.5 38t149 106t107 173t40.5 228q0 177 -98.5 287.5t-251.5 110.5q-86 0 -168.5 -38t-149 -106t-107 -173t-40.5 -228q0 -177 98.5 -287.5t251.5 -110.5z" />
    <glyph glyph-name="Racute" unicode="&#x154;" horiz-adv-x="1372" 
d="M246 0l303 1434h475q177 0 283 -106t106 -253q0 -181 -116.5 -299.5t-297.5 -136.5l220 -639h-48l-215 635h-65h-471l-133 -635h-41zM430 676h531q183 0 297 113.5t114 285.5q0 134 -98 226t-250 92h-442zM985 1640l205 246h55l-215 -246h-45z" />
    <glyph glyph-name="racute" unicode="&#x155;" horiz-adv-x="706" 
d="M195 0l208 983h41l-47 -215q37 64 90 117q127 119 291 119h80l-10 -41h-76q-142 0 -259 -103t-153 -266l-124 -594h-41zM616 1167l205 246h56l-215 -246h-46z" />
    <glyph glyph-name="Rcommaaccent" unicode="&#x156;" horiz-adv-x="1372" 
d="M246 0l303 1434h475q177 0 283 -106t106 -253q0 -181 -116.5 -299.5t-297.5 -136.5l220 -639h-48l-215 635h-65h-471l-133 -635h-41zM430 676h531q183 0 297 113.5t114 285.5q0 134 -98 226t-250 92h-442zM555 -430l145 266h52l-168 -266h-29z" />
    <glyph glyph-name="rcommaaccent" unicode="&#x157;" horiz-adv-x="706" 
d="M195 0l208 983h41l-47 -215q37 64 90 117q127 119 291 119h80l-10 -41h-76q-142 0 -259 -103t-153 -266l-124 -594h-41zM12 -430l146 266h51l-168 -266h-29z" />
    <glyph glyph-name="Rcaron" unicode="&#x158;" horiz-adv-x="1372" 
d="M246 0l303 1434h475q177 0 283 -106t106 -253q0 -181 -116.5 -299.5t-297.5 -136.5l220 -639h-48l-215 635h-65h-471l-133 -635h-41zM430 676h531q183 0 297 113.5t114 285.5q0 134 -98 226t-250 92h-442zM985 1638l-164 246h47l140 -215l229 215h55l-266 -246h-41z" />
    <glyph glyph-name="rcaron" unicode="&#x159;" horiz-adv-x="706" 
d="M195 0l208 983h41l-47 -215q37 64 90 117q127 119 291 119h80l-10 -41h-76q-142 0 -259 -103t-153 -266l-124 -594h-41zM616 1167l-163 246h47l139 -215l229 215h56l-267 -246h-41z" />
    <glyph glyph-name="Sacute" unicode="&#x15a;" horiz-adv-x="1116" 
d="M152 229l38 27l4 -8q3 -7 11.5 -21t20.5 -31.5t31 -37.5t42.5 -39t55.5 -37t68.5 -32t84.5 -22t100 -8q184 0 309 106t125 255q0 77 -37.5 137t-97.5 98.5t-132.5 72t-145 67.5t-132.5 73.5t-97.5 101t-37.5 140.5q0 163 132.5 273t328.5 110q190 0 324 -108
q53 -42 98 -107l-35 -27q-5 8 -14.5 22t-44.5 49t-76.5 61.5t-112 48.5t-149.5 22q-174 0 -292 -100t-118 -238q0 -58 23.5 -105.5t63 -81t90.5 -62.5t107.5 -54.5l113 -51t107.5 -57t90.5 -68.5t63 -90.5t23.5 -117.5q0 -172 -139.5 -290.5t-343.5 -118.5
q-71 0 -134.5 13.5t-108 35.5t-81.5 48.5t-59.5 53.5t-38 49t-22.5 36zM872 1638l205 246h56l-215 -246h-46z" />
    <glyph glyph-name="sacute" unicode="&#x15b;" horiz-adv-x="890" 
d="M141 178l37 27q0 -2 10 -20t34 -46t58 -54.5t89.5 -45.5t119.5 -19q130 0 216 73t86 179q0 47 -27 85t-70 64t-95 49.5t-104 47.5t-95 52t-70 69.5t-27 93.5q0 111 92.5 191t222.5 80q166 0 280 -129q12 -14 36 -48l-39 -26q-25 40 -68 80q-94 82 -213 82
q-114 0 -191 -67t-77 -159q0 -45 27 -81.5t70 -61.5t95 -48t104 -47t95 -52.5t70 -71.5t27 -96q0 -125 -102 -212t-249 -87q-156 0 -266 98q-53 49 -76 100zM657 1167l205 246h56l-216 -246h-45z" />
    <glyph glyph-name="Scircumflex" unicode="&#x15c;" horiz-adv-x="1116" 
d="M152 229l38 27l4 -8q3 -7 11.5 -21t20.5 -31.5t31 -37.5t42.5 -39t55.5 -37t68.5 -32t84.5 -22t100 -8q184 0 309 106t125 255q0 77 -37.5 137t-97.5 98.5t-132.5 72t-145 67.5t-132.5 73.5t-97.5 101t-37.5 140.5q0 163 132.5 273t328.5 110q190 0 324 -108
q53 -42 98 -107l-35 -27q-5 8 -14.5 22t-44.5 49t-76.5 61.5t-112 48.5t-149.5 22q-174 0 -292 -100t-118 -238q0 -58 23.5 -105.5t63 -81t90.5 -62.5t107.5 -54.5l113 -51t107.5 -57t90.5 -68.5t63 -90.5t23.5 -117.5q0 -172 -139.5 -290.5t-343.5 -118.5
q-71 0 -134.5 13.5t-108 35.5t-81.5 48.5t-59.5 53.5t-38 49t-22.5 36zM657 1638l267 246h41l163 -246h-47l-139 215l-229 -215h-56z" />
    <glyph glyph-name="scircumflex" unicode="&#x15d;" horiz-adv-x="890" 
d="M141 178l37 27q0 -2 10 -20t34 -46t58 -54.5t89.5 -45.5t119.5 -19q130 0 216 73t86 179q0 47 -27 85t-70 64t-95 49.5t-104 47.5t-95 52t-70 69.5t-27 93.5q0 111 92.5 191t222.5 80q166 0 280 -129q12 -14 36 -48l-39 -26q-25 40 -68 80q-94 82 -213 82
q-114 0 -191 -67t-77 -159q0 -45 27 -81.5t70 -61.5t95 -48t104 -47t95 -52.5t70 -71.5t27 -96q0 -125 -102 -212t-249 -87q-156 0 -266 98q-53 49 -76 100zM442 1167l267 246h41l163 -246h-47l-139 215l-229 -215h-56z" />
    <glyph glyph-name="Scedilla" unicode="&#x15e;" horiz-adv-x="1116" 
d="M367 -342l26 27q16 -20 33 -27q44 -27 102 -27q60 0 99 37t39 94q0 37 -28 64t-77 27q-24 0 -45 -9l-18 -6l-17 23l84 119q-89 6 -164.5 33.5t-119.5 63t-75 70.5t-42 59l-12 23l38 27l4 -8q3 -7 11.5 -21t20.5 -31.5t31 -37.5t42.5 -39t55.5 -37t68.5 -32t84.5 -22
t100 -8q184 0 309 106t125 255q0 77 -37.5 137t-97.5 98.5t-132.5 72t-145 67.5t-132.5 73.5t-97.5 101t-37.5 140.5q0 163 132.5 273t328.5 110q190 0 324 -108q53 -42 98 -107l-35 -27q-5 8 -14.5 22t-44.5 49t-76.5 61.5t-112 48.5t-149.5 22q-174 0 -292 -100t-118 -238
q0 -58 23.5 -105.5t63 -81t90.5 -62.5t107.5 -54.5l113 -51t107.5 -57t90.5 -68.5t63 -90.5t23.5 -117.5q0 -171 -135 -287.5t-338 -121.5l-59 -84q73 0 113.5 -36.5t40.5 -92.5q0 -74 -54.5 -125.5t-130.5 -51.5q-58 0 -114 33q-28 20 -41 35z" />
    <glyph glyph-name="scedilla" unicode="&#x15f;" horiz-adv-x="890" 
d="M240 -342l26 27q16 -20 33 -27q44 -27 102 -27q60 0 99 37t39 94q0 37 -28 64t-77 27q-24 0 -45 -9l-18 -6l-17 23l86 121q-137 12 -231 106q-42 42 -68 90l37 27q0 -2 10 -20t34 -46t58 -54.5t89.5 -45.5t119.5 -19q130 0 216 73t86 179q0 47 -27 85t-70 64t-95 49.5
t-104 47.5t-95 52t-70 69.5t-27 93.5q0 111 92.5 191t222.5 80q166 0 280 -129q12 -14 36 -48l-39 -26q-25 40 -68 80q-94 82 -213 82q-114 0 -191 -67t-77 -159q0 -45 27 -81.5t70 -61.5t95 -48t104 -47t95 -52.5t70 -71.5t27 -96q0 -124 -101 -211.5t-248 -87.5l-59 -84
q73 0 113.5 -36.5t40.5 -92.5q0 -74 -54.5 -125.5t-130.5 -51.5q-58 0 -114 33q-28 20 -41 35z" />
    <glyph glyph-name="Scaron" unicode="&#x160;" horiz-adv-x="1116" 
d="M152 229l38 27l4 -8q3 -7 11.5 -21t20.5 -31.5t31 -37.5t42.5 -39t55.5 -37t68.5 -32t84.5 -22t100 -8q184 0 309 106t125 255q0 77 -37.5 137t-97.5 98.5t-132.5 72t-145 67.5t-132.5 73.5t-97.5 101t-37.5 140.5q0 163 132.5 273t328.5 110q190 0 324 -108
q53 -42 98 -107l-35 -27q-5 8 -14.5 22t-44.5 49t-76.5 61.5t-112 48.5t-149.5 22q-174 0 -292 -100t-118 -238q0 -58 23.5 -105.5t63 -81t90.5 -62.5t107.5 -54.5l113 -51t107.5 -57t90.5 -68.5t63 -90.5t23.5 -117.5q0 -172 -139.5 -290.5t-343.5 -118.5
q-71 0 -134.5 13.5t-108 35.5t-81.5 48.5t-59.5 53.5t-38 49t-22.5 36zM872 1638l-163 246h47l139 -215l229 215h56l-267 -246h-41z" />
    <glyph glyph-name="scaron" unicode="&#x161;" horiz-adv-x="890" 
d="M141 178l37 27q0 -2 10 -20t34 -46t58 -54.5t89.5 -45.5t119.5 -19q130 0 216 73t86 179q0 47 -27 85t-70 64t-95 49.5t-104 47.5t-95 52t-70 69.5t-27 93.5q0 111 92.5 191t222.5 80q166 0 280 -129q12 -14 36 -48l-39 -26q-25 40 -68 80q-94 82 -213 82
q-114 0 -191 -67t-77 -159q0 -45 27 -81.5t70 -61.5t95 -48t104 -47t95 -52.5t70 -71.5t27 -96q0 -125 -102 -212t-249 -87q-156 0 -266 98q-53 49 -76 100zM657 1167l-163 246h47l139 -215l229 215h56l-267 -246h-41z" />
    <glyph glyph-name="uni0162" unicode="&#x162;" horiz-adv-x="1095" 
d="M283 -342l26 27q16 -20 33 -27q44 -27 102 -27q60 0 99 37t39 94q0 37 -28 64t-77 27q-24 0 -45 -9l-18 -6l-17 23l107 149l293 1383h-492l8 41h1024l-8 -41h-491l-295 -1393l-74 -104q73 0 113.5 -36.5t40.5 -92.5q0 -74 -54.5 -125.5t-130.5 -51.5q-58 0 -114 33
q-28 20 -41 35z" />
    <glyph glyph-name="uni0163" unicode="&#x163;" horiz-adv-x="675" 
d="M254 -342l27 27q16 -20 32 -27q44 -27 103 -27q60 0 98.5 37t38.5 94q0 38 -27.5 64.5t-76.5 26.5q-25 0 -46 -9l-18 -6l-16 23l88 125q-78 16 -120.5 85t-19.5 175l148 696h-205l10 41h144q61 0 73 61l58 267h41l-70 -328h225l-10 -41h-225l-150 -706
q-22 -103 25 -159.5t131 -56.5q36 0 76 15q36 16 37 16l-9 -45q-13 -8 -32 -14q-46 -12 -78 -12h-6l-60 -84q73 0 113.5 -36.5t40.5 -92.5q0 -74 -54 -125.5t-130 -51.5q-59 0 -115 33q-28 20 -41 35z" />
    <glyph glyph-name="Tcaron" unicode="&#x164;" horiz-adv-x="1095" 
d="M502 0l295 1393h-492l8 41h1024l-8 -41h-491l-295 -1393h-41zM831 1638l-163 246h47l139 -215l229 215h56l-267 -246h-41z" />
    <glyph glyph-name="tcaron" unicode="&#x165;" horiz-adv-x="696" 
d="M317 246l148 696h-205l10 41h144q61 0 73 61l58 267h41l-70 -328h225l-10 -41h-225l-150 -706q-22 -103 25 -159.5t131 -56.5q36 0 76 15q36 16 37 16l-9 -45q-13 -8 -32 -14q-46 -12 -78 -12q-99 0 -157 72t-32 194zM862 1167l148 267h51l-168 -267h-31z" />
    <glyph glyph-name="Tbar" unicode="&#x166;" horiz-adv-x="1095" 
d="M512 0l174 819h-358l8 41h358l113 533h-492l9 41h1024l-9 -41h-491l-113 -533h359l-9 -41h-358l-174 -819h-41z" />
    <glyph glyph-name="tbar" unicode="&#x167;" horiz-adv-x="675" 
d="M317 246l66 307h-203l8 41h203l74 348h-205l10 41h144q61 0 73 61l58 267h41l-70 -328h225l-10 -41h-225l-74 -348h225l-8 -41h-225l-68 -317q-22 -103 25 -159.5t131 -56.5q36 0 76 15q36 16 37 16l-9 -45q-13 -8 -32 -14q-46 -12 -78 -12q-99 0 -157 72t-32 194z" />
    <glyph glyph-name="Umacron" unicode="&#x16a;" horiz-adv-x="1536" 
d="M340 594l178 840h41l-178 -844q-33 -148 13.5 -279t159.5 -211t265 -80q122 0 236 61t196.5 170t112.5 243l199 940h41l-201 -949q-32 -144 -121 -260t-212 -180.5t-257 -64.5q-163 0 -284.5 87t-171.5 228.5t-17 298.5zM858 1741l8 41h512l-8 -41h-512z" />
    <glyph glyph-name="umacron" unicode="&#x16b;" 
d="M287 430l116 553h41l-116 -553q-22 -109 5 -201t107.5 -150.5t202.5 -58.5q137 0 245 97t144 260l129 606h41l-209 -983h-41l41 188q-48 -86 -144.5 -147t-211.5 -61q-99 0 -175.5 36.5t-119 98.5t-59.5 143.5t4 171.5zM614 1290l9 41h512l-9 -41h-512z" />
    <glyph glyph-name="Ubreve" unicode="&#x16c;" horiz-adv-x="1536" 
d="M340 594l178 840h41l-178 -844q-33 -148 13.5 -279t159.5 -211t265 -80q122 0 236 61t196.5 170t112.5 243l199 940h41l-201 -949q-32 -144 -121 -260t-212 -180.5t-257 -64.5q-163 0 -284.5 87t-171.5 228.5t-17 298.5zM874 1884h39q-2 -2 -2 -10v-21q0 -79 53.5 -126.5
t145.5 -47.5q94 0 151 59.5t70 145.5h41q-18 -115 -93.5 -180.5t-178.5 -65.5t-165.5 60t-62.5 153v21q0 8 2 12z" />
    <glyph glyph-name="ubreve" unicode="&#x16d;" 
d="M287 430l116 553h41l-116 -553q-22 -109 5 -201t107.5 -150.5t202.5 -58.5q137 0 245 97t144 260l129 606h41l-209 -983h-41l41 188q-48 -86 -144.5 -147t-211.5 -61q-99 0 -175.5 36.5t-119 98.5t-59.5 143.5t4 171.5zM610 1413h39q-2 -2 -2 -10v-21q0 -79 53.5 -126.5
t145.5 -47.5q94 0 151 59.5t70 145.5h41q-18 -115 -93.5 -180.5t-178.5 -65.5t-165.5 60t-62.5 153v21q0 8 2 12z" />
    <glyph glyph-name="Uring" unicode="&#x16e;" horiz-adv-x="1536" 
d="M340 594l178 840h41l-178 -844q-33 -148 13.5 -279t159.5 -211t265 -80q122 0 236 61t196.5 170t112.5 243l199 940h41l-201 -949q-32 -144 -121 -260t-212 -180.5t-257 -64.5q-163 0 -284.5 87t-171.5 228.5t-17 298.5zM1073 1577q-77 0 -123.5 46.5t-46.5 119.5
q0 85 61.5 144t145.5 59q77 0 123.5 -46.5t46.5 -119.5q0 -85 -61.5 -144t-145.5 -59zM1102 1905q-65 0 -110.5 -45t-45.5 -115q0 -56 36.5 -91.5t98.5 -35.5q65 0 110.5 45t45.5 115q0 56 -36.5 91.5t-98.5 35.5z" />
    <glyph glyph-name="uring" unicode="&#x16f;" 
d="M287 430l116 553h41l-116 -553q-22 -109 5 -201t107.5 -150.5t202.5 -58.5q137 0 245 97t144 260l129 606h41l-209 -983h-41l41 188q-48 -86 -144.5 -147t-211.5 -61q-99 0 -175.5 36.5t-119 98.5t-59.5 143.5t4 171.5zM829 1126q-77 0 -123.5 46.5t-46.5 119.5
q0 85 61.5 144t145.5 59q77 0 123.5 -46.5t46.5 -119.5q0 -85 -61.5 -144t-145.5 -59zM858 1454q-65 0 -110.5 -45t-45.5 -115q0 -56 37 -91.5t99 -35.5q65 0 110 45t45 115q0 56 -36.5 91.5t-98.5 35.5z" />
    <glyph glyph-name="Uhungarumlaut" unicode="&#x170;" horiz-adv-x="1536" 
d="M340 594l178 840h41l-178 -844q-33 -148 13.5 -279t159.5 -211t265 -80q122 0 236 61t196.5 170t112.5 243l199 940h41l-201 -949q-32 -144 -121 -260t-212 -180.5t-257 -64.5q-163 0 -284.5 87t-171.5 228.5t-17 298.5zM913 1638l205 246h56l-216 -246h-45zM1180 1638
l204 246h56l-215 -246h-45z" />
    <glyph glyph-name="uhungarumlaut" unicode="&#x171;" 
d="M287 430l116 553h41l-116 -553q-22 -109 5 -201t107.5 -150.5t202.5 -58.5q137 0 245 97t144 260l129 606h41l-209 -983h-41l41 188q-48 -86 -144.5 -147t-211.5 -61q-99 0 -175.5 36.5t-119 98.5t-59.5 143.5t4 171.5zM670 1167l204 246h56l-215 -246h-45zM936 1167
l205 246h55l-215 -246h-45z" />
    <glyph glyph-name="Uogonek" unicode="&#x172;" horiz-adv-x="1536" 
d="M877 -328l-9 -41q-6 -3 -18 -8.5t-16 -7.5q-40 -14 -80 -14q-79 0 -114.5 39t-35.5 94q0 39 17.5 77.5t51 74.5t52 53t51.5 43q-152 11 -264.5 99.5t-158.5 225t-13 287.5l178 840h41l-178 -844q-33 -148 13.5 -279t159.5 -211t265 -80q122 0 236 61t196.5 170t112.5 243
l199 940h41l-201 -949q-32 -144 -120 -260t-210.5 -180.5t-255.5 -64.5q-172 -140 -172 -246q0 -41 26 -66.5t77 -25.5q54 0 92 14q36 16 37 16z" />
    <glyph glyph-name="uogonek" unicode="&#x173;" 
d="M1024 -328l-8 -41q-6 -3 -18 -8.5t-17 -7.5q-40 -14 -80 -14q-79 0 -114 39t-35 94q0 90 100 186q44 44 100 80l41 188q-48 -86 -144.5 -147t-211.5 -61q-99 0 -175.5 36.5t-119 98.5t-59.5 143.5t4 171.5l116 553h41l-116 -553q-22 -109 5 -201t107.5 -150.5
t202.5 -58.5q137 0 245 97t144 260l129 606h41l-209 -983q-52 -36 -100 -84q-100 -96 -100 -182q0 -41 25.5 -66.5t76.5 -25.5q54 0 92 14q36 16 37 16z" />
    <glyph glyph-name="Wcircumflex" unicode="&#x174;" horiz-adv-x="1986" 
d="M492 0l-158 1434h41l149 -1366l729 1366h21l151 -1366l727 1366h46l-764 -1434h-39l-150 1331l-710 -1331h-43zM1057 1638l266 246h41l164 -246h-47l-140 215l-229 -215h-55z" />
    <glyph glyph-name="wcircumflex" unicode="&#x175;" horiz-adv-x="1413" 
d="M358 0l-108 983h41l100 -915l492 915h20l103 -915l489 915h45l-526 -983h-39l-103 879l-471 -879h-43zM668 1167l266 246h41l164 -246h-47l-140 215l-229 -215h-55z" />
    <glyph glyph-name="Ycircumflex" unicode="&#x176;" horiz-adv-x="1228" 
d="M563 0l107 502l-336 932h43l317 -887l695 887h51l-729 -932l-107 -502h-41zM657 1638l267 246h41l163 -246h-47l-139 215l-229 -215h-56z" />
    <glyph glyph-name="ycircumflex" unicode="&#x177;" horiz-adv-x="962" 
d="M-16 -410l8 41l20 -10q23 -10 58 -10q128 0 227 164l143 231l-190 977h43l180 -922l569 922h48l-746 -1208q-68 -114 -132 -159.5t-151 -45.5q-34 0 -57 10zM453 1167l266 246h41l164 -246h-47l-140 215l-229 -215h-55z" />
    <glyph glyph-name="Ydieresis" unicode="&#x178;" horiz-adv-x="1228" 
d="M563 0l107 502l-336 932h43l317 -887l695 887h51l-729 -932l-107 -502h-41zM750 1720q-17 0 -27 11t-10 28t14 30t33 13q17 0 27 -11t10 -28t-14 -30t-33 -13zM1077 1720q-17 0 -27 11t-10 28t14 30t33 13q17 0 27 -11t10 -28t-14 -30t-33 -13z" />
    <glyph glyph-name="Zacute" unicode="&#x179;" horiz-adv-x="1146" 
d="M92 0l8 41l1194 1352h-876l8 41h932l-8 -41l-1192 -1352h925l-8 -41h-983zM883 1638l204 246h56l-215 -246h-45z" />
    <glyph glyph-name="zacute" unicode="&#x17a;" horiz-adv-x="870" 
d="M72 0l8 41l860 901h-649l10 41h707l-11 -41l-858 -901h688l-8 -41h-747zM657 1167l205 246h56l-216 -246h-45z" />
    <glyph glyph-name="Zdotaccent" unicode="&#x17b;" horiz-adv-x="1146" 
d="M92 0l8 41l1194 1352h-876l8 41h932l-8 -41l-1192 -1352h925l-8 -41h-983zM918 1720q-17 0 -27 11t-10 28t14 30t33 13q17 0 27 -11t10 -28t-14 -30t-33 -13z" />
    <glyph glyph-name="zdotaccent" unicode="&#x17c;" horiz-adv-x="870" 
d="M72 0l8 41l860 901h-649l10 41h707l-11 -41l-858 -901h688l-8 -41h-747zM692 1249q-17 0 -27 11t-10 28t14 30t33 13q17 0 27 -11t10 -28t-14 -30t-33 -13z" />
    <glyph glyph-name="Zcaron" unicode="&#x17d;" horiz-adv-x="1146" 
d="M92 0l8 41l1194 1352h-876l8 41h932l-8 -41l-1192 -1352h925l-8 -41h-983zM883 1638l-164 246h47l139 -215l230 215h55l-266 -246h-41z" />
    <glyph glyph-name="zcaron" unicode="&#x17e;" horiz-adv-x="870" 
d="M72 0l8 41l860 901h-649l10 41h707l-11 -41l-858 -901h688l-8 -41h-747zM657 1167l-163 246h47l139 -215l229 215h56l-267 -246h-41z" />
    <glyph glyph-name="uni018F" unicode="&#x18f;" horiz-adv-x="1546" 
d="M252 717h1284l4 31q4 36 4 71q0 261 -161 427.5t-410 166.5q-189 0 -359 -106q-74 -45 -137 -105l-28 33q63 60 143 108q186 111 385 111q130 0 242 -47.5t191.5 -131.5t125 -204t45.5 -260q0 -182 -66.5 -340.5t-174 -264t-243 -166t-274.5 -60.5q-162 0 -294.5 79.5
t-208.5 222t-76 320.5q0 32 4 78zM1532 676h-1245q-2 -8 -2 -23v-51q0 -257 152.5 -419.5t393.5 -162.5q115 0 228.5 45.5t209.5 128t166.5 208t96.5 274.5z" />
    <glyph glyph-name="florin" unicode="&#x192;" horiz-adv-x="716" 
d="M-166 -399l4 41q7 -4 37 -17q38 -14 84 -14q88 0 140 48.5t83 145.5l271 922h-185l4 41h195l131 461q64 225 268 225q42 0 88 -16l33 -15l-6 -41l-37 15q-46 16 -82 16q-171 0 -223 -184l-131 -461h256l-4 -41h-266l-271 -922q-34 -114 -99 -174.5t-171 -60.5
q-54 0 -86 14z" />
    <glyph glyph-name="Aringacute" unicode="&#x1fa;" horiz-adv-x="1351" 
d="M92 0l871 1391q-54 17 -83.5 58.5t-29.5 98.5q0 85 61.5 144t145.5 59q77 0 123.5 -46.5t46.5 -119.5q0 -80 -55 -137.5t-132 -65.5l281 -1382h-39l-92 451h-770l-281 -451h-47zM446 492h736l-178 886zM893 1550q0 -56 36.5 -91.5t98.5 -35.5q65 0 110.5 45t45.5 115
q0 56 -36.5 91.5t-98.5 35.5q-65 0 -110.5 -45t-45.5 -115zM1053 1782l204 246h56l-215 -246h-45z" />
    <glyph glyph-name="aringacute" unicode="&#x1fb;" horiz-adv-x="1024" 
d="M895 389l37 174l-465 -76q-260 -43 -260 -241q0 -92 77 -159t203 -67q154 0 263.5 99.5t144.5 269.5zM813 0l45 211q-29 -62 -84 -117q-118 -114 -297 -114q-143 0 -227 78.5t-84 185.5q0 232 319 284l457 76q37 146 -44 252.5t-230 106.5q-107 0 -209 -62
q-50 -29 -80 -59l-25 32q46 42 86 64q110 66 230 66q110 0 190.5 -54t112.5 -146.5t8 -201.5l-127 -602h-41zM588 1210q0 85 61.5 144t145.5 59q77 0 123.5 -46.5t46.5 -119.5q0 -85 -61.5 -144t-145.5 -59q-77 0 -123.5 46.5t-46.5 119.5zM631 1212q0 -56 36.5 -91.5
t98.5 -35.5q65 0 110.5 45t45.5 115q0 56 -37 91.5t-99 35.5q-65 0 -110 -45t-45 -115zM813 1454l205 246h55l-215 -246h-45z" />
    <glyph glyph-name="AEacute" unicode="&#x1fc;" horiz-adv-x="1914" 
d="M-31 0l1102 1434h1045l-9 -41h-778l-133 -625h614l-8 -41h-614l-146 -686h799l-8 -41h-840l99 471h-711l-363 -471h-49zM414 512h688l186 881h-198zM1343 1638l205 246h56l-215 -246h-46z" />
    <glyph glyph-name="aeacute" unicode="&#x1fd;" horiz-adv-x="1775" 
d="M895 389l23 103h-381q-146 0 -238 -63.5t-92 -182.5q0 -92 77 -159t203 -67q154 0 263.5 99.5t144.5 269.5zM567 532h359l16 72q33 148 -45.5 253.5t-228.5 105.5q-107 0 -209 -62q-50 -29 -80 -59l-25 32q46 42 86 64q110 66 230 66q73 0 132.5 -25t97 -66t60 -85
t31.5 -91q39 71 101 133q138 134 309 134q163 0 270 -112t107 -296q0 -19 -3 -44.5t-6 -42.5t-4 -17h-802q-2 -8 -2 -27q-3 -24 -3 -55q0 -173 94.5 -282.5t245.5 -109.5q125 0 236 76q52 34 88 76l31 -25q-49 -49 -101 -84q-124 -81 -258 -81q-202 0 -311 167
q-48 76 -63 170q-31 -97 -89 -170q-131 -167 -354 -167q-143 0 -227 78.5t-84 185.5q0 134 108.5 211t292.5 77zM971 532h760q0 13 2 19q0 4 1 18t1 23q0 170 -92.5 270.5t-241.5 100.5q-159 0 -286 -126.5t-144 -304.5zM1067 1167l205 246h55l-215 -246h-45z" />
    <glyph glyph-name="Oslashacute" unicode="&#x1fe;" horiz-adv-x="1679" 
d="M172 -20l-25 30l242 213q-141 183 -141 430q0 168 67.5 318t178.5 255t258.5 166.5t304.5 61.5q150 0 275.5 -56t215.5 -157l242 213l25 -31l-242 -213q141 -183 141 -430q0 -167 -68.5 -317.5t-181 -255t-259.5 -166t-300 -61.5q-301 0 -491 213zM1540 1182l-1094 -961
q182 -201 465 -201q143 0 281 57.5t244.5 156t171.5 241t65 301.5q0 235 -133 406zM422 252l1094 960q-86 96 -205.5 148.5t-259.5 52.5q-143 0 -281 -57.5t-244.5 -156t-171.5 -241t-65 -301.5q0 -240 133 -405zM1108 1638l205 246h55l-215 -246h-45z" />
    <glyph glyph-name="oslashacute" unicode="&#x1ff;" 
d="M139 -31l-24 31l178 158q-78 116 -78 276q0 124 46.5 232t122 181t172.5 115t198 42q198 0 321 -148l176 158l25 -31l-178 -158q78 -116 78 -276q0 -164 -79 -296.5t-201.5 -202.5t-258.5 -70q-98 0 -181 38.5t-141 108.5zM324 186l720 641q-117 136 -296 136
q-93 0 -181.5 -38.5t-157.5 -106t-111 -168t-42 -216.5q0 -140 68 -248zM1067 797l-721 -641q117 -136 297 -136q93 0 181.5 38.5t157.5 106t111 168t42 216.5q0 140 -68 248zM793 1167l204 246h56l-215 -246h-45z" />
    <glyph glyph-name="Scommaaccent" unicode="&#x218;" horiz-adv-x="1116" 
d="M152 229l38 27l4 -8q3 -7 11.5 -21t20.5 -31.5t31 -37.5t42.5 -39t55.5 -37t68.5 -32t84.5 -22t100 -8q184 0 309 106t125 255q0 77 -37.5 137t-97.5 98.5t-132.5 72t-145 67.5t-132.5 73.5t-97.5 101t-37.5 140.5q0 163 132.5 273t328.5 110q190 0 324 -108
q53 -42 98 -107l-35 -27q-5 8 -14.5 22t-44.5 49t-76.5 61.5t-112 48.5t-149.5 22q-174 0 -292 -100t-118 -238q0 -58 23.5 -105.5t63 -81t90.5 -62.5t107.5 -54.5l113 -51t107.5 -57t90.5 -68.5t63 -90.5t23.5 -117.5q0 -172 -139.5 -290.5t-343.5 -118.5
q-71 0 -134.5 13.5t-108 35.5t-81.5 48.5t-59.5 53.5t-38 49t-22.5 36zM412 -430l145 266h51l-168 -266h-28z" />
    <glyph glyph-name="scommaaccent" unicode="&#x219;" horiz-adv-x="890" 
d="M141 178l37 27q0 -2 10 -20t34 -46t58 -54.5t89.5 -45.5t119.5 -19q130 0 216 73t86 179q0 47 -27 85t-70 64t-95 49.5t-104 47.5t-95 52t-70 69.5t-27 93.5q0 111 92.5 191t222.5 80q166 0 280 -129q12 -14 36 -48l-39 -26q-25 40 -68 80q-94 82 -213 82
q-114 0 -191 -67t-77 -159q0 -45 27 -81.5t70 -61.5t95 -48t104 -47t95 -52.5t70 -71.5t27 -96q0 -125 -102 -212t-249 -87q-156 0 -266 98q-53 49 -76 100zM289 -430l145 266h51l-168 -266h-28z" />
    <glyph glyph-name="uni021A" unicode="&#x21a;" horiz-adv-x="1095" 
d="M502 0l295 1393h-492l8 41h1024l-8 -41h-491l-295 -1393h-41zM319 -430l146 266h51l-168 -266h-29z" />
    <glyph glyph-name="uni021B" unicode="&#x21b;" horiz-adv-x="675" 
d="M317 246l148 696h-205l10 41h144q61 0 73 61l58 267h41l-70 -328h225l-10 -41h-225l-150 -706q-22 -103 25 -159.5t131 -56.5q36 0 76 15q36 16 37 16l-9 -45q-13 -8 -32 -14q-46 -12 -78 -12q-99 0 -157 72t-32 194zM268 -430l146 266h51l-168 -266h-29z" />
    <glyph glyph-name="uni0232" unicode="&#x232;" horiz-adv-x="1228" 
d="M563 0l107 502l-336 932h43l317 -887l695 887h51l-729 -932l-107 -502h-41zM674 1741l8 41h512l-8 -41h-512z" />
    <glyph glyph-name="uni0233" unicode="&#x233;" horiz-adv-x="962" 
d="M-16 -410l8 41l20 -10q23 -10 58 -10q128 0 227 164l143 231l-190 977h43l180 -922l569 922h48l-746 -1208q-68 -114 -132 -159.5t-151 -45.5q-34 0 -57 10zM469 1290l8 41h512l-8 -41h-512z" />
    <glyph glyph-name="uni0244" unicode="&#x244;" horiz-adv-x="1597" 
d="M494 829l-52 -235q-28 -122 -5.5 -227t78 -182t144.5 -121t195 -44q178 0 328.5 131.5t199.5 342.5l74 335h-962zM403 596l50 233h-226l9 41h225l119 564h41l-119 -564h962l119 564h41l-119 -564h226l-9 -41h-225l-74 -337q-32 -151 -120.5 -269.5t-207 -180.5
t-245.5 -62q-157 0 -272.5 82.5t-162.5 224.5t-12 309z" />
    <glyph glyph-name="uni0259" unicode="&#x259;" horiz-adv-x="1136" 
d="M211 512h870v55q0 166 -106 281t-270 115q-136 0 -244 -74q-47 -31 -90 -74l-29 25q44 44 100 82q126 82 269 82q177 0 294 -126t117 -325q0 -126 -44 -235.5t-116.5 -182t-166 -114t-191.5 -41.5q-179 0 -290 115t-111 308q0 24 4 70zM1077 471h-831l-4 -22
q-2 -14 -2 -48q0 -165 104.5 -273t263.5 -108q120 0 221.5 62t164.5 163.5t83 225.5z" />
    <glyph glyph-name="uni0289" unicode="&#x289;" horiz-adv-x="1249" 
d="M180 563l8 43h164l82 377h41l-82 -377h699l79 377h41l-79 -377h182l-8 -43h-183l-120 -563h-41l41 188q-45 -84 -146 -146t-199 -62q-126 0 -215 61t-122.5 164t-6.5 225l29 133h-164zM385 563l-29 -133q-25 -108 4 -201t109.5 -151t196.5 -58q76 0 151 38t138.5 121.5
t86.5 197.5l39 186h-696z" />
    <glyph glyph-name="uni02BC" unicode="&#x2bc;" horiz-adv-x="266" 
d="M309 1167l148 267h51l-168 -267h-31z" />
    <glyph glyph-name="circumflex" unicode="&#x2c6;" horiz-adv-x="593" 
d="M309 1167l266 246h41l164 -246h-47l-139 215l-229 -215h-56z" />
    <glyph glyph-name="caron" unicode="&#x2c7;" horiz-adv-x="593" 
d="M524 1167l-164 246h48l139 -215l229 215h55l-266 -246h-41z" />
    <glyph glyph-name="breve" unicode="&#x2d8;" horiz-adv-x="614" 
d="M332 1413h39q-2 -2 -2 -10v-21q0 -79 53.5 -126.5t144.5 -47.5q94 0 151 59.5t70 145.5h41q-18 -115 -93.5 -180.5t-178.5 -65.5t-165 59.5t-62 153.5v21q0 8 2 12z" />
    <glyph glyph-name="dotaccent" unicode="&#x2d9;" horiz-adv-x="202" 
d="M375 1270q-17 0 -27 11t-10 28t14 30t33 13q17 0 27 -11t10 -28t-14 -30t-33 -13z" />
    <glyph glyph-name="ring" unicode="&#x2da;" horiz-adv-x="491" 
d="M469 1044q-77 0 -123.5 46.5t-46.5 119.5q0 85 61.5 144t145.5 59q77 0 123.5 -46.5t46.5 -119.5q0 -85 -61.5 -144t-145.5 -59zM498 1372q-65 0 -110.5 -45t-45.5 -115q0 -56 36.5 -91.5t98.5 -35.5q65 0 110.5 45t45.5 115q0 56 -36.5 91.5t-98.5 35.5z" />
    <glyph glyph-name="ogonek" unicode="&#x2db;" horiz-adv-x="409" 
d="M262 -328l-8 -41q-6 -3 -18 -8.5t-17 -7.5q-40 -14 -80 -14q-79 0 -114 39t-35 94q0 90 100 186q44 44 100 80h41q-52 -36 -100 -84q-100 -96 -100 -182q0 -41 25.5 -66.5t76.5 -25.5q54 0 92 14q36 16 37 16z" />
    <glyph glyph-name="tilde" unicode="&#x2dc;" horiz-adv-x="645" 
d="M354 1188h-41q11 103 54.5 154t101.5 51q34 0 62 -17t47 -41t37.5 -48t42 -41t51.5 -17q89 0 108 164h41q-10 -103 -53.5 -154t-102.5 -51q-34 0 -61.5 17t-46 41t-36 48t-41 41t-52.5 17q-92 0 -111 -164z" />
    <glyph glyph-name="hungarumlaut" unicode="&#x2dd;" horiz-adv-x="593" 
d="M309 1167l205 246h55l-215 -246h-45zM575 1167l205 246h56l-215 -246h-46z" />
    <glyph glyph-name="acutecomb" unicode="&#x301;" horiz-adv-x="0" 
d="M-500 1495l205 246h55l-215 -246h-45z" />
    <glyph glyph-name="uni0302" unicode="&#x302;" horiz-adv-x="0" 
d="M-700 1516l266 245h41l164 -245h-47l-140 215l-229 -215h-55z" />
    <glyph glyph-name="uni0304" unicode="&#x304;" horiz-adv-x="0" 
d="M-711 1567l9 41h512l-9 -41h-512z" />
    <glyph glyph-name="uni0306" unicode="&#x306;" horiz-adv-x="0" 
d="M-678 1761h39q-2 -2 -2 -10v-20q0 -79 54 -127t145 -48q94 0 151 59.5t70 145.5h41q-18 -115 -94 -180t-179 -65t-165 59.5t-62 153.5v20q0 8 2 12z" />
    <glyph glyph-name="uni0307" unicode="&#x307;" horiz-adv-x="0" 
d="M-434 1556q-17 0 -27 11t-10 28t14 30t33 13q17 0 27 -11t10 -28t-14 -30t-33 -13z" />
    <glyph glyph-name="uni0308" unicode="&#x308;" horiz-adv-x="0" 
d="M-633 1556q-17 0 -27 11t-10 28t14 30t33 13q17 0 27 -11t10 -28t-14 -30t-33 -13zM-305 1556q-17 0 -27 11t-10 28t14 30t33 13q17 0 27 -11t10 -28t-14 -30t-33 -13z" />
    <glyph glyph-name="uni030A" unicode="&#x30a;" horiz-adv-x="0" 
d="M-455 1516q-77 0 -123.5 46t-46.5 119q0 85 61.5 144t145.5 59q77 0 123.5 -46.5t46.5 -119.5q0 -85 -61.5 -143.5t-145.5 -58.5zM-426 1843q-65 0 -110.5 -45t-45.5 -115q0 -56 37 -91.5t99 -35.5q65 0 110 45t45 115q0 56 -36.5 91.5t-98.5 35.5z" />
    <glyph glyph-name="uni030C" unicode="&#x30c;" horiz-adv-x="0" 
d="M-485 1516l-164 245h47l139 -215l230 215h55l-266 -245h-41z" />
    <glyph glyph-name="uni0326" unicode="&#x326;" horiz-adv-x="266" 
d="M-29 -430l146 266h51l-168 -266h-29z" />
    <glyph glyph-name="Alphatonos" unicode="&#x386;" horiz-adv-x="1351" 
d="M504 1188l205 246h55l-215 -246h-45zM92 0l897 1434h41l291 -1434h-39l-92 451h-770l-281 -451h-47zM446 492h736l-178 886z" />
    <glyph glyph-name="Epsilontonos" unicode="&#x388;" horiz-adv-x="1280" 
d="M186 1188l205 246h55l-215 -246h-45zM246 0l303 1434h932l-8 -41h-891l-133 -625h727l-9 -41h-727l-145 -686h911l-8 -41h-952z" />
    <glyph glyph-name="Etatonos" unicode="&#x389;" horiz-adv-x="1525" 
d="M186 1188l205 246h55l-215 -246h-45zM246 0l303 1434h41l-146 -686h953l145 686h41l-303 -1434h-41l150 707h-953l-149 -707h-41z" />
    <glyph glyph-name="Iotatonos" unicode="&#x38a;" horiz-adv-x="532" 
d="M186 1188l205 246h55l-215 -246h-45zM246 0l303 1434h41l-303 -1434h-41z" />
    <glyph glyph-name="Omicrontonos" unicode="&#x38c;" horiz-adv-x="1679" 
d="M184 1188l205 246h55l-215 -246h-45zM1051 1413q-143 0 -281 -57.5t-244.5 -156t-171.5 -241t-65 -301.5q0 -178 78.5 -323t221.5 -229.5t322 -84.5q143 0 281 57.5t244.5 156t171.5 241t65 301.5q0 178 -78.5 323t-221.5 229.5t-322 84.5zM905 -20q-193 0 -344 91
t-232 244t-81 338q0 134 44 259t122 222t179.5 170t221.5 111.5t242 38.5q145 0 269 -53.5t208.5 -144.5t132 -214.5t47.5 -261.5q0 -167 -68.5 -317.5t-181 -255t-259.5 -166t-300 -61.5z" />
    <glyph glyph-name="Upsilontonos" unicode="&#x38e;" horiz-adv-x="1228" 
d="M53 1188l205 246h55l-215 -246h-45zM563 0l107 502l-336 932h43l317 -887l695 887h51l-729 -932l-107 -502h-41z" />
    <glyph glyph-name="Omegatonos" unicode="&#x38f;" horiz-adv-x="1658" 
d="M227 1188l205 246h55l-215 -246h-45zM195 0l8 41h420l12 65q-71 37 -131 89.5t-109 123.5t-76.5 166t-27.5 203q0 132 41 252.5t114 212.5t169 160.5t209.5 104.5t232.5 36q180 0 325 -83.5t224.5 -225t79.5 -311.5q0 -122 -37.5 -232t-99.5 -191.5t-144 -147
t-168 -106.5t-174 -61l-10 -55h420l-9 -41h-460l26 127q91 20 176.5 58.5t166 100.5t140.5 139.5t96 182.5t36 223q0 159 -74.5 291.5t-211.5 211.5t-308 79q-112 0 -218.5 -33.5t-196.5 -97.5t-158.5 -151t-107 -200.5t-38.5 -238.5q0 -107 28 -198t78 -159.5t110 -118.5
t134 -89l-27 -127h-460z" />
    <glyph glyph-name="iotadieresistonos" unicode="&#x390;" horiz-adv-x="563" 
d="M350 1167l205 246h51l-215 -246h-41zM297 1249q-17 0 -27 11t-10 28t14 30t33 13q17 0 27 -11t10 -28t-14 -30t-33 -13zM627 1249q-17 0 -27 11t-10 28t14 30t33 13q17 0 27 -11t10 -28t-14 -30t-33 -13zM242 256l155 727h41l-155 -727q-24 -111 22 -173.5t144 -62.5
q32 0 69 11l31 12l-8 -41l-31 -12q-33 -10 -70 -10q-116 0 -169.5 79t-28.5 197z" />
    <glyph glyph-name="Alpha" unicode="&#x391;" horiz-adv-x="1351" 
d="M92 0l897 1434h41l291 -1434h-39l-92 451h-770l-281 -451h-47zM446 492h736l-178 886z" />
    <glyph glyph-name="Beta" unicode="&#x392;" horiz-adv-x="1341" 
d="M451 778h512q157 0 254.5 94.5t97.5 247.5q0 119 -82.5 196t-218.5 77h-432zM295 41h524q194 0 307 108.5t113 276.5q0 139 -95 225t-243 86h-459zM246 0l303 1434h465q153 0 247.5 -88.5t94.5 -227.5q0 -219 -180 -320q-54 -31 -132 -48q67 -22 119 -62
q119 -95 119 -258q0 -191 -130.5 -310.5t-332.5 -119.5h-573z" />
    <glyph glyph-name="Gamma" unicode="&#x393;" horiz-adv-x="1136" 
d="M246 0l303 1434h840l-9 -41h-798l-295 -1393h-41z" />
    <glyph glyph-name="uni0394" unicode="&#x394;" horiz-adv-x="1351" 
d="M92 0l897 1434h41l291 -1434h-1229zM166 41h1106l-271 1331z" />
    <glyph glyph-name="Epsilon" unicode="&#x395;" horiz-adv-x="1280" 
d="M246 0l303 1434h932l-8 -41h-891l-133 -625h727l-9 -41h-727l-145 -686h911l-8 -41h-952z" />
    <glyph glyph-name="Zeta" unicode="&#x396;" horiz-adv-x="1146" 
d="M92 0l8 41l1194 1352h-876l8 41h932l-8 -41l-1192 -1352h925l-8 -41h-983z" />
    <glyph glyph-name="Eta" unicode="&#x397;" horiz-adv-x="1525" 
d="M246 0l303 1434h41l-146 -686h953l145 686h41l-303 -1434h-41l150 707h-953l-149 -707h-41z" />
    <glyph glyph-name="Theta" unicode="&#x398;" horiz-adv-x="1679" 
d="M567 696l8 41h820l-9 -41h-819zM905 -20q-193 0 -344 91t-232 244t-81 338q0 134 44 259t122 222t179.5 170t221.5 111.5t242 38.5q145 0 269 -53.5t208.5 -144.5t132 -214.5t47.5 -261.5q0 -167 -68.5 -317.5t-181 -255t-259.5 -166t-300 -61.5zM1051 1413
q-143 0 -281 -57.5t-244.5 -156t-171.5 -241t-65 -301.5q0 -178 78.5 -323t221.5 -229.5t322 -84.5q143 0 281 57.5t244.5 156t171.5 241t65 301.5q0 178 -78.5 323t-221.5 229.5t-322 84.5z" />
    <glyph glyph-name="Iota" unicode="&#x399;" horiz-adv-x="532" 
d="M246 0l303 1434h41l-303 -1434h-41z" />
    <glyph glyph-name="Kappa" unicode="&#x39a;" horiz-adv-x="1331" 
d="M246 0l303 1434h41l-207 -971l1085 971h58l-674 -605l418 -829h-45l-406 803l-448 -402l-84 -401h-41z" />
    <glyph glyph-name="Lambda" unicode="&#x39b;" horiz-adv-x="1331" 
d="M92 0l887 1434h41l280 -1434h-40l-269 1372l-850 -1372h-49z" />
    <glyph glyph-name="Mu" unicode="&#x39c;" horiz-adv-x="1863" 
d="M246 0l303 1434h26l463 -912l848 912h35l-303 -1434h-41l287 1352l-838 -901l-453 901l-286 -1352h-41z" />
    <glyph glyph-name="Nu" unicode="&#x39d;" horiz-adv-x="1587" 
d="M246 0l303 1434h31l737 -1356l287 1356h41l-304 -1434h-30l-736 1356l-288 -1356h-41z" />
    <glyph glyph-name="Xi" unicode="&#x39e;" horiz-adv-x="1239" 
d="M123 0l8 41h993l-8 -41h-993zM438 1393l8 41h953l-8 -41h-953zM512 727l8 41h522l-8 -41h-522z" />
    <glyph glyph-name="Omicron" unicode="&#x39f;" horiz-adv-x="1679" 
d="M1051 1413q-143 0 -281 -57.5t-244.5 -156t-171.5 -241t-65 -301.5q0 -178 78.5 -323t221.5 -229.5t322 -84.5q143 0 281 57.5t244.5 156t171.5 241t65 301.5q0 178 -78.5 323t-221.5 229.5t-322 84.5zM905 -20q-193 0 -344 91t-232 244t-81 338q0 134 44 259t122 222
t179.5 170t221.5 111.5t242 38.5q145 0 269 -53.5t208.5 -144.5t132 -214.5t47.5 -261.5q0 -167 -68.5 -317.5t-181 -255t-259.5 -166t-300 -61.5z" />
    <glyph glyph-name="Pi" unicode="&#x3a0;" horiz-adv-x="1525" 
d="M246 0l303 1434h1034l-303 -1434h-41l295 1393h-952l-295 -1393h-41z" />
    <glyph glyph-name="Rho" unicode="&#x3a1;" horiz-adv-x="1320" 
d="M246 0l303 1434h434q177 0 297.5 -109t120.5 -285q0 -191 -141 -318.5t-351 -127.5h-497l-125 -594h-41zM420 635h493q197 0 322 116.5t125 295.5q0 152 -105 249t-260 97h-413z" />
    <glyph glyph-name="Sigma" unicode="&#x3a3;" horiz-adv-x="1085" 
d="M123 0l6 31l705 717l-414 655l6 31h881l-9 -41h-823l412 -652l-690 -700h815l-8 -41h-881z" />
    <glyph glyph-name="Tau" unicode="&#x3a4;" horiz-adv-x="1095" 
d="M502 0l295 1393h-492l8 41h1024l-8 -41h-491l-295 -1393h-41z" />
    <glyph glyph-name="Upsilon" unicode="&#x3a5;" horiz-adv-x="1228" 
d="M563 0l107 502l-336 932h43l317 -887l695 887h51l-729 -932l-107 -502h-41z" />
    <glyph glyph-name="Phi" unicode="&#x3a6;" horiz-adv-x="1679" 
d="M827 102l263 1229q-168 10 -317 -37.5t-254.5 -137t-166.5 -216.5t-61 -272q0 -227 143.5 -380.5t392.5 -185.5zM784 -102l35 163q-263 36 -416 200.5t-153 402.5q0 159 67.5 295.5t182 229.5t270.5 142.5t328 40.5l35 164h41l-35 -164q261 -37 415 -201t154 -401
q0 -158 -67.5 -295.5t-181.5 -231t-270.5 -143t-328.5 -39.5l-35 -163h-41zM1130 1331l-262 -1229q112 -7 217.5 12.5t193 60.5t160 102.5t123 136.5t78 165t27.5 187q0 225 -144.5 379t-392.5 186z" />
    <glyph glyph-name="Chi" unicode="&#x3a7;" horiz-adv-x="1228" 
d="M61 0l684 737l-350 697h47l332 -660l610 660h56l-645 -697l372 -737h-47l-354 700l-649 -700h-56z" />
    <glyph glyph-name="Psi" unicode="&#x3a8;" horiz-adv-x="1638" 
d="M776 0l90 430q-191 24 -312 111.5t-162 224t-3 309.5l76 359h41l-76 -359q-55 -251 59.5 -412.5t384.5 -193.5l205 965h41l-205 -965q268 -12 445.5 111.5t230.5 371.5l103 482h41l-103 -482q-57 -263 -248.5 -402.5t-476.5 -119.5l-90 -430h-41z" />
    <glyph glyph-name="uni03A9" unicode="&#x3a9;" horiz-adv-x="1658" 
d="M195 0l8 41h420l12 65q-71 37 -131 89.5t-109 123.5t-76.5 166t-27.5 203q0 132 41 252.5t114 212.5t169 160.5t209.5 104.5t232.5 36q180 0 325 -83.5t224.5 -225t79.5 -311.5q0 -122 -37.5 -232t-99.5 -191.5t-144 -147t-168 -106.5t-174 -61l-10 -55h420l-9 -41h-460
l26 127q91 20 176.5 58.5t166 100.5t140.5 139.5t96 182.5t36 223q0 159 -74.5 291.5t-211.5 211.5t-308 79q-112 0 -218.5 -33.5t-196.5 -97.5t-158.5 -151t-107 -200.5t-38.5 -238.5q0 -107 28 -198t78 -159.5t110 -118.5t134 -89l-27 -127h-460z" />
    <glyph glyph-name="Iotadieresis" unicode="&#x3aa;" horiz-adv-x="532" 
d="M246 0l303 1434h41l-303 -1434h-41zM453 1720q-17 0 -27 11t-10 28t14 30t33 13q17 0 27 -11t10 -28t-14 -30t-33 -13zM780 1720q-17 0 -27 11t-10 28t14.5 30t33.5 13q17 0 26.5 -10.5t9.5 -28.5q0 -17 -14 -30t-33 -13z" />
    <glyph glyph-name="Upsilondieresis" unicode="&#x3ab;" horiz-adv-x="1228" 
d="M563 0l107 502l-336 932h43l317 -887l695 887h51l-729 -932l-107 -502h-41zM750 1720q-17 0 -27 11t-10 28t14 30t33 13q17 0 27 -11t10 -28t-14 -30t-33 -13zM1077 1720q-17 0 -27 11t-10 28t14 30t33 13q17 0 27 -11t10 -28t-14 -30t-33 -13z" />
    <glyph glyph-name="alphatonos" unicode="&#x3ac;" horiz-adv-x="1249" 
d="M612 20q83 0 168.5 40t154.5 107.5t113 167t44 208.5q0 177 -105 298.5t-250 121.5q-83 0 -168 -40t-154 -107.5t-113 -167t-44 -208.5q0 -178 104.5 -299t249.5 -121zM1024 174l12 55q-48 -73 -112 -125q-146 -124 -318 -124q-74 0 -144 33.5t-124.5 92t-87.5 145
t-33 185.5q0 123 48.5 232t125 181t169 113.5t181.5 41.5q68 0 129 -24.5t104 -63t76 -87.5t51 -97t23 -91l72 342h41l-170 -799q-17 -72 15 -112.5t106 -40.5q22 0 26 2q7 0 9 2l-11 -41q-2 -2 -8 -2q-4 -2 -22 -2q-86 0 -130.5 53t-27.5 131zM821 1167l205 246h55
l-215 -246h-45z" />
    <glyph glyph-name="epsilontonos" unicode="&#x3ad;" horiz-adv-x="931" 
d="M854 135l27 -29q-33 -36 -86 -63q-109 -63 -254 -63q-164 0 -259.5 79t-95.5 191q0 154 146 231q63 34 147 43q-34 14 -76 47q-75 63 -75 164q0 110 93 189.5t230 79.5q139 0 256 -80q52 -37 86 -80l-37 -23q-38 45 -77 70q-105 72 -234 72q-120 0 -197 -66.5t-77 -159.5
q0 -88 67.5 -146.5t175.5 -58.5h123l-8 -40h-190q-140 0 -226 -70.5t-86 -169.5q0 -98 85.5 -165t238.5 -67q132 0 227 58q48 25 76 57zM698 1167l205 246h55l-215 -246h-45z" />
    <glyph glyph-name="etatonos" unicode="&#x3ae;" horiz-adv-x="1177" 
d="M780 1167l205 246h55l-215 -246h-45zM195 0l208 983h41l-41 -188q50 87 146.5 148t210.5 61q131 0 220.5 -63t122 -165t7.5 -223l-117 -553h-41l117 553q22 109 -5 201t-107.5 150.5t-202.5 58.5q-137 0 -245 -97t-144 -260l-129 -606h-41z" />
    <glyph glyph-name="iotatonos" unicode="&#x3af;" horiz-adv-x="563" 
d="M242 256l155 727h41l-155 -727q-24 -111 22 -173.5t144 -62.5q32 0 69 11l31 12l-8 -41l-31 -12q-33 -10 -70 -10q-116 0 -169.5 79t-28.5 197zM442 1167l205 246h55l-215 -246h-45z" />
    <glyph glyph-name="upsilondieresistonos" unicode="&#x3b0;" horiz-adv-x="1146" 
d="M698 1167l205 246h51l-215 -246h-41zM645 1249q-17 0 -27 11t-10 28t14 30t33 13q17 0 27 -11t10 -28t-14 -30t-33 -13zM975 1249q-17 0 -27 11t-10 28t14 30t33 13q17 0 27 -11t10 -28t-14 -30t-33 -13zM270 436l117 547h41l-119 -553q-27 -121 5.5 -215.5t112.5 -144.5
t191 -50q135 0 236.5 90.5t136.5 249.5l133 623h41l-133 -629q-36 -171 -152 -272.5t-268 -101.5q-188 0 -287 128.5t-55 327.5z" />
    <glyph glyph-name="alpha" unicode="&#x3b1;" horiz-adv-x="1249" 
d="M612 20q83 0 168.5 40t154.5 107.5t113 167t44 208.5q0 177 -105 298.5t-250 121.5q-83 0 -168 -40t-154 -107.5t-113 -167t-44 -208.5q0 -178 104.5 -299t249.5 -121zM1024 174l12 55q-48 -73 -112 -125q-146 -124 -318 -124q-74 0 -144 33.5t-124.5 92t-87.5 145
t-33 185.5q0 123 48.5 232t125 181t169 113.5t181.5 41.5q68 0 129 -24.5t104 -63t76 -87.5t51 -97t23 -91l72 342h41l-170 -799q-17 -72 15 -112.5t106 -40.5q22 0 26 2q7 0 9 2l-11 -41q-2 -2 -8 -2q-4 -2 -22 -2q-86 0 -130.5 53t-27.5 131z" />
    <glyph glyph-name="beta" unicode="&#x3b2;" horiz-adv-x="1136" 
d="M113 -430l325 1532q36 163 142.5 257.5t259.5 94.5q137 0 224 -94t87 -234q0 -167 -150 -278q-68 -49 -147 -72q68 -26 125 -74q127 -111 127 -272q0 -116 -63.5 -215.5t-170 -157t-227.5 -57.5h-399l-92 -430h-41zM254 41h391q172 0 295 112t123 267q0 147 -98 242.5
t-238 95.5h-35l8 41h48q147 0 254.5 97t107.5 230q0 122 -77 204.5t-204 82.5q-131 0 -226 -84t-126 -231z" />
    <glyph glyph-name="gamma" unicode="&#x3b3;" horiz-adv-x="962" 
d="M348 -430l92 430l-190 983h43l178 -922l571 922h48l-609 -983l-92 -430h-41z" />
    <glyph glyph-name="delta" unicode="&#x3b4;" horiz-adv-x="1189" 
d="M510 1393l8 41h717l-8 -41h-621q580 -288 580 -762q0 -144 -47 -268t-124.5 -206.5t-177 -129.5t-204.5 -47q-177 0 -296.5 131t-119.5 327q0 155 81.5 287.5t206 205.5t255.5 73q79 0 147 -27t114.5 -71t77 -91t46.5 -96q-40 223 -197.5 385t-437.5 289zM639 20
q92 0 181 39.5t158.5 107.5t112 167t42.5 209q0 179 -109.5 299.5t-269.5 120.5q-92 0 -181 -39.5t-158.5 -107.5t-112 -167t-42.5 -209q0 -179 109.5 -299.5t269.5 -120.5z" />
    <glyph glyph-name="epsilon" unicode="&#x3b5;" horiz-adv-x="931" 
d="M854 135l27 -29q-33 -36 -86 -63q-109 -63 -254 -63q-164 0 -259.5 79t-95.5 191q0 154 146 231q63 34 147 43q-34 14 -76 47q-75 63 -75 164q0 110 93 189.5t230 79.5q139 0 256 -80q52 -37 86 -80l-37 -23q-38 45 -77 70q-105 72 -234 72q-120 0 -197 -66.5t-77 -159.5
q0 -88 67.5 -146.5t175.5 -58.5h123l-8 -40h-190q-140 0 -226 -70.5t-86 -169.5q0 -98 85.5 -165t238.5 -67q132 0 227 58q48 25 76 57z" />
    <glyph glyph-name="zeta" unicode="&#x3b6;" horiz-adv-x="993" 
d="M778 -307h-41q33 152 88 235q23 39 52 68q-38 -8 -41 -8q-41 -8 -144 -8q-235 0 -352 101t-117 275q0 100 50 210.5t117.5 200t175.5 190.5t182.5 162t184 136t133.5 90t75 45q2 2 3 2l1 1h-645l8 41h713l-9 -41q1 1 -32 -18t-87 -54t-126 -83.5t-150.5 -109.5
t-157.5 -130t-150 -147.5t-126 -158t-87 -166.5t-32 -168q0 -159 106.5 -248.5t321.5 -89.5q94 0 170 13q34 7 51 14l25 -35q-41 -44 -66 -86q-61 -96 -94 -233z" />
    <glyph glyph-name="eta" unicode="&#x3b7;" horiz-adv-x="1177" 
d="M195 0l208 983h41l-41 -188q50 87 146.5 148t210.5 61q131 0 220.5 -63t122 -165t7.5 -223l-117 -553h-41l117 553q22 109 -5 201t-107.5 150.5t-202.5 58.5q-137 0 -245 -97t-144 -260l-129 -606h-41z" />
    <glyph glyph-name="theta" unicode="&#x3b8;" 
d="M610 -20q-73 0 -137 31.5t-115 93.5t-80.5 164t-29.5 233q0 166 31.5 315.5t87.5 264t130.5 199.5t163.5 129t183 44q73 0 137 -31.5t115 -93.5t80.5 -164t29.5 -233q0 -166 -31.5 -315.5t-87.5 -264t-130.5 -199.5t-163.5 -129t-183 -44zM307 737h846q12 88 12 185
q0 239 -93.5 365t-233.5 126q-127 0 -239 -90t-187 -243t-105 -343zM1147 696h-846q-12 -92 -12 -184q0 -239 93.5 -365.5t233.5 -126.5q126 0 237.5 90t187 243t106.5 343z" />
    <glyph glyph-name="iota" unicode="&#x3b9;" horiz-adv-x="563" 
d="M242 256l155 727h41l-155 -727q-24 -111 22 -173.5t144 -62.5q32 0 69 11l31 12l-8 -41l-31 -12q-33 -10 -70 -10q-116 0 -169.5 79t-28.5 197z" />
    <glyph glyph-name="kappa" unicode="&#x3ba;" horiz-adv-x="1013" 
d="M195 0l208 983h41l-143 -670l750 670h59l-446 -399l299 -584h-48l-284 555l-344 -307l-51 -248h-41z" />
    <glyph glyph-name="lambda" unicode="&#x3bb;" horiz-adv-x="983" 
d="M102 0l635 985l-37 223q-31 164 -163 164q-14 0 -56 -6l-18 -6l8 41l16 6q42 6 56 6q159 0 194 -205l205 -1208h-41l-156 930l-593 -930h-50z" />
    <glyph glyph-name="uni03BC" unicode="&#x3bc;" 
d="M102 -430l301 1413h41l-116 -553q-22 -109 5 -201t107.5 -150.5t202.5 -58.5q137 0 245 97t144 260l129 606h41l-209 -983h-41l41 188q-48 -86 -144.5 -147t-211.5 -61q-140 0 -233.5 70t-116.5 188l-144 -668h-41z" />
    <glyph glyph-name="nu" unicode="&#x3bd;" horiz-adv-x="962" 
d="M440 0l-190 983h43l178 -922l571 922h48l-609 -983h-41z" />
    <glyph glyph-name="xi" unicode="&#x3be;" horiz-adv-x="1003" 
d="M764 -307h-41q32 143 90 235q23 42 51 70q-19 -7 -39 -10q-41 -8 -139 -8q-218 0 -352.5 107t-134.5 269q0 130 57.5 217t146.5 134q85 47 207 63q-55 19 -110 64q-111 95 -111 241q0 160 125.5 269.5t314.5 109.5q147 0 265 -70q54 -31 90 -67l-37 -27q2 0 -12 13
t-42 31t-65 36.5t-92.5 31t-114.5 11.5q-170 0 -279.5 -95.5t-109.5 -236.5q0 -136 95.5 -219.5t250.5 -83.5h133l-8 -41h-207q-208 0 -332 -109.5t-124 -269.5q0 -153 122 -245.5t324 -92.5q88 0 164 13q35 7 49 14l27 -35q-39 -39 -60 -75q-70 -108 -102 -244z" />
    <glyph glyph-name="omicron" unicode="&#x3bf;" 
d="M637 -20q-184 0 -303 128t-119 326q0 124 46.5 232t122 181t172.5 115t198 42q184 0 303 -128.5t119 -326.5q0 -164 -79 -296.5t-201.5 -202.5t-258.5 -70zM748 963q-93 0 -181.5 -38.5t-157.5 -106t-111 -168t-42 -216.5q0 -183 108.5 -298.5t278.5 -115.5
q93 0 181.5 38.5t157.5 106t111 168t42 216.5q0 183 -108.5 298.5t-278.5 115.5z" />
    <glyph glyph-name="pi" unicode="&#x3c0;" horiz-adv-x="1198" 
d="M195 0l208 983h809l-208 -983h-41l198 942h-727l-198 -942h-41z" />
    <glyph glyph-name="rho" unicode="&#x3c1;" horiz-adv-x="1228" 
d="M102 -430l209 983q27 130 105.5 234.5t185.5 160.5t219 56q166 0 282 -125.5t116 -315.5q0 -122 -45.5 -232t-119 -186t-169 -120.5t-193.5 -44.5q-81 0 -151 31t-117.5 83t-77.5 114.5t-39 129.5l-164 -768h-41zM817 963q-86 0 -170.5 -38t-153 -105t-111 -168.5
t-42.5 -217.5q0 -184 102 -299t256 -115q86 0 170.5 38t153.5 105t111.5 168.5t42.5 217.5q0 184 -102.5 299t-256.5 115z" />
    <glyph glyph-name="sigma1" unicode="&#x3c2;" horiz-adv-x="1075" 
d="M750 -307h-41q30 144 88 235q21 38 53 70q-17 -7 -39 -10q-36 -8 -117 -8q-214 0 -345.5 125.5t-131.5 328.5q0 126 50.5 236t129.5 181t173.5 112t185.5 41q167 0 282 -111q53 -50 80 -111l-39 -16q-27 55 -73 98q-103 99 -256 99q-86 0 -173 -38.5t-158 -105
t-116 -167.5t-45 -216q0 -99 35.5 -179t97 -131.5t140.5 -78.5t169 -27q71 0 138 13q30 7 47 14l24 -35q-31 -31 -63 -84q-66 -103 -96 -235z" />
    <glyph glyph-name="sigma" unicode="&#x3c3;" horiz-adv-x="1198" 
d="M645 20q90 0 178 39.5t158 107.5t113 168.5t43 213.5q0 175 -109.5 294.5t-277.5 119.5q-90 0 -178 -39.5t-158 -107.5t-113 -168.5t-43 -213.5q0 -178 109 -296t278 -118zM756 1004h604l-10 -41h-422q68 -29 125 -86q125 -125 125 -328q0 -121 -47.5 -229t-124 -181.5
t-173 -116t-194.5 -42.5q-183 0 -302.5 130t-119.5 324q0 121 47.5 229t124 181.5t173 116.5t194.5 43z" />
    <glyph glyph-name="tau" unicode="&#x3c4;" horiz-adv-x="890" 
d="M461 246l147 696h-389l10 41h820l-11 -41h-389l-149 -706q-22 -103 24.5 -159.5t130.5 -56.5q35 0 76 15q36 15 37 16l-8 -45q-11 -7 -33 -14q-46 -12 -78 -12q-99 0 -156.5 71.5t-31.5 194.5z" />
    <glyph glyph-name="upsilon" unicode="&#x3c5;" horiz-adv-x="1146" 
d="M270 436l117 547h41l-119 -553q-27 -121 5.5 -215.5t112.5 -144.5t191 -50q135 0 236.5 90.5t136.5 249.5l133 623h41l-133 -629q-36 -171 -152 -272.5t-268 -101.5q-188 0 -287 128.5t-55 327.5z" />
    <glyph glyph-name="phi" unicode="&#x3c6;" horiz-adv-x="1392" 
d="M584 -430l86 410q-210 20 -331.5 150t-121.5 321q0 189 113.5 329.5t292.5 196.5l16 -37q-170 -45 -275.5 -177t-105.5 -312q0 -175 111.5 -291.5t310.5 -139.5l207 984h43q210 -20 331 -150.5t121 -321.5q0 -160 -82 -287.5t-217.5 -196t-294.5 -68.5h-77l-86 -410h-41z
M721 20h74q233 0 389.5 144.5t156.5 367.5q0 176 -111 292t-310 139z" />
    <glyph glyph-name="chi" unicode="&#x3c7;" horiz-adv-x="921" 
d="M61 0l484 512l-244 471h47l223 -436l412 436h55l-444 -471l266 -512h-47l-248 477l-448 -477h-56z" />
    <glyph glyph-name="psi" unicode="&#x3c8;" horiz-adv-x="1454" 
d="M604 -430l86 410q-150 18 -254 97.5t-143 196t-10 248.5l100 461h41l-100 -461q-22 -91 -3.5 -176.5t65 -153.5t128.5 -114t186 -58l205 963h41l-205 -963h58q188 0 328.5 111t177.5 287l122 565h41l-122 -571q-40 -188 -197 -310t-361 -122h-57l-86 -410h-41z" />
    <glyph glyph-name="omega" unicode="&#x3c9;" horiz-adv-x="1617" 
d="M887 455l37 180h41l-37 -184q-37 -197 21.5 -315t203.5 -118q57 0 114 21.5t110 68.5t94 112.5t65.5 162t24.5 209.5q0 169 -86 295q-39 55 -84 88l26 29q52 -37 92 -95q95 -133 95 -319q0 -119 -27.5 -220.5t-73 -172t-104.5 -120.5t-122 -73.5t-126 -23.5
q-177 0 -246 141q-32 66 -35 141q-36 -82 -86 -141q-112 -141 -264 -141q-136 0 -225.5 103t-89.5 284q0 323 201 512q87 81 202 125l15 -33q-106 -37 -189 -117q-188 -188 -188 -489q0 -161 76.5 -253t197.5 -92q56 0 109 24.5t103 75t90.5 136.5t64.5 199z" />
    <glyph glyph-name="iotadieresis" unicode="&#x3ca;" horiz-adv-x="563" 
d="M242 256l155 727h41l-155 -727q-24 -111 22 -173.5t144 -62.5q32 0 69 11l31 12l-8 -41l-31 -12q-33 -10 -70 -10q-116 0 -169.5 79t-28.5 197zM279 1249q-17 0 -27 11t-10 28t14 30t33 13q17 0 27 -11t10 -28t-14 -30t-33 -13zM606 1249q-17 0 -27 11t-10 28t14 30
t33 13q17 0 27 -11t10 -28t-14 -30t-33 -13z" />
    <glyph glyph-name="upsilondieresis" unicode="&#x3cb;" horiz-adv-x="1146" 
d="M270 436l117 547h41l-119 -553q-27 -121 5.5 -215.5t112.5 -144.5t191 -50q135 0 236.5 90.5t136.5 249.5l133 623h41l-133 -629q-36 -171 -152 -272.5t-268 -101.5q-188 0 -287 128.5t-55 327.5zM657 1249q-17 0 -26.5 10.5t-9.5 28.5q0 17 14 30t33 13q17 0 27 -11
t10 -28t-14.5 -30t-33.5 -13zM985 1249q-17 0 -27 11t-10 28t14 30t33 13q17 0 27 -11t10 -28t-14 -30t-33 -13z" />
    <glyph glyph-name="omicrontonos" unicode="&#x3cc;" 
d="M791 1167l204 246h56l-215 -246h-45zM637 -20q-184 0 -303 128t-119 326q0 124 46.5 232t122 181t172.5 115t198 42q184 0 303 -128.5t119 -326.5q0 -164 -79 -296.5t-201.5 -202.5t-258.5 -70zM748 963q-93 0 -181.5 -38.5t-157.5 -106t-111 -168t-42 -216.5
q0 -183 108.5 -298.5t278.5 -115.5q93 0 181.5 38.5t157.5 106t111 168t42 216.5q0 183 -108.5 298.5t-278.5 115.5z" />
    <glyph glyph-name="upsilontonos" unicode="&#x3cd;" horiz-adv-x="1146" 
d="M270 436l117 547h41l-119 -553q-27 -121 5.5 -215.5t112.5 -144.5t191 -50q135 0 236.5 90.5t136.5 249.5l133 623h41l-133 -629q-36 -171 -152 -272.5t-268 -101.5q-188 0 -287 128.5t-55 327.5zM750 1167l204 246h56l-215 -246h-45z" />
    <glyph glyph-name="omegatonos" unicode="&#x3ce;" horiz-adv-x="1617" 
d="M887 455l37 180h41l-37 -184q-37 -197 21.5 -315t203.5 -118q57 0 114 21.5t110 68.5t94 112.5t65.5 162t24.5 209.5q0 169 -86 295q-39 55 -84 88l26 29q52 -37 92 -95q95 -133 95 -319q0 -119 -27.5 -220.5t-73 -172t-104.5 -120.5t-122 -73.5t-126 -23.5
q-177 0 -246 141q-32 66 -35 141q-36 -82 -86 -141q-112 -141 -264 -141q-136 0 -225.5 103t-89.5 284q0 323 201 512q87 81 202 125l15 -33q-106 -37 -189 -117q-188 -188 -188 -489q0 -161 76.5 -253t197.5 -92q56 0 109 24.5t103 75t90.5 136.5t64.5 199zM1018 1167
l205 246h55l-215 -246h-45z" />
    <glyph glyph-name="uni0400" unicode="&#x400;" horiz-adv-x="1280" 
d="M1016 1638l-113 246h47l103 -246h-37zM246 0l303 1434h932l-8 -41h-891l-133 -625h727l-9 -41h-727l-145 -686h911l-8 -41h-952z" />
    <glyph glyph-name="uni0401" unicode="&#x401;" horiz-adv-x="1280" 
d="M893 1720q-17 0 -27 11t-10 28t14 30t33 13q17 0 27 -11t10 -28t-14 -30t-33 -13zM1221 1720q-17 0 -27 11t-10 28t14 30t33 13q17 0 27 -11t10 -28t-14 -30t-33 -13zM246 0l303 1434h932l-8 -41h-891l-133 -625h727l-9 -41h-727l-145 -686h911l-8 -41h-952z" />
    <glyph glyph-name="uni0402" unicode="&#x402;" horiz-adv-x="1413" 
d="M389 0l295 1393h-399l8 41h840l-9 -41h-399l-131 -613q59 30 111 49q141 52 264 52q183 0 293 -99t110 -280q0 -244 -132 -383t-339 -139q-19 0 -65 4l10 41q58 -5 59 -5q189 0 307.5 127.5t118.5 354.5q0 156 -96 247t-270 91q-134 0 -269 -58q-50 -19 -112 -55
l-154 -727h-41z" />
    <glyph glyph-name="uni0403" unicode="&#x403;" horiz-adv-x="1136" 
d="M246 0l303 1434h840l-9 -41h-798l-295 -1393h-41zM965 1638l204 246h56l-215 -246h-45z" />
    <glyph glyph-name="uni0404" unicode="&#x404;" horiz-adv-x="1525" 
d="M295 748h840l-9 -41h-835q-2 -6 -2 -19v-31q0 -130 45.5 -247t126 -203t197.5 -136.5t253 -50.5q210 0 404 119q80 51 147 121l31 -24q-67 -73 -158 -130q-208 -126 -430 -126q-141 0 -263.5 51.5t-209 140.5t-135.5 213.5t-49 267.5q0 170 69 321.5t181.5 255t259 164
t299.5 60.5q256 0 432 -156q79 -69 127 -153l-37 -21q-49 80 -123 144q-177 145 -405 145q-133 0 -261.5 -49.5t-231.5 -135t-174 -211t-89 -269.5z" />
    <glyph glyph-name="uni0405" unicode="&#x405;" horiz-adv-x="1116" 
d="M152 229l38 27l4 -8q3 -7 11.5 -21t20.5 -31.5t31 -37.5t42.5 -39t55.5 -37t68.5 -32t84.5 -22t100 -8q184 0 309 106t125 255q0 77 -37.5 137t-97.5 98.5t-132.5 72t-145 67.5t-132.5 73.5t-97.5 101t-37.5 140.5q0 163 132.5 273t328.5 110q190 0 324 -108
q53 -42 98 -107l-35 -27q-5 8 -14.5 22t-44.5 49t-76.5 61.5t-112 48.5t-149.5 22q-174 0 -292 -100t-118 -238q0 -58 23.5 -105.5t63 -81t90.5 -62.5t107.5 -54.5l113 -51t107.5 -57t90.5 -68.5t63 -90.5t23.5 -117.5q0 -172 -139.5 -290.5t-343.5 -118.5
q-71 0 -134.5 13.5t-108 35.5t-81.5 48.5t-59.5 53.5t-38 49t-22.5 36z" />
    <glyph glyph-name="uni0406" unicode="&#x406;" horiz-adv-x="532" 
d="M246 0l303 1434h41l-303 -1434h-41z" />
    <glyph glyph-name="uni0407" unicode="&#x407;" horiz-adv-x="532" 
d="M246 0l303 1434h41l-303 -1434h-41zM453 1720q-17 0 -27 11t-10 28t14 30t33 13q17 0 27 -11t10 -28t-14 -30t-33 -13zM780 1720q-17 0 -27 11t-10 28t14.5 30t33.5 13q17 0 26.5 -10.5t9.5 -28.5q0 -17 -14 -30t-33 -13z" />
    <glyph glyph-name="uni0408" unicode="&#x408;" horiz-adv-x="983" 
d="M55 143l37 29q22 -35 70 -76q92 -76 227 -76q143 0 260.5 97t149.5 250l227 1067h41l-227 -1072q-36 -168 -163 -275t-284 -107q-147 0 -256 81q-48 37 -82 82z" />
    <glyph glyph-name="uni0409" unicode="&#x409;" horiz-adv-x="2181" 
d="M0 6l10 45q6 -3 18 -8.5t17 -7.5q35 -15 72 -15q50 0 98 26t103.5 94.5t107 176.5t105.5 283.5t102 403.5l90 430h788l-120 -574h350q183 0 299.5 -114.5t116.5 -286.5q0 -128 -69 -234t-184 -165.5t-249 -59.5h-488l295 1393h-706l-82 -389q-53 -250 -112 -436
t-114 -296.5t-116 -178t-113.5 -90.5t-112.5 -23q-25 0 -71 12q-26 9 -35 14zM1217 41h444q190 0 321.5 122t131.5 296q0 151 -104.5 255.5t-268.5 104.5h-359z" />
    <glyph glyph-name="uni040A" unicode="&#x40a;" horiz-adv-x="2150" 
d="M246 0l303 1434h41l-125 -594h850l125 594h41l-125 -594h354q184 0 300 -109.5t116 -281.5q0 -124 -64.5 -227.5t-175.5 -162.5t-244 -59h-505l168 799h-850l-168 -799h-41zM1186 41h456q96 0 179 34t140 90t89.5 130t32.5 154q0 155 -107.5 252.5t-275.5 97.5h-354z" />
    <glyph glyph-name="uni040B" unicode="&#x40b;" horiz-adv-x="1454" 
d="M389 0l295 1393h-399l8 41h840l-9 -41h-399l-131 -613q59 30 111 49q141 52 264 52q211 0 320.5 -129t68.5 -332l-88 -420h-41l88 420q38 180 -57 300t-295 120q-134 0 -269 -58q-50 -19 -112 -55l-154 -727h-41z" />
    <glyph glyph-name="uni040C" unicode="&#x40c;" horiz-adv-x="1331" 
d="M985 1638l205 246h55l-215 -246h-45zM246 0l303 1434h41l-207 -971l1085 971h58l-674 -605l418 -829h-45l-406 803l-448 -402l-84 -401h-41z" />
    <glyph glyph-name="uni040D" unicode="&#x40d;" horiz-adv-x="1587" 
d="M246 0l303 1434h41l-287 -1348l1311 1348h31l-304 -1434h-41l287 1348l-1311 -1348h-30zM1087 1638l-112 246h47l102 -246h-37z" />
    <glyph glyph-name="uni040E" unicode="&#x40e;" horiz-adv-x="1218" 
d="M154 4l8 41l35 -12q50 -13 71 -13q169 0 338 246l92 131l-333 1037h45l317 -992l686 992h47l-807 -1168q-105 -151 -195.5 -218.5t-197.5 -67.5q-26 0 -72 12zM709 1884h39q-3 -3 -3 -10v-21q0 -79 53.5 -126.5t145.5 -47.5q94 0 151 59.5t70 145.5h41
q-18 -115 -93.5 -180.5t-178.5 -65.5t-165 59.5t-62 153.5v21q0 8 2 12z" />
    <glyph glyph-name="uni040F" unicode="&#x40f;" horiz-adv-x="1515" 
d="M246 0l303 1434h41l-295 -1393h942l295 1393h41l-303 -1434h-492l-65 -307h-41l65 307h-491z" />
    <glyph glyph-name="uni0410" unicode="&#x410;" horiz-adv-x="1351" 
d="M92 0l897 1434h41l291 -1434h-39l-92 451h-770l-281 -451h-47zM446 492h736l-178 886z" />
    <glyph glyph-name="uni0411" unicode="&#x411;" horiz-adv-x="1300" 
d="M246 0l303 1434h819l-8 -41h-778l-121 -574h420q164 0 276.5 -107t112.5 -274q0 -183 -139.5 -310.5t-335.5 -127.5h-549zM295 41h506q180 0 304 115t124 282q0 151 -102.5 245.5t-245.5 94.5h-430z" />
    <glyph glyph-name="uni0412" unicode="&#x412;" horiz-adv-x="1341" 
d="M451 778h512q157 0 254.5 94.5t97.5 247.5q0 119 -82.5 196t-218.5 77h-432zM295 41h524q194 0 307 108.5t113 276.5q0 139 -95 225t-243 86h-459zM246 0l303 1434h465q153 0 247.5 -88.5t94.5 -227.5q0 -219 -180 -320q-54 -31 -132 -48q67 -22 119 -62
q119 -95 119 -258q0 -191 -130.5 -310.5t-332.5 -119.5h-573z" />
    <glyph glyph-name="uni0413" unicode="&#x413;" horiz-adv-x="1136" 
d="M246 0l303 1434h840l-9 -41h-798l-295 -1393h-41z" />
    <glyph glyph-name="uni0414" unicode="&#x414;" horiz-adv-x="1423" 
d="M-43 -307l72 348h82q96 67 174 186q193 284 293 756l94 451h809l-295 -1393h184l-74 -348h-41l66 307h-1260l-63 -307h-41zM170 41h975l287 1352h-727l-87 -410q-100 -458 -282 -745q-82 -125 -166 -197z" />
    <glyph glyph-name="uni0415" unicode="&#x415;" horiz-adv-x="1280" 
d="M246 0l303 1434h932l-8 -41h-891l-133 -625h727l-9 -41h-727l-145 -686h911l-8 -41h-952z" />
    <glyph glyph-name="uni0416" unicode="&#x416;" horiz-adv-x="1873" 
d="M41 0l770 829l-416 605h49l588 -856l182 856h41l-180 -848l942 848h58l-670 -605l418 -829h-45l-406 803l-309 -281l-111 -522h-41l111 522l-188 273l-736 -795h-57z" />
    <glyph glyph-name="uni0417" unicode="&#x417;" horiz-adv-x="1116" 
d="M121 229l39 29q2 -5 6 -13.5t20 -33t36 -47t55 -50t75.5 -47t99.5 -33.5t126 -14q188 0 313 110.5t125 268.5q0 144 -105.5 241t-255.5 97h-149l8 41h205q182 0 293.5 95t111.5 243q0 122 -100 209.5t-272 87.5q-126 0 -250 -61q-51 -26 -96 -62l-25 33q55 44 102 66
q130 65 271 65q95 0 174 -28.5t130 -75.5t79 -106t28 -122q0 -88 -31 -157t-85 -112t-115.5 -68.5t-132.5 -36.5q73 -25 127 -70q129 -104 129 -272q0 -182 -141.5 -304t-346.5 -122q-56 0 -107 8.5t-90 23t-73.5 33t-59 39.5t-45 41.5t-34 39t-22 33t-12.5 22.5z" />
    <glyph glyph-name="uni0418" unicode="&#x418;" horiz-adv-x="1587" 
d="M246 0l303 1434h41l-287 -1348l1311 1348h31l-304 -1434h-41l287 1348l-1311 -1348h-30z" />
    <glyph glyph-name="uni0419" unicode="&#x419;" horiz-adv-x="1587" 
d="M246 0l303 1434h41l-287 -1348l1311 1348h31l-304 -1434h-41l287 1348l-1311 -1348h-30zM924 1884h39q-2 -2 -2 -10v-21q0 -79 53.5 -126.5t144.5 -47.5q94 0 151 59.5t70 145.5h41q-18 -115 -93.5 -180.5t-178.5 -65.5t-165 59.5t-62 153.5v21q0 8 2 12z" />
    <glyph glyph-name="uni041A" unicode="&#x41a;" horiz-adv-x="1331" 
d="M246 0l303 1434h41l-207 -971l1085 971h58l-674 -605l418 -829h-45l-406 803l-448 -402l-84 -401h-41z" />
    <glyph glyph-name="uni041B" unicode="&#x41b;" horiz-adv-x="1505" 
d="M0 6l10 45q6 -3 18 -8.5t17 -7.5q35 -15 72 -15q50 0 98 26t103.5 94.5t107 176.5t105.5 283.5t102 403.5l90 430h850l-303 -1434h-41l295 1393h-768l-82 -389q-53 -250 -112 -436t-114 -296.5t-116 -178t-113.5 -90.5t-112.5 -23q-25 0 -71 12q-26 9 -35 14z" />
    <glyph glyph-name="uni041C" unicode="&#x41c;" horiz-adv-x="1863" 
d="M246 0l303 1434h26l463 -912l848 912h35l-303 -1434h-41l287 1352l-838 -901l-453 901l-286 -1352h-41z" />
    <glyph glyph-name="uni041D" unicode="&#x41d;" horiz-adv-x="1525" 
d="M246 0l303 1434h41l-146 -686h953l145 686h41l-303 -1434h-41l150 707h-953l-149 -707h-41z" />
    <glyph glyph-name="uni041E" unicode="&#x41e;" horiz-adv-x="1679" 
d="M1051 1413q-143 0 -281 -57.5t-244.5 -156t-171.5 -241t-65 -301.5q0 -178 78.5 -323t221.5 -229.5t322 -84.5q143 0 281 57.5t244.5 156t171.5 241t65 301.5q0 178 -78.5 323t-221.5 229.5t-322 84.5zM905 -20q-193 0 -344 91t-232 244t-81 338q0 134 44 259t122 222
t179.5 170t221.5 111.5t242 38.5q145 0 269 -53.5t208.5 -144.5t132 -214.5t47.5 -261.5q0 -167 -68.5 -317.5t-181 -255t-259.5 -166t-300 -61.5z" />
    <glyph glyph-name="uni041F" unicode="&#x41f;" horiz-adv-x="1525" 
d="M246 0l303 1434h1034l-303 -1434h-41l295 1393h-952l-295 -1393h-41z" />
    <glyph glyph-name="uni0420" unicode="&#x420;" horiz-adv-x="1320" 
d="M246 0l303 1434h434q177 0 297.5 -109t120.5 -285q0 -191 -141 -318.5t-351 -127.5h-497l-125 -594h-41zM420 635h493q197 0 322 116.5t125 295.5q0 152 -105 249t-260 97h-413z" />
    <glyph glyph-name="uni0421" unicode="&#x421;" horiz-adv-x="1525" 
d="M1462 260l31 -24q-67 -73 -158 -130q-208 -126 -430 -126q-141 0 -263.5 51.5t-209 140.5t-135.5 213.5t-49 267.5q0 170 69 321.5t181.5 255t259 164t299.5 60.5q256 0 432 -156q79 -69 127 -153l-37 -21q-49 80 -123 144q-177 145 -405 145q-143 0 -280.5 -57
t-244 -155t-172 -241t-65.5 -303q0 -130 45.5 -247t126 -203t197.5 -136.5t253 -50.5q210 0 404 119q80 51 147 121z" />
    <glyph glyph-name="uni0422" unicode="&#x422;" horiz-adv-x="1095" 
d="M502 0l295 1393h-492l8 41h1024l-8 -41h-491l-295 -1393h-41z" />
    <glyph glyph-name="uni0423" unicode="&#x423;" horiz-adv-x="1218" 
d="M154 4l8 41l35 -12q50 -13 71 -13q169 0 338 246l92 131l-333 1037h45l317 -992l686 992h47l-807 -1168q-105 -151 -195.5 -218.5t-197.5 -67.5q-26 0 -72 12z" />
    <glyph glyph-name="uni0424" unicode="&#x424;" horiz-adv-x="1720" 
d="M866 205l226 1065h-105q-203 0 -360 -70.5t-243.5 -199t-86.5 -293.5q0 -93 36.5 -176.5t106 -151.5t179 -114t247.5 -60zM813 -41l45 205q-144 14 -260 63.5t-190.5 122.5t-114 164.5t-39.5 192.5q0 129 55.5 241.5t152 192t232.5 125t293 45.5h115l35 164h41l-35 -164
q287 -31 445.5 -181.5t158.5 -361.5q0 -129 -55.5 -241.5t-152 -192t-232.5 -125t-293 -45.5h-115l-45 -205h-41zM1135 1270l-226 -1065h105q203 0 360 70.5t243.5 199t86.5 293.5q0 93 -36.5 176.5t-106 151.5t-179 114t-247.5 60z" />
    <glyph glyph-name="uni0425" unicode="&#x425;" horiz-adv-x="1228" 
d="M61 0l684 737l-350 697h47l332 -660l610 660h56l-645 -697l372 -737h-47l-354 700l-649 -700h-56z" />
    <glyph glyph-name="uni0426" unicode="&#x426;" horiz-adv-x="1525" 
d="M246 0l303 1434h41l-295 -1393h932l295 1393h41l-295 -1393h184l-74 -348h-41l66 307h-1157z" />
    <glyph glyph-name="uni0427" unicode="&#x427;" horiz-adv-x="1423" 
d="M1126 0l136 647q-54 -32 -125 -57q-142 -58 -285 -58q-156 0 -265 67.5t-151 182t-12 254.5l84 398h41l-82 -390q-45 -208 63.5 -339.5t331.5 -131.5q149 0 293 64q74 31 119 63l156 734h40l-303 -1434h-41z" />
    <glyph glyph-name="uni0428" unicode="&#x428;" horiz-adv-x="2048" 
d="M246 0l303 1434h41l-295 -1393h717l295 1393h41l-295 -1393h716l295 1393h41l-303 -1434h-1556z" />
    <glyph glyph-name="uni0429" unicode="&#x429;" horiz-adv-x="2068" 
d="M246 0l303 1434h41l-295 -1393h717l295 1393h41l-295 -1393h716l295 1393h41l-295 -1393h185l-74 -348h-41l66 307h-1700z" />
    <glyph glyph-name="uni042A" unicode="&#x42a;" horiz-adv-x="1402" 
d="M369 0l295 1393h-369l8 41h410l-121 -574h371q183 0 299 -114.5t116 -286.5q0 -128 -68.5 -234t-183.5 -165.5t-249 -59.5h-508zM418 41h465q190 0 321 122t131 296q0 151 -104 255.5t-268 104.5h-379z" />
    <glyph glyph-name="uni042B" unicode="&#x42b;" horiz-adv-x="1751" 
d="M295 41h465q190 0 321 122t131 296q0 151 -104 255.5t-268 104.5h-379zM246 0l303 1434h41l-121 -574h371q183 0 299 -114.5t116 -286.5q0 -128 -68.5 -234t-183.5 -165.5t-249 -59.5h-508zM1464 0l303 1434h41l-303 -1434h-41z" />
    <glyph glyph-name="uni042C" unicode="&#x42c;" horiz-adv-x="1300" 
d="M295 41h485q190 0 321.5 122t131.5 296q0 151 -104.5 255.5t-268.5 104.5h-399zM246 0l303 1434h41l-121 -574h391q183 0 299.5 -114.5t116.5 -286.5q0 -128 -69 -234t-184 -165.5t-249 -59.5h-528z" />
    <glyph glyph-name="uni042D" unicode="&#x42d;" horiz-adv-x="1505" 
d="M172 289l37 20q44 -79 123 -145q168 -144 405 -144q136 0 267 51.5t234.5 140.5t173 218.5t83.5 276.5h-829l8 41h825v28q0 130 -45.5 247t-126 203t-197.5 136.5t-253 50.5q-207 0 -404 -121q-80 -51 -147 -118l-31 24q67 70 158 127q213 129 430 129q188 0 339 -88
t234.5 -241.5t83.5 -344.5q0 -170 -69 -321t-181.5 -255t-259 -164t-299.5 -60q-264 0 -432 153q-78 69 -127 156z" />
    <glyph glyph-name="uni042E" unicode="&#x42e;" horiz-adv-x="2109" 
d="M246 0l303 1434h41l-146 -686h336q17 127 70.5 240.5t130.5 197t171 145t196 92.5t202 31q167 0 304 -85t215.5 -235t78.5 -335q0 -144 -45 -274.5t-122 -228t-176.5 -170t-211.5 -109.5t-223 -37q-169 0 -306.5 88t-213.5 237.5t-76 329.5v47q0 17 2 25h-340l-149 -707
h-41zM1378 20q133 0 264 58t234 158t167 248t64 315q0 264 -161.5 439t-401.5 175q-133 0 -264 -57.5t-234 -157.5t-167 -248t-64 -315q0 -174 74 -315t202.5 -220.5t286.5 -79.5z" />
    <glyph glyph-name="uni042F" unicode="&#x42f;" horiz-adv-x="1341" 
d="M123 0l498 655q-121 42 -188.5 131.5t-67.5 217.5q0 184 131.5 307t328.5 123h574l-303 -1434h-41l133 635h-410q-52 0 -88 4q-4 1 -13.5 2t-12.5 2l-490 -643h-51zM758 676h440l152 717h-529q-178 0 -296.5 -109.5t-118.5 -279.5q0 -150 100.5 -239t251.5 -89z" />
    <glyph glyph-name="uni0430" unicode="&#x430;" horiz-adv-x="1024" 
d="M895 389l37 174l-465 -76q-260 -43 -260 -241q0 -92 77 -159t203 -67q154 0 263.5 99.5t144.5 269.5zM813 0l45 211q-29 -62 -84 -117q-118 -114 -297 -114q-143 0 -227 78.5t-84 185.5q0 232 319 284l457 76q37 146 -44 252.5t-230 106.5q-107 0 -209 -62
q-50 -29 -80 -59l-25 32q46 42 86 64q110 66 230 66q110 0 190.5 -54t112.5 -146.5t8 -201.5l-127 -602h-41z" />
    <glyph glyph-name="uni0431" unicode="&#x431;" horiz-adv-x="1167" 
d="M1257 1475l19 -37q-52 -27 -92 -43q-128 -47 -279 -54q-78 -8 -150 -36t-143 -82.5t-129.5 -132t-106.5 -192.5t-77 -257q58 125 181 213t272 88q170 0 281.5 -124.5t111.5 -299.5q0 -115 -43.5 -217t-114.5 -171.5t-162 -109.5t-186 -40q-172 0 -282.5 125.5
t-110.5 314.5q0 174 36.5 326.5t99.5 263.5t147.5 193t181 126.5t198.5 52.5q156 10 265 54q43 15 83 39zM645 20q85 0 167.5 36.5t147 100t104.5 158t40 201.5q0 167 -101.5 276t-254.5 109q-86 0 -169 -36.5t-147 -100t-103.5 -157.5t-39.5 -201q0 -167 101.5 -276.5
t254.5 -109.5z" />
    <glyph glyph-name="uni0432" unicode="&#x432;" horiz-adv-x="1034" 
d="M348 532h410q115 0 178 62.5t63 167.5q0 85 -60.5 132.5t-160.5 47.5h-344zM244 41h432q122 0 193 66.5t71 183.5q0 90 -65 145.5t-166 55.5h-369zM195 0l208 983h375q118 0 190 -58.5t72 -160.5q0 -139 -110 -217q-48 -34 -109 -43q39 -13 80 -43q82 -66 82 -172
q0 -127 -87 -208t-224 -81h-477z" />
    <glyph glyph-name="uni0433" unicode="&#x433;" horiz-adv-x="839" 
d="M195 0l208 983h594l-10 -41h-553l-198 -942h-41z" />
    <glyph glyph-name="uni0434" unicode="&#x434;" horiz-adv-x="1105" 
d="M-41 -246l59 287h82q58 56 125 158q134 198 199 497l61 287h615l-201 -942h164l-62 -287h-40l53 246h-963l-51 -246h-41zM152 41h706l191 901h-533l-51 -246q-58 -280 -193 -497q-62 -100 -120 -158z" />
    <glyph glyph-name="uni0435" unicode="&#x435;" horiz-adv-x="1136" 
d="M969 168l30 -25q-42 -45 -100 -82q-130 -81 -272 -81q-176 0 -294 125.5t-118 322.5q0 127 45 237t119 183t167 114.5t189 41.5q176 0 290 -118t114 -306q0 -24 -4 -70l-5 -39h-872q-2 -4 -2 -14v-37q0 -168 106.5 -284t270.5 -116q138 0 246 74q47 31 90 74zM262 512
h834q0 19 2 29q0 8 1 23t1 22q0 165 -103.5 271t-263.5 106q-110 0 -209 -51.5t-171 -156t-91 -243.5z" />
    <glyph glyph-name="uni0436" unicode="&#x436;" horiz-adv-x="1443" 
d="M41 0l545 584l-275 399h49l416 -600l129 600h41l-127 -592l662 592h59l-446 -399l299 -584h-47l-285 555l-254 -227l-70 -328h-41l70 328l-156 221l-512 -549h-57z" />
    <glyph glyph-name="uni0437" unicode="&#x437;" horiz-adv-x="860" 
d="M111 178l34 23q0 -2 10 -19.5t34.5 -45.5t58.5 -54t90 -44.5t121 -17.5q131 0 215 72t84 174q0 92 -76 159t-190 67h-80l8 40h123q124 0 201 66t77 156q0 86 -69 147.5t-183 61.5q-96 0 -190 -50q-34 -18 -74 -49l-24 29q46 37 81 55q106 56 211 56q129 0 209 -73
t80 -177q0 -140 -125 -209q-57 -33 -123 -41q59 -20 95 -51q94 -78 94 -183q0 -119 -100.5 -204.5t-249.5 -85.5q-157 0 -267 98q-51 47 -75 100z" />
    <glyph glyph-name="uni0438" unicode="&#x438;" 
d="M195 0l208 983h41l-190 -901l917 901h31l-209 -983h-41l191 901l-918 -901h-30z" />
    <glyph glyph-name="uni0439" unicode="&#x439;" 
d="M195 0l208 983h41l-190 -901l917 901h31l-209 -983h-41l191 901l-918 -901h-30zM618 1413h39q-2 -2 -2 -10v-21q0 -79 53.5 -126.5t145.5 -47.5q94 0 151 59.5t70 145.5h41q-18 -115 -93.5 -180.5t-178.5 -65.5t-165.5 60t-62.5 153v21q0 8 2 12z" />
    <glyph glyph-name="uni043A" unicode="&#x43a;" horiz-adv-x="1013" 
d="M195 0l208 983h41l-143 -670l750 670h59l-446 -399l299 -584h-48l-284 555l-344 -307l-51 -248h-41z" />
    <glyph glyph-name="uni043B" unicode="&#x43b;" horiz-adv-x="1157" 
d="M10 0l8 47q5 -5 23 -14q30 -13 55 -13q40 0 71 11.5t69 52t71 112t71.5 197.5t76.5 303l61 287h655l-208 -983h-41l198 942h-573l-51 -246q-38 -182 -78.5 -313t-77.5 -208.5t-79.5 -121.5t-80 -58.5t-84.5 -14.5q-34 0 -61 10q-10 2 -25 10z" />
    <glyph glyph-name="uni043C" unicode="&#x43c;" horiz-adv-x="1331" 
d="M195 0l208 983h25l309 -614l572 614h37l-209 -983h-41l190 901l-559 -604l-301 604l-190 -901h-41z" />
    <glyph glyph-name="uni043D" unicode="&#x43d;" horiz-adv-x="1177" 
d="M195 0l208 983h41l-98 -461h707l98 461h41l-209 -983h-41l100 481h-706l-100 -481h-41z" />
    <glyph glyph-name="uni043E" unicode="&#x43e;" 
d="M637 -20q-184 0 -303 128t-119 326q0 124 46.5 232t122 181t172.5 115t198 42q184 0 303 -128.5t119 -326.5q0 -164 -79 -296.5t-201.5 -202.5t-258.5 -70zM748 963q-93 0 -181.5 -38.5t-157.5 -106t-111 -168t-42 -216.5q0 -183 108.5 -298.5t278.5 -115.5
q93 0 181.5 38.5t157.5 106t111 168t42 216.5q0 183 -108.5 298.5t-278.5 115.5z" />
    <glyph glyph-name="uni043F" unicode="&#x43f;" horiz-adv-x="1177" 
d="M195 0l208 983h789l-209 -983h-41l199 942h-707l-198 -942h-41z" />
    <glyph glyph-name="uni0440" unicode="&#x440;" horiz-adv-x="1239" 
d="M113 -430l301 1413h41l-47 -223q52 75 108 121q141 123 315 123q166 0 282 -125.5t116 -315.5q0 -122 -45.5 -232t-119 -186t-169 -120.5t-193.5 -44.5q-81 0 -151 31t-117.5 83t-77.5 114.5t-39 129.5l-163 -768h-41zM827 963q-86 0 -170.5 -38t-153 -105t-111 -168.5
t-42.5 -217.5q0 -184 102.5 -299t256.5 -115q86 0 170.5 38t153 105t111 168.5t42.5 217.5q0 184 -102.5 299t-256.5 115z" />
    <glyph glyph-name="uni0441" unicode="&#x441;" horiz-adv-x="1064" 
d="M971 168l30 -25q-44 -45 -100 -82q-124 -81 -264 -81q-183 0 -302.5 126.5t-119.5 327.5q0 122 46 230t121.5 181.5t172.5 116t199 42.5q167 0 282 -111q53 -50 80 -111l-39 -16q-27 55 -73 98q-103 99 -256 99q-95 0 -184 -39t-157.5 -106.5t-109.5 -167.5t-41 -214
q0 -186 109.5 -301t277.5 -115q130 0 238 74q47 31 90 74z" />
    <glyph glyph-name="uni0442" unicode="&#x442;" horiz-adv-x="890" 
d="M410 0l198 942h-389l10 41h820l-11 -41h-389l-198 -942h-41z" />
    <glyph glyph-name="uni0443" unicode="&#x443;" horiz-adv-x="962" 
d="M-16 -410l8 41l20 -10q23 -10 58 -10q128 0 227 164l143 231l-190 977h43l180 -922l569 922h48l-746 -1208q-68 -114 -132 -159.5t-151 -45.5q-34 0 -57 10z" />
    <glyph glyph-name="uni0444" unicode="&#x444;" horiz-adv-x="1392" 
d="M680 20l199 943h-74q-233 0 -390 -144.5t-157 -367.5q0 -175 111.5 -291.5t310.5 -139.5zM584 -430l86 410q-210 20 -331.5 150t-121.5 321q0 160 82 287.5t217.5 196.5t294.5 69h78l90 430h41l-90 -430q210 -20 331 -150.5t121 -321.5q0 -160 -82 -287.5t-217.5 -196
t-294.5 -68.5h-77l-86 -410h-41zM920 963l-199 -943h74q233 0 389.5 144.5t156.5 367.5q0 176 -111 292t-310 139z" />
    <glyph glyph-name="uni0445" unicode="&#x445;" horiz-adv-x="921" 
d="M61 0l484 512l-244 471h47l223 -436l412 436h55l-444 -471l266 -512h-47l-248 477l-448 -477h-56z" />
    <glyph glyph-name="uni0446" unicode="&#x446;" 
d="M195 0l208 983h41l-200 -942h686l200 942h41l-200 -942h164l-62 -287h-41l53 246h-890z" />
    <glyph glyph-name="uni0447" unicode="&#x447;" horiz-adv-x="1095" 
d="M854 0l88 420q-40 -21 -74 -31q-91 -31 -198 -31q-217 0 -304 106.5t-49 293.5l50 225h41l-50 -227q-39 -178 46 -267.5t266 -89.5q112 0 207 35q40 14 75 35l111 514h41l-209 -983h-41z" />
    <glyph glyph-name="uni0448" unicode="&#x448;" horiz-adv-x="1597" 
d="M195 0l208 983h41l-200 -942h542l201 942h41l-201 -942h543l201 942h41l-209 -983h-1208z" />
    <glyph glyph-name="uni0449" unicode="&#x449;" horiz-adv-x="1628" 
d="M195 0l208 983h41l-200 -942h542l201 942h41l-201 -942h543l201 942h41l-201 -942h164l-62 -287h-40l53 246h-1331z" />
    <glyph glyph-name="uni044A" unicode="&#x44a;" horiz-adv-x="1064" 
d="M287 0l198 942h-286l10 41h328l-80 -369h260q132 0 219.5 -78t87.5 -204q0 -145 -102 -238.5t-256 -93.5h-379zM336 41h332q138 0 226.5 79t88.5 212q0 107 -76.5 174t-189.5 67h-268z" />
    <glyph glyph-name="uni044B" unicode="&#x44b;" horiz-adv-x="1372" 
d="M244 41h331q138 0 227 79t89 212q0 107 -76.5 174t-189.5 67h-269zM195 0l208 983h41l-79 -369h260q132 0 219.5 -78t87.5 -204q0 -145 -102.5 -238.5t-256.5 -93.5h-378zM1137 0l209 983h40l-208 -983h-41z" />
    <glyph glyph-name="uni044C" unicode="&#x44c;" horiz-adv-x="993" 
d="M244 41h352q138 0 226.5 79t88.5 212q0 107 -76.5 174t-189.5 67h-289zM195 0l208 983h41l-79 -369h280q132 0 219.5 -78t87.5 -204q0 -145 -102 -238.5t-256 -93.5h-399z" />
    <glyph glyph-name="uni044D" unicode="&#x44d;" horiz-adv-x="1044" 
d="M129 201l39 16q27 -56 72 -98q103 -99 258 -99q79 0 158.5 29.5t150 86t119.5 149t61 207.5h-549l8 40h543v15q0 185 -109 300.5t-278 115.5q-129 0 -237 -74q-50 -33 -91 -74l-30 25q44 44 100 82q126 82 264 82q183 0 302.5 -127t119.5 -328q0 -122 -44.5 -229.5
t-117.5 -181t-169 -116t-197 -42.5q-169 0 -287 110q-50 47 -86 111z" />
    <glyph glyph-name="uni044E" unicode="&#x44e;" horiz-adv-x="1525" 
d="M195 0l208 983h41l-98 -461h252q19 143 96.5 254.5t187 169.5t230.5 58q175 0 288 -123.5t113 -331.5q0 -126 -44 -234.5t-116.5 -180.5t-166 -113t-191.5 -41q-180 0 -291.5 122.5t-111.5 331.5v33q0 10 2 14h-258l-100 -481h-41zM997 20q90 0 175 38t152 106t108 172
t41 227q0 177 -103 288.5t-262 111.5q-90 0 -175 -38t-152 -106t-107.5 -172t-40.5 -227q0 -177 102.5 -288.5t261.5 -111.5z" />
    <glyph glyph-name="uni044F" unicode="&#x44f;" horiz-adv-x="1024" 
d="M573 430h306l108 512h-383q-142 0 -221.5 -79.5t-79.5 -205.5q0 -108 74 -167.5t196 -59.5zM123 0l326 406q-187 70 -187 247q0 144 94.5 237t257.5 93h424l-209 -983h-41l82 389h-297q-37 0 -53 2l-31 4l-313 -395h-53z" />
    <glyph glyph-name="uni0450" unicode="&#x450;" horiz-adv-x="1136" 
d="M770 1167l-113 246h48l102 -246h-37zM969 168l30 -25q-42 -45 -100 -82q-130 -81 -272 -81q-176 0 -294 125.5t-118 322.5q0 127 45 237t119 183t167 114.5t189 41.5q176 0 290 -118t114 -306q0 -24 -4 -70l-5 -39h-872q-2 -4 -2 -14v-37q0 -168 106.5 -284t270.5 -116
q138 0 246 74q47 31 90 74zM262 512h834q0 19 2 29q0 8 1 23t1 22q0 165 -103.5 271t-263.5 106q-110 0 -209 -51.5t-171 -156t-91 -243.5z" />
    <glyph glyph-name="uni0451" unicode="&#x451;" horiz-adv-x="1136" 
d="M969 168l30 -25q-42 -45 -100 -82q-130 -81 -272 -81q-176 0 -294 125.5t-118 322.5q0 127 45 237t119 183t167 114.5t189 41.5q176 0 290 -118t114 -306q0 -24 -4 -70l-5 -39h-872q-2 -4 -2 -14v-37q0 -168 106.5 -284t270.5 -116q138 0 246 74q47 31 90 74zM262 512
h834q0 19 2 29q0 8 1 23t1 22q0 165 -103.5 271t-263.5 106q-110 0 -209 -51.5t-171 -156t-91 -243.5zM647 1249q-17 0 -27 11t-10 28t14 30t33 13q17 0 27 -11t10 -28t-14 -30t-33 -13zM975 1249q-17 0 -27 11t-10 28t14 30t33 13q17 0 27 -11t10 -28t-14 -30t-33 -13z" />
    <glyph glyph-name="uni0452" unicode="&#x452;" horiz-adv-x="1177" 
d="M236 0l247 1167h-194l8 41h195l47 226h41l-48 -226h318l-8 -41h-318l-100 -471q50 87 143 146t213 59q167 0 273 -108.5t106 -280.5q0 -119 -38.5 -220.5t-103.5 -169t-149 -105t-176 -37.5h-43l10 40h37q81 0 156.5 34.5t135 96.5t95 156t35.5 205q0 154 -94 251
t-246 97q-141 0 -251 -97.5t-146 -264.5l-105 -498h-40z" />
    <glyph glyph-name="uni0453" unicode="&#x453;" horiz-adv-x="839" 
d="M195 0l208 983h594l-10 -41h-553l-198 -942h-41zM688 1167l205 246h55l-215 -246h-45z" />
    <glyph glyph-name="uni0454" unicode="&#x454;" horiz-adv-x="1064" 
d="M264 532h543l-8 -40h-541q-2 -10 -2 -25v-31q0 -187 109 -301.5t278 -114.5q132 0 240 74q50 33 88 74l30 -25q-44 -45 -100 -82q-124 -81 -264 -81q-184 0 -303 128t-119 326q0 122 46 230t121.5 181.5t172.5 116t199 42.5q165 0 280 -111q52 -49 82 -111l-39 -16
q-27 55 -73 98q-103 99 -256 99q-57 0 -116.5 -15.5t-118.5 -49.5t-108.5 -83t-87 -122t-53.5 -161z" />
    <glyph glyph-name="uni0455" unicode="&#x455;" horiz-adv-x="890" 
d="M141 178l37 27q0 -2 10 -20t34 -46t58 -54.5t89.5 -45.5t119.5 -19q130 0 216 73t86 179q0 47 -27 85t-70 64t-95 49.5t-104 47.5t-95 52t-70 69.5t-27 93.5q0 111 92.5 191t222.5 80q166 0 280 -129q12 -14 36 -48l-39 -26q-25 40 -68 80q-94 82 -213 82
q-114 0 -191 -67t-77 -159q0 -45 27 -81.5t70 -61.5t95 -48t104 -47t95 -52.5t70 -71.5t27 -96q0 -125 -102 -212t-249 -87q-156 0 -266 98q-53 49 -76 100z" />
    <glyph glyph-name="uni0456" unicode="&#x456;" horiz-adv-x="450" 
d="M205 0l209 983h41l-209 -983h-41zM506 1311q-17 0 -27 11t-10 28t14 30t33 13q17 0 27 -11t10 -28t-14 -30t-33 -13z" />
    <glyph glyph-name="uni0457" unicode="&#x457;" horiz-adv-x="450" 
d="M205 0l209 983h41l-209 -983h-41zM309 1249q-17 0 -27 11t-10 28t14 30t33 13q17 0 27 -11t10 -28t-14 -30t-33 -13zM637 1249q-17 0 -27 11t-10 28t14 30t33 13q17 0 27 -11t10 -28t-14 -30t-33 -13z" />
    <glyph glyph-name="uni0458" unicode="&#x458;" horiz-adv-x="450" 
d="M506 1311q-17 0 -27 11t-10 28t14 30t33 13q17 0 27 -11t10 -28t-14 -30t-33 -13zM-190 -385l8 41q11 -11 39 -23q39 -22 104 -22q75 0 127 46.5t72 137.5l254 1188h41l-254 -1188q-23 -108 -89.5 -166.5t-160.5 -58.5q-66 0 -105 22q-23 10 -36 23z" />
    <glyph glyph-name="uni0459" unicode="&#x459;" horiz-adv-x="1617" 
d="M10 0l8 47q5 -5 23 -14q30 -13 55 -13q40 0 71 11.5t69 52t71 112t71.5 197.5t76.5 303l61 287h584l-88 -410h258q135 0 221 -69t86 -193q0 -143 -101 -227t-257 -84h-369l199 942h-502l-51 -246q-38 -182 -78.5 -313t-77.5 -208.5t-79.5 -121.5t-80 -58.5t-84.5 -14.5
q-34 0 -61 10q-10 2 -25 10zM899 41h322q141 0 228 69.5t87 200.5q0 105 -75.5 163t-190.5 58h-266z" />
    <glyph glyph-name="uni045A" unicode="&#x45a;" horiz-adv-x="1617" 
d="M899 41h322q141 0 228 69.5t87 200.5q0 105 -75.5 163t-190.5 58h-266zM195 0l208 983h41l-88 -410h615l88 410h41l-88 -410h258q135 0 221 -69t86 -193q0 -143 -101 -227t-257 -84h-369l113 532h-615l-112 -532h-41z" />
    <glyph glyph-name="uni045B" unicode="&#x45b;" horiz-adv-x="1208" 
d="M236 0l247 1167h-194l8 41h195l47 226h41l-48 -226h318l-8 -41h-318l-102 -475q50 87 146 148t210 61q99 0 175.5 -36.5t119 -98.5t59.5 -143.5t-4 -171.5l-94 -451h-41l94 451q22 109 -5 200.5t-107.5 150t-202.5 58.5q-137 0 -245 -96.5t-144 -259.5l-107 -504h-40z
" />
    <glyph glyph-name="uni045C" unicode="&#x45c;" horiz-adv-x="1013" 
d="M195 0l208 983h41l-143 -670l750 670h59l-446 -399l299 -584h-48l-284 555l-344 -307l-51 -248h-41zM739 1167l205 246h55l-215 -246h-45z" />
    <glyph glyph-name="uni045D" unicode="&#x45d;" 
d="M195 0l208 983h41l-190 -901l917 901h31l-209 -983h-41l191 901l-918 -901h-30zM801 1167l-113 246h47l103 -246h-37z" />
    <glyph glyph-name="uni045E" unicode="&#x45e;" horiz-adv-x="962" 
d="M-16 -410l8 41l20 -10q23 -10 58 -10q128 0 227 164l143 231l-190 977h43l180 -922l569 922h48l-746 -1208q-68 -114 -132 -159.5t-151 -45.5q-34 0 -57 10zM485 1413h39q-2 -2 -2 -10v-21q0 -79 53.5 -126.5t145.5 -47.5q94 0 151 59.5t70 145.5h41
q-18 -115 -93.5 -180.5t-178.5 -65.5t-165.5 60t-62.5 153v21q0 8 2 12z" />
    <glyph glyph-name="uni045F" unicode="&#x45f;" horiz-adv-x="1167" 
d="M195 0l208 983h41l-200 -942h696l201 942h41l-209 -983h-369l-53 -246h-41l53 246h-368z" />
    <glyph glyph-name="uni0462" unicode="&#x462;" horiz-adv-x="1361" 
d="M328 0l239 1137h-327l10 41h328l53 256h41l-54 -256h431l-11 -41h-430l-71 -338h374q183 0 301.5 -99t118.5 -272q0 -185 -134.5 -306.5t-336.5 -121.5h-532zM377 41h483q189 0 309.5 109.5t120.5 277.5q0 152 -107 241t-272 89h-383z" />
    <glyph glyph-name="uni0463" unicode="&#x463;" horiz-adv-x="1075" 
d="M266 0l199 942h-266l10 41h266l94 451h41l-94 -451h379l-10 -41h-379l-70 -328h291q132 0 219.5 -78t87.5 -204q0 -145 -102 -238.5t-256 -93.5h-410zM315 41h363q138 0 226.5 79t88.5 212q0 107 -76.5 174t-189.5 67h-299z" />
    <glyph glyph-name="uni046A" unicode="&#x46a;" horiz-adv-x="1556" 
d="M154 0l36 184q58 300 227.5 447t483.5 147l-430 625l6 31h1229l-6 -31l-703 -631q104 -18 184.5 -52t134 -81t88 -104t48 -124.5t12.5 -137.5t-16 -148l-25 -125h-41l25 125q54 272 -61 424t-381 188l-156 -737h-41l156 737q-308 0 -472 -130t-221 -423l-36 -184h-41z
M948 778l684 615h-1106z" />
    <glyph glyph-name="uni046B" unicode="&#x46b;" horiz-adv-x="1269" 
d="M750 512l485 430h-789zM143 0h-41q21 110 65 198.5t101.5 146t129.5 96t145.5 55t152.5 16.5l-311 440l8 31h922l-8 -31l-498 -440q97 -16 175.5 -59t132 -108.5t73 -152.5t-1.5 -192h-41q22 104 0.5 188t-75.5 145t-133.5 96.5t-174.5 41.5l-98 -471h-41l98 471
q-229 0 -383 -117t-197 -354z" />
    <glyph glyph-name="uni0472" unicode="&#x472;" horiz-adv-x="1679" 
d="M905 -20q-193 0 -344 91t-232 244t-81 338q0 134 44 259t122 222t179.5 170t221.5 111.5t242 38.5q145 0 269 -53.5t208.5 -144.5t132 -214.5t47.5 -261.5q0 -167 -68.5 -317.5t-181 -255t-259.5 -166t-300 -61.5zM289 674v-17q0 -178 78.5 -323t221.5 -229.5t322 -84.5
q137 0 269 52t236.5 142.5t173.5 221.5t81 279q-53 -27 -88 -41q-98 -41 -209 -41q-102 0 -210 20t-187 44.5t-186 44.5t-207 20q-101 0 -209 -45zM1673 760v16q0 179 -78.5 324t-222 229t-323.5 84q-136 0 -268.5 -52.5t-236 -143.5t-172.5 -221.5t-81 -276.5q59 30 86 41
q98 41 209 41q102 0 210 -20t187 -44.5t186 -44.5t207 -20q106 0 209 43q51 23 88 45z" />
    <glyph glyph-name="uni0473" unicode="&#x473;" 
d="M256 449v-15q0 -183 108.5 -298.5t278.5 -115.5q179 0 323 129.5t164 335.5l-16 -6q-15 -6 -25 -9.5t-30 -10t-38.5 -11t-40.5 -9t-45.5 -7t-45.5 -2.5q-71 0 -200 41t-197 41q-51 0 -105 -13.5t-83 -25.5t-48 -24zM637 -20q-184 0 -303 128t-119 326q0 124 46.5 232
t122 181t172.5 115t198 42q184 0 303 -128.5t119 -326.5q0 -164 -79 -296.5t-201.5 -202.5t-258.5 -70zM1135 535v14q0 183 -108.5 298.5t-278.5 115.5q-116 0 -221.5 -55.5t-179.5 -163.5t-87 -246q1 1 13.5 5.5t21 7.5t25 8.5t31 9.5t34 9t37.5 8t39 5t41 2
q72 0 199.5 -41t197.5 -41q51 0 105.5 13.5t82.5 26t48 24.5z" />
    <glyph glyph-name="uni0474" unicode="&#x474;" horiz-adv-x="1331" 
d="M594 0l-260 1434h45l248 -1373l655 1127q91 160 154 213t151 53q40 0 86 -16l31 -15l-18 -41l-27 15q-36 16 -80 16q-70 0 -124.5 -48t-127.5 -177l-692 -1188h-41z" />
    <glyph glyph-name="uni0475" unicode="&#x475;" horiz-adv-x="993" 
d="M440 0l-190 983h43l178 -922l444 744q63 106 119 152.5t127 46.5q37 0 90 -23q26 -11 37 -20l-18 -39q-9 9 -31 20q-48 21 -86 21q-54 0 -95 -35.5t-97 -128.5l-480 -799h-41z" />
    <glyph glyph-name="uni048A" unicode="&#x48a;" horiz-adv-x="1587" 
d="M246 0l303 1434h41l-287 -1348l1311 1348h31l-295 -1393h184l-227 -348h-47l198 307h-158l287 1348l-1311 -1348h-30zM924 1884h39q-2 -2 -2 -10v-21q0 -79 53.5 -126.5t144.5 -47.5q94 0 151 59.5t70 145.5h41q-18 -115 -93.5 -180.5t-178.5 -65.5t-165 59.5t-62 153.5
v21q0 8 2 12z" />
    <glyph glyph-name="uni048B" unicode="&#x48b;" 
d="M195 0l208 983h41l-190 -901l917 901h31l-201 -942h164l-188 -287h-47l160 246h-138l191 901l-918 -901h-30zM618 1413h39q-2 -2 -2 -10v-21q0 -79 53.5 -126.5t145.5 -47.5q94 0 151 59.5t70 145.5h41q-18 -115 -93.5 -180.5t-178.5 -65.5t-165.5 60t-62.5 153v21
q0 8 2 12z" />
    <glyph glyph-name="uni048C" unicode="&#x48c;" horiz-adv-x="1361" 
d="M328 0l239 1137h-327l10 41h328l53 256h41l-54 -256h431l-11 -41h-430l-71 -338h374q183 0 301.5 -99t118.5 -272q0 -185 -134.5 -306.5t-336.5 -121.5h-532zM377 41h483q189 0 309.5 109.5t120.5 277.5q0 152 -107 241t-272 89h-383z" />
    <glyph glyph-name="uni048D" unicode="&#x48d;" horiz-adv-x="1075" 
d="M266 0l199 942h-266l10 41h266l94 451h41l-94 -451h379l-10 -41h-379l-70 -328h291q132 0 219.5 -78t87.5 -204q0 -145 -102 -238.5t-256 -93.5h-410zM315 41h363q138 0 226.5 79t88.5 212q0 107 -76.5 174t-189.5 67h-299z" />
    <glyph glyph-name="uni048E" unicode="&#x48e;" horiz-adv-x="1320" 
d="M246 0l303 1434h434q178 0 298 -104.5t120 -278.5q0 -163 -103 -284t-251 -155l110 -223l-35 -20l-114 233l-29 -4q-36 -4 -70 -4h-497l-125 -594h-41zM420 635h493q34 0 50 2q18 0 28 2l-104 211l35 20l108 -223q150 34 240 142t90 258q0 152 -105 249t-260 97h-413z
" />
    <glyph glyph-name="uni048F" unicode="&#x48f;" horiz-adv-x="1239" 
d="M113 -430l301 1413h41l-47 -223q52 75 108 121q141 123 315 123q166 0 282 -125.5t116 -315.5q0 -172 -82 -309t-213 -211l84 -172l-35 -23l-86 175q-23 -13 -57 -23q-70 -20 -138 -20q-81 0 -151 31t-117.5 83t-77.5 114.5t-39 129.5l-163 -768h-41zM881 57l-133 273
l34 22l136 -276q119 65 193.5 188.5t74.5 284.5q0 184 -102.5 299t-256.5 115q-86 0 -170.5 -38t-153 -105t-111 -168.5t-42.5 -217.5q0 -184 102.5 -299t256.5 -115q55 0 118 19z" />
    <glyph glyph-name="uni0490" unicode="&#x490;" horiz-adv-x="1136" 
d="M246 0l303 1434h799l61 286h41l-70 -327h-798l-295 -1393h-41z" />
    <glyph glyph-name="uni0491" unicode="&#x491;" horiz-adv-x="839" 
d="M195 0l208 983h553l52 246h41l-62 -287h-553l-198 -942h-41z" />
    <glyph glyph-name="uni0492" unicode="&#x492;" horiz-adv-x="1157" 
d="M266 0l150 707h-226l9 41h225l145 686h840l-8 -41h-799l-137 -645h481l-8 -41h-481l-150 -707h-41z" />
    <glyph glyph-name="uni0493" unicode="&#x493;" horiz-adv-x="860" 
d="M215 0l96 461h-194l10 41h195l102 481h594l-10 -41h-553l-93 -440h318l-10 -41h-318l-96 -461h-41z" />
    <glyph glyph-name="uni0494" unicode="&#x494;" horiz-adv-x="1320" 
d="M246 0l303 1434h819l-8 -41h-778l-156 -734q56 36 106 54q139 55 273 55q217 0 341 -117.5t124 -302.5q0 -120 -46 -226t-121.5 -178.5t-175.5 -114.5t-206 -42q-29 0 -37 2q-10 0 -14 2l8 39q6 -2 18 -2q10 -2 33 -2q101 0 192.5 39t159.5 107t108 166t40 210
q0 170 -114.5 274.5t-313.5 104.5q-145 0 -283 -63q-54 -25 -104 -62l-127 -602h-41z" />
    <glyph glyph-name="uni0495" unicode="&#x495;" horiz-adv-x="993" 
d="M426 -430l8 41h33q75 0 149 35t136 99t100.5 168t38.5 230q0 157 -79 242.5t-212 85.5q-111 0 -205 -57q-34 -17 -82 -56l-77 -358h-41l208 983h594l-8 -41h-555l-112 -534q54 39 81 51q100 53 205 53q143 0 233.5 -98t90.5 -271q0 -134 -43 -246t-112 -181.5
t-150.5 -107.5t-163.5 -38h-37z" />
    <glyph glyph-name="uni0496" unicode="&#x496;" horiz-adv-x="1945" 
d="M41 0l770 829l-416 605h49l588 -856l182 856h41l-180 -848l942 848h58l-670 -605l397 -788h183l-74 -348h-41l65 307h-157l-406 803l-309 -281l-111 -522h-41l111 522l-188 273l-736 -795h-57z" />
    <glyph glyph-name="uni0497" unicode="&#x497;" horiz-adv-x="1464" 
d="M41 0l545 584l-275 399h49l416 -600l129 600h41l-127 -592l662 592h59l-446 -399l278 -543h121l-61 -287h-41l53 246h-98l-285 555l-254 -227l-70 -328h-41l70 328l-156 221l-512 -549h-57z" />
    <glyph glyph-name="uni0498" unicode="&#x498;" horiz-adv-x="1116" 
d="M449 -307l59 289q-48 5 -92.5 16.5t-78 27t-63.5 34.5t-51.5 38.5t-39 38.5t-29 35.5t-19 29.5t-11.5 20l-3 7l39 29q2 -5 6 -13.5t20 -33t36 -47t55 -50t75.5 -47t99.5 -33.5t126 -14q188 0 313 110.5t125 268.5q0 144 -105.5 241t-255.5 97h-149l8 41h205
q182 0 293.5 95t111.5 243q0 122 -100 209.5t-272 87.5q-126 0 -250 -61q-51 -26 -96 -62l-25 33q55 44 102 66q130 65 271 65q95 0 174 -28.5t130 -75.5t79 -106t28 -122q0 -88 -31 -157t-85 -112t-115.5 -68.5t-132.5 -36.5q73 -25 127 -70q129 -104 129 -272
q0 -182 -141.5 -304t-346.5 -122h-20l-60 -287h-40z" />
    <glyph glyph-name="uni0499" unicode="&#x499;" horiz-adv-x="860" 
d="M356 -246l47 228q-139 18 -227 106q-44 44 -65 90l34 23q0 -2 10 -19.5t34.5 -45.5t58.5 -54t90 -44.5t121 -17.5q131 0 215 72t84 174q0 92 -76 159t-190 67h-80l8 40h123q124 0 201 66t77 156q0 86 -69 147.5t-183 61.5q-96 0 -190 -50q-34 -18 -74 -49l-24 29
q46 37 81 55q106 56 211 56q129 0 209 -73t80 -177q0 -61 -25 -109.5t-58.5 -73.5t-72.5 -41.5t-61.5 -21t-30.5 -4.5l14 -6q13 -5 28.5 -13.5t36 -21.5t39.5 -31.5t35 -41.5t26 -54t10 -66q0 -119 -100.5 -204.5t-249.5 -85.5h-7l-49 -226h-41z" />
    <glyph glyph-name="uni049A" unicode="&#x49a;" horiz-adv-x="1351" 
d="M246 0l303 1434h41l-207 -971l1085 971h58l-674 -605l397 -788h142l-74 -348h-41l65 307h-116l-406 803l-448 -402l-84 -401h-41z" />
    <glyph glyph-name="uni049B" unicode="&#x49b;" horiz-adv-x="1034" 
d="M195 0l208 983h41l-143 -670l750 670h59l-446 -399l278 -543h121l-62 -287h-40l53 246h-99l-284 555l-344 -307l-51 -248h-41z" />
    <glyph glyph-name="uni049C" unicode="&#x49c;" horiz-adv-x="1361" 
d="M246 0l303 1434h41l-146 -686h215l62 288h41l-62 -288h187l612 686h53l-630 -707l378 -727h-47l-368 707h-193l-61 -287h-41l61 287h-215l-149 -707h-41z" />
    <glyph glyph-name="uni049D" unicode="&#x49d;" horiz-adv-x="1013" 
d="M195 0l208 983h41l-98 -461h184l45 215h41l-45 -215h134l372 461h53l-389 -479l222 -504h-45l-213 481h-144l-45 -215h-41l45 215h-184l-100 -481h-41z" />
    <glyph glyph-name="uni049E" unicode="&#x49e;" horiz-adv-x="1382" 
d="M297 0l244 1147h-297l8 41h297l51 246h41l-51 -246h276l-8 -41h-276l-148 -684l1086 971h57l-674 -605l418 -829h-45l-406 803l-448 -402l-84 -401h-41z" />
    <glyph glyph-name="uni049F" unicode="&#x49f;" horiz-adv-x="1034" 
d="M215 0l248 1167h-195l8 41h195l47 226h41l-47 -226h317l-8 -41h-317l-182 -854l749 670h59l-446 -399l299 -584h-47l-285 555l-344 -307l-51 -248h-41z" />
    <glyph glyph-name="uni04A0" unicode="&#x4a0;" horiz-adv-x="1495" 
d="M410 0l295 1393h-410l8 41h451l-207 -971l1085 971h58l-674 -605l418 -829h-45l-406 803l-448 -402l-84 -401h-41z" />
    <glyph glyph-name="uni04A1" unicode="&#x4a1;" horiz-adv-x="1054" 
d="M236 0l198 942h-235l10 41h276l-143 -670l750 670h59l-446 -399l299 -584h-48l-284 555l-344 -307l-52 -248h-40z" />
    <glyph glyph-name="uni04A2" unicode="&#x4a2;" horiz-adv-x="1546" 
d="M246 0l303 1434h41l-146 -686h953l145 686h41l-295 -1393h185l-74 -348h-41l65 307h-184l150 707h-953l-149 -707h-41z" />
    <glyph glyph-name="uni04A3" unicode="&#x4a3;" horiz-adv-x="1208" 
d="M195 0l208 983h41l-98 -461h707l98 461h41l-201 -942h164l-61 -287h-41l53 246h-164l100 481h-706l-100 -481h-41z" />
    <glyph glyph-name="uni04A4" unicode="&#x4a4;" horiz-adv-x="2007" 
d="M246 0l303 1434h41l-146 -686h912l145 686h758l-8 -41h-717l-295 -1393h-41l150 707h-912l-149 -707h-41z" />
    <glyph glyph-name="uni04A5" unicode="&#x4a5;" horiz-adv-x="1495" 
d="M195 0l208 983h41l-98 -461h676l98 461h533l-11 -41h-491l-199 -942h-41l101 481h-676l-100 -481h-41z" />
    <glyph glyph-name="uni04A6" unicode="&#x4a6;" horiz-adv-x="2283" 
d="M246 0l303 1434h1014l-164 -775q56 36 106 54q139 55 273 55q217 0 341 -117.5t124 -302.5q0 -120 -46 -226t-121.5 -178.5t-175.5 -114.5t-206 -42q-29 0 -37 2q-11 0 -15 2l9 39q6 -2 18 -2q10 -2 33 -2q101 0 192.5 39t159.5 107t108 166t40 210q0 170 -114.5 274.5
t-313.5 104.5q-145 0 -283 -63q-57 -26 -105 -62l-126 -602h-41l294 1393h-931l-295 -1393h-41z" />
    <glyph glyph-name="uni04A7" unicode="&#x4a7;" horiz-adv-x="1710" 
d="M195 0l208 983h768l-122 -575q54 39 81 51q100 53 205 53q143 0 233.5 -98t90.5 -271q0 -134 -43 -246t-112 -181.5t-150.5 -107.5t-163.5 -38h-37l8 41h33q75 0 149 35t136 99t100.5 168t38.5 230q0 157 -79 242.5t-212 85.5q-111 0 -205 -57q-34 -17 -82 -56l-77 -358
h-41l198 942h-686l-198 -942h-41z" />
    <glyph glyph-name="uni04A8" unicode="&#x4a8;" horiz-adv-x="1669" 
d="M1581 80l12 -41q-28 -21 -57 -31q-78 -28 -156 -28q-104 0 -198 36q-30 11 -70 39q-66 -32 -88 -39q-110 -36 -188 -36q-166 0 -296.5 84t-202 230t-71.5 327q0 150 43 282.5t115.5 228.5t167.5 167.5t198 109.5t207 45l-8 -39q-94 -5 -189.5 -40.5t-184 -104.5
t-157.5 -161.5t-110 -221t-41 -273.5q0 -260 146 -427t387 -167q60 0 157 29q25 7 78 31q-77 50 -135 129q-135 179 -135 428q0 159 47.5 291t123.5 213.5t165.5 125.5t179.5 44q155 0 254.5 -120.5t99.5 -340.5q0 -137 -43 -265.5t-115.5 -227.5t-163.5 -172t-192 -113
q27 -20 56 -27q70 -25 163 -25q76 0 148 29q32 13 53 31zM1120 96q66 24 134 68t137 113.5t122.5 152.5t87 193t33.5 227q0 104 -26.5 186t-71.5 132t-102 76t-121 26q-84 0 -165.5 -41t-149 -117t-109 -199.5t-41.5 -273.5q0 -243 135 -418q60 -78 137 -125z" />
    <glyph glyph-name="uni04A9" unicode="&#x4a9;" horiz-adv-x="1228" 
d="M1210 70l23 -31q-31 -21 -57 -31q-78 -28 -148 -28q-78 0 -151 30q-31 11 -58 31q-34 -20 -67 -31q-77 -30 -146 -30q-172 0 -282.5 121.5t-110.5 318.5q0 128 44.5 236.5t116.5 179.5t156 115t170 57l-8 -41q-61 -10 -121.5 -37t-118 -73.5t-101.5 -107.5t-70.5 -146.5
t-26.5 -182.5q0 -182 101 -291t263 -109q56 0 111 25q20 7 53 25q-47 41 -90 104q-88 127 -88 277q0 189 102 309.5t234 120.5q98 0 167 -79t69 -218q0 -215 -158 -389q-72 -78 -158 -129q16 -11 51 -23q54 -23 127 -23q70 0 125 25q23 7 47 25zM827 90q83 51 154 125
q154 166 154 358q0 133 -56 200t-143 67q-118 0 -202.5 -109t-84.5 -282q0 -145 88 -263q46 -59 90 -96z" />
    <glyph glyph-name="uni04AA" unicode="&#x4aa;" horiz-adv-x="1525" 
d="M768 -307l59 291q-257 25 -418 212t-161 457q0 170 69 321.5t181.5 255t259 164t299.5 60.5q256 0 432 -156q79 -69 127 -153l-37 -21q-49 80 -123 144q-177 145 -405 145q-143 0 -280.5 -57t-244 -155t-172 -241t-65.5 -303q0 -130 45.5 -247t126 -203t197.5 -136.5
t253 -50.5q210 0 404 119q80 51 147 121l31 -24q-67 -73 -158 -130q-208 -126 -430 -126h-37l-59 -287h-41z" />
    <glyph glyph-name="uni04AB" unicode="&#x4ab;" horiz-adv-x="1064" 
d="M535 -246l47 230q-162 21 -263.5 143t-101.5 307q0 122 46 230t121.5 181.5t172.5 116t199 42.5q167 0 282 -111q53 -50 80 -111l-39 -16q-27 55 -73 98q-103 99 -256 99q-95 0 -184 -39t-157.5 -106.5t-109.5 -167.5t-41 -214q0 -186 109.5 -301t277.5 -115
q130 0 238 74q47 31 90 74l31 -25q-42 -42 -101 -82q-124 -81 -264 -81h-14l-50 -226h-40z" />
    <glyph glyph-name="uni04AC" unicode="&#x4ac;" horiz-adv-x="1095" 
d="M621 -307l65 307h-184l295 1393h-492l8 41h1024l-8 -41h-491l-287 -1352h184l-73 -348h-41z" />
    <glyph glyph-name="uni04AD" unicode="&#x4ad;" horiz-adv-x="890" 
d="M520 -246l53 246h-163l198 942h-389l10 41h820l-11 -41h-389l-190 -901h164l-62 -287h-41z" />
    <glyph glyph-name="uni04AE" unicode="&#x4ae;" horiz-adv-x="1228" 
d="M563 0l107 502l-336 932h43l317 -887l695 887h51l-729 -932l-107 -502h-41z" />
    <glyph glyph-name="uni04AF" unicode="&#x4af;" horiz-adv-x="962" 
d="M348 -430l92 430l-190 983h43l178 -922l571 922h48l-609 -983l-92 -430h-41z" />
    <glyph glyph-name="uni04B0" unicode="&#x4b0;" horiz-adv-x="1228" 
d="M563 0l99 471h-349l11 41h348l4 20l-342 902h43l323 -856l689 856h51l-723 -902l-4 -20h348l-10 -41h-349l-98 -471h-41z" />
    <glyph glyph-name="uni04B1" unicode="&#x4b1;" horiz-adv-x="962" 
d="M348 -430l74 348h-225l8 41h225l10 41l-190 983h43l178 -922l571 922h48l-609 -983l-10 -41h246l-8 -41h-246l-74 -348h-41z" />
    <glyph glyph-name="uni04B2" unicode="&#x4b2;" horiz-adv-x="1249" 
d="M61 0l684 737l-350 697h47l332 -660l610 660h56l-645 -697l350 -696h143l-74 -348h-40l65 307h-119l-354 700l-649 -700h-56z" />
    <glyph glyph-name="uni04B3" unicode="&#x4b3;" horiz-adv-x="931" 
d="M61 0l484 512l-244 471h47l223 -436l412 436h55l-444 -471l244 -471h123l-62 -287h-41l53 246h-98l-248 477l-448 -477h-56z" />
    <glyph glyph-name="uni04B4" unicode="&#x4b4;" horiz-adv-x="1792" 
d="M512 0l295 1393h-492l9 41h1024l-9 -41h-491l-287 -1352h932l295 1393h41l-295 -1393h184l-73 -348h-41l65 307h-1157z" />
    <glyph glyph-name="uni04B5" unicode="&#x4b5;" horiz-adv-x="1402" 
d="M410 0l198 942h-389l10 41h820l-11 -41h-389l-190 -901h686l201 942h40l-200 -942h164l-62 -287h-41l53 246h-890z" />
    <glyph glyph-name="uni04B6" unicode="&#x4b6;" horiz-adv-x="1433" 
d="M1245 -307l66 307h-185l136 647q-54 -32 -125 -57q-142 -58 -285 -58q-156 0 -265 67.5t-151 182t-12 254.5l84 398h41l-82 -390q-45 -208 63.5 -339.5t331.5 -131.5q149 0 293 64q74 31 119 63l156 734h40l-294 -1393h184l-74 -348h-41z" />
    <glyph glyph-name="uni04B7" unicode="&#x4b7;" horiz-adv-x="1120" 
d="M965 -246l53 246h-164l88 420q-40 -21 -74 -31q-91 -31 -198 -31q-217 0 -304 106.5t-49 293.5l50 225h41l-50 -227q-39 -178 46 -267.5t266 -89.5q112 0 207 35q40 14 75 35l111 514h41l-201 -942h164l-61 -287h-41z" />
    <glyph glyph-name="uni04B8" unicode="&#x4b8;" horiz-adv-x="1423" 
d="M715 287l55 252q-195 25 -291 164.5t-55 332.5l84 398h41l-82 -390q-37 -189 46.5 -314t264.5 -150l64 301h41l-66 -308h45q149 0 293 64q74 31 119 63l156 734h40l-303 -1434h-41l136 647q-54 -32 -125 -57q-142 -58 -285 -58h-43l-53 -245h-41z" />
    <glyph glyph-name="uni04B9" unicode="&#x4b9;" horiz-adv-x="1095" 
d="M535 184l38 181q-164 23 -228 127t-28 266l50 225h41l-50 -227q-34 -155 26 -242t198 -108l43 208h41l-45 -213q2 -2 12 -2h37q112 0 207 35q40 14 75 35l111 514h41l-209 -983h-41l88 420q-40 -21 -74 -31q-91 -31 -198 -31h-41q-11 0 -17 2l-37 -176h-40z" />
    <glyph glyph-name="uni04BA" unicode="&#x4ba;" horiz-adv-x="1382" 
d="M246 0l303 1434h41l-135 -648q58 34 125 58q140 57 284 57q156 0 265 -67.5t151 -182t12 -254.5l-84 -397h-41l82 389q40 210 -65.5 340.5t-329.5 130.5q-143 0 -293 -63q-60 -25 -119 -64l-155 -733h-41z" />
    <glyph glyph-name="uni04BB" unicode="&#x4bb;" 
d="M205 0l303 1434h41l-135 -639q50 87 146 148t210 61q131 0 220.5 -63t122 -165t7.5 -223l-116 -553h-41l116 553q22 109 -5 201t-107.5 150.5t-202.5 58.5q-137 0 -245 -97t-144 -260l-129 -606h-41z" />
    <glyph glyph-name="uni04BC" unicode="&#x4bc;" horiz-adv-x="1740" 
d="M455 717h-35q-100 0 -151.5 64.5t-28.5 158.5l10 43h41l-10 -45q-18 -76 19 -128t120 -52h41q21 155 94.5 287.5t176.5 221t227 138t249 49.5q162 0 295 -80.5t209 -223.5t76 -319q0 -31 -4 -77l-4 -37h-1284l-4 -31q-5 -45 -5 -72q0 -260 161 -427t411 -167
q190 0 358 105q71 43 137 106l29 -32q-63 -63 -143 -111q-181 -108 -385 -108q-130 0 -242 47.5t-191.5 131.5t-125 204t-45.5 260q0 32 4 94zM500 758h1245v20q0 6 1 23t1 30q0 257 -153 419.5t-394 162.5q-115 0 -228 -45.5t-209 -127.5t-166.5 -207.5t-96.5 -274.5z" />
    <glyph glyph-name="uni04BD" unicode="&#x4bd;" horiz-adv-x="1280" 
d="M362 428v43h-4q-93 0 -144 61.5t-32 153.5l6 31h41l-6 -31q-17 -76 22 -125t120 -49h4q19 146 96.5 260t187 173t230.5 59q176 0 289.5 -118t113.5 -306q0 -24 -4 -70l-4 -39h-872q-3 -6 -3 -14v-37q0 -168 106.5 -284t270.5 -116q138 0 246 74q47 31 90 74l31 -25
q-42 -45 -100 -82q-130 -81 -273 -81q-176 0 -294 125.5t-118 322.5zM410 512h833q0 19 2 29q0 8 1 23t1 22q0 165 -103 271t-263 106q-110 0 -209 -51.5t-171 -156t-91 -243.5z" />
    <glyph glyph-name="uni04BE" unicode="&#x4be;" horiz-adv-x="1740" 
d="M924 -307l59 291q-237 25 -384.5 200t-147.5 439q0 32 4 94h-35q-100 0 -151.5 64.5t-28.5 158.5l10 43h41l-10 -45q-18 -76 19 -128t120 -52h41q21 155 94.5 287.5t176.5 221t227 138t249 49.5q162 0 295 -80.5t209 -223.5t76 -319q0 -31 -4 -77l-4 -37h-1284l-4 -31
q-5 -45 -5 -72q0 -260 161 -427t411 -167q190 0 358 105q71 43 137 106l29 -32q-63 -63 -143 -111q-181 -108 -385 -108h-31l-59 -287h-41zM500 758h1245v20q0 6 1 23t1 30q0 257 -153 419.5t-394 162.5q-115 0 -228 -45.5t-209 -127.5t-166.5 -207.5t-96.5 -274.5z" />
    <glyph glyph-name="uni04BF" unicode="&#x4bf;" horiz-adv-x="1280" 
d="M659 -246l50 230q-151 25 -249 146.5t-98 297.5v43h-4q-93 0 -144 61.5t-32 153.5l6 31h41l-6 -31q-17 -76 22 -125t120 -49h4q19 146 96.5 260t187 173t230.5 59q176 0 289.5 -118t113.5 -306q0 -24 -4 -70l-4 -39h-872q-3 -6 -3 -14v-37q0 -168 106.5 -284t270.5 -116
q138 0 246 74q47 31 90 74l31 -25q-42 -45 -100 -82q-130 -81 -273 -81h-26l-48 -226h-41zM410 512h833q0 19 2 29q0 8 1 23t1 22q0 165 -103 271t-263 106q-110 0 -209 -51.5t-171 -156t-91 -243.5z" />
    <glyph glyph-name="uni04C0" unicode="&#x4c0;" horiz-adv-x="532" 
d="M246 0l303 1434h41l-303 -1434h-41z" />
    <glyph glyph-name="uni04C1" unicode="&#x4c1;" horiz-adv-x="1873" 
d="M41 0l770 829l-416 605h49l588 -856l182 856h41l-180 -848l942 848h58l-670 -605l418 -829h-45l-406 803l-309 -281l-111 -522h-41l111 522l-188 273l-736 -795h-57zM1057 1884h39q-2 -2 -2 -10v-21q0 -79 53.5 -126.5t144.5 -47.5q94 0 151 59.5t70 145.5h41
q-18 -115 -93.5 -180.5t-178.5 -65.5t-165 59.5t-62 153.5v21q0 8 2 12z" />
    <glyph glyph-name="uni04C2" unicode="&#x4c2;" horiz-adv-x="1443" 
d="M41 0l545 584l-275 399h49l416 -600l129 600h41l-127 -592l662 592h59l-446 -399l299 -584h-47l-285 555l-254 -227l-70 -328h-41l70 328l-156 221l-512 -549h-57zM741 1413h39q-2 -2 -2 -10v-21q0 -79 53.5 -126.5t145.5 -47.5q94 0 151 59.5t70 145.5h41
q-18 -115 -93.5 -180.5t-178.5 -65.5t-165.5 60t-62.5 153v21q0 8 2 12z" />
    <glyph glyph-name="uni04C3" unicode="&#x4c3;" horiz-adv-x="1382" 
d="M246 0l303 1434h41l-207 -971l1085 971h58l-789 -707l47 14q66 17 121 17q182 0 299 -125t117 -340q0 -155 -49 -283.5t-130 -209.5t-181.5 -125t-206.5 -44q-18 0 -54 4l9 41q16 -2 51 -2q98 0 189.5 40t166 115t119.5 195.5t45 268.5q0 198 -108.5 311t-278.5 113
q-97 0 -185 -47t-202 -148l-135 -121l-84 -401h-41z" />
    <glyph glyph-name="uni04C4" unicode="&#x4c4;" horiz-adv-x="1034" 
d="M485 -430l9 41h38q73 0 146 35.5t135 100.5t100.5 168.5t38.5 227.5q0 153 -85.5 233t-221.5 75q-130 -3 -252 -78q-49 -32 -96 -76l-61 -297h-41l208 983h41l-131 -618l738 618h59l-627 -524l56 16q70 17 114 17q154 0 247 -91t93 -258q0 -132 -42.5 -243.5
t-110.5 -181.5t-149.5 -109t-162.5 -39h-43z" />
    <glyph glyph-name="uni04C5" unicode="&#x4c5;" horiz-adv-x="1505" 
d="M0 6l10 45q6 -3 18 -8.5t17 -7.5q35 -15 72 -15q50 0 98 26t103.5 94.5t107 176.5t105.5 283.5t102 403.5l90 430h850l-295 -1393h184l-227 -348h-47l198 307h-157l295 1393h-768l-82 -389q-53 -250 -112 -436t-114 -296.5t-116 -178t-113.5 -90.5t-112.5 -23
q-25 0 -71 12q-26 9 -35 14z" />
    <glyph glyph-name="uni04C6" unicode="&#x4c6;" horiz-adv-x="1157" 
d="M10 0l8 47q5 -5 23 -14q30 -13 55 -13q40 0 71 11.5t69 52t71 112t71.5 197.5t76.5 303l61 287h655l-200 -942h164l-189 -287h-47l160 246h-137l198 942h-573l-51 -246q-38 -182 -78.5 -313t-77.5 -208.5t-79.5 -121.5t-80 -58.5t-84.5 -14.5q-34 0 -61 10q-10 2 -25 10z
" />
    <glyph glyph-name="uni04C7" unicode="&#x4c7;" horiz-adv-x="1525" 
d="M246 0l303 1434h41l-146 -686h953l145 686h41l-344 -1616q-56 -248 -258 -248q-61 0 -100 22q-28 12 -39 23l10 41q11 -11 39 -23q39 -22 94 -22q86 0 138.5 51.5t76.5 165.5l189 879h-953l-149 -707h-41z" />
    <glyph glyph-name="uni04C8" unicode="&#x4c8;" horiz-adv-x="1177" 
d="M195 0l208 983h41l-98 -461h707l98 461h41l-266 -1245q-17 -77 -68 -121.5t-119 -44.5q-50 0 -86 22q-19 10 -30 23l8 39q13 -13 33 -23q36 -22 79 -22q55 0 93 33.5t51 99.5l155 737h-706l-100 -481h-41z" />
    <glyph glyph-name="uni04C9" unicode="&#x4c9;" horiz-adv-x="1525" 
d="M246 0l303 1434h41l-146 -686h953l145 686h41l-295 -1393h185l-228 -348h-47l199 307h-158l150 707h-953l-149 -707h-41z" />
    <glyph glyph-name="uni04CA" unicode="&#x4ca;" horiz-adv-x="1177" 
d="M195 0l208 983h41l-98 -461h707l98 461h41l-201 -942h164l-188 -287h-47l159 246h-137l100 481h-706l-100 -481h-41z" />
    <glyph glyph-name="uni04CB" unicode="&#x4cb;" horiz-adv-x="1423" 
d="M897 -307l74 348h164l127 606q-54 -32 -125 -57q-142 -58 -285 -58q-156 0 -265 67.5t-151 182t-12 254.5l84 398h41l-82 -390q-45 -208 63.5 -339.5t331.5 -131.5q149 0 293 64q74 31 119 63l156 734h40l-303 -1434h-163l-66 -307h-41z" />
    <glyph glyph-name="uni04CC" unicode="&#x4cc;" horiz-adv-x="1095" 
d="M637 -246l61 287h164l80 379q-40 -21 -74 -31q-91 -31 -198 -31q-217 0 -304 106.5t-49 293.5l50 225h41l-50 -227q-39 -178 46 -267.5t266 -89.5q112 0 207 35q40 14 75 35l111 514h41l-209 -983h-164l-53 -246h-41z" />
    <glyph glyph-name="uni04CD" unicode="&#x4cd;" horiz-adv-x="1863" 
d="M246 0l303 1434h26l463 -912l848 912h35l-295 -1393h184l-227 -348h-47l199 307h-158l287 1352l-838 -901l-453 901l-286 -1352h-41z" />
    <glyph glyph-name="uni04CE" unicode="&#x4ce;" horiz-adv-x="1331" 
d="M195 0l208 983h25l309 -614l572 614h37l-201 -942h164l-189 -287h-47l160 246h-137l190 901l-559 -604l-301 604l-190 -901h-41z" />
    <glyph glyph-name="uni04CF" unicode="&#x4cf;" horiz-adv-x="450" 
d="M205 0l303 1434h41l-303 -1434h-41z" />
    <glyph glyph-name="uni04D0" unicode="&#x4d0;" horiz-adv-x="1351" 
d="M813 1884h39q-2 -2 -2 -10v-21q0 -79 53.5 -126.5t145.5 -47.5q94 0 151 59.5t70 145.5h41q-18 -115 -94 -180.5t-179 -65.5t-165 59.5t-62 153.5v21q0 8 2 12zM92 0l897 1434h41l291 -1434h-39l-92 451h-770l-281 -451h-47zM446 492h736l-178 886z" />
    <glyph glyph-name="uni04D1" unicode="&#x4d1;" horiz-adv-x="1024" 
d="M526 1413h39q-2 -2 -2 -10v-21q0 -79 53.5 -126.5t145.5 -47.5q94 0 151 59.5t70 145.5h41q-18 -115 -93.5 -180.5t-178.5 -65.5t-165.5 60t-62.5 153v21q0 8 2 12zM895 389l37 174l-465 -76q-260 -43 -260 -241q0 -92 77 -159t203 -67q154 0 263.5 99.5t144.5 269.5z
M813 0l45 211q-29 -62 -84 -117q-118 -114 -297 -114q-143 0 -227 78.5t-84 185.5q0 232 319 284l457 76q37 146 -44 252.5t-230 106.5q-107 0 -209 -62q-50 -29 -80 -59l-25 32q46 42 86 64q110 66 230 66q110 0 190.5 -54t112.5 -146.5t8 -201.5l-127 -602h-41z" />
    <glyph glyph-name="uni04D2" unicode="&#x4d2;" horiz-adv-x="1351" 
d="M893 1720q-17 0 -27 11t-10 28t14 30t33 13q17 0 27 -11t10 -28t-14 -30t-33 -13zM1221 1720q-17 0 -27 11t-10 28t14 30t33 13q17 0 27 -11t10 -28t-14 -30t-33 -13zM92 0l897 1434h41l291 -1434h-39l-92 451h-770l-281 -451h-47zM446 492h736l-178 886z" />
    <glyph glyph-name="uni04D3" unicode="&#x4d3;" horiz-adv-x="1024" 
d="M606 1249q-17 0 -27 11t-10 28t14 30t33 13q17 0 27 -11t10 -28t-14 -30t-33 -13zM934 1249q-17 0 -27 11t-10 28t14 30t33 13q17 0 27 -11t10 -28t-14 -30t-33 -13zM895 389l37 174l-465 -76q-260 -43 -260 -241q0 -92 77 -159t203 -67q154 0 263.5 99.5t144.5 269.5z
M813 0l45 211q-29 -62 -84 -117q-118 -114 -297 -114q-143 0 -227 78.5t-84 185.5q0 232 319 284l457 76q37 146 -44 252.5t-230 106.5q-107 0 -209 -62q-50 -29 -80 -59l-25 32q46 42 86 64q110 66 230 66q110 0 190.5 -54t112.5 -146.5t8 -201.5l-127 -602h-41z" />
    <glyph glyph-name="uni04D6" unicode="&#x4d6;" horiz-adv-x="1280" 
d="M811 1884h39q-2 -2 -2 -10v-21q0 -79 53.5 -126.5t145.5 -47.5q94 0 151 59.5t70 145.5h41q-18 -115 -94 -180.5t-179 -65.5t-165 59.5t-62 153.5v21q0 8 2 12zM246 0l303 1434h932l-8 -41h-891l-133 -625h727l-9 -41h-727l-145 -686h911l-8 -41h-952z" />
    <glyph glyph-name="uni04D7" unicode="&#x4d7;" horiz-adv-x="1136" 
d="M567 1413h39q-2 -2 -2 -10v-21q0 -79 53.5 -126.5t145.5 -47.5q94 0 151 59.5t70 145.5h41q-18 -115 -93.5 -180.5t-178.5 -65.5t-165.5 60t-62.5 153v21q0 8 2 12zM969 168l30 -25q-42 -45 -100 -82q-130 -81 -272 -81q-176 0 -294 125.5t-118 322.5q0 127 45 237
t119 183t167 114.5t189 41.5q176 0 290 -118t114 -306q0 -24 -4 -70l-5 -39h-872q-2 -4 -2 -14v-37q0 -168 106.5 -284t270.5 -116q138 0 246 74q47 31 90 74zM262 512h834q0 19 2 29q0 8 1 23t1 22q0 165 -103.5 271t-263.5 106q-110 0 -209 -51.5t-171 -156t-91 -243.5z
" />
    <glyph glyph-name="uni04D8" unicode="&#x4d8;" horiz-adv-x="1546" 
d="M252 717h1284l4 31q4 36 4 71q0 261 -161 427.5t-410 166.5q-189 0 -359 -106q-74 -45 -137 -105l-28 33q63 60 143 108q186 111 385 111q130 0 242 -47.5t191.5 -131.5t125 -204t45.5 -260q0 -182 -66.5 -340.5t-174 -264t-243 -166t-274.5 -60.5q-162 0 -294.5 79.5
t-208.5 222t-76 320.5q0 32 4 78zM1532 676h-1245q-2 -8 -2 -23v-51q0 -257 152.5 -419.5t393.5 -162.5q115 0 228.5 45.5t209.5 128t166.5 208t96.5 274.5z" />
    <glyph glyph-name="uni04D9" unicode="&#x4d9;" horiz-adv-x="1136" 
d="M211 512h870v55q0 166 -106 281t-270 115q-136 0 -244 -74q-47 -31 -90 -74l-29 25q44 44 100 82q126 82 269 82q177 0 294 -126t117 -325q0 -126 -44 -235.5t-116.5 -182t-166 -114t-191.5 -41.5q-179 0 -290 115t-111 308q0 24 4 70zM1077 471h-831l-4 -22
q-2 -14 -2 -48q0 -165 104.5 -273t263.5 -108q120 0 221.5 62t164.5 163.5t83 225.5z" />
    <glyph glyph-name="uni04DA" unicode="&#x4da;" horiz-adv-x="1546" 
d="M934 1720q-17 0 -27 11t-10 28t14 30t33 13q17 0 27 -11t10 -28t-14 -30t-33 -13zM1262 1720q-17 0 -27 11t-10 28t14 30t33 13q17 0 27 -11t10 -28t-14 -30t-33 -13zM252 717h1284l4 31q4 36 4 71q0 261 -161 427.5t-410 166.5q-189 0 -359 -106q-74 -45 -137 -105
l-28 33q63 60 143 108q186 111 385 111q130 0 242 -47.5t191.5 -131.5t125 -204t45.5 -260q0 -182 -66.5 -340.5t-174 -264t-243 -166t-274.5 -60.5q-162 0 -294.5 79.5t-208.5 222t-76 320.5q0 32 4 78zM1532 676h-1245q-2 -8 -2 -23v-51q0 -257 152.5 -419.5t393.5 -162.5
q115 0 228.5 45.5t209.5 128t166.5 208t96.5 274.5z" />
    <glyph glyph-name="uni04DB" unicode="&#x4db;" horiz-adv-x="1136" 
d="M647 1249q-17 0 -27 11t-10 28t14 30t33 13q17 0 27 -11t10 -28t-14 -30t-33 -13zM975 1249q-17 0 -27 11t-10 28t14 30t33 13q17 0 27 -11t10 -28t-14 -30t-33 -13zM211 512h870v55q0 166 -106 281t-270 115q-136 0 -244 -74q-47 -31 -90 -74l-29 25q44 44 100 82
q126 82 269 82q177 0 294 -126t117 -325q0 -126 -44 -235.5t-116.5 -182t-166 -114t-191.5 -41.5q-179 0 -290 115t-111 308q0 24 4 70zM1077 471h-831l-4 -22q-2 -14 -2 -48q0 -165 104.5 -273t263.5 -108q120 0 221.5 62t164.5 163.5t83 225.5z" />
    <glyph glyph-name="uni04DC" unicode="&#x4dc;" horiz-adv-x="1873" 
d="M41 0l770 829l-416 605h49l588 -856l182 856h41l-180 -848l942 848h58l-670 -605l418 -829h-45l-406 803l-309 -281l-111 -522h-41l111 522l-188 273l-736 -795h-57zM1118 1720q-17 0 -27 11t-10 28t14 30t33 13q17 0 27 -11t10 -28t-14 -30t-33 -13zM1446 1720
q-17 0 -27 11t-10 28t14 30t33 13q17 0 27 -11t10 -28t-14 -30t-33 -13z" />
    <glyph glyph-name="uni04DD" unicode="&#x4dd;" horiz-adv-x="1443" 
d="M41 0l545 584l-275 399h49l416 -600l129 600h41l-127 -592l662 592h59l-446 -399l299 -584h-47l-285 555l-254 -227l-70 -328h-41l70 328l-156 221l-512 -549h-57zM801 1249q-17 0 -27 11t-10 28t14 30t33 13q17 0 27 -11t10 -28t-14 -30t-33 -13zM1128 1249
q-17 0 -26.5 10.5t-9.5 28.5q0 17 14 30t33 13q17 0 27 -11t10 -28t-14.5 -30t-33.5 -13z" />
    <glyph glyph-name="uni04DE" unicode="&#x4de;" horiz-adv-x="1116" 
d="M121 229l39 29q2 -5 6 -13.5t20 -33t36 -47t55 -50t75.5 -47t99.5 -33.5t126 -14q188 0 313 110.5t125 268.5q0 144 -105.5 241t-255.5 97h-149l8 41h205q182 0 293.5 95t111.5 243q0 122 -100 209.5t-272 87.5q-126 0 -250 -61q-51 -26 -96 -62l-25 33q55 44 102 66
q130 65 271 65q95 0 174 -28.5t130 -75.5t79 -106t28 -122q0 -88 -31 -157t-85 -112t-115.5 -68.5t-132.5 -36.5q73 -25 127 -70q129 -104 129 -272q0 -182 -141.5 -304t-346.5 -122q-56 0 -107 8.5t-90 23t-73.5 33t-59 39.5t-45 41.5t-34 39t-22 33t-12.5 22.5zM698 1720
q-17 0 -26.5 10.5t-9.5 28.5q0 17 14 30t33 13q17 0 26.5 -10.5t9.5 -28.5q0 -17 -14 -30t-33 -13zM1026 1720q-17 0 -27 11t-10 28t14 30t33 13q17 0 27 -11t10 -28t-14 -30t-33 -13z" />
    <glyph glyph-name="uni04DF" unicode="&#x4df;" horiz-adv-x="860" 
d="M111 178l34 23q0 -2 10 -19.5t34.5 -45.5t58.5 -54t90 -44.5t121 -17.5q131 0 215 72t84 174q0 92 -76 159t-190 67h-80l8 40h123q124 0 201 66t77 156q0 86 -69 147.5t-183 61.5q-96 0 -190 -50q-34 -18 -74 -49l-24 29q46 37 81 55q106 56 211 56q129 0 209 -73
t80 -177q0 -140 -125 -209q-57 -33 -123 -41q59 -20 95 -51q94 -78 94 -183q0 -119 -100.5 -204.5t-249.5 -85.5q-157 0 -267 98q-51 47 -75 100zM504 1249q-17 0 -27 11t-10 28t14 30t33 13q17 0 27 -11t10 -28t-14 -30t-33 -13zM831 1249q-17 0 -26.5 10.5t-9.5 28.5
q0 17 14 30t33 13q17 0 27 -11t10 -28t-14.5 -30t-33.5 -13z" />
    <glyph glyph-name="uni04E0" unicode="&#x4e0;" horiz-adv-x="1095" 
d="M131 229l39 29q31 -67 86 -119q127 -119 332 -119q191 0 316.5 117t125.5 297q0 152 -110.5 248t-278.5 96h-164l10 41l670 574h-713l9 41h768l-9 -41l-669 -574h98q190 0 310 -109t120 -276q0 -192 -141 -323t-350 -131q-56 0 -107 8.5t-90 23t-73.5 33t-59.5 39.5
t-45.5 41.5t-34 39t-22 33t-12.5 22.5z" />
    <glyph glyph-name="uni04E1" unicode="&#x4e1;" horiz-adv-x="962" 
d="M-8 -193l37 27q34 -64 86 -113q126 -110 309 -110q178 0 296 110.5t118 278.5q0 149 -104 238.5t-257 89.5h-145l8 41l618 573h-661l10 41h717l-10 -41l-619 -573h82q173 0 287.5 -101.5t114.5 -269.5q0 -183 -133.5 -305.5t-327.5 -122.5q-201 0 -334 119
q-56 50 -92 118z" />
    <glyph glyph-name="uni04E2" unicode="&#x4e2;" horiz-adv-x="1587" 
d="M246 0l303 1434h41l-287 -1348l1311 1348h31l-304 -1434h-41l287 1348l-1311 -1348h-30zM879 1741l8 41h512l-8 -41h-512z" />
    <glyph glyph-name="uni04E3" unicode="&#x4e3;" 
d="M195 0l208 983h41l-190 -901l917 901h31l-209 -983h-41l191 901l-918 -901h-30zM602 1290l8 41h512l-8 -41h-512z" />
    <glyph glyph-name="uni04E4" unicode="&#x4e4;" horiz-adv-x="1587" 
d="M246 0l303 1434h41l-287 -1348l1311 1348h31l-304 -1434h-41l287 1348l-1311 -1348h-30zM965 1720q-17 0 -27 11t-10 28t14 30t33 13q17 0 27 -11t10 -28t-14 -30t-33 -13zM1292 1720q-17 0 -27 11t-10 28t14.5 30t33.5 13q17 0 26.5 -10.5t9.5 -28.5q0 -17 -14 -30
t-33 -13z" />
    <glyph glyph-name="uni04E5" unicode="&#x4e5;" 
d="M195 0l208 983h41l-190 -901l917 901h31l-209 -983h-41l191 901l-918 -901h-30zM678 1249q-17 0 -27 11t-10 28t14 30t33 13q17 0 27 -11t10 -28t-14 -30t-33 -13zM1006 1249q-17 0 -27 11t-10 28t14 30t33 13q17 0 27 -11t10 -28t-14 -30t-33 -13z" />
    <glyph glyph-name="uni04E6" unicode="&#x4e6;" horiz-adv-x="1679" 
d="M985 1720q-17 0 -27 11t-10 28t14 30t33 13q17 0 27 -11t10 -28t-14 -30t-33 -13zM1313 1720q-17 0 -27 11t-10 28t14 30t33 13q17 0 27 -11t10 -28t-14 -30t-33 -13zM1051 1413q-143 0 -281 -57.5t-244.5 -156t-171.5 -241t-65 -301.5q0 -178 78.5 -323t221.5 -229.5
t322 -84.5q143 0 281 57.5t244.5 156t171.5 241t65 301.5q0 178 -78.5 323t-221.5 229.5t-322 84.5zM905 -20q-193 0 -344 91t-232 244t-81 338q0 134 44 259t122 222t179.5 170t221.5 111.5t242 38.5q145 0 269 -53.5t208.5 -144.5t132 -214.5t47.5 -261.5
q0 -167 -68.5 -317.5t-181 -255t-259.5 -166t-300 -61.5z" />
    <glyph glyph-name="uni04E7" unicode="&#x4e7;" 
d="M668 1249q-17 0 -27 11t-10 28t14 30t33 13q17 0 27 -11t10 -28t-14 -30t-33 -13zM995 1249q-17 0 -27 11t-10 28t14.5 30t33.5 13q17 0 26.5 -10.5t9.5 -28.5q0 -17 -14 -30t-33 -13zM637 -20q-184 0 -303 128t-119 326q0 124 46.5 232t122 181t172.5 115t198 42
q184 0 303 -128.5t119 -326.5q0 -164 -79 -296.5t-201.5 -202.5t-258.5 -70zM748 963q-93 0 -181.5 -38.5t-157.5 -106t-111 -168t-42 -216.5q0 -183 108.5 -298.5t278.5 -115.5q93 0 181.5 38.5t157.5 106t111 168t42 216.5q0 183 -108.5 298.5t-278.5 115.5z" />
    <glyph glyph-name="uni04E8" unicode="&#x4e8;" horiz-adv-x="1679" 
d="M905 -20q-193 0 -344 91t-232 244t-81 338q0 134 44 259t122 222t179.5 170t221.5 111.5t242 38.5q145 0 269 -53.5t208.5 -144.5t132 -214.5t47.5 -261.5q0 -167 -68.5 -317.5t-181 -255t-259.5 -166t-300 -61.5zM293 737h1380v39q0 178 -78.5 323t-221.5 229.5
t-322 84.5q-135 0 -265 -50.5t-233.5 -138.5t-173.5 -215.5t-86 -271.5zM289 696v-39q0 -178 78.5 -323t221.5 -229.5t322 -84.5q180 0 345.5 85.5t278.5 242t134 348.5h-1380z" />
    </font>
</defs>
</svg>
