<?xml version="1.0" standalone="no"?>
<!DOCTYPE svg PUBLIC "-//W3C//DTD SVG 1.1//EN" "http://www.w3.org/Graphics/SVG/1.1/DTD/svg11.dtd" >
<svg xmlns="http://www.w3.org/2000/svg" xmlns:xlink="http://www.w3.org/1999/xlink" version="1.1">
<metadata>
Created by FontForge 20170731 at Tue Dec  1 20:24:50 2020
 By Aleksey,,,
Copyright (c) 2016-2019 by TypeType. Designers Ivan Gladkikh, Pavel Emelyanov. Technical designers Vika Usmanova, Olexa Volochay, Nadyr Rakhimov. All rights reserved. |DCNT
</metadata>
<defs>
<font id="TTNormsPro-ExtraBoldItalic" horiz-adv-x="1249" >
  <font-face 
    font-family="TT Norms Pro ExtraBold"
    font-weight="800"
    font-style="italic"
    font-stretch="normal"
    units-per-em="2048"
    panose-1="2 0 5 3 4 0 0 9 0 4"
    ascent="1434"
    descent="-614"
    x-height="1004"
    cap-height="1434"
    bbox="-924 -532 3078 2068"
    underline-thickness="102"
    underline-position="-307"
    slope="-12"
    unicode-range="U+000D-FB06"
  />
<missing-glyph horiz-adv-x="0" 
 />
    <glyph glyph-name="f_f" unicode="ff" horiz-adv-x="1505" 
d="M195 0l133 635h-133l69 328h133l23 108q35 168 138.5 260t248.5 92q67 0 170 -22q22 -5 74 -23l-68 -313l-29 14q-38 17 -84 17q-91 0 -118 -111l-7 -22h338l35 159q35 168 138.5 260.5t248.5 92.5q62 0 170 -23q30 -7 74 -22l-68 -314l-28 14q-38 17 -84 17
q-92 0 -119 -111l-18 -73h215l-70 -328h-215l-133 -635h-348l133 635h-338l-133 -635h-348z" />
    <glyph glyph-name="uniFB01" unicode="fi" horiz-adv-x="1361" 
d="M195 0l133 635h-133l69 328h133l35 159q35 168 138.5 260.5t248.5 92.5q62 0 170 -23q30 -7 74 -22l-68 -314l-28 14q-38 17 -84 17q-92 0 -119 -111l-19 -73h687l-203 -963h-348l133 635h-338l-133 -635h-348zM1130 1274q0 83 63.5 142t154.5 59q77 0 126.5 -47.5
t49.5 -120.5q0 -83 -63 -142t-154 -59q-77 0 -127 48t-50 120z" />
    <glyph glyph-name="f_f_i" unicode="ffi" horiz-adv-x="2048" 
d="M195 0l133 635h-133l69 328h133l23 108q35 168 138.5 260t248.5 92q67 0 170 -22q22 -5 74 -23l-68 -313l-29 14q-38 17 -84 17q-91 0 -118 -111l-7 -22h338l35 159q35 168 138.5 260.5t248.5 92.5q62 0 170 -23q30 -7 74 -22l-68 -314l-28 14q-38 17 -84 17
q-92 0 -119 -111l-18 -73h686l-203 -963h-348l133 635h-338l-133 -635h-348l133 635h-338l-133 -635h-348zM1817 1274q0 83 63 142t154 59q77 0 126.5 -47.5t49.5 -120.5q0 -83 -63 -142t-154 -59q-77 0 -126.5 47.5t-49.5 120.5z" />
    <glyph glyph-name=".notdef" horiz-adv-x="0" 
 />
    <glyph glyph-name=".null" horiz-adv-x="0" 
 />
    <glyph glyph-name="nonmarkingreturn" horiz-adv-x="682" 
 />
    <glyph glyph-name="NULL" horiz-adv-x="0" 
 />
    <glyph glyph-name="NULL" horiz-adv-x="0" 
 />
    <glyph glyph-name="CR" unicode="&#xd;" horiz-adv-x="0" 
 />
    <glyph glyph-name="space" unicode=" " horiz-adv-x="450" 
 />
    <glyph glyph-name="exclam" unicode="!" horiz-adv-x="716" 
d="M317 440l140 994h409l-282 -994h-267zM197 147q0 83 63 142t154 59q77 0 126.5 -47.5t49.5 -120.5q0 -83 -63 -141.5t-154 -58.5q-78 0 -127 47.5t-49 119.5z" />
    <glyph glyph-name="quotedbl" unicode="&#x22;" horiz-adv-x="983" 
d="M307 922l109 512h307l-109 -512h-307zM737 922l109 512h307l-109 -512h-307z" />
    <glyph glyph-name="numbersign" unicode="#" horiz-adv-x="1536" 
d="M195 0l145 348h-246l103 246h245l105 246h-236l103 245h235l146 349h307l-146 -349h236l145 349h308l-146 -349h246l-103 -245h-245l-105 -246h236l-103 -246h-235l-146 -348h-307l146 348h-236l-145 -348h-307zM750 594h235l105 246h-236z" />
    <glyph glyph-name="dollar" unicode="$" 
d="M436 -205l39 193q-160 43 -278 153q-52 49 -86 101l266 231q35 -53 78 -88q95 -88 231 -88q81 0 127.5 36.5t46.5 86.5q0 33 -30.5 63.5t-79.5 57t-107.5 56t-117.5 67t-108 83t-79.5 112t-30.5 145.5q0 83 35 162t97 142t154 106.5t200 55.5l36 168h328l-45 -200
q124 -40 209 -117q36 -33 61 -72l-266 -233q-19 30 -55 59q-78 62 -178 62q-68 0 -110 -32t-42 -73q0 -34 30.5 -64.5t79 -56.5t107 -55t117.5 -66.5t107.5 -82t79 -111t30.5 -145.5q0 -186 -129.5 -321.5t-353.5 -164.5l-35 -170h-328z" />
    <glyph glyph-name="percent" unicode="%" horiz-adv-x="1781" 
d="M532 1104q0 -50 30 -80.5t81 -30.5q60 0 98.5 37.5t38.5 97.5q0 50 -30.5 80.5t-79.5 30.5q-60 0 -99 -37.5t-39 -97.5zM287 1090q0 149 121 261.5t284 112.5q141 0 237.5 -95t96.5 -226q0 -149 -121 -262t-284 -113q-142 0 -238 95.5t-96 226.5zM266 0l1204 1434h349
l-1205 -1434h-348zM1415 195q60 0 98.5 37.5t38.5 97.5q0 50 -29.5 80t-80.5 30q-60 0 -98.5 -37.5t-38.5 -97.5q0 -49 30.5 -79.5t79.5 -30.5zM1059 291q0 149 121 262t284 113q141 0 237.5 -95.5t96.5 -226.5q0 -149 -121 -262t-284 -113q-142 0 -238 95.5t-96 226.5z" />
    <glyph glyph-name="ampersand" unicode="&#x26;" horiz-adv-x="1372" 
d="M1417 283l-57 -297q-12 -7 -39 -15q-50 -12 -96 -12q-119 0 -195 72q-34 28 -57 71q-45 -42 -96 -71q-116 -72 -271 -72q-104 0 -190 32.5t-141 87t-85 123.5t-30 144q0 204 182 346q78 61 184 103q-34 43 -55 92q-53 108 -53 207q0 100 61 188.5t162 140.5t215 52
q167 0 275 -104t108 -245q0 -147 -143 -272q-64 -56 -144 -96l125 -195l31 47q38 73 47 117h311q-30 -143 -118 -281q-49 -71 -82 -106q10 -15 28 -33q35 -31 78 -31q19 0 31 3zM823 317l-151 244q-35 -17 -76 -49q-74 -59 -74 -131q0 -57 40.5 -96t105.5 -39q48 0 108 35
q29 18 47 36zM799 922q33 23 63 53q66 66 66 123q0 41 -25.5 65.5t-68.5 24.5q-46 0 -79.5 -31t-33.5 -80q0 -53 39 -106q10 -15 39 -49z" />
    <glyph glyph-name="quotesingle" unicode="'" horiz-adv-x="552" 
d="M307 922l109 512h307l-109 -512h-307z" />
    <glyph glyph-name="parenleft" unicode="(" horiz-adv-x="788" 
d="M715 -354l-291 -127q-50 81 -102 215q-103 277 -103 551q0 259 87.5 485t223.5 408q137 187 312 327l223 -180l-1 -1q-110 -97 -218 -249q-268 -376 -275 -784v-21q0 -239 72 -448q28 -94 72 -176z" />
    <glyph glyph-name="parenright" unicode=")" horiz-adv-x="788" 
d="M180 -481l-223 180l1 1q110 97 218 249q268 376 275 784v21q0 216 -72 448q-41 117 -72 176l291 127q50 -81 102 -215q103 -277 103 -551q0 -459 -311 -893q-137 -187 -312 -327z" />
    <glyph glyph-name="asterisk" unicode="*" horiz-adv-x="860" 
d="M307 860l133 154l-194 41l71 235l195 -82l-31 226h267l-31 -226l194 82l72 -235l-195 -41l134 -154l-185 -143l-123 194l-122 -194z" />
    <glyph glyph-name="plus" unicode="+" horiz-adv-x="1085" 
d="M205 440v318h317v317h307v-317h318v-318h-318v-317h-307v317h-317z" />
    <glyph glyph-name="comma" unicode="," horiz-adv-x="552" 
d="M-39 -143l326 481l243 -154l-380 -440z" />
    <glyph glyph-name="hyphen" unicode="-" horiz-adv-x="870" 
d="M199 461l63 297h666l-64 -297h-665z" />
    <glyph glyph-name="period" unicode="." horiz-adv-x="552" 
d="M125 147q0 83 63 142t154 59q77 0 126.5 -47.5t49.5 -120.5q0 -83 -63 -141.5t-154 -58.5q-78 0 -127 47.5t-49 119.5z" />
    <glyph glyph-name="slash" unicode="/" horiz-adv-x="972" 
d="M-90 -430l1012 1884h358l-1014 -1884h-356z" />
    <glyph glyph-name="zero" unicode="0" horiz-adv-x="1454" 
d="M811 317q55 0 111.5 32t106 92t81 162t31.5 228q0 139 -56.5 212t-140.5 73q-55 0 -111.5 -32t-106 -92t-81 -162t-31.5 -228q0 -139 56.5 -212t140.5 -73zM780 -41q-116 0 -218 46.5t-176.5 129t-117.5 201.5t-43 258q0 156 43 296.5t117.5 245.5t170 182.5t203.5 117
t216 39.5q116 0 218 -46.5t176.5 -129t117.5 -201.5t43 -258q0 -156 -43 -296.5t-117.5 -245.5t-170 -182.5t-203.5 -117t-216 -39.5z" />
    <glyph glyph-name="one" unicode="1" horiz-adv-x="849" 
d="M297 0l213 1004h-236l50 235q137 18 243 109q51 42 84 86h338l-303 -1434h-389z" />
    <glyph glyph-name="two" unicode="2" horiz-adv-x="1218" 
d="M662 369h532l-78 -369h-1065q18 125 59.5 229.5t95.5 178t119 133.5t132 101.5t133 76.5t123.5 64t102 58t70 64.5t25.5 77.5q0 55 -37.5 89t-99.5 34q-84 0 -145 -57q-31 -28 -51 -56l-302 168q54 87 136 156q178 158 417 158q224 0 363 -128t139 -313q0 -86 -31 -160
t-83 -127t-115.5 -97.5t-132 -80t-128.5 -66.5t-109 -65.5t-70 -68.5z" />
    <glyph glyph-name="three" unicode="3" horiz-adv-x="1208" 
d="M66 236l260 227q40 -51 77 -78q102 -78 222 -78q83 0 132.5 39.5t49.5 97.5q0 48 -49.5 88.5t-124.5 40.5h-133l67 318h176q71 0 112.5 36t41.5 97q0 49 -41.5 81t-116.5 32q-81 0 -161 -45q-38 -21 -66 -43l-184 262q49 41 129 82q168 82 352 82q119 0 217 -33.5
t160 -90t95.5 -127.5t33.5 -149q0 -183 -158 -282q-70 -43 -158 -64q61 -28 107 -74q108 -100 108 -243q0 -122 -68.5 -225t-198.5 -165.5t-296 -62.5q-261 0 -444 137q-79 59 -141 140z" />
    <glyph glyph-name="four" unicode="4" horiz-adv-x="1280" 
d="M98 225l84 400l776 809h431l-183 -861h154l-74 -348h-153l-48 -225h-389l47 225h-645zM535 573h282l80 379z" />
    <glyph glyph-name="five" unicode="5" horiz-adv-x="1269" 
d="M131 236l260 227q39 -49 78 -78q102 -78 217 -78q93 0 144 49.5t51 126.5q0 65 -52.5 108.5t-150.5 43.5q-49 0 -111 -23q-22 -10 -41 -22l-264 57l225 787h922l-74 -349h-563l-59 -184l43 14q57 17 116 17q189 0 303.5 -117t114.5 -303q0 -154 -77 -281t-210.5 -199.5
t-295.5 -72.5q-256 0 -439 137q-77 58 -137 140z" />
    <glyph glyph-name="six" unicode="6" horiz-adv-x="1290" 
d="M408 887l505 547h445l-426 -459q185 -32 296 -161t111 -304q0 -111 -47.5 -212.5t-129 -176t-196 -118.5t-241.5 -44q-122 0 -224.5 39.5t-170 106t-105 153.5t-37.5 182q0 161 109 320q45 64 111 127zM741 287q81 0 144 58.5t63 141.5q0 70 -47 119t-119 49
q-81 0 -144 -58.5t-63 -141.5q0 -70 47 -119t119 -49z" />
    <glyph glyph-name="seven" unicode="7" horiz-adv-x="1146" 
d="M92 0l742 1085h-553l73 349h1014l-65 -308l-771 -1126h-440z" />
    <glyph glyph-name="eight" unicode="8" horiz-adv-x="1290" 
d="M573 428q0 -62 42.5 -101.5t111.5 -39.5q73 0 123.5 48t50.5 122q0 62 -42.5 99.5t-110.5 37.5q-64 0 -119.5 -46t-55.5 -120zM725 1012q0 -49 36.5 -81t88.5 -32q58 0 100.5 38.5t42.5 94.5q0 48 -35 80.5t-88 32.5q-57 0 -101 -37.5t-44 -95.5zM504 801q-47 29 -78 63
q-76 84 -76 201q0 79 37.5 153t104 131t166.5 91.5t216 34.5q122 0 222.5 -34.5t164 -91t98 -127t34.5 -145.5q0 -171 -142 -272q-63 -46 -141 -70q55 -36 96 -80q99 -111 99 -237q0 -193 -160.5 -327t-411.5 -134q-139 0 -250.5 35.5t-180.5 96t-105.5 137t-36.5 163.5
q0 145 97.5 255.5t246.5 156.5z" />
    <glyph glyph-name="nine" unicode="9" horiz-adv-x="1290" 
d="M231 0l426 459q-185 32 -296 161t-111 304q0 111 47.5 212.5t129 176t196 118.5t241.5 44q122 0 224.5 -39.5t170 -106t105 -153.5t37.5 -183q0 -158 -111 -319q-45 -64 -108 -127l-506 -547h-445zM807 778q81 0 144 59t63 142q0 70 -47 119t-119 49q-81 0 -144 -59
t-63 -142q0 -70 47 -119t119 -49z" />
    <glyph glyph-name="colon" unicode=":" horiz-adv-x="552" 
d="M125 147q0 83 63 142t154 59q77 0 126.5 -47.5t49.5 -120.5q0 -83 -63 -141.5t-154 -58.5q-78 0 -127 47.5t-49 119.5zM268 823q0 83 63 142t154 59q77 0 127 -48t50 -120q0 -83 -63.5 -142t-154.5 -59q-77 0 -126.5 47.5t-49.5 120.5z" />
    <glyph glyph-name="semicolon" unicode=";" horiz-adv-x="583" 
d="M-39 -143l326 481l243 -154l-380 -440zM309 823q0 83 63 142t154 59q77 0 126.5 -47.5t49.5 -120.5q0 -83 -63 -142t-154 -59q-77 0 -126.5 47.5t-49.5 120.5z" />
    <glyph glyph-name="less" unicode="&#x3c;" horiz-adv-x="1075" 
d="M184 379v246l912 379v-308l-512 -194l512 -195v-307z" />
    <glyph glyph-name="equal" unicode="=" horiz-adv-x="1044" 
d="M205 246v286h880v-286h-880zM205 676v287h880v-287h-880z" />
    <glyph glyph-name="greater" unicode="&#x3e;" horiz-adv-x="1075" 
d="M246 0v307l512 195l-512 194v308l911 -379v-246z" />
    <glyph glyph-name="question" unicode="?" horiz-adv-x="1167" 
d="M780 440h-323l-4 21q-4 28 -4 51q0 64 23 116.5t60.5 87.5t82 64t89.5 52t82.5 46.5t60.5 54t23 66.5q0 45 -36 76t-97 31q-86 0 -147 -57q-26 -23 -49 -56l-301 160q62 93 137 160q73 70 177.5 116t229.5 46q116 0 214.5 -37t163.5 -97t101.5 -136t36.5 -156
q0 -76 -26 -138.5t-68.5 -105.5t-94.5 -79.5t-106 -67.5t-100.5 -61.5t-80.5 -70.5t-44 -86zM350 147q0 83 63 142t154 59q77 0 126.5 -47.5t49.5 -120.5q0 -83 -63 -141.5t-154 -58.5q-78 0 -127 47.5t-49 119.5z" />
    <glyph glyph-name="at" unicode="@" horiz-adv-x="1812" 
d="M1288 20l109 -204q-54 -33 -123 -58q-142 -55 -322 -55q-215 0 -388 102t-268 272.5t-95 373.5q0 177 76 339.5t201 278.5t290 185t338 69q166 0 309.5 -59t241 -158t152.5 -229t55 -271q0 -213 -115 -348t-305 -135q-128 0 -193 72q-33 33 -47 71h-10q-25 -42 -61 -71
q-79 -72 -201 -72q-128 0 -213.5 94.5t-85.5 233.5q0 93 33.5 175t87 136.5t120.5 86.5t134 32q87 0 143 -52q19 -19 37 -51h10l21 92h235l-90 -421q-2 -4 -2 -11v-14q0 -41 27.5 -68.5t64.5 -27.5q81 0 127.5 66t46.5 198q0 100 -39.5 191.5t-109 161t-172.5 110.5t-222 41
q-124 0 -242 -50.5t-208 -136t-144.5 -206.5t-54.5 -252q0 -103 39.5 -198t108 -167t168 -115t211.5 -43q121 0 233 45q54 21 92 47zM987 360q61 0 109.5 45.5t48.5 112.5q0 54 -33 90.5t-84 36.5q-61 0 -109.5 -45.5t-48.5 -112.5q0 -54 33 -90.5t84 -36.5z" />
    <glyph glyph-name="A" unicode="A" horiz-adv-x="1495" 
d="M786 625h267l-41 409h-8zM10 0l846 1434h430l240 -1434h-400l-39 307h-471l-165 -307h-441z" />
    <glyph glyph-name="B" unicode="B" horiz-adv-x="1443" 
d="M164 0l303 1434h577q224 0 351 -102.5t127 -266.5q0 -169 -142 -266q-62 -47 -139 -68q64 -30 109 -69q108 -96 108 -252q0 -84 -36.5 -158.5t-101.5 -130.5t-163 -88.5t-215 -32.5h-778zM616 307h289q73 0 118.5 42t45.5 110q0 53 -40.5 94t-98.5 41h-252zM739 881h236
q62 0 99.5 38.5t37.5 96.5q0 45 -31.5 77.5t-83.5 32.5h-206z" />
    <glyph glyph-name="C" unicode="C" horiz-adv-x="1556" 
d="M1378 459l183 -277q-60 -57 -158 -112q-210 -111 -440 -111q-161 0 -300.5 58t-234.5 155.5t-149 228.5t-54 275q0 158 69.5 305.5t185.5 255.5t276.5 173t335.5 65q285 0 481 -160q87 -72 141 -158l-266 -246q-39 56 -92 103q-126 102 -291 102q-117 0 -218 -55.5
t-161.5 -155t-60.5 -219.5q0 -151 104 -260t264 -109q141 0 277 70q54 27 108 72z" />
    <glyph glyph-name="D" unicode="D" horiz-adv-x="1556" 
d="M164 0l303 1434h477q194 0 352.5 -86t248 -236.5t89.5 -333.5q0 -161 -64.5 -305t-175 -248t-264.5 -164.5t-325 -60.5h-641zM625 348h202q174 0 291 116.5t117 295.5q0 138 -83 231.5t-239 93.5h-131z" />
    <glyph glyph-name="E" unicode="E" horiz-adv-x="1361" 
d="M164 0l303 1434h1096l-74 -349h-707l-43 -204h543l-70 -328h-542l-43 -205h727l-74 -348h-1116z" />
    <glyph glyph-name="F" unicode="F" horiz-adv-x="1320" 
d="M164 0l303 1434h1085l-77 -369h-697l-51 -246h533l-76 -348h-533l-98 -471h-389z" />
    <glyph glyph-name="G" unicode="G" horiz-adv-x="1628" 
d="M1020 512l59 287h615l-129 -613q-59 -54 -160 -114q-206 -113 -442 -113q-161 0 -300.5 58t-234.5 155.5t-149 228.5t-54 275q0 158 69.5 305.5t185.5 255.5t276.5 173t335.5 65q285 0 481 -160q87 -72 141 -158l-266 -246q-39 56 -92 103q-126 102 -291 102
q-117 0 -218 -55.5t-161.5 -155t-60.5 -219.5q0 -151 104 -260t264 -109q93 0 166 25q37 9 66 25l30 145h-235z" />
    <glyph glyph-name="H" unicode="H" horiz-adv-x="1628" 
d="M164 0l303 1434h389l-111 -523h523l110 523h389l-303 -1434h-389l115 543h-522l-115 -543h-389z" />
    <glyph glyph-name="I" unicode="I" horiz-adv-x="716" 
d="M164 0l303 1434h389l-303 -1434h-389z" />
    <glyph glyph-name="J" unicode="J" horiz-adv-x="1095" 
d="M12 170l299 248q13 -29 35 -51q50 -50 121 -50q69 0 120 44t68 116l201 957h389l-211 -998q-45 -218 -199 -347.5t-374 -129.5q-228 0 -357 104q-54 43 -92 107z" />
    <glyph glyph-name="K" unicode="K" horiz-adv-x="1495" 
d="M164 0l303 1434h389l-117 -553l588 553h483l-669 -625l362 -809h-438l-236 520l-206 -188l-70 -332h-389z" />
    <glyph glyph-name="L" unicode="L" horiz-adv-x="1198" 
d="M164 0l303 1434h389l-225 -1065h624l-77 -369h-1014z" />
    <glyph glyph-name="M" unicode="M" horiz-adv-x="1904" 
d="M164 0l303 1434h317l324 -553l557 553h379l-303 -1434h-389l180 850l-506 -502l-293 502l-180 -850h-389z" />
    <glyph glyph-name="N" unicode="N" horiz-adv-x="1669" 
d="M164 0l303 1434h338l444 -809l170 809h389l-303 -1434h-338l-444 809l-170 -809h-389z" />
    <glyph glyph-name="O" unicode="O" horiz-adv-x="1761" 
d="M995 317q115 0 216 54.5t163 154.5t62 222q0 98 -46 182t-131 135t-192 51q-115 0 -215.5 -54t-162.5 -154t-62 -222q0 -152 104 -260.5t264 -108.5zM227 676q0 159 69 306t185.5 255t278 173t338.5 65q132 0 249.5 -37.5t205.5 -104.5t152 -157t97 -197t33 -221
q0 -159 -69 -306t-185 -255t-277.5 -173t-338.5 -65q-132 0 -249.5 37t-205.5 104t-152.5 156.5t-97.5 196.5t-33 223z" />
    <glyph glyph-name="P" unicode="P" horiz-adv-x="1454" 
d="M164 0l303 1434h610q205 0 337 -127t132 -328q0 -155 -77 -281.5t-207.5 -197t-286.5 -70.5h-332l-90 -430h-389zM717 778h260q74 0 127 48.5t53 115.5q0 58 -44 100.5t-109 42.5h-222z" />
    <glyph glyph-name="Q" unicode="Q" horiz-adv-x="1761" 
d="M1702 -31l-70 -325l-24 -6q-25 -7 -62 -7q-185 0 -336.5 87t-224.5 241h-20q-132 0 -249.5 37t-205.5 104t-152.5 156.5t-97.5 196.5t-33 223q0 159 69 306t185.5 255t278 173t338.5 65q132 0 249.5 -37.5t205.5 -104.5t152 -157t97 -197t33 -221q0 -225 -129.5 -416
t-353.5 -299q84 -84 245 -84q40 0 76 4zM995 317q115 0 216 54.5t163 154.5t62 222q0 98 -46 182t-131 135t-192 51q-115 0 -215.5 -54t-162.5 -154t-62 -222q0 -152 104 -260.5t264 -108.5z" />
    <glyph glyph-name="R" unicode="R" horiz-adv-x="1464" 
d="M164 0l303 1434h639q112 0 201.5 -35.5t146 -98t86 -143.5t29.5 -174q0 -237 -170 -383q-73 -64 -168 -94l176 -506h-406l-139 451h-215l-94 -451h-389zM721 799h291q72 0 119 44t47 113q0 57 -36.5 93t-105.5 36h-254z" />
    <glyph glyph-name="S" unicode="S" 
d="M111 242l266 231q35 -53 78 -88q95 -88 231 -88q81 0 127.5 36.5t46.5 86.5q0 33 -30.5 63.5t-79.5 57t-107.5 56t-117.5 67t-108 83t-79.5 112t-30.5 145.5q0 92 41.5 177.5t113.5 150.5t178.5 104t229.5 39q234 0 398 -113q65 -49 114 -113l-266 -233q-19 30 -55 59
q-78 62 -178 62q-68 0 -110 -32t-42 -73q0 -34 30.5 -64.5t79 -56.5t107 -55t117.5 -66.5t107.5 -82t79 -111t30.5 -145.5q0 -101 -40.5 -190t-114 -156.5t-185 -106.5t-246.5 -39q-262 0 -450 141q-81 61 -135 142z" />
    <glyph glyph-name="T" unicode="T" horiz-adv-x="1269" 
d="M420 0l229 1085h-399l74 349h1187l-73 -349h-400l-229 -1085h-389z" />
    <glyph glyph-name="U" unicode="U" horiz-adv-x="1617" 
d="M295 664l162 770h389l-172 -811q-1 -4 -3 -12.5t-3.5 -20.5t-1.5 -29q0 -107 67 -175.5t176 -68.5q105 0 182.5 67.5t102.5 182.5l184 867h389l-192 -908q-54 -255 -241.5 -411t-444.5 -156q-187 0 -327.5 74t-213 201t-72.5 288q0 49 19 142z" />
    <glyph glyph-name="V" unicode="V" horiz-adv-x="1454" 
d="M492 0l-209 1434h399l90 -1004h8l516 1004h441l-815 -1434h-430z" />
    <glyph glyph-name="W" unicode="W" horiz-adv-x="2170" 
d="M451 0l-168 1434h399l47 -840h10l435 840h348l77 -840h11l403 840h441l-775 -1434h-358l-80 860h-8l-445 -860h-337z" />
    <glyph glyph-name="X" unicode="X" horiz-adv-x="1392" 
d="M-20 0l618 748l-274 686h407l152 -430h8l332 430h452l-565 -686l303 -748h-407l-179 492h-8l-387 -492h-452z" />
    <glyph glyph-name="Y" unicode="Y" horiz-adv-x="1372" 
d="M471 0l109 512l-318 922h400l153 -564h8l391 564h461l-706 -922l-109 -512h-389z" />
    <glyph glyph-name="Z" unicode="Z" horiz-adv-x="1351" 
d="M82 0l78 369l749 696h-571l78 369h1116l-78 -369l-749 -696h622l-78 -369h-1167z" />
    <glyph glyph-name="bracketleft" unicode="[" horiz-adv-x="808" 
d="M72 -430l399 1884h563l-63 -307h-215l-271 -1270h215l-65 -307h-563z" />
    <glyph glyph-name="backslash" unicode="\" horiz-adv-x="952" 
d="M522 -430l-215 1884h338l215 -1884h-338z" />
    <glyph glyph-name="bracketright" unicode="]" horiz-adv-x="808" 
d="M-8 -430l63 307h215l271 1270h-215l63 307h563l-399 -1884h-561z" />
    <glyph glyph-name="asciicircum" unicode="^" horiz-adv-x="921" 
d="M215 809l277 625h266l276 -625h-286l-123 297l-123 -297h-287z" />
    <glyph glyph-name="underscore" unicode="_" horiz-adv-x="716" 
d="M-84 -492l68 318h755l-67 -318h-756z" />
    <glyph glyph-name="grave" unicode="`" horiz-adv-x="665" 
d="M545 1126l-176 328h368l105 -328h-297z" />
    <glyph glyph-name="a" unicode="a" horiz-adv-x="1105" 
d="M655 0l25 123h-10q-30 -46 -66 -72q-86 -71 -205 -71q-125 0 -204.5 80.5t-79.5 189.5q0 270 366 342l314 63q-24 111 -160 111q-77 0 -139 -41q-29 -17 -56 -41l-145 190q48 39 113 74q140 76 288 76q197 0 318 -107t121 -268q0 -19 -2 -35t-5.5 -29t-3.5 -16l-120 -569
h-349zM741 406l9 45l-160 -33q-103 -23 -103 -101q0 -33 21.5 -52t62.5 -19q66 0 112 44t58 116z" />
    <glyph glyph-name="b" unicode="b" horiz-adv-x="1300" 
d="M133 0l305 1434h348l-116 -564h10q31 42 74 76q98 78 221 78q154 0 260 -120t106 -320q0 -130 -44.5 -244.5t-117.5 -192.5t-167 -122.5t-191 -44.5q-149 0 -235 98q-39 45 -56 98h-12l-37 -176h-348zM758 297q89 0 157 66.5t68 160.5q0 76 -48 129.5t-124 53.5
q-89 0 -157 -67t-68 -161q0 -76 48 -129t124 -53z" />
    <glyph glyph-name="c" unicode="c" horiz-adv-x="1095" 
d="M938 377l158 -238q-42 -44 -105 -80q-139 -79 -305 -79q-151 0 -269.5 68.5t-180.5 179.5t-62 243q0 112 45.5 214t124 176.5t189.5 118.5t235 44q199 0 344 -111q59 -48 98 -108l-243 -203q-20 30 -47 51q-66 54 -162 54q-93 0 -159.5 -67.5t-66.5 -158.5q0 -80 56 -133
t147 -53q86 0 148 41q26 16 55 41z" />
    <glyph glyph-name="d" unicode="d" horiz-adv-x="1300" 
d="M817 0l27 133h-10q-29 -43 -74 -78q-94 -75 -221 -75q-154 0 -260.5 120t-106.5 320q0 130 44.5 244.5t117.5 192.5t167 122.5t191 44.5q150 0 236 -98q37 -43 55 -99h12l125 607h348l-303 -1434h-348zM702 297q89 0 157.5 66.5t68.5 160.5q0 76 -48 129.5t-124 53.5
q-89 0 -157.5 -67t-68.5 -161q0 -76 48 -129t124 -53z" />
    <glyph glyph-name="e" unicode="e" horiz-adv-x="1187" 
d="M969 322l86 -244q-53 -31 -101 -49q-123 -49 -268 -49q-114 0 -211 39t-162.5 106t-102 156.5t-36.5 189.5q0 112 45.5 214t124 176.5t189.5 118.5t235 44q136 0 243.5 -62.5t165.5 -167t58 -231.5q0 -85 -27 -164h-690q8 -55 70 -99t160 -44q79 0 159 33q36 16 62 33z
M545 614h356q-6 57 -50.5 95.5t-113.5 38.5q-64 0 -119.5 -37t-72.5 -97z" />
    <glyph glyph-name="f" unicode="f" horiz-adv-x="819" 
d="M195 0l133 635h-133l69 328h133l29 139q35 168 138.5 260t248.5 92q67 0 170 -22q22 -5 74 -23l-68 -313l-28 14q-36 16 -84 16q-92 0 -119 -110l-13 -53h216l-70 -328h-215l-133 -635h-348z" />
    <glyph glyph-name="g" unicode="g" horiz-adv-x="1269" 
d="M539 514q0 -70 48.5 -118t121.5 -48q77 0 138.5 59t61.5 140q0 69 -47 119.5t-119 50.5q-79 0 -141.5 -61t-62.5 -142zM66 -197l235 211q21 -40 57 -69q76 -68 195 -68q97 0 169.5 57t92.5 150l21 92h-13q-36 -42 -73 -67q-95 -68 -211 -68q-146 0 -252.5 116.5
t-106.5 301.5q0 125 43 233t113 179.5t158 112t178 40.5q149 0 235 -98q38 -44 56 -99h12l37 177h348l-203 -957q-44 -212 -219.5 -344.5t-405.5 -132.5q-213 0 -360 117q-68 55 -106 116z" />
    <glyph glyph-name="h" unicode="h" 
d="M133 0l303 1434h348l-116 -564h10q29 40 72 76q94 78 211 78q141 0 227 -88t86 -240q0 -49 -17 -129l-120 -567h-349l111 518q4 20 4 45q0 57 -33.5 95t-93.5 38q-64 0 -114.5 -44.5t-67.5 -121.5l-113 -530h-348z" />
    <glyph glyph-name="i" unicode="i" horiz-adv-x="614" 
d="M133 0l213 1004h348l-213 -1004h-348zM383 1274q0 83 63 142t154 59q77 0 126.5 -47.5t49.5 -120.5q0 -83 -63 -142t-154 -59q-77 0 -126.5 47.5t-49.5 120.5z" />
    <glyph glyph-name="j" unicode="j" horiz-adv-x="614" 
d="M-162 -377l64 307q6 -3 18 -8.5t17 -7.5q46 -16 77 -16q98 0 121 110l211 996h348l-227 -1082q-35 -168 -139 -260t-248 -92q-87 0 -170 27q-27 7 -72 26zM383 1274q0 83 63 142t154 59q77 0 126.5 -47.5t49.5 -120.5q0 -83 -63 -142t-154 -59q-77 0 -126.5 47.5
t-49.5 120.5z" />
    <glyph glyph-name="k" unicode="k" horiz-adv-x="1187" 
d="M133 0l303 1434h348l-161 -768l368 338h443l-502 -451l252 -553h-375l-150 348l-133 -131l-45 -217h-348z" />
    <glyph glyph-name="l" unicode="l" horiz-adv-x="614" 
d="M133 0l303 1434h348l-303 -1434h-348z" />
    <glyph glyph-name="m" unicode="m" horiz-adv-x="1812" 
d="M123 0l213 1004h348l-27 -134h11q29 44 67 76q94 78 197 78q118 0 196 -82q36 -39 50 -82h10q32 44 86 82q114 82 254 82q133 0 218 -91.5t85 -252.5q0 -53 -14 -121l-117 -559h-348l112 530q6 30 6 50q0 58 -29.5 87t-78.5 29q-59 0 -103 -40.5t-61 -116.5l-113 -539
h-348l113 530q6 42 6 45q0 59 -29.5 90t-81.5 31q-58 0 -100 -41t-59 -118l-115 -537h-348z" />
    <glyph glyph-name="n" unicode="n" horiz-adv-x="1239" 
d="M123 0l213 1004h348l-27 -134h11q31 42 71 76q94 78 211 78q141 0 227.5 -88t86.5 -240q0 -49 -17 -129l-121 -567h-348l111 518q4 20 4 45q0 57 -33.5 95t-93.5 38q-64 0 -114.5 -44.5t-67.5 -121.5l-113 -530h-348z" />
    <glyph glyph-name="o" unicode="o" 
d="M707 297q90 0 152.5 65.5t62.5 159.5q0 76 -50.5 130.5t-123.5 54.5q-90 0 -153 -66t-63 -160q0 -76 51 -130t124 -54zM174 471q0 112 45.5 214t124 176.5t189.5 118.5t235 44q114 0 211 -39t162.5 -106t102 -157t36.5 -190q0 -112 -45.5 -214t-124 -176t-189.5 -118
t-235 -44q-114 0 -211 39t-162.5 106t-102 156.5t-36.5 189.5z" />
    <glyph glyph-name="p" unicode="p" horiz-adv-x="1290" 
d="M33 -430l303 1434h348l-27 -134h11q33 44 73 76q98 78 222 78q154 0 260 -120t106 -320q0 -130 -44.5 -244.5t-117.5 -192.5t-167 -122.5t-191 -44.5q-150 0 -236 98q-37 43 -55 98h-12l-125 -606h-348zM745 297q89 0 157.5 66.5t68.5 160.5q0 76 -48 129.5t-124 53.5
q-89 0 -157.5 -67t-68.5 -161q0 -76 48 -129t124 -53z" />
    <glyph glyph-name="q" unicode="q" horiz-adv-x="1290" 
d="M727 -430l117 563h-10q-29 -43 -74 -78q-94 -75 -221 -75q-154 0 -260.5 120t-106.5 320q0 130 44.5 244.5t117.5 192.5t167 122.5t191 44.5q150 0 236 -98q37 -43 55 -99h12l37 177h348l-305 -1434h-348zM702 297q89 0 157.5 66.5t68.5 160.5q0 76 -48 129.5t-124 53.5
q-89 0 -157.5 -67t-68.5 -161q0 -76 48 -129t124 -53z" />
    <glyph glyph-name="r" unicode="r" horiz-adv-x="839" 
d="M123 0l213 1004h348l-22 -113q31 36 69 61q94 62 201 62h82l-84 -387q-17 10 -35 18q-48 21 -96 21q-89 0 -150 -54t-84 -163l-94 -449h-348z" />
    <glyph glyph-name="s" unicode="s" horiz-adv-x="952" 
d="M72 193l207 186q19 -32 53 -62q69 -61 160 -61q63 0 63 45q0 22 -35 47.5t-84.5 54.5t-99 66t-84.5 96t-35 131q0 138 110 233t308 95q170 0 317 -88q64 -40 109 -88l-211 -180q-13 19 -37 39q-45 41 -106 41q-68 0 -68 -46q0 -22 34.5 -48t83.5 -56t98 -67.5t83.5 -97
t34.5 -130.5q0 -65 -26 -122.5t-77 -102.5t-135 -71.5t-192 -26.5q-196 0 -350 106q-61 40 -121 107z" />
    <glyph glyph-name="t" unicode="t" horiz-adv-x="860" 
d="M281 408l53 247h-144l70 328h76q47 0 84 31t47 80l41 196h307l-63 -307h194l-69 -328h-195l-45 -213q-6 -24 -6 -34q0 -101 119 -101q34 0 55 6l22 6l-69 -325l-39 -8q-37 -6 -98 -6q-167 0 -261 83.5t-94 239.5q0 23 2 39.5t7 39t6 26.5z" />
    <glyph glyph-name="u" unicode="u" 
d="M215 436l121 568h348l-111 -519q-4 -20 -4 -45q0 -57 33.5 -95t93.5 -38q64 0 115 45t68 121l112 531h348l-213 -1004h-348l27 133h-10q-28 -40 -72 -78q-90 -75 -211 -75q-141 0 -227 87.5t-86 239.5q0 54 16 129z" />
    <glyph glyph-name="v" unicode="v" horiz-adv-x="1105" 
d="M369 0l-166 1004h358l45 -584h8l295 584h400l-592 -1004h-348z" />
    <glyph glyph-name="w" unicode="w" horiz-adv-x="1638" 
d="M338 0l-135 1004h348l33 -502h8l276 502h267l63 -502h8l246 502h389l-561 -1004h-287l-67 532h-8l-293 -532h-287z" />
    <glyph glyph-name="x" unicode="x" horiz-adv-x="1085" 
d="M-10 0l426 512l-193 492h357l86 -297h8l213 297h401l-401 -492l209 -512h-357l-104 317h-8l-236 -317h-401z" />
    <glyph glyph-name="y" unicode="y" horiz-adv-x="1105" 
d="M-4 -377l63 305l43 -16q44 -14 82 -14q105 0 154 82l27 45l-162 979h358l45 -584h8l295 584h400l-650 -1098q-105 -180 -203 -258t-229 -78q-85 0 -164 27q-29 7 -67 26z" />
    <glyph glyph-name="z" unicode="z" horiz-adv-x="1064" 
d="M82 0l70 328l456 348h-362l69 328h861l-70 -328l-457 -348h404l-70 -328h-901z" />
    <glyph glyph-name="braceleft" unicode="{" horiz-adv-x="860" 
d="M233 -57l58 270q0 4 2 8q0 3 1 11t1 14q0 47 -25.5 79.5t-70.5 32.5h-21l66 308h32q109 0 136 118l75 357q32 154 123 233.5t234 79.5h262l-64 -307h-94q-51 0 -88 -30t-47 -81l-72 -340q-22 -109 -127 -168q-46 -27 -102 -36q37 -16 70 -43q69 -61 69 -144q0 -15 -6 -57
l-49 -236q-4 -28 -4 -37q0 -38 32.5 -68t75.5 -30h72l-65 -307h-195q-138 0 -214.5 76t-76.5 202q0 41 12 95z" />
    <glyph glyph-name="bar" unicode="|" horiz-adv-x="839" 
d="M399 -430v1884h349v-1884h-349z" />
    <glyph glyph-name="braceright" unicode="}" horiz-adv-x="860" 
d="M2 -430l64 307h94q51 0 88 30t47 81l72 340q19 105 127 166q42 22 102 38q-38 14 -70 43q-69 61 -69 144q0 15 6 57l49 236q4 28 4 37q0 38 -32.5 68t-75.5 30h-72l65 307h195q138 0 214.5 -76t76.5 -202q0 -36 -13 -95l-57 -270q-2 -2 -2 -8q-2 -4 -2 -25
q0 -47 25.5 -79.5t70.5 -32.5h21l-66 -308h-33q-108 0 -135 -118l-75 -357q-32 -154 -123 -233.5t-234 -79.5h-262z" />
    <glyph glyph-name="asciitilde" unicode="~" horiz-adv-x="1167" 
d="M410 410l-246 184q23 58 65 113q96 112 242 112q62 0 117 -16t89 -35t80 -35t93 -16q62 0 115 45q29 29 39 47l245 -184q-23 -62 -65 -113q-93 -113 -242 -113q-62 0 -117 16t-89 35.5t-80 35.5t-93 16q-63 0 -114 -47q-29 -29 -39 -45z" />
    <glyph glyph-name="nbspace" unicode="&#xa0;" horiz-adv-x="450" 
 />
    <glyph glyph-name="exclamdown" unicode="&#xa1;" horiz-adv-x="716" 
d="M61 -430l283 993h266l-139 -993h-410zM340 823q0 83 63 142t154 59q77 0 126.5 -47.5t49.5 -120.5q0 -83 -63 -142t-154 -59q-77 0 -126.5 47.5t-49.5 120.5z" />
    <glyph glyph-name="cent" unicode="&#xa2;" horiz-adv-x="1095" 
d="M416 -205l49 228q-291 129 -291 448q0 206 142 360.5t360 186.5l41 190h317l-47 -223q104 -39 184 -123q32 -35 54 -74l-252 -206q-12 28 -45 61q-68 64 -160 64q-93 0 -164.5 -68t-71.5 -158q0 -80 55 -133t144 -53q84 0 146 41q30 18 55 43l164 -240q-31 -36 -78 -63
q-107 -68 -244 -88l-41 -193h-317z" />
    <glyph glyph-name="sterling" unicode="&#xa3;" horiz-adv-x="1187" 
d="M72 0l73 348q66 0 99.5 24.5t44.5 76.5l39 186h-123l31 143h122l58 256q48 206 186.5 323.5t339.5 117.5q144 0 265.5 -54.5t195.5 -171.5l-313 -241q-15 40 -56 69t-98 29q-60 0 -110 -42.5t-62 -105.5l-37 -180h307l-30 -143h-308l-39 -180q-13 -54 -43 -84
q-16 -16 -28 -23h614l-74 -348h-1054z" />
    <glyph glyph-name="currency" unicode="&#xa4;" horiz-adv-x="1064" 
d="M676 502q78 0 131 53t53 131t-53 131t-131 53t-131 -53t-53 -131t53 -131t131 -53zM236 379l122 123q-18 25 -26 49q-25 59 -25 135t25 135q8 24 26 49l-122 123l122 123l123 -123l56 31q77 31 139 31t139 -31l55 -31l123 123l123 -123l-123 -123q16 -23 25 -49
q26 -61 26 -135t-26 -135q-9 -26 -25 -49l123 -123l-123 -123l-123 123q-26 -19 -55 -31q-68 -31 -139 -31t-139 31q-31 13 -56 31l-123 -123z" />
    <glyph glyph-name="yen" unicode="&#xa5;" horiz-adv-x="1372" 
d="M238 205l28 133h277l20 102h-276l28 133h246l-299 861h400l153 -564h8l391 564h461l-663 -861h245l-28 -133h-277l-20 -102h276l-28 -133h-277l-43 -205h-389l43 205h-276z" />
    <glyph glyph-name="brokenbar" unicode="&#xa6;" horiz-adv-x="839" 
d="M399 -430v778h349v-778h-349zM399 676v778h349v-778h-349z" />
    <glyph glyph-name="section" unicode="&#xa7;" horiz-adv-x="1157" 
d="M117 -18l225 180q23 -41 51 -66q69 -65 150 -65q59 0 95 31.5t36 76.5q0 30 -31.5 61.5t-78.5 58.5t-102 65t-102 78.5t-78.5 101t-31.5 129.5q0 146 127 241q58 43 127 66q-28 25 -49 55q-49 69 -49 148q0 130 125 231t309 101t329 -103q64 -48 101 -102l-211 -180
q-26 33 -55 53q-71 55 -132 55q-51 0 -77.5 -23t-26.5 -55q0 -26 23.5 -52.5t61.5 -51t83.5 -51t91 -59.5t83.5 -71t61.5 -89.5t23.5 -110.5q0 -148 -129 -248q-56 -44 -127 -68q28 -28 47 -55q49 -69 49 -147q0 -144 -130.5 -253.5t-321.5 -109.5q-218 0 -365 113
q-67 54 -102 115zM786 471q22 3 37 18q37 33 37 97q0 67 -100 147q-58 43 -101 64q-27 -13 -50 -47t-23 -68q0 -71 100 -147q54 -43 100 -64z" />
    <glyph glyph-name="dieresis" unicode="&#xa8;" horiz-adv-x="942" 
d="M532 1485q66 0 111 -46t45 -114q0 -77 -57.5 -132.5t-136.5 -55.5q-66 0 -111 46t-45 113q0 77 57.5 133t136.5 56zM965 1137q-66 0 -111 46t-45 113q0 77 58 133t137 56q66 0 110.5 -46t44.5 -114q0 -77 -57.5 -132.5t-136.5 -55.5z" />
    <glyph glyph-name="copyright" unicode="&#xa9;" horiz-adv-x="1740" 
d="M451 717q0 -151 78.5 -283.5t211 -211.5t283.5 -79t283.5 79t211 211.5t78.5 283.5q0 113 -46.5 218.5t-124.5 183.5t-183.5 124.5t-218.5 46.5t-218.5 -46.5t-183.5 -124.5t-124.5 -183.5t-46.5 -218.5zM246 717q0 155 60 295t163 242t247.5 161.5t307.5 59.5
t307.5 -59.5t247.5 -161.5t163 -242t60 -295t-60 -295t-163 -242t-247.5 -161.5t-307.5 -59.5t-307.5 59.5t-247.5 161.5t-163 242t-60 295zM1239 604l133 -133q-34 -45 -82 -82q-110 -82 -256 -82q-167 0 -288 121.5t-121 288.5t121 288t288 121q146 0 256 -82
q50 -38 82 -81l-133 -134q-25 25 -49 41q-59 41 -135 41q-86 0 -140.5 -54t-54.5 -140t54.5 -140.5t140.5 -54.5q76 0 135 41q24 16 49 41z" />
    <glyph glyph-name="ordfeminine" unicode="&#xaa;" horiz-adv-x="778" 
d="M668 1024l8 41l-123 -23q-31 -5 -50.5 -23t-19.5 -46q0 -51 62 -51q42 0 79 30t44 72zM614 778l13 53q-20 -20 -49 -36q-64 -37 -134 -37q-96 0 -149 50t-53 130q0 87 60.5 146.5t168.5 76.5l225 37q-10 66 -112 66q-37 0 -92 -19q-18 -8 -35 -18l-107 135q37 26 74 45
q96 47 203 47q140 0 218.5 -68t78.5 -180q0 -40 -9 -80l-75 -348h-226z" />
    <glyph glyph-name="guillemotleft" unicode="&#xab;" horiz-adv-x="1239" 
d="M373 123l-187 369l344 368h357l-373 -399l170 -338h-311zM854 123l-186 369l344 368h356l-373 -399l170 -338h-311z" />
    <glyph glyph-name="logicalnot" unicode="&#xac;" horiz-adv-x="1013" 
d="M225 573v318h850v-553h-307v235h-543z" />
    <glyph glyph-name="uni00AD" unicode="&#xad;" horiz-adv-x="870" 
d="M199 461l63 297h666l-64 -297h-665z" />
    <glyph glyph-name="registered" unicode="&#xae;" horiz-adv-x="1740" 
d="M717 328v778h368q128 0 207.5 -73.5t79.5 -182.5q0 -95 -67 -166q-27 -30 -66 -49l164 -307h-256l-113 245h-82v-245h-235zM952 768h103q30 0 50.5 18.5t20.5 42.5t-20.5 43t-50.5 19h-103v-123zM451 717q0 -151 78.5 -283.5t211 -211.5t283.5 -79t283.5 79t211 211.5
t78.5 283.5q0 113 -46.5 218.5t-124.5 183.5t-183.5 124.5t-218.5 46.5t-218.5 -46.5t-183.5 -124.5t-124.5 -183.5t-46.5 -218.5zM246 717q0 155 60 295t163 242t247.5 161.5t307.5 59.5t307.5 -59.5t247.5 -161.5t163 -242t60 -295t-60 -295t-163 -242t-247.5 -161.5
t-307.5 -59.5t-307.5 59.5t-247.5 161.5t-163 242t-60 295z" />
    <glyph glyph-name="overscore" unicode="&#xaf;" horiz-adv-x="778" 
d="M322 1229l57 266h655l-57 -266h-655z" />
    <glyph glyph-name="degree" unicode="&#xb0;" horiz-adv-x="819" 
d="M492 1137q0 -47 32.5 -80t79.5 -33t80 33t33 80t-33 79.5t-80 32.5t-79.5 -32.5t-32.5 -79.5zM266 1137q0 131 97 224t241 93t241 -93t97 -224t-97 -224.5t-241 -93.5t-241 93.5t-97 224.5z" />
    <glyph glyph-name="plusminus" unicode="&#xb1;" horiz-adv-x="1085" 
d="M205 676v317h317v297h307v-297h318v-317h-318v-307h-307v307h-317zM205 0v297h942v-297h-942z" />
    <glyph glyph-name="uni00B2" unicode="&#xb2;" horiz-adv-x="696" 
d="M795 901h-557q10 82 38.5 147t65.5 106t80 72t83.5 51t73.5 36.5t53.5 35t20.5 40.5q0 19 -13 32t-36 13q-26 0 -63 -23q-18 -11 -25 -20l-180 79q26 48 70 89q94 90 233 90q133 0 207 -65t74 -157q0 -57 -23 -102.5t-61 -75t-76.5 -50.5t-82.5 -43.5t-65 -39.5h228z" />
    <glyph glyph-name="uni00B3" unicode="&#xb3;" horiz-adv-x="706" 
d="M246 1044l143 111q17 -24 37 -41q42 -39 102 -39q39 0 59.5 18.5t20.5 45.5q0 22 -20 40.5t-58 18.5h-71l35 164h88q65 0 65 55q0 20 -19 33.5t-55 13.5q-39 0 -75 -20q-17 -9 -31 -19l-96 140q40 28 67 41q80 43 187 43q133 0 208.5 -61.5t75.5 -143.5q0 -87 -78 -137
q-42 -26 -77 -33q32 -16 53 -37q53 -49 53 -119q0 -90 -83 -158.5t-212 -68.5q-147 0 -246 76q-47 35 -73 77z" />
    <glyph glyph-name="acute" unicode="&#xb4;" horiz-adv-x="665" 
d="M299 1126l244 328h368l-315 -328h-297z" />
    <glyph glyph-name="uni00B5" unicode="&#xb5;" horiz-adv-x="1269" 
d="M31 -430l305 1434h348l-111 -519q-4 -20 -4 -45q0 -57 33.5 -95t93.5 -38q64 0 115 45t68 121l112 531h348l-133 -631q-2 -2 -2 -8q-2 -6 -2 -15q0 -55 53 -55q23 0 27 2q2 1 5.5 2t4.5 2l-63 -303q-14 -7 -29 -10q-24 -8 -76 -8q-139 0 -204 81q-32 44 -39 82h-11
q-25 -42 -77 -82q-109 -81 -271 -81h-57l-86 -410h-348z" />
    <glyph glyph-name="paragraph" unicode="&#xb6;" horiz-adv-x="1361" 
d="M584 -205v881q-154 0 -266.5 112t-112.5 267t112.5 267t266.5 112h757v-1639h-307v1290h-143v-1290h-307z" />
    <glyph glyph-name="middot" unicode="&#xb7;" horiz-adv-x="450" 
d="M137 496q0 83 63 141.5t154 58.5q77 0 126.5 -47.5t49.5 -120.5q0 -83 -63 -141.5t-154 -58.5q-77 0 -126.5 47.5t-49.5 120.5z" />
    <glyph glyph-name="cedilla" unicode="&#xb8;" horiz-adv-x="645" 
d="M-23 -406l121 134q20 -29 35 -39q47 -37 92 -37q33 0 53.5 16.5t20.5 50.5q0 24 -18.5 40t-47.5 16q-8 0 -24 -4q-4 -2 -12 -2l-54 84l129 188h174l-106 -137q40 -9 90 -35q92 -61 92 -160q0 -96 -76 -163.5t-200 -67.5q-126 0 -205 57q-36 23 -64 59z" />
    <glyph glyph-name="uni00B9" unicode="&#xb9;" horiz-adv-x="491" 
d="M334 901l98 461h-123l37 174q69 8 127 55q25 19 49 47h215l-157 -737h-246z" />
    <glyph glyph-name="ordmasculine" unicode="&#xba;" horiz-adv-x="819" 
d="M494 1094q0 -50 30.5 -80.5t79.5 -30.5q60 0 99.5 37.5t39.5 97.5q0 50 -30.5 80.5t-79.5 30.5q-60 0 -99.5 -37.5t-39.5 -97.5zM979 1137q0 -157 -115 -268t-280 -111q-140 0 -233 91.5t-93 225.5q0 157 115 268t280 111q140 0 233 -91.5t93 -225.5z" />
    <glyph glyph-name="guillemotright" unicode="&#xbb;" horiz-adv-x="1239" 
d="M600 123l373 399l-170 338h311l186 -368l-344 -369h-356zM119 123l373 399l-170 338h311l186 -368l-344 -369h-356z" />
    <glyph glyph-name="onequarter" unicode="&#xbc;" horiz-adv-x="1556" 
d="M143 0l1194 1434h349l-1194 -1434h-349zM332 696l98 461h-123l37 174q69 8 127 55q22 17 49 48h215l-157 -738h-246zM918 133l40 195l416 409h225l-86 -399h72l-43 -205h-72l-28 -133h-236l29 133h-317zM1178 328h108l31 139z" />
    <glyph glyph-name="onehalf" unicode="&#xbd;" horiz-adv-x="1617" 
d="M143 0l1194 1434h349l-1194 -1434h-349zM332 696l98 461h-123l37 174q69 8 127 55q22 17 49 48h215l-157 -738h-246zM1544 0h-557q10 82 38.5 147t65.5 105.5t80 72t84 51t74 36t53.5 35t20.5 40.5q0 19 -13 32t-36 13q-29 0 -64 -22q-15 -9 -24 -21l-181 80q25 46 70 88
q95 91 234 91q133 0 206.5 -65t73.5 -157q0 -48 -17 -88.5t-43 -66.5t-61 -49.5t-67 -39t-66 -34t-53 -33.5h227z" />
    <glyph glyph-name="threequarters" unicode="&#xbe;" horiz-adv-x="1689" 
d="M276 0l1194 1434h349l-1194 -1434h-349zM1051 133l41 195l415 409h226l-86 -399h71l-43 -205h-71l-29 -133h-236l29 133h-317zM1311 328h108l31 139zM223 840l144 110q19 -26 36 -41q42 -39 103 -39q39 0 59.5 18.5t20.5 45.5q0 22 -20 40.5t-58 18.5h-72l35 164h88
q66 0 66 55q0 20 -19 34t-55 14q-38 0 -76 -21q-21 -11 -31 -18l-96 139q38 27 68 41q80 43 186 43q133 0 209 -61.5t76 -143.5q0 -87 -78 -137q-42 -26 -78 -33q32 -16 53 -37q54 -50 54 -119q0 -90 -83 -158.5t-212 -68.5q-147 0 -246 76q-47 35 -74 78z" />
    <glyph glyph-name="questiondown" unicode="&#xbf;" horiz-adv-x="1116" 
d="M829 10l301 -160q-58 -91 -137 -161q-180 -160 -407 -160q-116 0 -214.5 37t-163.5 97t-101.5 136t-36.5 156q0 76 26 138.5t68.5 105.5t94.5 79.5t106 67.5t100.5 61.5t80.5 70.5t44 85h323l5 -20q4 -28 4 -51q0 -64 -23.5 -116.5t-60.5 -87t-82 -63.5t-90 -53
t-82 -47.5t-60.5 -54t-23.5 -66.5q0 -45 36 -75.5t97 -30.5q88 0 147 55q31 28 49 57zM627 823q0 83 63 142t154 59q77 0 126.5 -47.5t49.5 -120.5q0 -83 -63 -142t-154 -59q-77 0 -126.5 47.5t-49.5 120.5z" />
    <glyph glyph-name="Agrave" unicode="&#xc0;" horiz-adv-x="1495" 
d="M786 625h267l-41 409h-8zM10 0l846 1434h430l240 -1434h-400l-39 307h-471l-165 -307h-441zM924 1597l-176 328h368l105 -328h-297z" />
    <glyph glyph-name="Aacute" unicode="&#xc1;" horiz-adv-x="1495" 
d="M786 625h267l-41 409h-8zM10 0l846 1434h430l240 -1434h-400l-39 307h-471l-165 -307h-441zM954 1597l244 328h369l-316 -328h-297z" />
    <glyph glyph-name="Acircumflex" unicode="&#xc2;" horiz-adv-x="1495" 
d="M786 625h267l-41 409h-8zM10 0l846 1434h430l240 -1434h-400l-39 307h-471l-165 -307h-441zM647 1597l336 328h307l197 -328h-305l-74 144l-131 -144h-330z" />
    <glyph glyph-name="Atilde" unicode="&#xc3;" horiz-adv-x="1495" 
d="M786 625h267l-41 409h-8zM10 0l846 1434h430l240 -1434h-400l-39 307h-471l-165 -307h-441zM688 1577l23 104q26 117 90 180.5t153 63.5q48 0 90.5 -14.5t67 -31.5t54.5 -31.5t57 -14.5q30 0 53.5 25t30.5 67h215l-23 -104q-26 -117 -90.5 -180.5t-153.5 -63.5
q-48 0 -90.5 14.5t-67 31.5t-54 31.5t-56.5 14.5q-30 0 -53.5 -25t-30.5 -67h-215z" />
    <glyph glyph-name="Adieresis" unicode="&#xc4;" horiz-adv-x="1495" 
d="M786 625h267l-41 409h-8zM10 0l846 1434h430l240 -1434h-400l-39 307h-471l-165 -307h-441zM891 1946q66 0 111 -46t45 -114q0 -77 -58 -133t-137 -56q-66 0 -111 46t-45 114q0 77 58 133t137 56zM1323 1597q-66 0 -111 46t-45 114q0 77 58 133t137 56q66 0 111 -46
t45 -114q0 -77 -58 -133t-137 -56z" />
    <glyph glyph-name="Aring" unicode="&#xc5;" horiz-adv-x="1495" 
d="M786 625h267l-41 409h-8zM10 0l846 1434h430l240 -1434h-400l-39 307h-471l-165 -307h-441zM846 1765q0 106 88.5 184.5t200.5 78.5q110 0 177.5 -66.5t67.5 -163.5q0 -106 -88 -184t-200 -78q-110 0 -178 66.5t-68 162.5zM1030 1772q0 -31 22 -51.5t52 -20.5
q37 0 64.5 26t27.5 66q0 32 -21 52t-51 20q-37 0 -65.5 -26t-28.5 -66z" />
    <glyph glyph-name="AE" unicode="&#xc6;" horiz-adv-x="2099" 
d="M-82 0l1102 1434h1280l-74 -349h-635l-43 -204h471l-69 -328h-471l-43 -205h655l-74 -348h-1044l65 317h-460l-240 -317h-420zM848 666h266l92 440h-20z" />
    <glyph glyph-name="Ccedilla" unicode="&#xc7;" horiz-adv-x="1556" 
d="M561 -406l121 134q0 -5 16 -22.5t47.5 -35.5t63.5 -18q33 0 53.5 16.5t20.5 50.5q0 24 -18.5 40t-47.5 16q-8 0 -24 -4q-4 -2 -13 -2l-53 84l82 120q-262 49 -423 246t-161 457q0 158 69.5 305.5t185.5 255.5t276.5 173t335.5 65q285 0 481 -160q87 -72 141 -158
l-266 -246q-39 56 -92 103q-126 102 -291 102q-117 0 -218 -55.5t-161.5 -155t-60.5 -219.5q0 -151 104 -260t264 -109q141 0 277 70q54 27 108 72l183 -277q-58 -55 -156 -110q-214 -113 -438 -113l-43 -55q40 -9 90 -35q92 -61 92 -160q0 -96 -76.5 -163.5t-200.5 -67.5
q-125 0 -204 57q-36 23 -64 59z" />
    <glyph glyph-name="Egrave" unicode="&#xc8;" horiz-adv-x="1361" 
d="M164 0l303 1434h1096l-74 -349h-707l-43 -204h543l-70 -328h-542l-43 -205h727l-74 -348h-1116zM862 1597l-176 328h369l104 -328h-297z" />
    <glyph glyph-name="Eacute" unicode="&#xc9;" horiz-adv-x="1361" 
d="M164 0l303 1434h1096l-74 -349h-707l-43 -204h543l-70 -328h-542l-43 -205h727l-74 -348h-1116zM831 1597l244 328h369l-316 -328h-297z" />
    <glyph glyph-name="Ecircumflex" unicode="&#xca;" horiz-adv-x="1361" 
d="M164 0l303 1434h1096l-74 -349h-707l-43 -204h543l-70 -328h-542l-43 -205h727l-74 -348h-1116zM586 1597l336 328h307l196 -328h-305l-73 144l-132 -144h-329z" />
    <glyph glyph-name="Edieresis" unicode="&#xcb;" horiz-adv-x="1361" 
d="M164 0l303 1434h1096l-74 -349h-707l-43 -204h543l-70 -328h-542l-43 -205h727l-74 -348h-1116zM829 1946q66 0 111 -46t45 -114q0 -77 -57.5 -133t-136.5 -56q-66 0 -111 46t-45 114q0 77 57.5 133t136.5 56zM1262 1597q-66 0 -111 46t-45 114q0 77 57.5 133t136.5 56
q66 0 111 -46t45 -114q0 -77 -57.5 -133t-136.5 -56z" />
    <glyph glyph-name="Igrave" unicode="&#xcc;" horiz-adv-x="716" 
d="M164 0l303 1434h389l-303 -1434h-389zM535 1597l-177 328h369l104 -328h-296z" />
    <glyph glyph-name="Iacute" unicode="&#xcd;" horiz-adv-x="716" 
d="M164 0l303 1434h389l-303 -1434h-389zM524 1597l244 328h369l-316 -328h-297z" />
    <glyph glyph-name="Icircumflex" unicode="&#xce;" horiz-adv-x="716" 
d="M164 0l303 1434h389l-303 -1434h-389zM258 1597l336 328h307l197 -328h-305l-74 144l-131 -144h-330z" />
    <glyph glyph-name="Idieresis" unicode="&#xcf;" horiz-adv-x="716" 
d="M164 0l303 1434h389l-303 -1434h-389zM502 1946q66 0 110.5 -46t44.5 -114q0 -77 -57.5 -133t-136.5 -56q-66 0 -111 46t-45 114q0 77 58 133t137 56zM934 1597q-66 0 -111 46t-45 114q0 77 58 133t137 56q66 0 110.5 -46t44.5 -114q0 -77 -57.5 -133t-136.5 -56z" />
    <glyph glyph-name="Eth" unicode="&#xd0;" horiz-adv-x="1587" 
d="M195 0l135 645h-154l31 143h153l138 646h477q194 0 352.5 -86t248 -236.5t89.5 -333.5q0 -161 -64.5 -305t-175 -248t-264.5 -164.5t-325 -60.5h-641zM655 348h203q174 0 291 116.5t117 295.5q0 138 -83 231.5t-239 93.5h-131l-63 -297h215l-31 -143h-215z" />
    <glyph glyph-name="Ntilde" unicode="&#xd1;" horiz-adv-x="1669" 
d="M164 0l303 1434h338l444 -809l170 809h389l-303 -1434h-338l-444 809l-170 -809h-389zM760 1577l22 104q26 117 90.5 180.5t153.5 63.5q48 0 90.5 -14.5t67 -31.5t54 -31.5t56.5 -14.5q30 0 53.5 25t30.5 67h215l-22 -104q-26 -117 -90.5 -180.5t-153.5 -63.5
q-48 0 -90.5 14.5t-67 31.5t-54 31.5t-56.5 14.5q-30 0 -53.5 -25t-30.5 -67h-215z" />
    <glyph glyph-name="Ograve" unicode="&#xd2;" horiz-adv-x="1761" 
d="M995 317q115 0 216 54.5t163 154.5t62 222q0 98 -46 182t-131 135t-192 51q-115 0 -215.5 -54t-162.5 -154t-62 -222q0 -152 104 -260.5t264 -108.5zM227 676q0 159 69 306t185.5 255t278 173t338.5 65q132 0 249.5 -37.5t205.5 -104.5t152 -157t97 -197t33 -221
q0 -159 -69 -306t-185 -255t-277.5 -173t-338.5 -65q-132 0 -249.5 37t-205.5 104t-152.5 156.5t-97.5 196.5t-33 223zM1016 1597l-176 328h368l105 -328h-297z" />
    <glyph glyph-name="Oacute" unicode="&#xd3;" horiz-adv-x="1761" 
d="M995 317q115 0 216 54.5t163 154.5t62 222q0 98 -46 182t-131 135t-192 51q-115 0 -215.5 -54t-162.5 -154t-62 -222q0 -152 104 -260.5t264 -108.5zM227 676q0 159 69 306t185.5 255t278 173t338.5 65q132 0 249.5 -37.5t205.5 -104.5t152 -157t97 -197t33 -221
q0 -159 -69 -306t-185 -255t-277.5 -173t-338.5 -65q-132 0 -249.5 37t-205.5 104t-152.5 156.5t-97.5 196.5t-33 223zM1006 1597l243 328h369l-315 -328h-297z" />
    <glyph glyph-name="Ocircumflex" unicode="&#xd4;" horiz-adv-x="1761" 
d="M995 317q115 0 216 54.5t163 154.5t62 222q0 98 -46 182t-131 135t-192 51q-115 0 -215.5 -54t-162.5 -154t-62 -222q0 -152 104 -260.5t264 -108.5zM227 676q0 159 69 306t185.5 255t278 173t338.5 65q132 0 249.5 -37.5t205.5 -104.5t152 -157t97 -197t33 -221
q0 -159 -69 -306t-185 -255t-277.5 -173t-338.5 -65q-132 0 -249.5 37t-205.5 104t-152.5 156.5t-97.5 196.5t-33 223zM739 1597l336 328h307l197 -328h-305l-74 144l-131 -144h-330z" />
    <glyph glyph-name="Otilde" unicode="&#xd5;" horiz-adv-x="1761" 
d="M995 317q115 0 216 54.5t163 154.5t62 222q0 98 -46 182t-131 135t-192 51q-115 0 -215.5 -54t-162.5 -154t-62 -222q0 -152 104 -260.5t264 -108.5zM227 676q0 159 69 306t185.5 255t278 173t338.5 65q132 0 249.5 -37.5t205.5 -104.5t152 -157t97 -197t33 -221
q0 -159 -69 -306t-185 -255t-277.5 -173t-338.5 -65q-132 0 -249.5 37t-205.5 104t-152.5 156.5t-97.5 196.5t-33 223zM780 1577l23 104q26 117 90.5 180.5t153.5 63.5q48 0 90.5 -14.5t67 -31.5t54 -31.5t56.5 -14.5q30 0 53.5 25t30.5 67h215l-23 -104
q-26 -117 -90 -180.5t-153 -63.5q-48 0 -90.5 14.5t-67 31.5t-54.5 31.5t-57 14.5q-30 0 -53.5 -25t-30.5 -67h-215z" />
    <glyph glyph-name="Odieresis" unicode="&#xd6;" horiz-adv-x="1761" 
d="M995 317q115 0 216 54.5t163 154.5t62 222q0 98 -46 182t-131 135t-192 51q-115 0 -215.5 -54t-162.5 -154t-62 -222q0 -152 104 -260.5t264 -108.5zM227 676q0 159 69 306t185.5 255t278 173t338.5 65q132 0 249.5 -37.5t205.5 -104.5t152 -157t97 -197t33 -221
q0 -159 -69 -306t-185 -255t-277.5 -173t-338.5 -65q-132 0 -249.5 37t-205.5 104t-152.5 156.5t-97.5 196.5t-33 223zM983 1946q66 0 111 -46t45 -114q0 -77 -58 -133t-137 -56q-66 0 -111 46t-45 114q0 77 58 133t137 56zM1415 1597q-66 0 -110.5 46t-44.5 114
q0 77 57.5 133t136.5 56q66 0 111 -46t45 -114q0 -77 -58 -133t-137 -56z" />
    <glyph glyph-name="multiply" unicode="&#xd7;" horiz-adv-x="1044" 
d="M195 389l245 246l-245 246l204 204l246 -245l246 245l205 -204l-246 -246l246 -246l-205 -205l-246 246l-246 -246z" />
    <glyph glyph-name="Oslash" unicode="&#xd8;" horiz-adv-x="1761" 
d="M264 82l131 125q-168 199 -168 469q0 159 69 306t185.5 255t278 173t338.5 65q264 0 465 -150l135 129l102 -102l-133 -127q168 -199 168 -467q0 -159 -69 -306t-185 -255t-277.5 -173t-338.5 -65q-268 0 -465 147l-133 -126zM684 485l594 568q-95 63 -211 63
q-115 0 -215.5 -54t-162.5 -154t-62 -222q0 -115 57 -201zM1378 946l-594 -567q94 -62 211 -62q115 0 216 54.5t163 154.5t62 222q0 110 -58 198z" />
    <glyph glyph-name="Ugrave" unicode="&#xd9;" horiz-adv-x="1617" 
d="M295 664l162 770h389l-172 -811q-1 -4 -3 -12.5t-3.5 -20.5t-1.5 -29q0 -107 67 -175.5t176 -68.5q105 0 182.5 67.5t102.5 182.5l184 867h389l-192 -908q-54 -255 -241.5 -411t-444.5 -156q-187 0 -327.5 74t-213 201t-72.5 288q0 49 19 142zM965 1597l-177 328h369
l105 -328h-297z" />
    <glyph glyph-name="Uacute" unicode="&#xda;" horiz-adv-x="1617" 
d="M295 664l162 770h389l-172 -811q-1 -4 -3 -12.5t-3.5 -20.5t-1.5 -29q0 -107 67 -175.5t176 -68.5q105 0 182.5 67.5t102.5 182.5l184 867h389l-192 -908q-54 -255 -241.5 -411t-444.5 -156q-187 0 -327.5 74t-213 201t-72.5 288q0 49 19 142zM954 1597l244 328h369
l-316 -328h-297z" />
    <glyph glyph-name="Ucircumflex" unicode="&#xdb;" horiz-adv-x="1617" 
d="M295 664l162 770h389l-172 -811q-1 -4 -3 -12.5t-3.5 -20.5t-1.5 -29q0 -107 67 -175.5t176 -68.5q105 0 182.5 67.5t102.5 182.5l184 867h389l-192 -908q-54 -255 -241.5 -411t-444.5 -156q-187 0 -327.5 74t-213 201t-72.5 288q0 49 19 142zM709 1597l335 328h308
l196 -328h-305l-74 144l-131 -144h-329z" />
    <glyph glyph-name="Udieresis" unicode="&#xdc;" horiz-adv-x="1617" 
d="M295 664l162 770h389l-172 -811q-1 -4 -3 -12.5t-3.5 -20.5t-1.5 -29q0 -107 67 -175.5t176 -68.5q105 0 182.5 67.5t102.5 182.5l184 867h389l-192 -908q-54 -255 -241.5 -411t-444.5 -156q-187 0 -327.5 74t-213 201t-72.5 288q0 49 19 142zM932 1946q66 0 110.5 -46
t44.5 -114q0 -77 -57.5 -133t-136.5 -56q-66 0 -111 46t-45 114q0 77 58 133t137 56zM1364 1597q-66 0 -111 46t-45 114q0 77 58 133t137 56q66 0 111 -46t45 -114q0 -77 -58 -133t-137 -56z" />
    <glyph glyph-name="Yacute" unicode="&#xdd;" horiz-adv-x="1372" 
d="M471 0l109 512l-318 922h400l153 -564h8l391 564h461l-706 -922l-109 -512h-389zM811 1597l244 328h368l-315 -328h-297z" />
    <glyph glyph-name="Thorn" unicode="&#xde;" horiz-adv-x="1576" 
d="M164 0l303 1434h389l-47 -226h430q103 0 186 -35.5t135 -96t79.5 -136.5t27.5 -160q0 -143 -70.5 -261t-193 -185.5t-270.5 -67.5h-525l-55 -266h-389zM682 614h448q63 0 103.5 39.5t40.5 89.5q0 45 -32.5 81t-88.5 36h-418z" />
    <glyph glyph-name="germandbls" unicode="&#xdf;" horiz-adv-x="1280" 
d="M133 0l221 1040q42 190 182 302t341 112q106 0 194 -31t145 -82.5t88 -117.5t31 -138q0 -160 -118 -262q-48 -43 -119 -69q51 -26 102 -74q103 -103 103 -236q0 -183 -149 -313.5t-374 -130.5h-176l70 328h114q62 0 106 40.5t44 92.5q0 49 -34.5 86t-84.5 37h-92l66 307
h51q63 0 102 40.5t39 94.5q0 49 -33.5 80t-93.5 31q-63 0 -107 -36t-57 -102l-213 -999h-348z" />
    <glyph glyph-name="agrave" unicode="&#xe0;" horiz-adv-x="1105" 
d="M655 0l25 123h-10q-30 -46 -66 -72q-86 -71 -205 -71q-125 0 -204.5 80.5t-79.5 189.5q0 270 366 342l314 63q-24 111 -160 111q-77 0 -139 -41q-29 -17 -56 -41l-145 190q48 39 113 74q140 76 288 76q197 0 318 -107t121 -268q0 -19 -2 -35t-5.5 -29t-3.5 -16l-120 -569
h-349zM741 406l9 45l-160 -33q-103 -23 -103 -101q0 -33 21.5 -52t62.5 -19q66 0 112 44t58 116zM627 1137l-176 327h368l105 -327h-297z" />
    <glyph glyph-name="aacute" unicode="&#xe1;" horiz-adv-x="1105" 
d="M655 0l25 123h-10q-30 -46 -66 -72q-86 -71 -205 -71q-125 0 -204.5 80.5t-79.5 189.5q0 270 366 342l314 63q-24 111 -160 111q-77 0 -139 -41q-29 -17 -56 -41l-145 190q48 39 113 74q140 76 288 76q197 0 318 -107t121 -268q0 -19 -2 -35t-5.5 -29t-3.5 -16l-120 -569
h-349zM741 406l9 45l-160 -33q-103 -23 -103 -101q0 -33 21.5 -52t62.5 -19q66 0 112 44t58 116zM616 1137l244 327h369l-316 -327h-297z" />
    <glyph glyph-name="acircumflex" unicode="&#xe2;" horiz-adv-x="1105" 
d="M655 0l25 123h-10q-30 -46 -66 -72q-86 -71 -205 -71q-125 0 -204.5 80.5t-79.5 189.5q0 270 366 342l314 63q-24 111 -160 111q-77 0 -139 -41q-29 -17 -56 -41l-145 190q48 39 113 74q140 76 288 76q197 0 318 -107t121 -268q0 -19 -2 -35t-5.5 -29t-3.5 -16l-120 -569
h-349zM741 406l9 45l-160 -33q-103 -23 -103 -101q0 -33 21.5 -52t62.5 -19q66 0 112 44t58 116zM350 1137l336 327h307l197 -327h-305l-74 143l-131 -143h-330z" />
    <glyph glyph-name="atilde" unicode="&#xe3;" horiz-adv-x="1105" 
d="M655 0l25 123h-10q-30 -46 -66 -72q-86 -71 -205 -71q-125 0 -204.5 80.5t-79.5 189.5q0 270 366 342l314 63q-24 111 -160 111q-77 0 -139 -41q-29 -17 -56 -41l-145 190q48 39 113 74q140 76 288 76q197 0 318 -107t121 -268q0 -19 -2 -35t-5.5 -29t-3.5 -16l-120 -569
h-349zM741 406l9 45l-160 -33q-103 -23 -103 -101q0 -33 21.5 -52t62.5 -19q66 0 112 44t58 116zM391 1116l23 105q26 117 90 180t153 63q48 0 90.5 -14.5t67 -31.5t54.5 -31.5t57 -14.5q30 0 53.5 25t30.5 67h215l-23 -104q-26 -117 -90.5 -180.5t-153.5 -63.5
q-48 0 -90.5 14.5t-67 31.5t-54 31.5t-56.5 14.5q-30 0 -53.5 -25t-30.5 -67h-215z" />
    <glyph glyph-name="adieresis" unicode="&#xe4;" horiz-adv-x="1105" 
d="M655 0l25 123h-10q-30 -46 -66 -72q-86 -71 -205 -71q-125 0 -204.5 80.5t-79.5 189.5q0 270 366 342l314 63q-24 111 -160 111q-77 0 -139 -41q-29 -17 -56 -41l-145 190q48 39 113 74q140 76 288 76q197 0 318 -107t121 -268q0 -19 -2 -35t-5.5 -29t-3.5 -16l-120 -569
h-349zM741 406l9 45l-160 -33q-103 -23 -103 -101q0 -33 21.5 -52t62.5 -19q66 0 112 44t58 116zM594 1485q66 0 111 -46t45 -114q0 -77 -58 -132.5t-137 -55.5q-66 0 -111 46t-45 113q0 77 58 133t137 56zM1026 1137q-66 0 -111 46t-45 113q0 77 58 133t137 56
q66 0 111 -46t45 -114q0 -77 -58 -132.5t-137 -55.5z" />
    <glyph glyph-name="aring" unicode="&#xe5;" horiz-adv-x="1105" 
d="M655 0l25 123h-10q-30 -46 -66 -72q-86 -71 -205 -71q-125 0 -204.5 80.5t-79.5 189.5q0 270 366 342l314 63q-24 111 -160 111q-77 0 -139 -41q-29 -17 -56 -41l-145 190q48 39 113 74q140 76 288 76q197 0 318 -107t121 -268q0 -19 -2 -35t-5.5 -29t-3.5 -16l-120 -569
h-349zM741 406l9 45l-160 -33q-103 -23 -103 -101q0 -33 21.5 -52t62.5 -19q66 0 112 44t58 116zM549 1305q0 106 88.5 184t200.5 78q110 0 177.5 -66.5t67.5 -163.5q0 -106 -88 -184t-200 -78q-110 0 -178 67t-68 163zM733 1311q0 -31 22 -51.5t52 -20.5q37 0 64.5 26
t27.5 66q0 32 -21 52t-51 20q-37 0 -65.5 -26t-28.5 -66z" />
    <glyph glyph-name="ae" unicode="&#xe6;" horiz-adv-x="1787" 
d="M481 592l314 63q-24 111 -160 111q-77 0 -139 -41q-29 -17 -56 -41l-145 190q48 39 113 74q140 76 288 76q121 0 222 -68q35 -22 75 -65q46 40 101 65q136 68 274 68q136 0 243.5 -62.5t165.5 -167t58 -231.5q0 -85 -27 -164h-690q8 -55 70 -99t160 -44q79 0 159 33
q36 16 62 33l86 -244q-53 -31 -101 -49q-123 -49 -268 -49q-125 0 -228 47t-173 129q-39 -47 -103 -88q-127 -88 -299 -88q-179 0 -273.5 79.5t-94.5 190.5q0 270 366 342zM741 406l9 45l-160 -33q-103 -23 -103 -101q0 -33 21.5 -52t62.5 -19q66 0 112 44t58 116zM1145 614
h356q-6 57 -50.5 95.5t-113.5 38.5q-64 0 -119.5 -37t-72.5 -97z" />
    <glyph glyph-name="ccedilla" unicode="&#xe7;" horiz-adv-x="1095" 
d="M283 -406l120 134q0 -5 16 -22.5t47.5 -35.5t63.5 -18q33 0 53.5 16.5t20.5 50.5q0 24 -18 40t-47 16q-9 0 -25 -4q-4 -2 -12 -2l-53 84l98 143q-170 40 -271.5 173.5t-101.5 301.5q0 112 45.5 214t124 176.5t189.5 118.5t235 44q199 0 344 -111q59 -48 98 -108
l-243 -203q-20 30 -47 51q-66 54 -162 54q-93 0 -159.5 -67.5t-66.5 -158.5q0 -80 56 -133t147 -53q86 0 148 41q26 16 55 41l158 -238q-50 -47 -103 -78q-137 -79 -291 -81l-57 -76q40 -9 90 -35q92 -61 92 -160q0 -96 -76 -163.5t-200 -67.5q-126 0 -205 57q-34 22 -63 59
z" />
    <glyph glyph-name="egrave" unicode="&#xe8;" horiz-adv-x="1187" 
d="M969 322l86 -244q-53 -31 -101 -49q-123 -49 -268 -49q-114 0 -211 39t-162.5 106t-102 156.5t-36.5 189.5q0 112 45.5 214t124 176.5t189.5 118.5t235 44q136 0 243.5 -62.5t165.5 -167t58 -231.5q0 -85 -27 -164h-690q8 -55 70 -99t160 -44q79 0 159 33q36 16 62 33z
M545 614h356q-6 57 -50.5 95.5t-113.5 38.5q-64 0 -119.5 -37t-72.5 -97zM657 1137l-176 327h369l104 -327h-297z" />
    <glyph glyph-name="eacute" unicode="&#xe9;" horiz-adv-x="1187" 
d="M969 322l86 -244q-53 -31 -101 -49q-123 -49 -268 -49q-114 0 -211 39t-162.5 106t-102 156.5t-36.5 189.5q0 112 45.5 214t124 176.5t189.5 118.5t235 44q136 0 243.5 -62.5t165.5 -167t58 -231.5q0 -85 -27 -164h-690q8 -55 70 -99t160 -44q79 0 159 33q36 16 62 33z
M545 614h356q-6 57 -50.5 95.5t-113.5 38.5q-64 0 -119.5 -37t-72.5 -97zM647 1137l244 327h369l-316 -327h-297z" />
    <glyph glyph-name="ecircumflex" unicode="&#xea;" horiz-adv-x="1187" 
d="M969 322l86 -244q-53 -31 -101 -49q-123 -49 -268 -49q-114 0 -211 39t-162.5 106t-102 156.5t-36.5 189.5q0 112 45.5 214t124 176.5t189.5 118.5t235 44q136 0 243.5 -62.5t165.5 -167t58 -231.5q0 -85 -27 -164h-690q8 -55 70 -99t160 -44q79 0 159 33q36 16 62 33z
M545 614h356q-6 57 -50.5 95.5t-113.5 38.5q-64 0 -119.5 -37t-72.5 -97zM381 1137l336 327h307l197 -327h-306l-73 143l-131 -143h-330z" />
    <glyph glyph-name="edieresis" unicode="&#xeb;" horiz-adv-x="1187" 
d="M969 322l86 -244q-53 -31 -101 -49q-123 -49 -268 -49q-114 0 -211 39t-162.5 106t-102 156.5t-36.5 189.5q0 112 45.5 214t124 176.5t189.5 118.5t235 44q136 0 243.5 -62.5t165.5 -167t58 -231.5q0 -85 -27 -164h-690q8 -55 70 -99t160 -44q79 0 159 33q36 16 62 33z
M545 614h356q-6 57 -50.5 95.5t-113.5 38.5q-64 0 -119.5 -37t-72.5 -97zM625 1485q66 0 110.5 -46t44.5 -114q0 -77 -57.5 -132.5t-136.5 -55.5q-66 0 -111 46t-45 113q0 77 58 133t137 56zM1057 1137q-66 0 -111 46t-45 113q0 77 58 133t137 56q66 0 110.5 -46t44.5 -114
q0 -77 -57.5 -132.5t-136.5 -55.5z" />
    <glyph glyph-name="igrave" unicode="&#xec;" horiz-adv-x="614" 
d="M133 0l213 1004h348l-213 -1004h-348zM401 1137l-176 327h369l104 -327h-297z" />
    <glyph glyph-name="iacute" unicode="&#xed;" horiz-adv-x="614" 
d="M133 0l213 1004h348l-213 -1004h-348zM391 1137l244 327h369l-316 -327h-297z" />
    <glyph glyph-name="icircumflex" unicode="&#xee;" horiz-adv-x="614" 
d="M133 0l213 1004h348l-213 -1004h-348zM125 1137l336 327h307l197 -327h-306l-73 143l-131 -143h-330z" />
    <glyph glyph-name="idieresis" unicode="&#xef;" horiz-adv-x="614" 
d="M133 0l213 1004h348l-213 -1004h-348zM369 1485q66 0 110.5 -46t44.5 -114q0 -77 -57.5 -132.5t-136.5 -55.5q-66 0 -111 46t-45 113q0 77 58 133t137 56zM801 1137q-66 0 -111 46t-45 113q0 77 58 133t137 56q66 0 110.5 -46t44.5 -114q0 -77 -57.5 -132.5t-136.5 -55.5
z" />
    <glyph glyph-name="eth" unicode="&#xf0;" horiz-adv-x="1259" 
d="M571 1106l-61 92l229 98q-98 92 -207 164l287 117q104 -73 191 -166l221 94l61 -92l-209 -90q105 -145 162.5 -305.5t57.5 -360.5q0 -197 -81.5 -352t-224.5 -240t-323 -85q-116 0 -214.5 38t-163.5 101.5t-101.5 146.5t-36.5 174q0 143 77 264.5t208 192t284 70.5
q70 0 132 -20t90 -38.5t28 -23.5h10q-45 179 -170 325zM690 279q86 0 152.5 62t66.5 144q0 71 -49.5 127t-120.5 56q-86 0 -154.5 -62.5t-68.5 -144.5q0 -70 49.5 -126t124.5 -56z" />
    <glyph glyph-name="ntilde" unicode="&#xf1;" horiz-adv-x="1239" 
d="M123 0l213 1004h348l-27 -134h11q31 42 71 76q94 78 211 78q141 0 227.5 -88t86.5 -240q0 -49 -17 -129l-121 -567h-348l111 518q4 20 4 45q0 57 -33.5 95t-93.5 38q-64 0 -114.5 -44.5t-67.5 -121.5l-113 -530h-348zM442 1116l23 105q26 117 90.5 180t153.5 63
q48 0 90.5 -14.5t67 -31.5t54 -31.5t56.5 -14.5q30 0 53.5 25t30.5 67h215l-23 -104q-26 -117 -90 -180.5t-153 -63.5q-48 0 -90.5 14.5t-67 31.5t-54.5 31.5t-57 14.5q-30 0 -53.5 -25t-30.5 -67h-215z" />
    <glyph glyph-name="ograve" unicode="&#xf2;" 
d="M707 297q90 0 152.5 65.5t62.5 159.5q0 76 -50.5 130.5t-123.5 54.5q-90 0 -153 -66t-63 -160q0 -76 51 -130t124 -54zM174 471q0 112 45.5 214t124 176.5t189.5 118.5t235 44q114 0 211 -39t162.5 -106t102 -157t36.5 -190q0 -112 -45.5 -214t-124 -176t-189.5 -118
t-235 -44q-114 0 -211 39t-162.5 106t-102 156.5t-36.5 189.5zM678 1137l-176 327h368l105 -327h-297z" />
    <glyph glyph-name="oacute" unicode="&#xf3;" 
d="M707 297q90 0 152.5 65.5t62.5 159.5q0 76 -50.5 130.5t-123.5 54.5q-90 0 -153 -66t-63 -160q0 -76 51 -130t124 -54zM174 471q0 112 45.5 214t124 176.5t189.5 118.5t235 44q114 0 211 -39t162.5 -106t102 -157t36.5 -190q0 -112 -45.5 -214t-124 -176t-189.5 -118
t-235 -44q-114 0 -211 39t-162.5 106t-102 156.5t-36.5 189.5zM668 1137l243 327h369l-315 -327h-297z" />
    <glyph glyph-name="ocircumflex" unicode="&#xf4;" 
d="M707 297q90 0 152.5 65.5t62.5 159.5q0 76 -50.5 130.5t-123.5 54.5q-90 0 -153 -66t-63 -160q0 -76 51 -130t124 -54zM174 471q0 112 45.5 214t124 176.5t189.5 118.5t235 44q114 0 211 -39t162.5 -106t102 -157t36.5 -190q0 -112 -45.5 -214t-124 -176t-189.5 -118
t-235 -44q-114 0 -211 39t-162.5 106t-102 156.5t-36.5 189.5zM401 1137l336 327h307l197 -327h-305l-74 143l-131 -143h-330z" />
    <glyph glyph-name="otilde" unicode="&#xf5;" 
d="M707 297q90 0 152.5 65.5t62.5 159.5q0 76 -50.5 130.5t-123.5 54.5q-90 0 -153 -66t-63 -160q0 -76 51 -130t124 -54zM174 471q0 112 45.5 214t124 176.5t189.5 118.5t235 44q114 0 211 -39t162.5 -106t102 -157t36.5 -190q0 -112 -45.5 -214t-124 -176t-189.5 -118
t-235 -44q-114 0 -211 39t-162.5 106t-102 156.5t-36.5 189.5zM442 1116l23 105q26 117 90.5 180t153.5 63q48 0 90.5 -14.5t67 -31.5t54 -31.5t56.5 -14.5q30 0 53.5 25t30.5 67h215l-23 -104q-26 -117 -90 -180.5t-153 -63.5q-48 0 -90.5 14.5t-67 31.5t-54.5 31.5
t-57 14.5q-30 0 -53.5 -25t-30.5 -67h-215z" />
    <glyph glyph-name="odieresis" unicode="&#xf6;" 
d="M707 297q90 0 152.5 65.5t62.5 159.5q0 76 -50.5 130.5t-123.5 54.5q-90 0 -153 -66t-63 -160q0 -76 51 -130t124 -54zM174 471q0 112 45.5 214t124 176.5t189.5 118.5t235 44q114 0 211 -39t162.5 -106t102 -157t36.5 -190q0 -112 -45.5 -214t-124 -176t-189.5 -118
t-235 -44q-114 0 -211 39t-162.5 106t-102 156.5t-36.5 189.5zM645 1485q66 0 111 -46t45 -114q0 -77 -58 -132.5t-137 -55.5q-66 0 -110.5 45.5t-44.5 113.5q0 77 57.5 133t136.5 56zM1077 1137q-66 0 -110.5 45.5t-44.5 113.5q0 77 57.5 133t136.5 56q66 0 111 -46
t45 -114q0 -77 -58 -132.5t-137 -55.5z" />
    <glyph glyph-name="divide" unicode="&#xf7;" horiz-adv-x="1085" 
d="M215 471v266h922v-266h-922zM481 195q0 79 55 131.5t140 52.5t139.5 -52.5t54.5 -131.5t-54.5 -132t-139.5 -53t-140 53t-55 132zM481 1014q0 79 55 131.5t140 52.5t139.5 -52.5t54.5 -131.5t-54.5 -132t-139.5 -53t-140 53t-55 132z" />
    <glyph glyph-name="oslash" unicode="&#xf8;" 
d="M227 -29l-92 92l131 117q-92 127 -92 291q0 112 45.5 214t124 176.5t189.5 118.5t235 44q189 0 330 -109l135 121l92 -92l-137 -123q92 -127 92 -289q0 -112 -45.5 -214t-124 -176t-189.5 -118t-235 -44q-193 0 -330 106zM541 424l293 258q-42 25 -86 25q-90 0 -153 -66
t-63 -160q0 -33 9 -57zM913 580l-292 -261q42 -22 86 -22q90 0 152.5 65.5t62.5 159.5q0 34 -9 58z" />
    <glyph glyph-name="ugrave" unicode="&#xf9;" 
d="M215 436l121 568h348l-111 -519q-4 -20 -4 -45q0 -57 33.5 -95t93.5 -38q64 0 115 45t68 121l112 531h348l-213 -1004h-348l27 133h-10q-28 -40 -72 -78q-90 -75 -211 -75q-141 0 -227 87.5t-86 239.5q0 54 16 129zM698 1137l-176 327h369l104 -327h-297z" />
    <glyph glyph-name="uacute" unicode="&#xfa;" 
d="M215 436l121 568h348l-111 -519q-4 -20 -4 -45q0 -57 33.5 -95t93.5 -38q64 0 115 45t68 121l112 531h348l-213 -1004h-348l27 133h-10q-28 -40 -72 -78q-90 -75 -211 -75q-141 0 -227 87.5t-86 239.5q0 54 16 129zM668 1137l243 327h369l-315 -327h-297z" />
    <glyph glyph-name="ucircumflex" unicode="&#xfb;" 
d="M215 436l121 568h348l-111 -519q-4 -20 -4 -45q0 -57 33.5 -95t93.5 -38q64 0 115 45t68 121l112 531h348l-213 -1004h-348l27 133h-10q-28 -40 -72 -78q-90 -75 -211 -75q-141 0 -227 87.5t-86 239.5q0 54 16 129zM422 1137l336 327h307l197 -327h-306l-73 143
l-131 -143h-330z" />
    <glyph glyph-name="udieresis" unicode="&#xfc;" 
d="M215 436l121 568h348l-111 -519q-4 -20 -4 -45q0 -57 33.5 -95t93.5 -38q64 0 115 45t68 121l112 531h348l-213 -1004h-348l27 133h-10q-28 -40 -72 -78q-90 -75 -211 -75q-141 0 -227 87.5t-86 239.5q0 54 16 129zM666 1485q66 0 110.5 -46t44.5 -114
q0 -77 -57.5 -132.5t-136.5 -55.5q-66 0 -111 46t-45 113q0 77 58 133t137 56zM1098 1137q-66 0 -111 46t-45 113q0 77 58 133t137 56q66 0 110.5 -46t44.5 -114q0 -77 -57.5 -132.5t-136.5 -55.5z" />
    <glyph glyph-name="yacute" unicode="&#xfd;" horiz-adv-x="1105" 
d="M-4 -377l63 305l43 -16q44 -14 82 -14q105 0 154 82l27 45l-162 979h358l45 -584h8l295 584h400l-650 -1098q-105 -180 -203 -258t-229 -78q-85 0 -164 27q-29 7 -67 26zM586 1137l243 327h369l-315 -327h-297z" />
    <glyph glyph-name="thorn" unicode="&#xfe;" horiz-adv-x="1300" 
d="M43 -430l393 1864h348l-116 -564h10q31 42 74 76q98 78 221 78q154 0 260 -120t106 -320q0 -130 -44.5 -244.5t-117.5 -192.5t-167 -122.5t-191 -44.5q-149 0 -235 98q-39 45 -56 98h-12l-125 -606h-348zM756 297q89 0 157 66.5t68 160.5q0 76 -48 129.5t-124 53.5
q-89 0 -157 -67t-68 -161q0 -76 48 -129t124 -53z" />
    <glyph glyph-name="ydieresis" unicode="&#xff;" horiz-adv-x="1105" 
d="M-4 -377l63 305l43 -16q44 -14 82 -14q105 0 154 82l27 45l-162 979h358l45 -584h8l295 584h400l-650 -1098q-105 -180 -203 -258t-229 -78q-85 0 -164 27q-29 7 -67 26zM563 1485q66 0 111 -46t45 -114q0 -77 -58 -132.5t-137 -55.5q-66 0 -110.5 45.5t-44.5 113.5
q0 77 57.5 133t136.5 56zM995 1137q-66 0 -110.5 45.5t-44.5 113.5q0 77 57.5 133t136.5 56q66 0 111 -46t45 -114q0 -77 -58 -132.5t-137 -55.5z" />
    <glyph glyph-name="Amacron" unicode="&#x100;" horiz-adv-x="1495" 
d="M786 625h267l-41 409h-8zM10 0l846 1434h430l240 -1434h-400l-39 307h-471l-165 -307h-441zM762 1638l57 267h656l-58 -267h-655z" />
    <glyph glyph-name="amacron" unicode="&#x101;" horiz-adv-x="1105" 
d="M655 0l25 123h-10q-30 -46 -66 -72q-86 -71 -205 -71q-125 0 -204.5 80.5t-79.5 189.5q0 270 366 342l314 63q-24 111 -160 111q-77 0 -139 -41q-29 -17 -56 -41l-145 190q48 39 113 74q140 76 288 76q197 0 318 -107t121 -268q0 -19 -2 -35t-5.5 -29t-3.5 -16l-120 -569
h-349zM741 406l9 45l-160 -33q-103 -23 -103 -101q0 -33 21.5 -52t62.5 -19q66 0 112 44t58 116zM465 1178l57 266h656l-58 -266h-655z" />
    <glyph glyph-name="Abreve" unicode="&#x102;" horiz-adv-x="1495" 
d="M786 625h267l-41 409h-8zM10 0l846 1434h430l240 -1434h-400l-39 307h-471l-165 -307h-441zM782 1925h244v-12q0 -39 25.5 -64.5t68.5 -25.5q46 0 75.5 28.5t37.5 73.5h244q-5 -88 -55.5 -164t-132 -120t-173.5 -44q-148 0 -242 83.5t-94 207.5q0 23 2 37z" />
    <glyph glyph-name="abreve" unicode="&#x103;" horiz-adv-x="1105" 
d="M655 0l25 123h-10q-30 -46 -66 -72q-86 -71 -205 -71q-125 0 -204.5 80.5t-79.5 189.5q0 270 366 342l314 63q-24 111 -160 111q-77 0 -139 -41q-29 -17 -56 -41l-145 190q48 39 113 74q140 76 288 76q197 0 318 -107t121 -268q0 -19 -2 -35t-5.5 -29t-3.5 -16l-120 -569
h-349zM741 406l9 45l-160 -33q-103 -23 -103 -101q0 -33 21.5 -52t62.5 -19q66 0 112 44t58 116zM485 1464h244v-12q0 -39 25.5 -64.5t68.5 -25.5q46 0 75.5 28.5t37.5 73.5h244q-5 -88 -56 -163.5t-132 -119.5t-173 -44q-148 0 -242 83t-94 207q0 23 2 37z" />
    <glyph glyph-name="Aogonek" unicode="&#x104;" horiz-adv-x="1495" 
d="M10 0l846 1434h430l240 -1434h-256q-36 -41 -53 -72q-52 -83 -52 -147q0 -78 84 -78q34 0 64 10l26 13l-41 -193l-36 -12q-54 -13 -103 -13q-113 0 -182.5 55.5t-69.5 147.5q0 118 109 215q52 46 110 74l-39 307h-471l-165 -307h-441zM786 625h267l-41 409h-8z" />
    <glyph glyph-name="aogonek" unicode="&#x105;" horiz-adv-x="1105" 
d="M868 -274l-41 -193l-36 -12q-54 -13 -103 -13q-113 0 -182.5 55.5t-69.5 147.5q0 118 109 215q52 46 110 74l25 123h-10q-30 -46 -66 -72q-86 -71 -205 -71q-125 0 -204.5 80.5t-79.5 189.5q0 270 366 342l314 63q-24 111 -160 111q-77 0 -139 -41q-29 -17 -56 -41
l-145 190q48 39 113 74q140 76 288 76q197 0 318 -107t121 -268q0 -19 -2 -35t-5.5 -29t-3.5 -16l-120 -569h-205q-38 -44 -54 -72q-51 -81 -51 -147q0 -78 84 -78q34 0 64 10zM741 406l9 45l-160 -33q-103 -23 -103 -101q0 -33 21.5 -52t62.5 -19q66 0 112 44t58 116z" />
    <glyph glyph-name="Cacute" unicode="&#x106;" horiz-adv-x="1556" 
d="M1378 459l183 -277q-60 -57 -158 -112q-210 -111 -440 -111q-161 0 -300.5 58t-234.5 155.5t-149 228.5t-54 275q0 158 69.5 305.5t185.5 255.5t276.5 173t335.5 65q285 0 481 -160q87 -72 141 -158l-266 -246q-39 56 -92 103q-126 102 -291 102q-117 0 -218 -55.5
t-161.5 -155t-60.5 -219.5q0 -151 104 -260t264 -109q141 0 277 70q54 27 108 72zM965 1597l243 328h369l-315 -328h-297z" />
    <glyph glyph-name="cacute" unicode="&#x107;" horiz-adv-x="1095" 
d="M938 377l158 -238q-42 -44 -105 -80q-139 -79 -305 -79q-151 0 -269.5 68.5t-180.5 179.5t-62 243q0 112 45.5 214t124 176.5t189.5 118.5t235 44q199 0 344 -111q59 -48 98 -108l-243 -203q-20 30 -47 51q-66 54 -162 54q-93 0 -159.5 -67.5t-66.5 -158.5q0 -80 56 -133
t147 -53q86 0 148 41q26 16 55 41zM647 1137l244 327h369l-316 -327h-297z" />
    <glyph glyph-name="Ccircumflex" unicode="&#x108;" horiz-adv-x="1556" 
d="M1378 459l183 -277q-60 -57 -158 -112q-210 -111 -440 -111q-161 0 -300.5 58t-234.5 155.5t-149 228.5t-54 275q0 158 69.5 305.5t185.5 255.5t276.5 173t335.5 65q285 0 481 -160q87 -72 141 -158l-266 -246q-39 56 -92 103q-126 102 -291 102q-117 0 -218 -55.5
t-161.5 -155t-60.5 -219.5q0 -151 104 -260t264 -109q141 0 277 70q54 27 108 72zM709 1597l335 328h308l196 -328h-305l-74 144l-131 -144h-329z" />
    <glyph glyph-name="ccircumflex" unicode="&#x109;" horiz-adv-x="1095" 
d="M938 377l158 -238q-42 -44 -105 -80q-139 -79 -305 -79q-151 0 -269.5 68.5t-180.5 179.5t-62 243q0 112 45.5 214t124 176.5t189.5 118.5t235 44q199 0 344 -111q59 -48 98 -108l-243 -203q-20 30 -47 51q-66 54 -162 54q-93 0 -159.5 -67.5t-66.5 -158.5q0 -80 56 -133
t147 -53q86 0 148 41q26 16 55 41zM381 1137l336 327h307l197 -327h-306l-73 143l-131 -143h-330z" />
    <glyph glyph-name="Cdotaccent" unicode="&#x10a;" horiz-adv-x="1556" 
d="M1378 459l183 -277q-60 -57 -158 -112q-210 -111 -440 -111q-161 0 -300.5 58t-234.5 155.5t-149 228.5t-54 275q0 158 69.5 305.5t185.5 255.5t276.5 173t335.5 65q285 0 481 -160q87 -72 141 -158l-266 -246q-39 56 -92 103q-126 102 -291 102q-117 0 -218 -55.5
t-161.5 -155t-60.5 -219.5q0 -151 104 -260t264 -109q141 0 277 70q54 27 108 72zM973 1745q0 83 63 142t154 59q77 0 126.5 -47.5t49.5 -120.5q0 -83 -63 -142t-154 -59q-77 0 -126.5 47.5t-49.5 120.5z" />
    <glyph glyph-name="cdotaccent" unicode="&#x10b;" horiz-adv-x="1095" 
d="M938 377l158 -238q-42 -44 -105 -80q-139 -79 -305 -79q-151 0 -269.5 68.5t-180.5 179.5t-62 243q0 112 45.5 214t124 176.5t189.5 118.5t235 44q199 0 344 -111q59 -48 98 -108l-243 -203q-20 30 -47 51q-66 54 -162 54q-93 0 -159.5 -67.5t-66.5 -158.5q0 -80 56 -133
t147 -53q86 0 148 41q26 16 55 41zM645 1284q0 83 63 142t154 59q77 0 126.5 -47.5t49.5 -120.5q0 -83 -63 -142t-154 -59q-77 0 -126.5 47.5t-49.5 120.5z" />
    <glyph glyph-name="Ccaron" unicode="&#x10c;" horiz-adv-x="1556" 
d="M1378 459l183 -277q-60 -57 -158 -112q-210 -111 -440 -111q-161 0 -300.5 58t-234.5 155.5t-149 228.5t-54 275q0 158 69.5 305.5t185.5 255.5t276.5 173t335.5 65q285 0 481 -160q87 -72 141 -158l-266 -246q-39 56 -92 103q-126 102 -291 102q-117 0 -218 -55.5
t-161.5 -155t-60.5 -219.5q0 -151 104 -260t264 -109q141 0 277 70q54 27 108 72zM975 1597l-197 328h305l74 -143l131 143h330l-336 -328h-307z" />
    <glyph glyph-name="ccaron" unicode="&#x10d;" horiz-adv-x="1095" 
d="M938 377l158 -238q-42 -44 -105 -80q-139 -79 -305 -79q-151 0 -269.5 68.5t-180.5 179.5t-62 243q0 112 45.5 214t124 176.5t189.5 118.5t235 44q199 0 344 -111q59 -48 98 -108l-243 -203q-20 30 -47 51q-66 54 -162 54q-93 0 -159.5 -67.5t-66.5 -158.5q0 -80 56 -133
t147 -53q86 0 148 41q26 16 55 41zM647 1137l-196 327h305l73 -143l132 143h329l-336 -327h-307z" />
    <glyph glyph-name="Dcaron" unicode="&#x10e;" horiz-adv-x="1556" 
d="M164 0l303 1434h477q194 0 352.5 -86t248 -236.5t89.5 -333.5q0 -161 -64.5 -305t-175 -248t-264.5 -164.5t-325 -60.5h-641zM625 348h202q174 0 291 116.5t117 295.5q0 138 -83 231.5t-239 93.5h-131zM893 1597l-197 328h305l74 -143l131 143h330l-336 -328h-307z" />
    <glyph glyph-name="dcaron" unicode="&#x10f;" horiz-adv-x="1495" 
d="M817 0l27 133h-10q-29 -43 -74 -78q-94 -75 -221 -75q-154 0 -260.5 120t-106.5 320q0 130 44.5 244.5t117.5 192.5t167 122.5t191 44.5q150 0 236 -98q37 -43 55 -99h12l125 607h348l-303 -1434h-348zM702 297q89 0 157.5 66.5t68.5 160.5q0 76 -48 129.5t-124 53.5
q-89 0 -157.5 -67t-68.5 -161q0 -76 48 -129t124 -53zM1462 1106l170 328h328l-223 -328h-275z" />
    <glyph glyph-name="Dcroat" unicode="&#x110;" horiz-adv-x="1587" 
d="M195 0l135 645h-154l31 143h153l138 646h477q194 0 352.5 -86t248 -236.5t89.5 -333.5q0 -161 -64.5 -305t-175 -248t-264.5 -164.5t-325 -60.5h-641zM655 348h203q174 0 291 116.5t117 295.5q0 138 -83 231.5t-239 93.5h-131l-63 -297h215l-31 -143h-215z" />
    <glyph glyph-name="dslash" unicode="&#x111;" horiz-adv-x="1290" 
d="M788 0l25 123h-10q-40 -47 -74 -72q-86 -71 -209 -71q-156 0 -259 114.5t-103 296.5q0 119 42 224t110 175.5t153 111t172 40.5q152 0 244 -92q37 -37 59 -92h10l76 358h-195l29 133h195l39 185h348l-39 -185h153l-28 -133h-154l-235 -1116h-349zM680 266q84 0 147.5 63
t63.5 156q0 73 -46.5 121.5t-117.5 48.5q-84 0 -147.5 -63.5t-63.5 -155.5q0 -73 46.5 -121.5t117.5 -48.5z" />
    <glyph glyph-name="Emacron" unicode="&#x112;" horiz-adv-x="1361" 
d="M164 0l303 1434h1096l-74 -349h-707l-43 -204h543l-70 -328h-542l-43 -205h727l-74 -348h-1116zM700 1638l58 267h655l-57 -267h-656z" />
    <glyph glyph-name="emacron" unicode="&#x113;" horiz-adv-x="1187" 
d="M969 322l86 -244q-53 -31 -101 -49q-123 -49 -268 -49q-114 0 -211 39t-162.5 106t-102 156.5t-36.5 189.5q0 112 45.5 214t124 176.5t189.5 118.5t235 44q136 0 243.5 -62.5t165.5 -167t58 -231.5q0 -85 -27 -164h-690q8 -55 70 -99t160 -44q79 0 159 33q36 16 62 33z
M545 614h356q-6 57 -50.5 95.5t-113.5 38.5q-64 0 -119.5 -37t-72.5 -97zM496 1178l57 266h655l-57 -266h-655z" />
    <glyph glyph-name="Ebreve" unicode="&#x114;" horiz-adv-x="1361" 
d="M164 0l303 1434h1096l-74 -349h-707l-43 -204h543l-70 -328h-542l-43 -205h727l-74 -348h-1116zM721 1925h244v-12q0 -39 25.5 -64.5t68.5 -25.5q45 0 74.5 28.5t37.5 73.5h244q-5 -88 -55.5 -164t-131.5 -120t-173 -44q-148 0 -242 83.5t-94 207.5q0 23 2 37z" />
    <glyph glyph-name="ebreve" unicode="&#x115;" horiz-adv-x="1187" 
d="M969 322l86 -244q-53 -31 -101 -49q-123 -49 -268 -49q-114 0 -211 39t-162.5 106t-102 156.5t-36.5 189.5q0 112 45.5 214t124 176.5t189.5 118.5t235 44q136 0 243.5 -62.5t165.5 -167t58 -231.5q0 -85 -27 -164h-690q8 -55 70 -99t160 -44q79 0 159 33q36 16 62 33z
M545 614h356q-6 57 -50.5 95.5t-113.5 38.5q-64 0 -119.5 -37t-72.5 -97zM516 1464h244v-12q0 -39 25.5 -64.5t68.5 -25.5q46 0 75.5 28.5t37.5 73.5h243q-5 -88 -55.5 -163.5t-131.5 -119.5t-173 -44q-148 0 -242 83t-94 207q0 23 2 37z" />
    <glyph glyph-name="Edotaccent" unicode="&#x116;" horiz-adv-x="1361" 
d="M164 0l303 1434h1096l-74 -349h-707l-43 -204h543l-70 -328h-542l-43 -205h727l-74 -348h-1116zM850 1745q0 83 63 142t154 59q77 0 126.5 -47.5t49.5 -120.5q0 -83 -63 -142t-154 -59q-77 0 -126.5 47.5t-49.5 120.5z" />
    <glyph glyph-name="edotaccent" unicode="&#x117;" horiz-adv-x="1187" 
d="M969 322l86 -244q-53 -31 -101 -49q-123 -49 -268 -49q-114 0 -211 39t-162.5 106t-102 156.5t-36.5 189.5q0 112 45.5 214t124 176.5t189.5 118.5t235 44q136 0 243.5 -62.5t165.5 -167t58 -231.5q0 -85 -27 -164h-690q8 -55 70 -99t160 -44q79 0 159 33q36 16 62 33z
M545 614h356q-6 57 -50.5 95.5t-113.5 38.5q-64 0 -119.5 -37t-72.5 -97zM645 1284q0 83 63 142t154 59q77 0 126.5 -47.5t49.5 -120.5q0 -83 -63 -142t-154 -59q-77 0 -126.5 47.5t-49.5 120.5z" />
    <glyph glyph-name="Eogonek" unicode="&#x118;" horiz-adv-x="1361" 
d="M164 0l303 1434h1096l-74 -349h-707l-43 -204h543l-70 -328h-542l-43 -205h727l-74 -348q-36 -41 -53 -72q-51 -81 -51 -147q0 -78 84 -78q33 0 63 10l27 13l-41 -193l-37 -12q-54 -13 -103 -13q-113 0 -182 55.5t-69 147.5q0 119 108 215q51 45 111 74h-973z" />
    <glyph glyph-name="eogonek" unicode="&#x119;" horiz-adv-x="1187" 
d="M831 -274l-40 -193l-37 -12q-54 -13 -103 -13q-113 0 -182.5 55.5t-69.5 147.5q0 53 20.5 101t54 82.5t61 56t55.5 37.5q-186 29 -301 165.5t-115 317.5q0 112 45.5 214t124 176.5t189.5 118.5t235 44q136 0 243.5 -62.5t165.5 -167t58 -231.5q0 -85 -27 -164h-690
q8 -55 70 -99t160 -44q79 0 159 33q36 16 62 33l86 -244q-38 -23 -82 -43q-102 -42 -228 -53q-88 -106 -88 -201q0 -78 84 -78q34 0 64 10zM545 614h356q-6 57 -50.5 95.5t-113.5 38.5q-64 0 -119.5 -37t-72.5 -97z" />
    <glyph glyph-name="Ecaron" unicode="&#x11a;" horiz-adv-x="1361" 
d="M164 0l303 1434h1096l-74 -349h-707l-43 -204h543l-70 -328h-542l-43 -205h727l-74 -348h-1116zM852 1597l-197 328h306l73 -143l131 143h330l-336 -328h-307z" />
    <glyph glyph-name="ecaron" unicode="&#x11b;" horiz-adv-x="1187" 
d="M969 322l86 -244q-53 -31 -101 -49q-123 -49 -268 -49q-114 0 -211 39t-162.5 106t-102 156.5t-36.5 189.5q0 112 45.5 214t124 176.5t189.5 118.5t235 44q136 0 243.5 -62.5t165.5 -167t58 -231.5q0 -85 -27 -164h-690q8 -55 70 -99t160 -44q79 0 159 33q36 16 62 33z
M545 614h356q-6 57 -50.5 95.5t-113.5 38.5q-64 0 -119.5 -37t-72.5 -97zM647 1137l-196 327h305l73 -143l132 143h329l-336 -327h-307z" />
    <glyph glyph-name="Gcircumflex" unicode="&#x11c;" horiz-adv-x="1628" 
d="M1020 512l59 287h615l-129 -613q-59 -54 -160 -114q-206 -113 -442 -113q-161 0 -300.5 58t-234.5 155.5t-149 228.5t-54 275q0 158 69.5 305.5t185.5 255.5t276.5 173t335.5 65q285 0 481 -160q87 -72 141 -158l-266 -246q-39 56 -92 103q-126 102 -291 102
q-117 0 -218 -55.5t-161.5 -155t-60.5 -219.5q0 -151 104 -260t264 -109q93 0 166 25q37 9 66 25l30 145h-235zM719 1597l336 328h307l197 -328h-306l-73 144l-131 -144h-330z" />
    <glyph glyph-name="gcircumflex" unicode="&#x11d;" horiz-adv-x="1269" 
d="M539 514q0 -70 48.5 -118t121.5 -48q77 0 138.5 59t61.5 140q0 69 -47 119.5t-119 50.5q-79 0 -141.5 -61t-62.5 -142zM66 -197l235 211q21 -40 57 -69q76 -68 195 -68q97 0 169.5 57t92.5 150l21 92h-13q-36 -42 -73 -67q-95 -68 -211 -68q-146 0 -252.5 116.5
t-106.5 301.5q0 125 43 233t113 179.5t158 112t178 40.5q149 0 235 -98q38 -44 56 -99h12l37 177h348l-203 -957q-44 -212 -219.5 -344.5t-405.5 -132.5q-213 0 -360 117q-68 55 -106 116zM412 1137l336 327h307l196 -327h-305l-74 143l-131 -143h-329z" />
    <glyph glyph-name="Gbreve" unicode="&#x11e;" horiz-adv-x="1628" 
d="M1020 512l59 287h615l-129 -613q-59 -54 -160 -114q-206 -113 -442 -113q-161 0 -300.5 58t-234.5 155.5t-149 228.5t-54 275q0 158 69.5 305.5t185.5 255.5t276.5 173t335.5 65q285 0 481 -160q87 -72 141 -158l-266 -246q-39 56 -92 103q-126 102 -291 102
q-117 0 -218 -55.5t-161.5 -155t-60.5 -219.5q0 -151 104 -260t264 -109q93 0 166 25q37 9 66 25l30 145h-235zM854 1925h244v-12q0 -39 25.5 -64.5t68.5 -25.5q46 0 75.5 28.5t37.5 73.5h243q-5 -88 -55.5 -164t-131.5 -120t-173 -44q-148 0 -242 83.5t-94 207.5q0 23 2 37
z" />
    <glyph glyph-name="gbreve" unicode="&#x11f;" horiz-adv-x="1269" 
d="M539 514q0 -70 48.5 -118t121.5 -48q77 0 138.5 59t61.5 140q0 69 -47 119.5t-119 50.5q-79 0 -141.5 -61t-62.5 -142zM66 -197l235 211q21 -40 57 -69q76 -68 195 -68q97 0 169.5 57t92.5 150l21 92h-13q-36 -42 -73 -67q-95 -68 -211 -68q-146 0 -252.5 116.5
t-106.5 301.5q0 125 43 233t113 179.5t158 112t178 40.5q149 0 235 -98q38 -44 56 -99h12l37 177h348l-203 -957q-44 -212 -219.5 -344.5t-405.5 -132.5q-213 0 -360 117q-68 55 -106 116zM547 1464h244v-12q0 -39 25.5 -64.5t68.5 -25.5q45 0 74.5 28.5t37.5 73.5h244
q-5 -88 -55.5 -163.5t-131.5 -119.5t-173 -44q-148 0 -242 83t-94 207q0 23 2 37z" />
    <glyph glyph-name="Gdotaccent" unicode="&#x120;" horiz-adv-x="1628" 
d="M1020 512l59 287h615l-129 -613q-59 -54 -160 -114q-206 -113 -442 -113q-161 0 -300.5 58t-234.5 155.5t-149 228.5t-54 275q0 158 69.5 305.5t185.5 255.5t276.5 173t335.5 65q285 0 481 -160q87 -72 141 -158l-266 -246q-39 56 -92 103q-126 102 -291 102
q-117 0 -218 -55.5t-161.5 -155t-60.5 -219.5q0 -151 104 -260t264 -109q93 0 166 25q37 9 66 25l30 145h-235zM983 1745q0 83 63 142t154 59q77 0 126.5 -47.5t49.5 -120.5q0 -83 -63 -142t-154 -59q-77 0 -126.5 47.5t-49.5 120.5z" />
    <glyph glyph-name="gdotaccent" unicode="&#x121;" horiz-adv-x="1269" 
d="M539 514q0 -70 48.5 -118t121.5 -48q77 0 138.5 59t61.5 140q0 69 -47 119.5t-119 50.5q-79 0 -141.5 -61t-62.5 -142zM66 -197l235 211q21 -40 57 -69q76 -68 195 -68q97 0 169.5 57t92.5 150l21 92h-13q-36 -42 -73 -67q-95 -68 -211 -68q-146 0 -252.5 116.5
t-106.5 301.5q0 125 43 233t113 179.5t158 112t178 40.5q149 0 235 -98q38 -44 56 -99h12l37 177h348l-203 -957q-44 -212 -219.5 -344.5t-405.5 -132.5q-213 0 -360 117q-68 55 -106 116zM676 1284q0 83 63 142t154 59q77 0 126.5 -47.5t49.5 -120.5q0 -83 -63 -142
t-154 -59q-77 0 -126.5 47.5t-49.5 120.5z" />
    <glyph glyph-name="Gcommaaccent" unicode="&#x122;" horiz-adv-x="1628" 
d="M1020 512l59 287h615l-129 -613q-59 -54 -160 -114q-206 -113 -442 -113q-161 0 -300.5 58t-234.5 155.5t-149 228.5t-54 275q0 158 69.5 305.5t185.5 255.5t276.5 173t335.5 65q285 0 481 -160q87 -72 141 -158l-266 -246q-39 56 -92 103q-126 102 -291 102
q-117 0 -218 -55.5t-161.5 -155t-60.5 -219.5q0 -151 104 -260t264 -109q93 0 166 25q37 9 66 25l30 145h-235zM541 -492l170 328h327l-223 -328h-274z" />
    <glyph glyph-name="gcommaaccent" unicode="&#x123;" horiz-adv-x="1269" 
d="M659 1137l224 327h276l-172 -327h-328zM539 514q0 -70 48.5 -118t121.5 -48q77 0 138.5 59t61.5 140q0 69 -47 119.5t-119 50.5q-79 0 -141.5 -61t-62.5 -142zM66 -197l235 211q21 -40 57 -69q76 -68 195 -68q97 0 169.5 57t92.5 150l21 92h-13q-36 -42 -73 -67
q-95 -68 -211 -68q-146 0 -252.5 116.5t-106.5 301.5q0 125 43 233t113 179.5t158 112t178 40.5q149 0 235 -98q38 -44 56 -99h12l37 177h348l-203 -957q-44 -212 -219.5 -344.5t-405.5 -132.5q-213 0 -360 117q-68 55 -106 116z" />
    <glyph glyph-name="Hcircumflex" unicode="&#x124;" horiz-adv-x="1628" 
d="M164 0l303 1434h389l-111 -523h523l110 523h389l-303 -1434h-389l115 543h-522l-115 -543h-389zM709 1597l335 328h308l196 -328h-305l-74 144l-131 -144h-329z" />
    <glyph glyph-name="hcircumflex" unicode="&#x125;" 
d="M133 0l303 1434h348l-116 -564h10q29 40 72 76q94 78 211 78q141 0 227 -88t86 -240q0 -49 -17 -129l-120 -567h-349l111 518q4 20 4 45q0 57 -33.5 95t-93.5 38q-64 0 -114.5 -44.5t-67.5 -121.5l-113 -530h-348zM514 1597l336 328h307l197 -328h-305l-74 144l-131 -144
h-330z" />
    <glyph glyph-name="Hbar" unicode="&#x126;" horiz-adv-x="1628" 
d="M195 0l229 1085h-154l27 123h154l47 226h389l-47 -226h481l47 226h389l-47 -226h154l-27 -123h-154l-229 -1085h-389l115 543h-482l-114 -543h-389zM776 911h481l37 174h-481z" />
    <glyph glyph-name="hbar" unicode="&#x127;" horiz-adv-x="1269" 
d="M154 0l235 1116h-153l28 133h154l39 185h348l-39 -185h215l-29 -133h-215l-59 -287h10q29 40 72 76q94 78 211 78q141 0 227 -88t86 -240q0 -41 -16 -129l-111 -526h-348l102 477q4 20 4 45q0 57 -33.5 95t-93.5 38q-64 0 -114.5 -44.5t-67.5 -121.5l-104 -489h-348z" />
    <glyph glyph-name="Imacron" unicode="&#x12a;" horiz-adv-x="716" 
d="M164 0l303 1434h389l-303 -1434h-389zM373 1638l57 267h655l-57 -267h-655z" />
    <glyph glyph-name="imacron" unicode="&#x12b;" horiz-adv-x="614" 
d="M133 0l213 1004h348l-213 -1004h-348zM240 1178l57 266h655l-57 -266h-655z" />
    <glyph glyph-name="Ibreve" unicode="&#x12c;" horiz-adv-x="716" 
d="M164 0l303 1434h389l-303 -1434h-389zM393 1925h244v-12q0 -39 25.5 -64.5t68.5 -25.5q46 0 75.5 28.5t37.5 73.5h243q-5 -88 -55.5 -164t-131.5 -120t-173 -44q-148 0 -242 83.5t-94 207.5q0 23 2 37z" />
    <glyph glyph-name="ibreve" unicode="&#x12d;" horiz-adv-x="614" 
d="M133 0l213 1004h348l-213 -1004h-348zM260 1464h244v-12q0 -39 25.5 -64.5t68.5 -25.5q46 0 75.5 28.5t37.5 73.5h243q-5 -88 -55.5 -163.5t-131.5 -119.5t-173 -44q-148 0 -242 83t-94 207q0 23 2 37z" />
    <glyph glyph-name="Iogonek" unicode="&#x12e;" horiz-adv-x="716" 
d="M377 -274l-41 -193l-37 -12q-54 -13 -102 -13q-113 0 -182.5 55.5t-69.5 147.5q0 119 108 215q51 45 111 74l303 1434h389l-303 -1434h-246q-36 -41 -53 -72q-51 -81 -51 -147q0 -78 84 -78q33 0 63 10z" />
    <glyph glyph-name="iogonek" unicode="&#x12f;" horiz-adv-x="614" 
d="M346 -274l-41 -193l-37 -12q-54 -13 -102 -13q-113 0 -182.5 55.5t-69.5 147.5q0 118 109 215q52 46 110 74l213 1004h348l-213 -1004h-205q-36 -41 -53 -72q-51 -81 -51 -147q0 -78 84 -78q33 0 63 10zM383 1274q0 83 63 142t154 59q77 0 126.5 -47.5t49.5 -120.5
q0 -83 -63 -142t-154 -59q-77 0 -126.5 47.5t-49.5 120.5z" />
    <glyph glyph-name="Idot" unicode="&#x130;" horiz-adv-x="716" 
d="M164 0l303 1434h389l-303 -1434h-389zM522 1745q0 83 63 142t154 59q77 0 126.5 -47.5t49.5 -120.5q0 -83 -63 -142t-154 -59q-77 0 -126.5 47.5t-49.5 120.5z" />
    <glyph glyph-name="dotlessi" unicode="&#x131;" horiz-adv-x="614" 
d="M133 0l213 1004h348l-213 -1004h-348z" />
    <glyph glyph-name="uni0132" unicode="&#x132;" horiz-adv-x="1710" 
d="M164 0l303 1434h389l-303 -1434h-389zM627 170l299 248q13 -29 35 -51q50 -50 120 -50q69 0 120.5 44t68.5 116l200 957h390l-211 -998q-44 -218 -199 -347.5t-375 -129.5q-227 0 -356 104q-54 43 -92 107z" />
    <glyph glyph-name="uni0133" unicode="&#x133;" horiz-adv-x="1198" 
d="M133 0l213 1004h348l-213 -1004h-348zM383 1274q0 83 63 142t154 59q77 0 126.5 -47.5t49.5 -120.5q0 -83 -63 -142t-154 -59q-77 0 -126.5 47.5t-49.5 120.5zM422 -377l63 307q6 -3 18 -8.5t17 -7.5q46 -16 78 -16q98 0 121 110l211 996h348l-227 -1082
q-35 -168 -139 -260t-248 -92q-87 0 -170 27q-27 7 -72 26zM967 1274q0 83 63 142t154 59q77 0 126.5 -47.5t49.5 -120.5q0 -83 -63 -142t-154 -59q-77 0 -126.5 47.5t-49.5 120.5z" />
    <glyph glyph-name="Jcircumflex" unicode="&#x134;" horiz-adv-x="1095" 
d="M12 170l299 248q13 -29 35 -51q50 -50 121 -50q69 0 120 44t68 116l201 957h389l-211 -998q-45 -218 -199 -347.5t-374 -129.5q-228 0 -357 104q-54 43 -92 107zM647 1597l336 328h307l197 -328h-305l-74 144l-131 -144h-330z" />
    <glyph glyph-name="jcircumflex" unicode="&#x135;" horiz-adv-x="614" 
d="M-162 -377l64 307q6 -3 18 -8.5t17 -7.5q46 -16 77 -16q98 0 121 110l211 996h348l-227 -1082q-35 -168 -139 -260t-248 -92q-87 0 -170 27q-27 7 -72 26zM125 1137l336 327h307l197 -327h-306l-73 143l-131 -143h-330z" />
    <glyph glyph-name="Kcommaaccent" unicode="&#x136;" horiz-adv-x="1495" 
d="M164 0l303 1434h389l-117 -553l588 553h483l-669 -625l362 -809h-438l-236 520l-206 -188l-70 -332h-389zM469 -492l170 328h328l-224 -328h-274z" />
    <glyph glyph-name="kcommaaccent" unicode="&#x137;" horiz-adv-x="1187" 
d="M133 0l303 1434h348l-161 -768l368 338h443l-502 -451l252 -553h-375l-150 348l-133 -131l-45 -217h-348zM315 -492l170 328h328l-223 -328h-275z" />
    <glyph glyph-name="Lacute" unicode="&#x139;" horiz-adv-x="1198" 
d="M164 0l303 1434h389l-225 -1065h624l-77 -369h-1014zM535 1597l243 328h369l-316 -328h-296z" />
    <glyph glyph-name="lacute" unicode="&#x13a;" horiz-adv-x="614" 
d="M133 0l303 1434h348l-303 -1434h-348zM494 1597l243 328h369l-315 -328h-297z" />
    <glyph glyph-name="Lcommaaccent" unicode="&#x13b;" horiz-adv-x="1198" 
d="M164 0l303 1434h389l-225 -1065h624l-77 -369h-1014zM367 -492l170 328h327l-223 -328h-274z" />
    <glyph glyph-name="lcommaaccent" unicode="&#x13c;" horiz-adv-x="614" 
d="M133 0l303 1434h348l-303 -1434h-348zM-63 -492l169 328h328l-223 -328h-274z" />
    <glyph glyph-name="Lcaron" unicode="&#x13d;" horiz-adv-x="1198" 
d="M164 0l303 1434h389l-225 -1065h624l-77 -369h-1014zM868 1106l172 328h328l-223 -328h-277z" />
    <glyph glyph-name="lcaron" unicode="&#x13e;" horiz-adv-x="808" 
d="M133 0l303 1434h348l-303 -1434h-348zM776 1106l172 328h328l-223 -328h-277z" />
    <glyph glyph-name="Ldot" unicode="&#x13f;" horiz-adv-x="1198" 
d="M164 0l303 1434h389l-225 -1065h624l-77 -369h-1014zM870 823q0 83 63 142t154 59q77 0 127 -48t50 -120q0 -83 -63 -142t-154 -59q-77 0 -127 48t-50 120z" />
    <glyph glyph-name="ldot" unicode="&#x140;" horiz-adv-x="993" 
d="M133 0l303 1434h348l-303 -1434h-348zM696 711q0 83 63 141.5t154 58.5q77 0 127 -48t50 -120q0 -83 -63.5 -141.5t-154.5 -58.5q-77 0 -126.5 47.5t-49.5 120.5z" />
    <glyph glyph-name="Lslash" unicode="&#x141;" horiz-adv-x="1280" 
d="M246 0l116 553l-217 -102l-26 112l274 133l156 738h389l-111 -523l217 103l27 -113l-274 -133l-84 -399h624l-77 -369h-1014z" />
    <glyph glyph-name="lslash" unicode="&#x142;" horiz-adv-x="819" 
d="M236 0l116 557l-196 -106l-39 102l266 143l156 738h348l-111 -527l197 107l39 -103l-267 -143l-161 -768h-348z" />
    <glyph glyph-name="Nacute" unicode="&#x143;" horiz-adv-x="1669" 
d="M164 0l303 1434h338l444 -809l170 809h389l-303 -1434h-338l-444 809l-170 -809h-389zM985 1597l244 328h368l-315 -328h-297z" />
    <glyph glyph-name="nacute" unicode="&#x144;" horiz-adv-x="1239" 
d="M123 0l213 1004h348l-27 -134h11q31 42 71 76q94 78 211 78q141 0 227.5 -88t86.5 -240q0 -49 -17 -129l-121 -567h-348l111 518q4 20 4 45q0 57 -33.5 95t-93.5 38q-64 0 -114.5 -44.5t-67.5 -121.5l-113 -530h-348zM668 1137l243 327h369l-315 -327h-297z" />
    <glyph glyph-name="Ncommaaccent" unicode="&#x145;" horiz-adv-x="1669" 
d="M164 0l303 1434h338l444 -809l170 809h389l-303 -1434h-338l-444 809l-170 -809h-389zM541 -492l170 328h327l-223 -328h-274z" />
    <glyph glyph-name="ncommaaccent" unicode="&#x146;" horiz-adv-x="1239" 
d="M123 0l213 1004h348l-27 -134h11q31 42 71 76q94 78 211 78q141 0 227.5 -88t86.5 -240q0 -49 -17 -129l-121 -567h-348l111 518q4 20 4 45q0 57 -33.5 95t-93.5 38q-64 0 -114.5 -44.5t-67.5 -121.5l-113 -530h-348zM295 -492l170 328h328l-224 -328h-274z" />
    <glyph glyph-name="Ncaron" unicode="&#x147;" horiz-adv-x="1669" 
d="M164 0l303 1434h338l444 -809l170 809h389l-303 -1434h-338l-444 809l-170 -809h-389zM985 1597l-197 328h306l73 -143l131 143h330l-336 -328h-307z" />
    <glyph glyph-name="ncaron" unicode="&#x148;" horiz-adv-x="1239" 
d="M123 0l213 1004h348l-27 -134h11q31 42 71 76q94 78 211 78q141 0 227.5 -88t86.5 -240q0 -49 -17 -129l-121 -567h-348l111 518q4 20 4 45q0 57 -33.5 95t-93.5 38q-64 0 -114.5 -44.5t-67.5 -121.5l-113 -530h-348zM668 1137l-197 327h305l74 -143l131 143h330
l-336 -327h-307z" />
    <glyph glyph-name="napostrophe" unicode="&#x149;" horiz-adv-x="1259" 
d="M143 0l213 1004h349l-27 -134h10q29 40 72 76q94 78 211 78q141 0 227 -88t86 -240q0 -54 -16 -129l-121 -567h-348l110 518q4 20 4 45q0 57 -33.5 95t-93.5 38q-64 0 -114.5 -44.5t-67.5 -121.5l-112 -530h-349zM125 1065l170 328h328l-224 -328h-274z" />
    <glyph glyph-name="Eng" unicode="&#x14a;" horiz-adv-x="1669" 
d="M471 -322l301 248q9 -27 33 -51q49 -49 121 -49q69 0 119 43t67 115l16 84l-405 741l-170 -809h-389l303 1434h338l444 -809l170 809h389l-315 -1489q-44 -216 -197.5 -346.5t-363.5 -130.5q-227 0 -363 104q-62 45 -98 106z" />
    <glyph glyph-name="eng" unicode="&#x14b;" 
d="M518 -412l62 297q11 -7 22 -10q19 -8 60 -8q89 0 110 102l117 549q4 20 4 45q0 57 -33.5 95t-93.5 38q-64 0 -114.5 -44.5t-67.5 -121.5l-113 -530h-348l213 1004h348l-27 -134h11q31 42 71 76q94 78 211 78q141 0 227.5 -88t86.5 -240q0 -49 -17 -129l-143 -678
q-35 -167 -138 -258.5t-247 -91.5q-81 0 -144 25q-32 8 -57 24z" />
    <glyph glyph-name="Omacron" unicode="&#x14c;" horiz-adv-x="1761" 
d="M995 317q115 0 216 54.5t163 154.5t62 222q0 98 -46 182t-131 135t-192 51q-115 0 -215.5 -54t-162.5 -154t-62 -222q0 -152 104 -260.5t264 -108.5zM227 676q0 159 69 306t185.5 255t278 173t338.5 65q132 0 249.5 -37.5t205.5 -104.5t152 -157t97 -197t33 -221
q0 -159 -69 -306t-185 -255t-277.5 -173t-338.5 -65q-132 0 -249.5 37t-205.5 104t-152.5 156.5t-97.5 196.5t-33 223zM854 1638l57 267h656l-58 -267h-655z" />
    <glyph glyph-name="omacron" unicode="&#x14d;" 
d="M707 297q90 0 152.5 65.5t62.5 159.5q0 76 -50.5 130.5t-123.5 54.5q-90 0 -153 -66t-63 -160q0 -76 51 -130t124 -54zM174 471q0 112 45.5 214t124 176.5t189.5 118.5t235 44q114 0 211 -39t162.5 -106t102 -157t36.5 -190q0 -112 -45.5 -214t-124 -176t-189.5 -118
t-235 -44q-114 0 -211 39t-162.5 106t-102 156.5t-36.5 189.5zM516 1178l57 266h656l-58 -266h-655z" />
    <glyph glyph-name="Obreve" unicode="&#x14e;" horiz-adv-x="1761" 
d="M995 317q115 0 216 54.5t163 154.5t62 222q0 98 -46 182t-131 135t-192 51q-115 0 -215.5 -54t-162.5 -154t-62 -222q0 -152 104 -260.5t264 -108.5zM227 676q0 159 69 306t185.5 255t278 173t338.5 65q132 0 249.5 -37.5t205.5 -104.5t152 -157t97 -197t33 -221
q0 -159 -69 -306t-185 -255t-277.5 -173t-338.5 -65q-132 0 -249.5 37t-205.5 104t-152.5 156.5t-97.5 196.5t-33 223zM874 1925h244v-12q0 -39 25.5 -64.5t68.5 -25.5q46 0 75.5 28.5t37.5 73.5h244q-5 -88 -55.5 -164t-132 -120t-173.5 -44q-148 0 -242 83.5t-94 207.5
q0 23 2 37z" />
    <glyph glyph-name="obreve" unicode="&#x14f;" 
d="M707 297q90 0 152.5 65.5t62.5 159.5q0 76 -50.5 130.5t-123.5 54.5q-90 0 -153 -66t-63 -160q0 -76 51 -130t124 -54zM174 471q0 112 45.5 214t124 176.5t189.5 118.5t235 44q114 0 211 -39t162.5 -106t102 -157t36.5 -190q0 -112 -45.5 -214t-124 -176t-189.5 -118
t-235 -44q-114 0 -211 39t-162.5 106t-102 156.5t-36.5 189.5zM537 1464h243v-12q0 -39 25.5 -64.5t68.5 -25.5q46 0 75.5 28.5t37.5 73.5h244q-5 -88 -56 -163.5t-132 -119.5t-173 -44q-148 0 -241.5 83t-93.5 207q0 23 2 37z" />
    <glyph glyph-name="Ohungarumlaut" unicode="&#x150;" horiz-adv-x="1761" 
d="M995 317q115 0 216 54.5t163 154.5t62 222q0 98 -46 182t-131 135t-192 51q-115 0 -215.5 -54t-162.5 -154t-62 -222q0 -152 104 -260.5t264 -108.5zM227 676q0 159 69 306t185.5 255t278 173t338.5 65q132 0 249.5 -37.5t205.5 -104.5t152 -157t97 -197t33 -221
q0 -159 -69 -306t-185 -255t-277.5 -173t-338.5 -65q-132 0 -249.5 37t-205.5 104t-152.5 156.5t-97.5 196.5t-33 223zM811 1597l254 328h328l-326 -328h-256zM1241 1597l254 328h328l-326 -328h-256z" />
    <glyph glyph-name="ohungarumlaut" unicode="&#x151;" 
d="M707 297q90 0 152.5 65.5t62.5 159.5q0 76 -50.5 130.5t-123.5 54.5q-90 0 -153 -66t-63 -160q0 -76 51 -130t124 -54zM174 471q0 112 45.5 214t124 176.5t189.5 118.5t235 44q114 0 211 -39t162.5 -106t102 -157t36.5 -190q0 -112 -45.5 -214t-124 -176t-189.5 -118
t-235 -44q-114 0 -211 39t-162.5 106t-102 156.5t-36.5 189.5zM473 1137l254 327h328l-326 -327h-256zM903 1137l254 327h328l-326 -327h-256z" />
    <glyph glyph-name="OE" unicode="&#x152;" horiz-adv-x="2088" 
d="M1415 348h666l-74 -348h-1085q-150 0 -280 52t-219.5 141t-140.5 209t-51 253q0 161 65 305.5t175.5 248t264.5 164.5t325 61h1229l-74 -349h-645l-43 -204h481l-70 -328h-481zM952 348h74l156 737h-144q-174 0 -290.5 -116t-116.5 -295q0 -89 33.5 -161t108 -118.5
t179.5 -46.5z" />
    <glyph glyph-name="oe" unicode="&#x153;" horiz-adv-x="1935" 
d="M1716 322l86 -244q-54 -31 -98 -49q-123 -49 -250 -49q-135 0 -233 45.5t-146 107.5q-74 -68 -174 -110.5t-215 -42.5q-114 0 -211 39t-162.5 106t-102 156.5t-36.5 189.5q0 112 45.5 214t124 176.5t189.5 118.5t235 44q106 0 200 -39.5t158 -103.5q160 143 390 143
q205 0 335.5 -133.5t130.5 -327.5q0 -88 -26 -164h-690q8 -55 69.5 -99t159.5 -44q80 0 160 33q33 14 61 33zM707 297q90 0 152.5 65.5t62.5 159.5q0 76 -50.5 130.5t-123.5 54.5q-90 0 -153 -66t-63 -160q0 -76 51 -130t124 -54zM1292 614h357q-6 57 -50.5 95.5
t-113.5 38.5q-64 0 -120 -37t-73 -97z" />
    <glyph glyph-name="Racute" unicode="&#x154;" horiz-adv-x="1464" 
d="M164 0l303 1434h639q112 0 201.5 -35.5t146 -98t86 -143.5t29.5 -174q0 -237 -170 -383q-73 -64 -168 -94l176 -506h-406l-139 451h-215l-94 -451h-389zM721 799h291q72 0 119 44t47 113q0 57 -36.5 93t-105.5 36h-254zM872 1597l244 328h369l-316 -328h-297z" />
    <glyph glyph-name="racute" unicode="&#x155;" horiz-adv-x="839" 
d="M123 0l213 1004h348l-22 -113q31 36 69 61q94 62 201 62h82l-84 -387q-17 10 -35 18q-48 21 -96 21q-89 0 -150 -54t-84 -163l-94 -449h-348zM504 1137l244 327h368l-315 -327h-297z" />
    <glyph glyph-name="Rcommaaccent" unicode="&#x156;" horiz-adv-x="1464" 
d="M164 0l303 1434h639q112 0 201.5 -35.5t146 -98t86 -143.5t29.5 -174q0 -237 -170 -383q-73 -64 -168 -94l176 -506h-406l-139 451h-215l-94 -451h-389zM721 799h291q72 0 119 44t47 113q0 57 -36.5 93t-105.5 36h-254zM438 -492l170 328h328l-223 -328h-275z" />
    <glyph glyph-name="rcommaaccent" unicode="&#x157;" horiz-adv-x="839" 
d="M123 0l213 1004h348l-22 -113q31 36 69 61q94 62 201 62h82l-84 -387q-17 10 -35 18q-48 21 -96 21q-89 0 -150 -54t-84 -163l-94 -449h-348zM-74 -492l170 328h328l-223 -328h-275z" />
    <glyph glyph-name="Rcaron" unicode="&#x158;" horiz-adv-x="1464" 
d="M164 0l303 1434h639q112 0 201.5 -35.5t146 -98t86 -143.5t29.5 -174q0 -237 -170 -383q-73 -64 -168 -94l176 -506h-406l-139 451h-215l-94 -451h-389zM721 799h291q72 0 119 44t47 113q0 57 -36.5 93t-105.5 36h-254zM870 1597l-196 328h305l74 -143l131 143h329
l-335 -328h-308z" />
    <glyph glyph-name="rcaron" unicode="&#x159;" horiz-adv-x="839" 
d="M123 0l213 1004h348l-22 -113q31 36 69 61q94 62 201 62h82l-84 -387q-17 10 -35 18q-48 21 -96 21q-89 0 -150 -54t-84 -163l-94 -449h-348zM545 1137l-197 327h305l74 -143l131 143h330l-336 -327h-307z" />
    <glyph glyph-name="Sacute" unicode="&#x15a;" 
d="M111 242l266 231q35 -53 78 -88q95 -88 231 -88q81 0 127.5 36.5t46.5 86.5q0 33 -30.5 63.5t-79.5 57t-107.5 56t-117.5 67t-108 83t-79.5 112t-30.5 145.5q0 92 41.5 177.5t113.5 150.5t178.5 104t229.5 39q234 0 398 -113q65 -49 114 -113l-266 -233q-19 30 -55 59
q-78 62 -178 62q-68 0 -110 -32t-42 -73q0 -34 30.5 -64.5t79 -56.5t107 -55t117.5 -66.5t107.5 -82t79 -111t30.5 -145.5q0 -101 -40.5 -190t-114 -156.5t-185 -106.5t-246.5 -39q-262 0 -450 141q-81 61 -135 142zM770 1597l244 328h368l-315 -328h-297z" />
    <glyph glyph-name="sacute" unicode="&#x15b;" horiz-adv-x="952" 
d="M72 193l207 186q19 -32 53 -62q69 -61 160 -61q63 0 63 45q0 22 -35 47.5t-84.5 54.5t-99 66t-84.5 96t-35 131q0 138 110 233t308 95q170 0 317 -88q64 -40 109 -88l-211 -180q-13 19 -37 39q-45 41 -106 41q-68 0 -68 -46q0 -22 34.5 -48t83.5 -56t98 -67.5t83.5 -97
t34.5 -130.5q0 -65 -26 -122.5t-77 -102.5t-135 -71.5t-192 -26.5q-196 0 -350 106q-61 40 -121 107zM524 1137l244 327h369l-316 -327h-297z" />
    <glyph glyph-name="Scircumflex" unicode="&#x15c;" 
d="M111 242l266 231q35 -53 78 -88q95 -88 231 -88q81 0 127.5 36.5t46.5 86.5q0 33 -30.5 63.5t-79.5 57t-107.5 56t-117.5 67t-108 83t-79.5 112t-30.5 145.5q0 92 41.5 177.5t113.5 150.5t178.5 104t229.5 39q234 0 398 -113q65 -49 114 -113l-266 -233q-19 30 -55 59
q-78 62 -178 62q-68 0 -110 -32t-42 -73q0 -34 30.5 -64.5t79 -56.5t107 -55t117.5 -66.5t107.5 -82t79 -111t30.5 -145.5q0 -101 -40.5 -190t-114 -156.5t-185 -106.5t-246.5 -39q-262 0 -450 141q-81 61 -135 142zM504 1597l336 328h307l196 -328h-305l-73 144l-131 -144
h-330z" />
    <glyph glyph-name="scircumflex" unicode="&#x15d;" horiz-adv-x="952" 
d="M72 193l207 186q19 -32 53 -62q69 -61 160 -61q63 0 63 45q0 22 -35 47.5t-84.5 54.5t-99 66t-84.5 96t-35 131q0 138 110 233t308 95q170 0 317 -88q64 -40 109 -88l-211 -180q-13 19 -37 39q-45 41 -106 41q-68 0 -68 -46q0 -22 34.5 -48t83.5 -56t98 -67.5t83.5 -97
t34.5 -130.5q0 -65 -26 -122.5t-77 -102.5t-135 -71.5t-192 -26.5q-196 0 -350 106q-61 40 -121 107zM279 1137l335 327h308l196 -327h-305l-74 143l-131 -143h-329z" />
    <glyph glyph-name="Scedilla" unicode="&#x15e;" 
d="M326 -406l120 134q20 -29 35 -39q47 -37 92 -37q33 0 53.5 16.5t20.5 50.5q0 24 -18 40t-47 16q-9 0 -25 -4q-4 -2 -12 -2l-53 84l77 114l-2 2q-206 31 -350 154q-64 52 -106 119l266 231q35 -53 78 -88q95 -88 231 -88q81 0 127.5 36.5t46.5 86.5q0 33 -30.5 63.5
t-79.5 57t-107.5 56t-117.5 67t-108 83t-79.5 112t-30.5 145.5q0 92 41.5 177.5t113.5 150.5t178.5 104t229.5 39q234 0 398 -113q65 -49 114 -113l-266 -233q-19 30 -55 59q-78 62 -178 62q-68 0 -110 -32t-42 -73q0 -34 30.5 -64.5t79 -56.5t107 -55t117.5 -66.5
t107.5 -82t79 -111t30.5 -145.5q0 -200 -149.5 -340t-403.5 -152l-41 -55q40 -9 90 -35q92 -61 92 -160q0 -96 -76 -163.5t-200 -67.5q-126 0 -205 57q-34 22 -63 59z" />
    <glyph glyph-name="scedilla" unicode="&#x15f;" horiz-adv-x="952" 
d="M162 -406l121 134q0 -5 16 -22.5t47.5 -35.5t63.5 -18q33 0 53 16.5t20 50.5q0 24 -18 40t-47 16q-9 0 -25 -4q-4 -2 -12 -2l-53 84l96 139q-159 32 -262 114q-52 40 -90 87l207 186q19 -32 53 -62q69 -61 160 -61q63 0 63 45q0 22 -35 47.5t-84.5 54.5t-99 66t-84.5 96
t-35 131q0 138 110 233t308 95q170 0 317 -88q64 -40 109 -88l-211 -180q-13 19 -37 39q-45 41 -106 41q-68 0 -68 -46q0 -22 34.5 -48t83.5 -56t98 -67.5t83.5 -97t34.5 -130.5q0 -62 -23.5 -117t-70 -99.5t-122.5 -72.5t-173 -32l-60 -78q40 -9 90 -35q93 -61 93 -160
q0 -96 -76.5 -163.5t-200.5 -67.5q-126 0 -205 57q-34 22 -63 59z" />
    <glyph glyph-name="Scaron" unicode="&#x160;" 
d="M111 242l266 231q35 -53 78 -88q95 -88 231 -88q81 0 127.5 36.5t46.5 86.5q0 33 -30.5 63.5t-79.5 57t-107.5 56t-117.5 67t-108 83t-79.5 112t-30.5 145.5q0 92 41.5 177.5t113.5 150.5t178.5 104t229.5 39q234 0 398 -113q65 -49 114 -113l-266 -233q-19 30 -55 59
q-78 62 -178 62q-68 0 -110 -32t-42 -73q0 -34 30.5 -64.5t79 -56.5t107 -55t117.5 -66.5t107.5 -82t79 -111t30.5 -145.5q0 -101 -40.5 -190t-114 -156.5t-185 -106.5t-246.5 -39q-262 0 -450 141q-81 61 -135 142zM770 1597l-197 328h306l73 -143l131 143h330l-336 -328
h-307z" />
    <glyph glyph-name="scaron" unicode="&#x161;" horiz-adv-x="952" 
d="M72 193l207 186q19 -32 53 -62q69 -61 160 -61q63 0 63 45q0 22 -35 47.5t-84.5 54.5t-99 66t-84.5 96t-35 131q0 138 110 233t308 95q170 0 317 -88q64 -40 109 -88l-211 -180q-13 19 -37 39q-45 41 -106 41q-68 0 -68 -46q0 -22 34.5 -48t83.5 -56t98 -67.5t83.5 -97
t34.5 -130.5q0 -65 -26 -122.5t-77 -102.5t-135 -71.5t-192 -26.5q-196 0 -350 106q-61 40 -121 107zM524 1137l-196 327h305l74 -143l131 143h329l-336 -327h-307z" />
    <glyph glyph-name="uni0162" unicode="&#x162;" horiz-adv-x="1269" 
d="M256 -430l123 143q15 -18 33 -30q45 -31 86 -31q32 0 55.5 15.5t30.5 45.5q6 30 -11 46t-49 16q-4 0 -28 -6l-15 -5l-57 72l108 164h-112l229 1085h-399l74 349h1187l-73 -349h-400l-229 -1085h-113l-71 -92q52 -8 104 -35q103 -65 76 -180q-21 -90 -107 -152.5
t-206 -62.5q-105 0 -181 45q-35 21 -55 47z" />
    <glyph glyph-name="uni0163" unicode="&#x163;" horiz-adv-x="860" 
d="M182 -406l121 134q0 -5 16 -22.5t47.5 -35.5t63.5 -18q33 0 53.5 16.5t20.5 50.5q0 24 -18.5 40t-47.5 16q-8 0 -24 -4q-4 -2 -13 -2l-53 84l107 155q-189 73 -189 295q0 23 2 39.5t7 39t6 26.5l53 247h-144l70 328h76q47 0 84 31t47 80l41 196h307l-63 -307h194
l-69 -328h-195l-45 -213q-6 -24 -6 -34q0 -101 119 -101q34 0 55 6l22 6l-69 -325l-39 -8q-37 -6 -98 -6h-19l-57 -76q40 -9 90 -35q92 -61 92 -160q0 -96 -76 -163.5t-200 -67.5q-126 0 -205 57q-36 23 -64 59z" />
    <glyph glyph-name="Tcaron" unicode="&#x164;" horiz-adv-x="1269" 
d="M420 0l229 1085h-399l74 349h1187l-73 -349h-400l-229 -1085h-389zM760 1597l-197 328h305l74 -143l131 143h330l-336 -328h-307z" />
    <glyph glyph-name="tcaron" unicode="&#x165;" horiz-adv-x="983" 
d="M281 408l53 247h-144l70 328h76q47 0 84 31t47 80l41 196h307l-63 -307h194l-69 -328h-195l-45 -213q-6 -24 -6 -34q0 -101 119 -101q34 0 55 6l22 6l-69 -325l-39 -8q-37 -6 -98 -6q-167 0 -261 83.5t-94 239.5q0 23 2 39.5t7 39t6 26.5zM940 1106l172 328h328
l-223 -328h-277z" />
    <glyph glyph-name="Tbar" unicode="&#x166;" horiz-adv-x="1269" 
d="M420 0l139 655h-266l24 123h267l65 307h-399l74 349h1187l-73 -349h-400l-65 -307h266l-25 -123h-266l-139 -655h-389z" />
    <glyph glyph-name="tbar" unicode="&#x167;" horiz-adv-x="860" 
d="M150 471l28 133h144l20 92h-143l61 287h76q47 0 84 31t47 80l41 196h307l-63 -307h194l-61 -287h-195l-20 -92h194l-28 -133h-193l-6 -29q-6 -24 -6 -34q0 -101 119 -101q34 0 55 6l22 6l-69 -325l-39 -8q-37 -6 -98 -6q-167 0 -261 83.5t-94 239.5q0 23 2 39.5t7 39
t6 26.5l12 63h-143z" />
    <glyph glyph-name="Umacron" unicode="&#x16a;" horiz-adv-x="1617" 
d="M295 664l162 770h389l-172 -811q-1 -4 -3 -12.5t-3.5 -20.5t-1.5 -29q0 -107 67 -175.5t176 -68.5q105 0 182.5 67.5t102.5 182.5l184 867h389l-192 -908q-54 -255 -241.5 -411t-444.5 -156q-187 0 -327.5 74t-213 201t-72.5 288q0 49 19 142zM823 1638l58 267h655
l-57 -267h-656z" />
    <glyph glyph-name="umacron" unicode="&#x16b;" 
d="M215 436l121 568h348l-111 -519q-4 -20 -4 -45q0 -57 33.5 -95t93.5 -38q64 0 115 45t68 121l112 531h348l-213 -1004h-348l27 133h-10q-28 -40 -72 -78q-90 -75 -211 -75q-141 0 -227 87.5t-86 239.5q0 54 16 129zM537 1178l57 266h655l-57 -266h-655z" />
    <glyph glyph-name="Ubreve" unicode="&#x16c;" horiz-adv-x="1617" 
d="M295 664l162 770h389l-172 -811q-1 -4 -3 -12.5t-3.5 -20.5t-1.5 -29q0 -107 67 -175.5t176 -68.5q105 0 182.5 67.5t102.5 182.5l184 867h389l-192 -908q-54 -255 -241.5 -411t-444.5 -156q-187 0 -327.5 74t-213 201t-72.5 288q0 49 19 142zM823 1925h244v-12
q0 -39 25.5 -64.5t68.5 -25.5q46 0 75.5 28.5t37.5 73.5h244q-5 -88 -55.5 -164t-132 -120t-173.5 -44q-148 0 -242 83.5t-94 207.5q0 23 2 37z" />
    <glyph glyph-name="ubreve" unicode="&#x16d;" 
d="M215 436l121 568h348l-111 -519q-4 -20 -4 -45q0 -57 33.5 -95t93.5 -38q64 0 115 45t68 121l112 531h348l-213 -1004h-348l27 133h-10q-28 -40 -72 -78q-90 -75 -211 -75q-141 0 -227 87.5t-86 239.5q0 54 16 129zM537 1464h243v-12q0 -39 25.5 -64.5t68.5 -25.5
q46 0 75.5 28.5t37.5 73.5h244q-5 -88 -56 -163.5t-132 -119.5t-173 -44q-148 0 -241.5 83t-93.5 207q0 23 2 37z" />
    <glyph glyph-name="Uring" unicode="&#x16e;" horiz-adv-x="1617" 
d="M295 664l162 770h389l-172 -811q-1 -4 -3 -12.5t-3.5 -20.5t-1.5 -29q0 -107 67 -175.5t176 -68.5q105 0 182.5 67.5t102.5 182.5l184 867h389l-192 -908q-54 -255 -241.5 -411t-444.5 -156q-187 0 -327.5 74t-213 201t-72.5 288q0 49 19 142zM887 1765q0 106 88.5 184.5
t200.5 78.5q110 0 177.5 -66.5t67.5 -163.5q0 -106 -88 -184t-200 -78q-110 0 -178 66.5t-68 162.5zM1071 1772q0 -31 22 -51.5t52 -20.5q37 0 64.5 26t27.5 66q0 32 -21 52t-51 20q-37 0 -65.5 -26t-28.5 -66z" />
    <glyph glyph-name="uring" unicode="&#x16f;" 
d="M215 436l121 568h348l-111 -519q-4 -20 -4 -45q0 -57 33.5 -95t93.5 -38q64 0 115 45t68 121l112 531h348l-213 -1004h-348l27 133h-10q-28 -40 -72 -78q-90 -75 -211 -75q-141 0 -227 87.5t-86 239.5q0 54 16 129zM621 1305q0 106 88 184t200 78q110 0 178 -67t68 -163
q0 -106 -88.5 -184t-200.5 -78q-110 0 -177.5 66.5t-67.5 163.5zM805 1311q0 -31 22 -51.5t52 -20.5q37 0 64.5 26t27.5 66q0 32 -21 52t-51 20q-37 0 -65.5 -26t-28.5 -66z" />
    <glyph glyph-name="Uhungarumlaut" unicode="&#x170;" horiz-adv-x="1617" 
d="M295 664l162 770h389l-172 -811q-1 -4 -3 -12.5t-3.5 -20.5t-1.5 -29q0 -107 67 -175.5t176 -68.5q105 0 182.5 67.5t102.5 182.5l184 867h389l-192 -908q-54 -255 -241.5 -411t-444.5 -156q-187 0 -327.5 74t-213 201t-72.5 288q0 49 19 142zM760 1597l254 328h327
l-325 -328h-256zM1190 1597l254 328h328l-326 -328h-256z" />
    <glyph glyph-name="uhungarumlaut" unicode="&#x171;" 
d="M215 436l121 568h348l-111 -519q-4 -20 -4 -45q0 -57 33.5 -95t93.5 -38q64 0 115 45t68 121l112 531h348l-213 -1004h-348l27 133h-10q-28 -40 -72 -78q-90 -75 -211 -75q-141 0 -227 87.5t-86 239.5q0 54 16 129zM514 1137l254 327h328l-326 -327h-256zM944 1137
l254 327h328l-326 -327h-256z" />
    <glyph glyph-name="Uogonek" unicode="&#x172;" horiz-adv-x="1617" 
d="M1047 -274l-41 -193l-37 -12q-54 -13 -103 -13q-113 0 -182.5 55.5t-69.5 147.5q0 83 48.5 148t111.5 108q-231 29 -364.5 182.5t-133.5 372.5q0 49 19 142l162 770h389l-172 -811q-1 -4 -3 -12.5t-3.5 -20.5t-1.5 -29q0 -107 67 -175.5t176 -68.5q105 0 182.5 67.5
t102.5 182.5l184 867h389l-192 -908q-50 -238 -222 -393t-407 -172q-74 -98 -74 -180q0 -78 84 -78q34 0 64 10z" />
    <glyph glyph-name="uogonek" unicode="&#x173;" 
d="M215 436l121 568h348l-111 -519q-4 -20 -4 -45q0 -57 33.5 -95t93.5 -38q64 0 115 45t68 121l112 531h348l-213 -1004h-204q-38 -44 -54 -72q-51 -81 -51 -147q0 -78 84 -78q34 0 64 10l26 13l-41 -193l-37 -12q-54 -13 -102 -13q-113 0 -182.5 55.5t-69.5 147.5
q0 118 109 215q52 46 110 74l27 133h-10q-28 -40 -72 -78q-90 -75 -211 -75q-141 0 -227 87.5t-86 239.5q0 54 16 129z" />
    <glyph glyph-name="Wcircumflex" unicode="&#x174;" horiz-adv-x="2170" 
d="M451 0l-168 1434h399l47 -840h10l435 840h348l77 -840h11l403 840h441l-775 -1434h-358l-80 860h-8l-445 -860h-337zM944 1597l336 328h307l197 -328h-305l-74 144l-131 -144h-330z" />
    <glyph glyph-name="wcircumflex" unicode="&#x175;" horiz-adv-x="1638" 
d="M338 0l-135 1004h348l33 -502h8l276 502h267l63 -502h8l246 502h389l-561 -1004h-287l-67 532h-8l-293 -532h-287zM606 1137l336 327h307l197 -327h-305l-74 143l-131 -143h-330z" />
    <glyph glyph-name="Ycircumflex" unicode="&#x176;" horiz-adv-x="1372" 
d="M471 0l109 512l-318 922h400l153 -564h8l391 564h461l-706 -922l-109 -512h-389zM545 1597l336 328h307l196 -328h-305l-73 144l-132 -144h-329z" />
    <glyph glyph-name="ycircumflex" unicode="&#x177;" horiz-adv-x="1105" 
d="M-4 -377l63 305l43 -16q44 -14 82 -14q105 0 154 82l27 45l-162 979h358l45 -584h8l295 584h400l-650 -1098q-105 -180 -203 -258t-229 -78q-85 0 -164 27q-29 7 -67 26zM319 1137l336 327h308l196 -327h-305l-74 143l-131 -143h-330z" />
    <glyph glyph-name="Ydieresis" unicode="&#x178;" horiz-adv-x="1372" 
d="M471 0l109 512l-318 922h400l153 -564h8l391 564h461l-706 -922l-109 -512h-389zM788 1946q66 0 111 -46t45 -114q0 -77 -57.5 -133t-136.5 -56q-66 0 -111 46t-45 114q0 77 57.5 133t136.5 56zM1221 1597q-66 0 -111 46t-45 114q0 77 58 133t137 56q66 0 110.5 -46
t44.5 -114q0 -77 -57.5 -133t-136.5 -56z" />
    <glyph glyph-name="Zacute" unicode="&#x179;" horiz-adv-x="1351" 
d="M82 0l78 369l749 696h-571l78 369h1116l-78 -369l-749 -696h622l-78 -369h-1167zM811 1597l244 328h368l-315 -328h-297z" />
    <glyph glyph-name="zacute" unicode="&#x17a;" horiz-adv-x="1064" 
d="M82 0l70 328l456 348h-362l69 328h861l-70 -328l-457 -348h404l-70 -328h-901zM596 1137l244 327h368l-315 -327h-297z" />
    <glyph glyph-name="Zdotaccent" unicode="&#x17b;" horiz-adv-x="1351" 
d="M82 0l78 369l749 696h-571l78 369h1116l-78 -369l-749 -696h622l-78 -369h-1167zM809 1745q0 83 63 142t154 59q77 0 126.5 -47.5t49.5 -120.5q0 -83 -63 -142t-154 -59q-77 0 -126.5 47.5t-49.5 120.5z" />
    <glyph glyph-name="zdotaccent" unicode="&#x17c;" horiz-adv-x="1064" 
d="M82 0l70 328l456 348h-362l69 328h861l-70 -328l-457 -348h404l-70 -328h-901zM594 1284q0 83 63 142t154 59q77 0 126.5 -47.5t49.5 -120.5q0 -83 -63 -142t-154 -59q-77 0 -126.5 47.5t-49.5 120.5z" />
    <glyph glyph-name="Zcaron" unicode="&#x17d;" horiz-adv-x="1351" 
d="M82 0l78 369l749 696h-571l78 369h1116l-78 -369l-749 -696h622l-78 -369h-1167zM811 1597l-197 328h306l73 -143l131 143h330l-336 -328h-307z" />
    <glyph glyph-name="zcaron" unicode="&#x17e;" horiz-adv-x="1064" 
d="M82 0l70 328l456 348h-362l69 328h861l-70 -328l-457 -348h404l-70 -328h-901zM596 1137l-197 327h306l73 -143l131 143h330l-336 -327h-307z" />
    <glyph glyph-name="uni018F" unicode="&#x18f;" horiz-adv-x="1669" 
d="M233 809h1108q0 131 -94 219t-260 88q-126 0 -242 -53q-39 -16 -96 -51l-166 280q54 44 148 90q190 93 397 93q159 0 294 -54t226 -146.5t142 -217.5t51 -266q0 -175 -68.5 -330.5t-182.5 -265t-267 -173t-318 -63.5q-128 0 -238.5 34.5t-192.5 96.5t-141 147
t-88.5 187.5t-29.5 216.5q0 97 18 168zM1292 584h-674q5 -107 89.5 -187t224.5 -80q125 0 224 73t136 194z" />
    <glyph glyph-name="florin" unicode="&#x192;" horiz-adv-x="888" 
d="M-109 -399l31 297q19 -9 27 -11q30 -10 71 -10q113 0 142 103l178 593h-123l33 308h174l63 215q62 202 157.5 285t270.5 83q63 0 129 -16l52 -14l-31 -297q-5 1 -27 10q-27 10 -71 10q-120 0 -146 -102l-49 -174h184l-32 -308h-236l-192 -634q-62 -201 -157.5 -285
t-268.5 -84q-69 0 -127 14q-4 1 -24 7t-28 10z" />
    <glyph glyph-name="Aringacute" unicode="&#x1fa;" horiz-adv-x="1495" 
d="M10 0l846 1434h86q-80 59 -80 159q0 93 77.5 161.5t176.5 68.5q96 0 155.5 -58t59.5 -145q0 -116 -112 -186h67l240 -1434h-400l-39 307h-471l-165 -307h-441zM999 1864l146 204h328l-177 -204h-297zM786 625h267l-41 409h-8zM1014 1587q0 -31 21.5 -51t51.5 -20
q37 0 65 26t28 66q0 31 -21 51t-51 20q-37 0 -65.5 -26t-28.5 -66z" />
    <glyph glyph-name="aringacute" unicode="&#x1fb;" horiz-adv-x="1105" 
d="M655 0l25 123h-10q-30 -46 -66 -72q-86 -71 -205 -71q-125 0 -204.5 80.5t-79.5 189.5q0 270 366 342l314 63q-24 111 -160 111q-77 0 -139 -41q-29 -17 -56 -41l-145 190q43 38 108 74q136 73 283 76q-100 65 -100 188q0 106 88 184.5t200 78.5q110 0 178 -67t68 -163
q0 -91 -63.5 -161.5t-163.5 -94.5q115 -42 178.5 -133.5t63.5 -206.5q0 -17 -2 -33.5t-5.5 -30t-3.5 -16.5l-120 -569h-349zM739 1505l154 195h338l-184 -195h-308zM741 406l9 45l-160 -33q-103 -23 -103 -101q0 -33 21.5 -52t62.5 -19q66 0 112 44t58 116zM770 1219
q0 -31 22 -51.5t52 -20.5q37 0 64.5 26t27.5 66q0 32 -21 52t-51 20q-37 0 -65.5 -26t-28.5 -66z" />
    <glyph glyph-name="AEacute" unicode="&#x1fc;" horiz-adv-x="2099" 
d="M-82 0l1102 1434h1280l-74 -349h-635l-43 -204h471l-69 -328h-471l-43 -205h655l-74 -348h-1044l65 317h-460l-240 -317h-420zM848 666h266l92 440h-20zM1364 1597l244 328h368l-315 -328h-297z" />
    <glyph glyph-name="aeacute" unicode="&#x1fd;" horiz-adv-x="1787" 
d="M481 592l314 63q-24 111 -160 111q-77 0 -139 -41q-29 -17 -56 -41l-145 190q48 39 113 74q140 76 288 76q121 0 222 -68q35 -22 75 -65q46 40 101 65q136 68 274 68q136 0 243.5 -62.5t165.5 -167t58 -231.5q0 -85 -27 -164h-690q8 -55 70 -99t160 -44q79 0 159 33
q36 16 62 33l86 -244q-53 -31 -101 -49q-123 -49 -268 -49q-125 0 -228 47t-173 129q-39 -47 -103 -88q-127 -88 -299 -88q-179 0 -273.5 79.5t-94.5 190.5q0 270 366 342zM741 406l9 45l-160 -33q-103 -23 -103 -101q0 -33 21.5 -52t62.5 -19q66 0 112 44t58 116zM1145 614
h356q-6 57 -50.5 95.5t-113.5 38.5q-64 0 -119.5 -37t-72.5 -97zM924 1137l243 327h369l-315 -327h-297z" />
    <glyph glyph-name="Oslashacute" unicode="&#x1fe;" horiz-adv-x="1761" 
d="M264 82l131 125q-168 199 -168 469q0 159 69 306t185.5 255t278 173t338.5 65q264 0 465 -150l135 129l102 -102l-133 -127q168 -199 168 -467q0 -159 -69 -306t-185 -255t-277.5 -173t-338.5 -65q-268 0 -465 147l-133 -126zM684 485l594 568q-95 63 -211 63
q-115 0 -215.5 -54t-162.5 -154t-62 -222q0 -115 57 -201zM1378 946l-594 -567q94 -62 211 -62q115 0 216 54.5t163 154.5t62 222q0 110 -58 198zM1006 1597l243 328h369l-315 -328h-297z" />
    <glyph glyph-name="oslashacute" unicode="&#x1ff;" 
d="M227 -29l-92 92l131 117q-92 127 -92 291q0 112 45.5 214t124 176.5t189.5 118.5t235 44q189 0 330 -109l135 121l92 -92l-137 -123q92 -127 92 -289q0 -112 -45.5 -214t-124 -176t-189.5 -118t-235 -44q-193 0 -330 106zM541 424l293 258q-42 25 -86 25q-90 0 -153 -66
t-63 -160q0 -33 9 -57zM913 580l-292 -261q42 -22 86 -22q90 0 152.5 65.5t62.5 159.5q0 34 -9 58zM668 1137l243 327h369l-315 -327h-297z" />
    <glyph glyph-name="Scommaaccent" unicode="&#x218;" 
d="M111 242l266 231q35 -53 78 -88q95 -88 231 -88q81 0 127.5 36.5t46.5 86.5q0 33 -30.5 63.5t-79.5 57t-107.5 56t-117.5 67t-108 83t-79.5 112t-30.5 145.5q0 92 41.5 177.5t113.5 150.5t178.5 104t229.5 39q234 0 398 -113q65 -49 114 -113l-266 -233q-19 30 -55 59
q-78 62 -178 62q-68 0 -110 -32t-42 -73q0 -34 30.5 -64.5t79 -56.5t107 -55t117.5 -66.5t107.5 -82t79 -111t30.5 -145.5q0 -101 -40.5 -190t-114 -156.5t-185 -106.5t-246.5 -39q-262 0 -450 141q-81 61 -135 142zM315 -492l170 328h328l-223 -328h-275z" />
    <glyph glyph-name="scommaaccent" unicode="&#x219;" horiz-adv-x="952" 
d="M72 193l207 186q19 -32 53 -62q69 -61 160 -61q63 0 63 45q0 22 -35 47.5t-84.5 54.5t-99 66t-84.5 96t-35 131q0 138 110 233t308 95q170 0 317 -88q64 -40 109 -88l-211 -180q-13 19 -37 39q-45 41 -106 41q-68 0 -68 -46q0 -22 34.5 -48t83.5 -56t98 -67.5t83.5 -97
t34.5 -130.5q0 -65 -26 -122.5t-77 -102.5t-135 -71.5t-192 -26.5q-196 0 -350 106q-61 40 -121 107zM152 -492l170 328h327l-223 -328h-274z" />
    <glyph glyph-name="uni021A" unicode="&#x21a;" horiz-adv-x="1269" 
d="M420 0l229 1085h-399l74 349h1187l-73 -349h-400l-229 -1085h-389zM264 -492l170 328h328l-223 -328h-275z" />
    <glyph glyph-name="uni021B" unicode="&#x21b;" horiz-adv-x="860" 
d="M281 408l53 247h-144l70 328h76q47 0 84 31t47 80l41 196h307l-63 -307h194l-69 -328h-195l-45 -213q-6 -24 -6 -34q0 -101 119 -101q34 0 55 6l22 6l-69 -325l-39 -8q-37 -6 -98 -6q-167 0 -261 83.5t-94 239.5q0 23 2 39.5t7 39t6 26.5zM182 -492l170 328h328
l-223 -328h-275z" />
    <glyph glyph-name="uni0232" unicode="&#x232;" horiz-adv-x="1372" 
d="M471 0l109 512l-318 922h400l153 -564h8l391 564h461l-706 -922l-109 -512h-389zM659 1638l58 267h655l-57 -267h-656z" />
    <glyph glyph-name="uni0233" unicode="&#x233;" horiz-adv-x="1105" 
d="M-4 -377l63 305l43 -16q44 -14 82 -14q105 0 154 82l27 45l-162 979h358l45 -584h8l295 584h400l-650 -1098q-105 -180 -203 -258t-229 -78q-85 0 -164 27q-29 7 -67 26zM434 1178l58 266h655l-57 -266h-656z" />
    <glyph glyph-name="uni0244" unicode="&#x244;" horiz-adv-x="1617" 
d="M182 768l31 143h154l110 523h389l-110 -523h491l111 523h389l-111 -523h154l-31 -143h-153l-54 -250q-53 -249 -238.5 -404t-434.5 -155q-267 0 -425.5 154.5t-158.5 406.5q0 53 16 131l25 117h-154zM725 768l-33 -158q-6 -42 -6 -57q0 -113 59 -174.5t156 -61.5
q96 0 172 63.5t101 178.5l43 209h-492z" />
    <glyph glyph-name="uni0259" unicode="&#x259;" horiz-adv-x="1187" 
d="M190 604h691q-8 55 -70 99.5t-160 44.5q-79 0 -159 -33q-36 -16 -62 -33l-86 244q55 32 100 49q123 49 269 49q114 0 211 -39t162.5 -106t102 -157t36.5 -190q0 -112 -45.5 -214t-124 -176t-189.5 -118t-235 -44q-136 0 -243.5 62t-165.5 166.5t-58 231.5q0 88 26 164z
M854 389h-356q6 -56 50.5 -94.5t113.5 -38.5q64 0 119.5 36.5t72.5 96.5z" />
    <glyph glyph-name="uni0289" unicode="&#x289;" horiz-adv-x="1310" 
d="M246 436l24 117h-112l28 133h113l68 318h348l-68 -318h307l68 318h348l-67 -318h112l-29 -133h-112l-117 -553h-348l27 133h-11q-29 -42 -71 -78q-90 -75 -211 -75q-141 0 -227.5 87.5t-86.5 239.5q0 36 17 129zM618 553l-14 -68q-4 -20 -4 -45q0 -57 33.5 -95t93.5 -38
q64 0 114.5 44.5t67.5 121.5l17 80h-308z" />
    <glyph glyph-name="uni02BC" unicode="&#x2bc;" horiz-adv-x="552" 
d="M299 1126l172 328h328l-224 -328h-276z" />
    <glyph glyph-name="circumflex" unicode="&#x2c6;" horiz-adv-x="962" 
d="M299 1126l336 328h307l197 -328h-305l-74 144l-131 -144h-330z" />
    <glyph glyph-name="caron" unicode="&#x2c7;" horiz-adv-x="962" 
d="M565 1126l-196 328h305l74 -143l131 143h329l-336 -328h-307z" />
    <glyph glyph-name="breve" unicode="&#x2d8;" horiz-adv-x="819" 
d="M362 1454h244v-12q0 -39 25.5 -64.5t68.5 -25.5q46 0 75.5 28.5t37.5 73.5h244q-5 -88 -55.5 -164t-132 -120t-173.5 -44q-148 0 -242 83.5t-94 207.5q0 23 2 37z" />
    <glyph glyph-name="dotaccent" unicode="&#x2d9;" horiz-adv-x="512" 
d="M338 1294q0 83 63 142t154 59q77 0 126.5 -47.5t49.5 -120.5q0 -83 -63 -142t-154 -59q-77 0 -126.5 47.5t-49.5 120.5z" />
    <glyph glyph-name="ring" unicode="&#x2da;" horiz-adv-x="655" 
d="M324 1233q0 106 88 184t200 78q110 0 178 -66.5t68 -162.5q0 -106 -88.5 -184t-200.5 -78q-110 0 -177.5 66.5t-67.5 162.5zM508 1239q0 -31 22 -51.5t52 -20.5q37 0 64.5 26.5t27.5 66.5q0 31 -21 51t-51 20q-37 0 -65.5 -26t-28.5 -66z" />
    <glyph glyph-name="ogonek" unicode="&#x2db;" horiz-adv-x="552" 
d="M432 -274l-41 -193l-37 -12q-54 -13 -102 -13q-113 0 -182.5 55.5t-69.5 147.5q0 118 109 215q52 46 110 74h143q-36 -41 -53 -72q-51 -81 -51 -147q0 -78 84 -78q34 0 64 10z" />
    <glyph glyph-name="tilde" unicode="&#x2dc;" horiz-adv-x="880" 
d="M299 1126l23 105q26 117 90 180.5t153 63.5q48 0 90.5 -14.5t67 -32t54.5 -32t57 -14.5q30 0 53.5 25.5t30.5 67.5h215l-23 -105q-26 -117 -90.5 -180.5t-153.5 -63.5q-48 0 -90.5 14.5t-67 32t-54 32t-56.5 14.5q-30 0 -53.5 -25.5t-30.5 -67.5h-215z" />
    <glyph glyph-name="hungarumlaut" unicode="&#x2dd;" horiz-adv-x="1064" 
d="M299 1126l254 328h328l-326 -328h-256zM729 1126l254 328h328l-326 -328h-256z" />
    <glyph glyph-name="acutecomb" unicode="&#x301;" horiz-adv-x="0" 
d="M-635 1536l244 328h368l-315 -328h-297z" />
    <glyph glyph-name="uni0302" unicode="&#x302;" horiz-adv-x="0" 
d="M-924 1536l336 328h307l197 -328h-305l-74 143l-131 -143h-330z" />
    <glyph glyph-name="uni0304" unicode="&#x304;" horiz-adv-x="0" 
d="M-793 1618l58 266h655l-57 -266h-656z" />
    <glyph glyph-name="uni0306" unicode="&#x306;" horiz-adv-x="0" 
d="M-764 1864h244v-13q0 -39 25.5 -64.5t68.5 -25.5q45 0 75 29t38 74h243q-5 -88 -55.5 -164t-131.5 -120t-173 -44q-148 0 -242 83.5t-94 207.5q0 23 2 37z" />
    <glyph glyph-name="uni0307" unicode="&#x307;" horiz-adv-x="0" 
d="M-639 1704q0 83 63 142t154 59q77 0 126.5 -47.5t49.5 -120.5q0 -83 -63 -142t-154 -59q-77 0 -126.5 47.5t-49.5 120.5z" />
    <glyph glyph-name="uni0308" unicode="&#x308;" horiz-adv-x="0" 
d="M-666 1905q66 0 111 -46t45 -114q0 -77 -58 -133t-137 -56q-66 0 -110.5 46t-44.5 114q0 77 57.5 133t136.5 56zM-233 1556q-66 0 -111 46t-45 114q0 77 57.5 133t136.5 56q66 0 111 -46t45 -114q0 -77 -57.5 -133t-136.5 -56z" />
    <glyph glyph-name="uni030A" unicode="&#x30a;" horiz-adv-x="0" 
d="M-707 1724q0 106 88.5 184.5t200.5 78.5q110 0 178 -67t68 -163q0 -106 -88.5 -184t-200.5 -78q-110 0 -178 66.5t-68 162.5zM-522 1731q0 -31 21.5 -51.5t51.5 -20.5q37 0 65 26t28 66q0 32 -21 52t-51 20q-37 0 -65.5 -26t-28.5 -66z" />
    <glyph glyph-name="uni030C" unicode="&#x30c;" horiz-adv-x="0" 
d="M-625 1536l-196 328h305l74 -144l131 144h329l-335 -328h-308z" />
    <glyph glyph-name="uni0326" unicode="&#x326;" horiz-adv-x="552" 
d="M-43 -492l170 328h328l-224 -328h-274z" />
    <glyph glyph-name="Alphatonos" unicode="&#x386;" horiz-adv-x="1515" 
d="M807 625h266l-41 409h-8zM31 0l846 1434h430l239 -1434h-399l-39 307h-471l-166 -307h-440zM156 1106l243 328h369l-315 -328h-297z" />
    <glyph glyph-name="Epsilontonos" unicode="&#x388;" horiz-adv-x="1566" 
d="M369 0l303 1434h1095l-73 -349h-707l-43 -204h543l-70 -328h-543l-43 -205h728l-74 -348h-1116zM61 1106l244 328h369l-316 -328h-297z" />
    <glyph glyph-name="Etatonos" unicode="&#x389;" horiz-adv-x="1832" 
d="M369 0l303 1434h389l-111 -523h523l110 523h389l-303 -1434h-389l115 543h-523l-114 -543h-389zM63 1106l244 328h369l-316 -328h-297z" />
    <glyph glyph-name="Iotatonos" unicode="&#x38a;" horiz-adv-x="942" 
d="M389 0l303 1434h389l-303 -1434h-389zM59 1106l244 328h369l-316 -328h-297z" />
    <glyph glyph-name="Omicrontonos" unicode="&#x38c;" horiz-adv-x="1843" 
d="M1077 317q115 0 216 54.5t163 154.5t62 222q0 98 -46 182t-131 135t-192 51q-115 0 -215.5 -54t-162.5 -154t-62 -222q0 -152 104 -260.5t264 -108.5zM309 676q0 159 69 306t185.5 255t278 173t338.5 65q132 0 249.5 -37.5t205.5 -104.5t152 -157t97 -197t33 -221
q0 -159 -69 -306t-185 -255t-277.5 -173t-338.5 -65q-132 0 -249.5 37t-205.5 104t-152.5 156.5t-97.5 196.5t-33 223zM90 1106l244 328h368l-315 -328h-297z" />
    <glyph glyph-name="Upsilontonos" unicode="&#x38e;" horiz-adv-x="1761" 
d="M860 0l109 512l-318 922h400l153 -564h8l392 564h460l-706 -922l-109 -512h-389zM39 1106l244 328h368l-315 -328h-297z" />
    <glyph glyph-name="Omegatonos" unicode="&#x38f;" horiz-adv-x="1904" 
d="M225 0l64 307h254q-95 80 -141 184.5t-46 253.5q0 142 62.5 274.5t171 233.5t267.5 161.5t341 60.5q339 0 551.5 -178.5t212.5 -456.5q0 -85 -23.5 -163.5t-58.5 -135.5t-81.5 -105.5t-88 -78.5t-82.5 -50h197l-64 -307h-665l69 328q166 30 276.5 146.5t110.5 303.5
q0 155 -102 250.5t-264 95.5q-183 0 -315 -132t-132 -328q0 -118 59.5 -205t162.5 -131l-70 -328h-666zM59 1106l244 328h369l-316 -328h-297z" />
    <glyph glyph-name="iotadieresistonos" unicode="&#x390;" horiz-adv-x="645" 
d="M383 1137l192 327h205l-274 -327h-123zM236 1126q-66 0 -111 46t-45 114q0 77 57.5 133t136.5 56q66 0 111 -46t45 -114q0 -77 -57.5 -133t-136.5 -56zM870 1126q-66 0 -110.5 46t-44.5 114q0 77 57.5 133t136.5 56q66 0 111 -46t45 -114q0 -77 -58 -133t-137 -56z
M203 373l133 631h348l-121 -566l-4 -14q-2 -8 -2 -25q0 -46 28 -69t74 -23q23 0 29 2q8 0 12 2l-65 -315q-2 0 -15.5 -3.5t-21.5 -4.5q-31 -8 -98 -8q-142 0 -226 78t-84 218q0 30 13 97z" />
    <glyph glyph-name="Alpha" unicode="&#x391;" horiz-adv-x="1495" 
d="M786 625h267l-41 409h-8zM10 0l846 1434h430l240 -1434h-400l-39 307h-471l-165 -307h-441z" />
    <glyph glyph-name="Beta" unicode="&#x392;" horiz-adv-x="1443" 
d="M164 0l303 1434h577q224 0 351 -102.5t127 -266.5q0 -169 -142 -266q-62 -47 -139 -68q64 -30 109 -69q108 -96 108 -252q0 -84 -36.5 -158.5t-101.5 -130.5t-163 -88.5t-215 -32.5h-778zM616 307h289q73 0 118.5 42t45.5 110q0 53 -40.5 94t-98.5 41h-252zM739 881h236
q62 0 99.5 38.5t37.5 96.5q0 45 -31.5 77.5t-83.5 32.5h-206z" />
    <glyph glyph-name="Gamma" unicode="&#x393;" horiz-adv-x="1218" 
d="M164 0l303 1434h1003l-77 -369h-615l-225 -1065h-389z" />
    <glyph glyph-name="uni0394" unicode="&#x394;" horiz-adv-x="1474" 
d="M0 0l846 1434h430l240 -1434h-1516zM606 348h492l-97 686h-8z" />
    <glyph glyph-name="Epsilon" unicode="&#x395;" horiz-adv-x="1361" 
d="M164 0l303 1434h1096l-74 -349h-707l-43 -204h543l-70 -328h-542l-43 -205h727l-74 -348h-1116z" />
    <glyph glyph-name="Zeta" unicode="&#x396;" horiz-adv-x="1351" 
d="M92 0l78 369l750 696h-572l78 369h1116l-78 -369l-749 -696h622l-77 -369h-1168z" />
    <glyph glyph-name="Eta" unicode="&#x397;" horiz-adv-x="1628" 
d="M164 0l303 1434h389l-111 -523h523l110 523h389l-303 -1434h-389l115 543h-522l-115 -543h-389z" />
    <glyph glyph-name="Theta" unicode="&#x398;" horiz-adv-x="1761" 
d="M995 317q115 0 216 54.5t163 154.5t62 222q0 98 -46 182t-131 135t-192 51q-115 0 -215.5 -54t-162.5 -154t-62 -222q0 -152 104 -260.5t264 -108.5zM227 676q0 159 69 306t185.5 255t278 173t338.5 65q132 0 249.5 -37.5t205.5 -104.5t152 -157t97 -197t33 -221
q0 -159 -69 -306t-185 -255t-277.5 -173t-338.5 -65q-132 0 -249.5 37t-205.5 104t-152.5 156.5t-97.5 196.5t-33 223zM729 645l31 143h573l-30 -143h-574z" />
    <glyph glyph-name="Iota" unicode="&#x399;" horiz-adv-x="716" 
d="M164 0l303 1434h389l-303 -1434h-389z" />
    <glyph glyph-name="Kappa" unicode="&#x39a;" horiz-adv-x="1495" 
d="M164 0l303 1434h389l-117 -553l588 553h483l-669 -625l362 -809h-438l-236 520l-206 -188l-70 -332h-389z" />
    <glyph glyph-name="Lambda" unicode="&#x39b;" horiz-adv-x="1495" 
d="M10 0l846 1434h430l240 -1434h-400l-114 1034h-8l-553 -1034h-441z" />
    <glyph glyph-name="Mu" unicode="&#x39c;" horiz-adv-x="1904" 
d="M164 0l303 1434h317l324 -553l557 553h379l-303 -1434h-389l180 850l-506 -502l-293 502l-180 -850h-389z" />
    <glyph glyph-name="Nu" unicode="&#x39d;" horiz-adv-x="1669" 
d="M164 0l303 1434h338l444 -809l170 809h389l-303 -1434h-338l-444 809l-170 -809h-389z" />
    <glyph glyph-name="Xi" unicode="&#x39e;" horiz-adv-x="1392" 
d="M82 0l70 328h1228l-69 -328h-1229zM336 1106l70 328h1187l-69 -328h-1188zM377 573l65 308h881l-66 -308h-880z" />
    <glyph glyph-name="Omicron" unicode="&#x39f;" horiz-adv-x="1761" 
d="M995 317q115 0 216 54.5t163 154.5t62 222q0 98 -46 182t-131 135t-192 51q-115 0 -215.5 -54t-162.5 -154t-62 -222q0 -152 104 -260.5t264 -108.5zM227 676q0 159 69 306t185.5 255t278 173t338.5 65q132 0 249.5 -37.5t205.5 -104.5t152 -157t97 -197t33 -221
q0 -159 -69 -306t-185 -255t-277.5 -173t-338.5 -65q-132 0 -249.5 37t-205.5 104t-152.5 156.5t-97.5 196.5t-33 223z" />
    <glyph glyph-name="Pi" unicode="&#x3a0;" horiz-adv-x="1607" 
d="M164 0l303 1434h1280l-303 -1434h-389l225 1065h-502l-225 -1065h-389z" />
    <glyph glyph-name="Rho" unicode="&#x3a1;" horiz-adv-x="1454" 
d="M164 0l303 1434h610q205 0 337 -127t132 -328q0 -155 -77 -281.5t-207.5 -197t-286.5 -70.5h-332l-90 -430h-389zM717 778h260q74 0 127 48.5t53 115.5q0 58 -44 100.5t-109 42.5h-222z" />
    <glyph glyph-name="Sigma" unicode="&#x3a3;" horiz-adv-x="1280" 
d="M102 0l64 307l448 420l-274 399l66 308h1095l-78 -369h-637l258 -369l-352 -327h584l-78 -369h-1096z" />
    <glyph glyph-name="Tau" unicode="&#x3a4;" horiz-adv-x="1269" 
d="M420 0l229 1085h-399l74 349h1187l-73 -349h-400l-229 -1085h-389z" />
    <glyph glyph-name="Upsilon" unicode="&#x3a5;" horiz-adv-x="1372" 
d="M471 0l109 512l-318 922h400l153 -564h8l391 564h461l-706 -922l-109 -512h-389z" />
    <glyph glyph-name="Phi" unicode="&#x3a6;" horiz-adv-x="1843" 
d="M799 397l141 658q-68 -2 -130 -29.5t-110.5 -75t-77 -121t-28.5 -161.5q0 -108 54.5 -177.5t150.5 -93.5zM1331 1057l-141 -658q68 2 130 29.5t110.5 75t77 121t28.5 161.5q0 108 -54.5 177.5t-150.5 93.5zM694 -102l35 163q-237 49 -379.5 219t-142.5 392
q0 119 42 230.5t118 199.5t175.5 154t221 101.5t248.5 35.5l35 163h389l-35 -163q237 -49 379.5 -219t142.5 -392q0 -119 -42 -230.5t-118 -199.5t-175.5 -154t-221 -101.5t-248.5 -35.5l-35 -163h-389z" />
    <glyph glyph-name="Chi" unicode="&#x3a7;" horiz-adv-x="1392" 
d="M-20 0l618 748l-274 686h407l152 -430h8l332 430h452l-565 -686l303 -748h-407l-179 492h-8l-387 -492h-452z" />
    <glyph glyph-name="Psi" unicode="&#x3a8;" horiz-adv-x="1822" 
d="M707 0l77 369q-236 31 -363.5 162.5t-127.5 349.5q0 61 18 153l84 400h389l-86 -410q-12 -50 -12 -82q0 -90 43.5 -138.5t132.5 -66.5l148 697h389l-148 -697q112 0 180.5 54t96.5 182l96 461h389l-104 -496q-57 -276 -246 -422.5t-489 -146.5l-78 -369h-389z" />
    <glyph glyph-name="uni03A9" unicode="&#x3a9;" horiz-adv-x="1802" 
d="M123 0l63 307h254q-95 80 -140.5 184.5t-45.5 253.5q0 142 62.5 274.5t171 233.5t267.5 161.5t341 60.5q339 0 551.5 -178.5t212.5 -456.5q0 -85 -23.5 -163.5t-58.5 -135.5t-81.5 -105.5t-88 -78.5t-82.5 -50h196l-63 -307h-666l70 328q166 30 276.5 146.5t110.5 303.5
q0 154 -102.5 250t-264.5 96q-183 0 -314.5 -132t-131.5 -328q0 -118 59 -205t162 -131l-70 -328h-665z" />
    <glyph glyph-name="Iotadieresis" unicode="&#x3aa;" horiz-adv-x="716" 
d="M164 0l303 1434h389l-303 -1434h-389zM502 1946q66 0 110.5 -46t44.5 -114q0 -77 -57.5 -133t-136.5 -56q-66 0 -111 46t-45 114q0 77 58 133t137 56zM934 1597q-66 0 -111 46t-45 114q0 77 58 133t137 56q66 0 110.5 -46t44.5 -114q0 -77 -57.5 -133t-136.5 -56z" />
    <glyph glyph-name="Upsilondieresis" unicode="&#x3ab;" horiz-adv-x="1372" 
d="M471 0l109 512l-318 922h400l153 -564h8l391 564h461l-706 -922l-109 -512h-389zM809 1946q66 0 111 -46t45 -114q0 -77 -58 -133t-137 -56q-66 0 -111 46t-45 114q0 77 58 133t137 56zM1241 1597q-66 0 -111 46t-45 114q0 77 58 133t137 56q66 0 111 -46t45 -114
q0 -77 -58 -133t-137 -56z" />
    <glyph glyph-name="alphatonos" unicode="&#x3ac;" horiz-adv-x="1310" 
d="M911 143h-10q-32 -44 -86 -82q-113 -81 -256 -81q-172 0 -278.5 123.5t-106.5 316.5q0 133 45.5 248.5t120 192t167 120t187.5 43.5q148 0 234 -98q35 -40 57 -99h12l37 177h346l-131 -619q-4 -16 -4 -23q0 -55 55 -55q19 0 25 2l12 4l-65 -315q-14 -7 -31 -10
q-31 -8 -84 -8q-146 0 -211 81q-30 41 -35 82zM705 297q89 0 157 66.5t68 160.5q0 76 -48 129.5t-124 53.5q-89 0 -157.5 -67t-68.5 -161q0 -76 48.5 -129t124.5 -53zM709 1137l243 327h369l-315 -327h-297z" />
    <glyph glyph-name="epsilontonos" unicode="&#x3ad;" horiz-adv-x="983" 
d="M760 399h-137q-105 0 -105 -71q0 -72 137 -72q92 0 158 39q19 10 59 41l148 -217q-49 -40 -113 -70q-142 -69 -303 -69q-121 0 -215.5 26.5t-148.5 70.5t-81.5 95.5t-27.5 106.5q0 150 137 217q61 30 140 39q-38 12 -80 45q-80 64 -80 159q0 113 112 199t295 86
q192 0 344 -84q72 -42 107 -82l-207 -188q-15 18 -47 39q-71 39 -150 39q-40 0 -63 -17t-23 -41q0 -23 22 -44t60 -21h109zM555 1137l244 327h368l-315 -327h-297z" />
    <glyph glyph-name="etatonos" unicode="&#x3ae;" horiz-adv-x="1239" 
d="M123 0l213 1004h348l-27 -134h11q31 42 71 76q94 78 211 78q141 0 227.5 -88t86.5 -240q0 -49 -17 -129l-121 -567h-348l111 518q4 20 4 45q0 57 -33.5 95t-93.5 38q-64 0 -114.5 -44.5t-67.5 -121.5l-113 -530h-348zM678 1137l244 327h368l-315 -327h-297z" />
    <glyph glyph-name="iotatonos" unicode="&#x3af;" horiz-adv-x="645" 
d="M203 373l133 631h348l-121 -566l-4 -14q-2 -8 -2 -25q0 -46 28 -69t74 -23q23 0 29 2q8 0 12 2l-65 -315q-2 0 -15.5 -3.5t-21.5 -4.5q-31 -8 -98 -8q-142 0 -226 78t-84 218q0 30 13 97zM381 1137l244 327h368l-315 -327h-297z" />
    <glyph glyph-name="upsilondieresistonos" unicode="&#x3b0;" 
d="M711 1137l192 327h205l-274 -327h-123zM602 1475q66 0 111 -46t45 -114q0 -77 -58 -133t-137 -56q-66 0 -110.5 46t-44.5 114q0 77 57.5 133t136.5 56zM1198 1126q-66 0 -111 46t-45 114q0 77 58 133t137 56q66 0 111 -46t45 -114q0 -77 -58 -133t-137 -56zM227 500
l109 504h348l-111 -517q-4 -28 -4 -30q0 -55 41 -92t107 -37q51 0 96.5 34.5t58.5 92.5l119 549h348l-129 -609q-41 -190 -184 -302.5t-336 -112.5q-215 0 -345 114.5t-130 294.5q0 49 12 111z" />
    <glyph glyph-name="alpha" unicode="&#x3b1;" horiz-adv-x="1310" 
d="M911 143h-10q-32 -44 -86 -82q-113 -81 -256 -81q-172 0 -278.5 123.5t-106.5 316.5q0 133 45.5 248.5t120 192t167 120t187.5 43.5q148 0 234 -98q35 -40 57 -99h12l37 177h346l-131 -619q-4 -16 -4 -23q0 -55 55 -55q19 0 25 2l12 4l-65 -315q-14 -7 -31 -10
q-31 -8 -84 -8q-146 0 -211 81q-30 41 -35 82zM705 297q89 0 157 66.5t68 160.5q0 76 -48 129.5t-124 53.5q-89 0 -157.5 -67t-68.5 -161q0 -76 48.5 -129t124.5 -53z" />
    <glyph glyph-name="beta" unicode="&#x3b2;" 
d="M41 -430l313 1477q41 189 177.5 298t328.5 109q209 0 327 -103.5t118 -258.5t-115 -258q-51 -45 -115 -72q56 -31 99 -76q100 -104 100 -235q0 -193 -145 -322t-375 -129h-273l-92 -430h-348zM547 317h198q73 0 116.5 44t43.5 112q0 51 -35.5 86t-95.5 35h-86l64 297h61
q61 0 102 43t41 108q0 47 -30.5 76t-81.5 29q-55 0 -95 -35t-53 -100z" />
    <glyph glyph-name="gamma" unicode="&#x3b3;" horiz-adv-x="1105" 
d="M276 -430l93 430l-166 1004h358l45 -584h8l295 584h400l-592 -1004l-92 -430h-349z" />
    <glyph glyph-name="delta" unicode="&#x3b4;" horiz-adv-x="1228" 
d="M422 1167l55 267h881l-60 -287h-383q345 -266 345 -619q0 -150 -76 -275.5t-210.5 -199t-297.5 -73.5q-114 0 -211 37.5t-161 101t-100 147.5t-36 176q0 141 74.5 256.5t195 180.5t260.5 73q-69 92 -182 164q-55 34 -94 51zM694 297q79 0 140 56t61 130q0 67 -47 114.5
t-119 47.5q-71 0 -136 -51t-65 -131q0 -68 46.5 -117t119.5 -49z" />
    <glyph glyph-name="epsilon" unicode="&#x3b5;" horiz-adv-x="983" 
d="M760 399h-137q-105 0 -105 -71q0 -72 137 -72q92 0 158 39q19 10 59 41l148 -217q-49 -40 -113 -70q-142 -69 -303 -69q-121 0 -215.5 26.5t-148.5 70.5t-81.5 95.5t-27.5 106.5q0 150 137 217q61 30 140 39q-38 12 -80 45q-80 64 -80 159q0 113 112 199t295 86
q192 0 344 -84q72 -42 107 -82l-207 -188q-15 18 -47 39q-71 39 -150 39q-40 0 -63 -17t-23 -41q0 -23 22 -44t60 -21h109z" />
    <glyph glyph-name="zeta" unicode="&#x3b6;" horiz-adv-x="1064" 
d="M887 -287h-303q21 98 71 185q14 27 50 73q-6 -2 -19 -2h-41q-217 0 -349 114t-132 288q0 284 266 538q119 116 266 197h-340l70 328h881l-66 -308q-189 -85 -352 -198q-352 -253 -352 -471q0 -87 59 -128.5t186 -41.5q68 0 136 14q42 9 59 14l125 -231q-51 -48 -90 -104
q-95 -128 -125 -267z" />
    <glyph glyph-name="eta" unicode="&#x3b7;" horiz-adv-x="1239" 
d="M123 0l213 1004h348l-27 -134h11q31 42 71 76q94 78 211 78q141 0 227.5 -88t86.5 -240q0 -49 -17 -129l-121 -567h-348l111 518q4 20 4 45q0 57 -33.5 95t-93.5 38q-64 0 -114.5 -44.5t-67.5 -121.5l-113 -530h-348z" />
    <glyph glyph-name="theta" unicode="&#x3b8;" horiz-adv-x="1351" 
d="M735 -31q-239 0 -378.5 154.5t-139.5 429.5q0 175 51.5 340.5t140 291.5t217.5 202.5t275 76.5q235 0 376.5 -152.5t141.5 -430.5q0 -188 -55 -358t-147.5 -291t-218.5 -192t-263 -71zM600 778h455q10 30 10 113q0 134 -49 195t-129 61q-87 0 -165.5 -90t-121.5 -279z
M1036 655h-454q-11 -33 -11 -112q0 -134 49.5 -195t129.5 -61q86 0 165.5 90t120.5 278z" />
    <glyph glyph-name="iota" unicode="&#x3b9;" horiz-adv-x="645" 
d="M203 373l133 631h348l-121 -566l-4 -14q-2 -8 -2 -25q0 -46 28 -69t74 -23q23 0 29 2q8 0 12 2l-65 -315q-2 0 -15.5 -3.5t-21.5 -4.5q-31 -8 -98 -8q-142 0 -226 78t-84 218q0 30 13 97z" />
    <glyph glyph-name="kappa" unicode="&#x3ba;" horiz-adv-x="1167" 
d="M123 0l213 1004h348l-72 -338l369 338h442l-501 -451l252 -553h-375l-150 348l-133 -131l-45 -217h-348z" />
    <glyph glyph-name="lambda" unicode="&#x3bb;" horiz-adv-x="1105" 
d="M0 0l612 1004l-10 30q-33 103 -164 103q-6 0 -55 -7l-23 -6l68 316l37 6q31 8 96 8q83 0 145.5 -18t119 -63.5t94 -132.5t55.5 -216l131 -1024h-348l-39 573h-8l-322 -573h-389z" />
    <glyph glyph-name="uni03BC" unicode="&#x3bc;" 
d="M31 -430l305 1434h348l-111 -519q-4 -20 -4 -45q0 -57 33.5 -95t93.5 -38q64 0 115 45t68 121l112 531h348l-213 -1004h-348l27 133h-10q-28 -40 -72 -78q-90 -75 -211 -75h-49l-86 -410h-346z" />
    <glyph glyph-name="nu" unicode="&#x3bd;" horiz-adv-x="1105" 
d="M369 0l-166 1004h358l45 -584h8l295 584h400l-592 -1004h-348z" />
    <glyph glyph-name="xi" unicode="&#x3be;" horiz-adv-x="1054" 
d="M887 -287h-303q21 98 71 185q14 27 50 73q-6 -2 -19 -2h-41q-120 0 -215 35.5t-151.5 95t-85.5 130.5t-29 147q0 225 190 342q79 50 191 69l2 9q-58 21 -101 61q-100 84 -100 217q0 157 139.5 273t354.5 116q199 0 329 -69q59 -30 93 -70l-213 -248q-24 21 -50 35
q-72 35 -137 35q-71 0 -117.5 -36t-46.5 -87q0 -54 42 -88.5t110 -34.5h149l-65 -307h-195q-92 0 -150.5 -46.5t-58.5 -113.5q0 -65 63 -106t189 -41q68 0 136 14q42 9 59 14l125 -231q-51 -48 -90 -104q-95 -128 -125 -267z" />
    <glyph glyph-name="omicron" unicode="&#x3bf;" 
d="M707 297q90 0 152.5 65.5t62.5 159.5q0 76 -50.5 130.5t-123.5 54.5q-90 0 -153 -66t-63 -160q0 -76 51 -130t124 -54zM174 471q0 112 45.5 214t124 176.5t189.5 118.5t235 44q114 0 211 -39t162.5 -106t102 -157t36.5 -190q0 -112 -45.5 -214t-124 -176t-189.5 -118
t-235 -44q-114 0 -211 39t-162.5 106t-102 156.5t-36.5 189.5z" />
    <glyph glyph-name="pi" unicode="&#x3c0;" 
d="M123 0l213 1004h1003l-213 -1004h-348l144 676h-308l-143 -676h-348z" />
    <glyph glyph-name="rho" unicode="&#x3c1;" horiz-adv-x="1280" 
d="M20 -430l211 989q41 199 209.5 332t374.5 133q111 0 206.5 -39t160 -105.5t101 -153.5t36.5 -183q0 -153 -82 -283.5t-219.5 -205t-296.5 -74.5q-94 0 -182 30q-36 11 -70 31l-100 -471h-349zM741 297q89 0 154.5 66t65.5 159q0 80 -48.5 132.5t-121.5 52.5
q-91 0 -155.5 -65.5t-64.5 -158.5q0 -77 47 -131.5t123 -54.5z" />
    <glyph glyph-name="sigma1" unicode="&#x3c2;" horiz-adv-x="1095" 
d="M815 -287h-303q22 109 76 191q17 32 51 76q-117 12 -208 55t-146 108.5t-83 145.5t-28 170q0 154 80.5 284t217 205.5t296.5 75.5q195 0 340 -92q62 -39 106 -92l-245 -230q-19 25 -47 47q-66 50 -152 50q-101 0 -169.5 -66t-68.5 -160q0 -86 63.5 -135t172.5 -49
q71 0 102 8q16 2 35 10l125 -231q-51 -48 -90 -104q-95 -128 -125 -267z" />
    <glyph glyph-name="sigma" unicode="&#x3c3;" horiz-adv-x="1320" 
d="M768 1004h745l-71 -338h-185q23 -81 23 -144q0 -110 -45.5 -210t-124 -173t-189.5 -116t-235 -43q-114 0 -211 38.5t-162.5 104.5t-102 153.5t-36.5 184.5q0 148 77.5 272.5t214 197.5t302.5 73zM707 297q92 0 153.5 61t61.5 152q0 74 -50.5 125t-123.5 51
q-92 0 -154 -61t-62 -152q0 -74 51 -125t124 -51z" />
    <glyph glyph-name="tau" unicode="&#x3c4;" horiz-adv-x="1003" 
d="M387 373l64 303h-287l69 328h922l-70 -328h-286l-51 -238l-5 -14q-2 -8 -2 -25q0 -45 28.5 -68.5t74.5 -23.5q22 0 28 2q9 0 13 2l-66 -315q-2 0 -15.5 -3.5t-21.5 -4.5q-31 -8 -98 -8q-142 0 -225.5 78t-83.5 218q0 35 12 97z" />
    <glyph glyph-name="upsilon" unicode="&#x3c5;" 
d="M227 500l109 504h348l-111 -517q-4 -28 -4 -30q0 -55 41 -92t107 -37q51 0 96.5 34.5t58.5 92.5l119 549h348l-129 -609q-41 -190 -184 -302.5t-336 -112.5q-215 0 -345 114.5t-130 294.5q0 49 12 111z" />
    <glyph glyph-name="phi" unicode="&#x3c6;" horiz-adv-x="1576" 
d="M1114 717l-96 -451q111 0 184.5 67.5t73.5 190.5q0 77 -44 128t-118 65zM524 -426l82 387q-199 32 -323.5 173t-124.5 321q0 107 39.5 200t107 159t146 112t167.5 75l95 -290q-86 -13 -145.5 -78.5t-59.5 -175.5q0 -77 43.5 -127t118.5 -64l161 758h275q111 0 209 -42
t165 -111.5t105.5 -159t38.5 -183.5q0 -124 -57.5 -232t-151.5 -180.5t-215 -114.5t-248 -42l-82 -385h-346z" />
    <glyph glyph-name="chi" unicode="&#x3c7;" horiz-adv-x="1085" 
d="M-10 0l426 512l-193 492h357l86 -297h8l213 297h401l-401 -492l209 -512h-357l-104 317h-8l-236 -317h-401z" />
    <glyph glyph-name="psi" unicode="&#x3c8;" horiz-adv-x="1638" 
d="M553 -430l82 389q-212 48 -317 155.5t-105 293.5q0 32 2 58.5t3.5 36.5t5.5 32l5 22l97 447h348l-99 -461q-12 -50 -12 -82q0 -127 146 -154l149 697h348l-149 -697q96 0 149.5 45t77.5 158l107 494h348l-113 -531q-54 -246 -217.5 -378t-425.5 -136l-82 -389h-348z" />
    <glyph glyph-name="omega" unicode="&#x3c9;" horiz-adv-x="1699" 
d="M776 475l49 232h349l-41 -201q0 -3 -3 -13.5t-4.5 -24t-1.5 -30.5q0 -66 28 -102.5t71 -36.5q58 0 108.5 69t50.5 189q0 105 -71 191l209 245q90 -57 155.5 -167.5t65.5 -258.5q0 -132 -46.5 -248t-122 -193.5t-170 -122t-190.5 -44.5q-174 0 -258 96q-37 40 -53 99
q-42 -58 -92 -99q-116 -96 -252 -96q-165 0 -278 128.5t-113 326.5q0 103 28.5 195t73.5 157.5t103.5 118t115.5 83t113 46.5l96 -266q-26 -19 -43.5 -34t-44 -44.5t-42.5 -60t-28 -76.5t-12 -97q0 -69 27.5 -105t71.5 -36q47 0 89.5 45t61.5 135z" />
    <glyph glyph-name="iotadieresis" unicode="&#x3ca;" horiz-adv-x="645" 
d="M203 373l133 631h348l-121 -566l-4 -14q-2 -8 -2 -25q0 -46 28 -69t74 -23q23 0 29 2q8 0 12 2l-65 -315q-2 0 -15.5 -3.5t-21.5 -4.5q-31 -8 -98 -8q-142 0 -226 78t-84 218q0 30 13 97zM358 1485q66 0 111 -46t45 -114q0 -77 -58 -132.5t-137 -55.5q-66 0 -110.5 45.5
t-44.5 113.5q0 77 57.5 133t136.5 56zM791 1137q-66 0 -111 46t-45 113q0 77 57.5 133t136.5 56q66 0 111 -46t45 -114q0 -77 -57.5 -132.5t-136.5 -55.5z" />
    <glyph glyph-name="upsilondieresis" unicode="&#x3cb;" 
d="M227 500l109 504h348l-111 -517q-4 -28 -4 -30q0 -55 41 -92t107 -37q51 0 96.5 34.5t58.5 92.5l119 549h348l-129 -609q-41 -190 -184 -302.5t-336 -112.5q-215 0 -345 114.5t-130 294.5q0 49 12 111zM666 1485q66 0 110.5 -46t44.5 -114q0 -77 -57.5 -132.5
t-136.5 -55.5q-66 0 -111 46t-45 113q0 77 58 133t137 56zM1098 1137q-66 0 -111 46t-45 113q0 77 58 133t137 56q66 0 110.5 -46t44.5 -114q0 -77 -57.5 -132.5t-136.5 -55.5z" />
    <glyph glyph-name="omicrontonos" unicode="&#x3cc;" 
d="M707 297q90 0 152.5 65.5t62.5 159.5q0 76 -50.5 130.5t-123.5 54.5q-90 0 -153 -66t-63 -160q0 -76 51 -130t124 -54zM174 471q0 112 45.5 214t124 176.5t189.5 118.5t235 44q114 0 211 -39t162.5 -106t102 -157t36.5 -190q0 -112 -45.5 -214t-124 -176t-189.5 -118
t-235 -44q-114 0 -211 39t-162.5 106t-102 156.5t-36.5 189.5zM668 1137l243 327h369l-315 -327h-297z" />
    <glyph glyph-name="upsilontonos" unicode="&#x3cd;" 
d="M227 500l109 504h348l-111 -517q-4 -28 -4 -30q0 -55 41 -92t107 -37q51 0 96.5 34.5t58.5 92.5l119 549h348l-129 -609q-41 -190 -184 -302.5t-336 -112.5q-215 0 -345 114.5t-130 294.5q0 49 12 111zM688 1137l244 327h368l-315 -327h-297z" />
    <glyph glyph-name="omegatonos" unicode="&#x3ce;" horiz-adv-x="1720" 
d="M786 475l50 232h348l-41 -201q-8 -56 -8 -68q0 -67 27.5 -103t70.5 -36q59 0 109.5 69t50.5 189q0 104 -72 191l209 245q90 -57 155.5 -167.5t65.5 -258.5q0 -132 -46.5 -248t-121.5 -193.5t-169.5 -122t-190.5 -44.5q-174 0 -258 96q-38 41 -54 99q-42 -58 -92 -99
q-116 -96 -252 -96q-165 0 -278 128.5t-113 326.5q0 103 28.5 195t73.5 157.5t103.5 118t115.5 83t113 46.5l97 -266q-26 -19 -43.5 -34t-44 -44.5t-42.5 -60t-28 -76.5t-12 -97q0 -69 27.5 -105t70.5 -36q47 0 89.5 45t61.5 135zM903 1137l244 327h369l-316 -327h-297z" />
    <glyph glyph-name="uni0400" unicode="&#x400;" horiz-adv-x="1361" 
d="M164 0l303 1434h1096l-74 -349h-707l-43 -204h543l-70 -328h-542l-43 -205h727l-74 -348h-1116zM862 1597l-176 328h369l104 -328h-297z" />
    <glyph glyph-name="uni0401" unicode="&#x401;" horiz-adv-x="1361" 
d="M164 0l303 1434h1096l-74 -349h-707l-43 -204h543l-70 -328h-542l-43 -205h727l-74 -348h-1116zM829 1946q66 0 111 -46t45 -114q0 -77 -57.5 -133t-136.5 -56q-66 0 -111 46t-45 114q0 77 57.5 133t136.5 56zM1262 1597q-66 0 -111 46t-45 114q0 77 57.5 133t136.5 56
q66 0 111 -46t45 -114q0 -77 -57.5 -133t-136.5 -56z" />
    <glyph glyph-name="uni0402" unicode="&#x402;" horiz-adv-x="1515" 
d="M307 0l230 1085h-318l74 349h1003l-73 -349h-297l-45 -217q42 21 69 31q97 33 185 33q202 0 321 -117t119 -299q0 -249 -151 -403t-390 -154h-164l72 338h39q88 0 140.5 43t52.5 115q0 55 -49 92t-126 37q-75 0 -143 -37q-29 -16 -51 -35l-109 -512h-389z" />
    <glyph glyph-name="uni0403" unicode="&#x403;" horiz-adv-x="1218" 
d="M801 1597l243 328h369l-315 -328h-297zM164 0l303 1434h1003l-77 -369h-615l-225 -1065h-389z" />
    <glyph glyph-name="uni0404" unicode="&#x404;" horiz-adv-x="1556" 
d="M672 881h557l-70 -328h-510q35 -99 128 -167.5t224 -68.5q133 0 269 70q54 27 108 72l183 -275q-59 -59 -154 -112q-198 -113 -444 -113q-164 0 -304.5 59t-234.5 158t-146.5 229t-52.5 271q0 159 69 306t185 255t277.5 173t337.5 65q283 0 479 -160q87 -72 141 -158
l-266 -246q-39 56 -92 103q-126 102 -289 102q-131 0 -237 -66.5t-158 -168.5z" />
    <glyph glyph-name="uni0405" unicode="&#x405;" 
d="M111 242l266 231q35 -53 78 -88q95 -88 231 -88q81 0 127.5 36.5t46.5 86.5q0 33 -30.5 63.5t-79.5 57t-107.5 56t-117.5 67t-108 83t-79.5 112t-30.5 145.5q0 92 41.5 177.5t113.5 150.5t178.5 104t229.5 39q234 0 398 -113q65 -49 114 -113l-266 -233q-19 30 -55 59
q-78 62 -178 62q-68 0 -110 -32t-42 -73q0 -34 30.5 -64.5t79 -56.5t107 -55t117.5 -66.5t107.5 -82t79 -111t30.5 -145.5q0 -101 -40.5 -190t-114 -156.5t-185 -106.5t-246.5 -39q-262 0 -450 141q-81 61 -135 142z" />
    <glyph glyph-name="uni0406" unicode="&#x406;" horiz-adv-x="716" 
d="M164 0l303 1434h389l-303 -1434h-389z" />
    <glyph glyph-name="uni0407" unicode="&#x407;" horiz-adv-x="716" 
d="M164 0l303 1434h389l-303 -1434h-389zM502 1946q66 0 110.5 -46t44.5 -114q0 -77 -57.5 -133t-136.5 -56q-66 0 -111 46t-45 114q0 77 58 133t137 56zM934 1597q-66 0 -111 46t-45 114q0 77 58 133t137 56q66 0 110.5 -46t44.5 -114q0 -77 -57.5 -133t-136.5 -56z" />
    <glyph glyph-name="uni0408" unicode="&#x408;" horiz-adv-x="1095" 
d="M12 170l299 248q13 -29 35 -51q50 -50 121 -50q69 0 120 44t68 116l201 957h389l-211 -998q-45 -218 -199 -347.5t-374 -129.5q-228 0 -357 104q-54 43 -92 107z" />
    <glyph glyph-name="uni0409" unicode="&#x409;" horiz-adv-x="2211" 
d="M14 16l74 353l31 -17q32 -14 76 -14q45 0 85.5 28.5t83 96.5t84.5 195t82 309l101 467h1065l-90 -430h176q216 0 352.5 -125.5t136.5 -325.5q0 -156 -75 -283t-206 -198.5t-290 -71.5h-696l225 1065h-287l-29 -137q-47 -224 -103.5 -393t-116.5 -278t-131 -176
t-142 -94.5t-154 -27.5q-105 0 -190 29q-35 11 -62 28zM1466 348h236q73 0 125.5 49.5t52.5 116.5q0 57 -38 99t-101 42h-209z" />
    <glyph glyph-name="uni040A" unicode="&#x40a;" horiz-adv-x="2252" 
d="M164 0l303 1434h389l-90 -430h489l93 430h389l-90 -430h176q216 0 352.5 -125.5t136.5 -325.5q0 -156 -75 -283t-206 -198.5t-290 -71.5h-697l134 635h-492l-133 -635h-389zM1507 348h236q73 0 125.5 49.5t52.5 116.5q0 57 -38 99t-101 42h-209z" />
    <glyph glyph-name="uni040B" unicode="&#x40b;" horiz-adv-x="1566" 
d="M307 0l230 1085h-318l74 349h1003l-73 -349h-297l-45 -217q42 21 69 31q97 33 185 33q202 0 321 -117t119 -299q0 -31 -14 -108l-86 -408h-390l82 391q7 35 7 41q0 71 -48 111.5t-127 40.5q-75 0 -143 -37q-29 -16 -51 -35l-109 -512h-389z" />
    <glyph glyph-name="uni040C" unicode="&#x40c;" horiz-adv-x="1495" 
d="M164 0l303 1434h389l-117 -553l588 553h483l-669 -625l362 -809h-438l-236 520l-206 -188l-70 -332h-389zM934 1597l244 328h368l-315 -328h-297z" />
    <glyph glyph-name="uni040D" unicode="&#x40d;" horiz-adv-x="1669" 
d="M164 0l303 1434h389l-162 -758l776 758h338l-303 -1434h-389l160 758l-774 -758h-338zM995 1597l-176 328h369l104 -328h-297z" />
    <glyph glyph-name="uni040E" unicode="&#x40e;" horiz-adv-x="1333" 
d="M657 1935h248q0 -57 24.5 -84.5t80.5 -27.5q92 0 120 112h244q-17 -147 -124 -242.5t-257 -95.5q-155 0 -246.5 87t-91.5 219q0 22 2 32zM119 25l74 331q19 -7 34 -10q31 -8 80 -8q133 0 230 139l24 35l-278 922h399l137 -594h8l347 594h460l-753 -1106
q-115 -168 -245.5 -258t-287.5 -90q-109 0 -170 22q-38 10 -59 23z" />
    <glyph glyph-name="uni040F" unicode="&#x40f;" horiz-adv-x="1617" 
d="M164 0l303 1434h389l-225 -1065h512l225 1065h389l-303 -1434h-450l-62 -287h-389l61 287h-450z" />
    <glyph glyph-name="uni0410" unicode="&#x410;" horiz-adv-x="1495" 
d="M786 625h267l-41 409h-8zM10 0l846 1434h430l240 -1434h-400l-39 307h-471l-165 -307h-441z" />
    <glyph glyph-name="uni0411" unicode="&#x411;" horiz-adv-x="1402" 
d="M625 338h276q67 0 110.5 42t43.5 101q0 50 -34 86.5t-91 36.5h-250zM164 0l303 1434h1044l-71 -338h-656l-32 -154h221q208 0 341.5 -119.5t133.5 -310.5q0 -149 -72.5 -267t-196.5 -181.5t-276 -63.5h-739z" />
    <glyph glyph-name="uni0412" unicode="&#x412;" horiz-adv-x="1443" 
d="M164 0l303 1434h577q224 0 351 -102.5t127 -266.5q0 -169 -142 -266q-62 -47 -139 -68q64 -30 109 -69q108 -96 108 -252q0 -84 -36.5 -158.5t-101.5 -130.5t-163 -88.5t-215 -32.5h-778zM616 307h289q73 0 118.5 42t45.5 110q0 53 -40.5 94t-98.5 41h-252zM739 881h236
q62 0 99.5 38.5t37.5 96.5q0 45 -31.5 77.5t-83.5 32.5h-206z" />
    <glyph glyph-name="uni0413" unicode="&#x413;" horiz-adv-x="1218" 
d="M164 0l303 1434h1003l-77 -369h-615l-225 -1065h-389z" />
    <glyph glyph-name="uni0414" unicode="&#x414;" horiz-adv-x="1556" 
d="M-49 -287l137 656h82q67 52 131 137q143 191 205 477l94 451h1065l-225 -1065h164l-140 -656h-389l62 287h-738l-61 -287h-387zM590 369h461l147 696h-287l-16 -82q-61 -284 -188 -477q-54 -83 -117 -137z" />
    <glyph glyph-name="uni0415" unicode="&#x415;" horiz-adv-x="1361" 
d="M164 0l303 1434h1096l-74 -349h-707l-43 -204h543l-70 -328h-542l-43 -205h727l-74 -348h-1116z" />
    <glyph glyph-name="uni0416" unicode="&#x416;" horiz-adv-x="2170" 
d="M-68 0l758 870l-366 564h430l323 -502l107 502h389l-107 -502l537 502h483l-669 -625l360 -809h-436l-232 532l-159 -149l-80 -383h-389l92 442l-74 119l-479 -561h-488z" />
    <glyph glyph-name="uni0417" unicode="&#x417;" horiz-adv-x="1269" 
d="M66 252l264 233q38 -51 84 -84q111 -84 262 -84q91 0 138.5 35.5t47.5 87.5q0 47 -40.5 85t-114.5 38h-189l70 328h192q78 0 120 33.5t42 83.5q0 47 -42.5 77.5t-141.5 30.5q-86 0 -183 -37q-20 -8 -73 -35l-185 267q50 38 140 82q176 82 362 82q133 0 240.5 -35
t174.5 -93t102.5 -129t35.5 -147q0 -101 -46 -171.5t-116 -111.5q-68 -42 -161 -61q61 -30 110 -76q113 -105 113 -245q0 -90 -40.5 -171t-114.5 -142.5t-187 -97.5t-248 -36q-273 0 -469 145q-87 63 -147 148z" />
    <glyph glyph-name="uni0418" unicode="&#x418;" horiz-adv-x="1669" 
d="M164 0l303 1434h389l-162 -758l776 758h338l-303 -1434h-389l160 758l-774 -758h-338z" />
    <glyph glyph-name="uni0419" unicode="&#x419;" horiz-adv-x="1669" 
d="M862 1935h248q0 -57 24 -84.5t80 -27.5q93 0 121 112h244q-17 -147 -124 -242.5t-257 -95.5q-155 0 -246.5 87t-91.5 219q0 22 2 32zM164 0l303 1434h389l-162 -758l776 758h338l-303 -1434h-389l160 758l-774 -758h-338z" />
    <glyph glyph-name="uni041A" unicode="&#x41a;" horiz-adv-x="1495" 
d="M164 0l303 1434h389l-117 -553l588 553h483l-669 -625l362 -809h-438l-236 520l-206 -188l-70 -332h-389z" />
    <glyph glyph-name="uni041B" unicode="&#x41b;" horiz-adv-x="1597" 
d="M14 16l74 353l31 -17q32 -14 76 -14q45 0 85.5 28.5t83 96.5t84.5 195t82 309l101 467h1106l-303 -1434h-390l226 1065h-328l-29 -137q-47 -224 -103.5 -393t-116.5 -278t-131 -176t-142 -94.5t-154 -27.5q-105 0 -190 29q-35 11 -62 28z" />
    <glyph glyph-name="uni041C" unicode="&#x41c;" horiz-adv-x="1904" 
d="M164 0l303 1434h317l324 -553l557 553h379l-303 -1434h-389l180 850l-506 -502l-293 502l-180 -850h-389z" />
    <glyph glyph-name="uni041D" unicode="&#x41d;" horiz-adv-x="1628" 
d="M164 0l303 1434h389l-111 -523h523l110 523h389l-303 -1434h-389l115 543h-522l-115 -543h-389z" />
    <glyph glyph-name="uni041E" unicode="&#x41e;" horiz-adv-x="1761" 
d="M995 317q115 0 216 54.5t163 154.5t62 222q0 98 -46 182t-131 135t-192 51q-115 0 -215.5 -54t-162.5 -154t-62 -222q0 -152 104 -260.5t264 -108.5zM227 676q0 159 69 306t185.5 255t278 173t338.5 65q132 0 249.5 -37.5t205.5 -104.5t152 -157t97 -197t33 -221
q0 -159 -69 -306t-185 -255t-277.5 -173t-338.5 -65q-132 0 -249.5 37t-205.5 104t-152.5 156.5t-97.5 196.5t-33 223z" />
    <glyph glyph-name="uni041F" unicode="&#x41f;" horiz-adv-x="1607" 
d="M164 0l303 1434h1280l-303 -1434h-389l225 1065h-502l-225 -1065h-389z" />
    <glyph glyph-name="uni0420" unicode="&#x420;" horiz-adv-x="1454" 
d="M164 0l303 1434h610q205 0 337 -127t132 -328q0 -155 -77 -281.5t-207.5 -197t-286.5 -70.5h-332l-90 -430h-389zM717 778h260q74 0 127 48.5t53 115.5q0 58 -44 100.5t-109 42.5h-222z" />
    <glyph glyph-name="uni0421" unicode="&#x421;" horiz-adv-x="1556" 
d="M1378 459l183 -277q-60 -57 -158 -112q-210 -111 -440 -111q-161 0 -300.5 58t-234.5 155.5t-149 228.5t-54 275q0 158 69.5 305.5t185.5 255.5t276.5 173t335.5 65q285 0 481 -160q87 -72 141 -158l-266 -246q-39 56 -92 103q-126 102 -291 102q-117 0 -218 -55.5
t-161.5 -155t-60.5 -219.5q0 -151 104 -260t264 -109q141 0 277 70q54 27 108 72z" />
    <glyph glyph-name="uni0422" unicode="&#x422;" horiz-adv-x="1269" 
d="M420 0l229 1085h-399l74 349h1187l-73 -349h-400l-229 -1085h-389z" />
    <glyph glyph-name="uni0423" unicode="&#x423;" horiz-adv-x="1331" 
d="M119 25l74 331q19 -7 34 -10q31 -8 80 -8q133 0 230 139l24 35l-278 922h399l137 -594h8l347 594h460l-753 -1106q-115 -168 -245.5 -258t-287.5 -90q-109 0 -170 22q-38 10 -59 23z" />
    <glyph glyph-name="uni0424" unicode="&#x424;" horiz-adv-x="1863" 
d="M838 481l110 512q-61 0 -118 -18t-103.5 -52t-75 -89t-28.5 -123q0 -89 56 -151t159 -79zM1337 993l-110 -512q82 0 154.5 30.5t121.5 96.5t49 156q0 89 -56 150.5t-159 78.5zM727 -41l39 184q-248 40 -391.5 193.5t-143.5 359.5q0 133 51.5 247.5t148 201t248.5 136.5
t341 50l33 154h389l-33 -154q248 -40 391.5 -193.5t143.5 -359.5q0 -132 -52 -247t-149 -201.5t-248.5 -136.5t-339.5 -50l-39 -184h-389z" />
    <glyph glyph-name="uni0425" unicode="&#x425;" horiz-adv-x="1392" 
d="M-20 0l618 748l-274 686h407l152 -430h8l332 430h452l-565 -686l303 -748h-407l-179 492h-8l-387 -492h-452z" />
    <glyph glyph-name="uni0426" unicode="&#x426;" horiz-adv-x="1628" 
d="M164 0l303 1434h389l-225 -1065h481l225 1065h389l-225 -1065h164l-139 -656h-389l61 287h-1034z" />
    <glyph glyph-name="uni0427" unicode="&#x427;" horiz-adv-x="1515" 
d="M963 0l94 453l-70 -17q-86 -16 -168 -16q-226 0 -360.5 126t-134.5 349q0 60 18 152l84 387h389l-88 -416q-6 -42 -6 -64q0 -91 56 -138.5t165 -47.5q82 0 139 23q34 10 56 24l129 619h389l-303 -1434h-389z" />
    <glyph glyph-name="uni0428" unicode="&#x428;" horiz-adv-x="2211" 
d="M164 0l303 1434h389l-225 -1065h358l225 1065h390l-226 -1065h359l225 1065h389l-303 -1434h-1884z" />
    <glyph glyph-name="uni0429" unicode="&#x429;" horiz-adv-x="2252" 
d="M164 0l303 1434h389l-225 -1065h358l225 1065h390l-226 -1065h359l225 1065h389l-225 -1065h164l-140 -656h-389l62 287h-1659z" />
    <glyph glyph-name="uni042A" unicode="&#x42a;" horiz-adv-x="1525" 
d="M317 0l226 1065h-307l77 369h697l-90 -430h176q216 0 352.5 -125.5t136.5 -325.5q0 -156 -75 -283t-206 -198.5t-290 -71.5h-697zM780 348h236q73 0 125.5 49.5t52.5 116.5q0 57 -38 99t-101 42h-209z" />
    <glyph glyph-name="uni042B" unicode="&#x42b;" horiz-adv-x="2017" 
d="M1464 0l303 1434h390l-304 -1434h-389zM164 0l303 1434h389l-90 -430h176q216 0 353 -125.5t137 -325.5q0 -156 -75.5 -283t-206.5 -198.5t-290 -71.5h-696zM627 348h235q73 0 125.5 49.5t52.5 116.5q0 57 -38 99t-101 42h-209z" />
    <glyph glyph-name="uni042C" unicode="&#x42c;" horiz-adv-x="1392" 
d="M164 0l303 1434h389l-90 -430h197q216 0 352.5 -125.5t136.5 -325.5q0 -156 -75 -283t-206 -198.5t-290 -71.5h-717zM627 348h256q73 0 125.5 49.5t52.5 116.5q0 57 -38 99t-101 42h-230z" />
    <glyph glyph-name="uni042D" unicode="&#x42d;" horiz-adv-x="1556" 
d="M135 285l268 247q37 -62 93 -108q123 -107 295 -107q130 0 236.5 67t158.5 169h-557l69 328h510q-37 100 -129.5 167.5t-222.5 67.5q-128 0 -262 -67q-54 -25 -105 -66l-182 274q68 61 150 109q194 109 438 109q164 0 304.5 -59t234 -158t146 -229t52.5 -271
q0 -159 -69 -306t-185 -255t-277 -173t-337 -65q-287 0 -485 162q-86 69 -144 164z" />
    <glyph glyph-name="uni042E" unicode="&#x42e;" horiz-adv-x="2289" 
d="M164 0l303 1434h389l-113 -533h158q82 253 303 413.5t486 160.5q197 0 352 -91.5t238 -246t83 -342.5q0 -175 -69 -332t-182.5 -266.5t-265 -173.5t-312.5 -64q-274 0 -457 167.5t-213 426.5h-194l-117 -553h-389zM1563 317q77 0 151.5 33.5t132 92t92.5 144.5t35 183
q0 152 -88.5 249t-224.5 97q-77 0 -151.5 -33.5t-132 -91.5t-93 -144t-35.5 -183q0 -152 89 -249.5t225 -97.5z" />
    <glyph glyph-name="uni042F" unicode="&#x42f;" horiz-adv-x="1464" 
d="M51 0l414 563q-47 28 -86 80q-84 107 -84 254q0 150 75 273.5t205.5 193.5t286.5 70h742l-304 -1434h-389l95 451h-211l-314 -451h-430zM819 799h260l62 286h-287q-73 0 -120.5 -43.5t-47.5 -111.5q0 -53 37.5 -92t95.5 -39z" />
    <glyph glyph-name="uni0430" unicode="&#x430;" horiz-adv-x="1105" 
d="M655 0l25 123h-10q-30 -46 -66 -72q-86 -71 -205 -71q-125 0 -204.5 80.5t-79.5 189.5q0 270 366 342l314 63q-24 111 -160 111q-77 0 -139 -41q-29 -17 -56 -41l-145 190q48 39 113 74q140 76 288 76q197 0 318 -107t121 -268q0 -19 -2 -35t-5.5 -29t-3.5 -16l-120 -569
h-349zM741 406l9 45l-160 -33q-103 -23 -103 -101q0 -33 21.5 -52t62.5 -19q66 0 112 44t58 116z" />
    <glyph glyph-name="uni0431" unicode="&#x431;" horiz-adv-x="1239" 
d="M1270 1495l96 -270q-40 -22 -94 -39q-124 -43 -307 -64q-283 -34 -367 -264q48 37 74 51q94 54 194 54q177 0 291.5 -127.5t114.5 -313.5q0 -230 -162 -386t-405 -156q-229 0 -365.5 140.5t-136.5 389.5q0 168 41 313t108.5 247t157.5 177.5t186 115.5t195 50
q131 15 280 51q42 11 99 31zM713 287q74 0 135 59.5t61 140.5q0 69 -42 118.5t-107 49.5q-77 0 -139 -58.5t-62 -141.5q0 -68 43.5 -118t110.5 -50z" />
    <glyph glyph-name="uni0432" unicode="&#x432;" horiz-adv-x="1126" 
d="M123 0l213 1004h473q169 0 269 -80t100 -189q0 -53 -20.5 -96t-48.5 -67t-59 -40.5t-49.5 -22t-21.5 -5.5q34 -17 74 -49q73 -62 73 -154q0 -128 -103.5 -214.5t-274.5 -86.5h-625zM522 246h174q44 0 68 24.5t24 67.5q0 31 -24 51.5t-62 20.5h-145zM600 614h139
q36 0 59 22.5t23 55.5q0 26 -20 46t-51 20h-119z" />
    <glyph glyph-name="uni0433" unicode="&#x433;" horiz-adv-x="921" 
d="M123 0l213 1004h758l-70 -328h-410l-143 -676h-348z" />
    <glyph glyph-name="uni0434" unicode="&#x434;" horiz-adv-x="1208" 
d="M-27 -225l113 542h72q41 34 94 107q104 150 147 354l50 226h829l-148 -687h134l-115 -542h-348l49 225h-481l-50 -225h-346zM506 317h276l80 369h-164q-41 -171 -116 -280q-44 -62 -76 -89z" />
    <glyph glyph-name="uni0435" unicode="&#x435;" horiz-adv-x="1187" 
d="M969 322l86 -244q-53 -31 -101 -49q-123 -49 -268 -49q-114 0 -211 39t-162.5 106t-102 156.5t-36.5 189.5q0 112 45.5 214t124 176.5t189.5 118.5t235 44q136 0 243.5 -62.5t165.5 -167t58 -231.5q0 -85 -27 -164h-690q8 -55 70 -99t160 -44q79 0 159 33q36 16 62 33z
M545 614h356q-6 57 -50.5 95.5t-113.5 38.5q-64 0 -119.5 -37t-72.5 -97z" />
    <glyph glyph-name="uni0436" unicode="&#x436;" horiz-adv-x="1689" 
d="M-47 0l539 614l-269 390h389l201 -308l66 308h348l-66 -308l332 308h444l-503 -451l252 -553h-375l-148 346l-94 -84l-55 -262h-348l69 324l-41 59l-325 -383h-416z" />
    <glyph glyph-name="uni0437" unicode="&#x437;" horiz-adv-x="962" 
d="M61 195l211 180q22 -36 56 -60q74 -59 168 -59q98 0 98 76q0 26 -26 46.5t-76 20.5h-101l47 226h121q42 0 66 18.5t24 44.5t-27 43t-79 17q-48 0 -119 -23q-20 -7 -47 -23l-152 218q54 36 94 51q124 53 285 53q198 0 314 -86.5t116 -206.5q0 -129 -127 -196
q-62 -30 -125 -41q39 -12 88 -48q91 -68 91 -172q0 -59 -25.5 -111t-75 -93.5t-131.5 -65.5t-186 -24q-213 0 -367 106q-68 47 -115 109z" />
    <glyph glyph-name="uni0438" unicode="&#x438;" 
d="M123 0l213 1004h348l-94 -441l452 441h297l-213 -1004h-348l94 440l-452 -440h-297z" />
    <glyph glyph-name="uni0439" unicode="&#x439;" 
d="M559 1464h244v-12q0 -39 25.5 -64.5t68.5 -25.5q46 0 75.5 28.5t37.5 73.5h243q-5 -88 -55.5 -163.5t-131.5 -119.5t-173 -44q-148 0 -242 83t-94 207q0 23 2 37zM123 0l213 1004h348l-94 -441l452 441h297l-213 -1004h-348l94 440l-452 -440h-297z" />
    <glyph glyph-name="uni043A" unicode="&#x43a;" horiz-adv-x="1177" 
d="M123 0l213 1004h348l-72 -338l369 338h442l-501 -451l252 -553h-375l-150 348l-133 -131l-45 -217h-348z" />
    <glyph glyph-name="uni043B" unicode="&#x43b;" horiz-adv-x="1218" 
d="M10 14l68 312q20 -10 24 -11q19 -8 54 -8q48 0 84.5 34.5t75.5 135.5t79 281l54 246h860l-213 -1004h-348l143 676h-195l-10 -45q-44 -192 -95.5 -323t-111.5 -204.5t-123 -104t-141 -30.5q-95 0 -152 23q-38 11 -53 22z" />
    <glyph glyph-name="uni043C" unicode="&#x43c;" horiz-adv-x="1392" 
d="M123 0l213 1004h276l203 -349l350 349h318l-213 -1004h-348l108 512l-287 -287l-163 287l-109 -512h-348z" />
    <glyph glyph-name="uni043D" unicode="&#x43d;" horiz-adv-x="1239" 
d="M123 0l213 1004h348l-72 -338h297l72 338h348l-213 -1004h-348l72 338h-297l-72 -338h-348z" />
    <glyph glyph-name="uni043E" unicode="&#x43e;" 
d="M707 297q90 0 152.5 65.5t62.5 159.5q0 76 -50.5 130.5t-123.5 54.5q-90 0 -153 -66t-63 -160q0 -76 51 -130t124 -54zM174 471q0 112 45.5 214t124 176.5t189.5 118.5t235 44q114 0 211 -39t162.5 -106t102 -157t36.5 -190q0 -112 -45.5 -214t-124 -176t-189.5 -118
t-235 -44q-114 0 -211 39t-162.5 106t-102 156.5t-36.5 189.5z" />
    <glyph glyph-name="uni043F" unicode="&#x43f;" horiz-adv-x="1239" 
d="M123 0l213 1004h993l-213 -1004h-348l143 676h-297l-143 -676h-348z" />
    <glyph glyph-name="uni0440" unicode="&#x440;" horiz-adv-x="1290" 
d="M33 -430l303 1434h348l-27 -134h11q33 44 73 76q98 78 222 78q154 0 260 -120t106 -320q0 -130 -44.5 -244.5t-117.5 -192.5t-167 -122.5t-191 -44.5q-150 0 -236 98q-37 43 -55 98h-12l-125 -606h-348zM745 297q89 0 157.5 66.5t68.5 160.5q0 76 -48 129.5t-124 53.5
q-89 0 -157.5 -67t-68.5 -161q0 -76 48 -129t124 -53z" />
    <glyph glyph-name="uni0441" unicode="&#x441;" horiz-adv-x="1095" 
d="M938 377l158 -238q-42 -44 -105 -80q-139 -79 -305 -79q-151 0 -269.5 68.5t-180.5 179.5t-62 243q0 112 45.5 214t124 176.5t189.5 118.5t235 44q199 0 344 -111q59 -48 98 -108l-243 -203q-20 30 -47 51q-66 54 -162 54q-93 0 -159.5 -67.5t-66.5 -158.5q0 -80 56 -133
t147 -53q86 0 148 41q26 16 55 41z" />
    <glyph glyph-name="uni0442" unicode="&#x442;" horiz-adv-x="1003" 
d="M307 0l144 676h-287l69 328h922l-70 -328h-286l-144 -676h-348z" />
    <glyph glyph-name="uni0443" unicode="&#x443;" horiz-adv-x="1105" 
d="M-4 -377l63 305l43 -16q44 -14 82 -14q105 0 154 82l27 45l-162 979h358l45 -584h8l295 584h400l-650 -1098q-105 -180 -203 -258t-229 -78q-85 0 -164 27q-29 7 -67 26z" />
    <glyph glyph-name="uni0444" unicode="&#x444;" horiz-adv-x="1576" 
d="M522 -430l82 389q-203 39 -323.5 177t-120.5 317q0 161 90.5 292.5t244 205t336.5 73.5l87 410h348l-86 -410q205 -44 324.5 -179.5t119.5 -314.5q0 -121 -53.5 -227.5t-144 -181.5t-214 -118.5t-260.5 -43.5l-82 -389h-348zM670 266l96 451q-109 0 -184.5 -68
t-75.5 -190q0 -78 43 -129t121 -64zM1114 717l-96 -451q109 0 184.5 68t75.5 190q0 78 -43 129t-121 64z" />
    <glyph glyph-name="uni0445" unicode="&#x445;" horiz-adv-x="1085" 
d="M-10 0l426 512l-193 492h357l86 -297h8l213 297h401l-401 -492l209 -512h-357l-104 317h-8l-236 -317h-401z" />
    <glyph glyph-name="uni0446" unicode="&#x446;" horiz-adv-x="1239" 
d="M123 0l213 1004h348l-143 -676h256l143 676h348l-143 -676h133l-119 -553h-348l49 225h-737z" />
    <glyph glyph-name="uni0447" unicode="&#x447;" horiz-adv-x="1146" 
d="M676 0l59 287q-23 -11 -55 -21q-70 -20 -133 -20q-156 0 -244 95t-88 251q0 41 14 104l66 308h348l-63 -297q-2 -2 -2 -9v-14q0 -52 29.5 -81.5t88.5 -29.5q41 0 76 15q23 9 31 14l86 402h348l-213 -1004h-348z" />
    <glyph glyph-name="uni0448" unicode="&#x448;" horiz-adv-x="1699" 
d="M123 0l213 1004h348l-143 -676h204l144 676h348l-143 -676h204l144 676h348l-213 -1004h-1454z" />
    <glyph glyph-name="uni0449" unicode="&#x449;" horiz-adv-x="1740" 
d="M123 0l213 1004h348l-143 -676h204l144 676h348l-143 -676h204l144 676h348l-143 -676h133l-119 -553h-348l49 225h-1239z" />
    <glyph glyph-name="uni044A" unicode="&#x44a;" horiz-adv-x="1167" 
d="M225 0l144 676h-215l69 328h563l-61 -287h94q165 0 270 -97t105 -235q0 -158 -123 -271.5t-305 -113.5h-541zM629 266h108q49 0 79 29t30 72q0 36 -24 60t-64 24h-90z" />
    <glyph glyph-name="uni044B" unicode="&#x44b;" horiz-adv-x="1597" 
d="M1126 0l213 1004h349l-213 -1004h-349zM526 266h109q49 0 78.5 28.5t29.5 72.5q0 36 -24 60t-64 24h-90zM123 0l213 1004h348l-61 -287h94q165 0 270 -97t105 -235q0 -158 -123 -271.5t-305 -113.5h-541z" />
    <glyph glyph-name="uni044C" unicode="&#x44c;" horiz-adv-x="1085" 
d="M526 266h129q49 0 79 29t30 72q0 36 -24 60t-64 24h-111zM123 0l213 1004h348l-61 -287h114q165 0 270 -97t105 -235q0 -158 -123 -271.5t-305 -113.5h-561z" />
    <glyph glyph-name="uni044D" unicode="&#x44d;" horiz-adv-x="1105" 
d="M90 199l201 166q19 -36 53 -60q74 -59 188 -59q71 0 136.5 39t95.5 104h-350l47 225h336q-5 20 -16 40t-35 46t-69 42t-104 16q-88 0 -172 -47q-39 -22 -65 -45l-131 198q47 44 106 80q148 80 314 80q114 0 211 -39t162.5 -106t102 -157t36.5 -190q0 -112 -45.5 -214
t-124 -176t-189.5 -118t-235 -44q-216 0 -357 108q-62 50 -96 111z" />
    <glyph glyph-name="uni044E" unicode="&#x44e;" horiz-adv-x="1708" 
d="M123 0l213 1004h348l-74 -349h95q67 165 215 267t331 102q217 0 352.5 -136t135.5 -335q0 -161 -80 -293.5t-214 -206t-290 -73.5q-189 0 -316.5 102t-160.5 266h-133l-74 -348h-348zM1182 297q82 0 146.5 66t64.5 167q0 78 -48 127.5t-122 49.5q-80 0 -144.5 -68
t-64.5 -168q0 -77 47.5 -125.5t120.5 -48.5z" />
    <glyph glyph-name="uni044F" unicode="&#x44f;" horiz-adv-x="1126" 
d="M31 0l307 377q-38 30 -62 63q-61 85 -61 189q0 155 124.5 265t305.5 110h572l-213 -1004h-349l60 287h-92l-207 -287h-385zM655 553h117l39 184h-141q-47 0 -77 -29.5t-30 -72.5q0 -32 26 -57t66 -25z" />
    <glyph glyph-name="uni0450" unicode="&#x450;" horiz-adv-x="1187" 
d="M969 322l86 -244q-53 -31 -101 -49q-123 -49 -268 -49q-114 0 -211 39t-162.5 106t-102 156.5t-36.5 189.5q0 112 45.5 214t124 176.5t189.5 118.5t235 44q136 0 243.5 -62.5t165.5 -167t58 -231.5q0 -85 -27 -164h-690q8 -55 70 -99t160 -44q79 0 159 33q36 16 62 33z
M545 614h356q-6 57 -50.5 95.5t-113.5 38.5q-64 0 -119.5 -37t-72.5 -97zM657 1137l-176 327h369l104 -327h-297z" />
    <glyph glyph-name="uni0451" unicode="&#x451;" horiz-adv-x="1187" 
d="M969 322l86 -244q-53 -31 -101 -49q-123 -49 -268 -49q-114 0 -211 39t-162.5 106t-102 156.5t-36.5 189.5q0 112 45.5 214t124 176.5t189.5 118.5t235 44q136 0 243.5 -62.5t165.5 -167t58 -231.5q0 -85 -27 -164h-690q8 -55 70 -99t160 -44q79 0 159 33q36 16 62 33z
M545 614h356q-6 57 -50.5 95.5t-113.5 38.5q-64 0 -119.5 -37t-72.5 -97zM625 1485q66 0 110.5 -46t44.5 -114q0 -77 -57.5 -132.5t-136.5 -55.5q-66 0 -111 46t-45 113q0 77 58 133t137 56zM1057 1137q-66 0 -111 46t-45 113q0 77 58 133t137 56q66 0 110.5 -46t44.5 -114
q0 -77 -57.5 -132.5t-136.5 -55.5z" />
    <glyph glyph-name="uni0452" unicode="&#x452;" horiz-adv-x="1239" 
d="M154 0l235 1116h-153l28 133h154l39 185h348l-39 -185h215l-29 -133h-215l-59 -287h10q29 40 72 76q94 78 211 78q145 0 227 -98.5t82 -290.5q0 -147 -43 -268.5t-116.5 -201t-169.5 -122.5t-203 -43q-14 0 -60 4l-61 6l69 326q10 -2 29 -2q87 0 138.5 60.5t51.5 168.5
q0 57 -33.5 95t-93.5 38q-64 0 -114.5 -44.5t-67.5 -121.5l-104 -489h-348z" />
    <glyph glyph-name="uni0453" unicode="&#x453;" horiz-adv-x="921" 
d="M555 1137l244 327h368l-315 -327h-297zM123 0l213 1004h758l-70 -328h-410l-143 -676h-348z" />
    <glyph glyph-name="uni0454" unicode="&#x454;" horiz-adv-x="1105" 
d="M547 614h350l-47 -225h-336q5 -20 16 -39.5t34.5 -45.5t68.5 -42t104 -16q86 0 170 45q42 23 68 47l131 -199q-46 -45 -107 -80q-139 -79 -313 -79q-114 0 -211 39t-162.5 106t-102 156.5t-36.5 189.5q0 112 45.5 214t124 176.5t189.5 118.5t235 44q209 0 354 -111
q62 -49 99 -108l-201 -166q-15 30 -53 59q-75 60 -189 60q-70 0 -135.5 -39.5t-95.5 -104.5z" />
    <glyph glyph-name="uni0455" unicode="&#x455;" horiz-adv-x="952" 
d="M72 193l207 186q19 -32 53 -62q69 -61 160 -61q63 0 63 45q0 22 -35 47.5t-84.5 54.5t-99 66t-84.5 96t-35 131q0 138 110 233t308 95q170 0 317 -88q64 -40 109 -88l-211 -180q-13 19 -37 39q-45 41 -106 41q-68 0 -68 -46q0 -22 34.5 -48t83.5 -56t98 -67.5t83.5 -97
t34.5 -130.5q0 -65 -26 -122.5t-77 -102.5t-135 -71.5t-192 -26.5q-196 0 -350 106q-61 40 -121 107z" />
    <glyph glyph-name="uni0456" unicode="&#x456;" horiz-adv-x="614" 
d="M133 0l213 1004h348l-213 -1004h-348zM383 1274q0 83 63 142t154 59q77 0 126.5 -47.5t49.5 -120.5q0 -83 -63 -142t-154 -59q-77 0 -126.5 47.5t-49.5 120.5z" />
    <glyph glyph-name="uni0457" unicode="&#x457;" horiz-adv-x="614" 
d="M369 1485q66 0 110.5 -46t44.5 -114q0 -77 -57.5 -132.5t-136.5 -55.5q-66 0 -111 46t-45 113q0 77 58 133t137 56zM801 1137q-66 0 -111 46t-45 113q0 77 58 133t137 56q66 0 110.5 -46t44.5 -114q0 -77 -57.5 -132.5t-136.5 -55.5zM133 0l213 1004h348l-213 -1004h-348
z" />
    <glyph glyph-name="uni0458" unicode="&#x458;" horiz-adv-x="614" 
d="M-162 -377l64 307q6 -3 18 -8.5t17 -7.5q46 -16 77 -16q98 0 121 110l211 996h348l-227 -1082q-35 -168 -139 -260t-248 -92q-87 0 -170 27q-27 7 -72 26zM383 1274q0 83 63 142t154 59q77 0 126.5 -47.5t49.5 -120.5q0 -83 -63 -142t-154 -59q-77 0 -126.5 47.5
t-49.5 120.5z" />
    <glyph glyph-name="uni0459" unicode="&#x459;" horiz-adv-x="1679" 
d="M10 14l68 312q20 -10 24 -11q19 -8 54 -8q48 0 84.5 34.5t75.5 135.5t79 281l54 246h839l-65 -308h108q164 0 267.5 -92.5t103.5 -230.5q0 -154 -119.5 -263.5t-296.5 -109.5h-559l143 676h-174l-10 -45q-44 -192 -95.5 -323t-111.5 -204.5t-123 -104t-141 -30.5
q-95 0 -152 23q-38 11 -53 22zM1130 266h127q42 0 69.5 25.5t27.5 64.5q0 30 -22 52t-56 22h-111z" />
    <glyph glyph-name="uni045A" unicode="&#x45a;" horiz-adv-x="1689" 
d="M123 0l213 1004h348l-66 -308h267l65 308h348l-65 -308h108q163 0 267 -93t104 -230q0 -154 -119.5 -263.5t-296.5 -109.5h-559l78 369h-266l-78 -369h-348zM1141 266h127q42 0 69 25.5t27 64.5q0 30 -22 52t-56 22h-110z" />
    <glyph glyph-name="uni045B" unicode="&#x45b;" horiz-adv-x="1269" 
d="M154 0l235 1116h-153l28 133h154l39 185h348l-39 -185h215l-29 -133h-215l-59 -287h10q29 40 72 76q94 78 211 78q141 0 227 -88t86 -240q0 -41 -16 -129l-111 -526h-348l102 477q4 20 4 45q0 57 -33.5 95t-93.5 38q-64 0 -114.5 -44.5t-67.5 -121.5l-104 -489h-348z" />
    <glyph glyph-name="uni045C" unicode="&#x45c;" horiz-adv-x="1177" 
d="M668 1137l243 327h369l-315 -327h-297zM123 0l213 1004h348l-72 -338l369 338h442l-501 -451l252 -553h-375l-150 348l-133 -131l-45 -217h-348z" />
    <glyph glyph-name="uni045D" unicode="&#x45d;" 
d="M123 0l213 1004h348l-94 -441l452 441h297l-213 -1004h-348l94 440l-452 -440h-297zM698 1137l-176 327h369l104 -327h-297z" />
    <glyph glyph-name="uni045E" unicode="&#x45e;" horiz-adv-x="1105" 
d="M-4 -377l63 305l43 -16q44 -14 82 -14q105 0 154 82l27 45l-162 979h358l45 -584h8l295 584h400l-650 -1098q-105 -180 -203 -258t-229 -78q-85 0 -164 27q-29 7 -67 26zM457 1464h243v-12q0 -39 26 -64.5t69 -25.5q45 0 74.5 28.5t37.5 73.5h244q-5 -88 -55.5 -163.5
t-131.5 -119.5t-173 -44q-148 0 -242 83t-94 207q0 23 2 37z" />
    <glyph glyph-name="uni045F" unicode="&#x45f;" horiz-adv-x="1228" 
d="M123 0l213 1004h348l-143 -676h286l144 676h348l-213 -1004h-318l-49 -225h-348l49 225h-317z" />
    <glyph glyph-name="uni0462" unicode="&#x462;" horiz-adv-x="1474" 
d="M246 0l243 1147h-245l26 133h246l33 154h389l-33 -154h369l-27 -133h-368l-31 -143h196q211 0 350.5 -124t139.5 -327q0 -156 -75 -283t-206 -198.5t-290 -71.5h-717zM709 348h256q73 0 125.5 49.5t52.5 116.5q0 57 -38 99t-101 42h-230z" />
    <glyph glyph-name="uni0463" unicode="&#x463;" horiz-adv-x="1157" 
d="M195 0l182 860h-205l29 133h205l92 441h348l-92 -441h266l-29 -133h-266l-31 -143h115q165 0 270 -97t105 -235q0 -158 -123 -271.5t-305 -113.5h-561zM598 266h129q49 0 79 29t30 72q0 36 -24 60t-64 24h-111z" />
    <glyph glyph-name="uni046A" unicode="&#x46a;" horiz-adv-x="1863" 
d="M123 0l65 313q24 120 73 212.5t119 153.5t150.5 99.5t180.5 61.5l-312 368l47 226h1598l-47 -226l-467 -368q140 -68 215.5 -192t75.5 -300q0 -74 -21 -168l-39 -180h-389l47 221q8 21 8 84q0 191 -178 227l-112 -532h-389l112 532q-116 0 -192 -68t-101 -192l-55 -272
h-389zM1110 891l295 235h-492z" />
    <glyph glyph-name="uni046B" unicode="&#x46b;" horiz-adv-x="1495" 
d="M72 0l26 137q35 174 151.5 272.5t285.5 133.5l-228 276l39 185h1249l-39 -185l-346 -276q258 -121 258 -391q0 -63 -16 -111l-8 -41h-348l14 66l4 26q6 42 6 53q0 145 -123 172l-65 -317h-348l65 317q-74 0 -130.5 -53t-78.5 -164l-20 -100h-348zM858 573l248 205h-410z
" />
    <glyph glyph-name="uni0472" unicode="&#x472;" horiz-adv-x="1761" 
d="M227 676q0 159 69 306t185.5 255t278 173t338.5 65q132 0 249.5 -37.5t205.5 -104.5t152 -157t97 -197t33 -221q0 -159 -69 -306t-185 -255t-277.5 -173t-338.5 -65q-132 0 -249.5 37t-205.5 104t-152.5 156.5t-97.5 196.5t-33 223zM1432 797q-18 134 -119.5 226.5
t-245.5 92.5q-158 0 -284 -100t-150 -256q131 49 225 49q70 0 185 -30.5t176 -30.5q67 0 127.5 17.5t85.5 31.5zM1430 672q-25 -12 -93.5 -29.5t-132.5 -17.5q-68 0 -182 30.5t-176 30.5q-29 0 -59 -4t-56.5 -11t-44 -13t-37 -13.5t-20.5 -7.5q18 -134 120 -227t246 -93
q159 0 283.5 99.5t151.5 255.5z" />
    <glyph glyph-name="uni0473" unicode="&#x473;" 
d="M174 471q0 112 45.5 214t124 176.5t189.5 118.5t235 44q114 0 211 -39t162.5 -106t102 -157t36.5 -190q0 -112 -45.5 -214t-124 -176t-189.5 -118t-235 -44q-114 0 -211 39t-162.5 106t-102 156.5t-36.5 189.5zM915 567q-14 61 -60 100.5t-107 39.5q-73 0 -128.5 -44
t-76.5 -114q40 35 98 35q35 0 96 -20.5t99 -20.5q55 0 79 24zM911 453q-53 -33 -98 -33q-36 0 -97 20.5t-98 20.5q-47 0 -81 -27q18 -61 63 -99t107 -38q70 0 125 43.5t79 112.5z" />
    <glyph glyph-name="uni0474" unicode="&#x474;" horiz-adv-x="1515" 
d="M492 0l-209 1434h399l90 -1004h8l355 711q81 160 190.5 241.5t263.5 81.5q101 0 195 -32q37 -14 74 -33l-150 -324q-16 3 -33 10q-33 11 -67 11q-41 -2 -71 -26.5t-62 -84.5l-553 -985h-430z" />
    <glyph glyph-name="uni0475" unicode="&#x475;" horiz-adv-x="1167" 
d="M369 0l-166 1004h358l45 -584h8l166 334q63 127 164.5 198.5t226.5 71.5q89 0 179 -35q34 -13 63 -33l-127 -235l-20 8q-19 8 -49 8q-65 0 -109 -71l-391 -666h-348z" />
    <glyph glyph-name="uni048A" unicode="&#x48a;" horiz-adv-x="1699" 
d="M164 0l303 1434h389l-162 -758l776 758h338l-229 -1086h215l-12 -51l-328 -584h-287l133 287h-184l160 758l-774 -758h-338zM883 1935h247q0 -57 24.5 -84.5t80.5 -27.5q93 0 121 112h243q-17 -147 -123.5 -242.5t-256.5 -95.5q-155 0 -246.5 87t-91.5 219q0 22 2 32z
" />
    <glyph glyph-name="uni048B" unicode="&#x48b;" horiz-adv-x="1269" 
d="M123 0l213 1004h348l-94 -441l452 441h297l-147 -697h162l-11 -51l-276 -481h-266l100 225h-123l92 440l-450 -440h-297zM559 1464h244v-12q0 -39 25.5 -64.5t68.5 -25.5q46 0 75.5 28.5t37.5 73.5h243q-5 -88 -55.5 -163.5t-131.5 -119.5t-173 -44q-148 0 -242 83
t-94 207q0 23 2 37z" />
    <glyph glyph-name="uni048C" unicode="&#x48c;" horiz-adv-x="1474" 
d="M246 0l243 1147h-245l26 133h246l33 154h389l-33 -154h369l-27 -133h-368l-31 -143h196q211 0 350.5 -124t139.5 -327q0 -156 -75 -283t-206 -198.5t-290 -71.5h-717zM709 348h256q73 0 125.5 49.5t52.5 116.5q0 57 -38 99t-101 42h-230z" />
    <glyph glyph-name="uni048D" unicode="&#x48d;" horiz-adv-x="1157" 
d="M195 0l182 860h-205l29 133h205l92 441h348l-92 -441h266l-29 -133h-266l-31 -143h115q165 0 270 -97t105 -235q0 -158 -123 -271.5t-305 -113.5h-561zM598 266h129q49 0 79 29t30 72q0 36 -24 60t-64 24h-111z" />
    <glyph glyph-name="uni048E" unicode="&#x48e;" horiz-adv-x="1454" 
d="M164 0l303 1434h610q205 0 337 -127t132 -328q0 -175 -96.5 -310t-253.5 -198l66 -143l-132 -62l-77 168q-50 -4 -78 -4h-332l-90 -430h-389zM717 778h182l-33 72l129 61l54 -118q48 19 78 59t30 90q0 58 -44 100.5t-109 42.5h-222z" />
    <glyph glyph-name="uni048F" unicode="&#x48f;" horiz-adv-x="1290" 
d="M33 -430l303 1434h348l-27 -134h11q33 44 73 76q98 78 222 78q153 0 259.5 -120t106.5 -320q0 -173 -74.5 -311.5t-195.5 -215.5l61 -129l-127 -71l-67 141q-58 -18 -117 -18q-150 0 -236 98q-37 43 -55 98h-12l-125 -606h-348zM782 299l-51 111l127 71l51 -110
q62 65 62 153q0 76 -48 129.5t-124 53.5q-89 0 -157.5 -67t-68.5 -161q0 -76 48 -129t124 -53q23 0 37 2z" />
    <glyph glyph-name="uni0490" unicode="&#x490;" horiz-adv-x="1218" 
d="M164 0l303 1434h614l58 266h389l-135 -635h-615l-225 -1065h-389z" />
    <glyph glyph-name="uni0491" unicode="&#x491;" horiz-adv-x="921" 
d="M123 0l213 1004h409l43 204h349l-113 -532h-410l-143 -676h-348z" />
    <glyph glyph-name="uni0492" unicode="&#x492;" horiz-adv-x="1228" 
d="M174 0l131 625h-174l29 133h174l143 676h1004l-78 -369h-615l-65 -307h338l-29 -133h-338l-131 -625h-389z" />
    <glyph glyph-name="uni0493" unicode="&#x493;" horiz-adv-x="942" 
d="M143 0l78 369h-133l29 133h133l106 502h758l-70 -328h-409l-37 -174h225l-28 -133h-226l-77 -369h-349z" />
    <glyph glyph-name="uni0494" unicode="&#x494;" horiz-adv-x="1402" 
d="M164 0l303 1434h1003l-77 -369h-615l-55 -260q10 4 55 16q93 19 156 19q226 0 361 -137.5t135 -364.5q0 -205 -87 -361.5t-242.5 -240.5t-355.5 -84q-45 0 -77 4l-25 4l82 385q28 -4 43 -4q116 0 187 70.5t71 183.5q0 87 -55 142t-146 55q-63 0 -127 -27q-34 -15 -53 -27
l-92 -438h-389z" />
    <glyph glyph-name="uni0495" unicode="&#x495;" horiz-adv-x="1126" 
d="M477 -455l68 326q6 -2 28 -2q94 0 150.5 58t56.5 155q0 71 -41 112.5t-108 41.5q-31 0 -86 -19l-33 -18l-41 -199h-348l213 1004h758l-70 -328h-410l-34 -164l45 14q66 17 114 17q184 0 293 -112t109 -294q0 -273 -159 -435.5t-419 -162.5q-43 0 -86 6z" />
    <glyph glyph-name="uni0496" unicode="&#x496;" horiz-adv-x="2191" 
d="M-68 0l758 870l-366 564h430l323 -502l107 502h389l-107 -502l537 502h483l-669 -625l204 -461h265l-136 -635h-389l62 287h-82l-232 532l-159 -149l-80 -383h-389l92 442l-74 119l-479 -561h-488z" />
    <glyph glyph-name="uni0497" unicode="&#x497;" horiz-adv-x="1699" 
d="M-47 0l539 614l-269 390h389l201 -308l66 308h348l-66 -308l332 308h444l-503 -451l110 -246h230l-113 -532h-348l49 225h-51l-148 346l-94 -84l-55 -262h-348l69 324l-41 59l-325 -383h-416z" />
    <glyph glyph-name="uni0498" unicode="&#x498;" horiz-adv-x="1269" 
d="M379 -287l57 281q-148 45 -280 160q-55 52 -90 98l264 233q38 -51 84 -84q111 -84 262 -84q91 0 138.5 35.5t47.5 87.5q0 47 -40.5 85t-114.5 38h-189l70 328h192q78 0 120 33.5t42 83.5q0 47 -42.5 77.5t-141.5 30.5q-86 0 -183 -37q-20 -8 -73 -35l-185 267
q50 38 140 82q176 82 362 82q133 0 240.5 -35t174.5 -93t102.5 -129t35.5 -147q0 -101 -46 -171.5t-116 -111.5q-68 -42 -161 -61q61 -30 110 -76q113 -105 113 -245q0 -163 -120.5 -284.5t-330.5 -152.5l-53 -256h-389z" />
    <glyph glyph-name="uni0499" unicode="&#x499;" horiz-adv-x="972" 
d="M289 -225l51 233q-120 38 -213 115q-37 31 -66 72l211 180q22 -36 56 -60q74 -59 168 -59q98 0 98 76q0 26 -26 46.5t-76 20.5h-101l47 226h121q42 0 66 18.5t24 44.5t-27 43t-79 17q-48 0 -119 -23q-20 -7 -47 -23l-152 218q54 36 94 51q124 53 285 53q198 0 314 -86.5
t116 -206.5q0 -57 -25.5 -102.5t-60 -69.5t-74 -40t-62.5 -20.5t-30 -4.5l20 -9q21 -9 46 -24.5t51.5 -39.5t44 -62.5t17.5 -84.5q0 -101 -71 -177.5t-206 -104.5l-47 -217h-348z" />
    <glyph glyph-name="uni049A" unicode="&#x49a;" horiz-adv-x="1515" 
d="M164 0l303 1434h389l-117 -553l588 553h483l-669 -625l207 -461h262l-135 -635h-390l62 287h-82l-236 520l-206 -188l-70 -332h-389z" />
    <glyph glyph-name="uni049B" unicode="&#x49b;" horiz-adv-x="1187" 
d="M123 0l213 1004h348l-72 -338l369 338h442l-501 -451l112 -248v2h238l-113 -532h-348l49 225h-61l-150 348l-133 -131l-45 -217h-348z" />
    <glyph glyph-name="uni049C" unicode="&#x49c;" horiz-adv-x="1576" 
d="M164 0l303 1434h389l-117 -553h82l51 245h123l-51 -245h41l455 553h444l-590 -717l291 -717h-407l-244 594h-51l-56 -266h-122l55 266h-82l-125 -594h-389z" />
    <glyph glyph-name="uni049D" unicode="&#x49d;" horiz-adv-x="1300" 
d="M123 0l213 1004h348l-74 -349h62l37 174h122l-36 -174h51l289 349h385l-441 -523l221 -481h-358l-162 348h-51l-37 -174h-123l37 174h-61l-74 -348h-348z" />
    <glyph glyph-name="uni049E" unicode="&#x49e;" horiz-adv-x="1515" 
d="M184 0l242 1147h-182l26 133h185l32 154h390l-33 -154h164l-27 -133h-166l-55 -266l588 553h483l-670 -625l363 -809h-439l-235 520l-207 -188l-70 -332h-389z" />
    <glyph glyph-name="uni049F" unicode="&#x49f;" horiz-adv-x="1198" 
d="M143 0l238 1126h-143l28 134h144l36 174h349l-37 -174h215l-29 -134h-215l-96 -460l368 338h443l-502 -451l252 -553h-375l-149 348l-133 -131l-45 -217h-349z" />
    <glyph glyph-name="uni04A0" unicode="&#x4a0;" horiz-adv-x="1648" 
d="M317 0l226 1065h-297l78 369h686l-117 -553l588 553h483l-670 -625l363 -809h-438l-236 520l-207 -188l-69 -332h-390z" />
    <glyph glyph-name="uni04A1" unicode="&#x4a1;" horiz-adv-x="1228" 
d="M174 0l143 676h-174l70 328h522l-71 -338l368 338h443l-502 -451l252 -553h-375l-150 348l-133 -131l-45 -217h-348z" />
    <glyph glyph-name="uni04A2" unicode="&#x4a2;" horiz-adv-x="1669" 
d="M164 0l303 1434h389l-111 -523h523l110 523h389l-229 -1086h164l-135 -635h-389l61 287h-164l115 543h-522l-115 -543h-389z" />
    <glyph glyph-name="uni04A3" unicode="&#x4a3;" horiz-adv-x="1280" 
d="M123 0l213 1004h348l-72 -338h297l72 338h348l-149 -697h133l-113 -532h-348l49 225h-133l72 338h-297l-72 -338h-348z" />
    <glyph glyph-name="uni04A4" unicode="&#x4a4;" horiz-adv-x="2007" 
d="M164 0l303 1434h389l-111 -523h472l110 523h932l-78 -369h-543l-225 -1065h-389l115 543h-471l-115 -543h-389z" />
    <glyph glyph-name="uni04A5" unicode="&#x4a5;" horiz-adv-x="1536" 
d="M123 0l213 1004h348l-72 -338h287l72 338h737l-70 -328h-389l-143 -676h-348l71 338h-286l-72 -338h-348z" />
    <glyph glyph-name="uni04A6" unicode="&#x4a6;" horiz-adv-x="2283" 
d="M164 0l303 1434h1280l-133 -629q10 4 55 16q93 19 156 19q226 0 360.5 -137.5t134.5 -364.5q0 -310 -190 -498t-494 -188q-45 0 -77 4l-25 4l82 385q28 -4 43 -4q116 0 187 70.5t71 183.5q0 87 -55 142t-146 55q-63 0 -127 -27q-34 -15 -53 -27l-92 -438h-389l225 1065
h-502l-225 -1065h-389z" />
    <glyph glyph-name="uni04A7" unicode="&#x4a7;" horiz-adv-x="1761" 
d="M123 0l213 1004h993l-104 -492l45 14q66 17 114 17q184 0 293 -112t109 -294q0 -273 -159 -435.5t-419 -162.5q-42 0 -86 6l68 326q6 -2 29 -2q94 0 150 58t56 155q0 71 -41 112.5t-108 41.5q-31 0 -86 -19l-33 -18l-41 -199h-348l143 676h-297l-143 -676h-348z" />
    <glyph glyph-name="uni04A8" unicode="&#x4a8;" horiz-adv-x="1955" 
d="M1321 391q67 41 125 109q127 149 127 342q0 85 -37.5 133.5t-93.5 48.5q-88 0 -152.5 -93.5t-64.5 -258.5q0 -127 47 -215q18 -35 49 -66zM940 297l12 10q-31 39 -57 103q-55 121 -55 290q0 151 50 279t134.5 213t197 132.5t236.5 47.5q231 0 367.5 -138t136.5 -366
q0 -255 -143 -434q-65 -80 -142 -127l4 -10q92 2 183 47q25 13 71 45l142 -287q-51 -39 -119 -71q-137 -72 -289 -72q-185 0 -293 45q-51 22 -71 47q-39 -22 -107 -47q-133 -45 -285 -45q-159 0 -289 55t-214.5 150t-130.5 221t-46 270q0 167 61.5 317.5t166 259t249 174
t304.5 69.5l-70 -320q-45 -9 -88.5 -31.5t-85.5 -62.5t-74 -92.5t-51.5 -127.5t-19.5 -161q0 -148 85 -252.5t230 -130.5z" />
    <glyph glyph-name="uni04A9" unicode="&#x4a9;" horiz-adv-x="1607" 
d="M676 238l12 8q-19 31 -29 55q-26 65 -26 148q0 141 61.5 256t170.5 181t243 66q199 0 312.5 -103t113.5 -271q0 -137 -76 -248q-32 -48 -76 -86l11 -13q80 8 145 41q25 12 55 35l131 -223q-38 -32 -92 -57q-118 -58 -291 -58q-151 0 -258 31q-46 11 -79 31
q-38 -20 -76 -31q-91 -31 -191 -31q-135 0 -244.5 39t-181 107t-109.5 159t-38 197q0 154 84.5 282.5t220.5 199.5t289 71l-58 -266q-27 -7 -57.5 -26.5t-61 -52t-50 -85.5t-19.5 -115q0 -114 82 -192q38 -35 82 -49zM1044 287q38 27 68 71q70 94 70 220q0 49 -21 73.5
t-55 24.5q-52 0 -86.5 -52.5t-34.5 -158.5q0 -69 29 -133q12 -27 30 -45z" />
    <glyph glyph-name="uni04AA" unicode="&#x4aa;" horiz-adv-x="1556" 
d="M645 -287l57 287q-218 73 -347.5 259t-129.5 417q0 158 69.5 305.5t185.5 255.5t276.5 173t335.5 65q285 0 481 -160q87 -72 141 -158l-266 -246q-39 56 -92 103q-126 102 -291 102q-117 0 -218 -55.5t-161.5 -155t-60.5 -219.5q0 -151 104 -260t264 -109q141 0 277 70
q54 27 108 72l183 -277q-54 -48 -125 -92q-156 -93 -349 -123l-53 -254h-389z" />
    <glyph glyph-name="uni04AB" unicode="&#x4ab;" horiz-adv-x="1095" 
d="M422 -225l53 243q-140 56 -220.5 179t-80.5 274q0 112 45.5 214t124 176.5t189.5 118.5t235 44q199 0 344 -111q59 -48 98 -108l-243 -203q-20 30 -47 51q-66 54 -162 54q-93 0 -159.5 -67.5t-66.5 -158.5q0 -80 56 -133t147 -53q86 0 148 41q26 16 55 41l158 -238
q-33 -33 -72 -59q-93 -65 -207 -86l-47 -219h-348z" />
    <glyph glyph-name="uni04AC" unicode="&#x4ac;" horiz-adv-x="1269" 
d="M522 -287l62 287h-164l229 1085h-399l74 349h1187l-73 -349h-400l-155 -737h164l-136 -635h-389z" />
    <glyph glyph-name="uni04AD" unicode="&#x4ad;" horiz-adv-x="1003" 
d="M391 -225l49 225h-133l144 676h-287l69 328h922l-70 -328h-286l-80 -369h133l-113 -532h-348z" />
    <glyph glyph-name="uni04AE" unicode="&#x4ae;" horiz-adv-x="1372" 
d="M471 0l109 512l-318 922h400l153 -564h8l391 564h461l-706 -922l-109 -512h-389z" />
    <glyph glyph-name="uni04AF" unicode="&#x4af;" horiz-adv-x="1105" 
d="M276 -430l93 430l-166 1004h358l45 -584h8l295 584h400l-592 -1004l-92 -430h-349z" />
    <glyph glyph-name="uni04B0" unicode="&#x4b0;" horiz-adv-x="1372" 
d="M471 0l84 399h-276l28 133h266l-311 902h400l153 -564h8l391 564h461l-692 -902h266l-28 -133h-277l-84 -399h-389z" />
    <glyph glyph-name="uni04B1" unicode="&#x4b1;" horiz-adv-x="1105" 
d="M276 -430l62 287h-195l27 133h205l-172 1014h358l45 -584h8l295 584h400l-607 -1014h205l-26 -133h-195l-61 -287h-349z" />
    <glyph glyph-name="uni04B2" unicode="&#x4b2;" horiz-adv-x="1423" 
d="M-20 0l618 748l-274 686h407l152 -430h8l332 430h452l-565 -686l162 -400h246l-136 -635h-389l62 287h-49l-179 492h-8l-387 -492h-452z" />
    <glyph glyph-name="uni04B3" unicode="&#x4b3;" horiz-adv-x="1116" 
d="M-10 0l426 512l-193 492h357l86 -297h8l213 297h401l-401 -492l84 -205h219l-113 -532h-348l49 225h-39l-104 317h-8l-236 -317h-401z" />
    <glyph glyph-name="uni04B4" unicode="&#x4b4;" horiz-adv-x="1873" 
d="M410 0l229 1085h-379l74 349h1085l-73 -349h-318l-151 -716h481l225 1065h389l-225 -1065h164l-139 -656h-390l62 287h-1034z" />
    <glyph glyph-name="uni04B5" unicode="&#x4b5;" horiz-adv-x="1474" 
d="M307 0l144 676h-287l69 328h799l-69 -328h-164l-74 -348h307l144 676h348l-144 -676h133l-118 -553h-348l49 225h-789z" />
    <glyph glyph-name="uni04B6" unicode="&#x4b6;" horiz-adv-x="1556" 
d="M1065 -287l61 287h-163l94 453l-70 -17q-86 -16 -168 -16q-226 0 -360.5 126t-134.5 349q0 60 18 152l84 387h389l-88 -416q-6 -42 -6 -64q0 -91 56 -138.5t165 -47.5q82 0 139 23q34 10 56 24l129 619h389l-230 -1086h164l-135 -635h-389z" />
    <glyph glyph-name="uni04B7" unicode="&#x4b7;" horiz-adv-x="1187" 
d="M760 -225l49 225h-133l59 287q-23 -11 -55 -21q-70 -20 -133 -20q-156 0 -244 95t-88 251q0 41 14 104l66 308h348l-63 -297q-2 -2 -2 -9v-14q0 -52 29.5 -81.5t88.5 -29.5q41 0 76 15q23 9 31 14l86 402h348l-147 -697h131l-113 -532h-348z" />
    <glyph glyph-name="uni04B8" unicode="&#x4b8;" horiz-adv-x="1515" 
d="M715 236l39 186q-197 17 -313.5 142.5t-116.5 330.5q0 60 18 152l84 387h389l-88 -416q-6 -42 -6 -64q0 -124 110 -170l46 209h133l-49 -225q77 3 126 25q36 12 50 22l129 619h389l-303 -1434h-389l94 453l-49 -13q-45 -9 -121 -18l-39 -186h-133z" />
    <glyph glyph-name="uni04B9" unicode="&#x4b9;" horiz-adv-x="1146" 
d="M516 123l27 123q-153 1 -240.5 95.5t-87.5 250.5q0 41 14 104l66 308h348l-63 -297q-2 -2 -2 -9v-14q0 -62 38 -90l23 102h123l-27 -121q19 4 49 17q11 7 19 10l86 402h348l-213 -1004h-348l59 287l-18 -8l-49 -17l-29 -139h-123z" />
    <glyph glyph-name="uni04BA" unicode="&#x4ba;" horiz-adv-x="1495" 
d="M164 0l303 1434h389l-94 -453l69 16q91 17 168 17q226 0 361 -126t135 -349q0 -60 -18 -152l-84 -387h-389l88 416q6 42 6 63q0 91 -56.5 139t-164.5 48q-77 0 -140 -25q-23 -7 -55 -23l-129 -618h-389z" />
    <glyph glyph-name="uni04BB" unicode="&#x4bb;" 
d="M133 0l303 1434h348l-116 -564h10q29 40 72 76q94 78 211 78q141 0 227 -88t86 -240q0 -49 -17 -129l-120 -567h-349l111 518q4 20 4 45q0 57 -33.5 95t-93.5 38q-64 0 -114.5 -44.5t-67.5 -121.5l-113 -530h-348z" />
    <glyph glyph-name="uni04BC" unicode="&#x4bc;" horiz-adv-x="1966" 
d="M530 627h-20q-155 0 -237.5 79t-82.5 193q0 86 41 166h304q-43 -77 -43 -139q0 -64 63 -76q46 182 167 325t289.5 221.5t354.5 78.5q128 0 238.5 -34.5t192.5 -96.5t141 -147t88.5 -187.5t29.5 -216.5q0 -97 -18 -168h-1108q0 -131 94 -219.5t260 -88.5q128 0 242 52
q46 18 96 53l166 -281q-60 -49 -148 -92q-184 -90 -397 -90q-156 0 -289.5 52.5t-225 142.5t-144 212.5t-54.5 260.5zM979 850h674q-5 107 -89.5 186.5t-224.5 79.5q-125 0 -224 -72.5t-136 -193.5z" />
    <glyph glyph-name="uni04BD" unicode="&#x4bd;" horiz-adv-x="1382" 
d="M379 410h-23q-113 10 -169 63t-56 141q0 44 19 103h202q-10 -44 -10 -58q0 -38 51 -47q50 181 207.5 296.5t368.5 115.5q136 0 243.5 -62.5t165.5 -167t58 -231.5q0 -85 -27 -164h-690q8 -55 69.5 -99t159.5 -44q80 0 160 33q33 14 61 33l86 -244q-49 -31 -98 -49
q-123 -49 -270 -49q-208 0 -347.5 123t-160.5 307zM745 614h357q-6 57 -50.5 95.5t-113.5 38.5q-64 0 -120 -37t-73 -97z" />
    <glyph glyph-name="uni04BE" unicode="&#x4be;" horiz-adv-x="1966" 
d="M911 -287l60 291q-201 73 -318.5 240.5t-122.5 382.5h-20q-155 0 -237.5 79t-82.5 193q0 86 41 166h304q-43 -77 -43 -139q0 -64 63 -76q46 182 167 325t289.5 221.5t354.5 78.5q128 0 238.5 -34.5t192.5 -96.5t141 -147t88.5 -187.5t29.5 -216.5q0 -97 -18 -168h-1108
q0 -131 94 -220.5t260 -89.5q124 0 242 54q46 18 96 53l166 -281q-50 -41 -117 -75q-154 -79 -319 -99l-52 -254h-389zM979 850h674q-5 107 -89.5 186.5t-224.5 79.5q-125 0 -224 -72.5t-136 -193.5z" />
    <glyph glyph-name="uni04BF" unicode="&#x4bf;" horiz-adv-x="1382" 
d="M616 -225l52 248q-122 54 -197 155t-92 232h-23q-113 10 -169 63t-56 141q0 44 19 103h202q-10 -44 -10 -58q0 -38 51 -47q50 181 207.5 296.5t368.5 115.5q136 0 243.5 -62.5t165.5 -167t58 -231.5q0 -85 -27 -164h-690q8 -55 69.5 -99t159.5 -44q80 0 160 33
q33 14 61 33l86 -244q-34 -22 -65 -35q-102 -43 -180 -53l-45 -215h-349zM745 614h357q-6 57 -50.5 95.5t-113.5 38.5q-64 0 -120 -37t-73 -97z" />
    <glyph glyph-name="uni04C0" unicode="&#x4c0;" horiz-adv-x="716" 
d="M164 0l303 1434h389l-303 -1434h-389z" />
    <glyph glyph-name="uni04C1" unicode="&#x4c1;" horiz-adv-x="2170" 
d="M-68 0l758 870l-366 564h430l323 -502l107 502h389l-107 -502l537 502h483l-669 -625l360 -809h-436l-232 532l-159 -149l-80 -383h-389l92 442l-74 119l-479 -561h-488zM1098 1935h248q0 -57 24 -84.5t80 -27.5q93 0 121 112h244q-17 -147 -124 -242.5t-257 -95.5
q-155 0 -246.5 87t-91.5 219q0 22 2 32z" />
    <glyph glyph-name="uni04C2" unicode="&#x4c2;" horiz-adv-x="1689" 
d="M-47 0l539 614l-269 390h389l201 -308l66 308h348l-66 -308l332 308h444l-503 -451l252 -553h-375l-148 346l-94 -84l-55 -262h-348l69 324l-41 59l-325 -383h-416zM774 1464h244v-12q0 -39 25.5 -64.5t68.5 -25.5q46 0 75.5 28.5t37.5 73.5h243q-5 -88 -55.5 -163.5
t-131.5 -119.5t-173 -44q-148 0 -242 83t-94 207q0 23 2 37z" />
    <glyph glyph-name="uni04C3" unicode="&#x4c3;" horiz-adv-x="1515" 
d="M164 0l303 1434h389l-117 -553l588 553h483l-677 -631q176 -41 284.5 -177t108.5 -339q0 -167 -56.5 -309t-156 -240.5t-237.5 -153.5t-298 -55q-48 0 -98 6l80 385q14 -2 45 -2q140 0 229.5 90.5t89.5 237.5q0 112 -67 177.5t-178 65.5q-79 0 -170 -38q-35 -14 -68 -37
l-88 -414h-389z" />
    <glyph glyph-name="uni04C4" unicode="&#x4c4;" horiz-adv-x="1198" 
d="M549 -446l69 325q6 -2 23 -2q91 0 155 69t64 181q0 85 -49.5 132.5t-132.5 47.5q-61 0 -111 -16l-39 -15l-57 -276h-348l213 1004h348l-72 -338l369 338h442l-522 -474q305 -105 305 -401q0 -167 -75 -299.5t-208 -206.5t-298 -74q-13 0 -76 5z" />
    <glyph glyph-name="uni04C5" unicode="&#x4c5;" horiz-adv-x="1628" 
d="M14 16l74 353l31 -17q32 -14 76 -14q45 0 85.5 28.5t83 96.5t84.5 195t82 309l101 467h1106l-230 -1086h215l-12 -51l-328 -584h-286l133 287h-185l224 1065h-326l-29 -137q-47 -224 -103.5 -393t-116.5 -278t-131 -176t-142 -94.5t-154 -27.5q-105 0 -190 29
q-35 11 -62 28z" />
    <glyph glyph-name="uni04C6" unicode="&#x4c6;" horiz-adv-x="1239" 
d="M10 14l68 312q20 -10 24 -11q19 -8 54 -8q48 0 84.5 34.5t75.5 135.5t79 281l54 246h860l-148 -697h162l-10 -51l-277 -481h-266l100 225h-122l143 676h-195l-10 -45q-44 -192 -95.5 -323t-111.5 -204.5t-123 -104t-141 -30.5q-95 0 -152 23q-38 11 -53 22z" />
    <glyph glyph-name="uni04C7" unicode="&#x4c7;" horiz-adv-x="1628" 
d="M164 0l303 1434h389l-111 -523h523l110 523h389l-317 -1497q-41 -185 -155 -286.5t-275 -101.5q-97 0 -174 23q-30 7 -72 25l70 333q6 -3 18 -8.5t17 -7.5q46 -16 82 -16q43 0 73.5 28.5t42.5 83.5l113 533h-522l-115 -543h-389z" />
    <glyph glyph-name="uni04C8" unicode="&#x4c8;" horiz-adv-x="1239" 
d="M498 -406l57 283q3 -3 11.5 -8.5t11.5 -7.5q24 -15 67 -15q90 0 111 103l84 389h-297l-72 -338h-348l213 1004h348l-72 -338h297l72 338h348l-237 -1113q-35 -161 -139.5 -251.5t-243.5 -90.5q-99 0 -156 23q-38 10 -55 22z" />
    <glyph glyph-name="uni04C9" unicode="&#x4c9;" horiz-adv-x="1658" 
d="M164 0l303 1434h389l-111 -523h523l110 523h389l-229 -1086h215l-12 -51l-328 -584h-287l134 287h-185l115 543h-522l-115 -543h-389z" />
    <glyph glyph-name="uni04CA" unicode="&#x4ca;" horiz-adv-x="1259" 
d="M123 0l213 1004h348l-72 -338h297l72 338h348l-149 -697h163l-10 -51l-276 -481h-266l100 225h-123l72 338h-297l-72 -338h-348z" />
    <glyph glyph-name="uni04CB" unicode="&#x4cb;" horiz-adv-x="1515" 
d="M737 -287l135 635h162v-2l23 107l-70 -17q-86 -16 -168 -16q-226 0 -360.5 126t-134.5 349q0 60 18 152l84 387h389l-88 -416q-6 -42 -6 -64q0 -91 56 -138.5t165 -47.5q82 0 139 23q34 10 56 24l129 619h389l-303 -1434h-164l-62 -287h-389z" />
    <glyph glyph-name="uni04CC" unicode="&#x4cc;" horiz-adv-x="1146" 
d="M494 -225l84 389h131l26 123q-23 -11 -55 -21q-70 -20 -133 -20q-156 0 -244 95t-88 251q0 41 14 104l66 308h348l-63 -297q-2 -2 -2 -9v-14q0 -52 29.5 -81.5t88.5 -29.5q41 0 76 15q23 9 31 14l86 402h348l-213 -1004h-133l-49 -225h-348z" />
    <glyph glyph-name="uni04CD" unicode="&#x4cd;" horiz-adv-x="1935" 
d="M164 0l303 1434h317l324 -553l557 553h379l-229 -1086h215l-13 -51l-327 -584h-287l133 287h-184l180 850l-506 -502l-293 502l-180 -850h-389z" />
    <glyph glyph-name="uni04CE" unicode="&#x4ce;" horiz-adv-x="1413" 
d="M123 0l213 1004h276l203 -349l350 349h318l-150 -697h164l-10 -51l-277 -481h-266l100 225h-122l108 512l-287 -287l-163 287l-109 -512h-348z" />
    <glyph glyph-name="uni04CF" unicode="&#x4cf;" horiz-adv-x="614" 
d="M133 0l303 1434h348l-303 -1434h-348z" />
    <glyph glyph-name="uni04D0" unicode="&#x4d0;" horiz-adv-x="1495" 
d="M786 625h267l-41 409h-8zM10 0l846 1434h430l240 -1434h-400l-39 307h-471l-165 -307h-441zM770 1935h248q0 -57 24 -84.5t80 -27.5q93 0 121 112h244q-17 -147 -124 -242.5t-257 -95.5q-155 0 -246.5 87t-91.5 219q0 22 2 32z" />
    <glyph glyph-name="uni04D1" unicode="&#x4d1;" horiz-adv-x="1105" 
d="M655 0l25 123h-10q-30 -46 -66 -72q-86 -71 -205 -71q-125 0 -204.5 80.5t-79.5 189.5q0 270 366 342l314 63q-24 111 -160 111q-77 0 -139 -41q-29 -17 -56 -41l-145 190q48 39 113 74q140 76 288 76q197 0 318 -107t121 -268q0 -19 -2 -35t-5.5 -29t-3.5 -16l-120 -569
h-349zM741 406l9 45l-160 -33q-103 -23 -103 -101q0 -33 21.5 -52t62.5 -19q66 0 112 44t58 116zM487 1464h244v-12q0 -39 25.5 -64.5t68.5 -25.5q46 0 75.5 28.5t37.5 73.5h244q-5 -88 -56 -163.5t-132 -119.5t-173 -44q-148 0 -242 83t-94 207q0 23 2 37z" />
    <glyph glyph-name="uni04D2" unicode="&#x4d2;" horiz-adv-x="1495" 
d="M786 625h267l-41 409h-8zM10 0l846 1434h430l240 -1434h-400l-39 307h-471l-165 -307h-441zM891 1946q66 0 111 -46t45 -114q0 -77 -58 -133t-137 -56q-66 0 -111 46t-45 114q0 77 58 133t137 56zM1323 1597q-66 0 -111 46t-45 114q0 77 58 133t137 56q66 0 111 -46
t45 -114q0 -77 -58 -133t-137 -56z" />
    <glyph glyph-name="uni04D3" unicode="&#x4d3;" horiz-adv-x="1105" 
d="M655 0l25 123h-10q-30 -46 -66 -72q-86 -71 -205 -71q-125 0 -204.5 80.5t-79.5 189.5q0 270 366 342l314 63q-24 111 -160 111q-77 0 -139 -41q-29 -17 -56 -41l-145 190q48 39 113 74q140 76 288 76q197 0 318 -107t121 -268q0 -19 -2 -35t-5.5 -29t-3.5 -16l-120 -569
h-349zM741 406l9 45l-160 -33q-103 -23 -103 -101q0 -33 21.5 -52t62.5 -19q66 0 112 44t58 116zM594 1485q66 0 111 -46t45 -114q0 -77 -58 -132.5t-137 -55.5q-66 0 -111 46t-45 113q0 77 58 133t137 56zM1026 1137q-66 0 -111 46t-45 113q0 77 58 133t137 56
q66 0 111 -46t45 -114q0 -77 -58 -132.5t-137 -55.5z" />
    <glyph glyph-name="uni04D6" unicode="&#x4d6;" horiz-adv-x="1361" 
d="M164 0l303 1434h1096l-74 -349h-707l-43 -204h543l-70 -328h-542l-43 -205h727l-74 -348h-1116zM709 1935h247q0 -57 24.5 -84.5t80.5 -27.5q93 0 121 112h243q-17 -147 -124 -242.5t-257 -95.5q-155 0 -246 87t-91 219q0 22 2 32z" />
    <glyph glyph-name="uni04D7" unicode="&#x4d7;" horiz-adv-x="1187" 
d="M969 322l86 -244q-53 -31 -101 -49q-123 -49 -268 -49q-114 0 -211 39t-162.5 106t-102 156.5t-36.5 189.5q0 112 45.5 214t124 176.5t189.5 118.5t235 44q136 0 243.5 -62.5t165.5 -167t58 -231.5q0 -85 -27 -164h-690q8 -55 70 -99t160 -44q79 0 159 33q36 16 62 33z
M545 614h356q-6 57 -50.5 95.5t-113.5 38.5q-64 0 -119.5 -37t-72.5 -97zM518 1464h244v-12q0 -39 25.5 -64.5t68.5 -25.5q46 0 75.5 28.5t37.5 73.5h243q-5 -88 -55.5 -163.5t-131.5 -119.5t-173 -44q-148 0 -242 83t-94 207q0 23 2 37z" />
    <glyph glyph-name="uni04D8" unicode="&#x4d8;" horiz-adv-x="1669" 
d="M233 809h1108q0 131 -94 219t-260 88q-126 0 -242 -53q-39 -16 -96 -51l-166 280q54 44 148 90q190 93 397 93q159 0 294 -54t226 -146.5t142 -217.5t51 -266q0 -175 -68.5 -330.5t-182.5 -265t-267 -173t-318 -63.5q-128 0 -238.5 34.5t-192.5 96.5t-141 147
t-88.5 187.5t-29.5 216.5q0 97 18 168zM1292 584h-674q5 -107 89.5 -187t224.5 -80q125 0 224 73t136 194z" />
    <glyph glyph-name="uni04D9" unicode="&#x4d9;" horiz-adv-x="1187" 
d="M190 604h691q-8 55 -70 99.5t-160 44.5q-79 0 -159 -33q-36 -16 -62 -33l-86 244q55 32 100 49q123 49 269 49q114 0 211 -39t162.5 -106t102 -157t36.5 -190q0 -112 -45.5 -214t-124 -176t-189.5 -118t-235 -44q-136 0 -243.5 62t-165.5 166.5t-58 231.5q0 88 26 164z
M854 389h-356q6 -56 50.5 -94.5t113.5 -38.5q64 0 119.5 36.5t72.5 96.5z" />
    <glyph glyph-name="uni04DA" unicode="&#x4da;" horiz-adv-x="1669" 
d="M233 809h1108q0 131 -94 219t-260 88q-126 0 -242 -53q-39 -16 -96 -51l-166 280q54 44 148 90q190 93 397 93q159 0 294 -54t226 -146.5t142 -217.5t51 -266q0 -175 -68.5 -330.5t-182.5 -265t-267 -173t-318 -63.5q-128 0 -238.5 34.5t-192.5 96.5t-141 147
t-88.5 187.5t-29.5 216.5q0 97 18 168zM1292 584h-674q5 -107 89.5 -187t224.5 -80q125 0 224 73t136 194zM952 1946q66 0 111 -46t45 -114q0 -77 -58 -133t-137 -56q-66 0 -110.5 46t-44.5 114q0 77 57.5 133t136.5 56zM1384 1597q-66 0 -110.5 46t-44.5 114q0 77 57.5 133
t136.5 56q66 0 111 -46t45 -114q0 -77 -58 -133t-137 -56z" />
    <glyph glyph-name="uni04DB" unicode="&#x4db;" horiz-adv-x="1187" 
d="M190 604h691q-8 55 -70 99.5t-160 44.5q-79 0 -159 -33q-36 -16 -62 -33l-86 244q55 32 100 49q123 49 269 49q114 0 211 -39t162.5 -106t102 -157t36.5 -190q0 -112 -45.5 -214t-124 -176t-189.5 -118t-235 -44q-136 0 -243.5 62t-165.5 166.5t-58 231.5q0 88 26 164z
M854 389h-356q6 -56 50.5 -94.5t113.5 -38.5q64 0 119.5 36.5t72.5 96.5zM614 1485q66 0 111 -46t45 -114q0 -77 -58 -132.5t-137 -55.5q-66 0 -110.5 45.5t-44.5 113.5q0 77 57.5 133t136.5 56zM1047 1137q-66 0 -111 46t-45 113q0 77 57.5 133t136.5 56q66 0 111 -46
t45 -114q0 -77 -57.5 -132.5t-136.5 -55.5z" />
    <glyph glyph-name="uni04DC" unicode="&#x4dc;" horiz-adv-x="2170" 
d="M-68 0l758 870l-366 564h430l323 -502l107 502h389l-107 -502l537 502h483l-669 -625l360 -809h-436l-232 532l-159 -149l-80 -383h-389l92 442l-74 119l-479 -561h-488zM1219 1946q66 0 110.5 -46t44.5 -114q0 -77 -57.5 -133t-136.5 -56q-66 0 -111 46t-45 114
q0 77 58 133t137 56zM1651 1597q-66 0 -111 46t-45 114q0 77 58 133t137 56q66 0 110.5 -46t44.5 -114q0 -77 -57.5 -133t-136.5 -56z" />
    <glyph glyph-name="uni04DD" unicode="&#x4dd;" horiz-adv-x="1689" 
d="M-47 0l539 614l-269 390h389l201 -308l66 308h348l-66 -308l332 308h444l-503 -451l252 -553h-375l-148 346l-94 -84l-55 -262h-348l69 324l-41 59l-325 -383h-416zM881 1485q66 0 110.5 -46t44.5 -114q0 -77 -57.5 -132.5t-136.5 -55.5q-66 0 -111 46t-45 113
q0 77 58 133t137 56zM1313 1137q-66 0 -111 46t-45 113q0 77 58 133t137 56q66 0 110.5 -46t44.5 -114q0 -77 -57.5 -132.5t-136.5 -55.5z" />
    <glyph glyph-name="uni04DE" unicode="&#x4de;" horiz-adv-x="1269" 
d="M66 252l264 233q38 -51 84 -84q111 -84 262 -84q91 0 138.5 35.5t47.5 87.5q0 47 -40.5 85t-114.5 38h-189l70 328h192q78 0 120 33.5t42 83.5q0 47 -42.5 77.5t-141.5 30.5q-86 0 -183 -37q-20 -8 -73 -35l-185 267q50 38 140 82q176 82 362 82q133 0 240.5 -35
t174.5 -93t102.5 -129t35.5 -147q0 -101 -46 -171.5t-116 -111.5q-68 -42 -161 -61q61 -30 110 -76q113 -105 113 -245q0 -90 -40.5 -171t-114.5 -142.5t-187 -97.5t-248 -36q-273 0 -469 145q-87 63 -147 148zM737 1946q66 0 111 -46t45 -114q0 -77 -58 -133t-137 -56
q-66 0 -110.5 46t-44.5 114q0 77 57.5 133t136.5 56zM1169 1597q-66 0 -110.5 46t-44.5 114q0 77 57.5 133t136.5 56q66 0 111 -46t45 -114q0 -77 -58 -133t-137 -56z" />
    <glyph glyph-name="uni04DF" unicode="&#x4df;" horiz-adv-x="972" 
d="M61 195l211 180q22 -36 56 -60q74 -59 168 -59q98 0 98 76q0 26 -26 46.5t-76 20.5h-101l47 226h121q42 0 66 18.5t24 44.5t-27 43t-79 17q-48 0 -119 -23q-20 -7 -47 -23l-152 218q54 36 94 51q124 53 285 53q198 0 314 -86.5t116 -206.5q0 -129 -127 -196
q-62 -30 -125 -41q39 -12 88 -48q91 -68 91 -172q0 -59 -25.5 -111t-75 -93.5t-131.5 -65.5t-186 -24q-213 0 -367 106q-68 47 -115 109zM512 1485q66 0 111 -46t45 -114q0 -77 -58 -132.5t-137 -55.5q-66 0 -111 46t-45 113q0 77 58 133t137 56zM944 1137q-66 0 -111 46
t-45 113q0 77 58 133t137 56q66 0 111 -46t45 -114q0 -77 -58 -132.5t-137 -55.5z" />
    <glyph glyph-name="uni04E0" unicode="&#x4e0;" horiz-adv-x="1269" 
d="M76 246l266 233q32 -44 86 -82q111 -80 256 -80q92 0 139 40.5t47 101.5q0 52 -50 88.5t-144 36.5h-195l54 245l342 256h-535l74 349h1024l-68 -314l-387 -289q142 -43 223.5 -142.5t81.5 -248.5q0 -95 -44.5 -182.5t-123 -153.5t-195 -105.5t-251.5 -39.5
q-260 0 -455 143q-88 66 -145 144z" />
    <glyph glyph-name="uni04E1" unicode="&#x4e1;" horiz-adv-x="1064" 
d="M-20 -225l231 213q21 -35 59 -56q73 -55 193 -55q90 0 146.5 46t56.5 114q0 58 -51.5 102.5t-133.5 44.5h-176l41 195l342 297h-452l69 328h860l-69 -328l-328 -289q107 -38 176.5 -134.5t69.5 -221.5q0 -202 -150 -331.5t-393 -129.5q-221 0 -381 102q-68 47 -110 103z
" />
    <glyph glyph-name="uni04E2" unicode="&#x4e2;" horiz-adv-x="1669" 
d="M164 0l303 1434h389l-162 -758l776 758h338l-303 -1434h-389l160 758l-774 -758h-338zM854 1638l57 267h656l-58 -267h-655z" />
    <glyph glyph-name="uni04E3" unicode="&#x4e3;" 
d="M123 0l213 1004h348l-94 -441l452 441h297l-213 -1004h-348l94 440l-452 -440h-297zM537 1178l57 266h655l-57 -266h-655z" />
    <glyph glyph-name="uni04E4" unicode="&#x4e4;" horiz-adv-x="1669" 
d="M164 0l303 1434h389l-162 -758l776 758h338l-303 -1434h-389l160 758l-774 -758h-338zM963 1946q66 0 110.5 -46t44.5 -114q0 -77 -57.5 -133t-136.5 -56q-66 0 -111 46t-45 114q0 77 58 133t137 56zM1395 1597q-66 0 -111 46t-45 114q0 77 58 133t137 56q66 0 110.5 -46
t44.5 -114q0 -77 -57.5 -133t-136.5 -56z" />
    <glyph glyph-name="uni04E5" unicode="&#x4e5;" 
d="M123 0l213 1004h348l-94 -441l452 441h297l-213 -1004h-348l94 440l-452 -440h-297zM666 1485q66 0 110.5 -46t44.5 -114q0 -77 -57.5 -132.5t-136.5 -55.5q-66 0 -111 46t-45 113q0 77 58 133t137 56zM1098 1137q-66 0 -111 46t-45 113q0 77 58 133t137 56
q66 0 110.5 -46t44.5 -114q0 -77 -57.5 -132.5t-136.5 -55.5z" />
    <glyph glyph-name="uni04E6" unicode="&#x4e6;" horiz-adv-x="1761" 
d="M995 317q115 0 216 54.5t163 154.5t62 222q0 98 -46 182t-131 135t-192 51q-115 0 -215.5 -54t-162.5 -154t-62 -222q0 -152 104 -260.5t264 -108.5zM227 676q0 159 69 306t185.5 255t278 173t338.5 65q132 0 249.5 -37.5t205.5 -104.5t152 -157t97 -197t33 -221
q0 -159 -69 -306t-185 -255t-277.5 -173t-338.5 -65q-132 0 -249.5 37t-205.5 104t-152.5 156.5t-97.5 196.5t-33 223zM983 1946q66 0 111 -46t45 -114q0 -77 -58 -133t-137 -56q-66 0 -111 46t-45 114q0 77 58 133t137 56zM1415 1597q-66 0 -110.5 46t-44.5 114
q0 77 57.5 133t136.5 56q66 0 111 -46t45 -114q0 -77 -58 -133t-137 -56z" />
    <glyph glyph-name="uni04E7" unicode="&#x4e7;" 
d="M707 297q90 0 152.5 65.5t62.5 159.5q0 76 -50.5 130.5t-123.5 54.5q-90 0 -153 -66t-63 -160q0 -76 51 -130t124 -54zM174 471q0 112 45.5 214t124 176.5t189.5 118.5t235 44q114 0 211 -39t162.5 -106t102 -157t36.5 -190q0 -112 -45.5 -214t-124 -176t-189.5 -118
t-235 -44q-114 0 -211 39t-162.5 106t-102 156.5t-36.5 189.5zM645 1485q66 0 111 -46t45 -114q0 -77 -58 -132.5t-137 -55.5q-66 0 -110.5 45.5t-44.5 113.5q0 77 57.5 133t136.5 56zM1077 1137q-66 0 -110.5 45.5t-44.5 113.5q0 77 57.5 133t136.5 56q66 0 111 -46
t45 -114q0 -77 -58 -132.5t-137 -55.5z" />
    <glyph glyph-name="uni04E8" unicode="&#x4e8;" horiz-adv-x="1761" 
d="M227 676q0 159 69 306t185.5 255t278 173t338.5 65q132 0 249.5 -37.5t205.5 -104.5t152 -157t97 -197t33 -221q0 -159 -69 -306t-185 -255t-277.5 -173t-338.5 -65q-132 0 -249.5 37t-205.5 104t-152.5 156.5t-97.5 196.5t-33 223zM635 778h799q-12 140 -114 239
t-253 99q-155 0 -277.5 -94t-154.5 -244zM1425 655h-798q12 -144 113.5 -241t254.5 -97q154 0 276 94t154 244z" />
    <glyph glyph-name="uni04E9" unicode="&#x4e9;" 
d="M174 471q0 112 45.5 214t124 176.5t189.5 118.5t235 44q114 0 211 -39t162.5 -106t102 -157t36.5 -190q0 -112 -45.5 -214t-124 -176t-189.5 -118t-235 -44q-114 0 -211 39t-162.5 106t-102 156.5t-36.5 189.5zM547 563h371q-14 61 -61 102.5t-109 41.5
q-70 0 -123.5 -39.5t-77.5 -104.5zM907 440h-370q12 -63 58.5 -103t111.5 -40q68 0 122 39.5t78 103.5z" />
    <glyph glyph-name="uni04EA" unicode="&#x4ea;" horiz-adv-x="1761" 
d="M227 676q0 159 69 306t185.5 255t278 173t338.5 65q132 0 249.5 -37.5t205.5 -104.5t152 -157t97 -197t33 -221q0 -159 -69 -306t-185 -255t-277.5 -173t-338.5 -65q-132 0 -249.5 37t-205.5 104t-152.5 156.5t-97.5 196.5t-33 223zM635 778h799q-12 140 -114 239
t-253 99q-155 0 -277.5 -94t-154.5 -244zM1425 655h-798q12 -144 113.5 -241t254.5 -97q154 0 276 94t154 244zM983 1946q66 0 111 -46t45 -114q0 -77 -58 -133t-137 -56q-66 0 -111 46t-45 114q0 77 58 133t137 56zM1415 1597q-66 0 -110.5 46t-44.5 114q0 77 57.5 133
t136.5 56q66 0 111 -46t45 -114q0 -77 -58 -133t-137 -56z" />
    <glyph glyph-name="uni04EB" unicode="&#x4eb;" 
d="M174 471q0 112 45.5 214t124 176.5t189.5 118.5t235 44q114 0 211 -39t162.5 -106t102 -157t36.5 -190q0 -112 -45.5 -214t-124 -176t-189.5 -118t-235 -44q-114 0 -211 39t-162.5 106t-102 156.5t-36.5 189.5zM547 563h371q-14 61 -61 102.5t-109 41.5
q-70 0 -123.5 -39.5t-77.5 -104.5zM907 440h-370q12 -63 58.5 -103t111.5 -40q68 0 122 39.5t78 103.5zM645 1485q66 0 111 -46t45 -114q0 -77 -58 -132.5t-137 -55.5q-66 0 -110.5 45.5t-44.5 113.5q0 77 57.5 133t136.5 56zM1077 1137q-66 0 -110.5 45.5t-44.5 113.5
q0 77 57.5 133t136.5 56q66 0 111 -46t45 -114q0 -77 -58 -132.5t-137 -55.5z" />
    <glyph glyph-name="uni04EC" unicode="&#x4ec;" horiz-adv-x="1556" 
d="M135 285l268 247q37 -62 93 -108q123 -107 295 -107q130 0 236.5 67t158.5 169h-557l69 328h510q-37 100 -129.5 167.5t-222.5 67.5q-128 0 -262 -67q-54 -25 -105 -66l-182 274q68 61 150 109q194 109 438 109q164 0 304.5 -59t234 -158t146 -229t52.5 -271
q0 -159 -69 -306t-185 -255t-277 -173t-337 -65q-287 0 -485 162q-86 69 -144 164zM829 1946q66 0 111 -46t45 -114q0 -77 -57.5 -133t-136.5 -56q-66 0 -111 46t-45 114q0 77 57.5 133t136.5 56zM1262 1597q-66 0 -111 46t-45 114q0 77 57.5 133t136.5 56q66 0 111 -46
t45 -114q0 -77 -57.5 -133t-136.5 -56z" />
    <glyph glyph-name="uni04ED" unicode="&#x4ed;" horiz-adv-x="1105" 
d="M90 199l201 166q19 -36 53 -60q74 -59 188 -59q71 0 136.5 39t95.5 104h-350l47 225h336q-5 20 -16 40t-35 46t-69 42t-104 16q-88 0 -172 -47q-39 -22 -65 -45l-131 198q47 44 106 80q148 80 314 80q114 0 211 -39t162.5 -106t102 -157t36.5 -190q0 -112 -45.5 -214
t-124 -176t-189.5 -118t-235 -44q-216 0 -357 108q-62 50 -96 111zM553 1485q66 0 111 -46t45 -114q0 -77 -58 -132.5t-137 -55.5q-66 0 -111 46t-45 113q0 77 58 133t137 56zM985 1137q-66 0 -111 46t-45 113q0 77 58 133t137 56q66 0 111 -46t45 -114q0 -77 -58 -132.5
t-137 -55.5z" />
    <glyph glyph-name="uni04EE" unicode="&#x4ee;" horiz-adv-x="1331" 
d="M119 25l74 331q19 -7 34 -10q31 -8 80 -8q133 0 230 139l24 35l-278 922h399l137 -594h8l347 594h460l-753 -1106q-115 -168 -245.5 -258t-287.5 -90q-109 0 -170 22q-38 10 -59 23zM649 1638l58 267h655l-57 -267h-656z" />
    </font>
</defs>
</svg>
