<?xml version="1.0" standalone="no"?>
<!DOCTYPE svg PUBLIC "-//W3C//DTD SVG 1.1//EN" "http://www.w3.org/Graphics/SVG/1.1/DTD/svg11.dtd" >
<svg xmlns="http://www.w3.org/2000/svg" xmlns:xlink="http://www.w3.org/1999/xlink" version="1.1">
<metadata>
Created by FontForge 20170731 at Tue Dec  1 20:24:57 2020
 By Aleksey,,,
Copyright (c) 2016-2019 by TypeType. Designers Ivan Gladkikh, Pavel Emelyanov. Technical designers Vika Usmanova, Olexa Volochay, Nadyr Rakhimov. All rights reserved. |DCNT
</metadata>
<defs>
<font id="TTNormsPro-LightItalic" horiz-adv-x="1187" >
  <font-face 
    font-family="TT Norms Pro Light"
    font-weight="300"
    font-style="italic"
    font-stretch="normal"
    units-per-em="2048"
    panose-1="2 0 5 3 2 0 0 9 0 3"
    ascent="1434"
    descent="-614"
    x-height="983"
    cap-height="1434"
    bbox="-705 -451 3068 2028"
    underline-thickness="102"
    underline-position="-307"
    slope="-12"
    unicode-range="U+000D-FB06"
  />
<missing-glyph horiz-adv-x="0" 
 />
    <glyph glyph-name="f_f" unicode="ff" horiz-adv-x="1177" 
d="M225 0l189 891h-164l20 92h164l41 191q52 239 260 239q64 0 117 -24q14 -5 45 -23l-20 -88q-11 6 -43 20q-62 23 -101 23q-64 0 -107.5 -39.5t-60.5 -116.5l-39 -182h461l49 231q52 240 260 240q64 0 117 -24q14 -5 45 -23l-20 -88q-11 6 -43 20q-62 23 -101 23
q-64 0 -107.5 -39.5t-60.5 -116.5l-47 -223h246l-20 -92h-246l-189 -891h-92l189 891h-461l-189 -891h-92z" />
    <glyph glyph-name="uniFB01" unicode="fi" horiz-adv-x="1054" 
d="M225 0l189 891h-164l20 92h164l49 231q52 240 260 240q64 0 117 -24q14 -5 45 -23l-20 -88q-11 6 -43 20q-62 23 -101 23q-64 0 -107.5 -39.5t-60.5 -116.5l-47 -223h553l-209 -983h-92l189 891h-461l-189 -891h-92zM1030 1323q0 35 23.5 57.5t56.5 22.5q29 0 47.5 -18.5
t18.5 -45.5q0 -34 -23.5 -56.5t-56.5 -22.5q-29 0 -47.5 18t-18.5 45z" />
    <glyph glyph-name="f_f_i" unicode="ffi" horiz-adv-x="1617" 
d="M225 0l189 891h-164l20 92h164l41 191q52 239 260 239q64 0 117 -24q14 -5 45 -23l-20 -88q-11 6 -43 20q-62 23 -101 23q-64 0 -107.5 -39.5t-60.5 -116.5l-39 -182h461l49 231q52 240 260 240q64 0 117 -24q14 -5 45 -23l-20 -88q-11 6 -43 20q-62 23 -101 23
q-64 0 -107.5 -39.5t-60.5 -116.5l-47 -223h553l-209 -983h-92l189 891h-461l-189 -891h-92l189 891h-461l-189 -891h-92zM1583 1323q0 35 23.5 57.5t56.5 22.5q29 0 47.5 -18.5t18.5 -45.5q0 -34 -23.5 -56.5t-56.5 -22.5q-29 0 -47.5 18t-18.5 45z" />
    <glyph glyph-name=".notdef" horiz-adv-x="0" 
 />
    <glyph glyph-name=".null" horiz-adv-x="0" 
 />
    <glyph glyph-name="nonmarkingreturn" horiz-adv-x="682" 
 />
    <glyph glyph-name="NULL" horiz-adv-x="0" 
 />
    <glyph glyph-name="NULL" horiz-adv-x="0" 
 />
    <glyph glyph-name="CR" unicode="&#xd;" horiz-adv-x="0" 
 />
    <glyph glyph-name="space" unicode=" " horiz-adv-x="409" 
 />
    <glyph glyph-name="exclam" unicode="!" horiz-adv-x="573" 
d="M299 133q29 0 47.5 -18t18.5 -45q0 -35 -23.5 -57.5t-56.5 -22.5q-29 0 -47.5 18t-18.5 45q0 35 23.5 57.5t56.5 22.5zM307 328l213 1106h123l-254 -1106h-82z" />
    <glyph glyph-name="quotedbl" unicode="&#x22;" horiz-adv-x="686" 
d="M346 1004l90 430h92l-90 -430h-92zM653 1004l90 430h93l-91 -430h-92z" />
    <glyph glyph-name="numbersign" unicode="#" horiz-adv-x="1464" 
d="M276 0l175 440h-308l41 92h308l149 369h-307l41 92h307l174 441h92l-174 -441h451l174 441h92l-174 -441h307l-41 -92h-307l-150 -369h308l-41 -92h-308l-174 -440h-92l174 440h-450l-174 -440h-93zM584 532h450l150 369h-451z" />
    <glyph glyph-name="dollar" unicode="$" horiz-adv-x="1146" 
d="M481 -225l47 215q-176 29 -292 145q-57 57 -82 111l84 65q34 -64 90 -114q133 -115 336 -115q158 0 259 87t101 224q0 55 -28 100.5t-74.5 76.5t-105.5 62.5t-120.5 56.5t-120.5 59.5t-105.5 72t-74.5 93t-28 122.5q0 111 59.5 206.5t168.5 153.5t243 58l45 205h102
l-47 -213q146 -29 254 -121q51 -45 76 -90l-88 -66q-25 49 -80 91q-112 92 -281 92q-152 0 -250 -84t-98 -209q0 -55 28 -100.5t74 -76.5t105 -62.5t120.5 -57t120.5 -60.5t105 -72.5t74 -93.5t28 -124q0 -185 -136.5 -308.5t-344.5 -123.5h-16l-45 -205h-103z" />
    <glyph glyph-name="percent" unicode="%" horiz-adv-x="1556" 
d="M276 0l1205 1434h112l-1204 -1434h-113zM858 1169q0 87 -53 140t-141 53q-96 0 -168 -72.5t-72 -185.5q0 -87 52.5 -140t139.5 -53q96 0 169 72.5t73 185.5zM952 1180q0 -154 -102.5 -257.5t-239.5 -103.5q-122 0 -201 78t-79 197q0 154 102.5 257t239.5 103
q123 0 201.5 -77.5t78.5 -196.5zM1012 264q0 -86 53 -139t141 -53q96 0 168 72.5t72 185.5q0 86 -53 139t-140 53q-96 0 -168.5 -72.5t-72.5 -185.5zM918 254q0 154 102.5 257t239.5 103q123 0 201.5 -77.5t78.5 -196.5q0 -154 -102.5 -257t-239.5 -103q-123 0 -201.5 77.5
t-78.5 196.5z" />
    <glyph glyph-name="ampersand" unicode="&#x26;" horiz-adv-x="1249" 
d="M1262 88l-19 -92l-12 -4q-6 -2 -41 -2q-94 0 -162 76q-33 38 -51 75q-41 -38 -109 -82q-131 -79 -272 -79q-168 0 -266.5 90t-98.5 227q0 187 189 344q83 68 188 119q-32 44 -73 117q-72 133 -72 247q0 138 105.5 234t240.5 96q132 0 209.5 -72.5t77.5 -185.5
q0 -175 -185 -328q-87 -71 -182 -120l279 -463q38 46 73 112q72 133 103 299h92q-31 -194 -129 -358q-47 -79 -92 -127q17 -35 41 -66q52 -63 112 -63q25 0 35 2zM692 809q89 55 154 111q155 132 155 268q0 77 -53 125.5t-147 48.5q-100 0 -172 -66.5t-72 -167.5
q0 -95 68 -217q28 -54 67 -102zM930 215l-287 475q-91 -48 -160 -108q-159 -143 -159 -287q0 -102 72.5 -162.5t209.5 -60.5q132 0 236 71q45 26 88 72z" />
    <glyph glyph-name="quotesingle" unicode="'" horiz-adv-x="378" 
d="M346 1004l90 430h92l-90 -430h-92z" />
    <glyph glyph-name="parenleft" unicode="(" horiz-adv-x="665" 
d="M506 -401l-80 -50q-49 77 -88 189q-88 227 -88 498q0 485 291 907q126 188 290 332l62 -54q-159 -141 -277 -319q-274 -420 -274 -862q0 -241 82 -467q39 -104 82 -174z" />
    <glyph glyph-name="parenright" unicode=")" horiz-adv-x="665" 
d="M59 -451l-61 54q156 141 274 319q277 414 277 862q0 241 -82 467q-39 104 -82 174l80 50q42 -70 88 -189q88 -252 88 -498q0 -485 -291 -907q-125 -185 -291 -332z" />
    <glyph glyph-name="asterisk" unicode="*" horiz-adv-x="798" 
d="M379 870l174 226l-266 61l30 82l256 -82l-10 277h82l-10 -277l256 82l31 -82l-267 -61l174 -226l-61 -51l-164 236l-164 -236z" />
    <glyph glyph-name="plus" unicode="+" horiz-adv-x="1034" 
d="M598 154v399h-379v92h379v399h92v-399h379v-92h-379v-399h-92z" />
    <glyph glyph-name="comma" unicode="," horiz-adv-x="409" 
d="M-37 -225l250 368l90 -61l-287 -338z" />
    <glyph glyph-name="hyphen" unicode="-" horiz-adv-x="788" 
d="M221 563l21 92h583l-20 -92h-584z" />
    <glyph glyph-name="period" unicode="." horiz-adv-x="409" 
d="M227 133q29 0 47.5 -18t18.5 -45q0 -35 -23.5 -57.5t-56.5 -22.5q-29 0 -47.5 18t-18.5 45q0 35 23.5 57.5t56.5 22.5z" />
    <glyph glyph-name="slash" unicode="/" horiz-adv-x="727" 
d="M-131 -430l1022 1884h113l-1024 -1884h-111z" />
    <glyph glyph-name="zero" unicode="0" horiz-adv-x="1372" 
d="M946 1454q92 0 175 -41t145 -114.5t98.5 -183.5t36.5 -241q0 -137 -30 -262t-81.5 -221.5t-119 -175t-143.5 -129.5t-153.5 -78.5t-150.5 -27.5q-92 0 -175 40.5t-145 114t-98.5 183.5t-36.5 241q0 163 42.5 309t112.5 251t158.5 182t182.5 115t182 38zM932 1352
q-59 0 -122 -23t-126.5 -66.5t-120 -112t-100 -153.5t-69 -198t-25.5 -238q0 -221 106 -350t262 -129q71 0 147.5 31.5t150.5 98t133 158t95.5 222.5t36.5 280q0 219 -106.5 349.5t-261.5 130.5z" />
    <glyph glyph-name="one" unicode="1" horiz-adv-x="686" 
d="M358 0l265 1249q-35 -35 -78 -57q-90 -55 -223 -55l18 82q123 0 244 106q47 42 98 109h82l-303 -1434h-103z" />
    <glyph glyph-name="two" unicode="2" horiz-adv-x="1126" 
d="M223 102h791l-21 -102h-901q16 102 61 188.5t107.5 148t139.5 114.5t158 95t161 82.5t150.5 85t125 94.5t86 117t31.5 148q0 120 -87.5 198.5t-242.5 78.5q-151 0 -262 -111q-52 -52 -78 -111l-84 46q43 81 101 139q139 139 334 139q191 0 306 -107.5t115 -265.5
q0 -88 -30 -163t-82 -131.5t-119 -105.5t-143.5 -90.5t-154 -81t-152.5 -82t-136.5 -88.5t-108 -106t-65.5 -129z" />
    <glyph glyph-name="three" unicode="3" horiz-adv-x="1116" 
d="M143 246l84 63q23 -55 82 -114q117 -113 305 -113q162 0 271.5 98t109.5 232q0 117 -89 200.5t-228 83.5h-123l23 103h178q145 0 238 89t93 210q0 108 -81 181t-222 73q-119 0 -233 -66q-40 -21 -90 -63l-53 88q34 30 104 71q140 72 279 72q180 0 289.5 -100.5
t109.5 -247.5q0 -106 -44 -180t-110 -119q-68 -47 -151 -68q64 -29 106 -69q107 -95 107 -244q0 -88 -38 -169.5t-103.5 -142.5t-159 -97.5t-197.5 -36.5q-217 0 -358 133q-66 60 -99 133z" />
    <glyph glyph-name="four" unicode="4" horiz-adv-x="1136" 
d="M121 328l24 123l926 983h123l-213 -1004h184l-20 -102h-184l-70 -328h-103l70 328h-737zM258 430h621l180 856z" />
    <glyph glyph-name="five" unicode="5" horiz-adv-x="1167" 
d="M195 244l86 63q25 -59 81 -112q117 -113 293 -113q169 0 286.5 115.5t117.5 285.5q0 137 -92 226.5t-240 89.5q-120 0 -233 -72q-51 -38 -80 -72h-82l215 779h727l-21 -103h-635l-139 -514q44 27 76 41q88 43 193 43q182 0 298.5 -119.5t116.5 -292.5q0 -139 -72 -257
t-192.5 -185t-259.5 -67q-205 0 -348 131q-63 60 -96 133z" />
    <glyph glyph-name="six" unicode="6" horiz-adv-x="1167" 
d="M397 786l570 648h123l-488 -555l39 10q50 12 102 12q187 0 306.5 -119t119.5 -290q0 -140 -72.5 -258.5t-191 -186t-252.5 -67.5q-190 0 -310 119.5t-120 293.5q-1 61 17 124t43.5 109.5t51.5 84t44 56.5zM727 799q-167 0 -284 -114t-117 -288q0 -134 93.5 -224.5
t246.5 -90.5q167 0 284 113.5t117 287.5q0 134 -93.5 225t-246.5 91z" />
    <glyph glyph-name="seven" unicode="7" horiz-adv-x="972" 
d="M154 0l938 1331h-764l20 103h891l-20 -103l-938 -1331h-127z" />
    <glyph glyph-name="eight" unicode="8" 
d="M592 797q-47 29 -78 63q-78 86 -78 201q0 107 59 198t158 143t213 52q162 0 266.5 -101.5t104.5 -242.5q0 -100 -40.5 -172.5t-100.5 -112.5q-63 -45 -142 -67q54 -29 101 -76q100 -112 100 -246q0 -120 -66 -225t-180 -168t-247 -63q-96 0 -178 31.5t-137 85
t-85.5 123.5t-30.5 147q0 76 22.5 142t58.5 113t84.5 83.5t97 58t98.5 33.5zM539 1077q0 -102 78 -175t204 -73q130 0 221 79t91 196q0 102 -78.5 175t-204.5 73q-129 0 -220 -80t-91 -195zM334 385q0 -124 93.5 -213.5t242.5 -89.5q161 0 272 99.5t111 242.5
q0 124 -93.5 213.5t-242.5 89.5q-161 0 -272 -99.5t-111 -242.5z" />
    <glyph glyph-name="nine" unicode="9" horiz-adv-x="1167" 
d="M389 0l488 555l-39 -12q-50 -11 -103 -11q-187 0 -306.5 119.5t-119.5 290.5q0 140 72.5 258.5t191 186t252.5 67.5q190 0 310 -120t120 -294q0 -45 -9 -91t-24.5 -83.5t-34 -72t-37.5 -60.5t-34.5 -45.5t-25.5 -29.5l-9 -11l-569 -647h-123zM412 950q0 -134 93.5 -224.5
t246.5 -90.5q167 0 284 113.5t117 287.5q0 134 -93.5 225t-246.5 91q-167 0 -284 -114t-117 -288z" />
    <glyph glyph-name="colon" unicode=":" horiz-adv-x="409" 
d="M227 133q29 0 47.5 -18t18.5 -45q0 -35 -23.5 -57.5t-56.5 -22.5q-29 0 -47.5 18t-18.5 45q0 35 23.5 57.5t56.5 22.5zM408 991q29 0 47 -18t18 -45q0 -35 -23.5 -57.5t-56.5 -22.5q-29 0 -47 18t-18 45q0 35 23.5 57.5t56.5 22.5z" />
    <glyph glyph-name="semicolon" unicode=";" horiz-adv-x="409" 
d="M-37 -207l248 348l88 -71l-283 -314zM332 911q0 35 23.5 57.5t56.5 22.5q29 0 47 -18t18 -45q0 -35 -23.5 -57.5t-56.5 -22.5q-29 0 -47 18t-18 45z" />
    <glyph glyph-name="less" unicode="&#x3c;" horiz-adv-x="1003" 
d="M215 461v82l799 420v-103l-686 -358l686 -359v-102z" />
    <glyph glyph-name="equal" unicode="=" horiz-adv-x="1013" 
d="M246 737v92h809v-92h-809zM246 379v92h809v-92h-809z" />
    <glyph glyph-name="greater" unicode="&#x3e;" horiz-adv-x="1003" 
d="M276 41v102l687 359l-687 358v103l799 -420v-82z" />
    <glyph glyph-name="question" unicode="?" horiz-adv-x="1064" 
d="M602 328h-92q-1 74 16.5 136t49 106t72.5 81.5t86 67t91 58.5t87 60.5t73 67t51 85t19 108.5q0 108 -85.5 181t-234.5 73q-151 0 -258 -107q-50 -50 -76 -106l-90 32q44 83 103 142q141 141 334 141q185 0 297 -102t112 -248q0 -69 -16 -125.5t-44 -96.5t-64.5 -73.5
t-78.5 -61t-84.5 -54t-83.5 -57t-75.5 -65.5t-60.5 -84t-38 -108zM422 53q0 35 23.5 57.5t56.5 22.5q29 0 47 -18t18 -45q0 -35 -23.5 -57.5t-56.5 -22.5q-29 0 -47 18t-18 45z" />
    <glyph glyph-name="at" unicode="@" horiz-adv-x="1822" 
d="M1335 -70l35 -77q-56 -39 -110 -60q-137 -59 -295 -59q-193 0 -352.5 95.5t-249 256.5t-89.5 352q0 170 74.5 328.5t194.5 272.5t277 182.5t317 68.5q192 0 349 -87.5t248 -245t91 -353.5q0 -89 -25.5 -175t-71 -154t-114.5 -110t-150 -42q-93 0 -155 82q-27 41 -37 82
q-23 -40 -72 -82q-98 -82 -219 -82q-131 0 -220 94t-89 236q0 89 35.5 170t92 136.5t128.5 88.5t145 33q125 0 203 -86q33 -35 51 -86l33 161h92l-92 -436q-23 -97 10.5 -158t106.5 -61q47 0 91.5 25.5t82.5 73t61 126t23 174.5q0 119 -44.5 225.5t-123.5 186t-195 126
t-252 46.5q-141 0 -278 -60.5t-241.5 -161.5t-169 -243.5t-64.5 -296.5q0 -125 45.5 -237t125 -194t193 -130.5t242.5 -48.5q143 0 262 51q43 16 100 53zM991 215q115 0 205 94t90 242q0 105 -63.5 171t-163.5 66q-115 0 -205 -93.5t-90 -241.5q0 -105 63.5 -171.5
t163.5 -66.5z" />
    <glyph glyph-name="A" unicode="A" horiz-adv-x="1372" 
d="M72 0l897 1434h102l291 -1434h-105l-86 420h-716l-262 -420h-121zM518 522h635l-156 768z" />
    <glyph glyph-name="B" unicode="B" horiz-adv-x="1351" 
d="M498 809h481q129 0 214 81.5t85 217.5q0 104 -72.5 163.5t-191.5 59.5h-404zM348 102h512q153 0 250.5 96t97.5 244q0 117 -84.5 191t-222.5 74h-424zM225 0l303 1434h508q152 0 248 -90t96 -230q0 -180 -127 -291q-56 -50 -127 -71q50 -26 93 -72q92 -96 92 -234
q0 -189 -134 -317.5t-331 -128.5h-621z" />
    <glyph glyph-name="C" unicode="C" horiz-adv-x="1536" 
d="M1436 297l57 -72q-72 -72 -158 -123q-194 -122 -415 -122q-141 0 -263 51.5t-207 139t-133.5 208t-48.5 254.5q0 135 44.5 262t123 227t180 175.5t221.5 116t242 40.5q234 0 424 -158q84 -75 133 -157l-86 -56q-47 79 -110 134q-159 135 -377 135q-132 0 -257.5 -54.5
t-221.5 -148t-154.5 -227.5t-58.5 -283q0 -157 70.5 -283.5t200 -200t294.5 -73.5q194 0 364 106q77 47 136 109z" />
    <glyph glyph-name="D" unicode="D" horiz-adv-x="1515" 
d="M348 102h408q140 0 268 52t222.5 141t151 217t56.5 272q0 118 -45 221t-120.5 174t-176.5 111.5t-211 40.5h-291zM225 0l303 1434h373q134 0 254 -47.5t208 -131t139.5 -204t51.5 -258.5q0 -163 -66 -310.5t-176.5 -253t-259.5 -167.5t-309 -62h-518z" />
    <glyph glyph-name="E" unicode="E" horiz-adv-x="1290" 
d="M225 0l303 1434h963l-21 -103h-860l-114 -532h696l-21 -103h-696l-127 -594h881l-21 -102h-983z" />
    <glyph glyph-name="F" unicode="F" horiz-adv-x="1249" 
d="M225 0l303 1434h953l-21 -103h-850l-118 -553h686l-21 -102h-686l-143 -676h-103z" />
    <glyph glyph-name="G" unicode="G" horiz-adv-x="1617" 
d="M1409 270l74 344h-369l23 103h471l-107 -504q-65 -59 -162 -117q-204 -116 -419 -116q-141 0 -263 51.5t-207 139t-133.5 208t-48.5 254.5q0 135 44.5 262t123 227t180 175.5t221.5 116t242 40.5q234 0 424 -158q84 -75 133 -157l-86 -56q-47 79 -110 134
q-159 135 -377 135q-132 0 -257.5 -54.5t-221.5 -148t-154.5 -227.5t-58.5 -283q0 -157 70.5 -283.5t200 -200t294.5 -73.5q174 0 342 94q73 42 131 94z" />
    <glyph glyph-name="H" unicode="H" horiz-adv-x="1525" 
d="M225 0l303 1434h103l-139 -656h870l139 656h103l-304 -1434h-102l143 676h-870l-143 -676h-103z" />
    <glyph glyph-name="I" unicode="I" horiz-adv-x="552" 
d="M225 0l303 1434h103l-303 -1434h-103z" />
    <glyph glyph-name="J" unicode="J" horiz-adv-x="993" 
d="M47 166l82 67q21 -39 64 -75q92 -76 217 -76q130 0 225.5 81.5t124.5 221.5l221 1049h102l-223 -1059q-36 -177 -168 -286t-301 -109q-154 0 -262 92q-44 36 -82 94z" />
    <glyph glyph-name="K" unicode="K" horiz-adv-x="1320" 
d="M225 0l303 1434h103l-187 -881l986 881h137l-670 -598l414 -836h-113l-379 766l-405 -363l-86 -403h-103z" />
    <glyph glyph-name="L" unicode="L" horiz-adv-x="1116" 
d="M225 0l303 1434h103l-283 -1332h768l-20 -102h-871z" />
    <glyph glyph-name="M" unicode="M" horiz-adv-x="1884" 
d="M225 0l303 1434h72l455 -850l815 850h92l-303 -1434h-103l263 1239l-789 -819l-440 819l-262 -1239h-103z" />
    <glyph glyph-name="N" unicode="N" horiz-adv-x="1587" 
d="M225 0l303 1434h82l688 -1252l265 1252h102l-303 -1434h-82l-688 1251l-264 -1251h-103z" />
    <glyph glyph-name="O" unicode="O" horiz-adv-x="1699" 
d="M1081 1454q185 0 335 -88t232.5 -237.5t82.5 -329.5q0 -168 -69 -321t-181.5 -261.5t-260.5 -172.5t-302 -64q-185 0 -335 88t-232.5 237.5t-82.5 329.5q0 168 69 321t181.5 261.5t260.5 172.5t302 64zM1065 1352q-132 0 -257.5 -54t-222 -147t-155.5 -227t-59 -283
q0 -156 70.5 -283t199.5 -201.5t293 -74.5q131 0 257.5 55t222.5 148.5t155 227t59 280.5q0 156 -70.5 283t-199.5 201.5t-293 74.5z" />
    <glyph glyph-name="P" unicode="P" horiz-adv-x="1320" 
d="M225 0l303 1434h486q106 0 197.5 -50.5t147.5 -142.5t56 -203q0 -132 -69.5 -244.5t-185 -176.5t-247.5 -64h-469l-116 -553h-103zM467 655h463q162 0 272.5 107.5t110.5 271.5q0 135 -95 216t-225 81h-383z" />
    <glyph glyph-name="Q" unicode="Q" horiz-adv-x="1699" 
d="M1657 -178l-21 -105q-4 -2 -14 -2q-6 -2 -31 -2q-90 0 -167 21.5t-127 53t-90 73.5t-60.5 76t-34.5 69q-20 -6 -57 -14q-70 -12 -137 -12q-185 0 -335 88t-232.5 237.5t-82.5 329.5q0 168 69 321t181.5 261.5t260.5 172.5t302 64q185 0 335 -88t232.5 -237.5t82.5 -329.5
q0 -251 -146.5 -457.5t-370.5 -300.5q13 -29 30.5 -56.5t49.5 -59.5t72 -55t99.5 -38.5t129.5 -15.5q39 0 45 2zM371 641q0 -156 70.5 -283t199.5 -201.5t293 -74.5q131 0 257.5 55t222.5 148.5t155 227t59 280.5q0 156 -70.5 283t-199.5 201.5t-293 74.5q-132 0 -257.5 -54
t-222 -147t-155.5 -227t-59 -283z" />
    <glyph glyph-name="R" unicode="R" horiz-adv-x="1351" 
d="M225 0l303 1434h516q164 0 277 -105.5t113 -267.5q0 -253 -205 -383q-89 -59 -203 -80l213 -598h-106l-213 594h-467l-125 -594h-103zM475 696h496q153 0 256.5 101.5t103.5 257.5q0 121 -86 198.5t-211 77.5h-424z" />
    <glyph glyph-name="S" unicode="S" horiz-adv-x="1146" 
d="M154 246l84 65q34 -64 90 -114q133 -115 336 -115q158 0 259 87t101 224q0 55 -28 100.5t-74.5 76.5t-105.5 62.5t-120.5 56.5t-120.5 59.5t-105.5 72t-74.5 93t-28 122.5q0 111 59.5 206.5t168.5 153.5t243 58q186 0 331 -111q61 -49 99 -108l-88 -66q-25 49 -80 91
q-112 92 -281 92q-152 0 -250 -84t-98 -209q0 -55 28 -100.5t74 -76.5t105 -62.5t120.5 -57t120.5 -60.5t105 -72.5t74 -93.5t28 -124q0 -185 -136.5 -308.5t-344.5 -123.5q-236 0 -385 133q-66 57 -106 133z" />
    <glyph glyph-name="T" unicode="T" horiz-adv-x="1116" 
d="M492 0l282 1331h-471l21 103h1044l-20 -103h-471l-283 -1331h-102z" />
    <glyph glyph-name="U" unicode="U" horiz-adv-x="1536" 
d="M324 612l174 822h102l-176 -832q-44 -220 72.5 -370t332.5 -150q181 0 318.5 117t177.5 307l197 928h102l-199 -936q-49 -227 -222 -372.5t-390 -145.5q-172 0 -297.5 88t-176.5 233t-15 311z" />
    <glyph glyph-name="V" unicode="V" horiz-adv-x="1331" 
d="M584 0l-260 1434h106l229 -1280l775 1280h118l-866 -1434h-102z" />
    <glyph glyph-name="W" unicode="W" horiz-adv-x="2048" 
d="M481 0l-157 1434h106l131 -1270l678 1270h102l142 -1270l667 1270h119l-764 -1434h-102l-141 1270l-678 -1270h-103z" />
    <glyph glyph-name="X" unicode="X" horiz-adv-x="1249" 
d="M31 0l690 748l-346 686h112l304 -605l557 605h133l-637 -686l375 -748h-113l-330 666l-612 -666h-133z" />
    <glyph glyph-name="Y" unicode="Y" horiz-adv-x="1228" 
d="M532 0l107 502l-336 932h113l286 -820l635 820h133l-729 -932l-106 -502h-103z" />
    <glyph glyph-name="Z" unicode="Z" horiz-adv-x="1177" 
d="M72 0l20 102l1122 1229h-829l21 103h962l-20 -103l-1123 -1229h881l-21 -102h-1013z" />
    <glyph glyph-name="bracketleft" unicode="[" horiz-adv-x="686" 
d="M113 -430l399 1884h399l-20 -102h-297l-358 -1680h296l-20 -102h-399z" />
    <glyph glyph-name="backslash" unicode="\" horiz-adv-x="727" 
d="M584 -430l-226 1884h93l225 -1884h-92z" />
    <glyph glyph-name="bracketright" unicode="]" horiz-adv-x="686" 
d="M-8 -430l18 102h297l359 1680h-297l20 102h399l-399 -1884h-397z" />
    <glyph glyph-name="asciicircum" unicode="^" horiz-adv-x="798" 
d="M266 870l256 564h82l256 -564h-92l-205 451l-205 -451h-92z" />
    <glyph glyph-name="underscore" unicode="_" horiz-adv-x="655" 
d="M-49 -328l20 92h695l-21 -92h-694z" />
    <glyph glyph-name="grave" unicode="`" horiz-adv-x="389" 
d="M492 1157l-130 266h113l98 -266h-81z" />
    <glyph glyph-name="a" unicode="a" horiz-adv-x="1034" 
d="M791 0l30 147q-45 -52 -90 -84q-114 -83 -254 -83q-144 0 -230.5 77t-86.5 185q0 112 80 194.5t243 110.5l437 67q18 132 -49.5 214.5t-200.5 82.5q-109 0 -199 -57q-47 -26 -78 -57l-49 67q38 38 94 70q118 70 242 70q179 0 270 -121t54 -308l-121 -575h-92zM877 401
l24 121l-393 -63q-254 -41 -254 -207q0 -76 63 -128t175 -52q136 0 246.5 94.5t138.5 234.5z" />
    <glyph glyph-name="b" unicode="b" horiz-adv-x="1218" 
d="M184 0l303 1434h93l-129 -607q40 46 98 88q130 89 270 89q177 0 294.5 -123t117.5 -316q0 -125 -47 -236.5t-122.5 -186.5t-170.5 -118.5t-191 -43.5q-185 0 -299 126q-50 53 -75 130l-50 -236h-92zM711 72q79 0 156.5 37t137.5 100.5t97 154.5t37 191q0 152 -95 254
t-237 102q-79 0 -156.5 -37t-137.5 -100.5t-97 -154.5t-37 -191q0 -152 95 -254t237 -102z" />
    <glyph glyph-name="c" unicode="c" horiz-adv-x="1054" 
d="M942 213l57 -68q-48 -48 -104 -84q-130 -81 -272 -81q-182 0 -304 129t-122 319q0 118 48 226t124.5 184t175 121t198.5 45q166 0 285 -111q53 -50 88 -109l-84 -51q-23 42 -69 88q-90 90 -228 90q-79 0 -159.5 -36.5t-143.5 -98t-103 -150.5t-40 -186
q0 -159 99.5 -263.5t246.5 -104.5q115 0 223 69q43 28 84 72z" />
    <glyph glyph-name="d" unicode="d" horiz-adv-x="1218" 
d="M940 0l33 156q-37 -48 -96 -88q-118 -88 -271 -88q-177 0 -294 122.5t-117 315.5q0 125 47 236.5t122 187t170 119t191 43.5q179 0 297 -130q49 -55 76 -126l145 686h92l-303 -1434h-92zM618 72q79 0 156.5 37t138 100.5t97.5 154.5t37 191q0 152 -95 254t-237 102
q-79 0 -156.5 -37t-137.5 -100.5t-97 -154.5t-37 -191q0 -152 94.5 -254t236.5 -102z" />
    <glyph glyph-name="e" unicode="e" horiz-adv-x="1126" 
d="M944 213l55 -68q-48 -48 -104 -84q-130 -81 -272 -81q-182 0 -304 129.5t-122 320.5q0 122 47 231t122.5 183t171.5 117t193 43q174 0 286.5 -118t112.5 -308q0 -20 -6 -89l-6 -38h-831v-13q0 -156 98.5 -261t251.5 -105q115 0 223 69q43 28 84 72zM301 543h739v24
q0 153 -85 248.5t-230 95.5q-90 0 -180 -46.5t-157.5 -132.5t-86.5 -189z" />
    <glyph glyph-name="f" unicode="f" horiz-adv-x="624" 
d="M225 0l189 891h-164l20 92h164l49 231q52 240 260 240q64 0 117 -24q14 -5 45 -23l-20 -88q-11 6 -43 20q-62 23 -101 23q-64 0 -107.5 -39.5t-60.5 -116.5l-47 -223h246l-20 -92h-246l-189 -891h-92z" />
    <glyph glyph-name="g" unicode="g" 
d="M104 -184l84 53q23 -55 66 -105q89 -104 246 -104q146 0 267 102.5t153 255.5l36 183q-37 -44 -96 -90q-122 -91 -266 -91q-171 0 -283 119.5t-112 300.5q0 121 44 228t116 179.5t164 114.5t188 42q179 0 290 -127q50 -59 72 -125l51 231h93l-209 -981
q-24 -121 -102 -220.5t-187.5 -155.5t-226.5 -56q-179 0 -302 123q-51 51 -86 123zM705 911q-78 0 -152.5 -33.5t-133 -92t-94.5 -145t-36 -185.5q0 -148 91.5 -245t231.5 -97q78 0 152.5 33.5t133 92t94.5 145t36 185.5q0 148 -91.5 245t-231.5 97z" />
    <glyph glyph-name="h" unicode="h" horiz-adv-x="1177" 
d="M184 0l303 1434h93l-125 -590q38 45 88 80q117 80 250 80q80 0 150.5 -34t118 -94.5t67.5 -145.5t-1 -187l-114 -543h-92l118 551q21 98 -6 180t-98 131t-170 49q-78 0 -153 -38.5t-133.5 -117t-80.5 -182.5l-123 -573h-92z" />
    <glyph glyph-name="i" unicode="i" horiz-adv-x="460" 
d="M516 1403q29 0 47.5 -18.5t18.5 -45.5q0 -34 -23.5 -56.5t-56.5 -22.5q-29 0 -47.5 18t-18.5 45q0 35 23.5 57.5t56.5 22.5zM184 0l209 983h92l-209 -983h-92z" />
    <glyph glyph-name="j" unicode="j" horiz-adv-x="460" 
d="M-176 -383l20 90q11 -11 37 -22q38 -23 96 -23q62 0 106.5 44t61.5 122l248 1155h92l-249 -1165q-25 -116 -97.5 -182t-171.5 -66q-65 0 -104 22q-25 11 -39 25zM436 1323q0 35 23.5 57.5t56.5 22.5q29 0 47.5 -18.5t18.5 -45.5q0 -34 -23.5 -56.5t-56.5 -22.5
q-29 0 -47.5 18t-18.5 45z" />
    <glyph glyph-name="k" unicode="k" horiz-adv-x="1013" 
d="M184 0l303 1434h93l-220 -1035l668 584h127l-457 -401l295 -582h-104l-264 518l-293 -256l-56 -262h-92z" />
    <glyph glyph-name="l" unicode="l" horiz-adv-x="460" 
d="M184 0l303 1434h93l-304 -1434h-92z" />
    <glyph glyph-name="m" unicode="m" horiz-adv-x="1761" 
d="M174 0l209 983h92l-29 -133q32 44 76 76q98 78 219 78q145 0 242 -105q37 -42 59 -104q32 55 88 104q121 105 271 105q179 0 265.5 -128.5t45.5 -330.5l-115 -545h-92l117 555q20 94 1 174.5t-79 131t-151 50.5q-120 0 -213.5 -85.5t-124.5 -239.5l-123 -586h-92l116 555
q32 157 -34 256.5t-193 99.5q-120 0 -213 -85t-127 -240l-123 -586h-92z" />
    <glyph glyph-name="n" unicode="n" horiz-adv-x="1167" 
d="M174 0l209 983h92l-29 -139q37 43 89 80q117 80 247 80q80 0 150.5 -34t118.5 -94.5t68 -145.5t-1 -187l-114 -543h-93l119 551q21 98 -6 180t-98 131t-170 49q-78 0 -153 -38.5t-133.5 -117t-80.5 -182.5l-123 -573h-92z" />
    <glyph glyph-name="o" unicode="o" 
d="M752 1004q187 0 311.5 -131.5t124.5 -321.5q0 -117 -48 -224.5t-126 -182.5t-178 -119.5t-203 -44.5q-187 0 -311.5 131.5t-124.5 320.5q0 117 48 224.5t126 183t178 120t203 44.5zM645 72q82 0 163.5 36.5t145 98t103 150.5t39.5 186q0 155 -102 261.5t-255 106.5
q-82 0 -163.5 -36.5t-144.5 -98t-102.5 -150.5t-39.5 -186q0 -155 101.5 -261.5t254.5 -106.5z" />
    <glyph glyph-name="p" unicode="p" horiz-adv-x="1208" 
d="M82 -430l301 1413h92l-35 -156q39 44 99 88q130 89 270 89q177 0 294.5 -123t117.5 -316q0 -125 -47 -236.5t-122.5 -186.5t-170.5 -118.5t-191 -43.5q-185 0 -299 126q-51 54 -76 130l-141 -666h-92zM700 72q79 0 156.5 37t137.5 100.5t97 154.5t37 191q0 152 -94.5 254
t-236.5 102q-79 0 -156.5 -37t-137.5 -100.5t-97 -154.5t-37 -191q0 -152 94.5 -254t236.5 -102z" />
    <glyph glyph-name="q" unicode="q" horiz-adv-x="1208" 
d="M848 -430l125 586q-37 -48 -96 -88q-118 -88 -271 -88q-177 0 -294 122.5t-117 315.5q0 125 47 236.5t122 187t170 119t191 43.5q179 0 297 -130q49 -55 76 -126l51 235h92l-301 -1413h-92zM618 72q79 0 156.5 37t138 100.5t97.5 154.5t37 191q0 152 -95 254t-237 102
q-79 0 -156.5 -37t-137.5 -100.5t-97 -154.5t-37 -191q0 -152 94.5 -254t236.5 -102z" />
    <glyph glyph-name="r" unicode="r" horiz-adv-x="696" 
d="M174 0l209 983h92l-29 -139q37 43 89 80q117 80 249 80h84l-20 -93h-92q-126 0 -231 -91.5t-136 -246.5l-123 -573h-92z" />
    <glyph glyph-name="s" unicode="s" horiz-adv-x="880" 
d="M121 182l86 64q27 -53 65 -88q94 -86 215 -86q110 0 184 60.5t74 148.5q0 40 -25.5 73t-67 56t-91 45t-99 46.5t-91 52.5t-67 70.5t-25.5 94.5q0 109 98 197t235 88q134 0 240 -89q50 -43 74 -88l-86 -63q-16 36 -54 74q-73 73 -188 73q-95 0 -160 -54t-65 -124
q0 -38 26 -69.5t67 -54t90.5 -44.5t99.5 -47t91 -54t67 -72.5t26 -96.5q0 -131 -104 -223t-255 -92q-166 0 -278 100q-54 48 -82 102z" />
    <glyph glyph-name="t" unicode="t" horiz-adv-x="716" 
d="M299 256l135 635h-194l20 92h133q31 0 56 22t32 60l54 246h81l-69 -328h225l-20 -92h-226l-137 -645q-13 -75 21 -124.5t127 -49.5q44 0 75 8q14 2 33 10l-20 -92q-19 -8 -33 -10q-31 -8 -76 -8q-135 0 -187 80.5t-30 195.5z" />
    <glyph glyph-name="u" unicode="u" horiz-adv-x="1177" 
d="M262 440l115 543h92l-119 -551q-33 -149 45.5 -254.5t229.5 -105.5q78 0 152.5 38.5t133 117t80.5 182.5l123 573h92l-209 -983h-92l29 139q-38 -47 -88 -80q-110 -79 -248 -79q-79 0 -150 33.5t-119.5 94.5t-68.5 145.5t2 186.5z" />
    <glyph glyph-name="v" unicode="v" horiz-adv-x="983" 
d="M420 0l-191 983h99l164 -860l532 860h106l-608 -983h-102z" />
    <glyph glyph-name="w" unicode="w" horiz-adv-x="1454" 
d="M348 0l-119 983h99l98 -829l444 829h82l86 -840l457 840h107l-537 -983h-92l-90 829l-443 -829h-92z" />
    <glyph glyph-name="x" unicode="x" horiz-adv-x="901" 
d="M20 0l478 512l-238 471h105l200 -399l373 399h121l-438 -471l260 -512h-105l-225 440l-410 -440h-121z" />
    <glyph glyph-name="y" unicode="y" horiz-adv-x="983" 
d="M-16 -406l22 93l29 -13q36 -12 67 -12q60 0 106 36.5t95 117.5l115 188l-189 979h99l164 -860l532 860h106l-720 -1167q-81 -133 -151.5 -189.5t-162.5 -56.5q-36 0 -82 12z" />
    <glyph glyph-name="z" unicode="z" horiz-adv-x="890" 
d="M51 0l19 92l794 799h-604l21 92h727l-21 -92l-794 -799h645l-19 -92h-768z" />
    <glyph glyph-name="braceleft" unicode="{" horiz-adv-x="727" 
d="M254 -135l94 444q35 147 -119 162l19 82h26q126 0 156 139l113 525q24 112 98.5 174.5t189.5 62.5h119l-18 -92h-107q-162 0 -192 -154l-113 -526q-23 -104 -98 -152q-37 -23 -74 -28q1 1 13 -5.5t29 -21t31.5 -39t20 -59t-3.5 -82.5l-94 -440q-20 -92 27.5 -142.5
t148.5 -50.5h49l-18 -92h-41q-142 0 -213.5 79t-42.5 216z" />
    <glyph glyph-name="bar" unicode="|" horiz-adv-x="583" 
d="M389 -430v1884h92v-1884h-92z" />
    <glyph glyph-name="braceright" unicode="}" horiz-adv-x="727" 
d="M-8 -430l18 92h107q162 0 192 154l113 526q20 102 98 152q37 23 74 28q-1 -1 -13 5.5t-29 21t-31.5 39t-20 59t3.5 82.5l94 440q20 92 -27.5 142.5t-148.5 50.5h-49l18 92h41q142 0 213.5 -79t42.5 -216l-94 -444q-35 -147 119 -162l-19 -82h-26q-126 0 -156 -139
l-113 -525q-24 -112 -98.5 -174.5t-189.5 -62.5h-119z" />
    <glyph glyph-name="asciitilde" unicode="~" horiz-adv-x="1064" 
d="M297 502l-72 51q25 43 64 82q86 82 192 82q54 0 100 -15t78.5 -36t63 -42t68 -36t79.5 -15q80 0 142 62q27 30 43 61l71 -51q-26 -45 -63 -82q-86 -82 -193 -82q-54 0 -100 15t-78.5 36t-63 42t-68 36t-79.5 15q-79 0 -141 -62q-27 -30 -43 -61z" />
    <glyph glyph-name="nbspace" unicode="&#xa0;" horiz-adv-x="409" 
 />
    <glyph glyph-name="exclamdown" unicode="&#xa1;" horiz-adv-x="573" 
d="M410 913q0 35 23 57.5t56 22.5q29 0 47.5 -18t18.5 -45q0 -35 -23.5 -57.5t-56.5 -22.5q-29 0 -47 18t-18 45zM133 -430l252 1085h82l-211 -1085h-123z" />
    <glyph glyph-name="cent" unicode="&#xa2;" horiz-adv-x="1054" 
d="M481 -225l47 213q-149 30 -244.5 151.5t-95.5 288.5q0 118 49 226.5t127 183t177.5 119t199.5 44.5l45 207h93l-48 -217q141 -35 228 -137q38 -44 63 -98l-84 -54q-28 60 -67 105q-100 104 -244 104q-80 0 -160 -36.5t-143 -98t-102 -151t-39 -187.5q0 -158 98.5 -262
t245.5 -104q115 0 223 69q43 28 84 72l59 -68q-46 -46 -102 -82q-130 -81 -273 -83l-45 -205h-92z" />
    <glyph glyph-name="sterling" unicode="&#xa3;" horiz-adv-x="1116" 
d="M102 0l21 102q66 0 124.5 48.5t71.5 105.5l76 358h-143l22 103h144l74 348q36 178 159 283.5t285 105.5q173 0 283 -106q48 -42 81 -107l-83 -63q-25 47 -68 86q-96 88 -219 88q-120 0 -214.5 -80.5t-121.5 -212.5l-74 -342h420l-22 -103h-420l-76 -358q-19 -76 -72 -119
q-27 -23 -53 -35h758l-21 -102h-932z" />
    <glyph glyph-name="currency" unicode="&#xa4;" horiz-adv-x="1126" 
d="M471 686q0 -101 72.5 -173.5t173.5 -72.5t173.5 72.5t72.5 173.5t-72.5 173.5t-173.5 72.5t-173.5 -72.5t-72.5 -173.5zM317 358l127 127q-65 89 -65 201t65 201l-127 127l62 61l125 -127q95 76 213 76t213 -76l125 127l61 -61l-127 -127q66 -91 66 -201t-66 -201
l127 -127l-61 -61l-125 127q-95 -76 -213 -76t-213 76l-125 -127z" />
    <glyph glyph-name="yen" unicode="&#xa5;" horiz-adv-x="1228" 
d="M248 256l20 92h338l33 154l-14 30h-318l19 93h266l-289 809h113l289 -809l632 809h133l-632 -809h266l-19 -93h-317l-27 -30l-32 -154h338l-21 -92h-338l-53 -256h-103l54 256h-338z" />
    <glyph glyph-name="brokenbar" unicode="&#xa6;" horiz-adv-x="583" 
d="M389 676v778h92v-778h-92zM389 -430v778h92v-778h-92z" />
    <glyph glyph-name="section" unicode="&#xa7;" horiz-adv-x="1064" 
d="M172 -12l84 63q28 -54 66 -92q92 -92 213 -92q114 0 193 65.5t79 159.5q0 45 -29.5 84t-77 68.5t-104.5 58.5t-114.5 61t-105 68t-77 88.5t-29.5 114.5q0 160 144 254q65 41 145 61q-28 15 -57 47q-56 60 -56 146q0 130 104.5 220.5t256.5 90.5q151 0 256 -90
q52 -46 78 -88l-88 -64q-19 36 -60 74q-80 76 -196 76q-110 0 -184 -61t-74 -150q0 -48 29.5 -88.5t77 -70t104.5 -58t114 -60t104.5 -67.5t77 -88t29.5 -115q0 -52 -16 -97.5t-42 -77t-56.5 -56.5t-61.5 -41t-56 -26t-41.5 -14t-15.5 -3q38 -26 56 -47q57 -57 57 -144
q0 -132 -110 -227.5t-265 -95.5q-166 0 -272 106q-48 46 -80 107zM721 348q68 12 129 43q129 72 129 199q0 46 -24.5 87t-70.5 74t-85.5 54.5t-97 48.5t-76.5 37q-71 -12 -129 -43q-129 -68 -129 -199q0 -46 24.5 -87t70.5 -74t85.5 -54.5t97 -48.5t76.5 -37z" />
    <glyph glyph-name="dieresis" unicode="&#xa8;" horiz-adv-x="624" 
d="M328 1292q0 35 23.5 57.5t56.5 22.5q29 0 47 -18t18 -45q0 -35 -23.5 -57.5t-56.5 -22.5q-29 0 -47 18t-18 45zM686 1292q0 35 23.5 57.5t56.5 22.5q29 0 47 -18t18 -45q0 -35 -23 -57.5t-56 -22.5q-29 0 -47.5 18t-18.5 45z" />
    <glyph glyph-name="copyright" unicode="&#xa9;" horiz-adv-x="1781" 
d="M299 717q0 151 58 287.5t156.5 235t235 156.5t287.5 58q202 0 371.5 -98t268 -267.5t98.5 -371.5t-98.5 -371.5t-268 -267.5t-371.5 -98q-151 0 -287.5 58t-235 156.5t-156.5 235t-58 287.5zM1036 72q136 0 256 49t205.5 134.5t134.5 205.5t49 256t-49 256t-134.5 205.5
t-205.5 134.5t-256 49t-256 -49t-205.5 -134.5t-134.5 -205.5t-49 -256t49 -256t134.5 -205.5t205.5 -134.5t256 -49zM1282 543l61 -62q-40 -50 -75 -78q-94 -75 -221 -75q-162 0 -270.5 110.5t-108.5 278.5t108.5 278.5t270.5 110.5q123 0 221 -78q32 -25 75 -76l-61 -61
q-23 33 -59 61q-78 62 -176 62q-124 0 -205.5 -83.5t-81.5 -213.5t81.5 -213.5t205.5 -83.5q99 0 176 61q35 27 59 62z" />
    <glyph glyph-name="ordfeminine" unicode="&#xaa;" horiz-adv-x="624" 
d="M623 850l16 82q-24 -31 -53 -51q-67 -52 -154 -52q-85 0 -132.5 40.5t-47.5 107.5q0 81 63 137t160 64l225 41l5 18q9 52 -24 93.5t-112 41.5q-54 0 -110 -33q-32 -23 -41 -32l-49 57q26 26 57 45q76 45 152 45q109 0 166.5 -69.5t39.5 -155.5l-79 -379h-82zM674 1096
l8 41l-250 -45q-46 -10 -72 -37.5t-26 -63.5q0 -33 32 -56.5t89 -23.5q76 0 139 53.5t80 131.5z" />
    <glyph glyph-name="guillemotleft" unicode="&#xab;" horiz-adv-x="901" 
d="M373 164l-166 328l305 327h123l-316 -338l160 -317h-106zM721 164l-166 328l305 327h123l-315 -338l159 -317h-106z" />
    <glyph glyph-name="logicalnot" unicode="&#xac;" horiz-adv-x="931" 
d="M236 686v92h747v-379h-102v287h-645z" />
    <glyph glyph-name="uni00AD" unicode="&#xad;" horiz-adv-x="788" 
d="M221 563l21 92h583l-20 -92h-584z" />
    <glyph glyph-name="registered" unicode="&#xae;" horiz-adv-x="1781" 
d="M299 717q0 151 58 287.5t156.5 235t235 156.5t287.5 58q202 0 371.5 -98t268 -267.5t98.5 -371.5t-98.5 -371.5t-268 -267.5t-371.5 -98q-151 0 -287.5 58t-235 156.5t-156.5 235t-58 287.5zM1036 72q136 0 256 49t205.5 134.5t134.5 205.5t49 256t-49 256t-134.5 205.5
t-205.5 134.5t-256 49t-256 -49t-205.5 -134.5t-134.5 -205.5t-49 -256t49 -256t134.5 -205.5t205.5 -134.5t256 -49zM791 338v758h266q114 0 185 -66t71 -160q0 -91 -72 -159q-44 -35 -72 -45l174 -328h-102l-164 307h-194v-307h-92zM883 737h174q164 0 164 133
q0 134 -164 134h-174v-267z" />
    <glyph glyph-name="overscore" unicode="&#xaf;" horiz-adv-x="675" 
d="M342 1321l16 82h553l-16 -82h-553z" />
    <glyph glyph-name="degree" unicode="&#xb0;" horiz-adv-x="716" 
d="M297 1188q0 113 79 189.5t187 76.5t187 -76.5t79 -189.5t-79 -189.5t-187 -76.5t-187 76.5t-79 189.5zM389 1188q0 -76 51.5 -125t122.5 -49t122.5 49t51.5 125t-51.5 125t-122.5 49t-122.5 -49t-51.5 -125z" />
    <glyph glyph-name="plusminus" unicode="&#xb1;" horiz-adv-x="1034" 
d="M614 328v399h-378v92h378v400h93v-400h378v-92h-378v-399h-93zM236 92v92h849v-92h-849z" />
    <glyph glyph-name="uni00B2" unicode="&#xb2;" horiz-adv-x="583" 
d="M348 1004h387l-18 -82h-471q7 66 38 120.5t75 90.5t95.5 67t102 57t92 52.5t67 61.5t25.5 77q0 49 -37 83t-98 34q-63 0 -125 -54q-24 -21 -43 -53l-65 39q25 42 59 76q76 76 180 76q100 0 155.5 -55.5t55.5 -133.5q0 -55 -22.5 -101t-60 -77.5t-83.5 -58t-94.5 -50.5
t-91 -47t-76.5 -54.5t-47 -67.5z" />
    <glyph glyph-name="uni00B3" unicode="&#xb3;" horiz-adv-x="604" 
d="M260 1061l74 55q12 -28 45 -61q66 -62 156 -62q71 0 116 41t45 105q0 51 -37.5 86t-111.5 35h-82l18 81h105q74 0 109.5 32.5t35.5 86.5q0 44 -36.5 74.5t-102.5 30.5q-55 0 -119 -37q-24 -15 -43 -37l-45 68q26 26 57 45q76 45 156 45q95 0 155 -54t60 -129
q0 -53 -34 -108.5t-91 -71.5q20 -12 43 -31q43 -43 43 -108q0 -98 -74.5 -167t-183.5 -69q-121 0 -199 74q-40 37 -59 76z" />
    <glyph glyph-name="acute" unicode="&#xb4;" horiz-adv-x="389" 
d="M307 1157l209 266h113l-240 -266h-82z" />
    <glyph glyph-name="uni00B5" unicode="&#xb5;" 
d="M82 -430l301 1413h92l-119 -551q-33 -146 42.5 -253t224.5 -107q125 0 221.5 90t130.5 239l125 582h92l-168 -786q-11 -50 15.5 -82.5t82.5 -32.5q13 0 33 4l12 4l-18 -94q-1 -1 -4.5 -2t-5.5 -2q-6 -2 -31 -2q-76 0 -127 44.5t-57 108.5q-35 -48 -78 -82
q-101 -81 -232 -81q-151 0 -245 90q-44 41 -70 92l-125 -592h-92z" />
    <glyph glyph-name="paragraph" unicode="&#xb6;" horiz-adv-x="1075" 
d="M594 -205v983q-130 0 -229 99t-99 229t99 229t229 99h420v-1639h-92v1544h-236v-1544h-92z" />
    <glyph glyph-name="middot" unicode="&#xb7;" horiz-adv-x="409" 
d="M322 584q29 0 47 -18.5t18 -45.5q0 -35 -23.5 -57.5t-56.5 -22.5q-29 0 -47 18.5t-18 45.5q0 35 23.5 57.5t56.5 22.5z" />
    <glyph glyph-name="cedilla" unicode="&#xb8;" horiz-adv-x="471" 
d="M-12 -336l43 55q11 -15 37 -34q52 -33 100 -33q49 0 81 27.5t32 68.5q0 32 -23 54t-55 22q-30 0 -49 -8l-17 -9l-39 52l129 182h72l-113 -160q5 0 9 2q12 4 24 4q61 0 97 -35.5t36 -95.5q0 -68 -53 -117t-135 -49q-63 0 -127 37q-27 15 -49 37z" />
    <glyph glyph-name="uni00B9" unicode="&#xb9;" horiz-adv-x="450" 
d="M420 922l127 594q-18 -18 -41 -31q-52 -31 -117 -31l17 72q67 0 126 55q32 29 52 57h71l-153 -716h-82z" />
    <glyph glyph-name="ordmasculine" unicode="&#xba;" horiz-adv-x="737" 
d="M602 1454q122 0 200.5 -77.5t78.5 -196.5q0 -154 -102.5 -257.5t-237.5 -103.5q-122 0 -200.5 78t-78.5 197q0 154 102.5 257t237.5 103zM594 1372q-103 0 -176.5 -75.5t-73.5 -198.5q0 -88 55 -142.5t150 -54.5q103 0 176.5 76t73.5 199q0 88 -55 142t-150 54z" />
    <glyph glyph-name="guillemotright" unicode="&#xbb;" horiz-adv-x="901" 
d="M496 164l315 338l-160 317h107l166 -327l-306 -328h-122zM147 164l316 338l-160 317h107l165 -327l-305 -328h-123z" />
    <glyph glyph-name="onequarter" unicode="&#xbc;" horiz-adv-x="1331" 
d="M377 717l127 594q-18 -18 -41 -31q-52 -31 -117 -31l16 72q68 0 127 55q31 27 52 58h71l-153 -717h-82zM143 0l1194 1434h103l-1194 -1434h-103zM782 174l19 82l426 461h102l-98 -461h92l-18 -82h-93l-36 -174h-82l36 174h-348zM903 256h246l74 346z" />
    <glyph glyph-name="onehalf" unicode="&#xbd;" horiz-adv-x="1402" 
d="M377 717l127 594q-18 -18 -41 -31q-52 -31 -117 -31l16 72q68 0 127 55q31 27 52 58h71l-153 -717h-82zM143 0l1194 1434h103l-1194 -1434h-103zM958 82h388l-19 -82h-471q7 66 38 120.5t75 90.5t96 67t102.5 57t92 52.5t67 61.5t25.5 77q0 49 -37 83t-98 34
q-64 0 -125 -53q-24 -21 -43 -53l-66 38q25 42 59 76q76 76 181 76q100 0 155.5 -55t55.5 -133q0 -55 -22.5 -101t-60.5 -77.5t-83.5 -58.5t-94.5 -50.5t-91.5 -47t-76.5 -55t-47 -67.5z" />
    <glyph glyph-name="threequarters" unicode="&#xbe;" horiz-adv-x="1464" 
d="M213 856l74 55q12 -28 45 -61q66 -62 155 -62q72 0 117 41.5t45 104.5q0 51 -37.5 86t-111.5 35h-82l18 82h105q74 0 109.5 32t35.5 86q0 44 -36.5 74.5t-102.5 30.5q-55 0 -119 -37q-24 -15 -43 -37l-45 68q26 26 57 45q76 45 156 45q95 0 155 -53.5t60 -128.5
q0 -53 -34 -109t-91 -72q24 -14 43 -30q43 -43 43 -109q0 -98 -74.5 -166.5t-183.5 -68.5q-122 0 -199 73q-40 37 -59 76zM254 0l1194 1434h102l-1194 -1434h-102zM883 174l18 82l426 461h103l-99 -461h92l-18 -82h-92l-37 -174h-82l37 174h-348zM1004 256h245l74 346z" />
    <glyph glyph-name="questiondown" unicode="&#xbf;" horiz-adv-x="962" 
d="M829 -135l91 -33q-39 -77 -103 -141q-142 -142 -334 -142q-184 0 -296.5 101t-112.5 239q0 83 26 148.5t69 108.5t95.5 79.5t108.5 72t104.5 74.5t87 98.5t53.5 133.5l11 51h92q2 -94 -27.5 -168.5t-77.5 -123t-106 -89.5t-117 -77.5t-107.5 -76t-79 -96.5t-30.5 -128
q0 -100 86 -172t234 -72q152 0 258 106q48 48 75 107zM664 913q0 35 23 57.5t56 22.5q29 0 47.5 -18t18.5 -45q0 -35 -23.5 -57.5t-56.5 -22.5q-29 0 -47 18t-18 45z" />
    <glyph glyph-name="Agrave" unicode="&#xc0;" horiz-adv-x="1372" 
d="M72 0l897 1434h102l291 -1434h-105l-86 420h-716l-262 -420h-121zM518 522h635l-156 768zM973 1628l-129 266h112l99 -266h-82z" />
    <glyph glyph-name="Aacute" unicode="&#xc1;" horiz-adv-x="1372" 
d="M72 0l897 1434h102l291 -1434h-105l-86 420h-716l-262 -420h-121zM518 522h635l-156 768zM1014 1628l209 266h112l-239 -266h-82z" />
    <glyph glyph-name="Acircumflex" unicode="&#xc2;" horiz-adv-x="1372" 
d="M72 0l897 1434h102l291 -1434h-105l-86 420h-716l-262 -420h-121zM518 522h635l-156 768zM768 1628l270 266h103l159 -266h-83l-132 205l-217 -205h-100z" />
    <glyph glyph-name="Atilde" unicode="&#xc3;" horiz-adv-x="1372" 
d="M72 0l897 1434h102l291 -1434h-105l-86 420h-716l-262 -420h-121zM518 522h635l-156 768zM809 1628h-82q25 119 78 177.5t125 58.5q36 0 65 -16t48 -38.5t36 -45t38 -38.5t46 -16q35 0 66.5 37t48.5 117h82q-25 -119 -78 -177.5t-125 -58.5q-36 0 -65 16t-48 38.5t-36 45
t-38 38.5t-46 16q-35 0 -67 -37t-48 -117z" />
    <glyph glyph-name="Adieresis" unicode="&#xc4;" horiz-adv-x="1372" 
d="M72 0l897 1434h102l291 -1434h-105l-86 420h-716l-262 -420h-121zM518 522h635l-156 768zM811 1753q0 35 23.5 57.5t56.5 22.5q29 0 47 -18.5t18 -45.5q0 -35 -23 -57t-56 -22q-29 0 -47.5 18t-18.5 45zM1169 1753q0 35 23.5 57.5t56.5 22.5q29 0 47.5 -18.5t18.5 -45.5
q0 -34 -23.5 -56.5t-56.5 -22.5q-29 0 -47.5 18t-18.5 45z" />
    <glyph glyph-name="Aring" unicode="&#xc5;" horiz-adv-x="1372" 
d="M72 0l897 1434h102l291 -1434h-105l-86 420h-716l-262 -420h-121zM518 522h635l-156 768zM1034 1567q-75 0 -123.5 52t-48.5 122q0 92 62.5 153.5t154.5 61.5q75 0 123.5 -52t48.5 -122q0 -92 -63 -153.5t-154 -61.5zM942 1747q0 -43 27.5 -70.5t79.5 -27.5q55 0 88.5 36
t33.5 91q0 43 -27 70.5t-79 27.5q-55 0 -89 -36t-34 -91z" />
    <glyph glyph-name="AE" unicode="&#xc6;" horiz-adv-x="1914" 
d="M-61 0l1101 1434h1076l-21 -103h-758l-114 -532h594l-21 -103h-594l-127 -594h778l-20 -102h-881l92 440h-645l-338 -440h-122zM473 543h594l168 788h-152z" />
    <glyph glyph-name="Ccedilla" unicode="&#xc7;" horiz-adv-x="1536" 
d="M694 -336l43 55q11 -15 37 -34q52 -33 100 -33q49 0 81 27.5t32 68.5q0 32 -23 54t-55 22q-30 0 -49 -8l-16 -9l-39 52l86 121q-178 8 -321 96t-222.5 234.5t-79.5 322.5q0 135 44.5 262t123 227t180 175.5t221.5 116t242 40.5q234 0 424 -158q84 -75 133 -157l-86 -56
q-47 79 -110 134q-159 135 -377 135q-132 0 -257.5 -54.5t-221.5 -148t-154.5 -227.5t-58.5 -283q0 -157 70.5 -283.5t200 -200t294.5 -73.5q194 0 364 106q77 47 136 109l57 -72q-69 -65 -145 -114q-185 -119 -385 -129l-70 -99l3 1q4 1 12 2t18 1q61 0 97 -35.5t36 -95.5
q0 -68 -53 -117t-136 -49q-63 0 -127 37q-27 15 -49 37z" />
    <glyph glyph-name="Egrave" unicode="&#xc8;" horiz-adv-x="1290" 
d="M225 0l303 1434h963l-21 -103h-860l-114 -532h696l-21 -103h-696l-127 -594h881l-21 -102h-983zM1004 1628l-130 266h113l98 -266h-81z" />
    <glyph glyph-name="Eacute" unicode="&#xc9;" horiz-adv-x="1290" 
d="M225 0l303 1434h963l-21 -103h-860l-114 -532h696l-21 -103h-696l-127 -594h881l-21 -102h-983zM985 1628l209 266h113l-240 -266h-82z" />
    <glyph glyph-name="Ecircumflex" unicode="&#xca;" horiz-adv-x="1290" 
d="M225 0l303 1434h963l-21 -103h-860l-114 -532h696l-21 -103h-696l-127 -594h881l-21 -102h-983zM768 1628l270 266h103l159 -266h-83l-132 205l-217 -205h-100z" />
    <glyph glyph-name="Edieresis" unicode="&#xcb;" horiz-adv-x="1290" 
d="M225 0l303 1434h963l-21 -103h-860l-114 -532h696l-21 -103h-696l-127 -594h881l-21 -102h-983zM809 1753q0 35 23.5 57.5t56.5 22.5q29 0 47 -18.5t18 -45.5q0 -34 -23.5 -56.5t-56.5 -22.5q-29 0 -47 18t-18 45zM1167 1753q0 35 23.5 57.5t56.5 22.5q29 0 47.5 -18.5
t18.5 -45.5q0 -34 -23.5 -56.5t-56.5 -22.5q-29 0 -47.5 18t-18.5 45z" />
    <glyph glyph-name="Igrave" unicode="&#xcc;" horiz-adv-x="552" 
d="M225 0l303 1434h103l-303 -1434h-103zM543 1628l-129 266h112l99 -266h-82z" />
    <glyph glyph-name="Iacute" unicode="&#xcd;" horiz-adv-x="552" 
d="M225 0l303 1434h103l-303 -1434h-103zM573 1628l209 266h113l-240 -266h-82z" />
    <glyph glyph-name="Icircumflex" unicode="&#xce;" horiz-adv-x="552" 
d="M225 0l303 1434h103l-303 -1434h-103zM338 1628l270 266h103l159 -266h-84l-131 205l-217 -205h-100z" />
    <glyph glyph-name="Idieresis" unicode="&#xcf;" horiz-adv-x="552" 
d="M225 0l303 1434h103l-303 -1434h-103zM379 1753q0 35 23.5 57.5t56.5 22.5q29 0 47 -18.5t18 -45.5q0 -34 -23.5 -56.5t-56.5 -22.5q-29 0 -47 18t-18 45zM737 1753q0 35 23.5 57.5t56.5 22.5q29 0 47.5 -18.5t18.5 -45.5q0 -34 -23.5 -56.5t-56.5 -22.5q-29 0 -47.5 18
t-18.5 45z" />
    <glyph glyph-name="Eth" unicode="&#xd0;" horiz-adv-x="1536" 
d="M246 0l141 666h-205l21 102h205l141 666h373q134 0 254 -47.5t208 -131t139.5 -204t51.5 -258.5q0 -163 -66 -310.5t-176.5 -253t-259.5 -167.5t-309 -62h-518zM369 102h407q187 0 347 87.5t256 245t96 349.5q0 118 -45 221t-120.5 174t-176.5 111.5t-211 40.5h-291
l-121 -563h358l-20 -102h-359z" />
    <glyph glyph-name="Ntilde" unicode="&#xd1;" horiz-adv-x="1587" 
d="M225 0l303 1434h82l688 -1252l265 1252h102l-303 -1434h-82l-688 1251l-264 -1251h-103zM915 1628h-81q25 119 77.5 177.5t124.5 58.5q36 0 65.5 -16t48.5 -38.5t36 -45t38 -38.5t46 -16q35 0 66 37t48 117h82q-25 -119 -77.5 -177.5t-124.5 -58.5q-36 0 -65.5 16
t-48.5 38.5t-36 45t-38 38.5t-46 16q-35 0 -67 -37t-48 -117z" />
    <glyph glyph-name="Ograve" unicode="&#xd2;" horiz-adv-x="1699" 
d="M1081 1454q185 0 335 -88t232.5 -237.5t82.5 -329.5q0 -168 -69 -321t-181.5 -261.5t-260.5 -172.5t-302 -64q-185 0 -335 88t-232.5 237.5t-82.5 329.5q0 168 69 321t181.5 261.5t260.5 172.5t302 64zM1065 1352q-132 0 -257.5 -54t-222 -147t-155.5 -227t-59 -283
q0 -156 70.5 -283t199.5 -201.5t293 -74.5q131 0 257.5 55t222.5 148.5t155 227t59 280.5q0 156 -70.5 283t-199.5 201.5t-293 74.5zM1075 1628l-129 266h113l98 -266h-82z" />
    <glyph glyph-name="Oacute" unicode="&#xd3;" horiz-adv-x="1699" 
d="M1081 1454q185 0 335 -88t232.5 -237.5t82.5 -329.5q0 -168 -69 -321t-181.5 -261.5t-260.5 -172.5t-302 -64q-185 0 -335 88t-232.5 237.5t-82.5 329.5q0 168 69 321t181.5 261.5t260.5 172.5t302 64zM1065 1352q-132 0 -257.5 -54t-222 -147t-155.5 -227t-59 -283
q0 -156 70.5 -283t199.5 -201.5t293 -74.5q131 0 257.5 55t222.5 148.5t155 227t59 280.5q0 156 -70.5 283t-199.5 201.5t-293 74.5zM1085 1628l209 266h113l-240 -266h-82z" />
    <glyph glyph-name="Ocircumflex" unicode="&#xd4;" horiz-adv-x="1699" 
d="M1081 1454q185 0 335 -88t232.5 -237.5t82.5 -329.5q0 -168 -69 -321t-181.5 -261.5t-260.5 -172.5t-302 -64q-185 0 -335 88t-232.5 237.5t-82.5 329.5q0 168 69 321t181.5 261.5t260.5 172.5t302 64zM1065 1352q-132 0 -257.5 -54t-222 -147t-155.5 -227t-59 -283
q0 -156 70.5 -283t199.5 -201.5t293 -74.5q131 0 257.5 55t222.5 148.5t155 227t59 280.5q0 156 -70.5 283t-199.5 201.5t-293 74.5zM860 1628l270 266h103l160 -266h-84l-131 205l-217 -205h-101z" />
    <glyph glyph-name="Otilde" unicode="&#xd5;" horiz-adv-x="1699" 
d="M1081 1454q185 0 335 -88t232.5 -237.5t82.5 -329.5q0 -168 -69 -321t-181.5 -261.5t-260.5 -172.5t-302 -64q-185 0 -335 88t-232.5 237.5t-82.5 329.5q0 168 69 321t181.5 261.5t260.5 172.5t302 64zM1065 1352q-132 0 -257.5 -54t-222 -147t-155.5 -227t-59 -283
q0 -156 70.5 -283t199.5 -201.5t293 -74.5q131 0 257.5 55t222.5 148.5t155 227t59 280.5q0 156 -70.5 283t-199.5 201.5t-293 74.5zM915 1628h-81q25 119 77.5 177.5t124.5 58.5q36 0 65.5 -16t48.5 -38.5t36 -45t38 -38.5t46 -16q35 0 66 37t48 117h82
q-25 -119 -77.5 -177.5t-124.5 -58.5q-36 0 -65.5 16t-48.5 38.5t-36 45t-38 38.5t-46 16q-35 0 -67 -37t-48 -117z" />
    <glyph glyph-name="Odieresis" unicode="&#xd6;" horiz-adv-x="1699" 
d="M1081 1454q185 0 335 -88t232.5 -237.5t82.5 -329.5q0 -168 -69 -321t-181.5 -261.5t-260.5 -172.5t-302 -64q-185 0 -335 88t-232.5 237.5t-82.5 329.5q0 168 69 321t181.5 261.5t260.5 172.5t302 64zM1065 1352q-132 0 -257.5 -54t-222 -147t-155.5 -227t-59 -283
q0 -156 70.5 -283t199.5 -201.5t293 -74.5q131 0 257.5 55t222.5 148.5t155 227t59 280.5q0 156 -70.5 283t-199.5 201.5t-293 74.5zM901 1753q0 35 23.5 57.5t56.5 22.5q29 0 47.5 -18.5t18.5 -45.5q0 -34 -23.5 -56.5t-56.5 -22.5q-29 0 -47.5 18t-18.5 45zM1260 1753
q0 35 23 57.5t56 22.5q29 0 47.5 -18.5t18.5 -45.5q0 -34 -23.5 -56.5t-56.5 -22.5q-29 0 -47 18t-18 45z" />
    <glyph glyph-name="multiply" unicode="&#xd7;" horiz-adv-x="1003" 
d="M299 348l287 287l-287 287l72 71l286 -286l287 286l72 -71l-287 -287l287 -287l-72 -72l-287 287l-286 -287z" />
    <glyph glyph-name="Oslash" unicode="&#xd8;" horiz-adv-x="1699" 
d="M231 -31l-61 82l219 195q-121 174 -121 389q0 168 69 321t181.5 261.5t260.5 172.5t302 64q280 0 463 -186l223 196l62 -82l-219 -194q121 -165 121 -389q0 -168 -69 -321t-181.5 -261.5t-260.5 -172.5t-302 -64q-138 0 -256.5 49t-206.5 137zM469 315l995 881
q-162 156 -399 156q-132 0 -257.5 -54t-222 -147t-155.5 -227t-59 -283q0 -189 98 -326zM1530 1118l-995 -880q159 -156 399 -156q131 0 257.5 55t222.5 148.5t155 227t59 280.5q0 182 -98 325z" />
    <glyph glyph-name="Ugrave" unicode="&#xd9;" horiz-adv-x="1536" 
d="M324 612l174 822h102l-176 -832q-44 -220 72.5 -370t332.5 -150q181 0 318.5 117t177.5 307l197 928h102l-199 -936q-49 -227 -222 -372.5t-390 -145.5q-172 0 -297.5 88t-176.5 233t-15 311zM1047 1628l-129 266h112l98 -266h-81z" />
    <glyph glyph-name="Uacute" unicode="&#xda;" horiz-adv-x="1536" 
d="M324 612l174 822h102l-176 -832q-44 -220 72.5 -370t332.5 -150q181 0 318.5 117t177.5 307l197 928h102l-199 -936q-49 -227 -222 -372.5t-390 -145.5q-172 0 -297.5 88t-176.5 233t-15 311zM1004 1628l208 266h113l-240 -266h-81z" />
    <glyph glyph-name="Ucircumflex" unicode="&#xdb;" horiz-adv-x="1536" 
d="M324 612l174 822h102l-176 -832q-44 -220 72.5 -370t332.5 -150q181 0 318.5 117t177.5 307l197 928h102l-199 -936q-49 -227 -222 -372.5t-390 -145.5q-172 0 -297.5 88t-176.5 233t-15 311zM809 1628l270 266h103l159 -266h-84l-131 205l-217 -205h-100z" />
    <glyph glyph-name="Udieresis" unicode="&#xdc;" horiz-adv-x="1536" 
d="M324 612l174 822h102l-176 -832q-44 -220 72.5 -370t332.5 -150q181 0 318.5 117t177.5 307l197 928h102l-199 -936q-49 -227 -222 -372.5t-390 -145.5q-172 0 -297.5 88t-176.5 233t-15 311zM840 1753q0 35 23.5 57.5t56.5 22.5q29 0 47 -18.5t18 -45.5
q0 -34 -23.5 -56.5t-56.5 -22.5q-29 0 -47 18t-18 45zM1198 1753q0 35 23.5 57.5t56.5 22.5q29 0 47 -18.5t18 -45.5q0 -35 -23 -57t-56 -22q-29 0 -47.5 18t-18.5 45z" />
    <glyph glyph-name="Yacute" unicode="&#xdd;" horiz-adv-x="1228" 
d="M532 0l107 502l-336 932h113l286 -820l635 820h133l-729 -932l-106 -502h-103zM829 1628l209 266h113l-240 -266h-82z" />
    <glyph glyph-name="Thorn" unicode="&#xde;" horiz-adv-x="1443" 
d="M420 440h604q159 0 257.5 92.5t98.5 239.5q0 118 -88 190t-227 72h-518zM225 0l303 1434h103l-64 -297h518q103 0 193 -42.5t147.5 -126t57.5 -190.5q0 -187 -135.5 -313.5t-337.5 -126.5h-611l-71 -338h-103z" />
    <glyph glyph-name="germandbls" unicode="&#xdf;" horiz-adv-x="1167" 
d="M174 0l238 1126q29 142 145.5 235t267.5 93q160 0 260.5 -96.5t100.5 -235.5q0 -181 -137 -284q-59 -47 -136 -68q61 -20 117 -63q117 -96 117 -248q0 -194 -134.5 -326.5t-324.5 -132.5h-135l20 102h123q153 0 256 102t103 249q0 117 -86.5 195.5t-210.5 78.5h-51l20 92
h51q134 0 224 88t90 205q0 107 -76 178.5t-201 71.5q-117 0 -204 -70t-109 -176l-236 -1116h-92z" />
    <glyph glyph-name="agrave" unicode="&#xe0;" horiz-adv-x="1034" 
d="M791 0l30 147q-45 -52 -90 -84q-114 -83 -254 -83q-144 0 -230.5 77t-86.5 185q0 112 80 194.5t243 110.5l437 67q18 132 -49.5 214.5t-200.5 82.5q-109 0 -199 -57q-47 -26 -78 -57l-49 67q38 38 94 70q118 70 242 70q179 0 270 -121t54 -308l-121 -575h-92zM877 401
l24 121l-393 -63q-254 -41 -254 -207q0 -76 63 -128t175 -52q136 0 246.5 94.5t138.5 234.5zM721 1157l-129 266h113l98 -266h-82z" />
    <glyph glyph-name="aacute" unicode="&#xe1;" horiz-adv-x="1034" 
d="M791 0l30 147q-45 -52 -90 -84q-114 -83 -254 -83q-144 0 -230.5 77t-86.5 185q0 112 80 194.5t243 110.5l437 67q18 132 -49.5 214.5t-200.5 82.5q-109 0 -199 -57q-47 -26 -78 -57l-49 67q38 38 94 70q118 70 242 70q179 0 270 -121t54 -308l-121 -575h-92zM877 401
l24 121l-393 -63q-254 -41 -254 -207q0 -76 63 -128t175 -52q136 0 246.5 94.5t138.5 234.5zM721 1157l209 266h112l-239 -266h-82z" />
    <glyph glyph-name="acircumflex" unicode="&#xe2;" horiz-adv-x="1034" 
d="M791 0l30 147q-45 -52 -90 -84q-114 -83 -254 -83q-144 0 -230.5 77t-86.5 185q0 112 80 194.5t243 110.5l437 67q18 132 -49.5 214.5t-200.5 82.5q-109 0 -199 -57q-47 -26 -78 -57l-49 67q38 38 94 70q118 70 242 70q179 0 270 -121t54 -308l-121 -575h-92zM877 401
l24 121l-393 -63q-254 -41 -254 -207q0 -76 63 -128t175 -52q136 0 246.5 94.5t138.5 234.5zM496 1157l270 266h102l160 -266h-84l-131 205l-217 -205h-100z" />
    <glyph glyph-name="atilde" unicode="&#xe3;" horiz-adv-x="1034" 
d="M791 0l30 147q-45 -52 -90 -84q-114 -83 -254 -83q-144 0 -230.5 77t-86.5 185q0 112 80 194.5t243 110.5l437 67q18 132 -49.5 214.5t-200.5 82.5q-109 0 -199 -57q-47 -26 -78 -57l-49 67q38 38 94 70q118 70 242 70q179 0 270 -121t54 -308l-121 -575h-92zM877 401
l24 121l-393 -63q-254 -41 -254 -207q0 -76 63 -128t175 -52q136 0 246.5 94.5t138.5 234.5zM561 1157h-82q25 119 78 177.5t125 58.5q36 0 65 -16t48 -38.5t36 -45t38 -38.5t46 -16q35 0 66.5 37t48.5 117h82q-25 -119 -78 -177.5t-125 -58.5q-36 0 -65 16t-48 38.5t-36 45
t-38 38.5t-46 16q-35 0 -67 -37t-48 -117z" />
    <glyph glyph-name="adieresis" unicode="&#xe4;" horiz-adv-x="1034" 
d="M791 0l30 147q-45 -52 -90 -84q-114 -83 -254 -83q-144 0 -230.5 77t-86.5 185q0 112 80 194.5t243 110.5l437 67q18 132 -49.5 214.5t-200.5 82.5q-109 0 -199 -57q-47 -26 -78 -57l-49 67q38 38 94 70q118 70 242 70q179 0 270 -121t54 -308l-121 -575h-92zM877 401
l24 121l-393 -63q-254 -41 -254 -207q0 -76 63 -128t175 -52q136 0 246.5 94.5t138.5 234.5zM537 1282q0 35 23 57.5t56 22.5q29 0 47.5 -18.5t18.5 -45.5q0 -34 -23.5 -56.5t-56.5 -22.5q-29 0 -47 18t-18 45zM895 1282q0 35 23.5 57.5t56.5 22.5q29 0 47 -18.5t18 -45.5
q0 -35 -23 -57t-56 -22q-29 0 -47.5 18t-18.5 45z" />
    <glyph glyph-name="aring" unicode="&#xe5;" horiz-adv-x="1034" 
d="M791 0l30 147q-45 -52 -90 -84q-114 -83 -254 -83q-144 0 -230.5 77t-86.5 185q0 112 80 194.5t243 110.5l437 67q18 132 -49.5 214.5t-200.5 82.5q-109 0 -199 -57q-47 -26 -78 -57l-49 67q38 38 94 70q118 70 242 70q179 0 270 -121t54 -308l-121 -575h-92zM877 401
l24 121l-393 -63q-254 -41 -254 -207q0 -76 63 -128t175 -52q136 0 246.5 94.5t138.5 234.5zM731 1106q-75 0 -123.5 52t-48.5 122q0 92 62.5 153.5t154.5 61.5q75 0 123.5 -52t48.5 -122q0 -92 -63 -153.5t-154 -61.5zM639 1286q0 -43 27 -70.5t79 -27.5q55 0 89 36t34 91
q0 43 -27 70.5t-79 27.5q-55 0 -89 -36t-34 -91z" />
    <glyph glyph-name="ae" unicode="&#xe6;" horiz-adv-x="1787" 
d="M492 553h419l9 33q28 142 -41 233.5t-205 91.5q-109 0 -199 -57q-47 -26 -78 -57l-49 67q38 38 94 70q118 70 242 70q127 0 212 -63t112 -169q78 108 186 170t219 62q167 0 273 -117.5t106 -308.5q0 -15 -6 -84l-4 -33h-793v-23q0 -156 92 -261t238 -105q122 0 215 71
q41 27 80 72l57 -70q-45 -48 -98 -84q-124 -81 -268 -81t-245 80t-140 216q-16 -33 -37 -66t-60.5 -76.5t-86 -76t-113.5 -55t-142 -22.5q-148 0 -234.5 75t-86.5 189q0 132 97.5 220.5t234.5 88.5zM1006 553h696v14q0 151 -82.5 247.5t-212.5 96.5q-80 0 -164.5 -46
t-151 -130t-85.5 -182zM874 393l15 68h-406q-99 0 -166 -57.5t-67 -147.5q0 -78 64 -131t175 -53q136 0 246 90.5t139 230.5z" />
    <glyph glyph-name="ccedilla" unicode="&#xe7;" horiz-adv-x="1054" 
d="M365 -336l43 55q12 -17 36 -34q52 -33 101 -33t80.5 27t31.5 69q0 32 -22.5 54t-54.5 22q-31 0 -50 -8l-16 -9l-39 52l88 125q-159 20 -262.5 146t-103.5 298q0 118 48 226t124.5 184t175 121t198.5 45q166 0 285 -111q53 -50 88 -109l-84 -51q-23 42 -69 88
q-90 90 -228 90q-79 0 -159.5 -36.5t-143.5 -98t-103 -150.5t-40 -186q0 -159 99.5 -263.5t246.5 -104.5q115 0 223 69q43 28 84 72l57 -68q-44 -41 -100 -79q-128 -83 -266 -86l-70 -97l3 1q4 1 12 2t18 1q61 0 97 -35.5t36 -95.5q0 -68 -53 -117t-135 -49q-63 0 -127 37
q-27 15 -49 37z" />
    <glyph glyph-name="egrave" unicode="&#xe8;" horiz-adv-x="1126" 
d="M944 213l55 -68q-48 -48 -104 -84q-130 -81 -272 -81q-182 0 -304 129.5t-122 320.5q0 122 47 231t122.5 183t171.5 117t193 43q174 0 286.5 -118t112.5 -308q0 -20 -6 -89l-6 -38h-831v-13q0 -156 98.5 -261t251.5 -105q115 0 223 69q43 28 84 72zM301 543h739v24
q0 153 -85 248.5t-230 95.5q-90 0 -180 -46.5t-157.5 -132.5t-86.5 -189zM748 1157l-130 266h113l98 -266h-81z" />
    <glyph glyph-name="eacute" unicode="&#xe9;" horiz-adv-x="1126" 
d="M944 213l55 -68q-48 -48 -104 -84q-130 -81 -272 -81q-182 0 -304 129.5t-122 320.5q0 122 47 231t122.5 183t171.5 117t193 43q174 0 286.5 -118t112.5 -308q0 -20 -6 -89l-6 -38h-831v-13q0 -156 98.5 -261t251.5 -105q115 0 223 69q43 28 84 72zM301 543h739v24
q0 153 -85 248.5t-230 95.5q-90 0 -180 -46.5t-157.5 -132.5t-86.5 -189zM748 1157l208 266h113l-240 -266h-81z" />
    <glyph glyph-name="ecircumflex" unicode="&#xea;" horiz-adv-x="1126" 
d="M944 213l55 -68q-48 -48 -104 -84q-130 -81 -272 -81q-182 0 -304 129.5t-122 320.5q0 122 47 231t122.5 183t171.5 117t193 43q174 0 286.5 -118t112.5 -308q0 -20 -6 -89l-6 -38h-831v-13q0 -156 98.5 -261t251.5 -105q115 0 223 69q43 28 84 72zM301 543h739v24
q0 153 -85 248.5t-230 95.5q-90 0 -180 -46.5t-157.5 -132.5t-86.5 -189zM522 1157l271 266h102l160 -266h-84l-131 205l-217 -205h-101z" />
    <glyph glyph-name="edieresis" unicode="&#xeb;" horiz-adv-x="1126" 
d="M944 213l55 -68q-48 -48 -104 -84q-130 -81 -272 -81q-182 0 -304 129.5t-122 320.5q0 122 47 231t122.5 183t171.5 117t193 43q174 0 286.5 -118t112.5 -308q0 -20 -6 -89l-6 -38h-831v-13q0 -156 98.5 -261t251.5 -105q115 0 223 69q43 28 84 72zM301 543h739v24
q0 153 -85 248.5t-230 95.5q-90 0 -180 -46.5t-157.5 -132.5t-86.5 -189zM563 1282q0 35 23.5 57.5t56.5 22.5q29 0 47.5 -18.5t18.5 -45.5q0 -34 -23.5 -56.5t-56.5 -22.5q-29 0 -47.5 18t-18.5 45zM922 1282q0 35 23 57.5t56 22.5q29 0 47.5 -18.5t18.5 -45.5
q0 -34 -23.5 -56.5t-56.5 -22.5q-29 0 -47 18t-18 45z" />
    <glyph glyph-name="igrave" unicode="&#xec;" horiz-adv-x="460" 
d="M184 0l209 983h92l-209 -983h-92zM410 1157l-129 266h112l99 -266h-82z" />
    <glyph glyph-name="iacute" unicode="&#xed;" horiz-adv-x="460" 
d="M184 0l209 983h92l-209 -983h-92zM440 1157l209 266h113l-240 -266h-82z" />
    <glyph glyph-name="icircumflex" unicode="&#xee;" horiz-adv-x="460" 
d="M184 0l209 983h92l-209 -983h-92zM195 1157l270 266h102l160 -266h-84l-131 205l-217 -205h-100z" />
    <glyph glyph-name="idieresis" unicode="&#xef;" horiz-adv-x="460" 
d="M184 0l209 983h92l-209 -983h-92zM225 1282q0 35 23.5 57.5t56.5 22.5q29 0 47.5 -18.5t18.5 -45.5q0 -34 -23.5 -56.5t-56.5 -22.5q-29 0 -47.5 18t-18.5 45zM584 1282q0 35 23.5 57.5t56.5 22.5q29 0 47 -18.5t18 -45.5q0 -34 -23.5 -56.5t-56.5 -22.5q-29 0 -47 18
t-18 45z" />
    <glyph glyph-name="eth" unicode="&#xf0;" horiz-adv-x="1198" 
d="M639 72q110 0 209.5 57.5t162 161.5t62.5 227q0 151 -98 251.5t-252 100.5q-110 0 -209.5 -57.5t-162 -161.5t-62.5 -227q0 -151 98 -251.5t252 -100.5zM631 1198l-49 62l239 112l-57 64q-74 74 -131 110l98 41q57 -47 129 -119q31 -34 41 -49l232 117l49 -61l-232 -115
q69 -91 121 -203q121 -265 121 -506q0 -127 -31 -236t-85 -188t-126.5 -135.5t-155 -84t-169.5 -27.5q-188 0 -309 125.5t-121 308.5q0 151 77.5 278.5t201.5 199t261 71.5q51 0 97.5 -9.5t80 -24.5t62 -33.5t47 -36.5t31.5 -33.5t19 -23.5l5 -9h10q-29 184 -126 366
q-55 98 -97 154z" />
    <glyph glyph-name="ntilde" unicode="&#xf1;" horiz-adv-x="1167" 
d="M174 0l209 983h92l-29 -139q37 43 89 80q117 80 247 80q80 0 150.5 -34t118.5 -94.5t68 -145.5t-1 -187l-114 -543h-93l119 551q21 98 -6 180t-98 131t-170 49q-78 0 -153 -38.5t-133.5 -117t-80.5 -182.5l-123 -573h-92zM608 1157h-82q25 119 78 177.5t125 58.5
q36 0 65.5 -16t48.5 -38.5t36 -45t38 -38.5t46 -16q35 0 66 37t48 117h82q-25 -119 -78 -177.5t-125 -58.5q-36 0 -65 16t-48 38.5t-36 45t-38 38.5t-46 16q-35 0 -67 -37t-48 -117z" />
    <glyph glyph-name="ograve" unicode="&#xf2;" 
d="M752 1004q187 0 311.5 -131.5t124.5 -321.5q0 -117 -48 -224.5t-126 -182.5t-178 -119.5t-203 -44.5q-187 0 -311.5 131.5t-124.5 320.5q0 117 48 224.5t126 183t178 120t203 44.5zM645 72q82 0 163.5 36.5t145 98t103 150.5t39.5 186q0 155 -102 261.5t-255 106.5
q-82 0 -163.5 -36.5t-144.5 -98t-102.5 -150.5t-39.5 -186q0 -155 101.5 -261.5t254.5 -106.5zM768 1157l-129 266h113l98 -266h-82z" />
    <glyph glyph-name="oacute" unicode="&#xf3;" 
d="M752 1004q187 0 311.5 -131.5t124.5 -321.5q0 -117 -48 -224.5t-126 -182.5t-178 -119.5t-203 -44.5q-187 0 -311.5 131.5t-124.5 320.5q0 117 48 224.5t126 183t178 120t203 44.5zM645 72q82 0 163.5 36.5t145 98t103 150.5t39.5 186q0 155 -102 261.5t-255 106.5
q-82 0 -163.5 -36.5t-144.5 -98t-102.5 -150.5t-39.5 -186q0 -155 101.5 -261.5t254.5 -106.5zM768 1157l209 266h113l-240 -266h-82z" />
    <glyph glyph-name="ocircumflex" unicode="&#xf4;" 
d="M752 1004q187 0 311.5 -131.5t124.5 -321.5q0 -117 -48 -224.5t-126 -182.5t-178 -119.5t-203 -44.5q-187 0 -311.5 131.5t-124.5 320.5q0 117 48 224.5t126 183t178 120t203 44.5zM645 72q82 0 163.5 36.5t145 98t103 150.5t39.5 186q0 155 -102 261.5t-255 106.5
q-82 0 -163.5 -36.5t-144.5 -98t-102.5 -150.5t-39.5 -186q0 -155 101.5 -261.5t254.5 -106.5zM543 1157l270 266h102l160 -266h-84l-131 205l-217 -205h-100z" />
    <glyph glyph-name="otilde" unicode="&#xf5;" 
d="M752 1004q187 0 311.5 -131.5t124.5 -321.5q0 -117 -48 -224.5t-126 -182.5t-178 -119.5t-203 -44.5q-187 0 -311.5 131.5t-124.5 320.5q0 117 48 224.5t126 183t178 120t203 44.5zM645 72q82 0 163.5 36.5t145 98t103 150.5t39.5 186q0 155 -102 261.5t-255 106.5
q-82 0 -163.5 -36.5t-144.5 -98t-102.5 -150.5t-39.5 -186q0 -155 101.5 -261.5t254.5 -106.5zM598 1157h-82q25 119 78 177.5t125 58.5q36 0 65 -16t48 -38.5t36 -45t38 -38.5t46 -16q35 0 66.5 37t48.5 117h82q-25 -119 -78 -177.5t-125 -58.5q-36 0 -65 16t-48 38.5
t-36 45t-38 38.5t-46 16q-35 0 -67 -37t-48 -117z" />
    <glyph glyph-name="odieresis" unicode="&#xf6;" 
d="M752 1004q187 0 311.5 -131.5t124.5 -321.5q0 -117 -48 -224.5t-126 -182.5t-178 -119.5t-203 -44.5q-187 0 -311.5 131.5t-124.5 320.5q0 117 48 224.5t126 183t178 120t203 44.5zM645 72q82 0 163.5 36.5t145 98t103 150.5t39.5 186q0 155 -102 261.5t-255 106.5
q-82 0 -163.5 -36.5t-144.5 -98t-102.5 -150.5t-39.5 -186q0 -155 101.5 -261.5t254.5 -106.5zM584 1282q0 35 23.5 57.5t56.5 22.5q29 0 47 -18.5t18 -45.5q0 -34 -23.5 -56.5t-56.5 -22.5q-29 0 -47 18t-18 45zM942 1282q0 35 23.5 57.5t56.5 22.5q29 0 47 -18.5t18 -45.5
q0 -35 -23 -57t-56 -22q-29 0 -47.5 18t-18.5 45z" />
    <glyph glyph-name="divide" unicode="&#xf7;" horiz-adv-x="1024" 
d="M567 225q0 31 20.5 51.5t51.5 20.5t51.5 -20.5t20.5 -51.5t-20.5 -51t-51.5 -20t-51.5 20t-20.5 51zM219 553v92h840v-92h-840zM567 973q0 31 20.5 51t51.5 20t51.5 -20t20.5 -51t-20.5 -51.5t-51.5 -20.5t-51.5 20.5t-20.5 51.5z" />
    <glyph glyph-name="oslash" unicode="&#xf8;" 
d="M174 -41l-51 70l151 139q-77 116 -77 264q0 117 48 224.5t126 183t178 120t203 44.5q180 0 303 -123l155 143l52 -70l-152 -139q78 -119 78 -264q0 -117 -48 -224.5t-126 -182.5t-178 -119.5t-203 -44.5q-175 0 -303 122zM1036 750l-635 -582q103 -96 244 -96
q82 0 163.5 36.5t145 98t103 150.5t39.5 186q0 116 -60 207zM348 233l635 582q-103 96 -244 96q-82 0 -163.5 -36.5t-144.5 -98t-102.5 -150.5t-39.5 -186q0 -121 59 -207z" />
    <glyph glyph-name="ugrave" unicode="&#xf9;" horiz-adv-x="1177" 
d="M262 440l115 543h92l-119 -551q-33 -149 45.5 -254.5t229.5 -105.5q78 0 152.5 38.5t133 117t80.5 182.5l123 573h92l-209 -983h-92l29 139q-38 -47 -88 -80q-110 -79 -248 -79q-79 0 -150 33.5t-119.5 94.5t-68.5 145.5t2 186.5zM778 1157l-129 266h113l98 -266h-82z
" />
    <glyph glyph-name="uacute" unicode="&#xfa;" horiz-adv-x="1177" 
d="M262 440l115 543h92l-119 -551q-33 -149 45.5 -254.5t229.5 -105.5q78 0 152.5 38.5t133 117t80.5 182.5l123 573h92l-209 -983h-92l29 139q-38 -47 -88 -80q-110 -79 -248 -79q-79 0 -150 33.5t-119.5 94.5t-68.5 145.5t2 186.5zM778 1157l209 266h113l-240 -266h-82z
" />
    <glyph glyph-name="ucircumflex" unicode="&#xfb;" horiz-adv-x="1177" 
d="M262 440l115 543h92l-119 -551q-33 -149 45.5 -254.5t229.5 -105.5q78 0 152.5 38.5t133 117t80.5 182.5l123 573h92l-209 -983h-92l29 139q-38 -47 -88 -80q-110 -79 -248 -79q-79 0 -150 33.5t-119.5 94.5t-68.5 145.5t2 186.5zM553 1157l270 266h103l159 -266h-84
l-131 205l-217 -205h-100z" />
    <glyph glyph-name="udieresis" unicode="&#xfc;" horiz-adv-x="1177" 
d="M262 440l115 543h92l-119 -551q-33 -149 45.5 -254.5t229.5 -105.5q78 0 152.5 38.5t133 117t80.5 182.5l123 573h92l-209 -983h-92l29 139q-38 -47 -88 -80q-110 -79 -248 -79q-79 0 -150 33.5t-119.5 94.5t-68.5 145.5t2 186.5zM584 1282q0 35 23.5 57.5t56.5 22.5
q29 0 47 -18.5t18 -45.5q0 -34 -23.5 -56.5t-56.5 -22.5q-29 0 -47 18t-18 45zM942 1282q0 35 23.5 57.5t56.5 22.5q29 0 47 -18.5t18 -45.5q0 -35 -23 -57t-56 -22q-29 0 -47.5 18t-18.5 45z" />
    <glyph glyph-name="yacute" unicode="&#xfd;" horiz-adv-x="983" 
d="M-16 -406l22 93l29 -13q36 -12 67 -12q60 0 106 36.5t95 117.5l115 188l-189 979h99l164 -860l532 860h106l-720 -1167q-81 -133 -151.5 -189.5t-162.5 -56.5q-36 0 -82 12zM655 1157l209 266h113l-240 -266h-82z" />
    <glyph glyph-name="thorn" unicode="&#xfe;" horiz-adv-x="1218" 
d="M92 -430l395 1864h93l-129 -607q40 46 98 88q130 89 270 89q177 0 294.5 -123t117.5 -316q0 -125 -47 -236.5t-122.5 -186.5t-170.5 -118.5t-191 -43.5q-185 0 -299 126q-50 53 -75 130l-142 -666h-92zM711 72q79 0 156.5 37t137.5 100.5t97 154.5t37 191q0 152 -95 254
t-237 102q-79 0 -156.5 -37t-137.5 -100.5t-97 -154.5t-37 -191q0 -152 95 -254t237 -102z" />
    <glyph glyph-name="ydieresis" unicode="&#xff;" horiz-adv-x="983" 
d="M-16 -406l22 93l29 -13q36 -12 67 -12q60 0 106 36.5t95 117.5l115 188l-189 979h99l164 -860l532 860h106l-720 -1167q-81 -133 -151.5 -189.5t-162.5 -56.5q-36 0 -82 12zM461 1282q0 35 23.5 57.5t56.5 22.5q29 0 47 -18.5t18 -45.5q0 -34 -23.5 -56.5t-56.5 -22.5
q-29 0 -47 18t-18 45zM819 1282q0 35 23.5 57.5t56.5 22.5q29 0 47.5 -18.5t18.5 -45.5q0 -34 -23.5 -56.5t-56.5 -22.5q-29 0 -47.5 18t-18.5 45z" />
    <glyph glyph-name="Amacron" unicode="&#x100;" horiz-adv-x="1372" 
d="M72 0l897 1434h102l291 -1434h-105l-86 420h-716l-262 -420h-121zM518 522h635l-156 768zM762 1720l16 82h553l-16 -82h-553z" />
    <glyph glyph-name="amacron" unicode="&#x101;" horiz-adv-x="1034" 
d="M791 0l30 147q-45 -52 -90 -84q-114 -83 -254 -83q-144 0 -230.5 77t-86.5 185q0 112 80 194.5t243 110.5l437 67q18 132 -49.5 214.5t-200.5 82.5q-109 0 -199 -57q-47 -26 -78 -57l-49 67q38 38 94 70q118 70 242 70q179 0 270 -121t54 -308l-121 -575h-92zM877 401
l24 121l-393 -63q-254 -41 -254 -207q0 -76 63 -128t175 -52q136 0 246.5 94.5t138.5 234.5zM520 1270l17 82h553l-17 -82h-553z" />
    <glyph glyph-name="Abreve" unicode="&#x102;" horiz-adv-x="1372" 
d="M72 0l897 1434h102l291 -1434h-105l-86 420h-716l-262 -420h-121zM518 522h635l-156 768zM809 1894h80v-24q0 -73 45.5 -116.5t128.5 -43.5q76 0 130 47t67 137h83q-24 -125 -104.5 -195.5t-185.5 -70.5q-110 0 -177 64t-67 172v30z" />
    <glyph glyph-name="abreve" unicode="&#x103;" horiz-adv-x="1034" 
d="M791 0l30 147q-45 -52 -90 -84q-114 -83 -254 -83q-144 0 -230.5 77t-86.5 185q0 112 80 194.5t243 110.5l437 67q18 132 -49.5 214.5t-200.5 82.5q-109 0 -199 -57q-47 -26 -78 -57l-49 67q38 38 94 70q118 70 242 70q179 0 270 -121t54 -308l-121 -575h-92zM877 401
l24 121l-393 -63q-254 -41 -254 -207q0 -76 63 -128t175 -52q136 0 246.5 94.5t138.5 234.5zM518 1423h80v-24q0 -73 45.5 -116.5t128.5 -43.5q76 0 130 47t67 137h84q-24 -125 -105 -195.5t-186 -70.5q-110 0 -177 64t-67 172v30z" />
    <glyph glyph-name="Aogonek" unicode="&#x104;" horiz-adv-x="1372" 
d="M72 0l897 1434h102l291 -1434h-29q-52 -40 -92 -80q-90 -90 -90 -170q0 -88 113 -88q40 0 71 8q11 2 33 11l-14 -70q-19 -8 -33 -10q-42 -11 -76 -11q-78 0 -123 43t-45 111q0 96 90 186q43 43 90 70l-86 420h-716l-262 -420h-121zM518 522h635l-156 768z" />
    <glyph glyph-name="aogonek" unicode="&#x105;" horiz-adv-x="1034" 
d="M901 -319l-14 -70q-19 -8 -33 -10q-42 -11 -76 -11q-78 0 -123 43t-45 111q0 96 90 186q42 42 91 70l30 147q-45 -52 -90 -84q-114 -83 -254 -83q-144 0 -230.5 77t-86.5 185q0 112 80 194.5t243 110.5l437 67q18 132 -49.5 214.5t-200.5 82.5q-109 0 -199 -57
q-47 -26 -78 -57l-49 67q38 38 94 70q118 70 242 70q179 0 270 -121t54 -308l-121 -575h-17q-53 -40 -92 -80q-90 -90 -90 -170q0 -88 113 -88q40 0 71 8q11 2 33 11zM877 401l24 121l-393 -63q-254 -41 -254 -207q0 -76 63 -128t175 -52q136 0 246.5 94.5t138.5 234.5z" />
    <glyph glyph-name="Cacute" unicode="&#x106;" horiz-adv-x="1536" 
d="M1436 297l57 -72q-72 -72 -158 -123q-194 -122 -415 -122q-141 0 -263 51.5t-207 139t-133.5 208t-48.5 254.5q0 135 44.5 262t123 227t180 175.5t221.5 116t242 40.5q234 0 424 -158q84 -75 133 -157l-86 -56q-47 79 -110 134q-159 135 -377 135q-132 0 -257.5 -54.5
t-221.5 -148t-154.5 -227.5t-58.5 -283q0 -157 70.5 -283.5t200 -200t294.5 -73.5q194 0 364 106q77 47 136 109zM1065 1628l209 266h112l-239 -266h-82z" />
    <glyph glyph-name="cacute" unicode="&#x107;" horiz-adv-x="1054" 
d="M942 213l57 -68q-48 -48 -104 -84q-130 -81 -272 -81q-182 0 -304 129t-122 319q0 118 48 226t124.5 184t175 121t198.5 45q166 0 285 -111q53 -50 88 -109l-84 -51q-23 42 -69 88q-90 90 -228 90q-79 0 -159.5 -36.5t-143.5 -98t-103 -150.5t-40 -186
q0 -159 99.5 -263.5t246.5 -104.5q115 0 223 69q43 28 84 72zM748 1157l208 266h113l-240 -266h-81z" />
    <glyph glyph-name="Ccircumflex" unicode="&#x108;" horiz-adv-x="1536" 
d="M1436 297l57 -72q-72 -72 -158 -123q-194 -122 -415 -122q-141 0 -263 51.5t-207 139t-133.5 208t-48.5 254.5q0 135 44.5 262t123 227t180 175.5t221.5 116t242 40.5q234 0 424 -158q84 -75 133 -157l-86 -56q-47 79 -110 134q-159 135 -377 135q-132 0 -257.5 -54.5
t-221.5 -148t-154.5 -227.5t-58.5 -283q0 -157 70.5 -283.5t200 -200t294.5 -73.5q194 0 364 106q77 47 136 109zM852 1628l270 266h103l159 -266h-84l-131 205l-217 -205h-100z" />
    <glyph glyph-name="ccircumflex" unicode="&#x109;" horiz-adv-x="1054" 
d="M942 213l57 -68q-48 -48 -104 -84q-130 -81 -272 -81q-182 0 -304 129t-122 319q0 118 48 226t124.5 184t175 121t198.5 45q166 0 285 -111q53 -50 88 -109l-84 -51q-23 42 -69 88q-90 90 -228 90q-79 0 -159.5 -36.5t-143.5 -98t-103 -150.5t-40 -186
q0 -159 99.5 -263.5t246.5 -104.5q115 0 223 69q43 28 84 72zM522 1157l271 266h102l160 -266h-84l-131 205l-217 -205h-101z" />
    <glyph glyph-name="Cdotaccent" unicode="&#x10a;" horiz-adv-x="1536" 
d="M1436 297l57 -72q-72 -72 -158 -123q-194 -122 -415 -122q-141 0 -263 51.5t-207 139t-133.5 208t-48.5 254.5q0 135 44.5 262t123 227t180 175.5t221.5 116t242 40.5q234 0 424 -158q84 -75 133 -157l-86 -56q-47 79 -110 134q-159 135 -377 135q-132 0 -257.5 -54.5
t-221.5 -148t-154.5 -227.5t-58.5 -283q0 -157 70.5 -283.5t200 -200t294.5 -73.5q194 0 364 106q77 47 136 109zM1157 1833q29 0 47.5 -18.5t18.5 -45.5q0 -34 -23.5 -56.5t-56.5 -22.5q-29 0 -47.5 18t-18.5 45q0 35 23.5 57.5t56.5 22.5z" />
    <glyph glyph-name="cdotaccent" unicode="&#x10b;" horiz-adv-x="1054" 
d="M942 213l57 -68q-48 -48 -104 -84q-130 -81 -272 -81q-182 0 -304 129t-122 319q0 118 48 226t124.5 184t175 121t198.5 45q166 0 285 -111q53 -50 88 -109l-84 -51q-23 42 -69 88q-90 90 -228 90q-79 0 -159.5 -36.5t-143.5 -98t-103 -150.5t-40 -186
q0 -159 99.5 -263.5t246.5 -104.5q115 0 223 69q43 28 84 72zM819 1362q29 0 47.5 -18.5t18.5 -45.5q0 -34 -23.5 -56.5t-56.5 -22.5q-29 0 -47.5 18t-18.5 45q0 35 23.5 57.5t56.5 22.5z" />
    <glyph glyph-name="Ccaron" unicode="&#x10c;" horiz-adv-x="1536" 
d="M1436 297l57 -72q-72 -72 -158 -123q-194 -122 -415 -122q-141 0 -263 51.5t-207 139t-133.5 208t-48.5 254.5q0 135 44.5 262t123 227t180 175.5t221.5 116t242 40.5q234 0 424 -158q84 -75 133 -157l-86 -56q-47 79 -110 134q-159 135 -377 135q-132 0 -257.5 -54.5
t-221.5 -148t-154.5 -227.5t-58.5 -283q0 -157 70.5 -283.5t200 -200t294.5 -73.5q194 0 364 106q77 47 136 109zM1055 1628l-160 266h84l131 -204l217 204h100l-270 -266h-102z" />
    <glyph glyph-name="ccaron" unicode="&#x10d;" horiz-adv-x="1054" 
d="M942 213l57 -68q-48 -48 -104 -84q-130 -81 -272 -81q-182 0 -304 129t-122 319q0 118 48 226t124.5 184t175 121t198.5 45q166 0 285 -111q53 -50 88 -109l-84 -51q-23 42 -69 88q-90 90 -228 90q-79 0 -159.5 -36.5t-143.5 -98t-103 -150.5t-40 -186
q0 -159 99.5 -263.5t246.5 -104.5q115 0 223 69q43 28 84 72zM737 1157l-159 266h84l131 -204l217 204h100l-270 -266h-103z" />
    <glyph glyph-name="Dcaron" unicode="&#x10e;" horiz-adv-x="1515" 
d="M348 102h408q140 0 268 52t222.5 141t151 217t56.5 272q0 118 -45 221t-120.5 174t-176.5 111.5t-211 40.5h-291zM225 0l303 1434h373q134 0 254 -47.5t208 -131t139.5 -204t51.5 -258.5q0 -163 -66 -310.5t-176.5 -253t-259.5 -167.5t-309 -62h-518zM1004 1628l-160 266
h84l131 -204l217 204h100l-270 -266h-102z" />
    <glyph glyph-name="dcaron" unicode="&#x10f;" horiz-adv-x="1300" 
d="M940 0l33 156q-37 -48 -96 -88q-118 -88 -271 -88q-177 0 -294 122.5t-117 315.5q0 125 47 236.5t122 187t170 119t191 43.5q179 0 297 -130q49 -55 76 -126l145 686h92l-303 -1434h-92zM618 72q79 0 156.5 37t138 100.5t97.5 154.5t37 191q0 152 -95 254t-237 102
q-79 0 -156.5 -37t-137.5 -100.5t-97 -154.5t-37 -191q0 -152 94.5 -254t236.5 -102zM1423 1157l150 277h102l-180 -277h-72z" />
    <glyph glyph-name="Dcroat" unicode="&#x110;" horiz-adv-x="1536" 
d="M246 0l141 666h-205l21 102h205l141 666h373q134 0 254 -47.5t208 -131t139.5 -204t51.5 -258.5q0 -163 -66 -310.5t-176.5 -253t-259.5 -167.5t-309 -62h-518zM369 102h407q187 0 347 87.5t256 245t96 349.5q0 118 -45 221t-120.5 174t-176.5 111.5t-211 40.5h-291
l-121 -563h358l-20 -102h-359z" />
    <glyph glyph-name="dslash" unicode="&#x111;" horiz-adv-x="1218" 
d="M944 0l33 156q-39 -48 -96 -88q-118 -88 -269 -88q-179 0 -298 123t-119 307q0 115 46.5 219.5t121.5 176.5t170 114.5t190 42.5q186 0 299 -129q51 -58 72 -127l90 430h-297l20 92h297l43 205h92l-43 -205h164l-20 -92h-164l-240 -1137h-92zM618 72q79 0 156.5 34
t138 92.5t97.5 143t37 178.5q0 147 -95 248.5t-237 101.5q-79 0 -156.5 -34.5t-137.5 -93t-97 -143t-37 -177.5q0 -147 94.5 -248.5t236.5 -101.5z" />
    <glyph glyph-name="Emacron" unicode="&#x112;" horiz-adv-x="1290" 
d="M225 0l303 1434h963l-21 -103h-860l-114 -532h696l-21 -103h-696l-127 -594h881l-21 -102h-983zM774 1720l17 82h552l-16 -82h-553z" />
    <glyph glyph-name="emacron" unicode="&#x113;" horiz-adv-x="1126" 
d="M944 213l55 -68q-48 -48 -104 -84q-130 -81 -272 -81q-182 0 -304 129.5t-122 320.5q0 122 47 231t122.5 183t171.5 117t193 43q174 0 286.5 -118t112.5 -308q0 -20 -6 -89l-6 -38h-831v-13q0 -156 98.5 -261t251.5 -105q115 0 223 69q43 28 84 72zM301 543h739v24
q0 153 -85 248.5t-230 95.5q-90 0 -180 -46.5t-157.5 -132.5t-86.5 -189zM547 1270l16 82h553l-16 -82h-553z" />
    <glyph glyph-name="Ebreve" unicode="&#x114;" horiz-adv-x="1290" 
d="M225 0l303 1434h963l-21 -103h-860l-114 -532h696l-21 -103h-696l-127 -594h881l-21 -102h-983zM801 1894h80v-24q0 -73 45.5 -116.5t128.5 -43.5q76 0 129.5 47t66.5 137h84q-24 -125 -105 -195.5t-186 -70.5q-110 0 -176.5 64t-66.5 172v30z" />
    <glyph glyph-name="ebreve" unicode="&#x115;" horiz-adv-x="1126" 
d="M944 213l55 -68q-48 -48 -104 -84q-130 -81 -272 -81q-182 0 -304 129.5t-122 320.5q0 122 47 231t122.5 183t171.5 117t193 43q174 0 286.5 -118t112.5 -308q0 -20 -6 -89l-6 -38h-831v-13q0 -156 98.5 -261t251.5 -105q115 0 223 69q43 28 84 72zM301 543h739v24
q0 153 -85 248.5t-230 95.5q-90 0 -180 -46.5t-157.5 -132.5t-86.5 -189zM545 1423h80v-24q0 -73 45.5 -116.5t128.5 -43.5q76 0 129.5 47t66.5 137h84q-24 -125 -105 -195.5t-186 -70.5q-110 0 -176.5 64t-66.5 172v30z" />
    <glyph glyph-name="Edotaccent" unicode="&#x116;" horiz-adv-x="1290" 
d="M225 0l303 1434h963l-21 -103h-860l-114 -532h696l-21 -103h-696l-127 -594h881l-21 -102h-983zM1063 1833q29 0 47 -18.5t18 -45.5q0 -35 -23 -57t-56 -22q-29 0 -47.5 18t-18.5 45q0 35 23.5 57.5t56.5 22.5z" />
    <glyph glyph-name="edotaccent" unicode="&#x117;" horiz-adv-x="1126" 
d="M944 213l55 -68q-48 -48 -104 -84q-130 -81 -272 -81q-182 0 -304 129.5t-122 320.5q0 122 47 231t122.5 183t171.5 117t193 43q174 0 286.5 -118t112.5 -308q0 -20 -6 -89l-6 -38h-831v-13q0 -156 98.5 -261t251.5 -105q115 0 223 69q43 28 84 72zM301 543h739v24
q0 153 -85 248.5t-230 95.5q-90 0 -180 -46.5t-157.5 -132.5t-86.5 -189zM809 1362q29 0 47 -18.5t18 -45.5q0 -35 -23 -57t-56 -22q-29 0 -47.5 18t-18.5 45q0 35 23.5 57.5t56.5 22.5z" />
    <glyph glyph-name="Eogonek" unicode="&#x118;" horiz-adv-x="1290" 
d="M225 0l303 1434h963l-21 -103h-860l-114 -532h696l-21 -103h-696l-127 -594h881l-21 -102q-53 -40 -92 -80q-90 -90 -90 -170q0 -88 113 -88q40 0 71 8q11 2 33 11l-14 -70q-19 -8 -33 -10q-42 -11 -76 -11q-78 0 -123 43t-45 111q0 96 90 186q42 42 91 70h-908z" />
    <glyph glyph-name="eogonek" unicode="&#x119;" horiz-adv-x="1126" 
d="M713 -319l-15 -70q-20 -8 -32 -10q-42 -11 -76 -11q-78 0 -123 43t-45 111q0 53 29.5 105.5t60 82t61.5 50.5q-165 17 -270.5 143.5t-105.5 304.5q0 122 47 231t122.5 183t171.5 117t193 43q174 0 286.5 -118t112.5 -308q0 -20 -6 -89l-6 -38h-831v-13q0 -156 98.5 -261
t251.5 -105q115 0 223 69q43 28 84 72l55 -68q-41 -41 -96 -77q-131 -81 -252 -88q-24 -19 -46 -40t-49 -52.5t-43.5 -67.5t-16.5 -70q0 -88 112 -88q41 0 72 8q11 2 33 11zM301 543h739v24q0 153 -85 248.5t-230 95.5q-90 0 -180 -46.5t-157.5 -132.5t-86.5 -189z" />
    <glyph glyph-name="Ecaron" unicode="&#x11a;" horiz-adv-x="1290" 
d="M225 0l303 1434h963l-21 -103h-860l-114 -532h696l-21 -103h-696l-127 -594h881l-21 -102h-983zM981 1628l-160 266h84l131 -204l217 204h101l-271 -266h-102z" />
    <glyph glyph-name="ecaron" unicode="&#x11b;" horiz-adv-x="1126" 
d="M944 213l55 -68q-48 -48 -104 -84q-130 -81 -272 -81q-182 0 -304 129.5t-122 320.5q0 122 47 231t122.5 183t171.5 117t193 43q174 0 286.5 -118t112.5 -308q0 -20 -6 -89l-6 -38h-831v-13q0 -156 98.5 -261t251.5 -105q115 0 223 69q43 28 84 72zM301 543h739v24
q0 153 -85 248.5t-230 95.5q-90 0 -180 -46.5t-157.5 -132.5t-86.5 -189zM737 1157l-159 266h84l131 -204l217 204h100l-270 -266h-103z" />
    <glyph glyph-name="Gcircumflex" unicode="&#x11c;" horiz-adv-x="1617" 
d="M1409 270l74 344h-369l23 103h471l-107 -504q-65 -59 -162 -117q-204 -116 -419 -116q-141 0 -263 51.5t-207 139t-133.5 208t-48.5 254.5q0 135 44.5 262t123 227t180 175.5t221.5 116t242 40.5q234 0 424 -158q84 -75 133 -157l-86 -56q-47 79 -110 134
q-159 135 -377 135q-132 0 -257.5 -54.5t-221.5 -148t-154.5 -227.5t-58.5 -283q0 -157 70.5 -283.5t200 -200t294.5 -73.5q174 0 342 94q73 42 131 94zM860 1628l270 266h103l160 -266h-84l-131 205l-217 -205h-101z" />
    <glyph glyph-name="gcircumflex" unicode="&#x11d;" 
d="M104 -184l84 53q23 -55 66 -105q89 -104 246 -104q146 0 267 102.5t153 255.5l36 183q-37 -44 -96 -90q-122 -91 -266 -91q-171 0 -283 119.5t-112 300.5q0 121 44 228t116 179.5t164 114.5t188 42q179 0 290 -127q50 -59 72 -125l51 231h93l-209 -981
q-24 -121 -102 -220.5t-187.5 -155.5t-226.5 -56q-179 0 -302 123q-51 51 -86 123zM705 911q-78 0 -152.5 -33.5t-133 -92t-94.5 -145t-36 -185.5q0 -148 91.5 -245t231.5 -97q78 0 152.5 33.5t133 92t94.5 145t36 185.5q0 148 -91.5 245t-231.5 97zM563 1157l271 266h102
l160 -266h-84l-131 205l-217 -205h-101z" />
    <glyph glyph-name="Gbreve" unicode="&#x11e;" horiz-adv-x="1617" 
d="M1409 270l74 344h-369l23 103h471l-107 -504q-65 -59 -162 -117q-204 -116 -419 -116q-141 0 -263 51.5t-207 139t-133.5 208t-48.5 254.5q0 135 44.5 262t123 227t180 175.5t221.5 116t242 40.5q234 0 424 -158q84 -75 133 -157l-86 -56q-47 79 -110 134
q-159 135 -377 135q-132 0 -257.5 -54.5t-221.5 -148t-154.5 -227.5t-58.5 -283q0 -157 70.5 -283.5t200 -200t294.5 -73.5q174 0 342 94q73 42 131 94zM883 1894h80v-24q0 -73 45.5 -116.5t128.5 -43.5q76 0 129.5 47t66.5 137h84q-24 -125 -105 -195.5t-186 -70.5
q-110 0 -176.5 64t-66.5 172v30z" />
    <glyph glyph-name="gbreve" unicode="&#x11f;" 
d="M104 -184l84 53q23 -55 66 -105q89 -104 246 -104q146 0 267 102.5t153 255.5l36 183q-37 -44 -96 -90q-122 -91 -266 -91q-171 0 -283 119.5t-112 300.5q0 121 44 228t116 179.5t164 114.5t188 42q179 0 290 -127q50 -59 72 -125l51 231h93l-209 -981
q-24 -121 -102 -220.5t-187.5 -155.5t-226.5 -56q-179 0 -302 123q-51 51 -86 123zM705 911q-78 0 -152.5 -33.5t-133 -92t-94.5 -145t-36 -185.5q0 -148 91.5 -245t231.5 -97q78 0 152.5 33.5t133 92t94.5 145t36 185.5q0 148 -91.5 245t-231.5 97zM586 1423h80v-24
q0 -73 45.5 -116.5t128.5 -43.5q76 0 129.5 47t66.5 137h84q-24 -125 -105 -195.5t-186 -70.5q-110 0 -176.5 64t-66.5 172v30z" />
    <glyph glyph-name="Gdotaccent" unicode="&#x120;" horiz-adv-x="1617" 
d="M1409 270l74 344h-369l23 103h471l-107 -504q-65 -59 -162 -117q-204 -116 -419 -116q-141 0 -263 51.5t-207 139t-133.5 208t-48.5 254.5q0 135 44.5 262t123 227t180 175.5t221.5 116t242 40.5q234 0 424 -158q84 -75 133 -157l-86 -56q-47 79 -110 134
q-159 135 -377 135q-132 0 -257.5 -54.5t-221.5 -148t-154.5 -227.5t-58.5 -283q0 -157 70.5 -283.5t200 -200t294.5 -73.5q174 0 342 94q73 42 131 94zM1157 1833q29 0 47.5 -18.5t18.5 -45.5q0 -34 -23.5 -56.5t-56.5 -22.5q-29 0 -47.5 18t-18.5 45q0 35 23.5 57.5
t56.5 22.5z" />
    <glyph glyph-name="gdotaccent" unicode="&#x121;" 
d="M104 -184l84 53q23 -55 66 -105q89 -104 246 -104q146 0 267 102.5t153 255.5l36 183q-37 -44 -96 -90q-122 -91 -266 -91q-171 0 -283 119.5t-112 300.5q0 121 44 228t116 179.5t164 114.5t188 42q179 0 290 -127q50 -59 72 -125l51 231h93l-209 -981
q-24 -121 -102 -220.5t-187.5 -155.5t-226.5 -56q-179 0 -302 123q-51 51 -86 123zM705 911q-78 0 -152.5 -33.5t-133 -92t-94.5 -145t-36 -185.5q0 -148 91.5 -245t231.5 -97q78 0 152.5 33.5t133 92t94.5 145t36 185.5q0 148 -91.5 245t-231.5 97zM860 1362
q29 0 47.5 -18.5t18.5 -45.5q0 -34 -23.5 -56.5t-56.5 -22.5q-29 0 -47.5 18t-18.5 45q0 35 23.5 57.5t56.5 22.5z" />
    <glyph glyph-name="Gcommaaccent" unicode="&#x122;" horiz-adv-x="1617" 
d="M1409 270l74 344h-369l23 103h471l-107 -504q-65 -59 -162 -117q-204 -116 -419 -116q-141 0 -263 51.5t-207 139t-133.5 208t-48.5 254.5q0 135 44.5 262t123 227t180 175.5t221.5 116t242 40.5q234 0 424 -158q84 -75 133 -157l-86 -56q-47 79 -110 134
q-159 135 -377 135q-132 0 -257.5 -54.5t-221.5 -148t-154.5 -227.5t-58.5 -283q0 -157 70.5 -283.5t200 -200t294.5 -73.5q174 0 342 94q73 42 131 94zM707 -440l147 276h102l-180 -276h-69z" />
    <glyph glyph-name="gcommaaccent" unicode="&#x123;" 
d="M778 1157l180 277h72l-149 -277h-103zM104 -184l84 53q23 -55 66 -105q89 -104 246 -104q146 0 267 102.5t153 255.5l36 183q-37 -44 -96 -90q-122 -91 -266 -91q-171 0 -283 119.5t-112 300.5q0 121 44 228t116 179.5t164 114.5t188 42q179 0 290 -127q50 -59 72 -125
l51 231h93l-209 -981q-24 -121 -102 -220.5t-187.5 -155.5t-226.5 -56q-179 0 -302 123q-51 51 -86 123zM705 911q-78 0 -152.5 -33.5t-133 -92t-94.5 -145t-36 -185.5q0 -148 91.5 -245t231.5 -97q78 0 152.5 33.5t133 92t94.5 145t36 185.5q0 148 -91.5 245t-231.5 97z
" />
    <glyph glyph-name="Hcircumflex" unicode="&#x124;" horiz-adv-x="1525" 
d="M225 0l303 1434h103l-139 -656h870l139 656h103l-304 -1434h-102l143 676h-870l-143 -676h-103zM829 1628l271 266h102l160 -266h-84l-131 205l-217 -205h-101z" />
    <glyph glyph-name="hcircumflex" unicode="&#x125;" horiz-adv-x="1177" 
d="M184 0l303 1434h93l-125 -590q38 45 88 80q117 80 250 80q80 0 150.5 -34t118 -94.5t67.5 -145.5t-1 -187l-114 -543h-92l118 551q21 98 -6 180t-98 131t-170 49q-78 0 -153 -38.5t-133.5 -117t-80.5 -182.5l-123 -573h-92zM604 1628l270 266h103l160 -266h-84l-131 205
l-217 -205h-101z" />
    <glyph glyph-name="Hbar" unicode="&#x126;" horiz-adv-x="1546" 
d="M256 0l219 1034h-215l19 92h215l65 308h103l-66 -308h829l66 308h102l-65 -308h215l-19 -92h-215l-219 -1034h-102l131 625h-830l-131 -625h-102zM512 727h829l66 307h-829z" />
    <glyph glyph-name="hbar" unicode="&#x127;" horiz-adv-x="1198" 
d="M205 0l239 1137h-184l21 92h184l43 205h92l-43 -205h307l-20 -92h-307l-62 -293q38 45 88 80q117 80 250 80q80 0 150.5 -34t118.5 -94.5t68 -145.5t-1 -187l-115 -543h-92l119 551q33 149 -45.5 254.5t-229.5 105.5q-78 0 -152.5 -38.5t-133 -117t-80.5 -182.5
l-123 -573h-92z" />
    <glyph glyph-name="Imacron" unicode="&#x12a;" horiz-adv-x="552" 
d="M225 0l303 1434h103l-303 -1434h-103zM342 1720l16 82h553l-16 -82h-553z" />
    <glyph glyph-name="imacron" unicode="&#x12b;" horiz-adv-x="460" 
d="M184 0l209 983h92l-209 -983h-92zM209 1270l16 82h553l-16 -82h-553z" />
    <glyph glyph-name="Ibreve" unicode="&#x12c;" horiz-adv-x="552" 
d="M225 0l303 1434h103l-303 -1434h-103zM371 1894h80v-24q0 -73 45.5 -116.5t128.5 -43.5q76 0 129.5 47t66.5 137h84q-24 -125 -105 -195.5t-186 -70.5q-110 0 -176.5 64t-66.5 172v30z" />
    <glyph glyph-name="ibreve" unicode="&#x12d;" horiz-adv-x="460" 
d="M184 0l209 983h92l-209 -983h-92zM217 1423h80v-24q0 -73 45.5 -116.5t128.5 -43.5q76 0 130 47t67 137h84q-24 -125 -105 -195.5t-186 -70.5q-110 0 -177 64t-67 172v30z" />
    <glyph glyph-name="Iogonek" unicode="&#x12e;" horiz-adv-x="552" 
d="M336 -319l-14 -70q-19 -8 -33 -10q-42 -11 -76 -11q-78 0 -123 43t-45 111q0 96 90 186q43 43 90 70l303 1434h103l-303 -1434h-27q-53 -40 -92 -80q-90 -90 -90 -170q0 -88 112 -88q41 0 72 8q11 2 33 11z" />
    <glyph glyph-name="iogonek" unicode="&#x12f;" horiz-adv-x="460" 
d="M295 -319l-14 -70q-19 -8 -33 -10q-42 -11 -76 -11q-78 0 -123 43t-45 111q0 96 90 186q43 43 90 70l209 983h92l-209 -983h-16q-53 -40 -92 -80q-90 -90 -90 -170q0 -88 112 -88q41 0 72 8q11 2 33 11zM436 1323q0 35 23.5 57.5t56.5 22.5q29 0 47.5 -18.5t18.5 -45.5
q0 -34 -23.5 -56.5t-56.5 -22.5q-29 0 -47.5 18t-18.5 45z" />
    <glyph glyph-name="Idot" unicode="&#x130;" horiz-adv-x="552" 
d="M225 0l303 1434h103l-303 -1434h-103zM629 1833q29 0 47 -18.5t18 -45.5q0 -34 -23.5 -56.5t-56.5 -22.5q-29 0 -47 18t-18 45q0 35 23.5 57.5t56.5 22.5z" />
    <glyph glyph-name="dotlessi" unicode="&#x131;" horiz-adv-x="460" 
d="M184 0l209 983h92l-209 -983h-92z" />
    <glyph glyph-name="uni0132" unicode="&#x132;" horiz-adv-x="1433" 
d="M225 0l303 1434h103l-303 -1434h-103zM496 166l82 67q22 -40 63 -75q92 -76 217 -76q130 0 225.5 81.5t124.5 221.5l222 1049h102l-223 -1059q-36 -177 -168 -286t-301 -109q-154 0 -262 92q-44 36 -82 94z" />
    <glyph glyph-name="uni0133" unicode="&#x133;" horiz-adv-x="911" 
d="M516 1403q29 0 47.5 -18.5t18.5 -45.5q0 -34 -23.5 -56.5t-56.5 -22.5q-29 0 -47.5 18t-18.5 45q0 35 23.5 57.5t56.5 22.5zM184 0l209 983h92l-209 -983h-92zM274 -383l21 90q11 -11 37 -22q38 -23 96 -23q62 0 106.5 44t61.5 122l248 1155h92l-250 -1165
q-25 -116 -97 -182t-171 -66q-66 0 -105 22q-24 10 -39 25zM887 1323q0 35 23.5 57.5t56.5 22.5q29 0 47 -18.5t18 -45.5q0 -34 -23.5 -56.5t-56.5 -22.5q-29 0 -47 18t-18 45z" />
    <glyph glyph-name="Jcircumflex" unicode="&#x134;" horiz-adv-x="993" 
d="M47 166l82 67q21 -39 64 -75q92 -76 217 -76q130 0 225.5 81.5t124.5 221.5l221 1049h102l-223 -1059q-36 -177 -168 -286t-301 -109q-154 0 -262 92q-44 36 -82 94zM778 1628l271 266h102l160 -266h-84l-131 205l-217 -205h-101z" />
    <glyph glyph-name="jcircumflex" unicode="&#x135;" horiz-adv-x="460" 
d="M-176 -383l20 90q11 -11 37 -22q38 -23 96 -23q62 0 106.5 44t61.5 122l248 1155h92l-249 -1165q-25 -116 -97.5 -182t-171.5 -66q-65 0 -104 22q-25 11 -39 25zM184 1157l271 266h102l160 -266h-84l-131 205l-217 -205h-101z" />
    <glyph glyph-name="Kcommaaccent" unicode="&#x136;" horiz-adv-x="1320" 
d="M225 0l303 1434h103l-187 -881l986 881h137l-670 -598l414 -836h-113l-379 766l-405 -363l-86 -403h-103zM543 -440l147 276h103l-181 -276h-69z" />
    <glyph glyph-name="kcommaaccent" unicode="&#x137;" horiz-adv-x="1013" 
d="M184 0l303 1434h93l-220 -1035l668 584h127l-457 -401l295 -582h-104l-264 518l-293 -256l-56 -262h-92zM379 -440l147 276h103l-180 -276h-70z" />
    <glyph glyph-name="Lacute" unicode="&#x139;" horiz-adv-x="1116" 
d="M225 0l303 1434h103l-283 -1332h768l-20 -102h-871zM584 1628l209 266h112l-239 -266h-82z" />
    <glyph glyph-name="lacute" unicode="&#x13a;" horiz-adv-x="460" 
d="M184 0l303 1434h93l-304 -1434h-92zM522 1628l209 266h113l-240 -266h-82z" />
    <glyph glyph-name="Lcommaaccent" unicode="&#x13b;" horiz-adv-x="1116" 
d="M225 0l303 1434h103l-283 -1332h768l-20 -102h-871zM479 -440l148 276h102l-180 -276h-70z" />
    <glyph glyph-name="lcommaaccent" unicode="&#x13c;" horiz-adv-x="460" 
d="M184 0l303 1434h93l-304 -1434h-92zM-10 -440l147 276h103l-181 -276h-69z" />
    <glyph glyph-name="Lcaron" unicode="&#x13d;" horiz-adv-x="1116" 
d="M225 0l303 1434h103l-283 -1332h768l-20 -102h-871zM840 1157l147 277h103l-181 -277h-69z" />
    <glyph glyph-name="lcaron" unicode="&#x13e;" horiz-adv-x="552" 
d="M184 0l303 1434h93l-304 -1434h-92zM666 1157l149 277h103l-181 -277h-71z" />
    <glyph glyph-name="Ldot" unicode="&#x13f;" horiz-adv-x="1116" 
d="M225 0l303 1434h103l-283 -1332h768l-20 -102h-871zM852 829q29 0 47.5 -18t18.5 -45q0 -35 -23.5 -57.5t-56.5 -22.5q-29 0 -47.5 18.5t-18.5 45.5q0 34 23.5 56.5t56.5 22.5z" />
    <glyph glyph-name="ldot" unicode="&#x140;" horiz-adv-x="665" 
d="M184 0l303 1434h93l-304 -1434h-92zM707 788q29 0 47 -18t18 -45q0 -35 -23.5 -57.5t-56.5 -22.5q-29 0 -47 18.5t-18 45.5q0 34 23.5 56.5t56.5 22.5z" />
    <glyph glyph-name="Lslash" unicode="&#x141;" 
d="M297 0l131 606l-276 -143l-35 90l334 174l149 707h102l-137 -646l359 189l34 -94l-413 -215l-125 -566h768l-21 -102h-870z" />
    <glyph glyph-name="lslash" unicode="&#x142;" horiz-adv-x="686" 
d="M297 0l147 678l-301 -164l-28 80l346 184l139 656h92l-127 -605l301 164l27 -80l-346 -184l-158 -729h-92z" />
    <glyph glyph-name="Nacute" unicode="&#x143;" horiz-adv-x="1587" 
d="M225 0l303 1434h82l688 -1252l265 1252h102l-303 -1434h-82l-688 1251l-264 -1251h-103zM1075 1628l209 266h113l-240 -266h-82z" />
    <glyph glyph-name="nacute" unicode="&#x144;" horiz-adv-x="1167" 
d="M174 0l209 983h92l-29 -139q37 43 89 80q117 80 247 80q80 0 150.5 -34t118.5 -94.5t68 -145.5t-1 -187l-114 -543h-93l119 551q21 98 -6 180t-98 131t-170 49q-78 0 -153 -38.5t-133.5 -117t-80.5 -182.5l-123 -573h-92zM778 1157l209 266h113l-240 -266h-82z" />
    <glyph glyph-name="Ncommaaccent" unicode="&#x145;" horiz-adv-x="1587" 
d="M225 0l303 1434h82l688 -1252l265 1252h102l-303 -1434h-82l-688 1251l-264 -1251h-103zM616 -440l148 276h102l-180 -276h-70z" />
    <glyph glyph-name="ncommaaccent" unicode="&#x146;" horiz-adv-x="1167" 
d="M174 0l209 983h92l-29 -139q37 43 89 80q117 80 247 80q80 0 150.5 -34t118.5 -94.5t68 -145.5t-1 -187l-114 -543h-93l119 551q21 98 -6 180t-98 131t-170 49q-78 0 -153 -38.5t-133.5 -117t-80.5 -182.5l-123 -573h-92zM399 -440l148 276h102l-180 -276h-70z" />
    <glyph glyph-name="Ncaron" unicode="&#x147;" horiz-adv-x="1587" 
d="M225 0l303 1434h82l688 -1252l265 1252h102l-303 -1434h-82l-688 1251l-264 -1251h-103zM1055 1628l-160 266h84l131 -204l217 204h100l-270 -266h-102z" />
    <glyph glyph-name="ncaron" unicode="&#x148;" horiz-adv-x="1167" 
d="M174 0l209 983h92l-29 -139q37 43 89 80q117 80 247 80q80 0 150.5 -34t118.5 -94.5t68 -145.5t-1 -187l-114 -543h-93l119 551q21 98 -6 180t-98 131t-170 49q-78 0 -153 -38.5t-133.5 -117t-80.5 -182.5l-123 -573h-92zM768 1157l-160 266h84l131 -204l217 204h101
l-271 -266h-102z" />
    <glyph glyph-name="napostrophe" unicode="&#x149;" horiz-adv-x="1167" 
d="M174 0l209 983h92l-29 -139q37 43 89 80q117 80 247 80q80 0 150.5 -34t118.5 -94.5t68 -145.5t-1 -187l-114 -543h-93l119 551q21 98 -6 180t-98 131t-170 49q-78 0 -153 -38.5t-133.5 -117t-80.5 -182.5l-123 -573h-92zM287 1116l149 277h103l-181 -277h-71z" />
    <glyph glyph-name="Eng" unicode="&#x14a;" horiz-adv-x="1587" 
d="M225 0l303 1434h82l688 -1252l265 1252h102l-311 -1477q-37 -171 -168 -279t-299 -108q-156 0 -266 94q-50 41 -80 96l84 64q23 -42 63 -76q92 -76 215 -76q128 0 220 79.5t128 217.5l15 58l-674 1224l-264 -1251h-103z" />
    <glyph glyph-name="eng" unicode="&#x14b;" horiz-adv-x="1167" 
d="M553 -385l20 92l6 -4q6 -4 18 -11t27.5 -13.5t38.5 -11.5t46 -5q61 0 103.5 40.5t59.5 117.5l156 731q33 150 -44.5 255t-227.5 105q-78 0 -153 -38.5t-133.5 -117t-80.5 -182.5l-123 -573h-92l209 983h92l-29 -139q37 43 89 80q117 80 247 80q80 0 150.5 -34
t118.5 -94.5t68 -145.5t-1 -187l-155 -733q-24 -115 -96.5 -177.5t-172.5 -62.5q-65 0 -104 22q-24 10 -37 23z" />
    <glyph glyph-name="Omacron" unicode="&#x14c;" horiz-adv-x="1699" 
d="M1081 1454q185 0 335 -88t232.5 -237.5t82.5 -329.5q0 -168 -69 -321t-181.5 -261.5t-260.5 -172.5t-302 -64q-185 0 -335 88t-232.5 237.5t-82.5 329.5q0 168 69 321t181.5 261.5t260.5 172.5t302 64zM1065 1352q-132 0 -257.5 -54t-222 -147t-155.5 -227t-59 -283
q0 -156 70.5 -283t199.5 -201.5t293 -74.5q131 0 257.5 55t222.5 148.5t155 227t59 280.5q0 156 -70.5 283t-199.5 201.5t-293 74.5zM885 1720l16 82h553l-16 -82h-553z" />
    <glyph glyph-name="omacron" unicode="&#x14d;" 
d="M752 1004q187 0 311.5 -131.5t124.5 -321.5q0 -117 -48 -224.5t-126 -182.5t-178 -119.5t-203 -44.5q-187 0 -311.5 131.5t-124.5 320.5q0 117 48 224.5t126 183t178 120t203 44.5zM645 72q82 0 163.5 36.5t145 98t103 150.5t39.5 186q0 155 -102 261.5t-255 106.5
q-82 0 -163.5 -36.5t-144.5 -98t-102.5 -150.5t-39.5 -186q0 -155 101.5 -261.5t254.5 -106.5zM567 1270l17 82h553l-17 -82h-553z" />
    <glyph glyph-name="Obreve" unicode="&#x14e;" horiz-adv-x="1699" 
d="M1081 1454q185 0 335 -88t232.5 -237.5t82.5 -329.5q0 -168 -69 -321t-181.5 -261.5t-260.5 -172.5t-302 -64q-185 0 -335 88t-232.5 237.5t-82.5 329.5q0 168 69 321t181.5 261.5t260.5 172.5t302 64zM1065 1352q-132 0 -257.5 -54t-222 -147t-155.5 -227t-59 -283
q0 -156 70.5 -283t199.5 -201.5t293 -74.5q131 0 257.5 55t222.5 148.5t155 227t59 280.5q0 156 -70.5 283t-199.5 201.5t-293 74.5zM893 1894h80v-24q0 -73 45.5 -116.5t128.5 -43.5q76 0 129.5 47t66.5 137h84q-24 -125 -104.5 -195.5t-185.5 -70.5q-110 0 -177 64
t-67 172v30z" />
    <glyph glyph-name="obreve" unicode="&#x14f;" 
d="M752 1004q187 0 311.5 -131.5t124.5 -321.5q0 -117 -48 -224.5t-126 -182.5t-178 -119.5t-203 -44.5q-187 0 -311.5 131.5t-124.5 320.5q0 117 48 224.5t126 183t178 120t203 44.5zM645 72q82 0 163.5 36.5t145 98t103 150.5t39.5 186q0 155 -102 261.5t-255 106.5
q-82 0 -163.5 -36.5t-144.5 -98t-102.5 -150.5t-39.5 -186q0 -155 101.5 -261.5t254.5 -106.5zM565 1423h80v-24q0 -73 45.5 -116.5t128.5 -43.5q76 0 130 47t67 137h84q-24 -125 -105 -195.5t-186 -70.5q-110 0 -177 64t-67 172v30z" />
    <glyph glyph-name="Ohungarumlaut" unicode="&#x150;" horiz-adv-x="1699" 
d="M1081 1454q185 0 335 -88t232.5 -237.5t82.5 -329.5q0 -168 -69 -321t-181.5 -261.5t-260.5 -172.5t-302 -64q-185 0 -335 88t-232.5 237.5t-82.5 329.5q0 168 69 321t181.5 261.5t260.5 172.5t302 64zM1065 1352q-132 0 -257.5 -54t-222 -147t-155.5 -227t-59 -283
q0 -156 70.5 -283t199.5 -201.5t293 -74.5q131 0 257.5 55t222.5 148.5t155 227t59 280.5q0 156 -70.5 283t-199.5 201.5t-293 74.5zM922 1628l208 266h113l-239 -266h-82zM1219 1628l208 266h113l-240 -266h-81z" />
    <glyph glyph-name="ohungarumlaut" unicode="&#x151;" 
d="M752 1004q187 0 311.5 -131.5t124.5 -321.5q0 -117 -48 -224.5t-126 -182.5t-178 -119.5t-203 -44.5q-187 0 -311.5 131.5t-124.5 320.5q0 117 48 224.5t126 183t178 120t203 44.5zM645 72q82 0 163.5 36.5t145 98t103 150.5t39.5 186q0 155 -102 261.5t-255 106.5
q-82 0 -163.5 -36.5t-144.5 -98t-102.5 -150.5t-39.5 -186q0 -155 101.5 -261.5t254.5 -106.5zM614 1157l209 266h113l-240 -266h-82zM911 1157l209 266h113l-240 -266h-82z" />
    <glyph glyph-name="OE" unicode="&#x152;" horiz-adv-x="2027" 
d="M924 102h163l263 1229h-281q-140 0 -268 -52t-222.5 -141t-151 -217t-56.5 -272q0 -118 45 -221t120.5 -174t176.5 -111.5t211 -40.5zM1190 102h778l-20 -102h-1024q-179 0 -328 80.5t-237.5 228.5t-88.5 332q0 163 66 310.5t176.5 253t259.5 167.5t309 62h1149l-20 -103
h-758l-115 -532h594l-20 -103h-594z" />
    <glyph glyph-name="oe" unicode="&#x153;" horiz-adv-x="1914" 
d="M1120 451v-13q0 -156 92 -261t238 -105q122 0 215 71q41 27 80 72l57 -70q-45 -48 -98 -84q-124 -81 -268 -81t-243 80t-142 216q-74 -131 -199 -213.5t-252 -82.5q-167 0 -285 129t-118 319q0 118 48 227t124 184t171.5 120t188.5 45q186 0 297 -154q50 -73 70 -154
q62 131 190 219.5t258 88.5q167 0 273 -117.5t106 -308.5q0 -20 -6 -89l-6 -38h-791zM1135 543h698v24q0 151 -82.5 247.5t-212.5 96.5q-81 0 -166 -46.5t-151.5 -133t-85.5 -188.5zM602 72q74 0 150.5 37t138.5 99t101.5 151.5t39.5 187.5q0 152 -92 258t-221 106
q-74 0 -150.5 -37t-138.5 -99t-101.5 -151.5t-39.5 -187.5q0 -154 91.5 -259t221.5 -105z" />
    <glyph glyph-name="Racute" unicode="&#x154;" horiz-adv-x="1351" 
d="M225 0l303 1434h516q164 0 277 -105.5t113 -267.5q0 -253 -205 -383q-89 -59 -203 -80l213 -598h-106l-213 594h-467l-125 -594h-103zM475 696h496q153 0 256.5 101.5t103.5 257.5q0 121 -86 198.5t-211 77.5h-424zM942 1628l209 266h113l-240 -266h-82z" />
    <glyph glyph-name="racute" unicode="&#x155;" horiz-adv-x="696" 
d="M174 0l209 983h92l-29 -139q37 43 89 80q117 80 249 80h84l-20 -93h-92q-126 0 -231 -91.5t-136 -246.5l-123 -573h-92zM604 1157l209 266h113l-240 -266h-82z" />
    <glyph glyph-name="Rcommaaccent" unicode="&#x156;" horiz-adv-x="1351" 
d="M225 0l303 1434h516q164 0 277 -105.5t113 -267.5q0 -253 -205 -383q-89 -59 -203 -80l213 -598h-106l-213 594h-467l-125 -594h-103zM475 696h496q153 0 256.5 101.5t103.5 257.5q0 121 -86 198.5t-211 77.5h-424zM543 -440l147 276h103l-181 -276h-69z" />
    <glyph glyph-name="rcommaaccent" unicode="&#x157;" horiz-adv-x="696" 
d="M174 0l209 983h92l-29 -139q37 43 89 80q117 80 249 80h84l-20 -93h-92q-126 0 -231 -91.5t-136 -246.5l-123 -573h-92zM-10 -440l147 276h103l-181 -276h-69z" />
    <glyph glyph-name="Rcaron" unicode="&#x158;" horiz-adv-x="1351" 
d="M225 0l303 1434h516q164 0 277 -105.5t113 -267.5q0 -253 -205 -383q-89 -59 -203 -80l213 -598h-106l-213 594h-467l-125 -594h-103zM475 696h496q153 0 256.5 101.5t103.5 257.5q0 121 -86 198.5t-211 77.5h-424zM942 1628l-160 266h84l131 -204l217 204h101l-271 -266
h-102z" />
    <glyph glyph-name="rcaron" unicode="&#x159;" horiz-adv-x="696" 
d="M174 0l209 983h92l-29 -139q37 43 89 80q117 80 249 80h84l-20 -93h-92q-126 0 -231 -91.5t-136 -246.5l-123 -573h-92zM594 1157l-160 266h84l131 -204l217 204h101l-271 -266h-102z" />
    <glyph glyph-name="Sacute" unicode="&#x15a;" horiz-adv-x="1146" 
d="M154 246l84 65q34 -64 90 -114q133 -115 336 -115q158 0 259 87t101 224q0 55 -28 100.5t-74.5 76.5t-105.5 62.5t-120.5 56.5t-120.5 59.5t-105.5 72t-74.5 93t-28 122.5q0 111 59.5 206.5t168.5 153.5t243 58q186 0 331 -111q61 -49 99 -108l-88 -66q-25 49 -80 91
q-112 92 -281 92q-152 0 -250 -84t-98 -209q0 -55 28 -100.5t74 -76.5t105 -62.5t120.5 -57t120.5 -60.5t105 -72.5t74 -93.5t28 -124q0 -185 -136.5 -308.5t-344.5 -123.5q-236 0 -385 133q-66 57 -106 133zM850 1628l209 266h112l-239 -266h-82z" />
    <glyph glyph-name="sacute" unicode="&#x15b;" horiz-adv-x="880" 
d="M121 182l86 64q27 -53 65 -88q94 -86 215 -86q110 0 184 60.5t74 148.5q0 40 -25.5 73t-67 56t-91 45t-99 46.5t-91 52.5t-67 70.5t-25.5 94.5q0 109 98 197t235 88q134 0 240 -89q50 -43 74 -88l-86 -63q-16 36 -54 74q-73 73 -188 73q-95 0 -160 -54t-65 -124
q0 -38 26 -69.5t67 -54t90.5 -44.5t99.5 -47t91 -54t67 -72.5t26 -96.5q0 -131 -104 -223t-255 -92q-166 0 -278 100q-54 48 -82 102zM614 1157l209 266h113l-240 -266h-82z" />
    <glyph glyph-name="Scircumflex" unicode="&#x15c;" horiz-adv-x="1146" 
d="M154 246l84 65q34 -64 90 -114q133 -115 336 -115q158 0 259 87t101 224q0 55 -28 100.5t-74.5 76.5t-105.5 62.5t-120.5 56.5t-120.5 59.5t-105.5 72t-74.5 93t-28 122.5q0 111 59.5 206.5t168.5 153.5t243 58q186 0 331 -111q61 -49 99 -108l-88 -66q-25 49 -80 91
q-112 92 -281 92q-152 0 -250 -84t-98 -209q0 -55 28 -100.5t74 -76.5t105 -62.5t120.5 -57t120.5 -60.5t105 -72.5t74 -93.5t28 -124q0 -185 -136.5 -308.5t-344.5 -123.5q-236 0 -385 133q-66 57 -106 133zM627 1628l270 266h102l160 -266h-84l-131 205l-217 -205h-100z
" />
    <glyph glyph-name="scircumflex" unicode="&#x15d;" horiz-adv-x="880" 
d="M121 182l86 64q27 -53 65 -88q94 -86 215 -86q110 0 184 60.5t74 148.5q0 40 -25.5 73t-67 56t-91 45t-99 46.5t-91 52.5t-67 70.5t-25.5 94.5q0 109 98 197t235 88q134 0 240 -89q50 -43 74 -88l-86 -63q-16 36 -54 74q-73 73 -188 73q-95 0 -160 -54t-65 -124
q0 -38 26 -69.5t67 -54t90.5 -44.5t99.5 -47t91 -54t67 -72.5t26 -96.5q0 -131 -104 -223t-255 -92q-166 0 -278 100q-54 48 -82 102zM389 1157l270 266h103l160 -266h-84l-131 205l-218 -205h-100z" />
    <glyph glyph-name="Scedilla" unicode="&#x15e;" horiz-adv-x="1146" 
d="M371 -336l43 55q11 -15 37 -34q52 -33 100 -33q49 0 81 27.5t32 68.5q0 32 -23 54t-55 22q-30 0 -49 -8l-17 -9l-39 52l88 125q-196 20 -325 143q-51 45 -90 119l84 65q34 -64 90 -114q133 -115 336 -115q158 0 259 87t101 224q0 55 -28 100.5t-74.5 76.5t-105.5 62.5
t-120.5 56.5t-120.5 59.5t-105.5 72t-74.5 93t-28 122.5q0 111 59.5 206.5t168.5 153.5t243 58q186 0 331 -111q61 -49 99 -108l-88 -66q-25 49 -80 91q-112 92 -281 92q-152 0 -250 -84t-98 -209q0 -55 28 -100.5t74 -76.5t105 -62.5t120.5 -57t120.5 -60.5t105 -72.5
t74 -93.5t28 -124q0 -185 -136.5 -308.5t-344.5 -123.5h-6l-70 -97l3 1q4 1 12 2t18 1q61 0 97 -35.5t36 -95.5q0 -68 -53 -117t-135 -49q-63 0 -127 37q-27 15 -49 37z" />
    <glyph glyph-name="scedilla" unicode="&#x15f;" horiz-adv-x="880" 
d="M231 -336l43 55q11 -15 37 -34q52 -33 101 -33t80.5 27t31.5 69q0 32 -23 54t-55 22q-30 0 -49 -8l-16 -9l-39 52l88 123q-137 12 -237 108q-47 44 -72 92l86 64q27 -53 65 -88q94 -86 215 -86q110 0 184 60.5t74 148.5q0 40 -25.5 73t-67 56t-91 45t-99 46.5t-91 52.5
t-67 70.5t-25.5 94.5q0 109 98 197t235 88q134 0 240 -89q50 -43 74 -88l-86 -63q-16 36 -54 74q-73 73 -188 73q-95 0 -160 -54t-65 -124q0 -38 26 -69.5t67 -54t90.5 -44.5t99.5 -47t91 -54t67 -72.5t26 -96.5q0 -127 -99.5 -218.5t-240.5 -96.5l-70 -97l4 1q3 1 11 2
t18 1q61 0 97 -35.5t36 -95.5q0 -68 -53 -117t-135 -49q-63 0 -127 37q-29 16 -50 37z" />
    <glyph glyph-name="Scaron" unicode="&#x160;" horiz-adv-x="1146" 
d="M154 246l84 65q34 -64 90 -114q133 -115 336 -115q158 0 259 87t101 224q0 55 -28 100.5t-74.5 76.5t-105.5 62.5t-120.5 56.5t-120.5 59.5t-105.5 72t-74.5 93t-28 122.5q0 111 59.5 206.5t168.5 153.5t243 58q186 0 331 -111q61 -49 99 -108l-88 -66q-25 49 -80 91
q-112 92 -281 92q-152 0 -250 -84t-98 -209q0 -55 28 -100.5t74 -76.5t105 -62.5t120.5 -57t120.5 -60.5t105 -72.5t74 -93.5t28 -124q0 -185 -136.5 -308.5t-344.5 -123.5q-236 0 -385 133q-66 57 -106 133zM850 1628l-160 266h84l131 -204l217 204h101l-271 -266h-102z
" />
    <glyph glyph-name="scaron" unicode="&#x161;" horiz-adv-x="880" 
d="M121 182l86 64q27 -53 65 -88q94 -86 215 -86q110 0 184 60.5t74 148.5q0 40 -25.5 73t-67 56t-91 45t-99 46.5t-91 52.5t-67 70.5t-25.5 94.5q0 109 98 197t235 88q134 0 240 -89q50 -43 74 -88l-86 -63q-16 36 -54 74q-73 73 -188 73q-95 0 -160 -54t-65 -124
q0 -38 26 -69.5t67 -54t90.5 -44.5t99.5 -47t91 -54t67 -72.5t26 -96.5q0 -131 -104 -223t-255 -92q-166 0 -278 100q-54 48 -82 102zM604 1157l-160 266h84l131 -204l218 204h100l-270 -266h-103z" />
    <glyph glyph-name="uni0162" unicode="&#x162;" horiz-adv-x="1116" 
d="M311 -336l43 55q11 -15 37 -34q52 -33 101 -33t80.5 27t31.5 69q0 32 -23 54t-55 22q-30 0 -49 -8l-16 -9l-39 52l100 141h-30l282 1331h-471l21 103h1044l-20 -103h-471l-283 -1331l-84 -117l4 1q3 1 11 2t18 1q61 0 97 -35.5t36 -95.5q0 -68 -53 -117t-136 -49
q-63 0 -127 37q-27 15 -49 37z" />
    <glyph glyph-name="uni0163" unicode="&#x163;" horiz-adv-x="716" 
d="M219 -336l43 55q11 -15 37 -34q52 -33 100 -33q49 0 81 27.5t32 68.5q0 32 -23 54t-55 22q-30 0 -49 -8l-16 -9l-39 52l94 135q-84 25 -114.5 97.5t-10.5 164.5l135 635h-194l20 92h133q31 0 56 22t32 60l54 246h81l-69 -328h225l-20 -92h-226l-137 -645
q-13 -75 21 -124.5t127 -49.5q44 0 75 8q14 2 33 10l-20 -92q-19 -8 -33 -10q-31 -8 -76 -8h-29l-69 -97l4 1q3 1 11 2t18 1q61 0 97 -35.5t36 -95.5q0 -68 -53 -117t-136 -49q-63 0 -127 37q-27 15 -49 37z" />
    <glyph glyph-name="Tcaron" unicode="&#x164;" horiz-adv-x="1116" 
d="M492 0l282 1331h-471l21 103h1044l-20 -103h-471l-283 -1331h-102zM799 1628l-160 266h84l131 -204l217 204h100l-270 -266h-102z" />
    <glyph glyph-name="tcaron" unicode="&#x165;" horiz-adv-x="757" 
d="M299 256l135 635h-194l20 92h133q31 0 56 22t32 60l54 246h81l-69 -328h225l-20 -92h-226l-137 -645q-13 -75 21 -124.5t127 -49.5q44 0 75 8q14 2 33 10l-20 -92q-19 -8 -33 -10q-31 -8 -76 -8q-135 0 -187 80.5t-30 195.5zM860 1157l150 277h102l-180 -277h-72z" />
    <glyph glyph-name="Tbar" unicode="&#x166;" horiz-adv-x="1116" 
d="M492 0l165 788h-338l21 93h338l96 450h-471l21 103h1044l-20 -103h-471l-97 -450h338l-20 -93h-338l-166 -788h-102z" />
    <glyph glyph-name="tbar" unicode="&#x167;" horiz-adv-x="716" 
d="M299 256l51 246h-192l18 92h195l63 297h-194l20 92h133q31 0 56 22t32 60l54 246h81l-69 -328h225l-20 -92h-226l-63 -297h225l-18 -92h-226l-55 -256q-13 -75 21 -124.5t127 -49.5q44 0 75 8q14 2 33 10l-20 -92q-19 -8 -33 -10q-31 -8 -76 -8q-135 0 -187 80.5
t-30 195.5z" />
    <glyph glyph-name="Umacron" unicode="&#x16a;" horiz-adv-x="1536" 
d="M324 612l174 822h102l-176 -832q-44 -220 72.5 -370t332.5 -150q181 0 318.5 117t177.5 307l197 928h102l-199 -936q-49 -227 -222 -372.5t-390 -145.5q-172 0 -297.5 88t-176.5 233t-15 311zM831 1720l17 82h553l-17 -82h-553z" />
    <glyph glyph-name="umacron" unicode="&#x16b;" horiz-adv-x="1177" 
d="M262 440l115 543h92l-119 -551q-33 -149 45.5 -254.5t229.5 -105.5q78 0 152.5 38.5t133 117t80.5 182.5l123 573h92l-209 -983h-92l29 139q-38 -47 -88 -80q-110 -79 -248 -79q-79 0 -150 33.5t-119.5 94.5t-68.5 145.5t2 186.5zM578 1270l16 82h553l-17 -82h-552z" />
    <glyph glyph-name="Ubreve" unicode="&#x16c;" horiz-adv-x="1536" 
d="M324 612l174 822h102l-176 -832q-44 -220 72.5 -370t332.5 -150q181 0 318.5 117t177.5 307l197 928h102l-199 -936q-49 -227 -222 -372.5t-390 -145.5q-172 0 -297.5 88t-176.5 233t-15 311zM831 1894h80v-24q0 -73 45.5 -116.5t128.5 -43.5q76 0 130 47t67 137h84
q-24 -125 -105 -195.5t-186 -70.5q-110 0 -177 64t-67 172v30z" />
    <glyph glyph-name="ubreve" unicode="&#x16d;" horiz-adv-x="1177" 
d="M262 440l115 543h92l-119 -551q-33 -149 45.5 -254.5t229.5 -105.5q78 0 152.5 38.5t133 117t80.5 182.5l123 573h92l-209 -983h-92l29 139q-38 -47 -88 -80q-110 -79 -248 -79q-79 0 -150 33.5t-119.5 94.5t-68.5 145.5t2 186.5zM596 1423h80v-24q0 -73 45.5 -116.5
t128.5 -43.5q76 0 130 47t67 137h83q-24 -125 -104.5 -195.5t-185.5 -70.5q-110 0 -177 64t-67 172v30z" />
    <glyph glyph-name="Uring" unicode="&#x16e;" horiz-adv-x="1536" 
d="M324 612l174 822h102l-176 -832q-44 -220 72.5 -370t332.5 -150q181 0 318.5 117t177.5 307l197 928h102l-199 -936q-49 -227 -222 -372.5t-390 -145.5q-172 0 -297.5 88t-176.5 233t-15 311zM1083 1567q-75 0 -123.5 52t-48.5 122q0 92 62.5 153.5t154.5 61.5
q75 0 123.5 -52t48.5 -122q0 -92 -63 -153.5t-154 -61.5zM991 1747q0 -43 27.5 -70.5t79.5 -27.5q55 0 89 36t34 91q0 43 -27.5 70.5t-79.5 27.5q-55 0 -89 -36t-34 -91z" />
    <glyph glyph-name="uring" unicode="&#x16f;" horiz-adv-x="1177" 
d="M262 440l115 543h92l-119 -551q-33 -149 45.5 -254.5t229.5 -105.5q78 0 152.5 38.5t133 117t80.5 182.5l123 573h92l-209 -983h-92l29 139q-38 -47 -88 -80q-110 -79 -248 -79q-79 0 -150 33.5t-119.5 94.5t-68.5 145.5t2 186.5zM799 1106q-75 0 -123.5 52t-48.5 122
q0 92 62.5 153.5t154.5 61.5q75 0 123.5 -52t48.5 -122q0 -92 -63 -153.5t-154 -61.5zM707 1286q0 -43 27 -70.5t79 -27.5q55 0 89 36t34 91q0 43 -27.5 70.5t-79.5 27.5q-55 0 -88.5 -36t-33.5 -91z" />
    <glyph glyph-name="Uhungarumlaut" unicode="&#x170;" horiz-adv-x="1536" 
d="M324 612l174 822h102l-176 -832q-44 -220 72.5 -370t332.5 -150q181 0 318.5 117t177.5 307l197 928h102l-199 -936q-49 -227 -222 -372.5t-390 -145.5q-172 0 -297.5 88t-176.5 233t-15 311zM870 1628l209 266h113l-240 -266h-82zM1167 1628l209 266h113l-240 -266h-82z
" />
    <glyph glyph-name="uhungarumlaut" unicode="&#x171;" horiz-adv-x="1177" 
d="M262 440l115 543h92l-119 -551q-33 -149 45.5 -254.5t229.5 -105.5q78 0 152.5 38.5t133 117t80.5 182.5l123 573h92l-209 -983h-92l29 139q-38 -47 -88 -80q-110 -79 -248 -79q-79 0 -150 33.5t-119.5 94.5t-68.5 145.5t2 186.5zM614 1157l209 266h113l-240 -266h-82z
M911 1157l209 266h113l-240 -266h-82z" />
    <glyph glyph-name="Uogonek" unicode="&#x172;" horiz-adv-x="1536" 
d="M924 -319l-15 -70q-20 -8 -32 -10q-42 -11 -76 -11q-78 0 -123 43t-45 111q0 122 149 236q-100 7 -184.5 43.5t-143.5 95t-97.5 136.5t-46 168t11.5 189l174 822h102l-176 -832q-44 -220 72.5 -370t332.5 -150q181 0 318.5 117t177.5 307l197 928h102l-199 -936
q-44 -212 -201 -355.5t-358 -160.5q-32 -25 -63 -55.5t-62.5 -81.5t-31.5 -95q0 -88 112 -88q41 0 72 8q11 2 33 11z" />
    <glyph glyph-name="uogonek" unicode="&#x173;" horiz-adv-x="1177" 
d="M1016 -319l-15 -70q-20 -8 -32 -10q-42 -11 -76 -11q-78 0 -123 43t-45 111q0 96 90 186q43 43 90 70l29 139q-38 -47 -88 -80q-110 -79 -248 -79q-79 0 -150 33.5t-119.5 94.5t-68.5 145.5t2 186.5l115 543h92l-119 -551q-33 -149 45.5 -254.5t229.5 -105.5
q78 0 152.5 38.5t133 117t80.5 182.5l123 573h92l-209 -983h-16q-53 -40 -92 -80q-90 -90 -90 -170q0 -88 112 -88q41 0 72 8q11 2 33 11z" />
    <glyph glyph-name="Wcircumflex" unicode="&#x174;" horiz-adv-x="2048" 
d="M481 0l-157 1434h106l131 -1270l678 1270h102l142 -1270l667 1270h119l-764 -1434h-102l-141 1270l-678 -1270h-103zM1034 1628l271 266h102l160 -266h-84l-131 205l-217 -205h-101z" />
    <glyph glyph-name="wcircumflex" unicode="&#x175;" horiz-adv-x="1454" 
d="M348 0l-119 983h99l98 -829l444 829h82l86 -840l457 840h107l-537 -983h-92l-90 829l-443 -829h-92zM666 1157l270 266h102l160 -266h-84l-131 205l-217 -205h-100z" />
    <glyph glyph-name="Ycircumflex" unicode="&#x176;" horiz-adv-x="1228" 
d="M532 0l107 502l-336 932h113l286 -820l635 820h133l-729 -932l-106 -502h-103zM625 1638l270 267h102l160 -267h-84l-131 205l-217 -205h-100z" />
    <glyph glyph-name="ycircumflex" unicode="&#x177;" horiz-adv-x="983" 
d="M-16 -406l22 93l29 -13q36 -12 67 -12q60 0 106 36.5t95 117.5l115 188l-189 979h99l164 -860l532 860h106l-720 -1167q-81 -133 -151.5 -189.5t-162.5 -56.5q-36 0 -82 12zM430 1157l270 266h103l160 -266h-84l-131 205l-218 -205h-100z" />
    <glyph glyph-name="Ydieresis" unicode="&#x178;" horiz-adv-x="1228" 
d="M532 0l107 502l-336 932h113l286 -820l635 820h133l-729 -932l-106 -502h-103zM645 1753q0 35 23.5 57.5t56.5 22.5q29 0 47.5 -18.5t18.5 -45.5q0 -34 -23.5 -56.5t-56.5 -22.5q-29 0 -47.5 18t-18.5 45zM1004 1753q0 35 23 57.5t56 22.5q29 0 47.5 -18.5t18.5 -45.5
q0 -34 -23.5 -56.5t-56.5 -22.5q-29 0 -47 18t-18 45z" />
    <glyph glyph-name="Zacute" unicode="&#x179;" horiz-adv-x="1177" 
d="M72 0l20 102l1122 1229h-829l21 103h962l-20 -103l-1123 -1229h881l-21 -102h-1013zM840 1628l209 266h112l-239 -266h-82z" />
    <glyph glyph-name="zacute" unicode="&#x17a;" horiz-adv-x="890" 
d="M51 0l19 92l794 799h-604l21 92h727l-21 -92l-794 -799h645l-19 -92h-768zM594 1157l209 266h112l-239 -266h-82z" />
    <glyph glyph-name="Zdotaccent" unicode="&#x17b;" horiz-adv-x="1177" 
d="M72 0l20 102l1122 1229h-829l21 103h962l-20 -103l-1123 -1229h881l-21 -102h-1013zM911 1833q29 0 47.5 -18.5t18.5 -45.5q0 -34 -23.5 -56.5t-56.5 -22.5q-29 0 -47.5 18t-18.5 45q0 35 23.5 57.5t56.5 22.5z" />
    <glyph glyph-name="zdotaccent" unicode="&#x17c;" horiz-adv-x="890" 
d="M51 0l19 92l794 799h-604l21 92h727l-21 -92l-794 -799h645l-19 -92h-768zM707 1362q29 0 47 -18.5t18 -45.5q0 -34 -23.5 -56.5t-56.5 -22.5q-29 0 -47 18t-18 45q0 35 23.5 57.5t56.5 22.5z" />
    <glyph glyph-name="Zcaron" unicode="&#x17d;" horiz-adv-x="1177" 
d="M72 0l20 102l1122 1229h-829l21 103h962l-20 -103l-1123 -1229h881l-21 -102h-1013zM829 1618l-159 266h84l131 -205l217 205h100l-270 -266h-103z" />
    <glyph glyph-name="zcaron" unicode="&#x17e;" horiz-adv-x="890" 
d="M51 0l19 92l794 799h-604l21 92h727l-21 -92l-794 -799h645l-19 -92h-768zM604 1157l-160 266h84l131 -204l218 204h100l-270 -266h-103z" />
    <glyph glyph-name="uni018F" unicode="&#x18f;" horiz-adv-x="1587" 
d="M260 717h1249l4 33q5 45 5 71q0 239 -151.5 385t-387.5 146q-162 0 -326 -84q-75 -41 -123 -82l-57 69q63 57 143 99q188 100 379 100q186 0 329 -83t219.5 -226t76.5 -322q0 -180 -67 -340t-176 -268.5t-247 -171.5t-280 -63q-171 0 -307 81t-212.5 224.5t-76.5 322.5
q0 53 2 76zM1485 614h-1129v-14q0 -224 139 -371t371 -147q155 0 287 74.5t215 193.5t117 264z" />
    <glyph glyph-name="florin" unicode="&#x192;" horiz-adv-x="737" 
d="M-158 -403l11 90l41 -19q50 -16 100 -16q131 0 180 168l258 887h-174l8 92h195l114 399q38 133 104.5 194.5t170.5 61.5q36 0 106 -18l45 -19l-8 -92l-43 18q-64 19 -100 19q-132 0 -184 -174l-113 -389h235l-8 -92h-256l-258 -887q-38 -134 -101.5 -197t-172.5 -63
q-58 0 -107 18z" />
    <glyph glyph-name="Aringacute" unicode="&#x1fa;" horiz-adv-x="1372" 
d="M72 0l860 1374q-38 19 -63 62t-25 90q0 92 62.5 153.5t154.5 61.5q75 0 123.5 -52t48.5 -122q0 -73 -40.5 -129t-107.5 -76l277 -1362h-105l-86 420h-716l-262 -420h-121zM518 522h635l-156 768zM924 1532q0 -43 27 -70.5t79 -27.5q55 0 89 36t34 91q0 43 -27 70.5
t-79 27.5q-55 0 -89 -36t-34 -91zM1049 1761l208 267h113l-240 -267h-81z" />
    <glyph glyph-name="aringacute" unicode="&#x1fb;" horiz-adv-x="1034" 
d="M791 0l30 147q-45 -52 -90 -84q-114 -83 -254 -83q-144 0 -230.5 77t-86.5 185q0 112 80 194.5t243 110.5l437 67q18 132 -49.5 214.5t-200.5 82.5q-109 0 -199 -57q-47 -26 -78 -57l-49 67q38 38 94 70q118 70 242 70q179 0 270 -121t54 -308l-121 -575h-92zM877 401
l24 121l-393 -63q-254 -41 -254 -207q0 -76 63 -128t175 -52q136 0 246.5 94.5t138.5 234.5zM737 1034q-75 0 -123.5 52t-48.5 122q0 92 62.5 153.5t154.5 61.5q75 0 123.5 -52t48.5 -122q0 -92 -63 -153.5t-154 -61.5zM645 1214q0 -43 27.5 -70.5t79.5 -27.5q55 0 88.5 36
t33.5 91q0 43 -27 70.5t-79 27.5q-55 0 -89 -36t-34 -91zM770 1454l209 266h113l-240 -266h-82z" />
    <glyph glyph-name="AEacute" unicode="&#x1fc;" horiz-adv-x="1914" 
d="M-61 0l1101 1434h1076l-21 -103h-758l-114 -532h594l-21 -103h-594l-127 -594h778l-20 -102h-881l92 440h-645l-338 -440h-122zM473 543h594l168 788h-152zM1331 1628l209 266h113l-240 -266h-82z" />
    <glyph glyph-name="aeacute" unicode="&#x1fd;" horiz-adv-x="1787" 
d="M492 553h419l9 33q28 142 -41 233.5t-205 91.5q-109 0 -199 -57q-47 -26 -78 -57l-49 67q38 38 94 70q118 70 242 70q127 0 212 -63t112 -169q78 108 186 170t219 62q167 0 273 -117.5t106 -308.5q0 -15 -6 -84l-4 -33h-793v-23q0 -156 92 -261t238 -105q122 0 215 71
q41 27 80 72l57 -70q-45 -48 -98 -84q-124 -81 -268 -81t-245 80t-140 216q-16 -33 -37 -66t-60.5 -76.5t-86 -76t-113.5 -55t-142 -22.5q-148 0 -234.5 75t-86.5 189q0 132 97.5 220.5t234.5 88.5zM1006 553h696v14q0 151 -82.5 247.5t-212.5 96.5q-80 0 -164.5 -46
t-151 -130t-85.5 -182zM874 393l15 68h-406q-99 0 -166 -57.5t-67 -147.5q0 -78 64 -131t175 -53q136 0 246 90.5t139 230.5zM1028 1157l209 266h113l-240 -266h-82z" />
    <glyph glyph-name="Oslashacute" unicode="&#x1fe;" horiz-adv-x="1699" 
d="M231 -31l-61 82l219 195q-121 174 -121 389q0 168 69 321t181.5 261.5t260.5 172.5t302 64q280 0 463 -186l223 196l62 -82l-219 -194q121 -165 121 -389q0 -168 -69 -321t-181.5 -261.5t-260.5 -172.5t-302 -64q-138 0 -256.5 49t-206.5 137zM469 315l995 881
q-162 156 -399 156q-132 0 -257.5 -54t-222 -147t-155.5 -227t-59 -283q0 -189 98 -326zM1530 1118l-995 -880q159 -156 399 -156q131 0 257.5 55t222.5 148.5t155 227t59 280.5q0 182 -98 325zM1063 1628l209 266h112l-239 -266h-82z" />
    <glyph glyph-name="oslashacute" unicode="&#x1ff;" 
d="M174 -41l-51 70l151 139q-77 116 -77 264q0 117 48 224.5t126 183t178 120t203 44.5q180 0 303 -123l155 143l52 -70l-152 -139q78 -119 78 -264q0 -117 -48 -224.5t-126 -182.5t-178 -119.5t-203 -44.5q-175 0 -303 122zM1036 750l-635 -582q103 -96 244 -96
q82 0 163.5 36.5t145 98t103 150.5t39.5 186q0 116 -60 207zM348 233l635 582q-103 96 -244 96q-82 0 -163.5 -36.5t-144.5 -98t-102.5 -150.5t-39.5 -186q0 -121 59 -207zM752 1157l209 266h112l-239 -266h-82z" />
    <glyph glyph-name="Scommaaccent" unicode="&#x218;" horiz-adv-x="1146" 
d="M154 246l84 65q34 -64 90 -114q133 -115 336 -115q158 0 259 87t101 224q0 55 -28 100.5t-74.5 76.5t-105.5 62.5t-120.5 56.5t-120.5 59.5t-105.5 72t-74.5 93t-28 122.5q0 111 59.5 206.5t168.5 153.5t243 58q186 0 331 -111q61 -49 99 -108l-88 -66q-25 49 -80 91
q-112 92 -281 92q-152 0 -250 -84t-98 -209q0 -55 28 -100.5t74 -76.5t105 -62.5t120.5 -57t120.5 -60.5t105 -72.5t74 -93.5t28 -124q0 -185 -136.5 -308.5t-344.5 -123.5q-236 0 -385 133q-66 57 -106 133zM408 -440l147 276h102l-180 -276h-69z" />
    <glyph glyph-name="scommaaccent" unicode="&#x219;" horiz-adv-x="880" 
d="M121 182l86 64q27 -53 65 -88q94 -86 215 -86q110 0 184 60.5t74 148.5q0 40 -25.5 73t-67 56t-91 45t-99 46.5t-91 52.5t-67 70.5t-25.5 94.5q0 109 98 197t235 88q134 0 240 -89q50 -43 74 -88l-86 -63q-16 36 -54 74q-73 73 -188 73q-95 0 -160 -54t-65 -124
q0 -38 26 -69.5t67 -54t90.5 -44.5t99.5 -47t91 -54t67 -72.5t26 -96.5q0 -131 -104 -223t-255 -92q-166 0 -278 100q-54 48 -82 102zM256 -440l147 276h103l-180 -276h-70z" />
    <glyph glyph-name="uni021A" unicode="&#x21a;" horiz-adv-x="1116" 
d="M492 0l282 1331h-471l21 103h1044l-20 -103h-471l-283 -1331h-102zM307 -440l148 276h102l-180 -276h-70z" />
    <glyph glyph-name="uni021B" unicode="&#x21b;" horiz-adv-x="716" 
d="M299 256l135 635h-194l20 92h133q31 0 56 22t32 60l54 246h81l-69 -328h225l-20 -92h-226l-137 -645q-13 -75 21 -124.5t127 -49.5q44 0 75 8q14 2 33 10l-20 -92q-19 -8 -33 -10q-31 -8 -76 -8q-135 0 -187 80.5t-30 195.5zM225 -440l148 276h102l-180 -276h-70z" />
    <glyph glyph-name="uni0232" unicode="&#x232;" horiz-adv-x="1228" 
d="M532 0l107 502l-336 932h113l286 -820l635 820h133l-729 -932l-106 -502h-103zM618 1720l17 82h553l-17 -82h-553z" />
    <glyph glyph-name="uni0233" unicode="&#x233;" horiz-adv-x="983" 
d="M-16 -406l22 93l29 -13q36 -12 67 -12q60 0 106 36.5t95 117.5l115 188l-189 979h99l164 -860l532 860h106l-720 -1167q-81 -133 -151.5 -189.5t-162.5 -56.5q-36 0 -82 12zM444 1270l17 82h553l-17 -82h-553z" />
    <glyph glyph-name="uni0244" unicode="&#x244;" horiz-adv-x="1597" 
d="M526 799l-43 -209q-24 -117 -3 -211t75 -160t134.5 -101.5t174.5 -35.5q180 0 310.5 115t171.5 311l61 291h-881zM383 600l41 199h-215l20 92h215l115 543h103l-115 -543h880l115 543h103l-115 -543h215l-21 -92h-215l-61 -291q-52 -241 -217.5 -384.5t-378.5 -143.5
q-164 0 -284.5 83.5t-170 226t-14.5 310.5z" />
    <glyph glyph-name="uni0259" unicode="&#x259;" horiz-adv-x="1126" 
d="M205 532h831v13q0 156 -98.5 261t-251.5 105q-111 0 -223 -71q-48 -31 -84 -70l-55 68q43 43 104 82q135 84 272 84q182 0 304 -130t122 -321q0 -122 -47 -230.5t-122.5 -182.5t-171.5 -117t-193 -43q-174 0 -286.5 118t-112.5 308q0 51 6 88zM1022 440h-739v-24
q0 -153 85 -248.5t230 -95.5q90 0 180 46.5t157.5 132.5t86.5 189z" />
    <glyph glyph-name="uni0289" unicode="&#x289;" horiz-adv-x="1218" 
d="M410 532l-23 -102q-32 -147 42.5 -252.5t205.5 -105.5q124 0 230.5 91.5t138.5 231.5l30 137h-624zM154 532l18 93h164l78 358h92l-78 -358h625l77 358h93l-78 -358h164l-19 -93h-164l-112 -532h-92l30 141q-41 -47 -90 -82q-110 -79 -239 -79q-118 0 -203.5 67
t-117.5 170t-7 213l22 102h-163z" />
    <glyph glyph-name="uni02BC" unicode="&#x2bc;" horiz-adv-x="317" 
d="M307 1157l150 277h102l-180 -277h-72z" />
    <glyph glyph-name="circumflex" unicode="&#x2c6;" horiz-adv-x="655" 
d="M307 1157l271 266h102l160 -266h-84l-131 205l-217 -205h-101z" />
    <glyph glyph-name="caron" unicode="&#x2c7;" horiz-adv-x="655" 
d="M522 1157l-160 266h84l132 -204l217 204h100l-270 -266h-103z" />
    <glyph glyph-name="breve" unicode="&#x2d8;" horiz-adv-x="655" 
d="M330 1423h80v-24q0 -73 45.5 -116.5t128.5 -43.5q76 0 129.5 47t66.5 137h84q-24 -125 -105 -195.5t-186 -70.5q-110 0 -176.5 64t-66.5 172v30z" />
    <glyph glyph-name="dotaccent" unicode="&#x2d9;" horiz-adv-x="266" 
d="M410 1382q29 0 47 -18t18 -45q0 -35 -23.5 -57.5t-56.5 -22.5q-29 0 -47 18.5t-18 45.5q0 34 23.5 56.5t56.5 22.5z" />
    <glyph glyph-name="ring" unicode="&#x2da;" horiz-adv-x="512" 
d="M471 1034q-75 0 -123.5 52t-48.5 122q0 92 62.5 153.5t154.5 61.5q75 0 123.5 -52t48.5 -122q0 -92 -63 -153.5t-154 -61.5zM379 1214q0 -43 27 -70.5t79 -27.5q55 0 89 36t34 91q0 43 -27 70.5t-79 27.5q-55 0 -89 -36t-34 -91z" />
    <glyph glyph-name="ogonek" unicode="&#x2db;" horiz-adv-x="430" 
d="M281 -319l-15 -70q-19 -8 -33 -10q-42 -11 -75 -11q-78 0 -123 43t-45 111q0 96 90 186q43 43 90 70h76q-52 -40 -92 -80q-91 -91 -91 -170q0 -88 113 -88q41 0 72 8q11 2 33 11z" />
    <glyph glyph-name="tilde" unicode="&#x2dc;" horiz-adv-x="706" 
d="M393 1178h-82q25 119 78 177t125 58q36 0 65.5 -16t48.5 -38.5t36 -44.5t38 -38t46 -16q35 0 66 36.5t48 116.5h82q-25 -119 -78 -177t-125 -58q-36 0 -65 16t-48 38t-36 44.5t-38 38.5t-46 16q-35 0 -67 -36.5t-48 -116.5z" />
    <glyph glyph-name="hungarumlaut" unicode="&#x2dd;" horiz-adv-x="686" 
d="M307 1157l209 266h113l-240 -266h-82zM604 1157l209 266h113l-240 -266h-82z" />
    <glyph glyph-name="acutecomb" unicode="&#x301;" horiz-adv-x="0" 
d="M-479 1495l209 266h112l-239 -266h-82z" />
    <glyph glyph-name="uni0302" unicode="&#x302;" horiz-adv-x="0" 
d="M-705 1495l271 266h102l160 -266h-84l-131 205l-217 -205h-101z" />
    <glyph glyph-name="uni0304" unicode="&#x304;" horiz-adv-x="0" 
d="M-696 1587l16 82h553l-16 -82h-553z" />
    <glyph glyph-name="uni0306" unicode="&#x306;" horiz-adv-x="0" 
d="M-688 1741h80v-25q0 -73 45.5 -116.5t128.5 -43.5q75 0 129 47.5t67 137.5h84q-24 -125 -104.5 -195.5t-185.5 -70.5q-110 0 -177 63.5t-67 171.5v31z" />
    <glyph glyph-name="uni0307" unicode="&#x307;" horiz-adv-x="0" 
d="M-414 1700q29 0 47.5 -18.5t18.5 -45.5q0 -35 -23.5 -57.5t-56.5 -22.5q-29 0 -47.5 18.5t-18.5 45.5q0 35 23.5 57.5t56.5 22.5z" />
    <glyph glyph-name="uni0308" unicode="&#x308;" horiz-adv-x="0" 
d="M-676 1620q0 35 23.5 57.5t56.5 22.5q29 0 47.5 -18.5t18.5 -45.5q0 -35 -23.5 -57.5t-56.5 -22.5q-29 0 -47.5 18.5t-18.5 45.5zM-317 1620q0 35 23 57.5t56 22.5q29 0 47.5 -18.5t18.5 -45.5q0 -35 -23.5 -57.5t-56.5 -22.5q-29 0 -47 18.5t-18 45.5z" />
    <glyph glyph-name="uni030A" unicode="&#x30a;" horiz-adv-x="0" 
d="M-434 1495q-75 0 -123.5 52t-48.5 122q0 92 62.5 153.5t154.5 61.5q75 0 123.5 -52t48.5 -122q0 -92 -63 -153.5t-154 -61.5zM-526 1675q0 -43 27 -70.5t79 -27.5q55 0 89 36t34 91q0 43 -27 70.5t-79 27.5q-55 0 -89 -36t-34 -91z" />
    <glyph glyph-name="uni030C" unicode="&#x30c;" horiz-adv-x="0" 
d="M-489 1495l-160 266h84l131 -205l217 205h100l-270 -266h-102z" />
    <glyph glyph-name="uni0326" unicode="&#x326;" horiz-adv-x="317" 
d="M-31 -440l148 276h102l-180 -276h-70z" />
    <glyph glyph-name="Alphatonos" unicode="&#x386;" horiz-adv-x="1372" 
d="M451 1167l208 267h113l-240 -267h-81zM72 0l897 1434h102l291 -1434h-105l-86 420h-716l-262 -420h-121zM518 522h635l-156 768z" />
    <glyph glyph-name="Epsilontonos" unicode="&#x388;" horiz-adv-x="1290" 
d="M143 1167l209 267h113l-240 -267h-82zM225 0l303 1434h963l-21 -103h-860l-114 -532h696l-21 -103h-696l-127 -594h881l-21 -102h-983z" />
    <glyph glyph-name="Etatonos" unicode="&#x389;" horiz-adv-x="1525" 
d="M143 1167l209 267h113l-240 -267h-82zM225 0l303 1434h103l-139 -656h870l139 656h103l-304 -1434h-102l143 676h-870l-143 -676h-103z" />
    <glyph glyph-name="Iotatonos" unicode="&#x38a;" horiz-adv-x="552" 
d="M143 1167l209 267h113l-240 -267h-82zM225 0l303 1434h103l-303 -1434h-103z" />
    <glyph glyph-name="Omicrontonos" unicode="&#x38c;" horiz-adv-x="1699" 
d="M225 1167l209 267h113l-240 -267h-82zM1081 1454q185 0 335 -88t232.5 -237.5t82.5 -329.5q0 -168 -69 -321t-181.5 -261.5t-260.5 -172.5t-302 -64q-185 0 -335 88t-232.5 237.5t-82.5 329.5q0 168 69 321t181.5 261.5t260.5 172.5t302 64zM1065 1352q-132 0 -257.5 -54
t-222 -147t-155.5 -227t-59 -283q0 -156 70.5 -283t199.5 -201.5t293 -74.5q131 0 257.5 55t222.5 148.5t155 227t59 280.5q0 156 -70.5 283t-199.5 201.5t-293 74.5z" />
    <glyph glyph-name="Upsilontonos" unicode="&#x38e;" horiz-adv-x="1249" 
d="M4 1167l209 267h113l-240 -267h-82zM557 0l107 502l-336 932h112l287 -820l635 820h133l-729 -932l-107 -502h-102z" />
    <glyph glyph-name="Omegatonos" unicode="&#x38f;" horiz-adv-x="1781" 
d="M276 0l21 102h348q-52 35 -96 79.5t-88.5 110t-70 156.5t-25.5 197q0 168 66.5 320t176 258t254.5 168.5t299 62.5q187 0 336 -86t230 -231.5t81 -321.5q0 -115 -31 -220.5t-78.5 -181.5t-110 -140.5t-118.5 -104t-112 -66.5h250l-21 -102h-481l24 119q84 18 164.5 55.5
t155.5 98t131.5 137t90.5 180t34 219.5q0 152 -70 275.5t-198.5 195.5t-292.5 72q-132 0 -256 -54t-217 -146.5t-149 -225t-56 -279.5q0 -183 86 -311.5t231 -202.5l-26 -133h-482zM297 1167l209 267h112l-239 -267h-82z" />
    <glyph glyph-name="iotadieresistonos" unicode="&#x390;" horiz-adv-x="563" 
d="M399 1157l209 266h113l-240 -266h-82zM301 1282q0 35 23.5 57.5t56.5 22.5q29 0 47 -18.5t18 -45.5q0 -35 -23 -57t-56 -22q-29 0 -47.5 18t-18.5 45zM664 1282q0 35 23 57.5t56 22.5q29 0 47.5 -18.5t18.5 -45.5q0 -34 -23.5 -56.5t-56.5 -22.5q-29 0 -47 18t-18 45z
M223 266l152 717h92l-152 -721q-19 -87 21 -138.5t133 -51.5q48 0 72 8q13 3 28 10l-20 -92q-17 -7 -33 -10q-31 -8 -74 -8q-125 0 -184.5 82.5t-34.5 203.5z" />
    <glyph glyph-name="Alpha" unicode="&#x391;" horiz-adv-x="1372" 
d="M72 0l897 1434h102l291 -1434h-105l-86 420h-716l-262 -420h-121zM518 522h635l-156 768z" />
    <glyph glyph-name="Beta" unicode="&#x392;" horiz-adv-x="1351" 
d="M498 809h481q129 0 214 81.5t85 217.5q0 104 -72.5 163.5t-191.5 59.5h-404zM348 102h512q153 0 250.5 96t97.5 244q0 117 -84.5 191t-222.5 74h-424zM225 0l303 1434h508q152 0 248 -90t96 -230q0 -180 -127 -291q-56 -50 -127 -71q50 -26 93 -72q92 -96 92 -234
q0 -189 -134 -317.5t-331 -128.5h-621z" />
    <glyph glyph-name="Gamma" unicode="&#x393;" horiz-adv-x="1136" 
d="M225 0l303 1434h871l-21 -103h-768l-282 -1331h-103z" />
    <glyph glyph-name="uni0394" unicode="&#x394;" horiz-adv-x="1331" 
d="M72 0l876 1434h103l270 -1434h-1249zM250 102h946l-221 1184z" />
    <glyph glyph-name="Epsilon" unicode="&#x395;" horiz-adv-x="1290" 
d="M225 0l303 1434h963l-21 -103h-860l-114 -532h696l-21 -103h-696l-127 -594h881l-21 -102h-983z" />
    <glyph glyph-name="Zeta" unicode="&#x396;" horiz-adv-x="1177" 
d="M72 0l20 102l1122 1229h-829l21 103h962l-20 -103l-1123 -1229h881l-21 -102h-1013z" />
    <glyph glyph-name="Eta" unicode="&#x397;" horiz-adv-x="1525" 
d="M225 0l303 1434h103l-139 -656h870l139 656h103l-304 -1434h-102l143 676h-870l-143 -676h-103z" />
    <glyph glyph-name="Theta" unicode="&#x398;" horiz-adv-x="1699" 
d="M1081 1454q185 0 335 -88t232.5 -237.5t82.5 -329.5q0 -168 -69 -321t-181.5 -261.5t-260.5 -172.5t-302 -64q-185 0 -335 88t-232.5 237.5t-82.5 329.5q0 168 69 321t181.5 261.5t260.5 172.5t302 64zM1065 1352q-132 0 -257.5 -54t-222 -147t-155.5 -227t-59 -283
q0 -156 70.5 -283t199.5 -201.5t293 -74.5q131 0 257.5 55t222.5 148.5t155 227t59 280.5q0 156 -70.5 283t-199.5 201.5t-293 74.5zM569 666l21 102h840l-21 -102h-840z" />
    <glyph glyph-name="Iota" unicode="&#x399;" horiz-adv-x="552" 
d="M225 0l303 1434h103l-303 -1434h-103z" />
    <glyph glyph-name="Kappa" unicode="&#x39a;" horiz-adv-x="1320" 
d="M225 0l303 1434h103l-187 -881l986 881h137l-670 -598l414 -836h-113l-379 766l-405 -363l-86 -403h-103z" />
    <glyph glyph-name="Lambda" unicode="&#x39b;" horiz-adv-x="1351" 
d="M72 0l886 1434h103l280 -1434h-100l-254 1290l-799 -1290h-116z" />
    <glyph glyph-name="Mu" unicode="&#x39c;" horiz-adv-x="1884" 
d="M225 0l303 1434h72l455 -850l815 850h92l-303 -1434h-103l263 1239l-789 -819l-440 819l-262 -1239h-103z" />
    <glyph glyph-name="Nu" unicode="&#x39d;" horiz-adv-x="1587" 
d="M225 0l303 1434h82l688 -1252l265 1252h102l-303 -1434h-82l-688 1251l-264 -1251h-103z" />
    <glyph glyph-name="Xi" unicode="&#x39e;" horiz-adv-x="1218" 
d="M102 0l21 102h1014l-21 -102h-1014zM406 1331l20 103h973l-21 -103h-972zM444 696l21 103h625l-21 -103h-625z" />
    <glyph glyph-name="Omicron" unicode="&#x39f;" horiz-adv-x="1699" 
d="M1081 1454q185 0 335 -88t232.5 -237.5t82.5 -329.5q0 -168 -69 -321t-181.5 -261.5t-260.5 -172.5t-302 -64q-185 0 -335 88t-232.5 237.5t-82.5 329.5q0 168 69 321t181.5 261.5t260.5 172.5t302 64zM1065 1352q-132 0 -257.5 -54t-222 -147t-155.5 -227t-59 -283
q0 -156 70.5 -283t199.5 -201.5t293 -74.5q131 0 257.5 55t222.5 148.5t155 227t59 280.5q0 156 -70.5 283t-199.5 201.5t-293 74.5z" />
    <glyph glyph-name="Pi" unicode="&#x3a0;" horiz-adv-x="1525" 
d="M225 0l303 1434h1076l-304 -1434h-102l283 1331h-871l-282 -1331h-103z" />
    <glyph glyph-name="Rho" unicode="&#x3a1;" horiz-adv-x="1320" 
d="M225 0l303 1434h486q106 0 197.5 -50.5t147.5 -142.5t56 -203q0 -132 -69.5 -244.5t-185 -176.5t-247.5 -64h-469l-116 -553h-103zM467 655h463q162 0 272.5 107.5t110.5 271.5q0 135 -95 216t-225 81h-383z" />
    <glyph glyph-name="Sigma" unicode="&#x3a3;" horiz-adv-x="1136" 
d="M127 0l16 82l654 666l-383 604l16 82h952l-20 -103h-811l377 -598l-623 -631h795l-21 -102h-952z" />
    <glyph glyph-name="Tau" unicode="&#x3a4;" horiz-adv-x="1116" 
d="M492 0l282 1331h-471l21 103h1044l-20 -103h-471l-283 -1331h-102z" />
    <glyph glyph-name="Upsilon" unicode="&#x3a5;" horiz-adv-x="1228" 
d="M532 0l107 502l-336 932h113l286 -820l635 820h133l-729 -932l-106 -502h-103z" />
    <glyph glyph-name="Phi" unicode="&#x3a6;" horiz-adv-x="1699" 
d="M819 164l234 1106h-62q-174 0 -318 -78.5t-228.5 -221.5t-84.5 -323q0 -191 121.5 -322.5t337.5 -160.5zM1155 1270l-233 -1106h61q130 0 246 46t201 127t134.5 197.5t49.5 251.5q0 193 -121 322.5t-338 161.5zM762 -102l35 163q-250 32 -394.5 193t-144.5 387
q0 208 102.5 376.5t274 261.5t375.5 93h65l35 164h102l-34 -164q249 -32 393.5 -192.5t144.5 -386.5q0 -156 -60 -293.5t-161.5 -233t-239.5 -150.5t-290 -55h-66l-35 -163h-102z" />
    <glyph glyph-name="Chi" unicode="&#x3a7;" horiz-adv-x="1249" 
d="M31 0l690 748l-346 686h112l304 -605l557 605h133l-637 -686l375 -748h-113l-330 666l-612 -666h-133z" />
    <glyph glyph-name="Psi" unicode="&#x3a8;" horiz-adv-x="1638" 
d="M741 0l90 430q-95 13 -173 46.5t-132.5 81t-93.5 108.5t-55.5 131.5t-19 148t15.5 158.5l67 330h103l-76 -347q-16 -84 -14.5 -160t29 -143.5t75 -119t123.5 -86.5t174 -46l190 902h103l-191 -902h54q217 0 359.5 121t189.5 348l90 433h102l-94 -443q-57 -265 -232 -413
t-426 -148h-65l-90 -430h-103z" />
    <glyph glyph-name="uni03A9" unicode="&#x3a9;" horiz-adv-x="1699" 
d="M195 0l20 102h348q-52 35 -96 79.5t-88.5 110t-70 156.5t-25.5 197q0 168 66.5 320t176 258t254.5 168.5t299 62.5q187 0 336 -86t230 -231.5t81 -321.5q0 -115 -31 -220.5t-78.5 -181.5t-110 -140.5t-118.5 -104t-112 -66.5h250l-21 -102h-481l25 119q84 18 164.5 55.5
t155.5 98t131 137t90 180t34 219.5q0 152 -70 275.5t-198.5 195.5t-292.5 72q-132 0 -256 -54t-217 -146.5t-149 -225t-56 -279.5q0 -183 86 -311.5t231 -202.5l-26 -133h-481z" />
    <glyph glyph-name="Iotadieresis" unicode="&#x3aa;" horiz-adv-x="552" 
d="M225 0l303 1434h103l-303 -1434h-103zM369 1753q0 35 23.5 57.5t56.5 22.5q29 0 47 -18.5t18 -45.5q0 -34 -23.5 -56.5t-56.5 -22.5q-29 0 -47 18t-18 45zM727 1753q0 35 23.5 57.5t56.5 22.5q29 0 47 -18.5t18 -45.5q0 -35 -23 -57t-56 -22q-29 0 -47.5 18t-18.5 45z
" />
    <glyph glyph-name="Upsilondieresis" unicode="&#x3ab;" horiz-adv-x="1228" 
d="M532 0l107 502l-336 932h113l286 -820l635 820h133l-729 -932l-106 -502h-103zM645 1753q0 35 23.5 57.5t56.5 22.5q29 0 47.5 -18.5t18.5 -45.5q0 -34 -23.5 -56.5t-56.5 -22.5q-29 0 -47.5 18t-18.5 45zM1004 1753q0 35 23 57.5t56 22.5q29 0 47.5 -18.5t18.5 -45.5
q0 -34 -23.5 -56.5t-56.5 -22.5q-29 0 -47 18t-18 45z" />
    <glyph glyph-name="alphatonos" unicode="&#x3ac;" horiz-adv-x="1228" 
d="M1217 88l-21 -94q-2 -2 -8 -2q-4 -2 -27 -2q-84 0 -134 48t-48 126q-39 -50 -96 -92q-123 -92 -277 -92q-176 0 -293.5 123t-117.5 315q0 126 47.5 237.5t123.5 186.5t171 118.5t190 43.5q182 0 295 -130q49 -55 76 -126l51 235h92l-168 -786q-11 -50 18 -82.5t83 -32.5
q26 0 32 2q2 1 6 2t5 2zM618 72q79 0 156.5 37t138 100.5t97.5 154.5t37 191q0 152 -95 254t-237 102q-79 0 -156.5 -37t-137.5 -100.5t-97 -154.5t-37 -191q0 -152 94.5 -254t236.5 -102zM809 1157l209 266h112l-239 -266h-82z" />
    <glyph glyph-name="epsilontonos" unicode="&#x3ad;" horiz-adv-x="921" 
d="M834 164l49 -66q-43 -37 -92 -59q-112 -59 -250 -59q-91 0 -165.5 24.5t-121 64.5t-71.5 90t-25 103q0 147 133 223q55 32 135 45q-36 14 -66 41q-65 61 -65 146q0 112 98.5 199.5t251.5 87.5q155 0 273 -82q55 -39 90 -80l-86 -64q-27 37 -70 66q-95 67 -221 67
q-109 0 -175.5 -55.5t-66.5 -124.5q0 -70 64 -124t159 -54h127l-20 -92h-189q-118 0 -198 -54.5t-80 -134.5q0 -77 77 -138.5t216 -61.5q109 0 209 45q47 21 80 47zM645 1157l209 266h113l-240 -266h-82z" />
    <glyph glyph-name="etatonos" unicode="&#x3ae;" horiz-adv-x="1167" 
d="M768 1157l209 266h113l-240 -266h-82zM174 0l209 983h92l-29 -139q37 43 89 80q117 80 247 80q80 0 150.5 -34t118.5 -94.5t68 -145.5t-1 -187l-114 -543h-93l119 551q21 98 -6 180t-98 131t-170 49q-78 0 -153 -38.5t-133.5 -117t-80.5 -182.5l-123 -573h-92z" />
    <glyph glyph-name="iotatonos" unicode="&#x3af;" horiz-adv-x="563" 
d="M223 266l152 717h92l-152 -721q-19 -87 21 -138.5t133 -51.5q48 0 72 8q13 3 28 10l-20 -92q-17 -7 -33 -10q-31 -8 -74 -8q-125 0 -184.5 82.5t-34.5 203.5zM410 1157l208 266h113l-239 -266h-82z" />
    <glyph glyph-name="upsilondieresistonos" unicode="&#x3b0;" horiz-adv-x="1167" 
d="M686 1157l209 266h113l-240 -266h-82zM588 1282q0 35 23.5 57.5t56.5 22.5q29 0 47 -18.5t18 -45.5q0 -34 -23.5 -56.5t-56.5 -22.5q-29 0 -47 18t-18 45zM950 1282q0 35 23.5 57.5t56.5 22.5q29 0 47.5 -18.5t18.5 -45.5q0 -34 -23.5 -56.5t-56.5 -22.5q-29 0 -47.5 18
t-18.5 45zM256 442l115 541h92l-117 -551q-22 -100 2 -180.5t97 -130t186 -49.5q128 0 217.5 77.5t118.5 217.5l131 616h92l-133 -627q-38 -178 -156 -277t-285 -99q-84 0 -153 24.5t-113.5 67.5t-73 101.5t-31.5 126t11 142.5z" />
    <glyph glyph-name="alpha" unicode="&#x3b1;" horiz-adv-x="1228" 
d="M1217 88l-21 -94q-2 -2 -8 -2q-4 -2 -27 -2q-84 0 -134 48t-48 126q-39 -50 -96 -92q-123 -92 -277 -92q-176 0 -293.5 123t-117.5 315q0 126 47.5 237.5t123.5 186.5t171 118.5t190 43.5q182 0 295 -130q49 -55 76 -126l51 235h92l-168 -786q-11 -50 18 -82.5t83 -32.5
q26 0 32 2q2 1 6 2t5 2zM618 72q79 0 156.5 37t138 100.5t97.5 154.5t37 191q0 152 -95 254t-237 102q-79 0 -156.5 -37t-137.5 -100.5t-97 -154.5t-37 -191q0 -152 94.5 -254t236.5 -102z" />
    <glyph glyph-name="beta" unicode="&#x3b2;" horiz-adv-x="1142" 
d="M92 -430l330 1556q30 144 140.5 236t266.5 92q159 0 252 -95.5t93 -232.5q0 -162 -138 -274q-57 -49 -135 -76q68 -29 117 -69q119 -103 119 -252q0 -192 -135.5 -323.5t-333.5 -131.5h-392l-92 -430h-92zM297 102h391q149 0 251.5 95t102.5 239q0 120 -83 205.5
t-211 85.5h-134l21 92h121q129 0 227 90t98 207q0 102 -71.5 174t-194.5 72q-115 0 -197 -69t-106 -177z" />
    <glyph glyph-name="gamma" unicode="&#x3b3;" horiz-adv-x="983" 
d="M334 -430l88 416l-193 997h97l163 -860l533 860h108l-618 -997l-88 -416h-90z" />
    <glyph glyph-name="delta" unicode="&#x3b4;" horiz-adv-x="1185" 
d="M479 1341l19 93h747l-18 -93h-545q102 -52 186.5 -118.5t154 -153t108 -198t38.5 -236.5q0 -136 -45 -258.5t-120.5 -209t-178.5 -137t-215 -50.5q-180 0 -297.5 125t-117.5 311q0 108 45 212.5t119 182t173 125t201 47.5q191 0 320 -158q-91 197 -208.5 303t-365.5 213z
M625 72q109 0 211 65.5t164.5 173.5t62.5 224q0 154 -92 255t-244 101q-80 0 -159 -37t-140.5 -98t-100 -148t-38.5 -180q0 -154 92.5 -255t243.5 -101z" />
    <glyph glyph-name="epsilon" unicode="&#x3b5;" horiz-adv-x="921" 
d="M834 164l49 -66q-43 -37 -92 -59q-112 -59 -250 -59q-91 0 -165.5 24.5t-121 64.5t-71.5 90t-25 103q0 147 133 223q55 32 135 45q-36 14 -66 41q-65 61 -65 146q0 112 98.5 199.5t251.5 87.5q155 0 273 -82q55 -39 90 -80l-86 -64q-27 37 -70 66q-95 67 -221 67
q-109 0 -175.5 -55.5t-66.5 -124.5q0 -70 64 -124t159 -54h127l-20 -92h-189q-118 0 -198 -54.5t-80 -134.5q0 -77 77 -138.5t216 -61.5q109 0 209 45q47 21 80 47z" />
    <glyph glyph-name="zeta" unicode="&#x3b6;" horiz-adv-x="962" 
d="M797 -307h-115q31 142 84 225q25 45 51 74l-33 -6q-34 -6 -108 -6q-228 0 -345.5 98t-117.5 254q0 125 54 252t135 229t196 204.5t215.5 173.5t214.5 140h-563l20 103h727l-20 -103q-123 -74 -233.5 -150.5t-232.5 -180t-209 -204t-144.5 -219t-57.5 -229.5
q0 -121 97 -193.5t295 -72.5q81 0 151 12q34 7 53 15l56 -89q-35 -38 -70 -88q-70 -102 -100 -239z" />
    <glyph glyph-name="eta" unicode="&#x3b7;" horiz-adv-x="1167" 
d="M174 0l209 983h92l-29 -139q37 43 89 80q117 80 247 80q80 0 150.5 -34t118.5 -94.5t68 -145.5t-1 -187l-114 -543h-93l119 551q21 98 -6 180t-98 131t-170 49q-78 0 -153 -38.5t-133.5 -117t-80.5 -182.5l-123 -573h-92z" />
    <glyph glyph-name="theta" unicode="&#x3b8;" horiz-adv-x="1208" 
d="M377 758h753l9 61q8 52 8 135q0 204 -83 306t-216 102q-163 0 -292.5 -162t-178.5 -442zM856 1454q169 0 276 -129.5t107 -376.5q0 -132 -26 -268t-78.5 -261.5t-124 -223.5t-169.5 -156.5t-208 -58.5q-169 0 -276 129t-107 376q0 132 26 268t78.5 261.5t124 224
t169.5 157t208 58.5zM1110 666h-754l-8 -58q-6 -52 -6 -129q0 -204 83 -305.5t216 -101.5q161 0 290.5 160.5t178.5 433.5z" />
    <glyph glyph-name="iota" unicode="&#x3b9;" horiz-adv-x="563" 
d="M223 266l152 717h92l-152 -721q-19 -87 21 -138.5t133 -51.5q48 0 72 8q13 3 28 10l-20 -92q-17 -7 -33 -10q-31 -8 -74 -8q-125 0 -184.5 82.5t-34.5 203.5z" />
    <glyph glyph-name="kappa" unicode="&#x3ba;" horiz-adv-x="1003" 
d="M174 0l207 983h92l-123 -584l668 584h127l-457 -401l295 -582h-104l-265 518l-292 -256l-56 -262h-92z" />
    <glyph glyph-name="lambda" unicode="&#x3bb;" horiz-adv-x="962" 
d="M61 0l633 989l-37 209q-11 64 -50 103.5t-105 39.5q-18 0 -60 -6l-22 -4l18 92l23 4q49 7 61 7q92 0 152 -55t82 -183l207 -1196h-99l-147 860l-549 -860h-107z" />
    <glyph glyph-name="uni03BC" unicode="&#x3bc;" horiz-adv-x="1177" 
d="M82 -430l301 1413h92l-119 -551q-33 -146 44.5 -253t230.5 -107q124 0 228.5 91.5t137.5 246.5l123 573h92l-208 -983h-93l29 139q-34 -46 -86 -80q-110 -79 -246 -79q-145 0 -239 90q-44 41 -70 92l-125 -592h-92z" />
    <glyph glyph-name="nu" unicode="&#x3bd;" horiz-adv-x="983" 
d="M420 0l-191 983h99l164 -860l532 860h106l-608 -983h-102z" />
    <glyph glyph-name="xi" unicode="&#x3be;" horiz-adv-x="1013" 
d="M811 -307h-115q32 135 86 229q23 44 49 70l-28 -6q-30 -6 -105 -6q-229 0 -359 108t-130 270q0 126 53.5 214t134.5 139q86 55 191 75q-54 24 -96 62q-97 85 -97 209q0 103 58.5 194t164.5 147t234 56q156 0 268 -65q45 -23 86 -64l-67 -76q-31 31 -72 51
q-102 52 -229 52q-150 0 -245 -82.5t-95 -200.5q0 -108 87.5 -179t235.5 -71h115l-23 -102h-202q-176 0 -289 -101.5t-113 -253.5q0 -122 102.5 -201t293.5 -79q89 0 167 12q32 6 54 15l55 -89q-34 -33 -68 -83q-71 -100 -102 -244z" />
    <glyph glyph-name="omicron" unicode="&#x3bf;" 
d="M752 1004q187 0 311.5 -131.5t124.5 -321.5q0 -117 -48 -224.5t-126 -182.5t-178 -119.5t-203 -44.5q-187 0 -311.5 131.5t-124.5 320.5q0 117 48 224.5t126 183t178 120t203 44.5zM645 72q82 0 163.5 36.5t145 98t103 150.5t39.5 186q0 155 -102 261.5t-255 106.5
q-82 0 -163.5 -36.5t-144.5 -98t-102.5 -150.5t-39.5 -186q0 -155 101.5 -261.5t254.5 -106.5z" />
    <glyph glyph-name="pi" unicode="&#x3c0;" horiz-adv-x="1167" 
d="M174 0l209 983h819l-209 -983h-92l189 891h-635l-189 -891h-92z" />
    <glyph glyph-name="rho" unicode="&#x3c1;" horiz-adv-x="1208" 
d="M82 -430l205 969q28 137 113 245.5t194.5 164t222.5 55.5q164 0 280.5 -130.5t116.5 -318.5q0 -119 -48 -227.5t-124.5 -183.5t-172 -119.5t-189.5 -44.5q-56 0 -106 13.5t-85.5 36t-66 49.5t-49.5 54t-33 49.5t-20 36.5l-5 14l-141 -663h-92zM803 911q-74 0 -151.5 -37
t-140 -99t-102.5 -151.5t-40 -187.5q0 -154 93.5 -259t225.5 -105q74 0 151.5 37t140 99t102.5 151.5t40 187.5q0 154 -93.5 259t-225.5 105z" />
    <glyph glyph-name="sigma1" unicode="&#x3c2;" horiz-adv-x="1064" 
d="M797 -307h-115q18 106 82 219q23 39 57 82q-1 0 -17.5 -3.5t-27.5 -4.5q-46 -6 -137 -6q-194 0 -318 127.5t-124 324.5q0 117 48 224.5t126 183t178 120t203 44.5q162 0 284 -97q55 -46 84 -96l-71 -55q-26 41 -72 78q-97 77 -236 77q-112 0 -216 -61t-170 -170.5
t-66 -239.5q0 -163 101.5 -265.5t275.5 -102.5q103 0 180 18l65 19l56 -89q-33 -33 -68 -83q-71 -100 -102 -244z" />
    <glyph glyph-name="sigma" unicode="&#x3c3;" horiz-adv-x="1218" 
d="M645 72q82 0 163.5 36.5t145 98t103 150.5t39.5 186q0 155 -102 261.5t-255 106.5q-82 0 -163.5 -36.5t-144.5 -98t-102.5 -150.5t-39.5 -186q0 -155 101.5 -261.5t254.5 -106.5zM752 1004h618l-20 -93h-330q46 -37 84 -90q84 -121 84 -270q0 -117 -48 -224.5
t-126 -182.5t-178 -119.5t-203 -44.5q-187 0 -311.5 131.5t-124.5 320.5q0 117 48 224.5t126 183t178 120t203 44.5z" />
    <glyph glyph-name="tau" unicode="&#x3c4;" horiz-adv-x="901" 
d="M444 266l134 625h-369l20 92h830l-21 -92h-368l-133 -629q-19 -88 21 -139t132 -51q48 0 72 8q15 3 29 10l-21 -92q-17 -7 -33 -10q-31 -8 -73 -8q-125 0 -185 82.5t-35 203.5z" />
    <glyph glyph-name="upsilon" unicode="&#x3c5;" horiz-adv-x="1167" 
d="M256 442l115 541h92l-117 -551q-22 -100 2 -180.5t97 -130t186 -49.5q128 0 217.5 77.5t118.5 217.5l131 616h92l-133 -627q-38 -178 -156 -277t-285 -99q-84 0 -153 24.5t-113.5 67.5t-73 101.5t-31.5 126t11 142.5z" />
    <glyph glyph-name="phi" unicode="&#x3c6;" horiz-adv-x="1423" 
d="M565 -428l86 408q-145 19 -249.5 87t-153.5 161.5t-49 201.5q0 94 31.5 178.5t79 142.5t107.5 104.5t113.5 71.5t100.5 36l22 -86q-36 -8 -76 -24.5t-93.5 -52t-94 -82.5t-69.5 -122.5t-29 -165.5q0 -133 100 -233.5t281 -124.5l194 911h37q70 0 139 -16t136.5 -52
t119 -89t83.5 -133t32 -177q0 -98 -43 -193t-119.5 -171.5t-195 -124t-256.5 -47.5h-56l-86 -416zM938 893l-174 -819h49q119 2 216.5 39t160.5 99t97 142.5t34 171.5q0 149 -107.5 249t-275.5 118z" />
    <glyph glyph-name="chi" unicode="&#x3c7;" horiz-adv-x="901" 
d="M20 0l478 512l-238 471h105l200 -399l373 399h121l-438 -471l260 -512h-105l-225 440l-410 -440h-121z" />
    <glyph glyph-name="psi" unicode="&#x3c8;" horiz-adv-x="1464" 
d="M582 -430l86 410q-232 38 -334 196t-51 397l88 410h92l-88 -410q-42 -202 34.5 -333t278.5 -168l195 911h92l-195 -911q119 0 208 30.5t149 90.5t97 137t60 182l101 471h92l-101 -471q-21 -95 -52 -171.5t-82 -145.5t-118 -115t-162 -73t-212 -27l-86 -410h-92z" />
    <glyph glyph-name="omega" unicode="&#x3c9;" horiz-adv-x="1628" 
d="M862 461l41 194h92l-30 -145q-43 -200 13.5 -319t190.5 -119q56 0 117.5 33t116 92t90 155t35.5 209q0 125 -45.5 221t-93.5 140l67 65q62 -46 114 -150.5t52 -248.5q0 -111 -28.5 -210.5t-76 -170.5t-108 -123.5t-125.5 -78t-127 -25.5q-159 0 -237 126q-37 60 -46 130
q-39 -84 -83 -130q-114 -126 -269 -126q-138 0 -230.5 105t-92.5 280q0 112 30.5 214t75.5 172.5t100.5 127.5t100 87.5t80.5 45.5l37 -78q-28 -14 -64 -41t-85 -78.5t-88.5 -112t-67 -147.5t-27.5 -180q0 -143 69 -223t170 -80q113 0 201.5 96t130.5 293z" />
    <glyph glyph-name="iotadieresis" unicode="&#x3ca;" horiz-adv-x="563" 
d="M223 266l152 717h92l-152 -721q-19 -87 21 -138.5t133 -51.5q48 0 72 8q13 3 28 10l-20 -92q-17 -7 -33 -10q-31 -8 -74 -8q-125 0 -184.5 82.5t-34.5 203.5zM215 1282q0 35 23.5 57.5t56.5 22.5q29 0 47 -18.5t18 -45.5q0 -35 -23 -57t-56 -22q-29 0 -47.5 18t-18.5 45z
M573 1282q0 35 23.5 57.5t56.5 22.5q29 0 47.5 -18.5t18.5 -45.5q0 -34 -23.5 -56.5t-56.5 -22.5q-29 0 -47.5 18t-18.5 45z" />
    <glyph glyph-name="upsilondieresis" unicode="&#x3cb;" horiz-adv-x="1167" 
d="M256 442l115 541h92l-117 -551q-22 -100 2 -180.5t97 -130t186 -49.5q128 0 217.5 77.5t118.5 217.5l131 616h92l-133 -627q-38 -178 -156 -277t-285 -99q-84 0 -153 24.5t-113.5 67.5t-73 101.5t-31.5 126t11 142.5zM573 1282q0 35 23.5 57.5t56.5 22.5q29 0 47.5 -18.5
t18.5 -45.5q0 -34 -23.5 -56.5t-56.5 -22.5q-29 0 -47.5 18t-18.5 45zM932 1282q0 35 23.5 57.5t56.5 22.5q29 0 47 -18.5t18 -45.5q0 -34 -23.5 -56.5t-56.5 -22.5q-29 0 -47 18t-18 45z" />
    <glyph glyph-name="omicrontonos" unicode="&#x3cc;" 
d="M768 1157l209 266h113l-240 -266h-82zM752 1004q187 0 311.5 -131.5t124.5 -321.5q0 -117 -48 -224.5t-126 -182.5t-178 -119.5t-203 -44.5q-187 0 -311.5 131.5t-124.5 320.5q0 117 48 224.5t126 183t178 120t203 44.5zM645 72q82 0 163.5 36.5t145 98t103 150.5
t39.5 186q0 155 -102 261.5t-255 106.5q-82 0 -163.5 -36.5t-144.5 -98t-102.5 -150.5t-39.5 -186q0 -155 101.5 -261.5t254.5 -106.5z" />
    <glyph glyph-name="upsilontonos" unicode="&#x3cd;" horiz-adv-x="1167" 
d="M256 442l115 541h92l-117 -551q-22 -100 2 -180.5t97 -130t186 -49.5q128 0 217.5 77.5t118.5 217.5l131 616h92l-133 -627q-38 -178 -156 -277t-285 -99q-84 0 -153 24.5t-113.5 67.5t-73 101.5t-31.5 126t11 142.5zM727 1157l209 266h113l-240 -266h-82z" />
    <glyph glyph-name="omegatonos" unicode="&#x3ce;" horiz-adv-x="1628" 
d="M862 461l41 194h92l-30 -145q-43 -200 13.5 -319t190.5 -119q56 0 117.5 33t116 92t90 155t35.5 209q0 125 -45.5 221t-93.5 140l67 65q62 -46 114 -150.5t52 -248.5q0 -111 -28.5 -210.5t-76 -170.5t-108 -123.5t-125.5 -78t-127 -25.5q-159 0 -237 126q-37 60 -46 130
q-39 -84 -83 -130q-114 -126 -269 -126q-138 0 -230.5 105t-92.5 280q0 112 30.5 214t75.5 172.5t100.5 127.5t100 87.5t80.5 45.5l37 -78q-28 -14 -64 -41t-85 -78.5t-88.5 -112t-67 -147.5t-27.5 -180q0 -143 69 -223t170 -80q113 0 201.5 96t130.5 293zM983 1157l209 266
h113l-240 -266h-82z" />
    <glyph glyph-name="uni0400" unicode="&#x400;" horiz-adv-x="1290" 
d="M993 1628l-129 266h113l98 -266h-82zM225 0l303 1434h963l-21 -103h-860l-114 -532h696l-21 -103h-696l-127 -594h881l-21 -102h-983z" />
    <glyph glyph-name="uni0401" unicode="&#x401;" horiz-adv-x="1290" 
d="M807 1753q0 35 23.5 57.5t56.5 22.5q29 0 47 -18.5t18 -45.5q0 -34 -23.5 -56.5t-56.5 -22.5q-29 0 -47 18t-18 45zM1165 1753q0 35 23.5 57.5t56.5 22.5q29 0 47.5 -18.5t18.5 -45.5q0 -34 -23.5 -56.5t-56.5 -22.5q-29 0 -47.5 18t-18.5 45zM225 0l303 1434h963
l-21 -103h-860l-114 -532h696l-21 -103h-696l-127 -594h881l-21 -102h-983z" />
    <glyph glyph-name="uni0402" unicode="&#x402;" horiz-adv-x="1443" 
d="M369 0l282 1331h-379l21 103h860l-20 -103h-379l-111 -516q61 31 102 47q123 49 254 49q180 0 289 -104.5t109 -282.5q0 -125 -40 -229.5t-108 -172.5t-156.5 -105t-187.5 -37h-61l22 102h49q154 0 265.5 116.5t111.5 311.5q0 144 -83 221.5t-218 77.5q-137 0 -266 -59
q-63 -26 -109 -58l-145 -692h-102z" />
    <glyph glyph-name="uni0403" unicode="&#x403;" horiz-adv-x="1136" 
d="M225 0l303 1434h871l-21 -103h-768l-282 -1331h-103zM942 1628l209 266h113l-240 -266h-82z" />
    <glyph glyph-name="uni0404" unicode="&#x404;" horiz-adv-x="1536" 
d="M385 778h791l-21 -102h-784v-37q0 -153 68.5 -279t199 -202t297.5 -76q194 0 364 106q77 47 136 109l57 -72q-69 -69 -160 -123q-194 -122 -413 -122q-141 0 -263 51.5t-207 140t-133.5 209t-48.5 254.5q0 167 69 320.5t181.5 262t260 172.5t300.5 64q234 0 424 -158
q84 -75 133 -157l-86 -56q-47 79 -110 134q-159 135 -377 135q-127 0 -245 -48t-205 -128t-147 -183.5t-81 -214.5z" />
    <glyph glyph-name="uni0405" unicode="&#x405;" horiz-adv-x="1146" 
d="M154 246l84 65q34 -64 90 -114q133 -115 336 -115q158 0 259 87t101 224q0 55 -28 100.5t-74.5 76.5t-105.5 62.5t-120.5 56.5t-120.5 59.5t-105.5 72t-74.5 93t-28 122.5q0 111 59.5 206.5t168.5 153.5t243 58q186 0 331 -111q61 -49 99 -108l-88 -66q-25 49 -80 91
q-112 92 -281 92q-152 0 -250 -84t-98 -209q0 -55 28 -100.5t74 -76.5t105 -62.5t120.5 -57t120.5 -60.5t105 -72.5t74 -93.5t28 -124q0 -185 -136.5 -308.5t-344.5 -123.5q-236 0 -385 133q-66 57 -106 133z" />
    <glyph glyph-name="uni0406" unicode="&#x406;" horiz-adv-x="552" 
d="M225 0l303 1434h103l-303 -1434h-103z" />
    <glyph glyph-name="uni0407" unicode="&#x407;" horiz-adv-x="552" 
d="M225 0l303 1434h103l-303 -1434h-103zM379 1753q0 35 23.5 57.5t56.5 22.5q29 0 47 -18.5t18 -45.5q0 -34 -23.5 -56.5t-56.5 -22.5q-29 0 -47 18t-18 45zM737 1753q0 35 23.5 57.5t56.5 22.5q29 0 47.5 -18.5t18.5 -45.5q0 -34 -23.5 -56.5t-56.5 -22.5q-29 0 -47.5 18
t-18.5 45z" />
    <glyph glyph-name="uni0408" unicode="&#x408;" horiz-adv-x="993" 
d="M47 166l82 67q21 -39 64 -75q92 -76 217 -76q130 0 225.5 81.5t124.5 221.5l221 1049h102l-223 -1059q-36 -177 -168 -286t-301 -109q-154 0 -262 92q-44 36 -82 94z" />
    <glyph glyph-name="uni0409" unicode="&#x409;" horiz-adv-x="2191" 
d="M-8 20l18 95l43 -17q50 -16 84 -16q45 0 85 20.5t87 79t90.5 155.5t91.5 258t93 378l96 461h850l-117 -553h336q175 0 297.5 -113t122.5 -281q0 -133 -68.5 -245.5t-183.5 -177t-248 -64.5h-545l283 1331h-645l-78 -368q-50 -236 -104 -412t-106 -284t-110 -173.5
t-110.5 -89.5t-112.5 -24q-52 0 -106 20q-32 14 -43 20zM1247 102h434q160 0 272.5 108.5t112.5 270.5q0 131 -89 214t-228 83h-358z" />
    <glyph glyph-name="uni040A" unicode="&#x40a;" horiz-adv-x="2181" 
d="M225 0l303 1434h103l-117 -553h789l116 553h103l-117 -553h336q175 0 297.5 -113t122.5 -281q0 -133 -68.5 -245.5t-183.5 -177t-248 -64.5h-545l164 778h-788l-164 -778h-103zM1239 102h434q160 0 272.5 108.5t112.5 270.5q0 131 -89 214t-228 83h-359z" />
    <glyph glyph-name="uni040B" unicode="&#x40b;" horiz-adv-x="1464" 
d="M369 0l282 1331h-379l21 103h860l-20 -103h-379l-111 -516q61 31 102 47q123 49 254 49q88 0 161.5 -26t122 -71.5t80 -107t36 -132.5t-9.5 -148l-89 -426h-102l88 428q35 160 -46.5 270.5t-248.5 110.5q-137 0 -266 -59q-63 -26 -109 -58l-145 -692h-102z" />
    <glyph glyph-name="uni040C" unicode="&#x40c;" horiz-adv-x="1320" 
d="M993 1628l209 266h113l-240 -266h-82zM225 0l303 1434h103l-187 -881l986 881h137l-670 -598l414 -836h-113l-379 766l-405 -363l-86 -403h-103z" />
    <glyph glyph-name="uni040D" unicode="&#x40d;" horiz-adv-x="1587" 
d="M225 0l303 1434h103l-260 -1231l1212 1231h82l-303 -1434h-102l260 1231l-1213 -1231h-82zM1096 1628l-129 266h112l99 -266h-82z" />
    <glyph glyph-name="uni040E" unicode="&#x40e;" horiz-adv-x="1228" 
d="M123 4l20 102l39 -12q46 -12 86 -12q87 0 150.5 49t148.5 166l92 129l-325 1008h106l291 -902l621 902h118l-784 -1137q-112 -166 -210 -241.5t-226 -75.5q-36 0 -86 12zM678 1894h90v-20q0 -67 44 -110.5t116 -43.5t124.5 45.5t65.5 128.5h94q-24 -127 -104 -196.5
t-186 -69.5q-110 0 -177 65.5t-67 168.5v32z" />
    <glyph glyph-name="uni040F" unicode="&#x40f;" horiz-adv-x="1515" 
d="M225 0l303 1434h103l-283 -1332h860l283 1332h102l-303 -1434h-481l-66 -307h-102l66 307h-482z" />
    <glyph glyph-name="uni0410" unicode="&#x410;" horiz-adv-x="1372" 
d="M72 0l897 1434h102l291 -1434h-105l-86 420h-716l-262 -420h-121zM518 522h635l-156 768z" />
    <glyph glyph-name="uni0411" unicode="&#x411;" horiz-adv-x="1320" 
d="M348 102h473q156 0 260.5 101.5t104.5 255.5q0 128 -90.5 203t-225.5 75h-387zM225 0l303 1434h861l-21 -103h-758l-104 -491h385q168 0 283.5 -108t115.5 -267q0 -128 -65.5 -235t-176.5 -168.5t-241 -61.5h-582z" />
    <glyph glyph-name="uni0412" unicode="&#x412;" horiz-adv-x="1351" 
d="M498 809h481q129 0 214 81.5t85 217.5q0 104 -72.5 163.5t-191.5 59.5h-404zM348 102h512q153 0 250.5 96t97.5 244q0 117 -84.5 191t-222.5 74h-424zM225 0l303 1434h508q152 0 248 -90t96 -230q0 -180 -127 -291q-56 -50 -127 -71q50 -26 93 -72q92 -96 92 -234
q0 -189 -134 -317.5t-331 -128.5h-621z" />
    <glyph glyph-name="uni0413" unicode="&#x413;" horiz-adv-x="1136" 
d="M225 0l303 1434h871l-21 -103h-768l-282 -1331h-103z" />
    <glyph glyph-name="uni0414" unicode="&#x414;" horiz-adv-x="1433" 
d="M-53 -307l84 409h82q84 64 170 189q184 267 278 713l90 430h850l-282 -1332h184l-86 -409h-103l66 307h-1167l-66 -307h-100zM233 102h883l262 1229h-645l-71 -342q-86 -409 -269 -698q-80 -121 -160 -189z" />
    <glyph glyph-name="uni0415" unicode="&#x415;" horiz-adv-x="1290" 
d="M225 0l303 1434h963l-21 -103h-860l-114 -532h696l-21 -103h-696l-127 -594h881l-21 -102h-983z" />
    <glyph glyph-name="uni0416" unicode="&#x416;" horiz-adv-x="1863" 
d="M0 0l778 846l-413 588h122l535 -768l162 768h102l-162 -768l858 768h138l-670 -598l414 -836h-113l-381 764l-278 -250l-109 -514h-102l112 532l-157 236l-707 -768h-129z" />
    <glyph glyph-name="uni0417" unicode="&#x417;" horiz-adv-x="1167" 
d="M133 248l84 63q33 -62 88 -114q127 -115 328 -115q174 0 282.5 97t108.5 235q0 122 -96.5 207.5t-251.5 85.5h-148l21 102h229q160 0 255 83.5t95 205.5q0 107 -89.5 180.5t-252.5 73.5q-121 0 -243 -64q-46 -23 -92 -63l-56 75q49 43 111 76q144 78 291 78
q201 0 317.5 -102.5t116.5 -249.5q0 -199 -168 -301q-75 -47 -168 -62q66 -24 117 -67q118 -98 118 -246q0 -86 -38 -167t-104.5 -142.5t-163 -99t-206.5 -37.5q-229 0 -378 133q-66 57 -107 135z" />
    <glyph glyph-name="uni0418" unicode="&#x418;" horiz-adv-x="1587" 
d="M225 0l303 1434h103l-260 -1231l1212 1231h82l-303 -1434h-102l260 1231l-1213 -1231h-82z" />
    <glyph glyph-name="uni0419" unicode="&#x419;" horiz-adv-x="1587" 
d="M225 0l303 1434h103l-260 -1231l1212 1231h82l-303 -1434h-102l260 1231l-1213 -1231h-82zM903 1894h90v-20q0 -67 44 -110.5t116 -43.5t124.5 45.5t65.5 128.5h95q-24 -127 -104 -196.5t-187 -69.5q-110 0 -177 65.5t-67 168.5v32z" />
    <glyph glyph-name="uni041A" unicode="&#x41a;" horiz-adv-x="1320" 
d="M225 0l303 1434h103l-187 -881l986 881h137l-670 -598l414 -836h-113l-379 766l-405 -363l-86 -403h-103z" />
    <glyph glyph-name="uni041B" unicode="&#x41b;" horiz-adv-x="1495" 
d="M-8 20l18 95l43 -17q50 -16 84 -16q45 0 85 20.5t87 79t90.5 155.5t91.5 258t93 378l96 461h891l-303 -1434h-103l283 1331h-686l-78 -368q-50 -236 -104 -412t-106 -284t-110 -173.5t-110.5 -89.5t-112.5 -24q-52 0 -106 20q-32 14 -43 20z" />
    <glyph glyph-name="uni041C" unicode="&#x41c;" horiz-adv-x="1884" 
d="M225 0l303 1434h72l455 -850l815 850h92l-303 -1434h-103l263 1239l-789 -819l-440 819l-262 -1239h-103z" />
    <glyph glyph-name="uni041D" unicode="&#x41d;" horiz-adv-x="1525" 
d="M225 0l303 1434h103l-139 -656h870l139 656h103l-304 -1434h-102l143 676h-870l-143 -676h-103z" />
    <glyph glyph-name="uni041E" unicode="&#x41e;" horiz-adv-x="1699" 
d="M1081 1454q185 0 335 -88t232.5 -237.5t82.5 -329.5q0 -168 -69 -321t-181.5 -261.5t-260.5 -172.5t-302 -64q-185 0 -335 88t-232.5 237.5t-82.5 329.5q0 168 69 321t181.5 261.5t260.5 172.5t302 64zM1065 1352q-132 0 -257.5 -54t-222 -147t-155.5 -227t-59 -283
q0 -156 70.5 -283t199.5 -201.5t293 -74.5q131 0 257.5 55t222.5 148.5t155 227t59 280.5q0 156 -70.5 283t-199.5 201.5t-293 74.5z" />
    <glyph glyph-name="uni041F" unicode="&#x41f;" horiz-adv-x="1525" 
d="M225 0l303 1434h1076l-304 -1434h-102l283 1331h-871l-282 -1331h-103z" />
    <glyph glyph-name="uni0420" unicode="&#x420;" horiz-adv-x="1320" 
d="M225 0l303 1434h486q106 0 197.5 -50.5t147.5 -142.5t56 -203q0 -132 -69.5 -244.5t-185 -176.5t-247.5 -64h-469l-116 -553h-103zM467 655h463q162 0 272.5 107.5t110.5 271.5q0 135 -95 216t-225 81h-383z" />
    <glyph glyph-name="uni0421" unicode="&#x421;" horiz-adv-x="1536" 
d="M1436 297l57 -72q-72 -72 -158 -123q-194 -122 -415 -122q-141 0 -263 51.5t-207 139t-133.5 208t-48.5 254.5q0 135 44.5 262t123 227t180 175.5t221.5 116t242 40.5q234 0 424 -158q84 -75 133 -157l-86 -56q-47 79 -110 134q-159 135 -377 135q-132 0 -257.5 -54.5
t-221.5 -148t-154.5 -227.5t-58.5 -283q0 -157 70.5 -283.5t200 -200t294.5 -73.5q194 0 364 106q77 47 136 109z" />
    <glyph glyph-name="uni0422" unicode="&#x422;" horiz-adv-x="1116" 
d="M492 0l282 1331h-471l21 103h1044l-20 -103h-471l-283 -1331h-102z" />
    <glyph glyph-name="uni0423" unicode="&#x423;" horiz-adv-x="1228" 
d="M123 4l20 102l39 -12q46 -12 86 -12q87 0 150.5 49t148.5 166l92 129l-325 1008h106l291 -902l621 902h118l-784 -1137q-112 -166 -210 -241.5t-226 -75.5q-36 0 -86 12z" />
    <glyph glyph-name="uni0424" unicode="&#x424;" horiz-adv-x="1720" 
d="M856 256l205 963h-57q-145 0 -266 -40.5t-201.5 -110t-125 -162t-44.5 -197.5q0 -172 126.5 -297t362.5 -156zM793 -41l41 195q-268 36 -419 188t-151 356q0 119 52.5 230.5t147.5 199t240.5 140.5t317.5 53h61l33 154h103l-33 -154q268 -36 418.5 -188.5t150.5 -356.5
q0 -119 -52.5 -230t-147.5 -198.5t-240.5 -140.5t-317.5 -53h-61l-41 -195h-102zM1163 1219l-205 -963h58q145 0 266 40.5t201.5 110t125 162t44.5 197.5q0 172 -127 297t-363 156z" />
    <glyph glyph-name="uni0425" unicode="&#x425;" horiz-adv-x="1249" 
d="M31 0l690 748l-346 686h112l304 -605l557 605h133l-637 -686l375 -748h-113l-330 666l-612 -666h-133z" />
    <glyph glyph-name="uni0426" unicode="&#x426;" horiz-adv-x="1525" 
d="M225 0l303 1434h103l-283 -1332h850l283 1332h102l-283 -1332h185l-86 -409h-103l66 307h-1137z" />
    <glyph glyph-name="uni0427" unicode="&#x427;" horiz-adv-x="1423" 
d="M1083 0l131 616q-60 -37 -106 -53q-125 -51 -264 -51q-84 0 -156.5 20t-124.5 56t-91.5 86t-58 109.5t-23 126.5t12.5 137l82 387h103l-84 -408q-39 -190 62.5 -301t291.5 -111q134 0 270 62q61 28 111 61l147 697h103l-303 -1434h-103z" />
    <glyph glyph-name="uni0428" unicode="&#x428;" horiz-adv-x="2068" 
d="M225 0l303 1434h103l-283 -1332h656l282 1332h103l-283 -1332h655l283 1332h102l-303 -1434h-1618z" />
    <glyph glyph-name="uni0429" unicode="&#x429;" horiz-adv-x="2088" 
d="M225 0l303 1434h103l-283 -1332h656l282 1332h103l-283 -1332h655l283 1332h102l-282 -1332h184l-86 -409h-102l65 307h-1700z" />
    <glyph glyph-name="uni042A" unicode="&#x42a;" horiz-adv-x="1423" 
d="M348 0l283 1331h-359l21 103h461l-117 -553h346q175 0 297.5 -113t122.5 -281q0 -133 -68.5 -245.5t-183.5 -177t-248 -64.5h-555zM471 102h444q160 0 272.5 108.5t112.5 270.5q0 131 -89 214t-228 83h-369z" />
    <glyph glyph-name="uni042B" unicode="&#x42b;" horiz-adv-x="1771" 
d="M348 102h445q160 0 272.5 108.5t112.5 270.5q0 130 -89 213.5t-229 83.5h-368zM225 0l303 1434h103l-117 -553h346q175 0 297.5 -113t122.5 -281q0 -133 -68.5 -245.5t-183.5 -177t-248 -64.5h-555zM1444 0l303 1434h102l-303 -1434h-102z" />
    <glyph glyph-name="uni042C" unicode="&#x42c;" horiz-adv-x="1320" 
d="M348 102h465q160 0 272.5 108.5t112.5 270.5q0 131 -89 214t-228 83h-389zM225 0l303 1434h103l-117 -553h367q175 0 297 -112.5t122 -281.5q0 -133 -68 -245.5t-183 -177t-248 -64.5h-576z" />
    <glyph glyph-name="uni042D" unicode="&#x42d;" horiz-adv-x="1525" 
d="M188 295l86 55q44 -76 111 -135q156 -133 377 -133q131 0 252.5 51.5t209 135t146 190t74.5 217.5h-791l21 102h780v17q0 153 -68.5 279t-199 202t-297.5 76q-191 0 -365 -109q-74 -45 -135 -106l-57 71q69 69 160 123q195 123 413 123q187 0 337 -88t232 -237.5
t82 -329.5q0 -167 -69 -320.5t-181.5 -262t-260 -172.5t-300.5 -64q-246 0 -423 157q-81 69 -134 158z" />
    <glyph glyph-name="uni042E" unicode="&#x42e;" horiz-adv-x="2129" 
d="M225 0l303 1434h103l-139 -656h303q38 193 156 349t280.5 241.5t333.5 85.5q127 0 239 -50t192 -135.5t126.5 -204t46.5 -251.5q0 -172 -68.5 -329.5t-178.5 -266t-250.5 -173t-282.5 -64.5q-127 0 -240 48.5t-194 133t-128 204t-47 255.5v55h-309l-143 -676h-103z
M1399 82q122 0 241.5 54.5t214 148.5t153 231.5t58.5 292.5q0 235 -146.5 389t-369.5 154q-122 0 -241.5 -54.5t-214 -148.5t-153 -231.5t-58.5 -292.5q0 -235 146.5 -389t369.5 -154z" />
    <glyph glyph-name="uni042F" unicode="&#x42f;" horiz-adv-x="1341" 
d="M737 696h424l135 635h-499q-150 0 -254.5 -101.5t-104.5 -254.5q0 -122 84.5 -200.5t214.5 -78.5zM102 0l484 623q-73 25 -125 71q-125 109 -125 273q0 195 140.5 331t338.5 136h604l-303 -1434h-102l125 594h-461l-463 -594h-113z" />
    <glyph glyph-name="uni0430" unicode="&#x430;" horiz-adv-x="1034" 
d="M791 0l30 147q-45 -52 -90 -84q-114 -83 -254 -83q-144 0 -230.5 77t-86.5 185q0 112 80 194.5t243 110.5l437 67q18 132 -49.5 214.5t-200.5 82.5q-109 0 -199 -57q-47 -26 -78 -57l-49 67q38 38 94 70q118 70 242 70q179 0 270 -121t54 -308l-121 -575h-92zM877 401
l24 121l-393 -63q-254 -41 -254 -207q0 -76 63 -128t175 -52q136 0 246.5 94.5t138.5 234.5z" />
    <glyph glyph-name="uni0431" unicode="&#x431;" horiz-adv-x="1167" 
d="M1262 1479l34 -78q-36 -22 -86 -39q-97 -35 -303 -55q-202 -18 -339.5 -155t-209.5 -407q47 59 109 109q143 109 287 109q172 0 287.5 -125.5t115.5 -305.5q0 -114 -45.5 -218t-119 -176t-167.5 -114t-190 -42q-178 0 -293 128.5t-115 352.5q0 73 12 154.5t38.5 170.5
t64.5 173t95 161.5t126 136.5t160.5 97t194.5 45q147 7 262 45q20 6 82 33zM643 72q76 0 152 35t135 94t96 144t37 177q0 148 -92.5 248t-229.5 100q-76 0 -151.5 -35t-135 -94t-96 -144t-36.5 -177q0 -148 92.5 -248t228.5 -100z" />
    <glyph glyph-name="uni0432" unicode="&#x432;" horiz-adv-x="1034" 
d="M385 563h367q87 0 143.5 51t56.5 127q0 67 -49 108.5t-133 41.5h-315zM285 92h397q103 0 161 59t58 160q0 74 -51.5 117t-142.5 43h-342zM174 0l209 983h405q115 0 185.5 -65.5t70.5 -165.5q0 -119 -94 -197q-36 -30 -94 -47q36 -15 68 -43q67 -63 67 -158
q0 -136 -88.5 -221.5t-228.5 -85.5h-500z" />
    <glyph glyph-name="uni0433" unicode="&#x433;" horiz-adv-x="839" 
d="M174 0l209 983h625l-21 -92h-532l-189 -891h-92z" />
    <glyph glyph-name="uni0434" unicode="&#x434;" horiz-adv-x="1105" 
d="M-41 -246l70 338h82q51 51 116 146q131 204 187 458l61 287h645l-190 -891h153l-71 -338h-92l53 246h-871l-53 -246h-90zM221 92h617l170 799h-461l-41 -195q-59 -263 -176 -458q-54 -88 -109 -146z" />
    <glyph glyph-name="uni0435" unicode="&#x435;" horiz-adv-x="1126" 
d="M944 213l55 -68q-48 -48 -104 -84q-130 -81 -272 -81q-182 0 -304 129.5t-122 320.5q0 122 47 231t122.5 183t171.5 117t193 43q174 0 286.5 -118t112.5 -308q0 -20 -6 -89l-6 -38h-831v-13q0 -156 98.5 -261t251.5 -105q115 0 223 69q43 28 84 72zM301 543h739v24
q0 153 -85 248.5t-230 95.5q-90 0 -180 -46.5t-157.5 -132.5t-86.5 -189z" />
    <glyph glyph-name="uni0436" unicode="&#x436;" horiz-adv-x="1423" 
d="M10 0l549 590l-278 393h112l369 -522l112 522h93l-113 -522l594 522h127l-457 -403l295 -580h-102l-264 516l-220 -192l-69 -324h-92l71 338l-127 178l-477 -516h-123z" />
    <glyph glyph-name="uni0437" unicode="&#x437;" horiz-adv-x="870" 
d="M113 193l73 55q25 -48 68 -88q88 -88 229 -88q118 0 189 59.5t71 142.5q0 75 -61 131t-170 56h-98l20 92h137q98 0 164 54t66 136q0 68 -58.5 118t-162.5 50q-93 0 -177 -49q-28 -15 -67 -47l-55 78q42 34 86 55q114 56 223 56q140 0 222.5 -72.5t82.5 -175.5
q0 -139 -113 -211q-52 -32 -110 -43q36 -14 82 -47q84 -68 84 -168q0 -127 -103 -217t-260 -90q-179 0 -285 106q-49 46 -77 107z" />
    <glyph glyph-name="uni0438" unicode="&#x438;" horiz-adv-x="1177" 
d="M174 0l209 983h92l-176 -819l831 819h82l-208 -983h-93l174 819l-829 -819h-82z" />
    <glyph glyph-name="uni0439" unicode="&#x439;" horiz-adv-x="1177" 
d="M174 0l209 983h92l-176 -819l831 819h82l-208 -983h-93l174 819l-829 -819h-82zM592 1421h80v-24q0 -73 45.5 -116.5t128.5 -43.5q76 0 129.5 47t66.5 137h84q-24 -125 -104.5 -195.5t-185.5 -70.5q-110 0 -177 64t-67 172v30z" />
    <glyph glyph-name="uni043A" unicode="&#x43a;" horiz-adv-x="1003" 
d="M174 0l207 983h92l-123 -584l668 584h127l-457 -401l295 -582h-104l-265 518l-292 -256l-56 -262h-92z" />
    <glyph glyph-name="uni043B" unicode="&#x43b;" horiz-adv-x="1136" 
d="M0 12l18 88q9 -7 27 -14q25 -14 68 -14q40 0 74.5 25.5t73 89t78 186t79.5 303.5l65 307h686l-208 -983h-93l189 891h-502l-47 -225q-34 -163 -72 -285t-76 -197.5t-80.5 -122t-82 -64t-84.5 -17.5q-36 0 -82 16q-29 14 -31 16z" />
    <glyph glyph-name="uni043C" unicode="&#x43c;" horiz-adv-x="1331" 
d="M174 0l209 983h61l301 -553l539 553h82l-209 -983h-92l168 799l-508 -512l-291 512l-168 -799h-92z" />
    <glyph glyph-name="uni043D" unicode="&#x43d;" horiz-adv-x="1167" 
d="M174 0l209 983h92l-94 -440h635l94 440h92l-209 -983h-92l94 451h-635l-94 -451h-92z" />
    <glyph glyph-name="uni043E" unicode="&#x43e;" 
d="M752 1004q187 0 311.5 -131.5t124.5 -321.5q0 -117 -48 -224.5t-126 -182.5t-178 -119.5t-203 -44.5q-187 0 -311.5 131.5t-124.5 320.5q0 117 48 224.5t126 183t178 120t203 44.5zM645 72q82 0 163.5 36.5t145 98t103 150.5t39.5 186q0 155 -102 261.5t-255 106.5
q-82 0 -163.5 -36.5t-144.5 -98t-102.5 -150.5t-39.5 -186q0 -155 101.5 -261.5t254.5 -106.5z" />
    <glyph glyph-name="uni043F" unicode="&#x43f;" horiz-adv-x="1167" 
d="M174 0l209 983h819l-209 -983h-92l189 891h-635l-189 -891h-92z" />
    <glyph glyph-name="uni0440" unicode="&#x440;" horiz-adv-x="1208" 
d="M82 -430l301 1413h92l-35 -156q39 44 99 88q130 89 270 89q177 0 294.5 -123t117.5 -316q0 -125 -47 -236.5t-122.5 -186.5t-170.5 -118.5t-191 -43.5q-185 0 -299 126q-51 54 -76 130l-141 -666h-92zM700 72q79 0 156.5 37t137.5 100.5t97 154.5t37 191q0 152 -94.5 254
t-236.5 102q-79 0 -156.5 -37t-137.5 -100.5t-97 -154.5t-37 -191q0 -152 94.5 -254t236.5 -102z" />
    <glyph glyph-name="uni0441" unicode="&#x441;" horiz-adv-x="1054" 
d="M942 213l57 -68q-48 -48 -104 -84q-130 -81 -272 -81q-182 0 -304 129t-122 319q0 118 48 226t124.5 184t175 121t198.5 45q166 0 285 -111q53 -50 88 -109l-84 -51q-23 42 -69 88q-90 90 -228 90q-79 0 -159.5 -36.5t-143.5 -98t-103 -150.5t-40 -186
q0 -159 99.5 -263.5t246.5 -104.5q115 0 223 69q43 28 84 72z" />
    <glyph glyph-name="uni0442" unicode="&#x442;" horiz-adv-x="901" 
d="M389 0l189 891h-369l20 92h830l-21 -92h-368l-189 -891h-92z" />
    <glyph glyph-name="uni0443" unicode="&#x443;" horiz-adv-x="983" 
d="M-16 -406l22 93l29 -13q36 -12 67 -12q60 0 106 36.5t95 117.5l115 188l-189 979h99l164 -860l532 860h106l-720 -1167q-81 -133 -151.5 -189.5t-162.5 -56.5q-36 0 -82 12z" />
    <glyph glyph-name="uni0444" unicode="&#x444;" horiz-adv-x="1423" 
d="M565 -430l86 410q-211 24 -332.5 149.5t-121.5 306.5q0 157 80 287.5t217.5 205.5t302.5 75h73l91 430h92l-90 -430q211 -24 332.5 -150t121.5 -307q0 -157 -80 -287.5t-217.5 -205t-302.5 -74.5h-74l-86 -410h-92zM672 72l178 839h-47q-225 0 -369.5 -132t-144.5 -330
q0 -146 103 -253t280 -124zM942 911l-178 -839h47q225 0 369.5 132.5t144.5 330.5q0 148 -102 252t-281 124z" />
    <glyph glyph-name="uni0445" unicode="&#x445;" horiz-adv-x="901" 
d="M20 0l478 512l-238 471h105l200 -399l373 399h121l-438 -471l260 -512h-105l-225 440l-410 -440h-121z" />
    <glyph glyph-name="uni0446" unicode="&#x446;" 
d="M174 0l209 983h92l-190 -891h614l191 891h92l-191 -891h164l-72 -338h-92l53 246h-870z" />
    <glyph glyph-name="uni0447" unicode="&#x447;" horiz-adv-x="1085" 
d="M813 0l82 391q-47 -21 -70 -26q-83 -27 -180 -27q-200 0 -295 113t-57 286l53 246h92l-55 -256q-30 -137 41 -217t229 -80q100 0 191 31q37 14 74 33l104 489h92l-209 -983h-92z" />
    <glyph glyph-name="uni0448" unicode="&#x448;" horiz-adv-x="1587" 
d="M174 0l209 983h92l-190 -891h481l190 891h93l-191 -891h481l191 891h92l-209 -983h-1239z" />
    <glyph glyph-name="uni0449" unicode="&#x449;" horiz-adv-x="1628" 
d="M174 0l209 983h92l-190 -891h481l190 891h93l-191 -891h481l191 891h92l-190 -891h163l-71 -338h-92l53 246h-1311z" />
    <glyph glyph-name="uni044A" unicode="&#x44a;" horiz-adv-x="1064" 
d="M266 0l189 891h-277l21 92h368l-75 -348h235q140 0 228.5 -78.5t88.5 -202.5q0 -155 -105 -254.5t-261 -99.5h-412zM377 92h309q118 0 191 69.5t73 184.5q0 83 -60.5 140t-168.5 57h-248z" />
    <glyph glyph-name="uni044B" unicode="&#x44b;" horiz-adv-x="1372" 
d="M285 92h309q118 0 191 69.5t73 184.5q0 83 -60.5 140t-168.5 57h-248zM174 0l209 983h92l-76 -348h236q140 0 228.5 -78.5t88.5 -202.5q0 -155 -105 -254.5t-261 -99.5h-412zM1106 0l209 983h92l-209 -983h-92z" />
    <glyph glyph-name="uni044C" unicode="&#x44c;" horiz-adv-x="993" 
d="M285 92h329q118 0 191.5 69.5t73.5 184.5q0 83 -61 140t-169 57h-268zM174 0l209 983h92l-76 -348h256q140 0 229 -78.5t89 -202.5q0 -155 -105.5 -254.5t-261.5 -99.5h-432z" />
    <glyph glyph-name="uni044D" unicode="&#x44d;" horiz-adv-x="1044" 
d="M125 199l84 51q24 -47 67 -90q88 -88 230 -88q154 0 279 113t159 276h-528l20 92h516q-8 155 -104 256.5t-242 101.5q-113 0 -225 -71q-50 -32 -82 -70l-57 68q43 43 104 82q135 84 272 84q182 0 304 -129.5t122 -319.5q0 -118 -48 -226t-124.5 -183.5t-175 -120.5
t-198.5 -45q-169 0 -285 108q-55 52 -88 111z" />
    <glyph glyph-name="uni044E" unicode="&#x44e;" horiz-adv-x="1546" 
d="M174 0l209 983h92l-94 -440h237q27 136 107 242.5t189 162.5t227 56q180 0 296.5 -124.5t116.5 -316.5q0 -125 -46 -235.5t-121 -185.5t-171 -118.5t-196 -43.5q-180 0 -297 124t-117 316v31h-246l-94 -451h-92zM1133 911h-3q-80 0 -157.5 -36t-138.5 -98t-98.5 -153
t-37.5 -194q0 -155 94.5 -256.5t237.5 -101.5q80 0 157.5 36t138.5 98t98.5 153t37.5 194q0 155 -94 256.5t-235 101.5z" />
    <glyph glyph-name="uni044F" unicode="&#x44f;" horiz-adv-x="1034" 
d="M584 461h280l92 430h-352q-116 0 -188 -66t-72 -170q0 -85 63.5 -139.5t176.5 -54.5zM102 0l326 399q-45 15 -90 54q-90 75 -90 190q0 146 104 243t260 97h457l-209 -983h-92l78 369h-328l-293 -369h-123z" />
    <glyph glyph-name="uni0450" unicode="&#x450;" horiz-adv-x="1126" 
d="M737 1157l-129 266h113l98 -266h-82zM944 213l55 -68q-48 -48 -104 -84q-130 -81 -272 -81q-182 0 -304 129.5t-122 320.5q0 122 47 231t122.5 183t171.5 117t193 43q174 0 286.5 -118t112.5 -308q0 -20 -6 -89l-6 -38h-831v-13q0 -156 98.5 -261t251.5 -105
q115 0 223 69q43 28 84 72zM301 543h739v24q0 153 -85 248.5t-230 95.5q-90 0 -180 -46.5t-157.5 -132.5t-86.5 -189z" />
    <glyph glyph-name="uni0451" unicode="&#x451;" horiz-adv-x="1126" 
d="M944 213l55 -68q-48 -48 -104 -84q-130 -81 -272 -81q-182 0 -304 129.5t-122 320.5q0 122 47 231t122.5 183t171.5 117t193 43q174 0 286.5 -118t112.5 -308q0 -20 -6 -89l-6 -38h-831v-13q0 -156 98.5 -261t251.5 -105q115 0 223 69q43 28 84 72zM301 543h739v24
q0 153 -85 248.5t-230 95.5q-90 0 -180 -46.5t-157.5 -132.5t-86.5 -189zM553 1282q0 35 23.5 57.5t56.5 22.5q29 0 47 -18.5t18 -45.5q0 -34 -23.5 -56.5t-56.5 -22.5q-29 0 -47 18t-18 45zM911 1282q0 35 23.5 57.5t56.5 22.5q29 0 47.5 -18.5t18.5 -45.5
q0 -34 -23.5 -56.5t-56.5 -22.5q-29 0 -47.5 18t-18.5 45z" />
    <glyph glyph-name="uni0452" unicode="&#x452;" horiz-adv-x="1157" 
d="M205 0l239 1137h-184l21 92h184l43 205h92l-43 -205h307l-20 -92h-307l-78 -375q38 45 88 80q117 80 241 80q170 0 271.5 -102.5t101.5 -270.5q0 -122 -41.5 -230t-110.5 -181t-159 -115.5t-186 -42.5h-39l18 92h31q72 0 142 33.5t126 92.5t90.5 148.5t34.5 192.5
q0 134 -78 213t-211 79q-84 0 -160.5 -37t-135.5 -113.5t-81 -180.5l-104 -500h-92z" />
    <glyph glyph-name="uni0453" unicode="&#x453;" horiz-adv-x="839" 
d="M174 0l209 983h625l-21 -92h-532l-189 -891h-92zM666 1157l208 266h113l-239 -266h-82z" />
    <glyph glyph-name="uni0454" unicode="&#x454;" horiz-adv-x="1054" 
d="M289 461v-21q0 -159 99.5 -263.5t246.5 -104.5q115 0 223 69q43 28 84 72l57 -68q-48 -48 -104 -84q-130 -81 -272 -81q-182 0 -304 129t-122 319q0 118 48 226t124.5 184t175 121t198.5 45q166 0 285 -111q53 -50 88 -109l-84 -51q-23 42 -69 88q-90 90 -228 90
q-141 0 -266 -102t-166 -256h528l-20 -92h-522z" />
    <glyph glyph-name="uni0455" unicode="&#x455;" horiz-adv-x="880" 
d="M121 182l86 64q27 -53 65 -88q94 -86 215 -86q110 0 184 60.5t74 148.5q0 40 -25.5 73t-67 56t-91 45t-99 46.5t-91 52.5t-67 70.5t-25.5 94.5q0 109 98 197t235 88q134 0 240 -89q50 -43 74 -88l-86 -63q-16 36 -54 74q-73 73 -188 73q-95 0 -160 -54t-65 -124
q0 -38 26 -69.5t67 -54t90.5 -44.5t99.5 -47t91 -54t67 -72.5t26 -96.5q0 -131 -104 -223t-255 -92q-166 0 -278 100q-54 48 -82 102z" />
    <glyph glyph-name="uni0456" unicode="&#x456;" horiz-adv-x="460" 
d="M516 1403q29 0 47.5 -18.5t18.5 -45.5q0 -34 -23.5 -56.5t-56.5 -22.5q-29 0 -47.5 18t-18.5 45q0 35 23.5 57.5t56.5 22.5zM184 0l209 983h92l-209 -983h-92z" />
    <glyph glyph-name="uni0457" unicode="&#x457;" horiz-adv-x="460" 
d="M184 0l209 983h92l-209 -983h-92zM229 1282q0 35 23.5 57.5t56.5 22.5q29 0 47.5 -18.5t18.5 -45.5q0 -34 -23.5 -56.5t-56.5 -22.5q-29 0 -47.5 18t-18.5 45zM588 1282q0 35 23.5 57.5t56.5 22.5q29 0 47 -18.5t18 -45.5q0 -34 -23.5 -56.5t-56.5 -22.5q-29 0 -47 18
t-18 45z" />
    <glyph glyph-name="uni0458" unicode="&#x458;" horiz-adv-x="460" 
d="M-176 -383l20 90q11 -11 37 -22q38 -23 96 -23q62 0 106.5 44t61.5 122l248 1155h92l-249 -1165q-25 -116 -97.5 -182t-171.5 -66q-65 0 -104 22q-25 11 -39 25zM436 1323q0 35 23.5 57.5t56.5 22.5q29 0 47.5 -18.5t18.5 -45.5q0 -34 -23.5 -56.5t-56.5 -22.5
q-29 0 -47.5 18t-18.5 45z" />
    <glyph glyph-name="uni0459" unicode="&#x459;" horiz-adv-x="1619" 
d="M0 12l18 88q9 -7 27 -14q25 -14 68 -14q40 0 74.5 25.5t73 89t78 186t79.5 303.5l65 307h645l-84 -389h234q141 0 231 -71.5t90 -192.5q0 -149 -98.5 -239.5t-253.5 -90.5h-420l189 891h-461l-47 -225q-34 -163 -72 -285t-76 -197.5t-80.5 -122t-82 -64t-84.5 -17.5
q-36 0 -82 16q-29 14 -31 16zM938 92h309q120 0 189 58.5t69 171.5q0 82 -63 131t-166 49h-250z" />
    <glyph glyph-name="uni045A" unicode="&#x45a;" horiz-adv-x="1632" 
d="M174 0l209 983h92l-84 -389h574l84 389h92l-84 -389h233q141 0 231.5 -71.5t90.5 -192.5q0 -149 -98.5 -239.5t-253.5 -90.5h-420l106 502h-573l-107 -502h-92zM950 92h310q120 0 189 58.5t69 171.5q0 81 -63.5 130.5t-166.5 49.5h-250z" />
    <glyph glyph-name="uni045B" unicode="&#x45b;" horiz-adv-x="1198" 
d="M205 0l239 1137h-184l21 92h184l43 205h92l-43 -205h307l-20 -92h-307l-62 -293q38 45 88 80q117 80 250 80q80 0 150.5 -34t118.5 -94.5t68 -145.5t-1 -187l-115 -543h-92l119 551q33 149 -45.5 254.5t-229.5 105.5q-78 0 -152.5 -38.5t-133 -117t-80.5 -182.5
l-123 -573h-92z" />
    <glyph glyph-name="uni045C" unicode="&#x45c;" horiz-adv-x="1003" 
d="M172 0l207 983h92l-123 -584l668 584h127l-457 -401l295 -582h-104l-265 518l-293 -256l-55 -262h-92zM725 1157l209 266h113l-240 -266h-82z" />
    <glyph glyph-name="uni045D" unicode="&#x45d;" horiz-adv-x="1177" 
d="M174 0l209 983h92l-176 -819l831 819h82l-208 -983h-93l174 819l-829 -819h-82zM768 1167l-129 267h113l98 -267h-82z" />
    <glyph glyph-name="uni045E" unicode="&#x45e;" horiz-adv-x="983" 
d="M-16 -406l22 93l29 -13q36 -12 67 -12q60 0 106 36.5t95 117.5l115 188l-189 979h99l164 -860l532 860h106l-720 -1167q-81 -133 -151.5 -189.5t-162.5 -56.5q-36 0 -82 12zM455 1421h80v-24q0 -73 45.5 -116.5t128.5 -43.5q76 0 129.5 47t66.5 137h84
q-24 -125 -105 -195.5t-186 -70.5q-110 0 -176.5 64t-66.5 172v30z" />
    <glyph glyph-name="uni045F" unicode="&#x45f;" horiz-adv-x="1157" 
d="M174 0l209 983h92l-190 -891h624l191 891h92l-209 -983h-358l-54 -246h-92l53 246h-358z" />
    <glyph glyph-name="uni0462" unicode="&#x462;" horiz-adv-x="1392" 
d="M440 102h463q158 0 258.5 98t100.5 253q0 119 -86.5 191.5t-231.5 72.5h-373zM317 0l234 1106h-318l21 92h317l50 236h102l-49 -236h399l-20 -92h-400l-59 -287h369q72 0 141.5 -22t129 -64.5t96 -115t36.5 -162.5q0 -196 -137 -325.5t-340 -129.5h-572z" />
    <glyph glyph-name="uni0463" unicode="&#x463;" horiz-adv-x="1064" 
d="M246 0l188 891h-256l21 92h256l94 451h92l-94 -451h358l-20 -92h-359l-55 -256h256q143 0 230 -80t87 -201q0 -155 -105 -254.5t-261 -99.5h-432zM356 92h330q118 0 192 69t74 181q0 86 -61.5 143.5t-173.5 57.5h-264z" />
    <glyph glyph-name="uni046A" unicode="&#x46a;" horiz-adv-x="1587" 
d="M143 0l43 205q61 292 225.5 444t424.5 160l-373 553l14 72h1249l-14 -72l-618 -561q245 -49 344 -236.5t37 -472.5l-21 -92h-102l20 92q58 281 -29.5 434t-341.5 191l-151 -717h-102l151 717q-90 -1 -165 -15.5t-132 -39t-103 -63t-79 -82t-60 -102t-44.5 -117.5
t-34.5 -134l-35 -164h-103zM954 799l586 532h-932z" />
    <glyph glyph-name="uni046B" unicode="&#x46b;" horiz-adv-x="1280" 
d="M184 0h-92q38 235 184 378.5t367 143.5l-287 389l17 72h973l-17 -72l-450 -389q185 -53 272 -183t57 -339h-90q8 60 5 116.5t-27.5 110t-62.5 96t-101.5 73.5t-143.5 44l-92 -440h-92l92 440q-226 0 -348 -114t-164 -326zM752 522l422 369h-687z" />
    <glyph glyph-name="uni0472" unicode="&#x472;" horiz-adv-x="1699" 
d="M918 -20q-185 0 -335 88t-232.5 237.5t-82.5 329.5q0 168 69 321t181.5 261.5t260.5 172.5t302 64q185 0 335 -88t232.5 -237.5t82.5 -329.5q0 -168 -69 -321t-181.5 -261.5t-260.5 -172.5t-302 -64zM379 750q51 21 96 34q129 35 234 35q99 0 202 -25.5t202 -51
t187 -25.5q127 0 238 35q46 13 90 36q0 159 -70.5 287t-199.5 202.5t-293 74.5q-158 0 -302 -73t-248 -211.5t-136 -317.5zM934 82q158 0 302 73t248 211.5t136 317.5q-38 -19 -96 -35q-115 -35 -234 -35q-79 0 -162 16t-142.5 35.5t-138 35.5t-149.5 16q-120 0 -237 -37
q-31 -9 -90 -35q0 -158 70.5 -286.5t199.5 -202.5t293 -74z" />
    <glyph glyph-name="uni0473" unicode="&#x473;" 
d="M633 -20q-187 0 -311.5 131.5t-124.5 320.5q0 117 48 224.5t126 183t178 120t203 44.5q187 0 311.5 -131.5t124.5 -321.5q0 -117 -48 -224.5t-126 -182.5t-178 -119.5t-203 -44.5zM293 512q32 18 65 31q88 30 152 30q78 0 191.5 -35.5t183.5 -35.5q78 0 151 30
q28 10 60 31q-12 151 -109.5 249.5t-247.5 98.5q-96 0 -190.5 -48.5t-165.5 -142t-90 -208.5zM1092 471q-28 -19 -66 -31q-77 -30 -152 -30q-78 0 -191 35.5t-183 35.5q-68 0 -152 -30q-15 -6 -59 -31q12 -152 109 -250t247 -98q152 0 284 112.5t163 286.5z" />
    <glyph glyph-name="uni0474" unicode="&#x474;" horiz-adv-x="1372" 
d="M584 0l-260 1434h106l229 -1280l631 1042q83 138 153.5 198t153.5 60q46 0 101 -22q22 -9 39 -23l-51 -88q-23 9 -31 14q-38 17 -72 17q-44 0 -83.5 -36t-96.5 -130l-717 -1186h-102z" />
    <glyph glyph-name="uni0475" unicode="&#x475;" horiz-adv-x="1034" 
d="M420 0l-191 983h99l164 -860l428 690q63 102 118.5 146.5t126.5 44.5q43 0 92 -17l33 -16l-37 -88l-22 14q-37 14 -70 14q-42 0 -73.5 -23.5t-67.5 -82.5l-498 -805h-102z" />
    <glyph glyph-name="uni048A" unicode="&#x48a;" horiz-adv-x="1597" 
d="M225 0l303 1434h103l-260 -1231l1212 1231h82l-283 -1332h215l-290 -409h-82l188 307h-153l260 1231l-1213 -1231h-82zM879 1894h90v-20q0 -67 43.5 -110.5t115.5 -43.5t125 45.5t66 128.5h94q-24 -127 -104 -196.5t-187 -69.5q-109 0 -176 65t-67 169v32z" />
    <glyph glyph-name="uni048B" unicode="&#x48b;" horiz-adv-x="1177" 
d="M174 0l209 983h92l-176 -819l831 819h82l-190 -891h184l-235 -338h-82l145 246h-123l174 819l-829 -819h-82zM580 1421h79v-24q0 -73 46 -116.5t129 -43.5q76 0 129.5 47t66.5 137h84q-24 -125 -105 -195.5t-186 -70.5q-110 0 -176.5 64t-66.5 172v30z" />
    <glyph glyph-name="uni048C" unicode="&#x48c;" horiz-adv-x="1392" 
d="M440 102h463q158 0 258.5 98t100.5 253q0 119 -86.5 191.5t-231.5 72.5h-373zM317 0l234 1106h-318l21 92h317l50 236h102l-49 -236h399l-20 -92h-400l-59 -287h369q72 0 141.5 -22t129 -64.5t96 -115t36.5 -162.5q0 -196 -137 -325.5t-340 -129.5h-572z" />
    <glyph glyph-name="uni048D" unicode="&#x48d;" horiz-adv-x="1064" 
d="M246 0l188 891h-256l21 92h256l94 451h92l-94 -451h358l-20 -92h-359l-55 -256h256q143 0 230 -80t87 -201q0 -155 -105 -254.5t-261 -99.5h-432zM356 92h330q118 0 192 69t74 181q0 86 -61.5 143.5t-173.5 57.5h-264z" />
    <glyph glyph-name="uni048E" unicode="&#x48e;" horiz-adv-x="1320" 
d="M225 0l303 1434h486q106 0 197.5 -50.5t147.5 -142.5t56 -203q0 -155 -90.5 -275.5t-234.5 -176.5l86 -180l-89 -58l-100 211l-20 -4q-14 -2 -54 -2h-469l-116 -553h-103zM467 655h475l-88 185l88 57l107 -223q119 36 191.5 132t72.5 228q0 135 -95 216t-225 81h-383z
" />
    <glyph glyph-name="uni048F" unicode="&#x48f;" horiz-adv-x="1208" 
d="M82 -430l301 1413h92l-35 -156q39 44 99 88q130 89 270 89q177 0 294.5 -123t117.5 -316q0 -164 -74 -294.5t-197 -209.5l82 -163l-76 -48l-82 168q-89 -38 -184 -38q-185 0 -299 126q-51 54 -76 130l-141 -666h-92zM836 98l-115 236l76 45l116 -240q96 66 155.5 176
t59.5 240q0 152 -94.5 254t-236.5 102q-79 0 -156.5 -37t-137.5 -100.5t-97 -154.5t-37 -191q0 -152 94.5 -254t236.5 -102q60 0 136 26z" />
    <glyph glyph-name="uni0490" unicode="&#x490;" horiz-adv-x="1136" 
d="M225 0l303 1434h768l62 286h102l-82 -389h-768l-282 -1331h-103z" />
    <glyph glyph-name="uni0491" unicode="&#x491;" horiz-adv-x="839" 
d="M174 0l209 983h532l52 246h92l-72 -338h-532l-189 -891h-92z" />
    <glyph glyph-name="uni0492" unicode="&#x492;" 
d="M276 0l144 676h-215l20 102h215l140 656h870l-20 -103h-768l-119 -553h440l-20 -102h-441l-143 -676h-103z" />
    <glyph glyph-name="uni0493" unicode="&#x493;" horiz-adv-x="880" 
d="M215 0l90 430h-174l21 92h174l98 461h625l-21 -92h-532l-78 -369h307l-20 -92h-308l-90 -430h-92z" />
    <glyph glyph-name="uni0494" unicode="&#x494;" horiz-adv-x="1320" 
d="M225 0l303 1434h871l-21 -103h-768l-135 -639q57 32 98 47q123 49 254 49q216 0 340.5 -114t124.5 -307q0 -140 -48 -259t-127.5 -197.5t-182.5 -122.5t-213 -44h-70l23 102h55q88 0 171 36t148 100t104.5 160.5t39.5 209.5q0 155 -102.5 244.5t-282.5 89.5
q-140 0 -260 -59q-58 -28 -98 -60l-121 -567h-103z" />
    <glyph glyph-name="uni0495" unicode="&#x495;" horiz-adv-x="972" 
d="M420 -430l18 90h31q64 0 129.5 30.5t123 87t94 151.5t36.5 212q0 138 -72.5 213.5t-191.5 75.5q-88 0 -180 -49q-17 -9 -72 -47l-70 -334h-92l209 983h625l-21 -92h-532l-95 -445q43 26 70 37q93 39 176 39q150 0 244 -100.5t94 -269.5q0 -112 -30 -209t-79.5 -164.5
t-112.5 -115.5t-129.5 -70.5t-131.5 -22.5h-41z" />
    <glyph glyph-name="uni0496" unicode="&#x496;" horiz-adv-x="1935" 
d="M0 0l778 846l-413 588h122l535 -768l162 768h102l-162 -768l858 768h138l-670 -598l362 -734h185l-86 -409h-103l66 307h-123l-381 764l-278 -250l-109 -514h-102l112 532l-157 236l-707 -768h-129z" />
    <glyph glyph-name="uni0497" unicode="&#x497;" horiz-adv-x="1454" 
d="M10 0l549 590l-278 393h112l369 -522l112 522h93l-113 -522l594 522h127l-457 -403l248 -488h147l-71 -338h-92l53 246h-92l-264 516l-220 -192l-69 -324h-92l71 338l-127 178l-477 -516h-123z" />
    <glyph glyph-name="uni0498" unicode="&#x498;" horiz-adv-x="1167" 
d="M477 -307l62 291q-193 20 -318 145q-49 47 -88 119l84 63q33 -62 88 -114q127 -115 328 -115q174 0 282.5 97t108.5 235q0 122 -96.5 207.5t-251.5 85.5h-148l21 102h229q160 0 255 83.5t95 205.5q0 107 -89.5 180.5t-252.5 73.5q-121 0 -243 -64q-46 -23 -92 -63l-56 75
q49 43 111 76q144 78 291 78q201 0 317.5 -102.5t116.5 -249.5q0 -199 -168 -301q-75 -47 -168 -62q66 -24 117 -67q118 -98 118 -246q0 -114 -61 -214t-175 -163.5t-255 -68.5l-59 -287h-103z" />
    <glyph glyph-name="uni0499" unicode="&#x499;" horiz-adv-x="870" 
d="M354 -246l49 230q-132 19 -229 116q-40 40 -61 93l73 55q25 -48 68 -88q88 -88 229 -88q118 0 189 59.5t71 142.5q0 75 -61 131t-170 56h-98l20 92h137q98 0 164 54t66 136q0 68 -58.5 118t-162.5 50q-93 0 -177 -49q-28 -15 -67 -47l-55 78q42 34 86 55q114 56 223 56
q140 0 222.5 -72.5t82.5 -175.5q0 -45 -12 -83t-30.5 -63.5t-42.5 -45.5t-46.5 -31t-43.5 -18.5t-33 -10t-15 -2.5l19 -8q19 -9 42.5 -24t47.5 -38.5t40.5 -61.5t16.5 -83q0 -125 -95 -212.5t-247 -94.5l-50 -226h-92z" />
    <glyph glyph-name="uni049A" unicode="&#x49a;" horiz-adv-x="1361" 
d="M225 0l303 1434h103l-187 -881l986 881h137l-670 -598l363 -734h163l-86 -409h-102l65 307h-102l-379 766l-405 -363l-86 -403h-103z" />
    <glyph glyph-name="uni049B" unicode="&#x49b;" horiz-adv-x="1024" 
d="M174 0l209 983h92l-125 -584l668 584h127l-457 -401l248 -490h147l-71 -338h-92l53 246h-94l-265 518l-292 -256l-56 -262h-92z" />
    <glyph glyph-name="uni049C" unicode="&#x49c;" horiz-adv-x="1361" 
d="M225 0l303 1434h103l-139 -656h163l60 277h102l-59 -277h129l586 656h131l-631 -707l379 -727h-113l-354 676h-148l-59 -277h-103l60 277h-164l-143 -676h-103z" />
    <glyph glyph-name="uni049D" unicode="&#x49d;" horiz-adv-x="1044" 
d="M174 0l209 983h92l-94 -440h143l45 215h93l-46 -215h86l351 440h118l-389 -481l222 -502h-103l-203 451h-102l-43 -205h-92l43 205h-144l-94 -451h-92z" />
    <glyph glyph-name="uni049E" unicode="&#x49e;" horiz-adv-x="1382" 
d="M287 0l235 1116h-286l20 92h287l47 226h102l-47 -226h266l-20 -92h-266l-119 -563l985 881h137l-670 -598l414 -836h-112l-379 766l-406 -363l-86 -403h-102z" />
    <glyph glyph-name="uni049F" unicode="&#x49f;" horiz-adv-x="1034" 
d="M205 0l239 1137h-174l21 92h174l43 205h92l-43 -205h307l-20 -92h-307l-156 -738l668 584h127l-457 -401l295 -582h-105l-264 518l-293 -256l-55 -262h-92z" />
    <glyph glyph-name="uni04A0" unicode="&#x4a0;" horiz-adv-x="1484" 
d="M389 0l283 1331h-389l20 103h492l-187 -881l985 881h138l-670 -598l414 -836h-113l-379 766l-405 -363l-86 -403h-103z" />
    <glyph glyph-name="uni04A1" unicode="&#x4a1;" horiz-adv-x="1044" 
d="M215 0l188 891h-215l21 92h307l-125 -584l668 584h127l-457 -401l295 -582h-104l-265 518l-293 -256l-55 -262h-92z" />
    <glyph glyph-name="uni04A2" unicode="&#x4a2;" horiz-adv-x="1546" 
d="M225 0l303 1434h103l-139 -656h870l139 656h103l-283 -1332h184l-86 -409h-102l65 307h-184l143 676h-870l-143 -676h-103z" />
    <glyph glyph-name="uni04A3" unicode="&#x4a3;" horiz-adv-x="1208" 
d="M174 0l209 983h92l-94 -440h635l94 440h92l-190 -891h164l-72 -338h-92l53 246h-164l94 451h-635l-94 -451h-92z" />
    <glyph glyph-name="uni04A4" unicode="&#x4a4;" horiz-adv-x="2007" 
d="M225 0l303 1434h103l-139 -656h829l139 656h809l-20 -103h-707l-282 -1331h-103l143 676h-829l-143 -676h-103z" />
    <glyph glyph-name="uni04A5" unicode="&#x4a5;" horiz-adv-x="1484" 
d="M174 0l209 983h92l-94 -440h604l94 440h574l-21 -92h-481l-188 -891h-93l95 451h-605l-94 -451h-92z" />
    <glyph glyph-name="uni04A6" unicode="&#x4a6;" horiz-adv-x="2242" 
d="M225 0l303 1434h1055l-156 -742q55 30 99 47q123 49 254 49q216 0 340.5 -114t124.5 -307q0 -140 -48 -259t-128 -197.5t-183 -122.5t-213 -44h-69l22 102h55q88 0 171 36t148 100t104.5 160.5t39.5 209.5q0 155 -102.5 244.5t-282.5 89.5q-140 0 -260 -59
q-58 -28 -98 -60l-121 -567h-102l282 1331h-850l-282 -1331h-103z" />
    <glyph glyph-name="uni04A7" unicode="&#x4a7;" horiz-adv-x="1679" 
d="M174 0l209 983h788l-114 -537q45 27 69 37q93 39 177 39q150 0 243.5 -100t93.5 -270q0 -112 -30 -209t-79.5 -164.5t-112.5 -115.5t-129.5 -70.5t-131.5 -22.5h-41l19 90h30q64 0 129.5 30.5t123 87t94 151.5t36.5 212q0 138 -72.5 213.5t-191.5 75.5q-88 0 -180 -49
q-17 -9 -72 -47l-69 -334h-93l189 891h-604l-189 -891h-92z" />
    <glyph glyph-name="uni04A8" unicode="&#x4a8;" horiz-adv-x="1669" 
d="M1587 133l23 -96q-30 -19 -62 -29q-82 -28 -184 -28q-121 0 -188 24q-32 8 -58 27q-42 -21 -69 -27q-81 -24 -187 -24q-123 0 -231.5 44.5t-189.5 125.5t-128 202t-47 266q0 153 47 288.5t124.5 232.5t178 168.5t208 107.5t212.5 39l-20 -102q-85 0 -175 -31
t-174.5 -94.5t-151 -149.5t-106.5 -206.5t-40 -256.5q0 -235 140.5 -383.5t377.5 -148.5q63 0 96 8q19 3 41 10q-63 54 -117 133q-116 173 -116 381q0 134 31.5 251t84.5 201t121.5 145t144 90.5t150.5 29.5q160 0 265.5 -127t105.5 -327q0 -106 -25 -206t-63.5 -174.5
t-89 -142t-96 -111t-91 -79.5t-67.5 -49.5t-31 -18.5q0 -1 17.5 -4.5t50 -6.5t65.5 -3q88 0 158 24q29 7 65 27zM1124 143q208 98 337.5 301t129.5 426q0 172 -79.5 265.5t-200.5 93.5q-76 0 -149 -39t-133.5 -111.5t-98 -190t-37.5 -261.5q0 -202 115 -363q56 -75 116 -121
z" />
    <glyph glyph-name="uni04A9" unicode="&#x4a9;" horiz-adv-x="1239" 
d="M1192 135l57 -72q-31 -28 -63 -43q-75 -40 -203 -40q-83 0 -145 20q-29 10 -45 23q-19 -11 -56 -23q-66 -20 -123 -20q-179 0 -299 122t-120 314q0 129 45 240t117.5 183.5t159.5 115.5t175 49l-20 -93q-67 -9 -133 -44.5t-123.5 -94t-93 -148.5t-35.5 -196
q0 -152 96.5 -254t239.5 -102q46 0 67 6l23 8q-40 43 -66 94q-65 116 -65 250q0 108 31.5 199.5t82 149.5t111.5 90t123 32q106 0 173.5 -77t67.5 -214q0 -226 -143 -401q-64 -77 -141 -129q1 0 8.5 -3.5t13.5 -4.5q24 -6 72 -6q94 0 160 34q32 16 51 35zM807 123
q74 45 137 117q137 161 137 362q0 99 -45 153t-114 54q-45 0 -87.5 -22.5t-79 -65.5t-59 -115.5t-22.5 -163.5q0 -131 65 -239q25 -44 68 -80z" />
    <glyph glyph-name="uni04AA" unicode="&#x4aa;" horiz-adv-x="1536" 
d="M799 -307l61 289q-261 25 -426.5 207.5t-165.5 443.5q0 135 44.5 262t123 227t180 175.5t221.5 116t242 40.5q234 0 424 -158q84 -75 133 -157l-86 -56q-47 79 -110 134q-159 135 -377 135q-132 0 -257.5 -54.5t-221.5 -148t-154.5 -227.5t-58.5 -283q0 -157 70.5 -283.5
t200 -200t294.5 -73.5q194 0 364 106q77 47 136 109l57 -72q-69 -65 -145 -114q-185 -119 -385 -129l-62 -289h-102z" />
    <glyph glyph-name="uni04AB" unicode="&#x4ab;" horiz-adv-x="1054" 
d="M500 -246l49 232q-154 25 -253 150t-99 292q0 118 48 226t124.5 184t175 121t198.5 45q166 0 285 -111q53 -50 88 -109l-84 -51q-23 42 -69 88q-90 90 -228 90q-79 0 -159.5 -36.5t-143.5 -98t-103 -150.5t-40 -186q0 -159 99.5 -263.5t246.5 -104.5q115 0 223 69
q43 28 84 72l57 -68q-44 -41 -100 -79q-120 -78 -260 -86l-47 -226h-92z" />
    <glyph glyph-name="uni04AC" unicode="&#x4ac;" horiz-adv-x="1116" 
d="M610 -307l66 307h-184l282 1331h-471l21 103h1044l-20 -103h-471l-263 -1229h185l-86 -409h-103z" />
    <glyph glyph-name="uni04AD" unicode="&#x4ad;" horiz-adv-x="901" 
d="M500 -246l53 246h-164l189 891h-369l20 92h830l-21 -92h-368l-170 -799h164l-72 -338h-92z" />
    <glyph glyph-name="uni04AE" unicode="&#x4ae;" horiz-adv-x="1228" 
d="M532 0l107 502l-336 932h113l286 -820l635 820h133l-729 -932l-106 -502h-103z" />
    <glyph glyph-name="uni04AF" unicode="&#x4af;" horiz-adv-x="983" 
d="M334 -430l88 416l-193 997h97l163 -860l533 860h108l-618 -997l-88 -416h-90z" />
    <glyph glyph-name="uni04B0" unicode="&#x4b0;" horiz-adv-x="1228" 
d="M532 0l93 440h-338l20 92h338l2 11l-344 891h113l297 -779l624 779h133l-720 -891l-2 -11h337l-20 -92h-338l-92 -440h-103z" />
    <glyph glyph-name="uni04B1" unicode="&#x4b1;" horiz-adv-x="983" 
d="M334 -430l67 317h-231l18 93h232l2 6l-193 997h97l163 -860l533 860h108l-620 -1003h231l-18 -93h-231l-68 -317h-90z" />
    <glyph glyph-name="uni04B2" unicode="&#x4b2;" horiz-adv-x="1269" 
d="M31 0l690 748l-346 686h112l304 -605l557 605h133l-637 -686l323 -646h164l-86 -409h-102l65 307h-102l-330 666l-612 -666h-133z" />
    <glyph glyph-name="uni04B3" unicode="&#x4b3;" horiz-adv-x="921" 
d="M20 0l478 512l-238 471h105l200 -399l373 399h121l-438 -471l210 -420h150l-72 -338h-92l53 246h-94l-225 440l-410 -440h-121z" />
    <glyph glyph-name="uni04B4" unicode="&#x4b4;" horiz-adv-x="1792" 
d="M492 0l282 1331h-471l21 103h1024l-21 -103h-450l-263 -1229h848l283 1332h102l-282 -1332h186l-86 -409h-102l65 307h-1136z" />
    <glyph glyph-name="uni04B5" unicode="&#x4b5;" horiz-adv-x="1402" 
d="M389 0l189 891h-369l20 92h830l-21 -92h-368l-170 -799h614l191 891h92l-191 -891h164l-72 -338h-92l54 246h-871z" />
    <glyph glyph-name="uni04B6" unicode="&#x4b6;" horiz-adv-x="1443" 
d="M1202 -307l66 307h-185l131 616q-60 -37 -106 -53q-125 -51 -264 -51q-84 0 -156.5 20t-124.5 56t-91.5 86t-58 109.5t-23 126.5t12.5 137l82 387h103l-84 -408q-39 -190 62.5 -301t291.5 -111q134 0 270 62q61 28 111 61l147 697h103l-283 -1332h185l-86 -409h-103z" />
    <glyph glyph-name="uni04B7" unicode="&#x4b7;" horiz-adv-x="1126" 
d="M924 -246l53 246h-164l82 391q-47 -21 -70 -26q-83 -27 -180 -27q-200 0 -295 113t-57 286l53 246h92l-55 -256q-30 -137 41 -217t229 -80q100 0 191 31q37 14 74 33l104 489h92l-190 -891h163l-71 -338h-92z" />
    <glyph glyph-name="uni04B8" unicode="&#x4b8;" horiz-adv-x="1433" 
d="M692 287l49 233q-131 21 -218.5 99t-117.5 189.5t-2 238.5l82 387h103l-84 -408q-34 -166 37.5 -271t222.5 -132l61 288h103l-64 -297q130 0 266 62q64 29 109 61l147 697h103l-303 -1434h-103l131 616q-60 -37 -106 -53q-125 -51 -264 -51h-2l-47 -225h-103z" />
    <glyph glyph-name="uni04B9" unicode="&#x4b9;" horiz-adv-x="1085" 
d="M518 164l37 180q-159 26 -229.5 133t-34.5 260l53 246h92l-55 -256q-26 -119 25 -195.5t169 -95.5l41 199h93l-43 -205q90 3 180 33q34 10 69 31l105 489h92l-209 -983h-92l82 391q-47 -21 -70 -26q-83 -27 -176 -27l-37 -174h-92z" />
    <glyph glyph-name="uni04BA" unicode="&#x4ba;" horiz-adv-x="1382" 
d="M225 0l303 1434h103l-131 -617q69 38 106 51q132 54 264 54q84 0 156.5 -20t124.5 -56t91.5 -86t58 -109.5t23 -126.5t-12.5 -137l-82 -387h-103l84 408q39 190 -62.5 300.5t-291.5 110.5q-136 0 -270 -61q-56 -26 -111 -62l-147 -696h-103z" />
    <glyph glyph-name="uni04BB" unicode="&#x4bb;" horiz-adv-x="1177" 
d="M184 0l303 1434h93l-125 -590q38 45 88 80q117 80 250 80q80 0 150.5 -34t118 -94.5t67.5 -145.5t-1 -187l-114 -543h-92l118 551q21 98 -6 180t-98 131t-170 49q-78 0 -153 -38.5t-133.5 -117t-80.5 -182.5l-123 -573h-92z" />
    <glyph glyph-name="uni04BC" unicode="&#x4bc;" horiz-adv-x="1771" 
d="M463 717h-23q-117 0 -179 47.5t-62 138.5q0 19 4.5 44.5t8.5 41t3 15.5h100l-10 -50q-13 -66 28 -100.5t122 -34.5h26q34 142 111.5 262.5t178.5 201.5t219.5 126t236.5 45q171 0 307 -81.5t212.5 -225t76.5 -322.5q0 -29 -4 -75q-2 -12 -2 -33h-1250l-4 -33
q-4 -46 -4 -72q0 -239 151.5 -384.5t387.5 -145.5q165 0 325 82q67 38 123 84l58 -70q-61 -55 -146 -100q-184 -98 -377 -98q-186 0 -329 83t-219 225.5t-76 321.5q0 51 2 74zM592 819h1128v15q0 223 -139.5 370.5t-370.5 147.5q-117 0 -222.5 -43t-183.5 -117
t-132.5 -169.5t-79.5 -203.5z" />
    <glyph glyph-name="uni04BD" unicode="&#x4bd;" horiz-adv-x="1269" 
d="M356 430v21h-20q-101 0 -155 61t-31 158l10 47h92l-8 -41q-17 -69 9.5 -101t104.5 -32h9q27 132 108.5 239t191.5 164.5t224 57.5q174 0 286.5 -118t112.5 -308q0 -20 -6 -89l-6 -38h-832v-13q0 -156 99 -261t252 -105q115 0 223 69q43 28 84 72l55 -68q-48 -48 -104 -84
q-130 -81 -273 -81q-182 0 -304 129.5t-122 320.5zM461 543h739v24q0 153 -85 248.5t-230 95.5q-90 0 -180 -46.5t-157.5 -132.5t-86.5 -189z" />
    <glyph glyph-name="uni04BE" unicode="&#x4be;" horiz-adv-x="1771" 
d="M907 -307l62 295q-233 37 -372.5 208t-139.5 414q0 51 2 74l4 33h-23q-117 0 -179 47.5t-62 138.5q0 19 4.5 44.5t8.5 41t3 15.5h100l-10 -50q-13 -66 28 -100.5t122 -34.5h26q34 142 111.5 262.5t178.5 201.5t219.5 126t236.5 45q171 0 307 -81.5t212.5 -225
t76.5 -322.5q0 -29 -4 -75q-2 -12 -2 -33h-1250l-4 -33q-4 -46 -4 -72q0 -239 151.5 -384.5t387.5 -145.5q165 0 325 82q67 38 123 84l58 -70q-61 -55 -146 -100q-184 -98 -377 -98h-10l-61 -287h-103zM592 819h1128v15q0 223 -139.5 370.5t-370.5 147.5q-117 0 -222.5 -43
t-183.5 -117t-132.5 -169.5t-79.5 -203.5z" />
    <glyph glyph-name="uni04BF" unicode="&#x4bf;" horiz-adv-x="1269" 
d="M662 -246l49 232q-155 25 -255 149t-100 295v21h-20q-101 0 -155 61t-31 158l10 47h92l-8 -41q-17 -69 9.5 -101t104.5 -32h9q27 132 108.5 239t191.5 164.5t224 57.5q174 0 286.5 -118t112.5 -308q0 -20 -6 -89l-6 -38h-832v-13q0 -156 99 -261t252 -105q115 0 223 69
q43 28 84 72l55 -68q-39 -39 -98 -79q-120 -78 -260 -86l-47 -226h-92zM461 543h739v24q0 153 -85 248.5t-230 95.5q-90 0 -180 -46.5t-157.5 -132.5t-86.5 -189z" />
    <glyph glyph-name="uni04C0" unicode="&#x4c0;" horiz-adv-x="552" 
d="M225 0l303 1434h103l-303 -1434h-103z" />
    <glyph glyph-name="uni04C1" unicode="&#x4c1;" horiz-adv-x="1863" 
d="M0 0l778 846l-413 588h122l535 -768l162 768h102l-162 -768l858 768h138l-670 -598l414 -836h-113l-381 764l-278 -250l-109 -514h-102l112 532l-157 236l-707 -768h-129zM1014 1894h90v-20q0 -67 44 -110.5t116 -43.5t124.5 45.5t65.5 128.5h94q-24 -127 -104 -196.5
t-187 -69.5q-109 0 -176 65t-67 169v32z" />
    <glyph glyph-name="uni04C2" unicode="&#x4c2;" horiz-adv-x="1423" 
d="M10 0l549 590l-278 393h112l369 -522l112 522h93l-113 -522l594 522h127l-457 -403l295 -580h-102l-264 516l-220 -192l-69 -324h-92l71 338l-127 178l-477 -516h-123zM698 1421h80v-24q0 -73 45.5 -116.5t128.5 -43.5q76 0 130 47t67 137h84q-24 -125 -105 -195.5
t-186 -70.5q-110 0 -177 64t-67 172v30z" />
    <glyph glyph-name="uni04C3" unicode="&#x4c3;" horiz-adv-x="1392" 
d="M225 0l303 1434h103l-187 -881l986 881h137l-738 -658l31 10q50 13 90 13q198 0 310 -125t112 -332q0 -114 -28 -225t-82 -205.5t-127.5 -167t-170.5 -113.5t-204 -41h-60l23 103h49q86 0 164.5 35.5t138 97t103.5 142t67 174t23 188.5q0 184 -94 275t-259 91
q-100 0 -194 -46t-195 -138l-112 -102l-86 -410h-103z" />
    <glyph glyph-name="uni04C4" unicode="&#x4c4;" horiz-adv-x="1013" 
d="M487 -430l19 90h31q62 0 124 30.5t116.5 88.5t89 156t34.5 219q0 134 -72 205t-198 71q-98 0 -215 -84q-46 -33 -94 -84l-56 -262h-92l209 983h92l-125 -584l668 584h127l-533 -467q13 0 19 2q28 4 45 4q63 0 118.5 -22t100 -65t70.5 -113.5t26 -159.5q0 -142 -42.5 -258
t-110.5 -187t-148.5 -109t-161.5 -38h-41z" />
    <glyph glyph-name="uni04C5" unicode="&#x4c5;" horiz-adv-x="1505" 
d="M-8 20l18 95l43 -17q50 -16 84 -16q45 0 85 20.5t87 79t90.5 155.5t91.5 258t93 378l96 461h891l-283 -1332h215l-291 -409h-82l189 307h-154l283 1331h-686l-78 -368q-50 -236 -104 -412t-106 -284t-110 -173.5t-110.5 -89.5t-112.5 -24q-52 0 -106 20q-32 14 -43 20z
" />
    <glyph glyph-name="uni04C6" unicode="&#x4c6;" horiz-adv-x="1136" 
d="M0 12l18 88q9 -7 27 -14q25 -14 68 -14q40 0 74.5 25.5t73 89t78 186t79.5 303.5l65 307h686l-190 -891h184l-235 -338h-82l145 246h-123l189 891h-502l-47 -225q-34 -163 -72 -285t-76 -197.5t-80.5 -122t-82 -64t-84.5 -17.5q-36 0 -82 16q-29 14 -31 16z" />
    <glyph glyph-name="uni04C7" unicode="&#x4c7;" horiz-adv-x="1525" 
d="M225 0l303 1434h103l-139 -656h870l139 656h103l-338 -1596q-56 -268 -269 -268q-72 0 -118 24q-23 10 -41 25l22 98q11 -11 37 -22q41 -23 102 -23q68 0 107.5 42t58.5 134l176 828h-870l-143 -676h-103z" />
    <glyph glyph-name="uni04C8" unicode="&#x4c8;" horiz-adv-x="1167" 
d="M174 0l209 983h92l-94 -440h635l94 440h92l-256 -1198q-23 -107 -82 -161t-147 -54q-66 0 -105 22q-28 12 -41 23l21 92q12 -12 35 -22q38 -23 88 -23q114 0 141 131l139 658h-635l-94 -451h-92z" />
    <glyph glyph-name="uni04C9" unicode="&#x4c9;" horiz-adv-x="1536" 
d="M225 0l303 1434h103l-139 -656h870l139 656h103l-283 -1332h215l-291 -409h-82l189 307h-154l143 676h-870l-143 -676h-103z" />
    <glyph glyph-name="uni04CA" unicode="&#x4ca;" horiz-adv-x="1167" 
d="M174 0l209 983h92l-94 -440h635l94 440h92l-190 -891h184l-235 -338h-82l145 246h-123l94 451h-635l-94 -451h-92z" />
    <glyph glyph-name="uni04CB" unicode="&#x4cb;" horiz-adv-x="1423" 
d="M834 -307l86 409h184v-2l110 516q-60 -37 -106 -53q-125 -51 -264 -51q-84 0 -156.5 20t-124.5 56t-91.5 86t-58 109.5t-23 126.5t12.5 137l82 387h103l-84 -408q-39 -190 62.5 -301t291.5 -111q134 0 270 62q61 28 111 61l147 697h103l-303 -1434h-185l-65 -307h-102z
" />
    <glyph glyph-name="uni04CC" unicode="&#x4cc;" horiz-adv-x="1085" 
d="M596 -246l72 338h163l64 299q-47 -21 -70 -26q-83 -27 -180 -27q-200 0 -295 113t-57 286l53 246h92l-55 -256q-30 -137 41 -217t229 -80q100 0 191 31q37 14 74 33l104 489h92l-209 -983h-164l-53 -246h-92z" />
    <glyph glyph-name="uni04CD" unicode="&#x4cd;" horiz-adv-x="1894" 
d="M225 0l303 1434h72l455 -850l815 850h92l-283 -1332h215l-290 -409h-82l188 307h-154l263 1239l-789 -819l-440 819l-262 -1239h-103z" />
    <glyph glyph-name="uni04CE" unicode="&#x4ce;" horiz-adv-x="1331" 
d="M174 0l209 983h61l301 -553l539 553h82l-190 -891h184l-236 -338h-82l146 246h-123l168 799l-508 -512l-291 512l-168 -799h-92z" />
    <glyph glyph-name="uni04CF" unicode="&#x4cf;" horiz-adv-x="460" 
d="M184 0l303 1434h93l-304 -1434h-92z" />
    <glyph glyph-name="uni04D0" unicode="&#x4d0;" horiz-adv-x="1372" 
d="M72 0l897 1434h102l291 -1434h-105l-86 420h-716l-262 -420h-121zM518 522h635l-156 768zM801 1894h80v-24q0 -73 45.5 -116.5t128.5 -43.5q76 0 129.5 47t66.5 137h84q-24 -125 -105 -195.5t-186 -70.5q-110 0 -176.5 64t-66.5 172v30z" />
    <glyph glyph-name="uni04D1" unicode="&#x4d1;" horiz-adv-x="1034" 
d="M518 1421h80v-24q0 -73 45.5 -116.5t128.5 -43.5q76 0 130 47t67 137h84q-24 -125 -105 -195.5t-186 -70.5q-110 0 -177 64t-67 172v30zM791 0l30 147q-45 -52 -90 -84q-114 -83 -254 -83q-144 0 -230.5 77t-86.5 185q0 112 80 194.5t243 110.5l437 67
q18 132 -49.5 214.5t-200.5 82.5q-109 0 -199 -57q-47 -26 -78 -57l-49 67q38 38 94 70q118 70 242 70q179 0 270 -121t54 -308l-121 -575h-92zM877 401l24 121l-393 -63q-254 -41 -254 -207q0 -76 63 -128t175 -52q136 0 246.5 94.5t138.5 234.5z" />
    <glyph glyph-name="uni04D2" unicode="&#x4d2;" horiz-adv-x="1372" 
d="M809 1753q0 35 23.5 57.5t56.5 22.5q29 0 47 -18.5t18 -45.5q0 -34 -23.5 -56.5t-56.5 -22.5q-29 0 -47 18t-18 45zM1167 1753q0 35 23.5 57.5t56.5 22.5q29 0 47.5 -18.5t18.5 -45.5q0 -34 -23.5 -56.5t-56.5 -22.5q-29 0 -47.5 18t-18.5 45zM72 0l897 1434h102
l291 -1434h-105l-86 420h-716l-262 -420h-121zM518 522h635l-156 768z" />
    <glyph glyph-name="uni04D3" unicode="&#x4d3;" horiz-adv-x="1034" 
d="M516 1282q0 35 23.5 57.5t56.5 22.5q29 0 47.5 -18.5t18.5 -45.5q0 -34 -23.5 -56.5t-56.5 -22.5q-29 0 -47.5 18t-18.5 45zM874 1282q0 35 23.5 57.5t56.5 22.5q29 0 47.5 -18.5t18.5 -45.5q0 -34 -23.5 -56.5t-56.5 -22.5q-29 0 -47.5 18t-18.5 45zM791 0l30 147
q-45 -52 -90 -84q-114 -83 -254 -83q-144 0 -230.5 77t-86.5 185q0 112 80 194.5t243 110.5l437 67q18 132 -49.5 214.5t-200.5 82.5q-109 0 -199 -57q-47 -26 -78 -57l-49 67q38 38 94 70q118 70 242 70q179 0 270 -121t54 -308l-121 -575h-92zM877 401l24 121l-393 -63
q-254 -41 -254 -207q0 -76 63 -128t175 -52q136 0 246.5 94.5t138.5 234.5z" />
    <glyph glyph-name="uni04D6" unicode="&#x4d6;" horiz-adv-x="1290" 
d="M799 1894h90v-20q0 -67 44 -110.5t116 -43.5t124.5 45.5t65.5 128.5h94q-24 -127 -104 -196.5t-187 -69.5q-109 0 -176 65t-67 169v32zM225 0l303 1434h963l-21 -103h-860l-114 -532h696l-21 -103h-696l-127 -594h881l-21 -102h-983z" />
    <glyph glyph-name="uni04D7" unicode="&#x4d7;" horiz-adv-x="1126" 
d="M545 1421h80v-24q0 -73 45.5 -116.5t128.5 -43.5q76 0 129.5 47t66.5 137h84q-24 -125 -105 -195.5t-186 -70.5q-110 0 -176.5 64t-66.5 172v30zM944 213l55 -68q-48 -48 -104 -84q-130 -81 -272 -81q-182 0 -304 129.5t-122 320.5q0 122 47 231t122.5 183t171.5 117
t193 43q174 0 286.5 -118t112.5 -308q0 -20 -6 -89l-6 -38h-831v-13q0 -156 98.5 -261t251.5 -105q115 0 223 69q43 28 84 72zM301 543h739v24q0 153 -85 248.5t-230 95.5q-90 0 -180 -46.5t-157.5 -132.5t-86.5 -189z" />
    <glyph glyph-name="uni04D8" unicode="&#x4d8;" horiz-adv-x="1587" 
d="M260 717h1249l4 33q5 45 5 71q0 239 -151.5 385t-387.5 146q-162 0 -326 -84q-75 -41 -123 -82l-57 69q63 57 143 99q188 100 379 100q186 0 329 -83t219.5 -226t76.5 -322q0 -180 -67 -340t-176 -268.5t-247 -171.5t-280 -63q-171 0 -307 81t-212.5 224.5t-76.5 322.5
q0 53 2 76zM1485 614h-1129v-14q0 -224 139 -371t371 -147q155 0 287 74.5t215 193.5t117 264z" />
    <glyph glyph-name="uni04D9" unicode="&#x4d9;" horiz-adv-x="1126" 
d="M205 532h831v13q0 156 -98.5 261t-251.5 105q-111 0 -223 -71q-48 -31 -84 -70l-55 68q43 43 104 82q135 84 272 84q182 0 304 -130t122 -321q0 -122 -47 -230.5t-122.5 -182.5t-171.5 -117t-193 -43q-174 0 -286.5 118t-112.5 308q0 51 6 88zM1022 440h-739v-24
q0 -153 85 -248.5t230 -95.5q90 0 180 46.5t157.5 132.5t86.5 189z" />
    <glyph glyph-name="uni04DA" unicode="&#x4da;" horiz-adv-x="1587" 
d="M260 717h1249l4 33q5 45 5 71q0 239 -151.5 385t-387.5 146q-162 0 -326 -84q-75 -41 -123 -82l-57 69q63 57 143 99q188 100 379 100q186 0 329 -83t219.5 -226t76.5 -322q0 -180 -67 -340t-176 -268.5t-247 -171.5t-280 -63q-171 0 -307 81t-212.5 224.5t-76.5 322.5
q0 53 2 76zM1485 614h-1129v-14q0 -224 139 -371t371 -147q155 0 287 74.5t215 193.5t117 264zM870 1753q0 35 23.5 57.5t56.5 22.5q29 0 47.5 -18.5t18.5 -45.5q0 -34 -23.5 -56.5t-56.5 -22.5q-29 0 -47.5 18t-18.5 45zM1229 1753q0 35 23.5 57.5t56.5 22.5q29 0 47 -18.5
t18 -45.5q0 -34 -23.5 -56.5t-56.5 -22.5q-29 0 -47 18t-18 45z" />
    <glyph glyph-name="uni04DB" unicode="&#x4db;" horiz-adv-x="1126" 
d="M205 532h831v13q0 156 -98.5 261t-251.5 105q-111 0 -223 -71q-48 -31 -84 -70l-55 68q43 43 104 82q135 84 272 84q182 0 304 -130t122 -321q0 -122 -47 -230.5t-122.5 -182.5t-171.5 -117t-193 -43q-174 0 -286.5 118t-112.5 308q0 51 6 88zM1022 440h-739v-24
q0 -153 85 -248.5t230 -95.5q90 0 180 46.5t157.5 132.5t86.5 189zM543 1292q0 35 23.5 57.5t56.5 22.5q29 0 47 -18t18 -45q0 -35 -23.5 -57.5t-56.5 -22.5q-29 0 -47 18t-18 45zM901 1292q0 35 23.5 57.5t56.5 22.5q29 0 47.5 -18t18.5 -45q0 -35 -23.5 -57.5t-56.5 -22.5
q-29 0 -47.5 18t-18.5 45z" />
    <glyph glyph-name="uni04DC" unicode="&#x4dc;" horiz-adv-x="1863" 
d="M0 0l778 846l-413 588h122l535 -768l162 768h102l-162 -768l858 768h138l-670 -598l414 -836h-113l-381 764l-278 -250l-109 -514h-102l112 532l-157 236l-707 -768h-129zM1024 1753q0 35 23.5 57.5t56.5 22.5q29 0 47 -18.5t18 -45.5q0 -35 -23 -57t-56 -22
q-29 0 -47.5 18t-18.5 45zM1382 1753q0 35 23.5 57.5t56.5 22.5q29 0 47.5 -18.5t18.5 -45.5q0 -34 -23.5 -56.5t-56.5 -22.5q-29 0 -47.5 18t-18.5 45z" />
    <glyph glyph-name="uni04DD" unicode="&#x4dd;" horiz-adv-x="1423" 
d="M10 0l549 590l-278 393h112l369 -522l112 522h93l-113 -522l594 522h127l-457 -403l295 -580h-102l-264 516l-220 -192l-69 -324h-92l71 338l-127 178l-477 -516h-123zM707 1282q0 35 23 57.5t56 22.5q29 0 47.5 -18.5t18.5 -45.5q0 -34 -23.5 -56.5t-56.5 -22.5
q-29 0 -47 18t-18 45zM1065 1282q0 35 23.5 57.5t56.5 22.5q29 0 47 -18.5t18 -45.5q0 -34 -23.5 -56.5t-56.5 -22.5q-29 0 -47 18t-18 45z" />
    <glyph glyph-name="uni04DE" unicode="&#x4de;" horiz-adv-x="1167" 
d="M133 248l84 63q33 -62 88 -114q127 -115 328 -115q174 0 282.5 97t108.5 235q0 122 -96.5 207.5t-251.5 85.5h-148l21 102h229q160 0 255 83.5t95 205.5q0 107 -89.5 180.5t-252.5 73.5q-121 0 -243 -64q-46 -23 -92 -63l-56 75q49 43 111 76q144 78 291 78
q201 0 317.5 -102.5t116.5 -249.5q0 -199 -168 -301q-75 -47 -168 -62q66 -24 117 -67q118 -98 118 -246q0 -86 -38 -167t-104.5 -142.5t-163 -99t-206.5 -37.5q-229 0 -378 133q-66 57 -107 135zM631 1753q0 35 23.5 57.5t56.5 22.5q29 0 47 -18.5t18 -45.5
q0 -34 -23.5 -56.5t-56.5 -22.5q-29 0 -47 18t-18 45zM989 1753q0 35 23.5 57.5t56.5 22.5q29 0 47.5 -18.5t18.5 -45.5q0 -34 -23.5 -56.5t-56.5 -22.5q-29 0 -47.5 18t-18.5 45z" />
    <glyph glyph-name="uni04DF" unicode="&#x4df;" horiz-adv-x="870" 
d="M113 193l73 55q25 -48 68 -88q88 -88 229 -88q118 0 189 59.5t71 142.5q0 75 -61 131t-170 56h-98l20 92h137q98 0 164 54t66 136q0 68 -58.5 118t-162.5 50q-93 0 -177 -49q-28 -15 -67 -47l-55 78q42 34 86 55q114 56 223 56q140 0 222.5 -72.5t82.5 -175.5
q0 -139 -113 -211q-52 -32 -110 -43q36 -14 82 -47q84 -68 84 -168q0 -127 -103 -217t-260 -90q-179 0 -285 106q-49 46 -77 107zM389 1292q0 35 23.5 57.5t56.5 22.5q29 0 47.5 -18t18.5 -45q0 -35 -23.5 -57.5t-56.5 -22.5q-29 0 -47.5 18t-18.5 45zM748 1292
q0 35 23 57.5t56 22.5q29 0 47.5 -18t18.5 -45q0 -35 -23.5 -57.5t-56.5 -22.5q-29 0 -47 18t-18 45z" />
    <glyph glyph-name="uni04E0" unicode="&#x4e0;" horiz-adv-x="1146" 
d="M113 248l86 63q35 -60 98 -114q145 -115 334 -115q177 0 284 102t107 267q0 134 -101.5 210t-254.5 76h-203l18 82l631 512h-696l20 103h840l-21 -103l-606 -491h47q113 0 210 -45t158.5 -134.5t61.5 -205.5q0 -204 -146.5 -339.5t-367.5 -135.5q-231 0 -387 133
q-67 55 -112 135z" />
    <glyph glyph-name="uni04E1" unicode="&#x4e1;" horiz-adv-x="962" 
d="M-10 -199l86 64q29 -57 82 -101q112 -100 278 -100q154 0 259.5 99.5t105.5 254.5q0 125 -89.5 202t-217.5 77h-175l17 72l561 522h-614l20 92h748l-21 -92l-547 -502h9q180 0 291.5 -104t111.5 -256q0 -195 -136.5 -327t-332.5 -132q-193 0 -338 115q-61 52 -98 116z
" />
    <glyph glyph-name="uni04E2" unicode="&#x4e2;" horiz-adv-x="1587" 
d="M225 0l303 1434h103l-260 -1231l1212 1231h82l-303 -1434h-102l260 1231l-1213 -1231h-82zM874 1720l17 82h553l-17 -82h-553z" />
    <glyph glyph-name="uni04E3" unicode="&#x4e3;" horiz-adv-x="1177" 
d="M174 0l209 983h92l-176 -819l831 819h82l-208 -983h-93l174 819l-829 -819h-82zM567 1270l17 82h553l-17 -82h-553z" />
    <glyph glyph-name="uni04E4" unicode="&#x4e4;" horiz-adv-x="1587" 
d="M225 0l303 1434h103l-260 -1231l1212 1231h82l-303 -1434h-102l260 1231l-1213 -1231h-82zM891 1753q0 35 23.5 57.5t56.5 22.5q29 0 47 -18.5t18 -45.5q0 -34 -23.5 -56.5t-56.5 -22.5q-29 0 -47 18t-18 45zM1249 1753q0 35 23.5 57.5t56.5 22.5q29 0 47.5 -18.5
t18.5 -45.5q0 -34 -23.5 -56.5t-56.5 -22.5q-29 0 -47.5 18t-18.5 45z" />
    <glyph glyph-name="uni04E5" unicode="&#x4e5;" horiz-adv-x="1177" 
d="M174 0l209 983h92l-176 -819l831 819h82l-208 -983h-93l174 819l-829 -819h-82zM584 1282q0 35 23.5 57.5t56.5 22.5q29 0 47 -18.5t18 -45.5q0 -34 -23.5 -56.5t-56.5 -22.5q-29 0 -47 18t-18 45zM942 1282q0 35 23.5 57.5t56.5 22.5q29 0 47 -18.5t18 -45.5
q0 -35 -23 -57t-56 -22q-29 0 -47.5 18t-18.5 45z" />
    <glyph glyph-name="uni04E6" unicode="&#x4e6;" horiz-adv-x="1699" 
d="M911 1753q0 35 23.5 57.5t56.5 22.5q29 0 47.5 -18.5t18.5 -45.5q0 -34 -23.5 -56.5t-56.5 -22.5q-29 0 -47.5 18t-18.5 45zM1270 1753q0 35 23.5 57.5t56.5 22.5q29 0 47 -18.5t18 -45.5q0 -34 -23.5 -56.5t-56.5 -22.5q-29 0 -47 18t-18 45zM1081 1454q185 0 335 -88
t232.5 -237.5t82.5 -329.5q0 -168 -69 -321t-181.5 -261.5t-260.5 -172.5t-302 -64q-185 0 -335 88t-232.5 237.5t-82.5 329.5q0 168 69 321t181.5 261.5t260.5 172.5t302 64zM1065 1352q-132 0 -257.5 -54t-222 -147t-155.5 -227t-59 -283q0 -156 70.5 -283t199.5 -201.5
t293 -74.5q131 0 257.5 55t222.5 148.5t155 227t59 280.5q0 156 -70.5 283t-199.5 201.5t-293 74.5z" />
    </font>
</defs>
</svg>
