<svg id="_-Rating-Category-Year-5-Colour-" data-name="-Rating-Category-Year-5-Colour-" xmlns="http://www.w3.org/2000/svg" width="600" height="380" viewBox="0 0 600 380">
  <defs>
    <style>
      .cls-1 {
        fill: #fff;
      }

      .cls-2 {
        fill: #000200;
      }

      .cls-3 {
        fill-rule: evenodd;
      }

      .cls-4 {
        fill: #ee7203;
      }
    </style>
  </defs>
  <g>
    <rect class="cls-1" x="2.5" y="2.5" width="595" height="375" rx="16.5"/>
    <path class="cls-2" d="M606.36,35a14,14,0,0,1,14,14V391a14,14,0,0,1-14,14h-562a14,14,0,0,1-14-14V49a14,14,0,0,1,14-14h562m0-5h-562a19,19,0,0,0-19,19V391a19,19,0,0,0,19,19h562a19,19,0,0,0,19-19V49a19,19,0,0,0-19-19Z" transform="translate(-25.36 -29.95)"/>
  </g>
  <rect y="126.05" width="600" height="70"/>
  <g>
    <path class="cls-3" d="M204.36,55h-6V80h-.18c-5.14-7.47-13.32-9.39-18.55-9.39C164,70.56,154,82.72,154,95.4c0,13.63,10.63,25,25.61,25,5.05,0,13.49-1.9,18.55-9.45h.18v8h6V55Zm-44.72,40.3c0-12.1,9.07-19.67,19.56-19.67,11,0,19.12,9.14,19.12,19.59a19.16,19.16,0,0,1-19.12,19.41c-11.71,0-19.56-8.71-19.56-19.33Z" transform="translate(-25.36 -29.95)"/>
    <path class="cls-3" d="M263,97a25.43,25.43,0,1,0-1.4,6h-6.46c-2.18,5.92-8.38,11-17.1,11.22-9.33,0-18.06-7.92-18.49-17.22Zm-43.47-5a18.82,18.82,0,0,1,37.29,0Z" transform="translate(-25.36 -29.95)"/>
    <path d="M275.36,119h6V77h13V72H282c0-4-.17-11.19,12.34-11.19V55.6C276.55,55.77,276,65.91,275.84,72h-7.48v5h7v42Z" transform="translate(-25.36 -29.95)"/>
    <path class="cls-3" d="M348.36,71h-6v9h-.17c-5.08-8-13.48-9.6-18.66-9.6-15.68,0-25.75,12.22-25.75,25,0,13.71,10.69,25.15,25.75,25.15,5,0,13.4-1.66,18.66-9.51h.17v8h6V71Zm-44.49,24.3c0-12.1,9.08-19.67,19.56-19.67,11,0,19.13,9.14,19.13,19.59a19.17,19.17,0,0,1-19.13,19.41c-11.7,0-19.56-8.71-19.56-19.33Z" transform="translate(-25.36 -29.95)"/>
    <path class="cls-3" d="M407.36,72h-6v8h-.18c-5.08-7.85-13.49-9.6-18.65-9.6-15.67,0-25.75,12.22-25.75,25,0,13.71,10.69,25.15,25.75,25.15,5,0,13.48-1.66,18.65-9.51h.18v25h6V72Zm-44.29,23.3c0-12.1,9.08-19.67,19.55-19.67,11,0,19.13,9.14,19.13,19.59a19.17,19.17,0,0,1-19.13,19.41c-11.69,0-19.55-8.71-19.55-19.33Z" transform="translate(-25.36 -29.95)"/>
    <polygon points="399 89 406 89 406 47 417 47 417 41 406 41 406 24 399 24 399 41 389 41 389 47 399 47 399 89 399 89"/>
    <path class="cls-3" d="M446.53,95.43A25,25,0,1,0,471.41,70.1a25.08,25.08,0,0,0-24.88,25.33Zm6.11-.1A19.27,19.27,0,0,1,471.5,75.58c8.2,0,18.86,6.7,18.86,19.24s-9.61,19.76-18.86,19.76a19.13,19.13,0,0,1-18.86-19.25Z" transform="translate(-25.36 -29.95)"/>
  </g>
  <g>
    <polygon class="cls-4" points="517.16 215.07 527.84 247.92 562.38 247.92 534.43 268.22 545.11 301.07 517.16 280.77 489.22 301.07 499.9 268.22 471.95 247.92 506.49 247.92 517.16 215.07"/>
    <polygon class="cls-4" points="191.87 215.07 202.54 247.92 237.08 247.92 209.14 268.22 219.81 301.07 191.87 280.77 163.92 301.07 174.6 268.22 146.66 247.92 181.19 247.92 191.87 215.07"/>
    <polygon class="cls-4" points="83.44 215.07 94.11 247.92 128.65 247.92 100.7 268.22 111.38 301.07 83.44 280.77 55.49 301.07 66.17 268.22 38.22 247.92 72.76 247.92 83.44 215.07"/>
    <polygon class="cls-4" points="300.3 215.07 310.97 247.92 345.51 247.92 317.57 268.22 328.24 301.07 300.3 280.77 272.36 301.07 283.03 268.22 255.09 247.92 289.63 247.92 300.3 215.07"/>
    <polygon class="cls-4" points="408.73 215.07 419.41 247.92 453.94 247.92 426 268.22 436.68 301.07 408.73 280.77 380.79 301.07 391.46 268.22 363.52 247.92 398.06 247.92 408.73 215.07"/>
  </g>
  <g>
    <path class="cls-1" d="M115.24,169.46h25.89v6.45H122.88v11h15.48v6.46H122.88v12.71h18.91v6.46H115.24Z" transform="translate(-25.36 -29.95)"/>
    <path class="cls-1" d="M158.91,190.34l-11.46-20.88H156l4.81,9.55c1,2,1.91,4,3.22,6.59h.27c1.05-2.57,2-4.61,2.9-6.59l4.54-9.55h8.1l-11.46,21.21,12.25,21.87h-8.49l-5.27-10.15c-1.12-2.24-2.18-4.41-3.43-7h-.26c-1.12,2.63-2.18,4.8-3.23,7l-5.07,10.15h-8.1Z" transform="translate(-25.36 -29.95)"/>
    <path class="cls-1" d="M187.69,169.46h14.5c9.41,0,16.33,3.29,16.33,13.3,0,9.56-7.11,14-16.33,14h-6.86v15.81h-7.64Zm13.84,21.14c6.45,0,9.48-2.57,9.48-7.84s-3.23-7.18-9.48-7.18h-6.2v15Z" transform="translate(-25.36 -29.95)"/>
    <path class="cls-1" d="M227.34,169.46h25.89v6.45H235v11h15.48v6.46H235v12.71h18.9v6.46H227.34Z" transform="translate(-25.36 -29.95)"/>
    <path class="cls-1" d="M286.89,212.54l-9.29-16.86h-6.52v16.86h-7.64V169.46h14.49c9,0,15.88,3.16,15.88,12.78,0,6.58-3.43,10.54-8.63,12.32l10.27,18Zm-15.81-22.92h6.06c5.93,0,9.09-2.51,9.09-7.38s-3.16-6.66-9.09-6.66h-6.06Z" transform="translate(-25.36 -29.95)"/>
    <path class="cls-1" d="M311,175.91H298.54v-6.45H331v6.45H318.64v36.63H311Z" transform="translate(-25.36 -29.95)"/>
    <path class="cls-1" d="M376.86,212.54l-9.29-16.86h-6.52v16.86h-7.64V169.46H367.9c9,0,15.88,3.16,15.88,12.78,0,6.58-3.43,10.54-8.63,12.32l10.27,18Zm-15.81-22.92h6.06c5.93,0,9.09-2.51,9.09-7.38s-3.16-6.66-9.09-6.66h-6.06Z" transform="translate(-25.36 -29.95)"/>
    <path class="cls-1" d="M414.21,200.88H399.78l-3.36,11.66h-7.84l14.1-43.08h9l14,43.08h-8.11Zm-1.72-6L411,189.62c-1.32-4.55-2.64-9.49-3.89-14.23h-.26c-1.19,4.81-2.44,9.68-3.82,14.23l-1.52,5.26Z" transform="translate(-25.36 -29.95)"/>
    <path class="cls-1" d="M437.78,175.91H425.33v-6.45h32.48v6.45H445.43v36.63h-7.65Z" transform="translate(-25.36 -29.95)"/>
    <path class="cls-1" d="M465.78,169.46h25.88v6.45H473.42v11H488.9v6.46H473.42v12.71h18.9v6.46H465.78Z" transform="translate(-25.36 -29.95)"/>
    <path class="cls-1" d="M501.87,169.46h11.46c13.18,0,21,7.11,21,21.34s-7.84,21.74-20.62,21.74H501.87Zm10.93,36.89c8.7,0,13.71-4.94,13.71-15.55s-5-15.15-13.71-15.15h-3.29v30.7Z" transform="translate(-25.36 -29.95)"/>
  </g>
  <g>
    <path d="M146.48,354.34a9.44,9.44,0,0,1,7,3.16l-1.83,2.07a6.8,6.8,0,0,0-5.11-2.38c-4.87,0-8.11,4-8.11,10.33s3.08,10.5,8,10.5a7.49,7.49,0,0,0,5.85-2.85l1.83,2a9.81,9.81,0,0,1-7.76,3.7c-6.44,0-11.23-4.91-11.23-13.26S139.93,354.34,146.48,354.34Z" transform="translate(-25.36 -29.95)"/>
    <path d="M168.9,368.38c0-2.42-.82-4.76-3.9-4.76a10.22,10.22,0,0,0-5.66,2l-1.29-2.22A14.1,14.1,0,0,1,165.5,361c4.64,0,6.59,3.08,6.59,7.8v11.62h-2.65l-.27-2.26h-.08a10.31,10.31,0,0,1-6.28,2.73c-3.2,0-5.58-2-5.58-5.38C157.23,371.35,160.82,369.28,168.9,368.38Zm-5.19,9.91c1.83,0,3.35-.9,5.19-2.54v-5.26c-6.36.78-8.51,2.34-8.51,4.76C160.39,377.39,161.84,378.29,163.71,378.29Z" transform="translate(-25.36 -29.95)"/>
    <path d="M177.48,361.44h2.65l.27,3.43h.12c1.28-2.38,3.23-3.9,5.38-3.9a4.78,4.78,0,0,1,2,.39l-.63,2.81a5.16,5.16,0,0,0-1.83-.31c-1.6,0-3.51,1.17-4.8,4.37v12.16h-3.19Z" transform="translate(-25.36 -29.95)"/>
    <path d="M199.08,354.81h3.28v25.58h-3.28Z" transform="translate(-25.36 -29.95)"/>
    <path d="M208.13,361.44h2.65l.27,2.73h.12c1.79-1.79,3.75-3.2,6.36-3.2,4,0,5.77,2.58,5.77,7.41v12h-3.2V368.81c0-3.55-1.09-5.07-3.59-5.07-1.95,0-3.27,1-5.18,2.93v13.72h-3.2Z" transform="translate(-25.36 -29.95)"/>
    <path d="M228.37,376.1a8.53,8.53,0,0,0,5.58,2.27c2.5,0,3.74-1.33,3.74-3,0-1.95-2.26-2.81-4.32-3.59-2.7-1-5.66-2.26-5.66-5.46,0-3,2.42-5.38,6.51-5.38a9.46,9.46,0,0,1,5.89,2.15l-1.52,2a7.06,7.06,0,0,0-4.33-1.67c-2.38,0-3.47,1.28-3.47,2.73,0,1.75,2.07,2.45,4.21,3.27,2.73,1,5.78,2.15,5.78,5.74,0,3.08-2.46,5.65-6.95,5.65a11.44,11.44,0,0,1-7.06-2.61Z" transform="translate(-25.36 -29.95)"/>
    <path d="M244.37,361.44h3.23V373c0,3.55,1.06,5.07,3.55,5.07,1.95,0,3.32-1,5.11-3.19V361.44h3.2v18.95h-2.65l-.27-3h-.12c-1.76,2.07-3.63,3.43-6.24,3.43-4,0-5.81-2.57-5.81-7.41Z" transform="translate(-25.36 -29.95)"/>
    <path d="M265,361.44h2.65l.28,3.43h.11c1.29-2.38,3.24-3.9,5.38-3.9a4.75,4.75,0,0,1,2,.39l-.62,2.81a5.2,5.2,0,0,0-1.83-.31c-1.6,0-3.51,1.17-4.8,4.37v12.16H265Z" transform="translate(-25.36 -29.95)"/>
    <path d="M289.08,368.38c0-2.42-.82-4.76-3.9-4.76a10.21,10.21,0,0,0-5.65,2l-1.29-2.22a14.1,14.1,0,0,1,7.45-2.46c4.64,0,6.59,3.08,6.59,7.8v11.62h-2.65l-.27-2.26h-.08a10.31,10.31,0,0,1-6.28,2.73c-3.2,0-5.58-2-5.58-5.38C277.42,371.35,281,369.28,289.08,368.38Zm-5.18,9.91c1.83,0,3.35-.9,5.18-2.54v-5.26c-6.35.78-8.5,2.34-8.5,4.76C280.58,377.39,282,378.29,283.9,378.29Z" transform="translate(-25.36 -29.95)"/>
    <path d="M297.66,361.44h2.65l.28,2.73h.12c1.79-1.79,3.74-3.2,6.35-3.2,4,0,5.77,2.58,5.77,7.41v12h-3.19V368.81c0-3.55-1.1-5.07-3.59-5.07-1.95,0-3.28,1-5.19,2.93v13.72h-3.2Z" transform="translate(-25.36 -29.95)"/>
    <path d="M326.23,361a7.79,7.79,0,0,1,5.54,2.26l-1.6,2.07a5.75,5.75,0,0,0-3.82-1.68c-3.43,0-5.93,3-5.93,7.34s2.38,7.25,5.85,7.25a6.77,6.77,0,0,0,4.45-1.91l1.44,2.1a9.33,9.33,0,0,1-6.16,2.46c-5,0-8.89-3.63-8.89-9.9S321.36,361,326.23,361Z" transform="translate(-25.36 -29.95)"/>
    <path d="M342.41,361c4.83,0,7.56,3.47,7.56,8.89a12.52,12.52,0,0,1-.11,1.76h-12.8c.24,4.09,2.7,6.67,6.32,6.67a8.6,8.6,0,0,0,4.72-1.48l1.13,2.1a11.22,11.22,0,0,1-6.24,1.95c-5.07,0-9.09-3.7-9.09-9.9S338.08,361,342.41,361Zm4.76,8.54c0-3.86-1.72-6-4.69-6-2.65,0-5.07,2.18-5.46,6Z" transform="translate(-25.36 -29.95)"/>
    <path d="M360.89,378.48c7.49-7.45,11.7-11.93,11.7-16,0-2.85-1.56-4.87-4.72-4.87-2.06,0-3.86,1.32-5.3,3l-1.83-1.83c2.06-2.27,4.29-3.79,7.52-3.79,4.61,0,7.45,2.93,7.45,7.34,0,4.68-4.25,9.32-10.14,15.48,1.37-.12,2.89-.24,4.18-.24H377v2.77H360.89Z" transform="translate(-25.36 -29.95)"/>
    <path d="M379.44,367.87c0-8.34,3-12.83,8-12.83s8,4.49,8,12.83-3,13-8,13S379.44,376.22,379.44,367.87Zm12.83,0c0-7.29-1.95-10.25-4.84-10.25s-4.87,3-4.87,10.25,1.95,10.42,4.87,10.42S392.27,375.17,392.27,367.87Z" transform="translate(-25.36 -29.95)"/>
    <path d="M398.25,377.74h5.69V359.41h-4.52v-2.07a14.86,14.86,0,0,0,5.27-1.83h2.45v22.23h5.15v2.65h-14Z" transform="translate(-25.36 -29.95)"/>
    <path d="M415.75,378.48c7.49-7.45,11.7-11.93,11.7-16,0-2.85-1.56-4.87-4.72-4.87-2.07,0-3.86,1.32-5.3,3l-1.84-1.83c2.07-2.27,4.29-3.79,7.53-3.79,4.6,0,7.45,2.93,7.45,7.34,0,4.68-4.25,9.32-10.14,15.48,1.36-.12,2.88-.24,4.17-.24h7.22v2.77H415.75Z" transform="translate(-25.36 -29.95)"/>
    <path d="M433.7,369.4h9v2.45h-9Z" transform="translate(-25.36 -29.95)"/>
    <path d="M443.56,378.48c7.49-7.45,11.7-11.93,11.7-16,0-2.85-1.56-4.87-4.72-4.87-2.06,0-3.86,1.32-5.3,3l-1.83-1.83c2.06-2.27,4.29-3.79,7.53-3.79,4.6,0,7.44,2.93,7.44,7.34,0,4.68-4.25,9.32-10.14,15.48,1.37-.12,2.89-.24,4.18-.24h7.21v2.77H443.56Z" transform="translate(-25.36 -29.95)"/>
    <path d="M462.11,367.87c0-8.34,3-12.83,8-12.83s8,4.49,8,12.83-3,13-8,13S462.11,376.22,462.11,367.87Zm12.83,0c0-7.29-1.95-10.25-4.84-10.25s-4.87,3-4.87,10.25,1.95,10.42,4.87,10.42S474.94,375.17,474.94,367.87Z" transform="translate(-25.36 -29.95)"/>
    <path d="M480.54,378.48c7.49-7.45,11.7-11.93,11.7-16,0-2.85-1.56-4.87-4.72-4.87-2.06,0-3.86,1.32-5.3,3l-1.83-1.83c2.06-2.27,4.29-3.79,7.52-3.79,4.61,0,7.45,2.93,7.45,7.34,0,4.68-4.25,9.32-10.14,15.48,1.37-.12,2.89-.24,4.18-.24h7.21v2.77H480.54Z" transform="translate(-25.36 -29.95)"/>
    <path d="M500.55,377.74h5.7V359.41h-4.53v-2.07a14.79,14.79,0,0,0,5.27-1.83h2.46v22.23h5.14v2.65h-14Z" transform="translate(-25.36 -29.95)"/>
  </g>
</svg>
