<svg width="180" height="30" viewBox="0 0 180 30" fill="none" xmlns="http://www.w3.org/2000/svg">
<path fill-rule="evenodd" clip-rule="evenodd" d="M62.097 1.64274C55.0163 5.21108 49.9891 0.786337 49.9891 0.786337C51.9009 5.06834 58.2026 7.85165 65.2124 4.06921C72.6471 0.144036 78.2408 6.21021 78.2408 6.21021C73.78 0.0726686 68.7527 -1.64013 62.097 1.64274ZM12.1786 2.07093V9.99264H3.61111V2.07093H0V11.9909V15.9161V22.8387H3.61111V15.4879V12.9187H12.1786V13.3469V22.8387H15.7898V14.6315V13.0614V2.07093H12.1786ZM53.3863 20.3421C53.1031 20.4134 52.7491 20.4134 52.395 20.4134C52.1826 20.4134 52.041 20.4134 51.8286 20.2707C51.687 20.1993 51.5454 20.0566 51.4038 19.9139C51.2621 19.6998 51.1913 19.4857 51.1205 19.2716L51.1205 19.2716C51.0497 18.9147 51.0497 18.5579 51.0497 18.2724V10.993H54.236L54.5192 8.56654H51.0497V4.85547H48.5007L47.7218 8.56654L45.5977 9.28021V10.993H47.7218V18.7006C47.7218 19.3429 47.7926 19.9852 47.8634 20.5562C48.0051 21.0557 48.1467 21.5553 48.5007 21.9835C48.8547 22.4117 49.2088 22.6972 49.7044 22.8399C50.3417 23.054 50.9789 23.1967 51.687 23.1254C52.3242 23.1254 52.8907 22.9826 53.4571 22.7685C54.1652 22.4831 54.7316 22.1262 55.2981 21.698L54.5192 20.0566C54.1652 20.1993 53.8112 20.2707 53.3863 20.3421ZM44.0404 16.6304C43.8279 16.345 43.6155 16.0595 43.3323 15.8454C43.0491 15.6313 42.7659 15.4172 42.4826 15.2745C42.1994 15.1317 41.9162 14.989 41.633 14.9176L40.9249 14.6321C40.5709 14.4894 40.2168 14.3467 39.792 14.2039C39.438 14.0612 39.0839 13.9185 38.6591 13.7757C38.6182 13.762 38.5746 13.7483 38.5295 13.734C38.3402 13.6742 38.1225 13.6055 37.951 13.4903C37.7386 13.4189 37.5262 13.2762 37.3138 13.1334L36.8889 12.7052C36.7473 12.5625 36.7473 12.277 36.7473 12.0629C36.7473 11.8488 36.7473 11.6347 36.8889 11.4206C36.9598 11.2065 37.1014 11.0638 37.243 10.9211C37.4554 10.7783 37.6678 10.6356 37.951 10.5642C38.2343 10.4929 38.5883 10.4215 38.9423 10.4215C39.3672 10.4215 39.7212 10.4215 40.0752 10.5642C40.3485 10.6193 40.5796 10.717 40.8337 10.8243C40.9087 10.856 40.9858 10.8885 41.0665 10.9211C41.3497 11.0638 41.633 11.2779 41.9162 11.492C42.1994 11.7061 42.4826 11.9916 42.695 12.2057L44.2528 9.77921C43.5447 9.20827 42.695 8.78007 41.8454 8.49461C40.8541 8.20914 39.8628 8.06641 38.8715 8.06641C38.1635 8.06641 37.5262 8.13777 36.8889 8.35187C36.2517 8.49461 35.6852 8.78007 35.1896 9.06554C34.694 9.35101 34.2691 9.77921 33.9859 10.2788C33.7027 10.7783 33.4903 11.3493 33.5611 11.9916C33.5611 12.4198 33.6319 12.9193 33.7735 13.3475C33.9151 13.7044 34.1275 14.0612 34.3399 14.418C34.5523 14.7035 34.8356 14.989 35.1896 15.2031C35.4728 15.4172 35.7561 15.6313 36.1101 15.774L36.9598 16.2022C37.1257 16.2858 37.2916 16.345 37.429 16.3939C37.5262 16.4286 37.6092 16.4581 37.6678 16.4877L38.7299 16.9159L39.792 17.3441C40.0044 17.4155 40.146 17.4868 40.3584 17.6296C40.5075 17.6796 40.6216 17.7648 40.7499 17.8605C40.8044 17.9012 40.8615 17.9438 40.9249 17.9864L41.3497 18.4146C41.4913 18.5573 41.4913 18.8428 41.4913 18.9855C41.4913 19.271 41.4205 19.5565 41.3497 19.7706C41.2081 19.9847 41.0665 20.1988 40.8541 20.3415C40.6417 20.4842 40.4292 20.627 40.146 20.627C39.8628 20.6983 39.5796 20.6983 39.2255 20.6983C37.7386 20.6983 36.3933 19.9847 35.048 18.5573L33.207 20.8411C33.5611 21.2693 34.0567 21.6261 34.4815 21.9116C34.9064 22.197 35.402 22.4111 35.8977 22.6252C36.3933 22.768 36.9598 22.9107 37.5262 22.9821C38.0926 23.0534 38.7299 23.1248 39.3672 23.1248C40.0752 23.1248 40.7833 23.0534 41.4205 22.8393C42.0578 22.6966 42.695 22.4111 43.2615 22.0543C43.7571 21.7688 44.2528 21.2693 44.536 20.7697C44.89 20.1988 45.0316 19.6278 45.0316 18.9855C45.0316 18.486 44.9608 18.0578 44.8192 17.5582C44.4652 17.3441 44.2528 16.9873 44.0404 16.6304ZM25.8443 20.1979C26.1275 20.0551 26.4107 19.9124 26.6939 19.6983V15.2022L26.5923 15.2115L26.5923 15.2115C25.8414 15.28 25.0286 15.3542 24.2157 15.5591C23.6493 15.7018 23.1536 15.9873 22.658 16.2727C22.3039 16.5582 22.0207 16.8437 21.8791 17.2719C21.7375 17.7001 21.6667 18.1283 21.6667 18.5565C21.6667 18.9133 21.7375 19.2701 21.8083 19.5556C21.8791 19.8411 22.0207 20.0552 22.1623 20.1979C22.3039 20.412 22.5164 20.4834 22.7288 20.5547C22.9412 20.6261 23.1536 20.6261 23.4368 20.6261H24.2157C24.4281 20.6261 24.7113 20.5547 24.9945 20.4834L24.9946 20.4834C25.2778 20.412 25.561 20.3406 25.8442 20.1979L25.8443 20.1979ZM31.0839 20.7688H31.5087C31.5795 20.745 31.6503 20.7292 31.7212 20.7133C31.8628 20.6816 32.0044 20.6499 32.146 20.5547L32.5 22.1248C32.2876 22.1962 32.0752 22.3389 31.8628 22.4816C31.6503 22.6244 31.4379 22.6957 31.1547 22.7671L30.305 22.9812C29.951 23.0526 29.597 23.0526 29.3138 23.0526H29.3137C28.7473 23.1239 28.1808 22.9098 27.6852 22.6244C27.2604 22.3389 26.9771 21.9107 26.8355 21.3398C26.7436 21.4139 26.6517 21.4928 26.5586 21.5728C26.2929 21.8009 26.0172 22.0376 25.7026 22.1962C25.3486 22.4816 24.9238 22.6244 24.4989 22.7671L24.4989 22.7671C24.1449 22.9098 23.7201 22.9812 23.2953 23.0525L23.2953 23.0525L23.2953 23.0525L23.2953 23.0525L23.2953 23.0525L23.2953 23.0526L23.2952 23.0526L23.2952 23.0526C22.9412 23.1239 22.5872 23.1239 22.1623 23.1239C21.5959 23.1239 21.0294 22.9812 20.463 22.8385C20.0381 22.6957 19.6133 22.4816 19.1885 22.1248C18.7636 21.768 18.4804 21.4111 18.3388 20.9116C18.1264 20.3406 18.0556 19.7697 18.0556 19.1988C18.0556 18.5565 18.1972 17.9142 18.4096 17.2719C18.622 16.7009 18.9052 16.2727 19.3301 15.8445C19.7549 15.4163 20.2506 15.1308 20.7462 14.8454C21.3127 14.5599 21.8791 14.3458 22.5164 14.2031C23.1536 14.0603 23.8617 13.989 24.5697 13.9176C25.2778 13.8462 26.0567 13.8462 26.7647 13.8462V13.3467C26.7647 12.9185 26.6939 12.5616 26.5523 12.1334C26.4107 11.7766 26.2691 11.4911 25.9859 11.277C25.8915 11.2295 25.797 11.174 25.7026 11.1185C25.5138 11.0074 25.325 10.8964 25.1362 10.8488C24.7822 10.7775 24.4281 10.7061 24.0741 10.7061C23.7201 10.7061 23.4368 10.7061 23.1536 10.7775C22.7996 10.7775 22.5164 10.9202 22.2331 11.0629C21.9499 11.2057 21.5959 11.4198 21.3127 11.6339C20.9586 11.9193 20.6046 12.2048 20.2506 12.5616L18.4096 10.492C19.1885 9.84971 20.109 9.27877 21.1002 8.92194C22.0915 8.56511 23.1536 8.351 24.2865 8.351C25.0654 8.351 25.7734 8.49374 26.4815 8.63647C27.1188 8.77921 27.756 9.06467 28.3225 9.42151C28.8181 9.77834 29.3137 10.2779 29.597 10.8488C29.951 11.4198 30.0926 12.1334 30.0926 12.8471V19.1274C30.0926 19.2701 30.1103 19.395 30.128 19.5199L30.128 19.5199C30.1457 19.6448 30.1634 19.7697 30.1634 19.9124C30.1634 20.1265 30.2342 20.2693 30.305 20.412C30.305 20.5547 30.4466 20.6261 30.5883 20.6975C30.7299 20.7688 30.9423 20.7688 31.0839 20.7688ZM60.9651 8.56641H57.5664V22.8398H60.9651V8.56641ZM87.0214 15.4893C87.163 15.2038 87.3046 14.847 87.3046 14.4902C87.3282 14.3474 87.344 14.2047 87.3597 14.0619C87.3912 13.7765 87.4226 13.491 87.517 13.2056C87.517 12.2064 87.3046 11.4214 86.8798 10.9932C86.3841 10.4936 85.7469 10.2082 85.0388 10.2795C84.4016 10.2795 83.7643 10.4936 83.3395 10.9932C82.9146 11.4928 82.7022 12.2064 82.7022 13.1342C82.7022 13.5624 82.773 13.9906 82.8438 14.4188C82.9146 14.7756 83.0563 15.2038 83.2687 15.4893C83.4811 15.7748 83.7643 16.0602 84.0475 16.203C84.4016 16.4171 84.8264 16.4884 85.2512 16.4884C85.6053 16.4884 86.0301 16.4171 86.3841 16.203C86.6674 16.0602 86.8798 15.7748 87.0214 15.4893ZM81.9234 24.1247C81.8526 24.2674 81.7817 24.4815 81.7817 24.6956C81.7817 24.9097 81.7109 25.1238 81.5693 25.2665C81.5693 25.552 81.7109 25.8375 81.8526 26.0516C82.065 26.337 82.2774 26.6225 82.5606 26.7652C82.8438 26.9793 83.1979 27.1221 83.5519 27.2648C83.9059 27.3362 84.26 27.4075 84.6848 27.4075C85.3929 27.4789 86.1009 27.4075 86.809 27.2648C87.3046 27.1934 87.7295 26.9793 88.1543 26.7652C88.7207 26.4798 89.0748 25.8375 89.0748 25.1952C89.0748 24.9811 89.004 24.767 88.8624 24.6242C88.6499 24.4101 88.4375 24.2674 88.2251 24.196C87.9419 24.0533 87.5878 23.9819 87.2338 23.9106C87.0214 23.8749 86.809 23.8214 86.5966 23.7678L86.5965 23.7678C86.3841 23.7143 86.1717 23.6608 85.9593 23.6251C85.7482 23.5825 85.5496 23.54 85.3599 23.4993L85.3595 23.4992C84.9132 23.4035 84.5158 23.3183 84.1183 23.2683C83.5519 23.1969 83.0563 23.1255 82.6314 23.0542C82.4898 23.1969 82.3482 23.3396 82.2066 23.5537C82.1851 23.597 82.1572 23.6467 82.1267 23.7011L82.1267 23.7011L82.1266 23.7012L82.1265 23.7013L82.1264 23.7015C82.0563 23.8265 81.9727 23.9756 81.9234 24.1247ZM87.9419 8.78082C88.1543 8.85218 88.5083 8.99492 88.7915 9.13765C89.4996 8.92355 90.2077 8.78082 91.199 8.70945L91.3919 8.68988C92.0238 8.6256 92.6027 8.56672 93.1815 8.56672L92.6151 11.1359L90.1369 10.7077C90.4201 11.0646 90.5617 11.4214 90.7033 11.8496C90.9157 12.4205 90.9865 13.0628 90.9865 13.6338C90.9865 14.3474 90.8449 15.0611 90.4909 15.7034C90.1369 16.3457 89.712 16.8453 89.2164 17.2735C88.6499 17.6303 88.0835 17.9871 87.517 18.2012C87.0214 18.4153 86.3841 18.5581 85.8177 18.5581C85.1804 18.5581 84.5432 18.5581 83.9059 18.4153L82.6314 17.9871C82.419 18.2012 82.2774 18.344 82.1358 18.5581C81.9942 18.7722 81.9234 18.9863 81.9234 19.2717C81.9234 19.4145 81.9942 19.5572 82.1358 19.6286C82.2774 19.7713 82.4898 19.8427 82.7022 19.914C82.9855 20.0568 83.2687 20.1281 83.5519 20.1995C83.6935 20.2352 83.8528 20.2709 84.0122 20.3066L84.0124 20.3066C84.1716 20.3423 84.3308 20.3779 84.4724 20.4136C84.8264 20.4136 85.1804 20.485 85.4637 20.5563C85.7469 20.6277 86.0301 20.6991 86.3133 20.6991C86.5257 20.7347 86.7734 20.7704 87.0211 20.8061L87.0214 20.8061L87.0218 20.8062C87.2695 20.8418 87.5172 20.8775 87.7295 20.9132C88.2251 20.9845 88.7207 21.0559 89.1456 21.1986L90.4201 21.6268C90.7741 21.7696 91.199 21.9837 91.4822 22.2691C91.7654 22.4832 92.0486 22.8401 92.1902 23.1969C92.4027 23.6251 92.4735 24.0533 92.4735 24.4815C92.4735 25.0524 92.4027 25.6234 92.1194 26.1943C91.907 26.6939 91.6238 27.1221 91.199 27.4789C90.8449 27.8357 90.3493 28.1212 89.8536 28.3353C89.358 28.5494 88.7915 28.6922 88.2251 28.8349C87.6586 28.9776 87.0214 29.1203 86.4549 29.1203C85.8885 29.1917 85.322 29.1917 84.7556 29.1917C83.8351 29.1917 82.9146 29.1203 82.065 28.9776C81.4277 28.9062 80.7905 28.6921 80.224 28.4067C79.7992 28.1926 79.4452 27.9071 79.1619 27.4789C78.9495 27.1934 78.8079 26.7652 78.8079 26.337C78.7371 25.9088 78.8787 25.4806 79.0203 25.0524C79.1619 24.6956 79.3743 24.3388 79.6576 24.0533C79.9408 23.7678 80.224 23.4824 80.578 23.2683C80.8613 23.0542 81.2153 22.8401 81.5693 22.626C81.4322 22.5799 81.295 22.504 81.1388 22.4177L81.1387 22.4176C81.053 22.3702 80.9616 22.3197 80.8613 22.2691C80.578 22.1264 80.2948 21.9837 80.0824 21.7696C79.87 21.5555 79.5868 21.27 79.4451 20.9845C79.2327 20.6277 79.1619 20.2709 79.1619 19.8427C79.1619 19.5572 79.1619 19.2717 79.3035 18.9863C79.4452 18.7008 79.5868 18.4867 79.7992 18.2726C80.0116 18.0585 80.224 17.8444 80.5072 17.7017C80.6488 17.6303 80.8081 17.559 80.9674 17.4876L80.9675 17.4876C81.1268 17.4162 81.2861 17.3448 81.4277 17.2735C81.0737 16.988 80.7905 16.7025 80.5072 16.4171C80.2948 16.1316 80.0824 15.7748 79.9408 15.4893C79.7284 15.1325 79.6576 14.7757 79.5868 14.4189L79.5868 14.4188C79.4452 13.9906 79.4451 13.5624 79.4451 13.1342C79.4451 12.4205 79.5868 11.7069 79.87 11.0646C80.1532 10.4223 80.578 9.92269 81.0737 9.49448C81.6401 9.06628 82.2066 8.78082 82.9146 8.56672C83.6935 8.42398 84.5432 8.28125 85.3221 8.28125C85.5089 8.28125 85.6958 8.30114 85.8723 8.31991C86.0301 8.33671 86.1796 8.35262 86.3133 8.35262C86.5966 8.35262 86.8798 8.42398 87.163 8.49535C87.4462 8.56672 87.6586 8.63808 87.9419 8.78082ZM104.791 17.7009C104.65 17.3441 104.508 16.9873 104.225 16.6304C104.013 16.345 103.8 16.0595 103.517 15.8454L103.517 15.8453C103.234 15.6312 102.95 15.4172 102.667 15.2745C102.384 15.1317 102.101 14.989 101.818 14.9176L101.109 14.6321C100.755 14.4894 100.401 14.3467 99.9766 14.2039L99.9763 14.2039C99.6224 14.0612 99.2684 13.9185 98.8437 13.7757C98.8029 13.762 98.7594 13.7483 98.7144 13.7341L98.7141 13.734C98.5248 13.6742 98.3071 13.6055 98.1356 13.4903C97.9232 13.4189 97.7108 13.2762 97.4984 13.1334L97.0735 12.7052C96.9319 12.5625 96.9319 12.277 96.9319 12.0629C96.9319 11.8488 96.9319 11.6347 97.0735 11.4206C97.1443 11.2065 97.2859 11.0638 97.4276 10.9211C97.64 10.7783 97.8524 10.6356 98.0648 10.5642C98.348 10.4929 98.7021 10.4215 99.0561 10.4215C99.4809 10.4215 99.835 10.4215 100.189 10.5642C100.462 10.6193 100.693 10.717 100.947 10.8243L100.948 10.8244C101.023 10.8561 101.1 10.8886 101.18 10.9211C101.463 11.0638 101.747 11.2779 102.03 11.492C102.313 11.706 102.525 11.92 102.808 12.2052L102.809 12.2055L102.809 12.2056L102.809 12.2057L104.367 9.77921C103.658 9.20827 102.809 8.78007 101.959 8.49461C100.968 8.20914 99.9766 8.06641 98.9853 8.06641C98.2772 8.06641 97.64 8.13777 97.0027 8.35187C96.3655 8.49461 95.799 8.78007 95.3034 9.06554C94.8077 9.35101 94.3829 9.77921 94.0289 10.2788C93.7456 10.7783 93.5332 11.3493 93.604 11.9916C93.604 12.4198 93.6748 12.9193 93.8165 13.3475C93.9581 13.7044 94.1705 14.0612 94.3829 14.418C94.5953 14.7035 94.8785 14.989 95.2326 15.2031C95.5158 15.4172 95.799 15.6313 96.153 15.774L97.0027 16.2022C97.1686 16.2858 97.3345 16.3449 97.472 16.3939C97.5692 16.4286 97.6521 16.4581 97.7108 16.4877L98.7729 16.9159L99.835 17.3441C100.047 17.4155 100.26 17.4868 100.401 17.6296C100.55 17.6796 100.665 17.7648 100.793 17.8605C100.847 17.9012 100.904 17.9438 100.968 17.9864L101.393 18.4146C101.534 18.5573 101.534 18.8428 101.534 18.9855C101.534 19.5565 101.322 19.9847 100.897 20.3415C100.685 20.4842 100.472 20.627 100.189 20.627C99.9058 20.6983 99.6225 20.6983 99.2685 20.6983C97.7816 20.6983 96.4363 19.9847 95.091 18.5573L93.25 20.8411C93.6748 21.2693 94.0997 21.6261 94.5245 21.9116C94.9493 22.197 95.445 22.4111 95.9406 22.6252C96.4363 22.768 97.0027 22.9107 97.4984 22.9821C98.0648 23.0534 98.7021 23.1248 99.2685 23.1248C99.9766 23.1248 100.685 23.0534 101.393 22.8393C102.03 22.6966 102.667 22.4111 103.234 22.0543C103.729 21.7688 104.225 21.2693 104.508 20.7697C104.862 20.2701 105.004 19.6278 105.004 18.9855C105.075 18.6287 105.004 18.2005 104.791 17.7009ZM73.9231 8.63808C74.5604 8.85218 75.1268 9.20902 75.6224 9.63722C76.1181 10.1368 76.4721 10.6364 76.6845 11.2787C76.9678 11.9923 77.1094 12.706 77.1094 13.4197V22.8401H73.6399V14.062V14.0619C73.6399 13.6337 73.6399 13.1342 73.4983 12.6346C73.4275 12.2064 73.215 11.921 73.0026 11.6355C72.7194 11.35 72.4362 11.2073 72.1529 11.0646C71.7989 10.9932 71.4449 10.9218 71.0201 10.9218C70.8784 10.9218 70.7545 10.9397 70.6306 10.9575C70.5067 10.9753 70.3828 10.9932 70.2412 10.9932C69.958 10.9932 69.6747 11.0646 69.3915 11.1359C69.1083 11.2073 68.8251 11.2787 68.5418 11.4214C68.3294 11.4928 68.0462 11.6355 67.763 11.7782V22.8401H64.3643V10.8505V9.77995C64.3643 9.35175 64.2935 8.85218 64.2227 8.42398H67.4089C67.4089 8.5076 67.4332 8.56672 67.4534 8.6157C67.4676 8.65033 67.4797 8.67989 67.4797 8.70945C67.4797 8.73901 67.4919 8.78082 67.5061 8.82979C67.5263 8.89906 67.5505 8.98267 67.5505 9.06628C67.5505 9.13762 67.5682 9.20896 67.5859 9.2803L67.586 9.28039C67.6037 9.35175 67.6214 9.42312 67.6214 9.49449C67.6922 9.63722 67.6922 9.70859 67.6922 9.85132C67.9046 9.63722 68.1878 9.42312 68.471 9.28039C68.7542 9.06628 69.1083 8.92355 69.4623 8.78082C69.8163 8.63808 70.1704 8.49535 70.5952 8.42398C71.02 8.35262 71.4449 8.28125 71.8697 8.28125C72.5778 8.28125 73.2858 8.42398 73.9231 8.63808Z" fill="#E10930"/>
<path d="M168.305 8.49118V10.5608H172.553V22.8359H174.748V10.5608H178.997V8.49118H168.305ZM162.074 8.27708C159.95 8.27708 158.18 8.99074 156.693 10.4181C155.277 11.8454 154.569 13.5582 154.569 15.6279C154.569 17.6975 155.277 19.4103 156.693 20.8376C158.109 22.265 159.95 22.9786 162.074 22.9786C162.782 22.9786 163.49 22.9073 164.128 22.6932C164.836 22.4791 165.331 22.265 165.756 21.9795C166.181 21.694 166.606 21.4086 166.96 21.1231C167.314 20.8376 167.597 20.5522 167.668 20.4094C167.809 20.2667 167.88 20.1953 167.88 20.124L166.464 18.6966L166.322 18.9107C166.181 19.0535 166.039 19.2676 165.756 19.4817C165.473 19.6958 165.19 19.9099 164.906 20.124C164.552 20.3381 164.128 20.5522 163.632 20.6949C163.136 20.8376 162.57 20.909 162.074 20.909C160.587 20.909 159.313 20.4094 158.321 19.3389C157.33 18.3398 156.764 17.0552 156.764 15.5565C156.764 14.0578 157.259 12.8446 158.321 11.774C159.313 10.7749 160.587 10.204 162.074 10.204C162.641 10.204 163.136 10.2753 163.632 10.4181C164.128 10.5608 164.552 10.7749 164.836 10.9176C165.119 11.1317 165.402 11.3458 165.685 11.5599C165.968 11.8454 166.11 11.9881 166.181 12.0595C166.252 12.1309 166.322 12.2023 166.322 12.2736L167.739 10.8463L167.526 10.5608C167.385 10.3467 167.101 10.1326 166.818 9.84715C166.464 9.56168 166.11 9.27621 165.685 9.06211C165.26 8.77664 164.694 8.56254 164.057 8.34844C163.419 8.13434 162.782 8.27708 162.074 8.27708ZM146.001 20.7663V16.3415H152.161V14.2719H146.001V10.4894H153.79V8.41981H143.735V22.8359H154.002V20.7663H146.001ZM139.062 12.9159C139.062 13.5582 138.85 14.1292 138.425 14.6287C138 15.1283 137.434 15.271 136.796 15.271H133.044V10.5608H136.796C137.434 10.5608 138 10.7749 138.425 11.2031C138.85 11.6313 139.062 12.2023 139.062 12.9159ZM130.707 22.8359H132.902V17.3407H136.159L139.204 22.8359H141.611L138.354 17.1266L138.637 16.9838C138.85 16.9125 139.062 16.7697 139.345 16.5556C139.629 16.3415 139.912 16.0561 140.195 15.7706C140.478 15.4851 140.691 15.0569 140.903 14.5574C141.116 14.0578 141.186 13.4869 141.186 12.9159C141.186 11.7027 140.762 10.6322 139.912 9.77578C139.062 8.91938 137.929 8.49118 136.655 8.49118H130.707V22.8359ZM125.467 22.8359H127.662V8.49118H125.467V22.8359ZM116.05 10.5608C117.395 10.5608 118.599 11.0604 119.59 12.0595C120.582 13.0587 121.007 14.2719 121.007 15.6992C121.007 17.1266 120.511 18.3398 119.59 19.3389C118.599 20.3381 117.466 20.8376 116.05 20.8376H113.289V10.5608H116.05ZM111.094 8.49118V22.8359H116.05C118.033 22.8359 119.732 22.1222 121.148 20.6949C122.564 19.2676 123.272 17.6261 123.272 15.6279C123.272 13.701 122.564 11.9881 121.148 10.5608C119.732 9.13348 118.033 8.41981 116.05 8.41981H111.094V8.49118Z" fill="#0059AC"/>
</svg>
