<svg width="170" height="26" viewBox="0 0 170 26" fill="none" xmlns="http://www.w3.org/2000/svg">
<path fill-rule="evenodd" clip-rule="evenodd" d="M53.8174 1.42032C47.6809 4.51288 43.324 0.678107 43.324 0.678107C44.9808 4.38918 50.4423 6.80138 56.5175 3.52326C62.9609 0.121446 67.8087 5.3788 67.8087 5.3788C63.9427 0.0595941 59.5858 -1.42483 53.8174 1.42032ZM10.5548 1.79303V8.65852H3.12963V1.79303H0V10.3903V13.7922V19.7917H3.12963V13.4211V11.1944H10.5548V11.5655V19.7917H13.6845V12.6788V11.3181V1.79303H10.5548ZM46.2692 17.6251C46.0238 17.687 45.717 17.687 45.4101 17.687C45.226 17.687 45.1033 17.687 44.9192 17.5633C44.7965 17.5014 44.6737 17.3777 44.551 17.254C44.4283 17.0685 44.3669 16.8829 44.3055 16.6974C44.2442 16.3881 44.2442 16.0789 44.2442 15.8315V9.52264H47.0056L47.2511 7.4197H44.2442V4.20343H42.035L41.36 7.4197L39.5191 8.03821V9.52264H41.36V16.2026C41.36 16.7592 41.4214 17.3159 41.4827 17.8107C41.6055 18.2437 41.7282 18.6766 42.035 19.0477C42.3419 19.4188 42.6487 19.6662 43.0782 19.7899C43.6305 19.9755 44.1828 20.0992 44.7965 20.0373C45.3488 20.0373 45.8397 19.9136 46.3306 19.7281C46.9443 19.4807 47.4352 19.1714 47.9261 18.8003L47.2511 17.3777C46.9443 17.5014 46.6374 17.5633 46.2692 17.6251ZM38.1701 14.4105C37.986 14.1631 37.8019 13.9157 37.5565 13.7301C37.311 13.5446 37.0656 13.359 36.8201 13.2353L36.8201 13.2353C36.5746 13.1116 36.3292 12.9879 36.0837 12.9261L35.4701 12.6787C35.1632 12.555 34.8564 12.4312 34.4882 12.3075C34.1814 12.1838 33.8746 12.0601 33.5064 11.9364C33.4709 11.9245 33.4332 11.9126 33.3941 11.9003C33.23 11.8485 33.0414 11.7889 32.8927 11.689C32.7086 11.6272 32.5245 11.5035 32.3404 11.3798L31.9722 11.0087C31.8495 10.885 31.8495 10.6376 31.8495 10.452C31.8495 10.2665 31.8495 10.0809 31.9722 9.89535C32.0336 9.7098 32.1563 9.58609 32.2791 9.46239C32.4632 9.33869 32.6473 9.21499 32.8927 9.15314C33.1382 9.09128 33.445 9.02943 33.7518 9.02943C34.12 9.02943 34.4269 9.02943 34.7337 9.15314C34.9705 9.20088 35.1708 9.28549 35.391 9.37851C35.4561 9.40598 35.5228 9.43419 35.5928 9.46239C35.8383 9.58609 36.0837 9.77165 36.3292 9.9572C36.5746 10.1427 36.82 10.3901 37.0041 10.5756L37.0041 10.5757L37.0042 10.5757L38.3542 8.47277C37.7406 7.97796 37.0042 7.60685 36.2678 7.35945C35.4087 7.11204 34.5496 6.98834 33.6905 6.98834C33.0768 6.98834 32.5245 7.05019 31.9722 7.23575C31.42 7.35945 30.929 7.60685 30.4995 7.85426C30.0699 8.10166 29.7017 8.47277 29.4563 8.90573C29.2108 9.33869 29.0267 9.8335 29.0881 10.3902C29.0881 10.7613 29.1494 11.1942 29.2722 11.5653C29.3949 11.8746 29.579 12.1838 29.7631 12.4931C29.9472 12.7405 30.1926 12.9879 30.4995 13.1735C30.7449 13.359 30.9904 13.5446 31.2972 13.6683L32.0336 14.0394C32.1774 14.1118 32.3212 14.1631 32.4403 14.2055C32.5245 14.2355 32.5964 14.2612 32.6473 14.2868L33.5677 14.6579L34.4882 15.029C34.6723 15.0909 34.795 15.1527 34.9791 15.2764C35.1083 15.3198 35.2072 15.3936 35.3184 15.4766L35.3184 15.4766L35.3184 15.4766L35.3187 15.4768C35.3658 15.512 35.4152 15.5488 35.4701 15.5857L35.8383 15.9568C35.961 16.0805 35.961 16.3279 35.961 16.4516C35.961 16.699 35.8996 16.9464 35.8383 17.1319C35.7155 17.3175 35.5928 17.503 35.4087 17.6268C35.2246 17.7505 35.0405 17.8742 34.795 17.8742C34.5496 17.936 34.3041 17.936 33.9973 17.936C32.7086 17.936 31.5427 17.3175 30.3767 16.0805L28.7812 18.0597C29.0881 18.4308 29.5176 18.7401 29.8858 18.9875C30.254 19.2349 30.6836 19.4204 31.1131 19.606C31.5427 19.7297 32.0336 19.8534 32.5245 19.9152C33.0155 19.9771 33.5677 20.039 34.12 20.039C34.7337 20.039 35.3473 19.9771 35.8996 19.7915C36.4519 19.6678 37.0042 19.4204 37.4951 19.1112C37.9247 18.8638 38.3542 18.4308 38.5997 17.9979C38.9065 17.503 39.0292 17.0082 39.0292 16.4516C39.0292 16.0186 38.9679 15.6475 38.8451 15.2146C38.5383 15.029 38.3542 14.7197 38.1701 14.4105ZM22.3985 17.5014C22.6439 17.3777 22.8894 17.254 23.1348 17.0685V13.1719L23.0468 13.1799C22.396 13.2393 21.6915 13.3036 20.9871 13.4811C20.4961 13.6048 20.0666 13.8522 19.637 14.0996C19.3302 14.347 19.0847 14.5944 18.962 14.9655C18.8393 15.3367 18.7779 15.7078 18.7779 16.0789C18.7779 16.3881 18.8393 16.6974 18.9006 16.9448C18.962 17.1922 19.0847 17.3777 19.2075 17.5014C19.3302 17.687 19.5143 17.7488 19.6984 17.8107C19.8825 17.8726 20.0666 17.8726 20.312 17.8726H20.9871C21.1711 17.8726 21.4166 17.8107 21.662 17.7489L21.6621 17.7489C21.9075 17.687 22.153 17.6251 22.3985 17.5014L22.3985 17.5014ZM26.9395 17.9963H27.3077C27.369 17.9756 27.4304 17.9619 27.4918 17.9482C27.6145 17.9207 27.7372 17.8932 27.86 17.8107L28.1668 19.1714C27.9827 19.2333 27.7986 19.357 27.6145 19.4807C27.4304 19.6044 27.2463 19.6662 27.0009 19.7281L26.2645 19.9136C25.9576 19.9755 25.6508 19.9755 25.4054 19.9755C24.9144 20.0373 24.4235 19.8518 23.994 19.6044C23.6258 19.357 23.3803 18.9859 23.2576 18.4911C23.1779 18.5553 23.0983 18.6237 23.0175 18.693C22.7873 18.8907 22.5483 19.0959 22.2757 19.2333C21.9689 19.4807 21.6007 19.6044 21.2325 19.7281L21.2325 19.7281C20.9257 19.8518 20.5576 19.9136 20.1895 19.9755L20.1894 19.9755L20.1894 19.9755L20.1894 19.9755L20.1894 19.9755L20.1894 19.9755L20.1893 19.9755L20.1893 19.9755C19.8825 20.0373 19.5757 20.0373 19.2075 20.0373C18.7165 20.0373 18.2256 19.9136 17.7347 19.7899C17.3665 19.6662 16.9983 19.4807 16.6301 19.1714C16.2619 18.8622 16.0165 18.5529 15.8937 18.12C15.7096 17.6251 15.6483 17.1303 15.6483 16.6355C15.6483 16.0789 15.771 15.5222 15.9551 14.9655C16.1392 14.4707 16.3847 14.0996 16.7529 13.7285C17.121 13.3574 17.5506 13.11 17.9802 12.8626C18.4711 12.6152 18.962 12.4296 19.5143 12.3059C20.0666 12.1822 20.6802 12.1204 21.2939 12.0585L21.2939 12.0585C21.9075 11.9967 22.5826 11.9967 23.1962 11.9967V11.5637C23.1962 11.1926 23.1348 10.8834 23.0121 10.5123C22.8894 10.203 22.7667 9.9556 22.5212 9.77004C22.4394 9.72881 22.3575 9.6807 22.2757 9.6326C22.1121 9.53638 21.9484 9.44017 21.7848 9.39894C21.478 9.33708 21.1712 9.27523 20.8643 9.27523C20.5575 9.27523 20.312 9.27523 20.0666 9.33708C19.7598 9.33708 19.5143 9.46079 19.2688 9.58449C19.0234 9.70819 18.7165 9.89375 18.4711 10.0793C18.1643 10.3267 17.8574 10.5741 17.5506 10.8834L15.9551 9.08968C16.6301 8.53302 17.4279 8.03821 18.287 7.72895C19.1461 7.4197 20.0666 7.23414 21.0484 7.23414C21.7234 7.23414 22.3371 7.35785 22.9507 7.48155C23.503 7.60525 24.0553 7.85266 24.5462 8.16191C24.9758 8.47117 25.4054 8.90413 25.6508 9.39894C25.9576 9.89375 26.0804 10.5123 26.0804 11.1308V16.5737C26.0804 16.6974 26.0957 16.8056 26.1111 16.9139C26.1264 17.0221 26.1417 17.1303 26.1417 17.254C26.1417 17.4396 26.2031 17.5633 26.2645 17.687C26.2645 17.8107 26.3872 17.8726 26.5099 17.9344C26.6327 17.9963 26.8168 17.9963 26.9395 17.9963ZM52.8362 7.41803H49.8906V19.7883H52.8362V7.41803ZM75.4198 13.4189C75.5426 13.1715 75.6653 12.8622 75.6653 12.553C75.6858 12.4293 75.6994 12.3056 75.713 12.1819C75.7403 11.9345 75.7676 11.6871 75.8494 11.4397C75.8494 10.5738 75.6653 9.89339 75.2971 9.52228C74.8676 9.08932 74.3153 8.84192 73.7016 8.90377C73.1493 8.90377 72.597 9.08932 72.2289 9.52228C71.8607 9.95524 71.6766 10.5738 71.6766 11.3778C71.6766 11.7489 71.7379 12.12 71.7993 12.4911C71.8607 12.8004 71.9834 13.1715 72.1675 13.4189C72.3516 13.6663 72.597 13.9137 72.8425 14.0374C73.1493 14.223 73.5175 14.2848 73.8857 14.2848C74.1925 14.2848 74.5607 14.223 74.8676 14.0374C75.113 13.9137 75.2971 13.6663 75.4198 13.4189ZM71.0015 20.9029C70.9402 21.0266 70.8788 21.2122 70.8788 21.3977C70.8788 21.5833 70.8175 21.7688 70.6947 21.8925C70.6947 22.1399 70.8175 22.3873 70.9402 22.5729C71.1243 22.8203 71.3084 23.0677 71.5538 23.1914C71.7993 23.377 72.1061 23.5007 72.4129 23.6244C72.7198 23.6862 73.0266 23.7481 73.3948 23.7481C74.0084 23.8099 74.6221 23.7481 75.2357 23.6244C75.6653 23.5625 76.0335 23.377 76.4017 23.1914C76.8926 22.944 77.1994 22.3873 77.1994 21.8307C77.1994 21.6451 77.1381 21.4596 77.0153 21.3359C76.8312 21.1503 76.6471 21.0266 76.4631 20.9648C76.2176 20.8411 75.9108 20.7792 75.6039 20.7174C75.4198 20.6864 75.2357 20.64 75.0517 20.5936L75.0516 20.5936C74.8675 20.5472 74.6834 20.5009 74.4994 20.4699C74.3163 20.433 74.1442 20.3961 73.9797 20.3609L73.9796 20.3609L73.9795 20.3608C73.5927 20.2779 73.2483 20.2041 72.9039 20.1607C72.4129 20.0988 71.9834 20.037 71.6152 19.9751C71.4925 20.0988 71.3697 20.2225 71.247 20.4081C71.2284 20.4456 71.2042 20.4887 71.1778 20.5358L71.1777 20.5358L71.1777 20.5359L71.1776 20.5361C71.1168 20.6445 71.0443 20.7737 71.0015 20.9029ZM76.2176 7.60489C76.4017 7.66675 76.7085 7.79045 76.954 7.91415C77.5676 7.7286 78.1813 7.60489 79.0404 7.54304L79.2076 7.52608C79.7553 7.47037 80.257 7.41934 80.7586 7.41934L80.2677 9.64598L78.1199 9.27488C78.3654 9.58413 78.4881 9.89339 78.6108 10.2645C78.7949 10.7593 78.8563 11.316 78.8563 11.8108C78.8563 12.4293 78.7336 13.0478 78.4268 13.6045C78.1199 14.1611 77.7517 14.5941 77.3222 14.9652C76.8312 15.2744 76.3403 15.5837 75.8494 15.7693C75.4198 15.9548 74.8676 16.0785 74.3766 16.0785C73.8243 16.0785 73.2721 16.0785 72.7198 15.9548L71.6152 15.5837L71.6151 15.5838L71.615 15.5839L71.6149 15.5839L71.6149 15.584L71.6147 15.5841C71.4309 15.7695 71.3083 15.8931 71.1856 16.0785C71.0629 16.2641 71.0015 16.4496 71.0015 16.697C71.0015 16.8207 71.0629 16.9444 71.1856 17.0063C71.3084 17.13 71.4925 17.1918 71.6766 17.2537C71.922 17.3774 72.1675 17.4392 72.4129 17.5011C72.5357 17.532 72.6738 17.5629 72.8118 17.5939C72.9499 17.6248 73.088 17.6557 73.2107 17.6866C73.5175 17.6866 73.8243 17.7485 74.0698 17.8103C74.3153 17.8722 74.5607 17.934 74.8062 17.934C74.9902 17.965 75.2049 17.9959 75.4196 18.0268L75.4199 18.0268C75.6346 18.0578 75.8494 18.0887 76.0335 18.1196C76.4631 18.1815 76.8926 18.2433 77.2608 18.367L78.3654 18.7381C78.6722 18.8618 79.0404 19.0474 79.2859 19.2948C79.5313 19.4803 79.7768 19.7896 79.8995 20.0988C80.0836 20.4699 80.145 20.8411 80.145 21.2122C80.145 21.707 80.0836 22.2018 79.8382 22.6966C79.6541 23.1295 79.4086 23.5007 79.0404 23.8099C78.7336 24.1192 78.304 24.3666 77.8745 24.5521C77.4449 24.7377 76.954 24.8614 76.4631 24.9851C75.9721 25.1088 75.4198 25.2325 74.9289 25.2325C74.438 25.2943 73.9471 25.2943 73.4562 25.2943C72.6584 25.2943 71.8607 25.2325 71.1243 25.1088C70.572 25.0469 70.0197 24.8614 69.5288 24.614C69.1606 24.4284 68.8538 24.181 68.6083 23.8099C68.4242 23.5625 68.3015 23.1914 68.3015 22.8203C68.2401 22.4492 68.3628 22.0781 68.4856 21.707C68.6083 21.3977 68.7924 21.0885 69.0379 20.8411C69.2833 20.5937 69.5288 20.3462 69.8356 20.1607C70.081 19.9752 70.3878 19.7896 70.6946 19.6041L70.6947 19.604C70.5758 19.5641 70.457 19.4984 70.3216 19.4235C70.2473 19.3824 70.168 19.3386 70.0811 19.2948C69.8356 19.1711 69.5901 19.0474 69.4061 18.8618C69.222 18.6763 68.9765 18.4289 68.8538 18.1815C68.6697 17.8722 68.6083 17.5629 68.6083 17.1918C68.6083 16.9444 68.6083 16.697 68.731 16.4496C68.8538 16.2022 68.9765 16.0167 69.1606 15.8311C69.3447 15.6456 69.5288 15.46 69.7742 15.3363C69.897 15.2744 70.035 15.2126 70.1731 15.1507C70.3112 15.0889 70.4493 15.027 70.572 14.9652C70.2652 14.7178 70.0197 14.4704 69.7742 14.223C69.5901 13.9756 69.4061 13.6663 69.2833 13.4189C69.0992 13.1097 69.0379 12.8004 68.9765 12.4911C68.8538 12.12 68.8538 11.7489 68.8538 11.3778C68.8538 10.7593 68.9765 10.1408 69.222 9.58413C69.4674 9.02747 69.8356 8.59451 70.2652 8.22341C70.7561 7.8523 71.247 7.60489 71.8607 7.41934C72.5357 7.29564 73.2721 7.17194 73.9471 7.17194C74.109 7.17194 74.271 7.18917 74.424 7.20544C74.5607 7.22 74.6903 7.23379 74.8062 7.23379C75.0517 7.23379 75.2971 7.29564 75.5426 7.35749C75.788 7.41934 75.9721 7.48119 76.2176 7.60489ZM90.8189 15.3383C90.6962 15.029 90.5735 14.7197 90.328 14.4105C90.1439 14.1631 89.9598 13.9157 89.7144 13.7301C89.4689 13.5446 89.2234 13.359 88.978 13.2353C88.7325 13.1116 88.4871 12.9879 88.2416 12.9261L87.6279 12.6787L87.6279 12.6786C87.3211 12.5549 87.0143 12.4312 86.6461 12.3075C86.3393 12.1838 86.0324 12.0601 85.6643 11.9364C85.6288 11.9245 85.5911 11.9126 85.5519 11.9003C85.3879 11.8485 85.1992 11.7889 85.0506 11.689C84.8665 11.6272 84.6824 11.5035 84.4983 11.3798L84.1301 11.0087C84.0074 10.885 84.0074 10.6376 84.0074 10.452C84.0074 10.2665 84.0074 10.0809 84.1301 9.89535C84.1915 9.7098 84.3142 9.58609 84.437 9.46239L84.437 9.46235C84.6211 9.33866 84.8052 9.21498 84.9892 9.15314C85.2347 9.09128 85.5415 9.02943 85.8484 9.02943C86.2165 9.02943 86.5234 9.02943 86.8302 9.15314C87.0671 9.20088 87.2674 9.2855 87.4875 9.37851L87.4878 9.37862L87.4891 9.37916L87.4903 9.37967C87.5545 9.40677 87.6203 9.43458 87.6893 9.46239C87.9348 9.58609 88.1802 9.77165 88.4257 9.9572C88.6711 10.1427 88.8552 10.3283 89.1006 10.5756L89.1007 10.5757L90.4507 8.47277C89.8371 7.97796 89.1007 7.60685 88.3643 7.35945C87.5052 7.11204 86.6461 6.98834 85.787 6.98834C85.1733 6.98834 84.621 7.05019 84.0688 7.23575C83.5165 7.35945 83.0256 7.60685 82.596 7.85426C82.1664 8.10166 81.7983 8.47277 81.4914 8.90573C81.246 9.33869 81.0619 9.8335 81.1232 10.3902C81.1232 10.7613 81.1846 11.1942 81.3073 11.5653C81.4301 11.8746 81.6142 12.1838 81.7983 12.4931C81.9823 12.7405 82.2278 12.9879 82.5346 13.1735C82.7801 13.359 83.0256 13.5446 83.3324 13.6683L84.0688 14.0394C84.2125 14.1118 84.3563 14.1631 84.4754 14.2055C84.5597 14.2355 84.6316 14.2612 84.6824 14.2868L85.6029 14.6579L86.5234 15.029C86.7075 15.0909 86.8916 15.1527 87.0143 15.2764C87.1434 15.3198 87.2424 15.3936 87.3535 15.4766L87.3537 15.4767L87.3543 15.4771C87.4013 15.5122 87.4506 15.5489 87.5052 15.5857L87.8734 15.9568C87.9961 16.0805 87.9961 16.3279 87.9961 16.4516C87.9961 16.9464 87.812 17.3175 87.4438 17.6268C87.2598 17.7505 87.0757 17.8742 86.8302 17.8742C86.5847 17.936 86.3393 17.936 86.0324 17.936C84.7438 17.936 83.5778 17.3175 82.4119 16.0805L80.8164 18.0597C81.1846 18.4308 81.5528 18.7401 81.921 18.9875C82.2892 19.2349 82.7187 19.4204 83.1483 19.606C83.5778 19.7297 84.0688 19.8534 84.4983 19.9152C84.9892 19.9771 85.5415 20.039 86.0324 20.039C86.6461 20.039 87.2598 19.9771 87.8734 19.7915C88.4257 19.6678 88.978 19.4204 89.4689 19.1112C89.8985 18.8638 90.328 18.4308 90.5735 17.9979C90.8803 17.5649 91.003 17.0082 91.003 16.4516C91.0644 16.1423 91.003 15.7712 90.8189 15.3383ZM64.0633 7.48119C64.6156 7.66675 65.1065 7.976 65.5361 8.34711C65.9656 8.78007 66.2725 9.21303 66.4566 9.76969C66.702 10.3882 66.8247 11.0067 66.8247 11.6252V19.7896H63.8178V12.1819C63.8178 11.8108 63.8178 11.3778 63.6951 10.9449C63.6338 10.5738 63.4497 10.3264 63.2656 10.079L63.2656 10.0789C63.0201 9.83154 62.7746 9.70784 62.5292 9.58413C62.2223 9.52228 61.9155 9.46043 61.5473 9.46043C61.4246 9.46043 61.3172 9.47589 61.2098 9.49136C61.1024 9.50682 60.995 9.52228 60.8723 9.52228C60.6268 9.52228 60.3814 9.58413 60.1359 9.64598C59.8905 9.70784 59.645 9.76969 59.3995 9.89339C59.2154 9.95524 58.97 10.0789 58.7245 10.2026V19.7896H55.779V9.39858V8.47081C55.779 8.0997 55.7176 7.66675 55.6562 7.29564H58.4177C58.4177 7.3681 58.4387 7.41934 58.4562 7.46179C58.4685 7.4918 58.4791 7.51742 58.4791 7.54304C58.4791 7.56866 58.4896 7.60489 58.5019 7.64734C58.5194 7.70737 58.5404 7.77984 58.5404 7.8523C58.5404 7.91415 58.5558 7.976 58.5711 8.03785C58.5864 8.0997 58.6018 8.16156 58.6018 8.22341C58.6632 8.34711 58.6632 8.40896 58.6632 8.53266C58.8472 8.34711 59.0927 8.16156 59.3382 8.03785C59.5836 7.8523 59.8905 7.7286 60.1973 7.60489C60.5041 7.48119 60.8109 7.35749 61.1791 7.29564C61.5473 7.23379 61.9155 7.17194 62.2837 7.17194C62.8974 7.17194 63.511 7.29564 64.0633 7.48119Z" fill="#E40034"/>
<path d="M96 7.09091H105.455V9.63636H98.7273V12.0909H104V14.5455H98.7273V17.2727H105.636V19.8182H96V7.09091Z" fill="#E40034"/>
<path d="M110.546 20C109.928 20 109.383 19.9152 108.91 19.7455C108.437 19.5758 108.037 19.3879 107.71 19.1818C107.322 18.9515 106.995 18.6788 106.728 18.3636L108.183 16.8182C108.364 17.0121 108.576 17.1818 108.819 17.3273C109.025 17.4606 109.273 17.5758 109.564 17.6727C109.855 17.7697 110.183 17.8182 110.546 17.8182C110.958 17.8182 111.243 17.7576 111.401 17.6364C111.558 17.5152 111.637 17.3636 111.637 17.1818C111.637 17.0121 111.522 16.8727 111.292 16.7636C111.073 16.6424 110.795 16.5273 110.455 16.4182C110.116 16.3091 109.752 16.1818 109.364 16.0364C108.976 15.8909 108.613 15.7091 108.273 15.4909C107.934 15.2727 107.649 15 107.419 14.6727C107.201 14.3455 107.092 13.9394 107.092 13.4545C107.092 13.0909 107.17 12.7455 107.328 12.4182C107.486 12.0909 107.71 11.8 108.001 11.5455C108.304 11.2909 108.673 11.0909 109.11 10.9455C109.558 10.8 110.067 10.7273 110.637 10.7273C111.207 10.7273 111.704 10.8 112.128 10.9455C112.564 11.0909 112.928 11.2485 113.219 11.4182C113.558 11.6242 113.849 11.8485 114.092 12.0909L112.637 13.6364C112.492 13.503 112.316 13.3818 112.11 13.2727C111.94 13.1758 111.728 13.0909 111.473 13.0182C111.231 12.9455 110.952 12.9091 110.637 12.9091C110.322 12.9091 110.092 12.9697 109.946 13.0909C109.801 13.2 109.728 13.3212 109.728 13.4545C109.728 13.6242 109.837 13.7697 110.055 13.8909C110.286 14 110.57 14.1091 110.91 14.2182C111.249 14.3273 111.613 14.4545 112.001 14.6C112.389 14.7455 112.752 14.9273 113.092 15.1455C113.431 15.3636 113.71 15.6364 113.928 15.9636C114.158 16.2909 114.273 16.697 114.273 17.1818C114.273 17.5697 114.195 17.9333 114.037 18.2727C113.879 18.6121 113.643 18.9091 113.328 19.1636C113.013 19.4182 112.625 19.6242 112.164 19.7818C111.704 19.9273 111.164 20 110.546 20Z" fill="#E40034"/>
<path d="M118.82 20C118.202 20 117.657 19.9152 117.184 19.7455C116.711 19.5758 116.311 19.3879 115.984 19.1818C115.596 18.9515 115.269 18.6788 115.002 18.3636L116.457 16.8182C116.638 17.0121 116.851 17.1818 117.093 17.3273C117.299 17.4606 117.548 17.5758 117.838 17.6727C118.129 17.7697 118.457 17.8182 118.82 17.8182C119.232 17.8182 119.517 17.7576 119.675 17.6364C119.832 17.5152 119.911 17.3636 119.911 17.1818C119.911 17.0121 119.796 16.8727 119.566 16.7636C119.348 16.6424 119.069 16.5273 118.729 16.4182C118.39 16.3091 118.026 16.1818 117.638 16.0364C117.251 15.8909 116.887 15.7091 116.548 15.4909C116.208 15.2727 115.923 15 115.693 14.6727C115.475 14.3455 115.366 13.9394 115.366 13.4545C115.366 13.0909 115.445 12.7455 115.602 12.4182C115.76 12.0909 115.984 11.8 116.275 11.5455C116.578 11.2909 116.948 11.0909 117.384 10.9455C117.832 10.8 118.342 10.7273 118.911 10.7273C119.481 10.7273 119.978 10.8 120.402 10.9455C120.838 11.0909 121.202 11.2485 121.493 11.4182C121.832 11.6242 122.123 11.8485 122.366 12.0909L120.911 13.6364C120.766 13.503 120.59 13.3818 120.384 13.2727C120.214 13.1758 120.002 13.0909 119.748 13.0182C119.505 12.9455 119.226 12.9091 118.911 12.9091C118.596 12.9091 118.366 12.9697 118.22 13.0909C118.075 13.2 118.002 13.3212 118.002 13.4545C118.002 13.6242 118.111 13.7697 118.329 13.8909C118.56 14 118.845 14.1091 119.184 14.2182C119.523 14.3273 119.887 14.4545 120.275 14.6C120.663 14.7455 121.026 14.9273 121.366 15.1455C121.705 15.3636 121.984 15.6364 122.202 15.9636C122.432 16.2909 122.548 16.697 122.548 17.1818C122.548 17.5697 122.469 17.9333 122.311 18.2727C122.154 18.6121 121.917 18.9091 121.602 19.1636C121.287 19.4182 120.899 19.6242 120.438 19.7818C119.978 19.9273 119.438 20 118.82 20Z" fill="#E40034"/>
<path d="M128.367 20C127.713 20 127.094 19.8788 126.513 19.6364C125.943 19.3939 125.44 19.0606 125.004 18.6364C124.579 18.2121 124.246 17.7212 124.004 17.1636C123.761 16.6061 123.64 16.0061 123.64 15.3636C123.64 14.7333 123.761 14.1394 124.004 13.5818C124.246 13.0121 124.579 12.5152 125.004 12.0909C125.428 11.6667 125.919 11.3333 126.476 11.0909C127.034 10.8485 127.634 10.7273 128.276 10.7273C128.894 10.7273 129.47 10.8485 130.004 11.0909C130.549 11.3212 131.022 11.6364 131.422 12.0364C131.822 12.4364 132.137 12.9091 132.367 13.4545C132.61 13.9879 132.731 14.5636 132.731 15.1818C132.731 15.3515 132.725 15.503 132.713 15.6364C132.701 15.7576 132.688 15.8667 132.676 15.9636C132.664 16.0848 132.652 16.1879 132.64 16.2727H126.185C126.319 16.6848 126.573 17.0485 126.949 17.3636C127.337 17.6667 127.87 17.8182 128.549 17.8182C128.937 17.8182 129.276 17.7697 129.567 17.6727C129.858 17.5758 130.107 17.4606 130.313 17.3273C130.543 17.1818 130.743 17.0121 130.913 16.8182L132.185 18.5455C131.919 18.8121 131.591 19.0545 131.204 19.2727C130.876 19.4545 130.476 19.6242 130.004 19.7818C129.531 19.9273 128.985 20 128.367 20ZM130.185 14.4545C130.052 14.0424 129.81 13.6848 129.458 13.3818C129.119 13.0667 128.694 12.9091 128.185 12.9091C127.676 12.9091 127.246 13.0667 126.894 13.3818C126.555 13.6848 126.319 14.0424 126.185 14.4545H130.185Z" fill="#E40034"/>
<path d="M134.555 10.9091H137.009V12.1818H137.1C137.294 11.9152 137.518 11.6727 137.773 11.4545C137.991 11.2727 138.264 11.1091 138.591 10.9636C138.918 10.8061 139.3 10.7273 139.737 10.7273C140.185 10.7273 140.609 10.8182 141.009 11C141.409 11.1697 141.755 11.4182 142.046 11.7455C142.349 12.0606 142.585 12.4485 142.755 12.9091C142.924 13.3697 143.009 13.8848 143.009 14.4545V19.8182H140.555V14.8182C140.555 14.2727 140.409 13.8485 140.118 13.5455C139.827 13.2424 139.427 13.0909 138.918 13.0909C138.373 13.0909 137.918 13.2788 137.555 13.6545C137.191 14.0182 137.009 14.497 137.009 15.0909V19.8182H134.555V10.9091Z" fill="#E40034"/>
<path d="M148.918 20C148.009 20 147.281 19.7212 146.736 19.1636C146.19 18.5939 145.918 17.7818 145.918 16.7273V13.3636H144.372V11.0909H145.19C145.857 11.0909 146.19 10.7273 146.19 10V8.36364H148.372V11.0909H150.372V13.3636H148.372V16.3636C148.372 16.7758 148.475 17.0909 148.681 17.3091C148.899 17.5273 149.19 17.6364 149.554 17.6364C149.821 17.6364 150.057 17.6061 150.263 17.5455C150.372 17.5212 150.469 17.4909 150.554 17.4545V19.7273C150.409 19.7758 150.251 19.8242 150.081 19.8727C149.936 19.9091 149.76 19.9394 149.554 19.9636C149.36 19.9879 149.148 20 148.918 20Z" fill="#E40034"/>
<path d="M152.47 10.9091H154.925V19.8182H152.47V10.9091ZM153.688 9.72727C153.3 9.72727 152.967 9.59394 152.688 9.32727C152.422 9.04849 152.288 8.72727 152.288 8.36364C152.288 8 152.428 7.68485 152.707 7.41818C152.985 7.13939 153.319 7 153.707 7C154.094 7 154.422 7.13939 154.688 7.41818C154.967 7.68485 155.107 8 155.107 8.36364C155.107 8.72727 154.967 9.04849 154.688 9.32727C154.41 9.59394 154.076 9.72727 153.688 9.72727Z" fill="#E40034"/>
<path d="M159.555 20C159.143 20 158.767 19.9394 158.427 19.8182C158.1 19.6848 157.815 19.503 157.573 19.2727C157.343 19.0424 157.161 18.7758 157.027 18.4727C156.894 18.1576 156.827 17.8182 156.827 17.4545C156.827 16.7273 157.058 16.1091 157.518 15.6C157.991 15.0788 158.64 14.7455 159.464 14.6L162.282 14.0909C162.233 13.7758 162.076 13.503 161.809 13.2727C161.555 13.0303 161.197 12.9091 160.737 12.9091C160.421 12.9091 160.136 12.9636 159.882 13.0727C159.64 13.1697 159.433 13.2848 159.264 13.4182C159.058 13.5636 158.882 13.7273 158.736 13.9091L157.282 12.4545C157.536 12.1394 157.846 11.8545 158.209 11.6C158.524 11.3818 158.906 11.1818 159.355 11C159.803 10.8182 160.324 10.7273 160.918 10.7273C161.488 10.7273 162.003 10.8182 162.464 11C162.936 11.1818 163.343 11.4364 163.682 11.7636C164.021 12.0788 164.282 12.4545 164.464 12.8909C164.646 13.3152 164.736 13.7758 164.736 14.2727V19.8182H162.282V18.7273H162.191C161.997 18.9697 161.773 19.1818 161.518 19.3636C161.3 19.5333 161.021 19.6848 160.682 19.8182C160.355 19.9394 159.979 20 159.555 20ZM160.373 18C160.918 18 161.373 17.8182 161.737 17.4545C162.1 17.0788 162.282 16.5939 162.282 16V15.8182L160.282 16.1818C159.967 16.2424 159.718 16.3515 159.537 16.5091C159.367 16.6667 159.282 16.8606 159.282 17.0909C159.282 17.3697 159.373 17.5939 159.555 17.7636C159.736 17.9212 160.009 18 160.373 18Z" fill="#E40034"/>
<path d="M167.192 7.09091H169.646V19.8182H167.192V7.09091Z" fill="#E40034"/>
</svg>
