<svg width="123" height="36" viewBox="0 0 123 36" fill="none" xmlns="http://www.w3.org/2000/svg">
<path d="M3.96 13H6.66V2.92H10.26V0.399999H0.36V2.92H3.96V13ZM11.5256 13H13.9556V8.32C13.9556 7.15 14.7656 6.34 15.8456 6.34C16.8536 6.34 17.4656 6.97 17.4656 8.05V13H19.8956V7.69C19.8956 5.44 18.4556 4 16.6556 4C15.7916 4 15.1436 4.36 14.7116 4.72C14.4596 4.936 14.2436 5.17 14.0456 5.44H13.9556V0.399999H11.5256V13ZM22.2286 13H24.6586V4.18H22.2286V13ZM22.0486 1.66C22.0486 2.38 22.6606 3.01 23.4346 3.01C24.2086 3.01 24.8386 2.38 24.8386 1.66C24.8386 0.94 24.2266 0.309999 23.4526 0.309999C22.6786 0.309999 22.0486 0.94 22.0486 1.66ZM26.9923 13H29.4223V8.86C29.4223 7.42 30.3223 6.52 31.4923 6.52C31.7623 6.52 31.9603 6.556 32.1043 6.574L32.3023 6.61V4H32.1223C31.2583 4 30.6103 4.36 30.1783 4.72C29.9263 4.936 29.7103 5.17 29.5123 5.44H29.4223V4.18H26.9923V13ZM39.9544 13H42.3844V0.399999H39.9544V5.44H39.8644C39.6844 5.17 39.4504 4.936 39.1804 4.72C38.6944 4.36 38.0104 4 37.0744 4C34.9864 4 33.1144 5.908 33.1144 8.59C33.1144 11.29 34.9864 13.18 37.0744 13.18C38.0104 13.18 38.6944 12.82 39.1804 12.46C39.4504 12.244 39.6844 12.01 39.8644 11.74H39.9544V13ZM37.7944 10.93C36.5344 10.93 35.5444 9.94 35.5444 8.59C35.5444 7.24 36.5344 6.25 37.7944 6.25C39.0544 6.25 40.0444 7.24 40.0444 8.59C40.0444 9.94 39.0544 10.93 37.7944 10.93ZM48.5958 16.78H51.0258V11.74H51.1158C51.2958 12.01 51.5298 12.244 51.7998 12.46C52.2858 12.82 52.9518 13.18 53.9058 13.18C55.9938 13.18 57.8658 11.29 57.8658 8.59C57.8658 5.908 55.9938 4 53.9058 4C52.9518 4 52.2858 4.36 51.7998 4.72C51.5298 4.936 51.2958 5.17 51.1158 5.44H51.0258V4.18H48.5958V16.78ZM53.1858 10.93C51.9258 10.93 50.9358 9.94 50.9358 8.59C50.9358 7.24 51.9258 6.25 53.1858 6.25C54.4458 6.25 55.4358 7.24 55.4358 8.59C55.4358 9.94 54.4458 10.93 53.1858 10.93ZM64.62 13H67.05V7.51C67.05 5.548 65.52 4 63.27 4C62.1 4 61.218 4.432 60.588 4.864C60.228 5.116 59.922 5.404 59.67 5.71L61.11 7.15C61.254 6.97 61.434 6.808 61.632 6.664C61.974 6.394 62.46 6.16 63.09 6.16C64.008 6.16 64.53 6.7 64.62 7.33L61.83 7.834C60.192 8.122 59.22 9.22 59.22 10.66C59.22 12.1 60.3 13.18 61.92 13.18C62.766 13.18 63.432 12.892 63.864 12.55C64.116 12.37 64.332 12.154 64.53 11.92H64.62V13ZM64.62 9.22C64.62 10.39 63.81 11.2 62.73 11.2C62.01 11.2 61.65 10.858 61.65 10.3C61.65 9.85 62.01 9.526 62.64 9.4L64.62 9.04V9.22ZM69.3907 13H71.8207V8.86C71.8207 7.42 72.7207 6.52 73.8907 6.52C74.1607 6.52 74.3587 6.556 74.5027 6.574L74.7007 6.61V4H74.5207C73.6567 4 73.0087 4.36 72.5767 4.72C72.3247 4.936 72.1087 5.17 71.9107 5.44H71.8207V4.18H69.3907V13ZM76.9486 9.94C76.9486 12.028 78.1186 13.18 79.9186 13.18C80.3686 13.18 80.7826 13.126 81.0706 13.054C81.2326 13 81.3946 12.964 81.5386 12.91V10.66C81.4486 10.696 81.3586 10.732 81.2506 10.75C81.0526 10.804 80.8186 10.84 80.5486 10.84C79.8286 10.84 79.3786 10.39 79.3786 9.58V6.61H81.3586V4.36H79.3786V1.66H77.2186V3.28C77.2186 4 76.8946 4.36 76.2286 4.36H75.4186V6.61H76.9486V9.94ZM82.7198 16.51C82.8638 16.564 83.0258 16.6 83.1878 16.654C83.4758 16.726 83.8898 16.78 84.3398 16.78C85.9778 16.78 87.0218 15.718 87.7598 13.72L91.3598 4.18H88.7498L86.7698 10.03H86.6798L84.6098 4.18H81.9998L85.4198 12.91L85.2398 13.36C84.9698 13.99 84.5198 14.44 83.7098 14.44C83.4398 14.44 83.2058 14.404 83.0078 14.35C82.8998 14.332 82.8098 14.296 82.7198 14.26V16.51ZM96.4034 13H98.8334V6.61H100.813V4.36H98.8334V3.82C98.8334 3.01 99.2834 2.56 100.003 2.56C100.273 2.56 100.507 2.596 100.705 2.65C100.813 2.686 100.903 2.722 100.993 2.74V0.489999C100.849 0.454 100.687 0.417999 100.525 0.364C100.237 0.291999 99.8234 0.219999 99.3734 0.219999C97.5734 0.219999 96.4034 1.372 96.4034 3.46V4.36H95.0534V6.61H96.4034V13ZM102.525 13H104.955V4.18H102.525V13ZM102.345 1.66C102.345 2.38 102.957 3.01 103.731 3.01C104.505 3.01 105.135 2.38 105.135 1.66C105.135 0.94 104.523 0.309999 103.749 0.309999C102.975 0.309999 102.345 0.94 102.345 1.66ZM107.289 13H109.719V8.86C109.719 7.42 110.619 6.52 111.789 6.52C112.059 6.52 112.257 6.556 112.401 6.574L112.599 6.61V4H112.419C111.555 4 110.907 4.36 110.475 4.72C110.223 4.936 110.007 5.17 109.809 5.44H109.719V4.18H107.289V13ZM120.611 10.03C120.449 10.228 120.251 10.39 120.017 10.534C119.603 10.804 119.045 11.02 118.271 11.02C116.921 11.02 116.201 10.3 115.931 9.49H122.321L122.357 9.184C122.375 8.986 122.411 8.752 122.411 8.41C122.411 5.98 120.431 4 118.001 4C115.481 4 113.411 6.07 113.411 8.59C113.411 11.11 115.481 13.18 118.091 13.18C119.315 13.18 120.251 12.82 120.899 12.46C121.277 12.244 121.601 12.01 121.871 11.74L120.611 10.03ZM115.931 7.69C116.201 6.88 116.903 6.16 117.911 6.16C118.919 6.16 119.621 6.88 119.891 7.69H115.931ZM6.12 35H8.55V29.51C8.55 27.548 7.02 26 4.77 26C3.6 26 2.718 26.432 2.088 26.864C1.728 27.116 1.422 27.404 1.17 27.71L2.61 29.15C2.754 28.97 2.934 28.808 3.132 28.664C3.474 28.394 3.96 28.16 4.59 28.16C5.508 28.16 6.03 28.7 6.12 29.33L3.33 29.834C1.692 30.122 0.72 31.22 0.72 32.66C0.72 34.1 1.8 35.18 3.42 35.18C4.266 35.18 4.932 34.892 5.364 34.55C5.616 34.37 5.832 34.154 6.03 33.92H6.12V35ZM6.12 31.22C6.12 32.39 5.31 33.2 4.23 33.2C3.51 33.2 3.15 32.858 3.15 32.3C3.15 31.85 3.51 31.526 4.14 31.4L6.12 31.04V31.22ZM10.8907 35H13.3207V30.32C13.3207 29.15 14.1307 28.34 15.2107 28.34C16.2187 28.34 16.8307 28.97 16.8307 30.05V35H19.2607V29.69C19.2607 27.44 17.8207 26 16.0207 26C15.1567 26 14.5087 26.36 14.0767 26.72C13.8247 26.936 13.6087 27.17 13.4107 27.44H13.3207V26.18H10.8907V35ZM27.8958 35H30.3258V22.4H27.8958V27.44H27.8058C27.6258 27.17 27.3918 26.936 27.1218 26.72C26.6358 26.36 25.9518 26 25.0158 26C22.9278 26 21.0558 27.908 21.0558 30.59C21.0558 33.29 22.9278 35.18 25.0158 35.18C25.9518 35.18 26.6358 34.82 27.1218 34.46C27.3918 34.244 27.6258 34.01 27.8058 33.74H27.8958V35ZM25.7358 32.93C24.4758 32.93 23.4858 31.94 23.4858 30.59C23.4858 29.24 24.4758 28.25 25.7358 28.25C26.9958 28.25 27.9858 29.24 27.9858 30.59C27.9858 31.94 26.9958 32.93 25.7358 32.93ZM37.2572 31.94C37.2572 34.028 38.4272 35.18 40.2272 35.18C40.6772 35.18 41.0912 35.126 41.3792 35.054C41.5412 35 41.7032 34.964 41.8472 34.91V32.66C41.7572 32.696 41.6672 32.732 41.5592 32.75C41.3612 32.804 41.1272 32.84 40.8572 32.84C40.1372 32.84 39.6872 32.39 39.6872 31.58V28.61H41.6672V26.36H39.6872V23.66H37.5272V25.28C37.5272 26 37.2032 26.36 36.5372 26.36H35.7272V28.61H37.2572V31.94ZM43.8342 35H46.2642V30.32C46.2642 29.15 47.0742 28.34 48.1542 28.34C49.1622 28.34 49.7742 28.97 49.7742 30.05V35H52.2042V29.69C52.2042 27.44 50.7642 26 48.9642 26C48.1002 26 47.4522 26.36 47.0202 26.72C46.7682 26.936 46.5522 27.17 46.3542 27.44H46.2642V22.4H43.8342V35ZM61.1972 32.03C61.0352 32.228 60.8372 32.39 60.6032 32.534C60.1892 32.804 59.6312 33.02 58.8572 33.02C57.5072 33.02 56.7872 32.3 56.5172 31.49H62.9072L62.9432 31.184C62.9612 30.986 62.9972 30.752 62.9972 30.41C62.9972 27.98 61.0172 26 58.5872 26C56.0672 26 53.9972 28.07 53.9972 30.59C53.9972 33.11 56.0672 35.18 58.6772 35.18C59.9012 35.18 60.8372 34.82 61.4852 34.46C61.8632 34.244 62.1872 34.01 62.4572 33.74L61.1972 32.03ZM56.5172 29.69C56.7872 28.88 57.4892 28.16 58.4972 28.16C59.5052 28.16 60.2072 28.88 60.4772 29.69H56.5172ZM65.3428 35H67.7728V28.61H69.7528V26.36H67.7728V25.82C67.7728 25.01 68.2228 24.56 68.9428 24.56C69.2128 24.56 69.4468 24.596 69.6448 24.65C69.7528 24.686 69.8428 24.722 69.9328 24.74V22.49C69.7888 22.454 69.6268 22.418 69.4648 22.364C69.1768 22.292 68.7628 22.22 68.3128 22.22C66.5128 22.22 65.3428 23.372 65.3428 25.46V26.36H63.9928V28.61H65.3428V35ZM72.1849 31.94C72.1849 34.028 73.3549 35.18 75.1549 35.18C75.6049 35.18 76.0189 35.126 76.3069 35.054C76.4689 35 76.6309 34.964 76.7749 34.91V32.66C76.6849 32.696 76.5949 32.732 76.4869 32.75C76.2889 32.804 76.0549 32.84 75.7849 32.84C75.0649 32.84 74.6149 32.39 74.6149 31.58V28.61H76.5949V26.36H74.6149V23.66H72.4549V25.28C72.4549 26 72.1309 26.36 71.4649 26.36H70.6549V28.61H72.1849V31.94Z" fill="#02213E"/>
</svg>