<svg width="140" height="56" viewBox="0 0 140 56" fill="none" xmlns="http://www.w3.org/2000/svg">
<g clip-path="url(#clip0)">
<path d="M66.722 2.18417C66.722 2.18417 73.4352 8.01279 82.7865 3.36075C91.5988 -1.01256 98.2898 1.32086 104.196 9.42863C104.196 9.42863 96.7617 1.44172 86.9306 6.64382C77.6482 11.5623 69.2518 7.85492 66.722 2.18417Z" fill="#E40034"/>
<path d="M71.2498 28.0415C70.8288 28.1151 70.4024 28.1523 69.9751 28.1525C69.7288 28.1608 69.4841 28.1101 69.2614 28.0045C69.037 27.9028 68.8527 27.7292 68.7372 27.5112C68.5857 27.2404 68.4722 26.9498 68.4001 26.6479C68.3246 26.2004 68.2867 25.7475 68.2869 25.2937V15.7133H72.4876L72.8985 12.4821H68.2869V7.5957H64.95L63.7516 12.4821L60.9757 13.4219V15.7133H63.7516V25.861C63.7499 26.6802 63.8249 27.4978 63.9755 28.303C64.1098 28.9711 64.3915 29.6006 64.7999 30.1455C65.2169 30.6781 65.7757 31.0817 66.4117 31.3098C67.2407 31.6177 68.1221 31.7586 69.0055 31.7242C69.8191 31.7311 70.6247 31.5628 71.3679 31.2308C72.2627 30.8894 73.0975 30.4073 73.841 29.8027L72.7927 27.5827C72.2922 27.772 71.778 27.9229 71.2547 28.0341" fill="#E40034"/>
<path d="M58.8766 23.1553C58.6081 22.7639 58.2753 22.4211 57.8922 22.1415C57.5456 21.8599 57.1674 21.6198 56.7652 21.4262C56.4139 21.2396 56.0514 21.0748 55.6799 20.9329L54.7793 20.5949C54.2871 20.4075 53.7949 20.257 53.3175 20.0671C52.8401 19.8772 52.3332 19.7292 51.8533 19.5417C51.5531 19.4282 51.2159 19.3172 50.9157 19.2038C50.6223 19.0902 50.3452 18.9385 50.0913 18.7524C49.8644 18.5805 49.6624 18.378 49.4909 18.1505C49.3382 17.9025 49.2605 17.6155 49.267 17.3242C49.2619 17.0415 49.313 16.7607 49.4171 16.4979C49.5241 16.236 49.693 16.004 49.9092 15.822C50.1734 15.5988 50.4797 15.431 50.8099 15.3287C51.2242 15.2073 51.6531 15.1434 52.0846 15.1388C52.6005 15.132 53.1154 15.1825 53.6202 15.2892C54.0587 15.4007 54.4861 15.5518 54.8974 15.7406C55.2841 15.9632 55.6491 16.2217 55.9875 16.5127C56.3561 16.8214 56.7069 17.1508 57.0383 17.4993L59.1005 14.2927C58.1541 13.5115 57.0564 12.9354 55.8768 12.6006C54.5921 12.2578 53.2689 12.0812 51.9394 12.0752C51.0553 12.0726 50.1745 12.1837 49.3186 12.4058C48.5132 12.6003 47.7423 12.9172 47.0325 13.3455C46.39 13.7517 45.8406 14.2898 45.4206 14.9242C44.9951 15.5836 44.7852 16.3596 44.8202 17.1441C44.7919 18.3085 45.1775 19.445 45.9079 20.3507C46.2117 20.7572 46.578 21.1128 46.9931 21.404C47.3714 21.685 47.7732 21.9325 48.194 22.144C48.5648 22.3527 48.9516 22.5317 49.3506 22.6792C49.7271 22.8297 50.0643 22.9432 50.335 23.0542C50.8271 23.2416 51.2725 23.4316 51.7598 23.582C52.247 23.7325 52.6974 23.9199 53.1846 24.1074C53.4455 24.2209 53.6768 24.3319 53.9229 24.4453C54.1829 24.575 54.4232 24.7411 54.6365 24.9387C54.8494 25.1024 55.0276 25.307 55.1607 25.5405C55.2972 25.7802 55.3621 26.0542 55.3477 26.3298C55.3492 26.6929 55.2729 27.0521 55.1238 27.3831C54.9735 27.6699 54.7545 27.9149 54.4864 28.0959C54.1869 28.2944 53.8531 28.4349 53.5021 28.5103C53.106 28.5839 52.704 28.6211 52.3012 28.6213C50.3522 28.6213 48.5139 27.6347 46.7889 25.765L44.3157 28.7718C44.8192 29.3275 45.3993 29.8084 46.0383 30.1999C46.6368 30.5775 47.2788 30.8807 47.9504 31.1027C48.6471 31.328 49.3617 31.493 50.0864 31.5961C50.8816 31.7038 51.6834 31.7541 52.4857 31.7465C53.4091 31.7471 54.329 31.6336 55.2247 31.4086C56.0689 31.1869 56.8769 30.8446 57.624 30.3923C58.31 29.9682 58.888 29.3897 59.3121 28.7027C59.7426 28.0028 59.9638 27.1938 59.9495 26.3718C59.9565 25.7477 59.8677 25.1262 59.6862 24.5292C59.386 24.0359 59.162 23.5919 58.8618 23.1775" fill="#E40034"/>
<path d="M42.2659 28.5665C42.0921 28.5971 41.9156 28.6095 41.7393 28.6035C41.5219 28.6059 41.3058 28.5682 41.1019 28.4925C40.9282 28.4329 40.7821 28.3119 40.691 28.1521C40.5604 27.963 40.4822 27.7426 40.4646 27.5133C40.4216 27.1769 40.397 26.8385 40.3908 26.4995V18.0809C40.4223 17.1879 40.2211 16.3022 39.8068 15.511C39.3925 14.7198 38.7795 14.0506 38.0283 13.5695C37.2722 13.074 36.4338 12.7182 35.5527 12.5187C34.595 12.2902 33.6136 12.1768 32.6292 12.1808C31.1725 12.1789 29.7264 12.4293 28.3547 12.9207C27.0592 13.4002 25.8636 14.1161 24.8283 15.0322L27.2277 17.7751C27.6761 17.3342 28.152 16.9223 28.6525 16.5417C29.0466 16.2692 29.4576 16.022 29.8829 15.8018C30.262 15.6087 30.6662 15.47 31.0838 15.3898C31.4897 15.3146 31.9015 15.2766 32.3142 15.2764C32.7949 15.2817 33.2733 15.3446 33.7391 15.4638C34.1418 15.5808 34.5134 15.7864 34.8268 16.0657C35.1515 16.3634 35.3961 16.7384 35.538 17.1559C35.7161 17.6629 35.8051 18.1971 35.8013 18.7346V19.4104C34.8268 19.4104 33.8515 19.4482 32.8753 19.5239C31.9649 19.6023 31.0606 19.7407 30.1684 19.9383C29.3503 20.1165 28.557 20.394 27.806 20.7646C27.1219 21.1116 26.4906 21.5543 25.9308 22.0793C25.4023 22.6194 24.9843 23.2579 24.7004 23.9589C24.4026 24.7778 24.2502 25.6427 24.25 26.5143C24.2425 27.2819 24.3691 28.0449 24.6241 28.7688C24.8475 29.3893 25.2213 29.9445 25.7118 30.3844C26.2038 30.8402 26.7929 31.1776 27.4344 31.371C28.1757 31.5958 28.946 31.7096 29.7205 31.709C30.2353 31.7107 30.7495 31.6728 31.2585 31.5955C32.3687 31.4385 33.4382 31.0683 34.4084 30.5053C34.9599 30.1858 35.4755 29.8079 35.9465 29.378C36.08 30.0795 36.4841 30.6999 37.0711 31.1047C37.7172 31.5248 38.4768 31.735 39.2465 31.7065C39.6739 31.7066 40.1005 31.6686 40.5212 31.593C40.888 31.5235 41.251 31.4354 41.6089 31.3291C41.9296 31.2281 42.2423 31.1028 42.544 30.9542C42.8442 30.8037 43.1075 30.6163 43.4078 30.4609L42.9156 28.4308C42.6976 28.5076 42.4712 28.5581 42.2413 28.5813L42.2659 28.5665ZM35.8283 27.1901C35.4755 27.4511 35.099 27.6782 34.7037 27.8684C34.3567 28.0439 33.9921 28.1819 33.616 28.2804C33.2734 28.38 32.9211 28.4428 32.5652 28.4678C32.2292 28.5007 31.8915 28.5139 31.5538 28.5073C31.2224 28.5091 30.8919 28.471 30.5695 28.3938C30.2707 28.3184 29.9984 28.1623 29.782 27.9424C29.5401 27.7219 29.3688 27.4343 29.2899 27.1161C29.1698 26.7008 29.1068 26.2709 29.1028 25.8384C29.0987 25.2612 29.2134 24.6894 29.44 24.1587C29.6705 23.6365 30.0326 23.1834 30.4907 22.8439C31.1145 22.4141 31.8145 22.1077 32.5529 21.9412C33.6353 21.6817 34.7408 21.5313 35.8529 21.4922L35.8283 27.1901Z" fill="#E40034"/>
<path d="M81.3001 12.4434H76.7623V31.3105H81.3001V12.4434Z" fill="#E40034"/>
<path d="M118.27 13.2328C117.859 13.0453 117.445 12.8948 117.108 12.7394C116.783 12.5937 116.444 12.4805 116.097 12.4015C115.738 12.3081 115.375 12.2331 115.009 12.1771C113.501 12.0068 111.974 12.1214 110.508 12.515C109.62 12.7728 108.786 13.1907 108.047 13.7483C107.359 14.2998 106.8 14.9962 106.411 15.7882C106.01 16.6473 105.806 17.5852 105.813 18.5335C105.806 19.0881 105.857 19.6419 105.963 20.1862C106.038 20.6707 106.189 21.1403 106.411 21.5773C106.639 21.9998 106.903 22.4025 107.198 22.781C107.552 23.1919 107.956 23.5573 108.399 23.8688C107.975 24.0395 107.564 24.2407 107.169 24.4707C106.809 24.6916 106.478 24.9568 106.184 25.26C105.917 25.5573 105.69 25.8892 105.51 26.2466C105.36 26.6042 105.283 26.9884 105.284 27.3764C105.279 27.8848 105.396 28.387 105.623 28.8415C105.858 29.2211 106.148 29.5629 106.485 29.8553C106.789 30.1161 107.13 30.3313 107.496 30.4942L108.397 30.9456C107.929 31.1902 107.478 31.4662 107.048 31.7719C106.607 32.059 106.204 32.4004 105.847 32.7881C105.504 33.1876 105.214 33.6294 104.983 34.1028C104.754 34.636 104.653 35.2154 104.686 35.7949C104.679 36.3412 104.835 36.877 105.134 37.3341C105.497 37.8514 105.988 38.266 106.558 38.5378C107.331 38.9125 108.152 39.1781 108.997 39.3271C110.161 39.5279 111.341 39.6162 112.521 39.591C113.272 39.591 114.022 39.5516 114.81 39.4776C115.591 39.4235 116.368 39.3105 117.133 39.1397C117.879 38.9883 118.608 38.761 119.308 38.4613C119.974 38.2044 120.585 37.8218 121.107 37.3341C121.63 36.8775 122.05 36.314 122.337 35.6815C122.668 34.9626 122.836 34.1792 122.83 33.3875C122.836 32.803 122.708 32.2248 122.455 31.6979C122.22 31.2335 121.902 30.8156 121.518 30.4646C121.093 30.1107 120.611 29.8313 120.093 29.6382C119.533 29.4099 118.957 29.2212 118.37 29.0734C117.766 28.9121 117.153 28.7869 116.535 28.6985C115.934 28.622 115.257 28.4715 114.659 28.3975C114.283 28.3605 113.909 28.2841 113.496 28.2101C113.082 28.1361 112.634 28.0596 112.221 27.9831C111.805 27.9052 111.395 27.8048 110.99 27.6822C110.616 27.5712 110.279 27.4578 109.905 27.3073C109.636 27.2076 109.383 27.0679 109.155 26.8929C109.07 26.8501 108.999 26.7863 108.946 26.7077C108.893 26.6291 108.862 26.5383 108.854 26.444C108.838 26.105 108.93 25.7697 109.118 25.4869C109.299 25.2223 109.513 24.9819 109.755 24.7716C110.297 25.0044 110.862 25.1804 111.441 25.297C112.281 25.4545 113.136 25.5182 113.99 25.4869C114.775 25.4898 115.553 25.3364 116.279 25.0355C117.074 24.7364 117.82 24.3208 118.493 23.8022C119.172 23.2415 119.732 22.5515 120.142 21.7722C120.592 20.9301 120.812 19.9839 120.78 19.0293C120.819 18.235 120.702 17.4407 120.438 16.691C120.292 16.1581 120.041 15.6599 119.699 15.2258L122.962 15.7512L123.713 12.3695C122.847 12.3754 121.982 12.4381 121.124 12.5569C120.14 12.7444 119.212 12.9713 118.274 13.2328H118.27ZM108.854 33.8192C108.93 33.5371 109.034 33.2635 109.164 33.0027C109.28 32.7446 109.417 32.497 109.575 32.2627C109.748 32.0252 109.95 31.8105 110.176 31.6239C110.776 31.7003 111.406 31.7743 112.127 31.8878C112.848 32.0013 113.626 32.1517 114.564 32.3811C115.164 32.4946 115.688 32.6451 116.212 32.7561C116.662 32.8549 117.101 32.9936 117.526 33.1704C117.841 33.295 118.133 33.4727 118.388 33.6958C118.577 33.8861 118.684 34.1427 118.688 34.4111C118.694 34.841 118.582 35.2642 118.365 35.635C118.148 36.0058 117.834 36.3102 117.457 36.5152C116.895 36.8221 116.288 37.0377 115.659 37.154C114.746 37.3424 113.814 37.4186 112.883 37.381C112.375 37.382 111.869 37.3055 111.384 37.154C110.922 36.9955 110.482 36.781 110.072 36.5152C109.706 36.2761 109.388 35.9698 109.135 35.6124C108.911 35.2973 108.793 34.9189 108.798 34.532C108.783 34.2931 108.8 34.0533 108.849 33.8192H108.854ZM116.289 20.2528C116.25 20.7279 116.109 21.1891 115.875 21.6045C115.682 21.9931 115.384 22.319 115.014 22.5443C114.544 22.8032 114.01 22.9206 113.476 22.8822C112.921 22.8832 112.372 22.7681 111.864 22.5443C111.436 22.3096 111.075 21.9702 110.813 21.5576C110.523 21.1385 110.319 20.6655 110.213 20.1664C110.096 19.6231 110.033 19.0695 110.026 18.5138C110.026 17.2805 110.326 16.3333 110.889 15.7315C111.17 15.4162 111.518 15.1681 111.908 15.0055C112.297 14.8429 112.718 14.7698 113.139 14.7917C113.58 14.7572 114.024 14.8202 114.438 14.9762C114.853 15.1322 115.228 15.3774 115.538 15.6945C116.102 16.2963 116.362 17.2731 116.362 18.6248C116.394 19.172 116.368 19.721 116.284 20.2626L116.289 20.2528Z" fill="#E40034"/>
<path d="M139.494 24.5464C139.179 23.5962 138.592 22.7599 137.806 22.1415C137.454 21.8679 137.078 21.6284 136.681 21.4261C136.329 21.2395 135.966 21.0748 135.594 20.9328L134.693 20.5949C134.201 20.4074 133.709 20.257 133.231 20.067C132.754 19.8771 132.247 19.7291 131.769 19.5416C131.469 19.4282 131.132 19.3172 130.832 19.2037C130.538 19.0907 130.261 18.9389 130.007 18.7523C129.779 18.5818 129.577 18.379 129.407 18.1505C129.254 17.9027 129.175 17.6157 129.181 17.3242C129.168 17.0417 129.219 16.76 129.33 16.5C129.441 16.2399 129.608 16.0082 129.82 15.822C130.075 15.6064 130.367 15.4392 130.682 15.3287C131.096 15.2074 131.525 15.1435 131.956 15.1387C132.473 15.132 132.989 15.1824 133.495 15.2892C133.932 15.4007 134.359 15.5517 134.769 15.7406C135.155 15.9634 135.519 16.2218 135.857 16.5126C136.194 16.8136 136.531 17.1145 136.905 17.4993L138.967 14.2927C138.021 13.5115 136.923 12.9353 135.744 12.6006C134.46 12.2552 133.136 12.0786 131.806 12.0752C130.92 12.0746 130.038 12.1881 129.181 12.4131C128.375 12.608 127.604 12.9249 126.895 13.3529C126.249 13.7681 125.689 14.3041 125.246 14.9315C124.826 15.5934 124.616 16.3676 124.645 17.1515C124.634 17.7659 124.736 18.3771 124.946 18.9546C125.133 19.457 125.399 19.9265 125.733 20.3458C126.038 20.7523 126.405 21.1078 126.821 21.399C127.198 21.68 127.599 21.9276 128.019 22.139C128.396 22.3265 128.807 22.5139 129.181 22.6644C129.555 22.8148 129.894 22.9283 130.165 23.0393C130.657 23.2268 131.103 23.4167 131.59 23.5672C132.077 23.7176 132.527 23.9051 133.015 24.0926C133.27 24.1832 133.517 24.2963 133.753 24.4305C134.013 24.5595 134.254 24.7257 134.467 24.9238C134.679 25.0875 134.858 25.2921 134.991 25.5257C135.127 25.7654 135.192 26.0393 135.178 26.315C135.194 26.6583 135.124 27.0002 134.974 27.309C134.823 27.6178 134.597 27.8834 134.316 28.0811C134.03 28.2715 133.713 28.4116 133.379 28.4955C132.983 28.5691 132.581 28.6062 132.178 28.6065C130.229 28.6065 128.391 27.6198 126.668 25.7501L124.193 28.7569C125.191 29.8272 126.441 30.6288 127.83 31.0879C128.515 31.3088 129.217 31.4738 129.929 31.5812C130.712 31.6878 131.501 31.7381 132.291 31.7317C133.227 31.7323 134.159 31.6188 135.067 31.3937C135.911 31.172 136.719 30.8298 137.466 30.3775C138.152 29.9534 138.73 29.3749 139.154 28.6879C139.606 27.9974 139.829 27.1818 139.792 26.3569C139.798 25.7429 139.697 25.1325 139.492 24.5538" fill="#E40034"/>
<path d="M100.721 13.9102C100.081 13.3226 99.3274 12.8742 98.5063 12.593C97.6256 12.291 96.7007 12.1385 95.7699 12.1416C95.1909 12.1491 94.614 12.2127 94.0473 12.3316C93.5178 12.4378 93.0019 12.6033 92.5092 12.8249C92.0537 13.0125 91.6149 13.2386 91.1976 13.5008C90.8391 13.7167 90.5006 13.9643 90.1862 14.2407C90.1776 14.0741 90.1521 13.9088 90.1099 13.7474C90.073 13.5575 90.0361 13.37 89.9992 13.2196C89.9623 13.0691 89.9229 12.8816 89.886 12.7262L89.7728 12.3883H85.4933C85.6114 12.9822 85.674 13.5859 85.6804 14.1914C85.6804 14.7933 85.7197 15.2447 85.7197 15.6196V31.2555H90.2551V16.7024C90.5922 16.515 90.9687 16.3645 91.3059 16.2091C91.6856 16.0621 92.0734 15.9369 92.4674 15.8342C92.8468 15.7196 93.2368 15.6436 93.6314 15.6072C93.9792 15.5629 94.3292 15.5382 94.6797 15.5332C95.1885 15.5312 95.6947 15.6068 96.1808 15.7577C96.5903 15.9154 96.9612 16.1593 97.2685 16.473C97.5869 16.8423 97.8174 17.2792 97.9428 17.7507C98.0912 18.3787 98.1664 19.0219 98.1667 19.6673V31.3196H102.778V18.8336C102.783 17.8681 102.595 16.9113 102.227 16.0192C101.89 15.214 101.377 14.4949 100.726 13.9151" fill="#E40034"/>
<path d="M16.5433 3.91113V14.3992H5.21848V3.91113H0.419815V17.0286V22.2159V31.3498H5.21848V21.614V18.2323H16.5433V18.7577V31.3498H21.342V20.4868V18.4198V3.91113H16.5433Z" fill="#E40034"/>
<path d="M11.1387 52.3082V55.0535H0.461075V40.7891H10.9295V43.5443H3.51745V46.4006H9.30291V49.1435H3.51745V52.3082H11.1387Z" fill="#E40034"/>
<path d="M19.1462 49.7216C18.5963 49.397 18.0053 49.1481 17.3891 48.9816C16.6976 48.7867 16.0086 48.5549 15.3245 48.2909C14.6333 48.0194 14.028 47.5661 13.5723 46.9787C13.0722 46.3123 12.8166 45.4934 12.8488 44.6601C12.8459 44.0945 12.9687 43.5354 13.2083 43.0234C13.448 42.5114 13.7985 42.0593 14.2343 41.7001C15.1579 40.8861 16.3564 40.475 17.8296 40.4668C18.3986 40.4656 18.9655 40.5343 19.5177 40.6715C19.9807 40.7879 20.4284 40.9584 20.8515 41.1797C21.1655 41.3422 21.4681 41.5259 21.7571 41.7297C21.9632 41.8711 22.1515 42.0367 22.3182 42.223L22.4954 42.413L20.6694 44.3517C20.5882 44.258 20.4775 44.1445 20.3372 44.0089C20.0623 43.7901 19.7604 43.6077 19.439 43.4662C19.0012 43.2461 18.5187 43.1305 18.0289 43.1283C17.5222 43.1029 17.0233 43.2614 16.6238 43.5748C16.4591 43.7034 16.3258 43.8681 16.2341 44.0561C16.1424 44.2442 16.0947 44.4507 16.0947 44.6601C16.0975 44.9034 16.1684 45.1411 16.2994 45.3461C16.4303 45.551 16.6161 45.715 16.8354 45.8194C17.384 46.1396 17.9711 46.3883 18.5826 46.5594C19.2667 46.7592 19.9558 46.991 20.6448 47.2549C21.3409 47.5236 21.9503 47.9783 22.4068 48.5697C22.9126 49.233 23.1735 50.0514 23.145 50.8858C23.1621 51.498 23.042 52.1063 22.7938 52.6658C22.5455 53.2254 22.1753 53.7222 21.7104 54.1195C20.7539 54.9533 19.4357 55.3709 17.7558 55.3726C17.108 55.3736 16.4629 55.2907 15.8363 55.1259C15.3046 54.9969 14.7911 54.8013 14.3081 54.5438C13.94 54.3401 13.5864 54.111 13.25 53.8581C13.0037 53.6849 12.776 53.4865 12.5708 53.2661L12.3444 53.0194L14.1777 51.1892C14.2712 51.2953 14.4016 51.4359 14.5714 51.6011C14.9131 51.8784 15.2916 52.1067 15.696 52.2794C16.264 52.5601 16.8888 52.7061 17.522 52.7062C18.1393 52.7434 18.7497 52.5599 19.2446 52.1882C19.4421 52.0323 19.6008 51.8328 19.7084 51.6051C19.816 51.3774 19.8695 51.1278 19.8647 50.8759C19.8608 50.6363 19.7919 50.4021 19.6653 50.1988C19.5387 49.9954 19.3592 49.8304 19.1462 49.7216Z" fill="#E40034"/>
<path d="M31.0272 49.7216C30.4773 49.397 29.8863 49.1481 29.2701 48.9816C28.5811 48.7867 27.8921 48.5549 27.208 48.2909C26.5161 48.0207 25.9104 47.5672 25.4558 46.9787C24.9557 46.3123 24.7001 45.4934 24.7323 44.6601C24.7289 44.0947 24.8512 43.5356 25.0905 43.0236C25.3297 42.5116 25.6798 42.0594 26.1153 41.7001C27.039 40.8861 28.2382 40.475 29.7131 40.4668C30.2812 40.4656 30.8474 40.5343 31.3988 40.6715C31.8614 40.778 32.3098 40.9386 32.735 41.1501C33.0517 41.3139 33.3567 41.4993 33.648 41.7051C33.8541 41.8464 34.0424 42.012 34.2091 42.1984L34.3863 42.3982L32.5603 44.3369C32.4557 44.2168 32.3448 44.1024 32.2281 43.9941C31.9535 43.7748 31.6516 43.5923 31.3299 43.4514C30.8931 43.231 30.4112 43.1154 29.9223 43.1135C29.4156 43.0881 28.9167 43.2466 28.5171 43.56C28.3517 43.6881 28.2177 43.8526 28.1256 44.0407C28.0335 44.2289 27.9856 44.4357 27.9856 44.6453C27.9887 44.8848 28.0576 45.1188 28.1848 45.3216C28.312 45.5244 28.4926 45.6881 28.7066 45.7947C29.2541 46.1155 29.8405 46.3642 30.4514 46.5347C31.1379 46.7345 31.8245 46.9664 32.516 47.2303C33.2121 47.4989 33.8215 47.9536 34.278 48.545C34.7785 49.2103 35.0341 50.0285 35.0015 50.8611C35.0216 51.4757 34.9032 52.0869 34.6553 52.6493C34.4073 53.2117 34.0361 53.7108 33.5693 54.1097C32.6144 54.9434 31.2971 55.3611 29.6171 55.3627C28.9686 55.3636 28.3226 55.2807 27.6952 55.1161C27.1637 54.9862 26.6504 54.7906 26.167 54.5339C25.8 54.3297 25.4473 54.1006 25.1113 53.8482C24.8761 53.6771 24.6592 53.482 24.4641 53.2661L24.218 53.0194L26.0538 51.1892C26.1473 51.2953 26.2778 51.4359 26.4451 51.6011C26.7875 51.88 27.1668 52.1099 27.5722 52.2844C28.1401 52.565 28.7649 52.711 29.3981 52.7111C30.0153 52.7475 30.6254 52.564 31.1207 52.1931C31.3182 52.0373 31.477 51.8377 31.5846 51.61C31.6921 51.3823 31.7456 51.1328 31.7408 50.8809C31.7386 50.6408 31.6709 50.4059 31.5451 50.2016C31.4194 49.9972 31.2403 49.8313 31.0272 49.7216Z" fill="#E40034"/>
<path d="M48.1056 52.3082V55.0535H37.4279V40.7891H47.8964V43.5443H40.4843V46.4006H46.2698V49.1435H40.4843V52.3082H48.1056Z" fill="#E40034"/>
<path d="M63.3309 40.7891V55.0535H60.6929L53.6869 45.9912V55.0535H50.6305V40.7891H53.2784L60.2844 49.8613V40.7891H63.3309Z" fill="#E40034"/>
<path d="M76.1421 40.7891V43.5443H72.0718V55.0535H69.0253V43.5443H64.9575V40.7891H76.1421Z" fill="#E40034"/>
<path d="M77.7541 40.7891H80.8178V55.0535H77.7541V40.7891Z" fill="#E40034"/>
<path d="M86.7926 51.6915L85.5622 55.0535H82.3188L87.9148 40.7891H91.1532L96.7492 55.0535H93.5009L92.2705 51.6915H86.7926ZM89.5414 44.3607L87.8065 49.0473H91.2689L89.5414 44.3607Z" fill="#E40034"/>
<path d="M98.174 55.0535V40.7891H101.228V52.3082H107.828V55.0535H98.174Z" fill="#E40034"/>
</g>
<defs>
<clipPath id="clip0">
<rect width="139.513" height="54.5369" fill="white" transform="translate(0.347824 0.973633)"/>
</clipPath>
</defs>
</svg>
