<svg width="226" height="20" viewBox="0 0 226 20" fill="none" xmlns="http://www.w3.org/2000/svg">
<path d="M4.4 15H7.4V3.8H11.4V0.999999H0.4V3.8H4.4V15ZM12.8063 15H15.5063V9.8C15.5063 8.5 16.4062 7.6 17.6063 7.6C18.7263 7.6 19.4063 8.3 19.4063 9.5V15H22.1063V9.1C22.1063 6.6 20.5063 5 18.5063 5C17.5463 5 16.8263 5.4 16.3463 5.8C16.0663 6.04 15.8263 6.3 15.6063 6.6H15.5063V0.999999H12.8063V15ZM24.6984 15H27.3984V5.2H24.6984V15ZM24.4984 2.4C24.4984 3.2 25.1784 3.9 26.0384 3.9C26.8984 3.9 27.5984 3.2 27.5984 2.4C27.5984 1.6 26.9184 0.899999 26.0584 0.899999C25.1984 0.899999 24.4984 1.6 24.4984 2.4ZM29.9914 15H32.6914V10.4C32.6914 8.8 33.6914 7.8 34.9914 7.8C35.2914 7.8 35.5114 7.84 35.6714 7.86L35.8914 7.9V5H35.6914C34.7314 5 34.0114 5.4 33.5314 5.8C33.2514 6.04 33.0114 6.3 32.7914 6.6H32.6914V5.2H29.9914V15ZM44.3938 15H47.0938V0.999999H44.3938V6.6H44.2938C44.0938 6.3 43.8338 6.04 43.5338 5.8C42.9938 5.4 42.2338 5 41.1938 5C38.8738 5 36.7938 7.12 36.7938 10.1C36.7938 13.1 38.8738 15.2 41.1938 15.2C42.2338 15.2 42.9938 14.8 43.5338 14.4C43.8338 14.16 44.0938 13.9 44.2938 13.6H44.3938V15ZM41.9938 12.7C40.5938 12.7 39.4938 11.6 39.4938 10.1C39.4938 8.6 40.5938 7.5 41.9938 7.5C43.3938 7.5 44.4938 8.6 44.4938 10.1C44.4938 11.6 43.3938 12.7 41.9938 12.7ZM53.9953 19.2H56.6953V13.6H56.7953C56.9953 13.9 57.2553 14.16 57.5553 14.4C58.0953 14.8 58.8353 15.2 59.8953 15.2C62.2153 15.2 64.2953 13.1 64.2953 10.1C64.2953 7.12 62.2153 5 59.8953 5C58.8353 5 58.0953 5.4 57.5553 5.8C57.2553 6.04 56.9953 6.3 56.7953 6.6H56.6953V5.2H53.9953V19.2ZM59.0953 12.7C57.6953 12.7 56.5953 11.6 56.5953 10.1C56.5953 8.6 57.6953 7.5 59.0953 7.5C60.4953 7.5 61.5953 8.6 61.5953 10.1C61.5953 11.6 60.4953 12.7 59.0953 12.7ZM71.8 15H74.5V8.9C74.5 6.72 72.8 5 70.3 5C69 5 68.02 5.48 67.32 5.96C66.92 6.24 66.58 6.56 66.3 6.9L67.9 8.5C68.06 8.3 68.26 8.12 68.48 7.96C68.86 7.66 69.4 7.4 70.1 7.4C71.12 7.4 71.7 8 71.8 8.7L68.7 9.26C66.88 9.58 65.8 10.8 65.8 12.4C65.8 14 67 15.2 68.8 15.2C69.74 15.2 70.48 14.88 70.96 14.5C71.24 14.3 71.48 14.06 71.7 13.8H71.8V15ZM71.8 10.8C71.8 12.1 70.9 13 69.7 13C68.9 13 68.5 12.62 68.5 12C68.5 11.5 68.9 11.14 69.6 11L71.8 10.6V10.8ZM77.1008 15H79.8008V10.4C79.8008 8.8 80.8008 7.8 82.1008 7.8C82.4008 7.8 82.6208 7.84 82.7808 7.86L83.0008 7.9V5H82.8008C81.8408 5 81.1208 5.4 80.6408 5.8C80.3608 6.04 80.1208 6.3 79.9008 6.6H79.8008V5.2H77.1008V15ZM85.4984 11.6C85.4984 13.92 86.7984 15.2 88.7984 15.2C89.2984 15.2 89.7584 15.14 90.0784 15.06C90.2584 15 90.4384 14.96 90.5984 14.9V12.4C90.4984 12.44 90.3984 12.48 90.2784 12.5C90.0584 12.56 89.7984 12.6 89.4984 12.6C88.6984 12.6 88.1984 12.1 88.1984 11.2V7.9H90.3984V5.4H88.1984V2.4H85.7984V4.2C85.7984 5 85.4384 5.4 84.6984 5.4H83.7984V7.9H85.4984V11.6ZM91.9109 18.9C92.0709 18.96 92.2509 19 92.4309 19.06C92.7509 19.14 93.2109 19.2 93.7109 19.2C95.5309 19.2 96.6909 18.02 97.5109 15.8L101.511 5.2H98.6109L96.4109 11.7H96.3109L94.0109 5.2H91.1109L94.9109 14.9L94.7109 15.4C94.4109 16.1 93.9109 16.6 93.0109 16.6C92.7109 16.6 92.4509 16.56 92.2309 16.5C92.1109 16.48 92.0109 16.44 91.9109 16.4V18.9ZM107.115 15H109.815V7.9H113.415V15H116.115V5.4H109.815V4.8C109.815 3.9 110.315 3.4 111.115 3.4C111.355 3.4 111.595 3.44 111.755 3.5C111.855 3.54 111.935 3.58 112.015 3.6V1.1C111.875 1.06 111.715 1.02 111.555 0.96C111.255 0.879999 110.875 0.799999 110.415 0.799999C108.415 0.799999 107.115 2.08 107.115 4.4V5.4H105.615V7.9H107.115V15ZM113.215 2.4C113.215 3.2 113.895 3.9 114.755 3.9C115.615 3.9 116.315 3.2 116.315 2.4C116.315 1.6 115.635 0.899999 114.775 0.899999C113.915 0.899999 113.215 1.6 113.215 2.4ZM118.82 15H121.52V10.4C121.52 8.8 122.52 7.8 123.82 7.8C124.12 7.8 124.34 7.84 124.5 7.86L124.72 7.9V5H124.52C123.56 5 122.84 5.4 122.36 5.8C122.08 6.04 121.84 6.3 121.62 6.6H121.52V5.2H118.82V15ZM133.622 11.7C133.442 11.92 133.222 12.1 132.962 12.26C132.502 12.56 131.882 12.8 131.022 12.8C129.522 12.8 128.722 12 128.422 11.1H135.522L135.562 10.76C135.582 10.54 135.622 10.28 135.622 9.9C135.622 7.2 133.422 5 130.722 5C127.922 5 125.622 7.3 125.622 10.1C125.622 12.9 127.922 15.2 130.822 15.2C132.182 15.2 133.222 14.8 133.942 14.4C134.362 14.16 134.722 13.9 135.022 13.6L133.622 11.7ZM128.422 9.1C128.722 8.2 129.502 7.4 130.622 7.4C131.742 7.4 132.522 8.2 132.822 9.1H128.422ZM147.327 15H150.027V8.9C150.027 6.72 148.327 5 145.827 5C144.527 5 143.547 5.48 142.847 5.96C142.447 6.24 142.107 6.56 141.827 6.9L143.427 8.5C143.587 8.3 143.787 8.12 144.007 7.96C144.387 7.66 144.927 7.4 145.627 7.4C146.647 7.4 147.227 8 147.327 8.7L144.227 9.26C142.407 9.58 141.327 10.8 141.327 12.4C141.327 14 142.527 15.2 144.327 15.2C145.267 15.2 146.007 14.88 146.487 14.5C146.767 14.3 147.007 14.06 147.227 13.8H147.327V15ZM147.327 10.8C147.327 12.1 146.427 13 145.227 13C144.427 13 144.027 12.62 144.027 12C144.027 11.5 144.427 11.14 145.127 11L147.327 10.6V10.8ZM152.628 15H155.328V9.8C155.328 8.5 156.228 7.6 157.428 7.6C158.548 7.6 159.228 8.3 159.228 9.5V15H161.928V9.1C161.928 6.6 160.328 5 158.328 5C157.368 5 156.648 5.4 156.168 5.8C155.888 6.04 155.648 6.3 155.428 6.6H155.328V5.2H152.628V15ZM171.523 15H174.223V0.999999H171.523V6.6H171.423C171.223 6.3 170.963 6.04 170.663 5.8C170.123 5.4 169.363 5 168.323 5C166.003 5 163.923 7.12 163.923 10.1C163.923 13.1 166.003 15.2 168.323 15.2C169.363 15.2 170.123 14.8 170.663 14.4C170.963 14.16 171.223 13.9 171.423 13.6H171.523V15ZM169.123 12.7C167.723 12.7 166.623 11.6 166.623 10.1C166.623 8.6 167.723 7.5 169.123 7.5C170.523 7.5 171.623 8.6 171.623 10.1C171.623 11.6 170.523 12.7 169.123 12.7ZM181.924 11.6C181.924 13.92 183.224 15.2 185.224 15.2C185.724 15.2 186.184 15.14 186.504 15.06C186.684 15 186.864 14.96 187.024 14.9V12.4C186.924 12.44 186.824 12.48 186.704 12.5C186.484 12.56 186.224 12.6 185.924 12.6C185.124 12.6 184.624 12.1 184.624 11.2V7.9H186.824V5.4H184.624V2.4H182.224V4.2C182.224 5 181.864 5.4 181.124 5.4H180.224V7.9H181.924V11.6ZM189.232 15H191.932V9.8C191.932 8.5 192.832 7.6 194.032 7.6C195.152 7.6 195.832 8.3 195.832 9.5V15H198.532V9.1C198.532 6.6 196.932 5 194.932 5C193.972 5 193.252 5.4 192.772 5.8C192.492 6.04 192.252 6.3 192.032 6.6H191.932V0.999999H189.232V15ZM208.524 11.7C208.344 11.92 208.124 12.1 207.864 12.26C207.404 12.56 206.784 12.8 205.924 12.8C204.424 12.8 203.624 12 203.324 11.1H210.424L210.464 10.76C210.484 10.54 210.524 10.28 210.524 9.9C210.524 7.2 208.324 5 205.624 5C202.824 5 200.524 7.3 200.524 10.1C200.524 12.9 202.824 15.2 205.724 15.2C207.084 15.2 208.124 14.8 208.844 14.4C209.264 14.16 209.624 13.9 209.924 13.6L208.524 11.7ZM203.324 9.1C203.624 8.2 204.404 7.4 205.524 7.4C206.644 7.4 207.424 8.2 207.724 9.1H203.324ZM213.13 15H215.83V7.9H218.03V5.4H215.83V4.8C215.83 3.9 216.33 3.4 217.13 3.4C217.43 3.4 217.69 3.44 217.91 3.5C218.03 3.54 218.13 3.58 218.23 3.6V1.1C218.07 1.06 217.89 1.02 217.71 0.96C217.39 0.879999 216.93 0.799999 216.43 0.799999C214.43 0.799999 213.13 2.08 213.13 4.4V5.4H211.63V7.9H213.13V15ZM220.733 11.6C220.733 13.92 222.033 15.2 224.033 15.2C224.533 15.2 224.993 15.14 225.313 15.06C225.493 15 225.673 14.96 225.833 14.9V12.4C225.733 12.44 225.633 12.48 225.513 12.5C225.293 12.56 225.033 12.6 224.733 12.6C223.933 12.6 223.433 12.1 223.433 11.2V7.9H225.633V5.4H223.433V2.4H221.033V4.2C221.033 5 220.673 5.4 219.933 5.4H219.033V7.9H220.733V11.6Z" fill="#011831"/>
</svg>