<?xml version="1.0" encoding="UTF-8" standalone="no"?>
<svg
   width="202"
   height="30"
   viewBox="0 0 202 30"
   fill="none"
   version="1.1"
   id="svg18"
   sodipodi:docname="hastings-premier-oneline.svg"
   inkscape:version="1.1 (c68e22c387, 2021-05-23)"
   xmlns:inkscape="http://www.inkscape.org/namespaces/inkscape"
   xmlns:sodipodi="http://sodipodi.sourceforge.net/DTD/sodipodi-0.dtd"
   xmlns="http://www.w3.org/2000/svg"
   xmlns:svg="http://www.w3.org/2000/svg">
  <defs
     id="defs22">
    <clipPath
       clipPathUnits="userSpaceOnUse"
       id="clipEmfPath1">
      <path
         d="M 0,0 H 205.85575 V 46.150551 H 0 Z"
         id="path839" />
    </clipPath>
    <pattern
       id="EMFhbasepattern"
       patternUnits="userSpaceOnUse"
       width="6"
       height="6"
       x="0"
       y="0" />
  </defs>
  <sodipodi:namedview
     id="namedview20"
     pagecolor="#ffffff"
     bordercolor="#666666"
     borderopacity="1.0"
     inkscape:pageshadow="2"
     inkscape:pageopacity="0.0"
     inkscape:pagecheckerboard="0"
     showgrid="false"
     inkscape:zoom="8.1502591"
     inkscape:cx="95.94787"
     inkscape:cy="14.968849"
     inkscape:window-width="2880"
     inkscape:window-height="1526"
     inkscape:window-x="2869"
     inkscape:window-y="-11"
     inkscape:window-maximized="1"
     inkscape:current-layer="svg18" />
  <path
     fill-rule="evenodd"
     clip-rule="evenodd"
     d="M 62.101,1.63896 C 55.0198,5.20759 49.9922,0.782494 49.9922,0.782494 51.9041,5.06485 58.2064,7.84838 65.2167,4.06563 72.652,0.140141 78.2461,6.20681 78.2461,6.20681 73.785,0.0687679 68.7573,-1.64417 62.101,1.63896 Z M 12.1796,2.07031 V 9.99267 H 3.6114 V 2.07031 H 0 v 9.92079 3.9255 6.9231 h 3.6114 v -7.3513 -2.5695 h 8.5682 v 0.4283 9.4925 H 15.791 V 14.6319 13.0617 2.07031 Z M 53.3909,20.3394 c -0.2833,0.0714 -0.6373,0.0714 -0.9914,0.0714 -0.2124,0 -0.3541,0 -0.5665,-0.1428 -0.1416,-0.0713 -0.2832,-0.2141 -0.4249,-0.3568 -0.1416,-0.2142 -0.2124,-0.4283 -0.2832,-0.6424 -0.0708,-0.3569 -0.0708,-0.7137 -0.0708,-0.9992 v -7.28 h 3.1865 L 54.5238,8.56293 H 51.0541 V 4.85156 h -2.5493 l -0.7789,3.71137 -2.1243,0.71373 v 1.71294 h 2.1243 v 7.7082 c 0,0.6424 0.0708,1.2847 0.1416,1.8557 0.1417,0.4996 0.2833,0.9992 0.6373,1.4275 0.3541,0.4282 0.7082,0.7137 1.2038,0.8564 0.6374,0.2142 1.2747,0.3569 1.9828,0.2855 0.6373,0 1.2038,-0.1427 1.7703,-0.3568 0.7081,-0.2855 1.2746,-0.6424 1.8411,-1.0706 l -0.779,-1.6416 c -0.354,0.1428 -0.7081,0.2141 -1.1329,0.2855 z m -9.3458,-3.7122 c -0.2124,-0.2855 -0.4248,-0.571 -0.7081,-0.7851 v 0 C 43.0538,15.628 42.7705,15.4139 42.4873,15.2711 42.204,15.1284 41.9208,14.9856 41.6375,14.9143 L 40.9294,14.6288 C 40.5754,14.486 40.2213,14.3433 39.7964,14.2005 39.4424,14.0578 39.0883,13.915 38.6634,13.7723 38.6225,13.7586 38.579,13.7448 38.5338,13.7306 38.3445,13.6708 38.1268,13.6021 37.9553,13.4868 37.7429,13.4154 37.5305,13.2727 37.318,13.13 l -0.4249,-0.4283 c -0.1416,-0.1427 -0.1416,-0.4282 -0.1416,-0.6423 0,-0.2142 0,-0.4283 0.1416,-0.6424 0.0709,-0.2141 0.2125,-0.3569 0.3541,-0.4996 0.2124,-0.1427 0.4249,-0.2855 0.7081,-0.3569 0.2833,-0.0713 0.6373,-0.1427 0.9914,-0.1427 0.4249,0 0.7789,0 1.133,0.1427 0.2733,0.0551 0.5044,0.1528 0.7585,0.2601 0.0751,0.0317 0.1521,0.0643 0.2328,0.0968 0.2833,0.1427 0.5665,0.3568 0.8497,0.5709 l 1e-4,10e-5 c 0.2832,0.2141 0.5664,0.4995 0.7788,0.7136 l 1e-4,10e-5 1.5579,-2.42666 C 43.5495,9.20446 42.6997,8.77623 41.85,8.49074 40.8586,8.20525 39.8672,8.0625 38.8759,8.0625 c -0.7081,0 -1.3454,0.07137 -1.9828,0.28549 -0.6373,0.14275 -1.2037,0.42824 -1.6994,0.71373 -0.4957,0.28549 -0.9206,0.71372 -1.2038,1.21328 -0.2833,0.4997 -0.4957,1.0706 -0.4249,1.713 0,0.4282 0.0708,0.9278 0.2124,1.3561 0.1417,0.3568 0.3541,0.7137 0.5665,1.0706 0.2125,0.2854 0.4957,0.5709 0.8498,0.7851 v 0 c 0.2832,0.2141 0.5665,0.4282 0.9205,0.5709 l 0.8498,0.4283 c 0.1659,0.0836 0.3318,0.1427 0.4693,0.1917 v 0 c 0.0972,0.0346 0.1801,0.0642 0.2388,0.0938 l 1.0622,0.4282 1.0621,0.4282 c 0.2125,0.0714 0.3541,0.1428 0.5665,0.2855 0.1491,0.0501 0.2632,0.1353 0.3915,0.231 0.0545,0.0407 0.1116,0.0833 0.175,0.1259 l 0.4249,0.4282 c 0.1416,0.1428 0.1416,0.4283 0.1416,0.571 0,0.2855 -0.0708,0.571 -0.1416,0.7851 -0.1416,0.2141 -0.2833,0.4282 -0.4957,0.571 -0.2124,0.1427 -0.4249,0.2855 -0.7081,0.2855 -0.2833,0.0713 -0.5665,0.0713 -0.9206,0.0713 -1.487,0 -2.8324,-0.7137 -4.1779,-2.1411 l -1.8411,2.2839 c 0.3541,0.4282 0.8498,0.7851 1.2746,1.0706 0.4249,0.2855 0.9206,0.4996 1.4162,0.7137 h 1e-4 c 0.4957,0.1427 1.0622,0.2855 1.6287,0.3569 0.5664,0.0713 1.2038,0.1427 1.8411,0.1427 0.7081,0 1.4162,-0.0714 2.0535,-0.2855 0.6373,-0.1427 1.2746,-0.4282 1.8411,-0.7851 0.4957,-0.2855 0.9914,-0.7851 1.2746,-1.2847 0.3541,-0.571 0.4957,-1.1419 0.4957,-1.7843 0,-0.4996 -0.0708,-0.9278 -0.2124,-1.4275 -0.3541,-0.2141 -0.5665,-0.5709 -0.779,-0.9278 z m -18.1972,3.5683 c 0.2833,-0.1428 0.5665,-0.2855 0.8497,-0.4996 v -4.4965 l -0.1016,0.0093 c -0.7509,0.0685 -1.5638,0.1427 -2.3768,0.3476 -0.5665,0.1427 -1.0622,0.4282 -1.5578,0.7137 -0.3541,0.2855 -0.6373,0.571 -0.779,0.9992 -0.1416,0.4283 -0.2124,0.8565 -0.2124,1.2847 0,0.3569 0.0708,0.7138 0.1416,0.9992 0.0708,0.2855 0.2125,0.4997 0.3541,0.6424 0.1416,0.2141 0.354,0.2855 0.5665,0.3569 0.2124,0.0713 0.4248,0.0713 0.7081,0.0713 h 0.7789 c 0.2125,0 0.4957,-0.0713 0.779,-0.1427 0.2832,-0.0714 0.5664,-0.1428 0.8497,-0.2855 z m 5.2401,0.571 h 0.4248 c 0.0709,-0.0238 0.1417,-0.0397 0.2125,-0.0555 0.1416,-0.0318 0.2832,-0.0635 0.4248,-0.1586 l 0.3541,1.5702 c -0.2124,0.0713 -0.4249,0.2141 -0.6373,0.3568 -0.2124,0.1428 -0.4249,0.2141 -0.7081,0.2855 L 30.309,22.979 c -0.354,0.0714 -0.7081,0.0714 -0.9913,0.0714 v 0 c -0.5665,0.0714 -1.133,-0.1427 -1.6287,-0.4282 -0.4249,-0.2855 -0.7081,-0.7138 -0.8497,-1.2847 -0.092,0.0741 -0.1839,0.153 -0.277,0.233 -0.2657,0.2281 -0.5415,0.4649 -0.856,0.6234 -0.3541,0.2855 -0.7789,0.4283 -1.2038,0.571 v 0 c -0.3541,0.1428 -0.7789,0.2141 -1.2038,0.2855 v 0 c -0.3541,0.0714 -0.7082,0.0714 -1.133,0.0714 -0.5665,0 -1.133,-0.1428 -1.6995,-0.2855 v 0 c -0.4249,-0.1428 -0.8497,-0.3569 -1.2746,-0.7137 -0.4249,-0.3569 -0.7081,-0.7138 -0.8498,-1.2134 -0.2124,-0.571 -0.2832,-1.1419 -0.2832,-1.7129 0,-0.6424 0.1416,-1.2847 0.3541,-1.9271 0.2124,-0.571 0.4956,-0.9992 0.9205,-1.4274 0.4249,-0.4283 0.9206,-0.7138 1.4162,-0.9992 0.5665,-0.2855 1.133,-0.4996 1.7703,-0.6424 0.6373,-0.1427 1.3455,-0.2141 2.0536,-0.2855 0.7081,-0.0714 1.487,-0.0714 2.1951,-0.0714 v -0.4996 c 0,-0.4282 -0.0708,-0.7851 -0.2124,-1.2133 -0.1416,-0.3569 -0.2832,-0.6424 -0.5665,-0.8565 -0.0944,-0.0476 -0.1888,-0.1031 -0.2832,-0.1586 -0.1889,-0.111 -0.3777,-0.222 -0.5665,-0.2696 -0.3541,-0.0714 -0.7081,-0.1427 -1.0622,-0.1427 -0.3541,0 -0.6373,0 -0.9206,0.0713 -0.354,0 -0.6373,0.1428 -0.9205,0.2855 -0.2833,0.1428 -0.6373,0.3569 -0.9206,0.571 -0.354,0.2855 -0.7081,0.571 -1.0621,0.9278 L 18.4127,10.4888 C 19.1916,9.84648 20.1121,9.2755 21.1035,8.91864 22.0949,8.56177 23.157,8.34766 24.29,8.34766 c 0.779,0 1.4871,0.14274 2.1952,0.28549 0.6373,0.14274 1.2746,0.42823 1.8411,0.78509 0.4957,0.35687 0.9914,0.85646 1.2746,1.42746 0.3541,0.571 0.4957,1.2847 0.4957,1.9984 v 6.2808 c 0,0.1428 0.0177,0.2677 0.0354,0.3926 v 0 c 0.0177,0.1249 0.0354,0.2498 0.0354,0.3925 0,0.2141 0.0708,0.3569 0.1416,0.4996 0,0.1428 0.1417,0.2141 0.2833,0.2855 0.1416,0.0714 0.354,0.0714 0.4957,0.0714 z M 60.9693,8.55859 h -3.399 V 22.8331 h 3.399 z M 87.0299,15.486 c 0.1416,-0.2855 0.2832,-0.6424 0.2832,-0.9992 0.0236,-0.1428 0.0394,-0.2855 0.0551,-0.4283 0.0315,-0.2855 0.0629,-0.571 0.1574,-0.8565 0,-0.9992 -0.2125,-1.7843 -0.6373,-2.2125 -0.4957,-0.4996 -1.133,-0.7851 -1.8412,-0.7137 -0.6373,0 -1.2746,0.2141 -1.6994,0.7137 -0.4249,0.4996 -0.6373,1.2133 -0.6373,2.1412 0,0.4282 0.0708,0.8564 0.1416,1.2847 0.0708,0.3568 0.2124,0.7851 0.4248,1.0706 0.2125,0.2855 0.4957,0.571 0.779,0.7137 0.354,0.2141 0.7789,0.2855 1.2038,0.2855 0.354,0 0.7789,-0.0714 1.133,-0.2855 0.2832,-0.1427 0.4957,-0.4282 0.6373,-0.7137 z m -5.0985,8.636 c -0.0708,0.1428 -0.1416,0.3569 -0.1416,0.571 0,0.2141 -0.0708,0.4283 -0.2124,0.571 0,0.2855 0.1416,0.571 0.2832,0.7851 0.2125,0.2855 0.4249,0.571 0.7081,0.7137 0.2833,0.2142 0.6373,0.3569 0.9914,0.4996 0.3541,0.0714 0.7081,0.1428 1.133,0.1428 0.7081,0.0714 1.4162,0 2.1243,-0.1428 0.4957,-0.0713 0.9206,-0.2854 1.3455,-0.4996 0.5665,-0.2855 0.9205,-0.9278 0.9205,-1.5702 0,-0.2141 -0.0708,-0.4282 -0.2124,-0.5709 -0.2125,-0.2142 -0.4249,-0.3569 -0.6373,-0.4283 -0.2833,-0.1427 -0.6373,-0.2141 -0.9914,-0.2855 -0.2124,-0.0357 -0.4248,-0.0892 -0.6372,-0.1427 h -10e-5 -1e-4 C 86.3925,23.7116 86.1801,23.6581 85.9677,23.6224 85.7565,23.5799 85.558,23.5373 85.3683,23.4966 l -5e-4,-10e-5 c -0.4463,-0.0956 -0.8438,-0.1808 -1.2412,-0.2309 -0.5665,-0.0714 -1.0622,-0.1428 -1.4871,-0.2141 -0.1416,0.1427 -0.2832,0.2855 -0.4248,0.4996 -0.0213,0.0429 -0.049,0.0923 -0.0793,0.1462 l -4e-4,8e-4 -2e-4,2e-4 c -0.0702,0.1252 -0.154,0.2745 -0.2034,0.4237 z m 6.019,-15.34505 c 0.2125,0.07137 0.5665,0.21412 0.8498,0.35686 0.7081,-0.21411 1.4162,-0.35686 2.4076,-0.42823 l 0.193,-0.01957 C 92.0327,8.62172 92.6116,8.56283 93.1905,8.56283 L 92.624,11.1322 90.1456,10.704 c 0.2832,0.3569 0.4249,0.7137 0.5665,1.142 0.2124,0.571 0.2832,1.2133 0.2832,1.7843 0,0.7137 -0.1416,1.4274 -0.4956,2.0698 -0.3541,0.6423 -0.779,1.142 -1.2747,1.5702 -0.5665,0.3568 -1.133,0.7137 -1.6994,0.9278 -0.4957,0.2141 -1.133,0.3569 -1.6995,0.3569 -0.6373,0 -1.2746,0 -1.9119,-0.1428 L 82.6395,17.984 c -0.2124,0.2141 -0.354,0.3569 -0.4956,0.571 -0.1417,0.2141 -0.2125,0.4282 -0.2125,0.7137 0,0.1428 0.0708,0.2855 0.2125,0.3569 0.1416,0.1427 0.354,0.2141 0.5665,0.2855 0.2832,0.1427 0.5664,0.2141 0.8497,0.2855 0.1416,0.0356 0.3009,0.0713 0.4603,0.107 0.1593,0.0357 0.3186,0.0714 0.4603,0.1071 0.354,0 0.7081,0.0713 0.9913,0.1427 0.2833,0.0714 0.5665,0.1428 0.8498,0.1428 0.2124,0.0357 0.4603,0.0713 0.7081,0.107 0.2478,0.0357 0.4957,0.0714 0.7081,0.1071 0.4957,0.0714 0.9914,0.1427 1.4162,0.2855 l 1.2746,0.4282 c 0.3541,0.1428 0.779,0.3569 1.0622,0.6424 0.2833,0.2141 0.5665,0.5709 0.7081,0.9278 0.2125,0.4282 0.2833,0.8565 0.2833,1.2847 0,0.571 -0.0708,1.142 -0.3541,1.713 -0.2124,0.4996 -0.4957,0.9278 -0.9205,1.2847 -0.3541,0.3568 -0.8498,0.6423 -1.3454,0.8564 -0.4957,0.2141 -1.0622,0.3569 -1.6287,0.4996 -0.5665,0.1428 -1.2038,0.2855 -1.7703,0.2855 -0.5665,0.0714 -1.133,0.0714 -1.6995,0.0714 -0.9206,0 -1.8411,-0.0714 -2.6908,-0.2141 -0.6374,-0.0714 -1.2747,-0.2855 -1.8412,-0.571 -0.4248,-0.2141 -0.7789,-0.4996 -1.0621,-0.9278 -0.2125,-0.2855 -0.3541,-0.7138 -0.3541,-1.142 -0.0708,-0.4282 0.0708,-0.8565 0.2124,-1.2847 0.1417,-0.3569 0.3541,-0.7137 0.6374,-0.9992 0.2832,-0.2855 0.5664,-0.571 0.9205,-0.7851 0.2833,-0.2141 0.6373,-0.4283 0.9914,-0.6424 -0.1372,-0.0461 -0.2744,-0.1219 -0.4306,-0.2083 -0.0857,-0.0474 -0.1772,-0.098 -0.2776,-0.1485 -0.2832,-0.1428 -0.5664,-0.2855 -0.7789,-0.4996 -0.2124,-0.2142 -0.4957,-0.4997 -0.6373,-0.7851 -0.2124,-0.3569 -0.2832,-0.7138 -0.2832,-1.142 0,-0.2855 0,-0.571 0.1416,-0.8565 0.1416,-0.2855 0.2832,-0.4996 0.4957,-0.7137 0.2124,-0.2141 0.4248,-0.4282 0.7081,-0.571 0.1416,-0.0714 0.301,-0.1427 0.4603,-0.2141 l 3e-4,-10e-5 c 0.1592,-0.0714 0.3184,-0.1427 0.4599,-0.214 -0.354,-0.2855 -0.6373,-0.571 -0.9205,-0.8565 -0.2125,-0.2855 -0.4249,-0.6423 -0.5665,-0.9278 -0.2124,-0.3569 -0.2832,-0.7138 -0.3541,-1.0706 -0.1416,-0.4283 -0.1416,-0.8565 -0.1416,-1.2847 0,-0.7137 0.1416,-1.4275 0.4249,-2.0698 0.2832,-0.6424 0.7081,-1.14199 1.2038,-1.57022 0.5665,-0.42824 1.133,-0.71373 1.8411,-0.92785 0.7789,-0.14274 1.6287,-0.28549 2.4076,-0.28549 0.1869,0 0.3738,0.01989 0.5503,0.03867 0.1578,0.0168 0.3073,0.03271 0.4411,0.03271 0.2832,0 0.5665,0.07137 0.8497,0.14274 0.2832,0.07137 0.4957,0.14275 0.7789,0.28549 z M 104.8,17.6978 c -0.142,-0.3569 -0.283,-0.7137 -0.566,-1.0706 -0.213,-0.2855 -0.425,-0.571 -0.708,-0.7851 l -10e-4,-10e-5 c -0.283,-0.2141 -0.566,-0.4281 -0.849,-0.5709 -0.283,-0.1427 -0.567,-0.2855 -0.85,-0.3568 l -0.708,-0.2855 c -0.354,-0.1428 -0.708,-0.2855 -1.1331,-0.4283 l -2e-4,-10e-5 C 99.6307,14.0577 99.2767,13.915 98.8519,13.7723 98.811,13.7586 98.7675,13.7448 98.7224,13.7306 98.533,13.6708 98.3154,13.6021 98.1438,13.4868 97.9314,13.4154 97.7189,13.2727 97.5065,13.13 L 97.0816,12.7017 C 96.94,12.559 96.94,12.2735 96.94,12.0594 c 0,-0.2142 0,-0.4283 0.1416,-0.6424 0.0709,-0.2141 0.2125,-0.3569 0.3541,-0.4996 0.2124,-0.1427 0.4249,-0.2855 0.6373,-0.3569 0.2833,-0.0713 0.6373,-0.1427 0.9914,-0.1427 0.4248,0 0.7789,0 1.1326,0.1427 0.274,0.0551 0.505,0.1528 0.759,0.2601 v 2e-4 c 0.075,0.0316 0.152,0.0641 0.233,0.0966 0.283,0.1427 0.566,0.3569 0.849,0.571 0.284,0.214 0.496,0.4281 0.779,0.7134 v 2e-4 10e-5 l 1.558,-2.42666 C 103.667,9.20446 102.817,8.77623 101.968,8.49074 100.976,8.20525 99.9849,8.0625 98.9936,8.0625 c -0.7082,0 -1.3455,0.07137 -1.9828,0.28549 -0.6373,0.14275 -1.2038,0.42824 -1.6994,0.71373 -0.4957,0.28549 -0.9206,0.71372 -1.2747,1.21328 -0.2832,0.4997 -0.4956,1.0706 -0.4248,1.713 0,0.4282 0.0708,0.9278 0.2124,1.3561 0.1416,0.3568 0.3541,0.7137 0.5665,1.0706 0.2124,0.2854 0.4957,0.5709 0.8497,0.7851 0.2833,0.2141 0.5665,0.4282 0.9206,0.5709 l 0.8497,0.4283 c 0.166,0.0836 0.3319,0.1427 0.4693,0.1917 0.0972,0.0346 0.1802,0.0642 0.2388,0.0938 l 1.0622,0.4282 1.0622,0.4282 c 0.2127,0.0714 0.4247,0.1428 0.5667,0.2855 0.149,0.0501 0.263,0.1353 0.391,0.231 v 0 c 0.055,0.0407 0.112,0.0833 0.175,0.1259 l 0.425,0.4282 c 0.142,0.1428 0.142,0.4283 0.142,0.571 0,0.571 -0.213,0.9992 -0.638,1.3561 -0.212,0.1427 -0.424,0.2855 -0.708,0.2855 -0.2829,0.0713 -0.5661,0.0713 -0.9202,0.0713 -1.487,0 -2.8325,-0.7137 -4.1779,-2.1411 l -1.8411,2.2839 c 0.4249,0.4282 0.8498,0.7851 1.2746,1.0706 0.4249,0.2855 0.9206,0.4996 1.4163,0.7137 0.4956,0.1427 1.0621,0.2855 1.5578,0.3569 0.5665,0.0713 1.2038,0.1427 1.7703,0.1427 0.7081,0 1.4162,-0.0714 2.1242,-0.2855 0.637,-0.1427 1.275,-0.4282 1.841,-0.7851 0.496,-0.2855 0.992,-0.7851 1.275,-1.2847 0.354,-0.4996 0.496,-1.1419 0.496,-1.7843 0.07,-0.3569 0,-0.7851 -0.213,-1.2847 z M 73.9239,8.63421 c 0.6373,0.21411 1.2038,0.57098 1.6995,0.99921 0.4956,0.49958 0.8497,0.99918 1.0621,1.64158 0.2833,0.7137 0.4249,1.4274 0.4249,2.1412 v 9.4211 h -3.4698 v -8.7788 c 0,-0.4282 0,-0.9278 -0.1416,-1.4274 -0.0708,-0.4283 -0.2832,-0.7138 -0.4957,-0.9992 -0.2832,-0.2855 -0.5665,-0.4283 -0.8497,-0.571 -0.3541,-0.0714 -0.7081,-0.1428 -1.133,-0.1428 -0.1416,0 -0.2655,0.0179 -0.3895,0.0357 -0.1239,0.0179 -0.2478,0.0357 -0.3894,0.0357 -0.2833,0 -0.5665,0.0714 -0.8498,0.1427 -0.2832,0.0714 -0.5665,0.1428 -0.8497,0.2855 -0.2124,0.0714 -0.4957,0.2142 -0.779,0.3569 V 22.8373 H 64.3643 V 10.8468 9.77617 c 0,-0.42824 -0.0708,-0.92785 -0.1416,-1.35608 h 3.1865 c 0,0.08362 0.0243,0.14274 0.0444,0.19173 0.0142,0.03463 0.0264,0.06419 0.0264,0.09376 0,0.02956 0.0121,0.07137 0.0264,0.12035 0.0201,0.06927 0.0444,0.15289 0.0444,0.23651 0,0.07137 0.0177,0.14275 0.0354,0.21412 0.0177,0.07137 0.0354,0.14274 0.0354,0.21412 0.0708,0.14274 0.0708,0.21411 0.0708,0.35686 0.2125,-0.21412 0.4957,-0.42824 0.779,-0.57098 0.2832,-0.21412 0.6373,-0.35686 0.9913,-0.49961 0.3541,-0.14274 0.7082,-0.28549 1.133,-0.35686 0.4249,-0.07137 0.8498,-0.14275 1.2746,-0.14275 0.7082,0 1.4163,0.14275 2.0536,0.35687 z"
     fill="#e40034"
     id="path2" />
  <path
     d="m 110.4908,8.472346 h 5.87848 c 0.74428,0 1.42237,0.1189898 2.03317,0.3569694 0.61081,0.224749 1.13619,0.5486686 1.574,0.9717374 0.43889,0.4098492 0.77739,0.8990152 1.01659,1.4675112 0.2392,0.56855 0.3588,1.189928 0.3588,1.864164 0,0.674237 -0.1196,1.295615 -0.3588,1.864135 -0.2392,0.56852 -0.5777,1.064319 -1.01659,1.487399 -0.43781,0.409838 -0.96319,0.733715 -1.574,0.971737 -0.6108,0.224674 -1.28889,0.337118 -2.03317,0.337118 h -2.88959 v 4.561187 h -2.98889 z m 5.77917,6.544379 c 0.59799,0 1.07638,-0.171923 1.43518,-0.515662 0.37161,-0.35698 0.55741,-0.813056 0.55741,-1.368335 0,-0.555278 -0.1858,-1.00484 -0.55741,-1.348579 -0.3588,-0.356936 -0.83719,-0.535414 -1.43518,-0.535414 h -2.79028 v 3.76799 z"
     fill="#f8a912"
     id="path4"
     style="stroke-width:1.06784" />
  <path
     d="m 124.03639,8.472346 h 6.17748 c 0.74428,0 1.41489,0.1123798 2.01288,0.3371288 0.61081,0.2247597 1.12871,0.5420587 1.55478,0.9519077 0.425,0.4098485 0.74963,0.9056355 0.97601,1.4873525 0.22532,0.568517 0.33851,1.196516 0.33851,1.883993 0,0.793195 -0.12601,1.454296 -0.37802,1.983092 -0.2392,0.528903 -0.5115,0.945362 -0.8169,1.249377 -0.34598,0.35698 -0.74429,0.63462 -1.19598,0.832918 l 2.88958,5.156189 h -3.28789 l -2.49128,-4.561187 h -2.79027 v 4.561187 h -2.9889 z m 6.07817,6.544379 c 0.55741,0 1.00911,-0.171923 1.35509,-0.515662 0.3588,-0.35698 0.53819,-0.813056 0.53819,-1.368335 0,-0.555278 -0.17939,-1.00484 -0.53819,-1.348579 -0.34598,-0.356936 -0.79768,-0.535414 -1.35509,-0.535414 h -3.08927 v 3.76799 z"
     fill="#f8a912"
     id="path6"
     style="stroke-width:1.06784" />
  <path
     d="m 138.08708,8.472346 h 10.36342 v 2.776389 h -7.37453 v 2.677188 h 5.78024 v 2.677296 h -5.78024 v 2.974692 h 7.57315 v 2.776393 h -10.56204 z"
     fill="#f8a912"
     id="path8"
     style="stroke-width:1.06784" />
  <path
     d="m 151.34008,8.472346 h 2.69097 l 4.78287,5.949376 4.78287,-5.949376 h 2.68989 v 13.881958 h -2.98889 v -9.12248 l -4.48387,5.552786 -4.48388,-5.552786 v 9.12248 h -2.98996 z"
     fill="#f8a912"
     id="path10"
     style="stroke-width:1.06784" />
  <path
     d="m 169.86823,8.472346 h 2.9889 v 13.881958 h -2.9889 z"
     fill="#f8a912"
     id="path12"
     style="stroke-width:1.06784" />
  <path
     d="m 176.44615,8.472346 h 10.36235 v 2.776389 h -7.37346 v 2.677188 h 5.77917 v 2.677296 h -5.77917 v 2.974692 h 7.57315 v 2.776393 h -10.56204 z"
     fill="#f8a912"
     id="path14"
     style="stroke-width:1.06784" />
  <path
     d="m 189.69915,8.472346 h 6.17748 c 0.74428,0 1.41489,0.1123798 2.01288,0.3371288 0.61081,0.2247597 1.12978,0.5420587 1.55478,0.9519077 0.425,0.4098485 0.75069,0.9056355 0.97601,1.4873525 0.22638,0.568517 0.3385,1.196516 0.3385,1.883993 0,0.793195 -0.126,1.454296 -0.37801,1.983092 -0.2392,0.528903 -0.5115,0.945362 -0.8169,1.249377 -0.34598,0.35698 -0.74429,0.63462 -1.19599,0.832918 l 2.88959,5.156189 h -3.28789 l -2.49128,-4.561187 h -2.79028 v 4.561187 h -2.98889 z m 6.07817,6.544379 c 0.55741,0 1.00911,-0.171923 1.35509,-0.515662 0.35879,-0.35698 0.53819,-0.813056 0.53819,-1.368335 0,-0.555278 -0.1794,-1.00484 -0.53819,-1.348579 -0.34598,-0.356936 -0.79768,-0.535414 -1.35509,-0.535414 h -3.08928 v 3.76799 z"
     fill="#f8a912"
     id="path16"
     style="stroke-width:1.06784" />
</svg>
