<svg width="146" height="20" viewBox="0 0 146 20" fill="none" xmlns="http://www.w3.org/2000/svg">
<path d="M12.5 10.5C12.22 10.88 11.88 11.2 11.48 11.5C10.78 12 9.8 12.5 8.5 12.5C6 12.5 4 10.5 4 8C4 5.5 6 3.5 8.5 3.5C9.76 3.5 10.72 4 11.38 4.5C11.76 4.8 12.1 5.12 12.4 5.5L14.4 3.5C13.98 2.98 13.5 2.52 12.92 2.1C11.94 1.4 10.44 0.699999 8.5 0.699999C4.18 0.699999 0.9 4 0.9 8C0.9 12 4.18 15.3 8.5 15.3C10.5 15.3 11.98 14.6 13 13.9C13.58 13.48 14.08 13.02 14.5 12.5L12.5 10.5ZM20.607 12.7C19.207 12.7 18.107 11.6 18.107 10.1C18.107 8.6 19.207 7.5 20.607 7.5C22.007 7.5 23.107 8.6 23.107 10.1C23.107 11.6 22.007 12.7 20.607 12.7ZM15.407 10.1C15.407 12.9 17.707 15.2 20.607 15.2C23.507 15.2 25.807 12.9 25.807 10.1C25.807 7.3 23.507 5 20.607 5C17.707 5 15.407 7.3 15.407 10.1ZM27.8039 15H30.5039V9.6C30.5039 8.4 31.2839 7.6 32.4039 7.6C33.4239 7.6 34.0039 8.18 34.0039 9.3V15H36.7039V9.6C36.7039 8.4 37.4839 7.6 38.6039 7.6C39.6239 7.6 40.2039 8.18 40.2039 9.3V15H42.9039V8.9C42.9039 6.5 41.4239 5 39.5039 5C38.4439 5 37.6639 5.44 37.1239 5.86C36.8039 6.1 36.5239 6.38 36.3039 6.7H36.2039C36.0239 6.38 35.8039 6.1 35.5439 5.86C35.0839 5.44 34.3439 5 33.3039 5C32.3439 5 31.7039 5.4 31.2439 5.8C30.9839 6.04 30.7839 6.3 30.6039 6.6H30.5039V5.2H27.8039V15ZM45.4992 19.2H48.1992V13.6H48.2992C48.4992 13.9 48.7592 14.16 49.0592 14.4C49.5992 14.8 50.3392 15.2 51.3992 15.2C53.7192 15.2 55.7992 13.1 55.7992 10.1C55.7992 7.12 53.7192 5 51.3992 5C50.3392 5 49.5992 5.4 49.0592 5.8C48.7592 6.04 48.4992 6.3 48.2992 6.6H48.1992V5.2H45.4992V19.2ZM50.5992 12.7C49.1992 12.7 48.0992 11.6 48.0992 10.1C48.0992 8.6 49.1992 7.5 50.5992 7.5C51.9992 7.5 53.0992 8.6 53.0992 10.1C53.0992 11.6 51.9992 12.7 50.5992 12.7ZM57.8039 15H60.5039V10.4C60.5039 8.8 61.5039 7.8 62.8039 7.8C63.1039 7.8 63.3239 7.84 63.4839 7.86L63.7039 7.9V5H63.5039C62.5439 5 61.8239 5.4 61.3439 5.8C61.0639 6.04 60.8239 6.3 60.6039 6.6H60.5039V5.2H57.8039V15ZM72.6063 11.7C72.4263 11.92 72.2063 12.1 71.9463 12.26C71.4863 12.56 70.8663 12.8 70.0063 12.8C68.5063 12.8 67.7063 12 67.4063 11.1H74.5063L74.5463 10.76C74.5663 10.54 74.6063 10.28 74.6063 9.9C74.6063 7.2 72.4063 5 69.7063 5C66.9063 5 64.6063 7.3 64.6063 10.1C64.6063 12.9 66.9063 15.2 69.8063 15.2C71.1663 15.2 72.2063 14.8 72.9263 14.4C73.3463 14.16 73.7063 13.9 74.0062 13.6L72.6063 11.7ZM67.4063 9.1C67.7063 8.2 68.4863 7.4 69.6063 7.4C70.7263 7.4 71.5063 8.2 71.8063 9.1H67.4063ZM76.7125 15H79.4125V9.8C79.4125 8.5 80.3125 7.6 81.5125 7.6C82.6325 7.6 83.3125 8.3 83.3125 9.5V15H86.0125V9.1C86.0125 6.6 84.4125 5 82.4125 5C81.4525 5 80.7325 5.4 80.2525 5.8C79.9725 6.04 79.7325 6.3 79.5125 6.6H79.4125V0.999999H76.7125V15ZM96.0047 11.7C95.8247 11.92 95.6047 12.1 95.3447 12.26C94.8847 12.56 94.2647 12.8 93.4047 12.8C91.9047 12.8 91.1047 12 90.8047 11.1H97.9047L97.9447 10.76C97.9647 10.54 98.0047 10.28 98.0047 9.9C98.0047 7.2 95.8047 5 93.1047 5C90.3047 5 88.0047 7.3 88.0047 10.1C88.0047 12.9 90.3047 15.2 93.2047 15.2C94.5647 15.2 95.6047 14.8 96.3247 14.4C96.7447 14.16 97.1047 13.9 97.4047 13.6L96.0047 11.7ZM90.8047 9.1C91.1047 8.2 91.8847 7.4 93.0047 7.4C94.1247 7.4 94.9047 8.2 95.2047 9.1H90.8047ZM100.011 15H102.711V9.8C102.711 8.5 103.611 7.6 104.811 7.6C105.931 7.6 106.611 8.3 106.611 9.5V15H109.311V9.1C109.311 6.6 107.711 5 105.711 5C104.751 5 104.031 5.4 103.551 5.8C103.271 6.04 103.031 6.3 102.811 6.6H102.711V5.2H100.011V15ZM110.905 13.4C111.205 13.74 111.565 14.04 111.985 14.3C112.705 14.76 113.745 15.2 115.105 15.2C117.805 15.2 119.205 13.78 119.205 12.1C119.205 8.9 114.205 9.1 114.205 8C114.205 7.7 114.505 7.4 115.205 7.4C115.905 7.4 116.445 7.58 116.825 7.8C117.045 7.92 117.245 8.06 117.405 8.2L119.005 6.5C118.745 6.24 118.425 5.98 118.045 5.76C117.405 5.38 116.465 5 115.205 5C112.705 5 111.305 6.4 111.305 8C111.305 11.2 116.305 11 116.305 12.1C116.305 12.5 116.005 12.8 115.105 12.8C114.305 12.8 113.665 12.56 113.205 12.26C112.945 12.1 112.705 11.92 112.505 11.7L110.905 13.4ZM121.007 15H123.707V5.2H121.007V15ZM120.807 2.4C120.807 3.2 121.487 3.9 122.347 3.9C123.207 3.9 123.907 3.2 123.907 2.4C123.907 1.6 123.227 0.899999 122.367 0.899999C121.507 0.899999 120.807 1.6 120.807 2.4ZM128.6 15H131.6L135.3 5.2H132.4L130.14 11.8H130.06L127.8 5.2H124.9L128.6 15ZM143.895 11.7C143.715 11.92 143.495 12.1 143.235 12.26C142.775 12.56 142.155 12.8 141.295 12.8C139.795 12.8 138.995 12 138.695 11.1H145.795L145.835 10.76C145.855 10.54 145.895 10.28 145.895 9.9C145.895 7.2 143.695 5 140.995 5C138.195 5 135.895 7.3 135.895 10.1C135.895 12.9 138.195 15.2 141.095 15.2C142.455 15.2 143.495 14.8 144.215 14.4C144.635 14.16 144.995 13.9 145.295 13.6L143.895 11.7ZM138.695 9.1C138.995 8.2 139.775 7.4 140.895 7.4C142.015 7.4 142.795 8.2 143.095 9.1H138.695Z" fill="#011831"/>
</svg>