<svg width="141" height="55" viewBox="0 0 141 55" fill="none" xmlns="http://www.w3.org/2000/svg">
<g clip-path="url(#clip0)">
<path d="M66.9776 1.3233C66.9776 1.3233 73.7025 7.16207 83.07 2.50192C91.8976 -1.88148 98.6004 0.456005 104.517 8.58037C104.517 8.58037 97.0695 0.577081 87.2213 5.78824C77.908 10.7301 69.5019 7.00393 66.9628 1.3233" fill="#E40034"/>
<path d="M71.5131 27.2231C71.0917 27.2989 70.6644 27.3369 70.2362 27.3367C69.9892 27.3455 69.7439 27.2937 69.5213 27.186C69.2968 27.0836 69.1123 26.9099 68.9962 26.6918C68.8448 26.4195 68.7312 26.1277 68.6585 25.8245C68.5827 25.3772 68.5448 24.9242 68.5451 24.4705V14.8735H72.7531L73.1648 11.6366H68.5451V6.74414H65.2024L64.0019 11.6366L61.2212 12.578V14.8735H64.0019V25.0289C64.0001 25.8504 64.0752 26.6702 64.2262 27.4776C64.3617 28.1466 64.6438 28.777 65.052 29.3234C65.4705 29.8561 66.03 30.2603 66.6667 30.4896C67.4962 30.8019 68.3795 30.9455 69.2649 30.9122C70.0801 30.9203 70.8874 30.7518 71.6315 30.418C72.5264 30.074 73.361 29.5894 74.104 28.9824L73.0539 26.7586C72.5532 26.9505 72.038 27.1017 71.5131 27.2107" fill="#E40034"/>
<path d="M59.1186 22.3282C58.849 21.9367 58.5157 21.5934 58.1326 21.3127C57.7848 21.0314 57.4059 20.791 57.0035 20.5961C56.6516 20.4092 56.2886 20.2441 55.9164 20.1019L55.0142 19.7634C54.5211 19.5756 54.0281 19.4249 53.5499 19.2371C53.0716 19.0493 52.5638 18.8986 52.0831 18.7108C51.7824 18.5971 51.4447 18.4835 51.1439 18.3698C50.8497 18.2579 50.5719 18.1067 50.3181 17.9201C50.0914 17.7473 49.889 17.5444 49.7166 17.3172C49.5639 17.0687 49.486 16.7813 49.4923 16.4894C49.487 16.2055 49.5381 15.9232 49.6426 15.6592C49.7504 15.3972 49.9195 15.165 50.1357 14.9822C50.4016 14.7604 50.708 14.5925 51.0379 14.488C51.453 14.3672 51.8826 14.304 52.3149 14.3002C52.8316 14.2922 53.3477 14.3428 53.8531 14.4509C54.2927 14.5615 54.721 14.7128 55.1325 14.9031C55.5175 15.1152 55.8815 15.3634 56.2196 15.6444C56.5894 15.953 56.9409 16.2831 57.2722 16.6328L59.338 13.4206C58.39 12.6385 57.2904 12.0622 56.1087 11.728C54.8219 11.3837 53.4963 11.206 52.1645 11.1992C51.279 11.2064 50.3982 11.3284 49.544 11.5624C48.7376 11.7574 47.9655 12.074 47.2539 12.5014C46.6103 12.9083 46.06 13.4472 45.6393 14.0828C45.2129 14.7433 45.0027 15.5207 45.0378 16.3066C45.0097 17.4729 45.3958 18.6113 46.1274 19.5188C46.4324 19.9247 46.7993 20.2799 47.2145 20.5714C47.5928 20.8537 47.9954 21.1018 48.4175 21.3127C48.7908 21.5186 49.1799 21.6946 49.581 21.839C49.9582 21.9897 50.2959 22.1034 50.5671 22.217C51.0601 22.4048 51.5063 22.5926 51.9944 22.7433C52.4825 22.8941 52.9336 23.0819 53.4217 23.2696C53.683 23.3833 53.9147 23.497 54.1612 23.6082C54.4222 23.7373 54.663 23.9037 54.8761 24.1023C55.0892 24.2655 55.2678 24.4696 55.4012 24.7028C55.5374 24.9431 55.6024 25.2174 55.5886 25.4935C55.5906 25.8573 55.5141 26.2172 55.3642 26.5485C55.2117 26.8334 54.9905 27.0754 54.7208 27.2528C54.4219 27.4536 54.0871 27.5945 53.7348 27.6679C53.3382 27.7436 52.9355 27.7817 52.5318 27.7815C50.5794 27.7815 48.7379 26.7932 47.0099 24.9202L44.5324 27.9323C45.038 28.4877 45.6189 28.9693 46.258 29.3629C46.8581 29.7394 47.5012 30.0422 48.1734 30.2648C48.871 30.4916 49.5869 30.6569 50.3132 30.759C51.1099 30.8649 51.913 30.9144 52.7167 30.9072C53.6417 30.909 54.5634 30.7953 55.4604 30.5687C56.3063 30.3484 57.1159 30.0063 57.8639 29.5532C58.5512 29.1274 59.1302 28.5471 59.555 27.8581C59.9865 27.158 60.2081 26.3484 60.1934 25.5256C60.2004 24.9004 60.1115 24.2779 59.9297 23.6798C59.6289 23.1856 59.4046 22.7384 59.1038 22.3233" fill="#E40034"/>
<path d="M42.4789 27.7481C42.3048 27.7787 42.128 27.7912 41.9513 27.7851C41.7332 27.788 41.5166 27.7495 41.3128 27.6715C41.1384 27.6138 40.9917 27.4931 40.9012 27.333C40.7707 27.1433 40.6925 26.9226 40.6744 26.693C40.6313 26.3552 40.6066 26.0154 40.6004 25.675V17.2467C40.6316 16.3526 40.4298 15.4657 40.0148 14.6737C39.5998 13.8816 38.986 13.2116 38.2339 12.7298C37.4757 12.2371 36.6359 11.884 35.754 11.6871C33.3611 11.1224 30.8561 11.2666 28.5434 12.1022C27.2457 12.5792 26.0479 13.2939 25.0109 14.2099L27.4144 16.9576C27.8636 16.5159 28.3403 16.1032 28.8417 15.7221C29.2359 15.4482 29.6477 15.2006 30.0743 14.9808C30.4543 14.7877 30.8592 14.648 31.2773 14.5657C31.6841 14.4924 32.0965 14.4552 32.5098 14.4545C32.9915 14.4587 33.4708 14.5217 33.9372 14.6423C34.341 14.7585 34.7135 14.9646 35.0267 15.2452C35.352 15.5425 35.5971 15.9173 35.7392 16.3349C35.9174 16.8429 36.0066 17.3779 36.0029 17.9163V18.5958C35.0267 18.5958 34.0497 18.6329 33.0719 18.707C32.1602 18.788 31.2545 18.9266 30.3602 19.1221C29.5411 19.3018 28.7465 19.5797 27.9937 19.9499C27.3079 20.2975 26.6753 20.7418 26.1153 21.2693C25.5864 21.8099 25.1677 22.4486 24.8827 23.1497C24.5847 23.9701 24.432 24.8364 24.4316 25.7096C24.4242 26.4793 24.551 27.2444 24.8063 27.9704C25.0307 28.5918 25.405 29.1478 25.8959 29.5889C26.3879 30.0465 26.9783 30.3847 27.6215 30.5773C28.3638 30.8034 29.1357 30.9175 29.9116 30.9158C30.4272 30.9171 30.9422 30.8799 31.4523 30.8046C31.9902 30.7357 32.5192 30.609 33.03 30.4265C33.5818 30.2509 34.1113 30.0112 34.6077 29.7124C35.1595 29.3916 35.676 29.0131 36.1484 28.5832C36.2822 29.2859 36.687 29.9074 37.275 30.3129C37.9222 30.7338 38.6832 30.9443 39.4541 30.9158C39.8822 30.9155 40.3094 30.8783 40.7311 30.8046C41.1058 30.728 41.4435 30.6539 41.8207 30.5402C42.1417 30.4372 42.4547 30.3108 42.7574 30.1621C43.0582 30.0139 43.3219 29.8236 43.6227 29.668L43.1297 27.6369C42.9106 27.7114 42.6841 27.7619 42.4542 27.7876L42.4789 27.7481ZM36.0301 26.394C35.6766 26.6546 35.2994 26.8813 34.9035 27.071C34.5559 27.2476 34.1907 27.3867 33.8139 27.4862C33.4704 27.5847 33.1176 27.6476 32.7613 27.6739C32.4245 27.7048 32.0863 27.7172 31.7481 27.711C31.416 27.714 31.0848 27.6758 30.7621 27.5973C30.4562 27.5143 30.1775 27.3525 29.9534 27.1279C29.7294 26.9034 29.5679 26.6239 29.4851 26.3174C29.3646 25.9013 29.3016 25.4707 29.2978 25.0375C29.2843 24.4711 29.3858 23.9079 29.596 23.382C29.8269 22.8581 30.1896 22.4034 30.6487 22.0625C31.2742 21.6337 31.9752 21.3277 32.7144 21.1606C33.7984 20.8987 34.9059 20.7472 36.0202 20.7084L36.0301 26.394Z" fill="#E40034"/>
<path d="M81.5812 11.6016H77.0355V30.5016H81.5812V11.6016Z" fill="#E40034"/>
<path d="M118.615 12.391C118.203 12.2032 117.789 12.0525 117.451 11.8968C117.126 11.7498 116.787 11.6364 116.438 11.5583C116.061 11.4446 115.723 11.4076 115.349 11.331C114.899 11.2835 114.447 11.2588 113.995 11.2568C112.93 11.2685 111.87 11.4129 110.84 11.6868C109.951 11.9471 109.116 12.3655 108.375 12.9222C107.688 13.4712 107.129 14.1634 106.735 14.9509C106.334 15.8105 106.129 16.7493 106.136 17.6985C106.13 18.2549 106.181 18.8104 106.287 19.3565C106.361 19.8412 106.513 20.3108 106.735 20.7476C106.964 21.1712 107.228 21.5746 107.524 21.9534C107.881 22.369 108.289 22.7383 108.737 23.053C108.312 23.223 107.9 23.4245 107.505 23.6559C107.144 23.8764 106.812 24.1421 106.518 24.4466C106.25 24.744 106.023 25.0765 105.843 25.4349C105.692 25.7922 105.615 26.1763 105.616 26.5642C105.612 27.0735 105.729 27.5766 105.956 28.0319C106.191 28.4133 106.482 28.7566 106.819 29.0499C107.125 29.3103 107.466 29.5258 107.832 29.6899L108.735 30.1396C108.266 30.3854 107.815 30.6628 107.384 30.9698C106.943 31.2573 106.538 31.5984 106.181 31.9853C105.838 32.3858 105.547 32.8284 105.315 33.3023C105.087 33.8366 104.984 34.4168 105.017 34.9974C105.011 35.5453 105.167 36.0829 105.466 36.5417C105.83 37.0592 106.322 37.4737 106.893 37.745C107.667 38.1215 108.489 38.3876 109.336 38.5357C110.502 38.7381 111.684 38.8266 112.866 38.8001C113.618 38.8001 114.37 38.7631 115.159 38.6865C115.942 38.6323 116.72 38.5191 117.486 38.3479C118.233 38.1972 118.964 37.9703 119.665 37.6709C120.332 37.4126 120.943 37.0294 121.467 36.5417C121.991 36.0829 122.411 35.5177 122.7 34.8837C123.031 34.1645 123.2 33.3805 123.193 32.5882C123.199 32.0019 123.071 31.422 122.818 30.8932C122.581 30.4284 122.263 30.0099 121.879 29.6577C121.453 29.3032 120.97 29.0234 120.451 28.83C119.89 28.6032 119.313 28.415 118.726 28.2666C118.121 28.1054 117.507 27.9791 116.887 27.8886C116.285 27.8144 115.607 27.6637 115.008 27.5871C114.631 27.55 114.257 27.4759 113.842 27.3993L112.565 27.1745C112.15 27.0953 111.738 26.9946 111.333 26.873C110.958 26.7594 110.62 26.6457 110.246 26.495C109.976 26.396 109.722 26.2569 109.494 26.0823C109.41 26.0387 109.338 25.9743 109.285 25.8952C109.233 25.8161 109.201 25.7249 109.193 25.6301C109.173 25.2892 109.262 24.9508 109.447 24.664C109.628 24.3992 109.843 24.1591 110.086 23.9499C110.63 24.1809 111.195 24.3572 111.774 24.4762C112.616 24.6332 113.472 24.6962 114.328 24.664C115.115 24.6669 115.894 24.5132 116.621 24.2118C117.417 23.9132 118.165 23.4967 118.839 22.9764C119.519 22.4162 120.081 21.7257 120.491 20.9453C120.941 20.1007 121.161 19.1522 121.129 18.1952C121.169 17.4002 121.052 16.6053 120.787 15.8552C120.64 15.3206 120.389 14.8207 120.047 14.385L123.316 14.9138L124.068 11.5237C123.2 11.5309 122.334 11.5936 121.474 11.7115C120.488 11.9017 119.559 12.1266 118.62 12.391H118.615ZM109.178 33.0108C109.254 32.729 109.358 32.4558 109.489 32.1954C109.604 31.9365 109.742 31.6885 109.901 31.4541C110.072 31.215 110.274 30.9998 110.502 30.8141C111.104 30.8883 111.735 30.9649 112.457 31.076C113.179 31.1872 113.958 31.3404 114.897 31.5702C115.499 31.6814 116.024 31.8321 116.549 31.9458C116.999 32.044 117.44 32.1821 117.866 32.3584C118.182 32.4832 118.474 32.6621 118.728 32.8872C118.917 33.0769 119.025 33.3331 119.029 33.6013C119.035 34.0322 118.923 34.4566 118.706 34.8285C118.489 35.2004 118.174 35.5057 117.796 35.7115C117.233 36.0179 116.625 36.2338 115.994 36.3514C115.08 36.5393 114.146 36.6148 113.214 36.5763C112.705 36.5782 112.199 36.5024 111.713 36.3514C111.251 36.1916 110.809 35.9768 110.399 35.7115C110.033 35.4705 109.714 35.1639 109.459 34.8071C109.236 34.4911 109.118 34.1123 109.122 33.7249C109.109 33.4854 109.128 33.2452 109.178 33.0108ZM116.626 19.4207C116.586 19.8975 116.445 20.3601 116.211 20.7773C116.017 21.1656 115.718 21.4917 115.349 21.7187C114.878 21.9783 114.344 22.0983 113.808 22.0646C113.252 22.0644 112.702 21.9492 112.193 21.7261C111.765 21.4901 111.403 21.1503 111.141 20.7377C110.849 20.319 110.645 19.846 110.539 19.3466C110.422 18.8015 110.359 18.2461 110.352 17.6886C110.352 16.4532 110.653 15.5043 111.217 14.9039C111.498 14.5877 111.847 14.3389 112.237 14.1759C112.627 14.013 113.048 13.94 113.47 13.9625C113.912 13.927 114.357 13.9894 114.772 14.1453C115.187 14.3011 115.564 14.5466 115.874 14.8644C116.438 15.4673 116.699 16.4458 116.699 17.8023C116.732 18.3462 116.707 18.892 116.626 19.4306V19.4207Z" fill="#E40034"/>
<path d="M139.877 23.7218C139.714 23.2219 139.473 22.7514 139.162 22.3282C138.883 21.9445 138.551 21.6025 138.176 21.3127C137.823 21.0395 137.446 20.7997 137.049 20.5961C136.696 20.4092 136.332 20.2441 135.959 20.1019L135.057 19.7634C134.564 19.5756 134.071 19.4249 133.593 19.2371C133.115 19.0493 132.607 18.8986 132.129 18.7108C131.828 18.5971 131.49 18.4835 131.189 18.3698C130.895 18.2584 130.617 18.1071 130.364 17.9201C130.136 17.7486 129.933 17.5456 129.762 17.3172C129.609 17.0689 129.53 16.7815 129.535 16.4895C129.531 16.2056 129.582 15.9236 129.686 15.6592C129.806 15.4043 129.973 15.1745 130.179 14.9822C130.435 14.768 130.727 14.6007 131.042 14.488C131.457 14.3674 131.886 14.3042 132.318 14.3002C132.836 14.2922 133.353 14.3428 133.859 14.4509C134.298 14.5615 134.725 14.7129 135.136 14.9031C135.522 15.1152 135.887 15.3634 136.226 15.6444C136.563 15.9459 136.901 16.2473 137.276 16.6328L139.342 13.4206C138.394 12.6385 137.294 12.0622 136.112 11.728C134.826 11.3812 133.5 11.2034 132.168 11.1992C131.28 11.1983 130.396 11.3129 129.538 11.5402C128.732 11.7356 127.959 12.0522 127.248 12.4792C126.601 12.8951 126.04 13.432 125.596 14.0605C125.176 14.7237 124.966 15.4992 124.995 16.2844C124.984 16.9069 125.088 17.526 125.303 18.1104C125.491 18.6134 125.757 19.0837 126.092 19.504C126.397 19.9099 126.765 20.2651 127.181 20.5566C127.559 20.8389 127.96 21.0869 128.382 21.2979C128.759 21.4856 129.17 21.6734 129.545 21.8242C129.92 21.9749 130.26 22.0885 130.531 22.2022C131.024 22.39 131.47 22.5778 131.959 22.7285C132.447 22.8792 132.898 23.067 133.386 23.2548C133.642 23.3456 133.889 23.4589 134.125 23.5933C134.387 23.7219 134.628 23.8884 134.84 24.0875C135.053 24.2507 135.232 24.4548 135.365 24.688C135.502 24.9283 135.567 25.2026 135.553 25.4786C135.57 25.8226 135.5 26.1653 135.349 26.4747C135.198 26.7841 134.971 27.0501 134.69 27.2478C134.404 27.4406 134.086 27.5811 133.751 27.6629C133.354 27.7387 132.951 27.7768 132.548 27.7766C130.595 27.7766 128.754 26.7882 127.028 24.9153L124.548 27.9273C125.548 28.9998 126.801 29.8021 128.192 30.2599C128.878 30.4823 129.581 30.6476 130.295 30.754C131.079 30.8588 131.87 30.9083 132.661 30.9023C133.598 30.9041 134.532 30.7904 135.442 30.5638C136.288 30.3435 137.097 30.0014 137.845 29.5482C138.533 29.1225 139.112 28.5421 139.536 27.8532C139.989 27.1625 140.212 26.3462 140.175 25.5206C140.182 24.9047 140.08 24.2924 139.874 23.7119" fill="#E40034"/>
<path d="M101.036 13.0671C100.395 12.4792 99.6397 12.0308 98.8174 11.7501C97.9351 11.4476 97.0086 11.2947 96.0761 11.2979C95.4962 11.3045 94.9183 11.3674 94.3506 11.4857C93.8207 11.5944 93.3042 11.7601 92.8098 11.9799C92.354 12.1688 91.9145 12.3953 91.4959 12.6569C91.1367 12.8795 90.7976 13.1333 90.4828 13.4155C90.4742 13.2486 90.4486 13.083 90.4063 12.9213C90.3694 12.7335 90.3324 12.5457 90.2954 12.395C90.2584 12.2443 90.219 12.0565 90.182 11.9008L90.0686 11.5623H85.7817C85.9003 12.1572 85.963 12.7619 85.9691 13.3685C85.9691 13.9714 86.0085 14.4236 86.0085 14.7992V30.4648H90.5518V15.8864C90.8895 15.6986 91.2667 15.5479 91.6044 15.3922C91.9847 15.2441 92.3732 15.1179 92.7679 15.0142C93.1481 14.9002 93.5387 14.8249 93.9339 14.7893C94.2823 14.744 94.6329 14.7184 94.9841 14.7127C95.4939 14.7114 96.001 14.7881 96.4878 14.94C96.8979 15.097 97.2695 15.3406 97.5774 15.6541C97.8958 16.0244 98.1267 16.4619 98.2529 16.9341C98.4016 17.564 98.4768 18.2091 98.4772 18.8564V30.5266H103.097V17.999C103.102 17.0302 102.914 16.0701 102.545 15.1748C102.207 14.3685 101.693 13.6484 101.041 13.0671" fill="#E40034"/>
<path d="M16.7109 3.05371V13.5576H5.36635V3.05371H0.559326V16.194V21.3904V30.5377H5.36635V20.7875V17.3974H16.7109V17.9261V30.5377H21.5179V19.6558V17.5876V3.05371H16.7109Z" fill="#E40034"/>
<path d="M6.60375 39.9959C7.27173 39.9739 7.93747 40.0843 8.56273 40.3209C9.188 40.5575 9.76046 40.9156 10.2472 41.3747C10.7042 41.8182 11.0676 42.3492 11.3157 42.9363C11.5639 43.5233 11.6918 44.1544 11.6918 44.792C11.6918 45.4295 11.5639 46.0606 11.3157 46.6477C11.0676 47.2347 10.7042 47.7658 10.2472 48.2092C9.76038 48.6698 9.18725 49.029 8.56101 49.2661C7.93477 49.5032 7.26785 49.6134 6.59882 49.5905H3.66284V54.2852H0.601135V39.9959H6.60375ZM3.66284 42.7559V46.8305H6.50514C6.78571 46.839 7.06516 46.7913 7.32715 46.6904C7.58915 46.5894 7.82845 46.4371 8.03106 46.2424C8.22452 46.0546 8.37834 45.8298 8.48339 45.5813C8.58844 45.3327 8.64258 45.0656 8.64258 44.7957C8.64258 44.5258 8.58844 44.2586 8.48339 44.0101C8.37834 43.7615 8.22452 43.5367 8.03106 43.349C7.82901 43.1531 7.58993 42.9998 7.32787 42.8979C7.06582 42.7961 6.78609 42.7478 6.50514 42.7559H3.66284Z" fill="#FCBE02"/>
<path d="M14.1347 39.9967H20.4553C21.1007 39.9755 21.7438 40.0849 22.3461 40.3184C22.9484 40.5519 23.4976 40.9047 23.9607 41.3557C24.4095 41.7848 24.7644 42.3026 25.0029 42.8764C25.2414 43.4502 25.3583 44.0675 25.3462 44.689C25.3509 45.2352 25.2599 45.778 25.0775 46.2926C24.9339 46.7263 24.7208 47.1336 24.4464 47.4984C24.2246 47.7834 23.977 48.0473 23.7068 48.2867C23.5133 48.465 23.2959 48.6156 23.061 48.7339L22.8145 48.8723L25.8663 54.2836H22.5827L19.839 49.2824H17.1964V54.2836H14.1347V39.9967ZM21.7347 43.3152C21.5525 43.1343 21.3355 42.9924 21.097 42.8981C20.8584 42.8038 20.6032 42.7591 20.3469 42.7666H17.1964V46.5274H20.3469C20.602 46.5352 20.856 46.492 21.0943 46.4004C21.3326 46.3087 21.5503 46.1705 21.7347 45.9936C21.9128 45.8261 22.0537 45.623 22.1484 45.3974C22.2431 45.1718 22.2895 44.9288 22.2845 44.6841C22.2908 44.4304 22.2453 44.1781 22.1508 43.9427C22.0562 43.7072 21.9146 43.4937 21.7347 43.3152Z" fill="#FCBE02"/>
<path d="M38.9811 51.5328V54.2829H28.2849V39.9961H38.7716V42.7561H31.3466V45.615H37.1422V48.3651H31.3466V51.5328H38.9811Z" fill="#FCBE02"/>
<path d="M54.0749 39.9961H56.7865V54.2829H53.7347V44.7575L49.1545 50.6062L44.5718 44.7971V54.2829H41.5101V39.9961H44.2636L49.1446 46.2228L54.0749 39.9961Z" fill="#FCBE02"/>
<path d="M60.1442 39.9961H63.2059V54.2829H60.1442V39.9961Z" fill="#FCBE02"/>
<path d="M77.2346 51.5328V54.2829H66.5384V39.9961H77.0251V42.7561H69.6001V45.615H75.3956V48.3651H69.6001V51.5328H77.2346Z" fill="#FCBE02"/>
<path d="M79.7642 39.9967H86.0749C86.7203 39.9755 87.3634 40.0849 87.9657 40.3184C88.568 40.5519 89.1172 40.9047 89.5803 41.3557C90.0278 41.7854 90.3813 42.3035 90.6185 42.8773C90.8557 43.4511 90.9715 44.068 90.9584 44.689C90.9631 45.2352 90.8721 45.778 90.6897 46.2926C90.5461 46.7263 90.333 47.1336 90.0586 47.4984C89.8368 47.7834 89.5892 48.0473 89.319 48.2867C89.1255 48.465 88.9081 48.6156 88.6732 48.7339L88.4143 48.8723L91.4662 54.2836H88.2122L85.4685 49.2824H82.8234V54.2836H79.7642V39.9967ZM87.3617 43.3152C87.1801 43.1341 86.9636 42.9921 86.7254 42.8978C86.4872 42.8035 86.2323 42.7588 85.9763 42.7666H82.8234V46.5274H85.9738C86.2286 46.5354 86.4824 46.4923 86.7203 46.4007C86.9582 46.309 87.1754 46.1706 87.3593 45.9936C87.5386 45.827 87.6806 45.6241 87.7758 45.3984C87.871 45.1726 87.9172 44.9291 87.9114 44.6841C87.9182 44.4303 87.8729 44.1779 87.7784 43.9424C87.6838 43.7069 87.542 43.4934 87.3617 43.3152Z" fill="#FCBE02"/>
</g>
<defs>
<clipPath id="clip0">
<rect width="139.756" height="54.6319" fill="white" transform="translate(0.487793 0.0732422)"/>
</clipPath>
</defs>
</svg>
