<svg width="141" height="55" viewBox="0 0 141 55" fill="none" xmlns="http://www.w3.org/2000/svg">
<g clip-path="url(#clip0)">
<path d="M67.246 1.20797C67.246 1.20797 73.9709 6.99485 83.3385 2.37612C92.1661 -1.96832 98.8688 0.348389 104.785 8.40055C104.785 8.40055 97.338 0.470837 87.4898 5.63568C78.1913 10.5189 69.7802 6.83811 67.246 1.20797Z" fill="#E40034"/>
<path d="M71.7815 26.8775C71.36 26.9526 70.9327 26.9903 70.5045 26.9901C70.2575 26.9988 70.0122 26.9475 69.7896 26.8408C69.5646 26.7401 69.3799 26.5677 69.2646 26.351C69.1131 26.0819 68.9995 25.7935 68.9268 25.4938C68.8512 25.0496 68.8132 24.5999 68.8134 24.1494V14.6401H73.0214L73.4331 11.4295H68.8134V6.57812H65.4707L64.2702 11.4295L61.4895 12.3626V14.6401H64.2702V24.7151C64.2685 25.5284 64.3436 26.3401 64.4945 27.1395C64.63 27.8026 64.9121 28.4274 65.3203 28.9689C65.7381 29.4977 66.2979 29.8984 66.935 30.1248C67.7654 30.4306 68.6483 30.5704 69.5333 30.5362C70.3483 30.5431 71.1553 30.3761 71.8998 30.0464C72.7952 29.7055 73.6312 29.2271 74.3773 28.6285L73.3271 26.4244C72.826 26.6127 72.3109 26.7617 71.7864 26.8701" fill="#E40034"/>
<path d="M59.387 22.0276C59.1182 21.6382 58.7848 21.297 58.4009 21.0187C58.0536 20.7398 57.6747 20.5023 57.2719 20.3109C56.9205 20.1246 56.5573 19.961 56.1847 19.8211L55.2825 19.4832C54.7895 19.2971 54.2964 19.1477 53.8182 18.9616C53.34 18.7754 52.8322 18.6261 52.3515 18.4399C52.0507 18.3273 51.713 18.2146 51.4122 18.1044C51.1183 17.9917 50.8407 17.841 50.5864 17.6563C50.3597 17.4849 50.1574 17.2839 49.9849 17.0587C49.832 16.8125 49.7541 16.5276 49.7606 16.2383C49.7551 15.9576 49.8062 15.6787 49.911 15.4179C50.0181 15.1571 50.1872 14.926 50.404 14.7445C50.6699 14.5246 50.9764 14.3583 51.3062 14.2547C51.7216 14.1362 52.1511 14.0736 52.5832 14.0686C53.1 14.0606 53.616 14.1107 54.1214 14.2179C54.5607 14.3286 54.9889 14.4786 55.4008 14.6661C55.7857 14.8764 56.1497 15.1224 56.488 15.4008C56.8578 15.7066 57.2092 16.0337 57.5406 16.3804L59.6064 13.1967C58.6583 12.4211 57.5587 11.8491 56.377 11.5167C55.0901 11.1763 53.7646 11.001 52.4328 10.9951C51.5473 11.0022 50.6665 11.1232 49.8124 11.3551C49.0055 11.5483 48.2332 11.8629 47.5222 12.2882C46.8781 12.6907 46.3276 13.225 45.9076 13.8555C45.4813 14.5102 45.271 15.2806 45.3061 16.0596C45.2778 17.2155 45.664 18.3439 46.3957 19.2432C46.7001 19.646 47.067 19.9982 47.4828 20.2864C47.8611 20.5662 48.2637 20.8121 48.6858 21.0211C49.0581 21.2273 49.4474 21.4018 49.8493 21.5428C50.2265 21.6921 50.5642 21.8048 50.8354 21.9174C51.3284 22.1036 51.7746 22.2897 52.2627 22.4391C52.7508 22.5885 53.2019 22.7746 53.69 22.9607C53.9513 23.0733 54.183 23.186 54.4296 23.2987C54.6906 23.4265 54.9314 23.5915 55.1445 23.7884C55.3577 23.951 55.5362 24.1541 55.6695 24.386C55.8061 24.6232 55.8711 24.8943 55.8569 25.1672C55.859 25.5278 55.7824 25.8845 55.6326 26.2129C55.4818 26.4982 55.2625 26.7421 54.9941 26.9231C54.6945 27.1203 54.3599 27.2591 54.008 27.3321C53.6115 27.4072 53.2087 27.4449 52.805 27.4447C50.8526 27.4447 49.0112 26.4651 47.2831 24.6088L44.8057 27.5941C45.3113 28.1446 45.8921 28.6219 46.5313 29.0121C47.1318 29.385 47.7748 29.6859 48.4467 29.9084C49.1445 30.132 49.8604 30.2959 50.5864 30.3982C51.3831 30.5039 52.1862 30.5539 52.9899 30.5476C53.9189 30.5433 54.8438 30.4249 55.7435 30.1949C56.5892 29.9748 57.3986 29.635 58.147 29.1859C58.835 28.7647 59.4141 28.1894 59.8381 27.506C60.2696 26.8121 60.4912 26.0096 60.4766 25.1941C60.4835 24.5745 60.3946 23.9575 60.2128 23.3648C59.912 22.875 59.6877 22.4317 59.387 22.0227" fill="#E40034"/>
<path d="M42.7472 27.4017C42.5731 27.4321 42.3963 27.4444 42.2197 27.4384C42.0016 27.4413 41.7849 27.4031 41.5812 27.3258C41.4068 27.2686 41.2601 27.149 41.1695 26.9903C41.0387 26.8025 40.9604 26.5836 40.9427 26.356C40.8997 26.022 40.875 25.686 40.8688 25.3495V16.9912C40.9004 16.1046 40.6988 15.2252 40.2838 14.4397C39.8687 13.6542 39.2547 12.9898 38.5022 12.512C37.7445 12.0203 36.9048 11.6663 36.0223 11.4663C33.6294 10.9067 31.1244 11.0496 28.8118 11.8778C27.5146 12.3515 26.3168 13.0597 25.2792 13.9667L27.6827 16.6924C28.1314 16.254 28.6081 15.845 29.1101 15.4679C29.5043 15.1965 29.916 14.951 30.3426 14.7332C30.7227 14.5418 31.1275 14.4034 31.5456 14.3218C31.9524 14.2491 32.3649 14.2123 32.7782 14.2116C33.2598 14.2157 33.7391 14.2782 34.2055 14.3977C34.609 14.5138 34.9812 14.718 35.2951 14.9953C35.6204 15.2909 35.8654 15.6632 36.0075 16.0777C36.1861 16.581 36.2754 17.1114 36.2713 17.645V18.3161C35.2951 18.3161 34.3181 18.3536 33.3402 18.4287C32.4284 18.507 31.5227 18.6436 30.6286 18.8377C29.8094 19.0158 29.0149 19.2912 28.2621 19.6581C27.5768 20.0035 26.9443 20.4438 26.3836 20.9658C25.8542 21.502 25.4354 22.136 25.151 22.8319C24.8526 23.645 24.6999 24.5036 24.6999 25.369C24.6928 26.1311 24.8196 26.8886 25.0746 27.6074C25.2991 28.2232 25.6734 28.7742 26.1642 29.2115C26.6563 29.665 27.2467 30.0002 27.8898 30.191C28.6322 30.4152 29.404 30.5282 30.1799 30.5265C30.6955 30.5278 31.2105 30.491 31.7206 30.4163C32.832 30.2574 33.9027 29.89 34.876 29.3339C35.4279 29.0159 35.9443 28.6407 36.4167 28.2147C36.5518 28.9107 36.9563 29.5262 37.5433 29.929C38.1907 30.3454 38.9518 30.5533 39.7225 30.5241C40.1505 30.5238 40.5777 30.4869 40.9994 30.4139C41.3741 30.338 41.7119 30.2645 42.089 30.1518C42.41 30.0505 42.723 29.9261 43.0258 29.7796C43.3265 29.6302 43.5903 29.4441 43.891 29.2898L43.398 27.2743C43.1789 27.3482 42.9525 27.3983 42.7226 27.4237L42.7472 27.4017ZM36.3231 26.0327C35.9701 26.2919 35.5929 26.5166 35.1965 26.7037C34.8489 26.8787 34.4837 27.0166 34.1069 27.1151C33.7636 27.214 33.4108 27.2764 33.0543 27.3013C32.7175 27.3318 32.3793 27.3441 32.0411 27.338C31.7092 27.3405 31.3781 27.3035 31.0551 27.2278C30.7558 27.1529 30.4829 26.9979 30.2662 26.7796C30.0237 26.5597 29.8522 26.2734 29.7732 25.9568C29.6527 25.5444 29.5897 25.1176 29.5858 24.6882C29.5724 24.1269 29.6739 23.5687 29.8841 23.0474C30.115 22.529 30.4778 22.0791 30.9367 21.7421C31.5616 21.3154 32.2627 21.0112 33.0025 20.8458C34.0864 20.5862 35.194 20.4361 36.3083 20.3977L36.3231 26.0327Z" fill="#E40034"/>
<path d="M81.8495 11.3926H77.3038V30.1246H81.8495V11.3926Z" fill="#E40034"/>
<path d="M118.883 12.1768C118.471 11.9907 118.057 11.8413 117.719 11.687C117.394 11.5413 117.055 11.4289 116.706 11.3515C116.329 11.2389 115.991 11.2021 115.617 11.1262C115.167 11.0792 114.715 11.0547 114.263 11.0527C113.199 11.0587 112.139 11.1961 111.108 11.4617C110.219 11.7197 109.384 12.1344 108.643 12.6862C107.954 13.2352 107.395 13.9273 107.004 14.7139C106.602 15.566 106.398 16.4964 106.404 17.4372C106.398 17.9886 106.449 18.5392 106.555 19.0804C106.63 19.5615 106.781 20.0277 107.004 20.4616C107.233 20.8803 107.496 21.2792 107.792 21.6542C108.147 22.0629 108.551 22.4265 108.995 22.7367C108.57 22.9052 108.158 23.1049 107.763 23.3342C107.402 23.5528 107.071 23.8161 106.777 24.1179C106.509 24.4131 106.282 24.7425 106.101 25.0975C105.951 25.4516 105.873 25.8322 105.874 26.2166C105.87 26.7215 105.987 27.2201 106.215 27.6713C106.449 28.0494 106.74 28.3897 107.077 28.6803C107.383 28.9384 107.724 29.1519 108.091 29.3146L108.993 29.7627C108.524 30.0047 108.073 30.2788 107.642 30.5831C107.201 30.8681 106.797 31.2062 106.439 31.5896C106.096 31.9874 105.805 32.4269 105.574 32.8974C105.345 33.426 105.242 34.0003 105.275 34.5749C105.269 35.118 105.425 35.6508 105.724 36.1055C106.089 36.6186 106.581 37.0301 107.151 37.3006C107.925 37.6726 108.748 37.9363 109.594 38.0843C110.76 38.2828 111.942 38.3697 113.124 38.3439C113.876 38.3439 114.628 38.3071 115.417 38.2337C116.2 38.1779 116.978 38.0649 117.744 37.8957C118.492 37.7463 119.222 37.5215 119.923 37.2247C120.59 36.9687 121.202 36.5889 121.725 36.1055C122.249 35.6517 122.669 35.0924 122.958 34.4647C123.289 33.751 123.458 32.9732 123.451 32.1872C123.457 31.6061 123.329 31.0314 123.076 30.5072C122.84 30.0464 122.521 29.6316 122.137 29.2827C121.711 28.9307 121.229 28.6526 120.71 28.4599C120.148 28.2351 119.571 28.0485 118.984 27.9015C118.379 27.7417 117.765 27.6166 117.145 27.5268C116.544 27.4534 115.866 27.304 115.267 27.2305C114.889 27.1913 114.515 27.1179 114.101 27.0419L112.824 26.8191C112.408 26.7406 111.997 26.6409 111.591 26.5203C111.216 26.4077 110.879 26.2975 110.504 26.1481C110.235 26.048 109.981 25.9094 109.752 25.7367C109.669 25.6901 109.599 25.6231 109.549 25.542C109.5 25.461 109.472 25.3686 109.469 25.2738C109.452 24.9449 109.538 24.6189 109.715 24.3407C109.897 24.0787 110.111 23.8409 110.354 23.633C110.898 23.8619 111.463 24.0366 112.042 24.1546C112.884 24.3115 113.741 24.3739 114.596 24.3407C115.383 24.3436 116.162 24.1913 116.889 23.8926C117.686 23.5967 118.433 23.1839 119.107 22.6681C119.787 22.1114 120.348 21.4264 120.759 20.6526C121.209 19.8155 121.429 18.8754 121.397 17.9269C121.436 17.1399 121.32 16.3529 121.055 15.6102C120.909 15.0809 120.658 14.5862 120.315 14.1556L123.584 14.6772L124.336 11.3172C123.468 11.324 122.602 11.387 121.743 11.5058C120.757 11.6919 119.827 11.9148 118.888 12.1768H118.883ZM109.451 32.6133C109.527 32.3341 109.631 32.0633 109.762 31.8052C109.877 31.5486 110.015 31.3028 110.174 31.0705C110.345 30.8335 110.547 30.6203 110.775 30.4362C111.377 30.5097 112.008 30.5856 112.73 30.6982C113.452 30.8109 114.231 30.9578 115.171 31.188C115.772 31.2982 116.297 31.4476 116.822 31.5603C117.273 31.6573 117.713 31.795 118.139 31.9717C118.454 32.0944 118.746 32.2709 119.001 32.4933C119.191 32.6813 119.298 32.9352 119.302 33.2011C119.308 33.6281 119.196 34.0487 118.979 34.4173C118.762 34.7859 118.447 35.0885 118.07 35.2925C117.506 35.5972 116.898 35.8113 116.268 35.9267C115.353 36.1129 114.419 36.1878 113.487 36.1496C112.978 36.1515 112.472 36.0764 111.986 35.9267C111.524 35.7684 111.082 35.5554 110.672 35.2925C110.306 35.0537 109.987 34.7498 109.732 34.3961C109.509 34.0829 109.391 33.7075 109.395 33.3235C109.38 33.0855 109.397 32.8467 109.446 32.6133H109.451ZM116.899 19.1441C116.859 19.6166 116.718 20.0751 116.484 20.4885C116.29 20.8735 115.991 21.1967 115.622 21.4216C115.151 21.6764 114.616 21.7927 114.081 21.7571C113.525 21.7569 112.975 21.6427 112.466 21.4216C112.039 21.1872 111.677 20.8505 111.414 20.442C111.123 20.0259 110.918 19.5563 110.812 19.0608C110.695 18.5206 110.632 17.9701 110.625 17.4176C110.625 16.1931 110.926 15.2551 111.49 14.6576C111.772 14.3446 112.12 14.0983 112.51 13.9368C112.9 13.7754 113.321 13.7028 113.743 13.7245C114.185 13.6899 114.63 13.7522 115.045 13.907C115.461 14.0619 115.837 14.3056 116.147 14.6209C116.711 15.216 116.973 16.1882 116.973 17.5302C117.004 18.0727 116.978 18.617 116.894 19.1539L116.899 19.1441Z" fill="#E40034"/>
<path d="M140.145 23.4055C139.983 22.9105 139.742 22.4449 139.43 22.0267C139.152 21.645 138.82 21.3052 138.444 21.0177C138.094 20.7473 137.719 20.5103 137.325 20.31C136.973 20.1237 136.609 19.9601 136.235 19.8202L135.333 19.4822C134.84 19.2961 134.347 19.1467 133.869 18.9606C133.39 18.7745 132.883 18.6251 132.404 18.439C132.104 18.3263 131.766 18.2137 131.465 18.1035C131.171 17.9913 130.893 17.8406 130.639 17.6553C130.411 17.4853 130.209 17.2841 130.038 17.0578C129.884 16.8118 129.805 16.5269 129.811 16.2374C129.807 15.9568 129.858 15.6781 129.961 15.417C130.081 15.1634 130.249 14.9348 130.454 14.7435C130.711 14.5312 131.003 14.3654 131.317 14.2537C131.733 14.1354 132.162 14.0728 132.594 14.0676C133.112 14.0597 133.629 14.1098 134.135 14.217C134.573 14.3276 135.001 14.4776 135.412 14.6651C135.798 14.8754 136.162 15.1214 136.501 15.3998C136.839 15.6962 137.177 15.9949 137.552 16.3794L139.617 13.1958C138.669 12.4202 137.57 11.8482 136.388 11.5158C135.102 11.1728 133.776 10.9975 132.444 10.9942C131.556 10.9924 130.672 11.1052 129.814 11.3297C129.007 11.5231 128.235 11.8377 127.523 12.2627C126.876 12.6743 126.315 13.2065 125.872 13.83C125.451 14.4872 125.241 15.2558 125.27 16.0341C125.26 16.6441 125.361 17.2508 125.571 17.8243C125.76 18.3229 126.026 18.7889 126.36 19.2055C126.665 19.6084 127.033 19.9606 127.449 20.2488C127.827 20.5285 128.229 20.7744 128.65 20.9834C129.027 21.1696 129.439 21.3581 129.814 21.5051C130.188 21.652 130.528 21.7671 130.8 21.8798C131.293 22.0659 131.739 22.252 132.227 22.4014C132.715 22.5508 133.166 22.7369 133.654 22.923C133.91 23.0138 134.158 23.1269 134.394 23.261C134.655 23.3882 134.896 23.5532 135.109 23.7508C135.322 23.9133 135.5 24.1165 135.634 24.3483C135.77 24.5855 135.835 24.8567 135.821 25.1295C135.838 25.4707 135.768 25.8107 135.617 26.1177C135.466 26.4247 135.239 26.6888 134.958 26.8854C134.671 27.0747 134.354 27.2131 134.019 27.2944C133.622 27.3695 133.22 27.4072 132.816 27.407C130.864 27.407 129.022 26.4275 127.297 24.5712L124.817 27.5564C125.817 28.6191 127.07 29.4149 128.46 29.8707C129.147 30.09 129.85 30.2538 130.563 30.3605C131.347 30.4651 132.138 30.515 132.929 30.5099C133.867 30.5171 134.801 30.411 135.713 30.194C136.558 29.9738 137.368 29.634 138.116 29.185C138.804 28.7638 139.383 28.1884 139.807 27.505C140.26 26.8204 140.483 26.0114 140.446 25.1932C140.452 24.5827 140.351 23.9758 140.145 23.4006" fill="#E40034"/>
<path d="M101.304 12.8463C100.663 12.2637 99.908 11.8192 99.0857 11.541C98.2042 11.2414 97.2786 11.0899 96.3469 11.0928C95.7671 11.1005 95.1893 11.1629 94.6213 11.2789C94.0915 11.3867 93.575 11.5509 93.0806 11.7687C92.6247 11.9568 92.1852 12.1821 91.7667 12.4422C91.4081 12.6573 91.0691 12.9031 90.7535 13.1769C90.745 13.0114 90.7194 12.8473 90.6771 12.6871C90.6401 12.501 90.6032 12.3148 90.5662 12.1655C90.5292 12.0161 90.4898 11.8299 90.4528 11.6757L90.3394 11.3402H86.0501C86.1685 11.9298 86.2312 12.5291 86.2374 13.1303C86.2374 13.7279 86.2769 14.176 86.2769 14.5483V30.0722H90.8201V15.6234C91.1578 15.4373 91.535 15.2879 91.8727 15.1336C92.2527 14.9865 92.6413 14.8622 93.0363 14.7613C93.4161 14.6464 93.8068 14.5709 94.2023 14.536C94.5507 14.492 94.9013 14.4675 95.2524 14.4626C95.7621 14.4605 96.2692 14.5356 96.7561 14.6854C97.1663 14.8419 97.5379 15.0841 97.8457 15.3956C98.1646 15.7622 98.3956 16.196 98.5212 16.6642C98.6699 17.2877 98.7452 17.9262 98.7455 18.567V30.1334H103.365V17.7344C103.37 16.7742 103.182 15.8226 102.813 14.9352C102.474 14.1365 101.961 13.4229 101.309 12.8463" fill="#E40034"/>
<path d="M16.9792 2.92188V13.3324H5.63467V2.92188H0.827652V15.9454V21.0956V30.1616H5.63467V20.498V17.1405H16.9792V17.6621V30.1616H21.7863V19.3788V17.3266V2.92188H16.9792Z" fill="#E40034"/>
<path d="M6.17935 39.5356C7.14377 39.5106 8.10332 39.6797 9.0002 40.0328C9.89709 40.3859 10.7127 40.9157 11.3981 41.5903C12.0644 42.2481 12.5932 43.0303 12.9541 43.8919C13.3149 44.7535 13.5007 45.6775 13.5007 46.6107C13.5007 47.5439 13.3149 48.4678 12.9541 49.3294C12.5932 50.191 12.0644 50.9732 11.3981 51.631C10.7144 52.3091 9.89948 52.8425 9.00252 53.1991C8.10556 53.5556 7.14517 53.7278 6.17935 53.7053H0.869446V39.5356H6.17935ZM3.94347 42.2711V50.9698H6.17935C6.74364 50.9779 7.30349 50.8697 7.82364 50.6523C8.34379 50.4348 8.81296 50.1126 9.20161 49.7061C9.60949 49.3026 9.93077 48.8211 10.146 48.2908C10.3613 47.7604 10.466 47.1922 10.4539 46.6205C10.4655 46.0505 10.3624 45.484 10.1508 44.9542C9.93913 44.4243 9.62314 43.9417 9.22134 43.5348C8.83146 43.1245 8.35927 42.8 7.83528 42.5824C7.3113 42.3647 6.74717 42.2587 6.17935 42.2711H3.94347Z" fill="#0D73BA"/>
<path d="M16.0399 39.5361H19.0942V53.7058H16.0399V39.5361Z" fill="#0D73BA"/>
<path d="M22.4495 39.5356H28.7602C29.4052 39.5152 30.0477 39.6239 30.6495 39.8553C31.2513 40.0867 31.8001 40.4361 32.2632 40.8826C32.7123 41.3076 33.0676 41.8208 33.3065 42.3895C33.5454 42.9582 33.6628 43.5701 33.6511 44.1862C33.6558 44.7275 33.5648 45.2655 33.3824 45.7756C33.238 46.205 33.0249 46.6085 32.7513 46.9707C32.5295 47.2531 32.2819 47.5146 32.0117 47.7519C31.8178 47.9281 31.6005 48.0773 31.3659 48.1951L31.1194 48.3347L34.149 53.7053H30.8876L28.1439 48.7388H25.4988V53.7053H22.4495V39.5356ZM30.047 42.8148C29.8654 42.6353 29.6489 42.4946 29.4107 42.4011C29.1725 42.3076 28.9176 42.2634 28.6616 42.2711H25.4988V46.0131H28.6518C28.9065 46.0211 29.1603 45.9784 29.3982 45.8875C29.6361 45.7967 29.8534 45.6595 30.0372 45.4841C30.2158 45.3184 30.3573 45.1172 30.4524 44.8936C30.5475 44.67 30.5942 44.4289 30.5894 44.1862C30.5973 43.9322 30.5523 43.6792 30.4573 43.4432C30.3623 43.2073 30.2193 42.9933 30.0372 42.8148H30.047Z" fill="#0D73BA"/>
<path d="M47.2831 50.9703V53.7058H36.5893V39.5361H47.076V42.2716H39.651V45.1051H45.4441V47.8283H39.651V50.9678L47.2831 50.9703Z" fill="#0D73BA"/>
<path d="M58.8789 39.5313C59.4647 39.6862 60.025 39.9237 60.5429 40.2366C60.9441 40.4898 61.3294 40.7671 61.6966 41.0668C61.9613 41.2746 62.2034 41.5093 62.4189 41.7672L62.6457 42.0636L60.7081 43.9909L60.5429 43.768C60.4003 43.5933 60.2445 43.4296 60.077 43.2782C59.836 43.0481 59.5707 42.8445 59.2857 42.6709C58.9328 42.4638 58.5563 42.2993 58.164 42.1811C57.7047 42.0329 57.2246 41.9577 56.7417 41.9583C55.4995 41.9583 54.3081 42.4485 53.4297 43.3211C52.5514 44.1937 52.0579 45.3772 52.0579 46.6113C52.0579 47.8453 52.5514 49.0288 53.4297 49.9014C54.3081 50.7741 55.4995 51.2643 56.7417 51.2643C57.2423 51.2652 57.7405 51.1943 58.2207 51.0537C58.634 50.9372 59.0301 50.7676 59.3991 50.5492C59.687 50.3726 59.9621 50.1762 60.2224 49.9614C60.4149 49.8119 60.5887 49.6401 60.7401 49.4496L60.9003 49.2414L62.7393 51.1663C62.6851 51.2447 62.6038 51.35 62.4928 51.4773C62.2636 51.7178 62.0208 51.9451 61.7656 52.1581C61.3944 52.4826 60.9923 52.7705 60.5651 53.0177C60.0331 53.3073 59.4689 53.5342 58.8839 53.6936C58.1854 53.8994 57.4603 54.0025 56.7318 53.9998C55.7153 54.0233 54.7043 53.8436 53.7591 53.4713C52.8139 53.0989 51.9537 52.5416 51.2296 51.8324C50.5212 51.1581 49.9575 50.3483 49.5724 49.4519C49.1873 48.5554 48.9888 47.5908 48.9888 46.6162C48.9888 45.6415 49.1873 44.6769 49.5724 43.7804C49.9575 42.884 50.5212 42.0742 51.2296 41.3999C51.9543 40.6918 52.8147 40.1356 53.7599 39.7641C54.705 39.3926 55.7157 39.2136 56.7318 39.2375C57.4579 39.2341 58.1808 39.333 58.8789 39.5313Z" fill="#0D73BA"/>
<path d="M74.6488 39.5361V42.2716H70.5837V53.7058H67.5319V42.2716H63.457V39.5361H74.6488Z" fill="#0D73BA"/>
</g>
<defs>
<clipPath id="clip0">
<rect width="139.756" height="54.1463" fill="white" transform="translate(0.756104 0.0732422)"/>
</clipPath>
</defs>
</svg>
