<svg width="141" height="55" viewBox="0 0 141 55" fill="none" xmlns="http://www.w3.org/2000/svg">
<g clip-path="url(#clip0)">
<path d="M40.6258 0.379261C41.7245 1.39927 43.1211 2.05897 44.6212 2.26656C46.1213 2.47414 47.6503 2.21929 48.9953 1.53746C58.2699 -2.8331 62.4044 3.95219 63.2871 5.51466C63.2871 5.51466 58.214 1.71228 53.2303 4.06145C50.0792 5.53652 42.5478 7.99495 40.637 0.379261H40.6258ZM43.3076 16.7361C43.0572 16.7837 42.8029 16.8093 42.5478 16.8125C42.3975 16.8176 42.2481 16.7876 42.112 16.7251C41.9933 16.6682 41.8956 16.5765 41.8326 16.4629C41.7333 16.3095 41.6651 16.1389 41.6315 15.9603C41.587 15.693 41.5646 15.4226 41.5644 15.1517V9.45909H44.0675L44.3245 7.54697H41.5309V4.6624H39.5084L38.782 7.54697L37.1059 8.09329V9.45909H38.782V15.4358C38.7805 15.9201 38.8292 16.4034 38.9273 16.8781C39.0105 17.2741 39.1822 17.6472 39.4301 17.9707C39.6877 18.2787 40.0227 18.5159 40.4023 18.6591C40.9033 18.8363 41.4343 18.9179 41.9667 18.8995C42.4554 18.9046 42.9407 18.8193 43.397 18.6482C43.9347 18.4391 44.4389 18.1558 44.8944 17.8068L44.2574 16.4629C43.9499 16.5819 43.632 16.6733 43.3076 16.7361ZM35.832 13.8406C35.6611 13.6169 35.4621 13.415 35.2398 13.2396C35.0278 13.0777 34.8037 12.9316 34.5694 12.8026C34.3586 12.6967 34.1423 12.6019 33.9213 12.5185L33.3737 12.3327L32.4798 12.0159L31.597 11.7208L31.0383 11.5132C30.8656 11.4471 30.7008 11.3628 30.5466 11.2619C30.4113 11.1623 30.2909 11.0446 30.1891 10.9123C30.1009 10.7668 30.0546 10.6007 30.055 10.4315C30.0486 10.2516 30.083 10.0725 30.1555 9.90707C30.2195 9.7526 30.3235 9.61705 30.4572 9.51372C30.6048 9.38523 30.7807 9.29176 30.9713 9.24056C31.2173 9.16613 31.4736 9.12928 31.7311 9.1313C32.0467 9.13159 32.3613 9.16455 32.6697 9.22963C32.9347 9.28611 33.1903 9.37803 33.4296 9.50279C33.6644 9.62549 33.8854 9.77198 34.0889 9.93985C34.3117 10.1176 34.5243 10.3073 34.7258 10.508L35.9773 8.62868C35.3907 8.20035 34.7218 7.89193 34.0106 7.72179C33.232 7.51154 32.4271 7.40856 31.6194 7.41585C31.0841 7.41596 30.551 7.48204 30.0326 7.61253C29.5383 7.72569 29.0664 7.91765 28.6358 8.1807C28.2442 8.41456 27.9119 8.73208 27.6637 9.10944C27.4233 9.4859 27.2991 9.92221 27.3061 10.366C27.2997 10.7376 27.3602 11.1075 27.4849 11.4586C27.6057 11.7499 27.7633 12.0252 27.9542 12.2781C28.1485 12.51 28.3698 12.719 28.6135 12.9009C28.8404 13.0694 29.0837 13.2158 29.3398 13.338C29.5671 13.4691 29.8065 13.5789 30.055 13.6657L30.636 13.8733C30.9154 13.9935 31.2059 14.0919 31.4964 14.1902L32.3569 14.5071C32.5144 14.5614 32.6675 14.6271 32.815 14.7038C32.9656 14.7806 33.1078 14.8721 33.2396 14.9769C33.3635 15.0765 33.466 15.199 33.5413 15.3375C33.6209 15.4819 33.6631 15.6432 33.6642 15.8073C33.6711 16.0202 33.621 16.2311 33.519 16.4192C33.426 16.5902 33.2917 16.7365 33.1279 16.8453C32.9543 16.9584 32.7612 17.0398 32.558 17.0857C32.3158 17.1378 32.0685 17.1634 31.8205 17.1622C31.1692 17.136 30.5317 16.9708 29.9526 16.6782C29.3736 16.3857 28.8669 15.9728 28.4682 15.4686L26.9709 17.2387C27.2806 17.5567 27.6297 17.8356 28.0101 18.0691C28.358 18.2929 28.7334 18.4728 29.1275 18.6045C29.5449 18.7392 29.9756 18.8308 30.4125 18.8776C30.8871 18.9343 31.3647 18.9635 31.8428 18.965C32.4126 18.9637 32.9797 18.8902 33.5302 18.7465C34.0401 18.622 34.5266 18.4191 34.9716 18.1456C35.3846 17.8963 35.7358 17.5604 35.9997 17.1622C36.2656 16.7549 36.4018 16.2795 36.3908 15.7964C36.4005 15.4254 36.3438 15.0556 36.2231 14.7038C36.1293 14.4093 35.9858 14.1324 35.7985 13.8843L35.832 13.8406ZM25.7976 17.042H25.4847C25.3461 17.0617 25.2048 17.0505 25.0713 17.0092C24.9683 16.9743 24.8786 16.9095 24.8143 16.8235C24.7382 16.7038 24.6887 16.5697 24.669 16.4301C24.6465 16.2304 24.6465 16.0289 24.669 15.8292V10.8577C24.6802 10.3089 24.5454 9.76676 24.2779 9.28427C24.0188 8.84558 23.6593 8.47158 23.2275 8.19163C22.7618 7.90671 22.2526 7.69645 21.719 7.56882C20.274 7.2259 18.7574 7.30955 17.361 7.8092C16.5785 8.08812 15.8579 8.51093 15.2379 9.05481L16.6794 10.6719C16.9494 10.3994 17.2368 10.144 17.5398 9.90707C17.778 9.73131 18.0323 9.57768 18.2997 9.44816C18.5307 9.33891 18.7746 9.25816 19.026 9.20778C19.274 9.17318 19.5241 9.15493 19.7747 9.15315C20.0701 9.14324 20.3651 9.18392 20.6463 9.27334C20.8932 9.33822 21.1198 9.46213 21.3055 9.63391C21.5059 9.80571 21.6595 10.0235 21.7525 10.2676C21.8649 10.5684 21.918 10.8872 21.909 11.2073V11.6116C21.3055 11.6116 20.7245 11.6116 20.1546 11.6881C19.6018 11.7291 19.0528 11.8094 18.512 11.9285C18.0193 12.0393 17.5399 12.2004 17.0817 12.4092C16.6706 12.6054 16.2935 12.8635 15.9643 13.1741C15.6461 13.4885 15.392 13.8593 15.2156 14.2667C15.0284 14.7482 14.9336 15.2594 14.9362 15.7745C14.9296 16.2292 15.0092 16.6812 15.1709 17.1076C15.3117 17.4763 15.5417 17.8062 15.8413 18.0691C16.1433 18.33 16.4971 18.5271 16.8806 18.6482C17.3266 18.7783 17.7895 18.8446 18.255 18.8449C18.5687 18.8437 18.882 18.8254 19.1936 18.7902C19.5198 18.7446 19.8413 18.6715 20.1546 18.5717C20.4859 18.4634 20.8043 18.3205 21.1044 18.1456C21.4384 17.9584 21.7495 17.7348 22.0319 17.4791C22.1114 17.8902 22.352 18.2548 22.7023 18.4952C23.0996 18.7398 23.563 18.8616 24.0321 18.8449C24.2939 18.8484 24.5556 18.8302 24.8143 18.7902C25.0266 18.7902 25.25 18.6919 25.4624 18.6263C25.6548 18.5651 25.8417 18.4884 26.0211 18.3969C26.1995 18.3109 26.3713 18.2123 26.5351 18.1019L26.2557 16.9218L25.8088 16.9874L25.7976 17.042ZM21.909 16.1679C21.6988 16.3196 21.4743 16.4513 21.2385 16.5612C21.0263 16.6686 20.801 16.7494 20.568 16.8016C20.3604 16.8626 20.147 16.9029 19.9311 16.9218C19.7301 16.9327 19.5287 16.9327 19.3277 16.9218C19.1239 16.9248 18.9206 16.899 18.7243 16.8453C18.546 16.7963 18.384 16.7021 18.255 16.5722C18.1131 16.4405 18.0091 16.2747 17.9533 16.0914C17.8771 15.8471 17.8394 15.5929 17.8415 15.3375C17.8391 15.0018 17.8997 14.6684 18.0203 14.3541C18.1615 14.0496 18.3809 13.7861 18.6573 13.5893C19.0386 13.3371 19.4622 13.1522 19.9088 13.0429C20.5643 12.8888 21.2349 12.8046 21.909 12.7916V16.1679Z" fill="#E40034"/>
<path d="M46.6482 7.54688H49.3859V18.6809H46.6482V7.54688Z" fill="#E40034"/>
<path d="M71.7345 8.01666C71.4775 7.9074 71.2428 7.80906 71.0417 7.7435C70.8391 7.65805 70.6299 7.58862 70.4159 7.5359C70.2034 7.47964 69.9867 7.43945 69.7678 7.41571H68.9521C68.31 7.41171 67.6705 7.49631 67.0525 7.66702C66.5099 7.81997 66.0018 8.07208 65.5551 8.41001C65.1419 8.72882 64.8093 9.13633 64.583 9.60099C64.3262 10.1097 64.2033 10.673 64.2254 11.2399C64.2177 11.5622 64.2439 11.8844 64.3036 12.2015C64.3612 12.485 64.455 12.7603 64.583 13.0209C64.7168 13.2662 64.882 13.4939 65.0747 13.6984C65.2894 13.9411 65.5332 14.1575 65.801 14.343C65.5422 14.4397 65.2918 14.5566 65.0523 14.6927C64.8405 14.8311 64.6422 14.9884 64.4601 15.1625C64.2938 15.3281 64.1577 15.5202 64.0578 15.7307C63.9591 15.9391 63.9131 16.1677 63.9237 16.3972C63.9114 16.7008 63.9808 17.0021 64.1248 17.2713C64.2648 17.4922 64.4381 17.6911 64.6389 17.8613C64.8347 18.0077 65.0442 18.1357 65.2646 18.2438C65.4482 18.3256 65.6272 18.4167 65.801 18.5169C65.5188 18.6639 65.2463 18.8281 64.9853 19.0086C64.7161 19.1754 64.4717 19.3776 64.2589 19.6096C64.0467 19.844 63.8733 20.1094 63.7449 20.3963C63.6102 20.7108 63.5454 21.0497 63.555 21.3906C63.5444 21.718 63.6424 22.0399 63.8343 22.3084C64.0479 22.6147 64.341 22.8598 64.6836 23.0186C65.149 23.245 65.646 23.4033 66.1586 23.4884C66.8594 23.6081 67.5703 23.663 68.2817 23.6523C68.7286 23.6523 69.1868 23.6523 69.6784 23.5977C70.1565 23.5668 70.6312 23.4974 71.0976 23.3901C71.5494 23.3023 71.9911 23.1705 72.4161 22.9967C72.8263 22.8415 73.2047 22.6158 73.5335 22.3302C73.8497 22.065 74.1049 21.7373 74.2822 21.3687C74.4751 20.9424 74.5704 20.48 74.5616 20.0138C74.5725 19.6892 74.5066 19.3664 74.369 19.0707C74.2314 18.7751 74.0258 18.5145 73.7682 18.3093C73.5161 18.1047 73.2335 17.9389 72.9301 17.8176C72.5938 17.6772 72.2462 17.5639 71.8909 17.4789C71.5222 17.3915 71.1534 17.315 70.7735 17.2604L69.6561 17.0746L68.9409 16.9544L68.1699 16.8124L67.4101 16.6267C67.1874 16.5792 66.9702 16.5096 66.762 16.4191C66.6017 16.358 66.4482 16.2811 66.3038 16.1896C66.2543 16.1609 66.2123 16.1212 66.1812 16.0738C66.1502 16.0263 66.1309 15.9725 66.125 15.9164C66.1224 15.7219 66.1809 15.5312 66.2926 15.3701C66.398 15.2112 66.5259 15.0677 66.6726 14.944C67.0023 15.0837 67.3472 15.1863 67.7006 15.2499C68.21 15.3342 68.726 15.3744 69.2426 15.3701C69.7211 15.3606 70.194 15.2681 70.6394 15.097C71.1081 14.8957 71.5387 14.6186 71.9133 14.2775C72.3123 13.9407 72.6423 13.5329 72.8854 13.0756C73.1437 12.5783 73.2741 12.027 73.2654 11.4694C73.2915 11.0167 73.2425 10.5628 73.1201 10.1255C73.0198 9.80719 72.8648 9.50792 72.6619 9.24042L74.6174 9.54636L75.0756 7.54683C74.556 7.55021 74.0371 7.58671 73.5224 7.65609C72.9345 7.72152 72.3545 7.84227 71.7904 8.01666H71.7345ZM66.2033 20.1231C66.2633 19.798 66.3927 19.489 66.5832 19.2162C66.6864 19.0714 66.815 18.9457 66.9631 18.8447C67.3207 18.8447 67.7118 18.9321 68.1476 18.9977C68.5834 19.0632 69.0639 19.1507 69.6226 19.2708C69.9801 19.3473 70.3154 19.4129 70.6059 19.4894C70.8788 19.545 71.1448 19.6293 71.3993 19.7407C71.5958 19.8077 71.7751 19.9158 71.9245 20.0575C71.9837 20.1102 72.0311 20.1743 72.0638 20.2457C72.0965 20.3172 72.1137 20.3945 72.1144 20.4727C72.115 20.7269 72.0458 20.9765 71.9141 21.1956C71.7825 21.4147 71.5931 21.5952 71.3657 21.7183C71.0187 21.908 70.6406 22.0374 70.2483 22.1008C69.6958 22.2023 69.1343 22.2498 68.5722 22.2428C68.2602 22.2418 67.9506 22.1901 67.6559 22.0898C67.378 22.004 67.1145 21.8789 66.8737 21.7183C66.6558 21.5701 66.4666 21.3851 66.315 21.172C66.1828 20.9937 66.1087 20.7804 66.1027 20.5602C66.1078 20.4124 66.1303 20.2658 66.1697 20.1231H66.2033ZM70.6729 12.1578C70.641 12.436 70.5577 12.7062 70.4271 12.9554C70.305 13.1858 70.1241 13.3815 69.9019 13.5236C69.6165 13.6696 69.2961 13.7376 68.9745 13.7202C68.6376 13.7337 68.3028 13.6622 68.0023 13.5126C67.747 13.3704 67.529 13.1721 67.3654 12.9335C67.1457 12.6861 66.9752 12.4008 66.8625 12.0922C66.7954 11.7722 66.7617 11.4464 66.762 11.1198C66.7128 10.5241 66.901 9.93301 67.2871 9.46987C67.4623 9.29155 67.6748 9.15236 67.9101 9.06184C68.1454 8.97131 68.3979 8.9316 68.6504 8.94541C68.9199 8.93152 69.1893 8.97296 69.4415 9.06705C69.6936 9.16114 69.9227 9.3058 70.1142 9.49173C70.4903 9.99236 70.6652 10.6106 70.6059 11.229C70.6096 11.5395 70.5909 11.8498 70.55 12.1578H70.6729ZM84.5737 14.6708C84.4776 14.3773 84.3343 14.1007 84.1491 13.8514C83.9811 13.6252 83.7818 13.4229 83.5568 13.2504C83.3448 13.0885 83.1207 12.9424 82.8864 12.8133C82.6778 12.7031 82.4612 12.6082 82.2383 12.5293L81.6907 12.3217L80.808 12.0048L79.914 11.7098L79.3553 11.5022C79.1826 11.436 79.0178 11.3517 78.8636 11.2509C78.7257 11.1542 78.6049 11.0361 78.5061 10.9012C78.4179 10.7557 78.3716 10.5896 78.372 10.4205C78.3697 10.2454 78.3999 10.0714 78.4614 9.90693C78.5179 9.77189 78.6015 9.64929 78.7072 9.54636C78.8658 9.42778 79.0432 9.33549 79.2324 9.2732C79.4801 9.20762 79.7356 9.17455 79.9922 9.17486C80.3072 9.17636 80.6213 9.20562 80.9309 9.26227C81.1943 9.32358 81.4494 9.41528 81.6907 9.53543C81.9258 9.66191 82.1468 9.81206 82.35 9.98341C82.5511 10.1473 82.7635 10.3331 82.9869 10.5516L84.2943 8.67225C83.7094 8.22493 83.0359 7.90123 82.3165 7.72165C81.5429 7.5053 80.7408 7.4022 79.9364 7.41571C79.4011 7.41511 78.8679 7.4812 78.3496 7.61239C77.8558 7.71602 77.3835 7.90074 76.9529 8.15871C76.5599 8.39928 76.2245 8.71976 75.9695 9.09838C75.7164 9.48191 75.5878 9.93138 75.6008 10.3877C75.5826 10.7601 75.6434 11.1321 75.7796 11.4803C75.889 11.7768 76.0475 12.0537 76.2489 12.2998C76.4379 12.5465 76.6639 12.7638 76.9193 12.9445C77.1479 13.1106 77.391 13.2568 77.6457 13.3815C77.8763 13.5062 78.1152 13.6157 78.3608 13.7093L78.9419 13.9169C79.2212 14.0371 79.5229 14.1354 79.8023 14.2338L80.6627 14.5506C80.8202 14.6049 80.9734 14.6707 81.1208 14.7473C81.273 14.8216 81.4155 14.9133 81.5455 15.0205C81.6727 15.1196 81.779 15.2421 81.8583 15.381C81.9399 15.5243 81.9786 15.6871 81.9701 15.8509C81.9752 16.0623 81.9293 16.272 81.836 16.4628C81.7363 16.6291 81.6033 16.7741 81.4449 16.8889C81.2663 17.0001 81.0699 17.0814 80.8638 17.1293C80.6217 17.1814 80.3743 17.207 80.1263 17.2058C79.4759 17.1759 78.8396 17.0092 78.2611 16.7169C77.6825 16.4246 77.1753 16.0137 76.7741 15.5122L75.3549 17.2058C75.6647 17.5238 76.0138 17.8027 76.3941 18.0362C76.7425 18.2593 77.1178 18.4391 77.5116 18.5716C77.9251 18.7064 78.3521 18.7979 78.7854 18.8447C79.26 18.9014 79.7376 18.9306 80.2157 18.9321C80.7818 18.9308 81.3452 18.8573 81.8919 18.7136C82.4061 18.5912 82.8966 18.3883 83.3445 18.1126C83.7559 17.8614 84.1067 17.5259 84.3725 17.1293C84.6332 16.7197 84.7688 16.2458 84.7636 15.7635C84.7734 15.3925 84.7167 15.0227 84.596 14.6708H84.5737ZM61.1413 8.41001C60.7637 8.06202 60.3141 7.79745 59.8228 7.63424C59.2915 7.45166 58.7321 7.35927 58.169 7.36108C57.8195 7.35955 57.4709 7.3962 57.1298 7.47034C56.8142 7.53557 56.5069 7.6345 56.2135 7.76536C55.938 7.87823 55.6726 8.01346 55.4201 8.16963C55.2071 8.30305 55.0054 8.45285 54.8167 8.61761C54.8263 8.52315 54.8263 8.42799 54.8167 8.33353C54.823 8.228 54.823 8.1222 54.8167 8.01666C54.8167 7.92925 54.8167 7.81999 54.7497 7.7435L54.6826 7.54683H51.9896C52.0628 7.90667 52.1002 8.27258 52.1014 8.63947V18.648H54.8391V10.0708C55.045 9.96611 55.2577 9.87486 55.476 9.79766C55.7106 9.71025 55.9453 9.64469 56.1688 9.57914C56.3923 9.51358 56.6381 9.46987 56.8728 9.43709C57.081 9.42084 57.2903 9.42084 57.4985 9.43709C57.8052 9.43622 58.1104 9.48042 58.4036 9.56821C58.6513 9.65367 58.8764 9.79175 59.0629 9.97249C59.244 10.1897 59.3738 10.4435 59.4428 10.7155C59.5438 11.0896 59.5889 11.476 59.5769 11.8628V18.648H62.3258V11.3055C62.3361 10.7395 62.2258 10.1776 62.0017 9.65562C61.7999 9.18459 61.4991 8.76024 61.119 8.41001H61.1413ZM10.2427 2.50977V8.70503H3.3929V2.50977H0.498779V18.6808H3.3929V10.9559H10.2427V18.6808H13.1368V2.50977H10.2427Z" fill="#E40034"/>
<path d="M91.5912 18.6486C90.5237 18.6487 89.457 18.594 88.3954 18.4847V7.79866C89.4152 7.68022 90.4413 7.62184 91.4683 7.62384C95.8598 7.62384 98.0164 10.0823 98.0164 13.0215C98.0164 15.9607 95.9715 18.6486 91.5912 18.6486ZM91.703 9.27372C91.2244 9.27384 90.7465 9.3067 90.2727 9.37206V16.9003C90.8016 16.9766 91.3361 17.0095 91.8706 16.9987C92.422 17.058 92.98 16.9964 93.5041 16.8183C94.0281 16.6402 94.5049 16.3502 94.8998 15.9692C95.2948 15.5883 95.5979 15.126 95.7872 14.6161C95.9764 14.1062 96.047 13.5614 95.9939 13.0215C95.9939 10.7816 94.5189 9.25187 91.703 9.25187V9.27372ZM99.7707 18.5502V7.72217H101.659V18.5721L99.7707 18.5502ZM109.783 18.5502L107.358 14.6495H105.648V18.583H103.749V7.80958C104.724 7.6915 105.705 7.63311 106.688 7.63476C109.828 7.63476 111.224 9.12075 111.224 11.0438C111.239 11.7215 111.038 12.387 110.65 12.9486C110.262 13.5102 109.705 13.9403 109.057 14.1797L111.962 18.5502H109.783ZM106.945 9.28465C106.518 9.27568 106.092 9.30494 105.671 9.37206V13.0761C106.043 13.105 106.416 13.105 106.788 13.0761C108.442 13.0761 109.28 12.3222 109.28 11.0766C109.28 9.83096 108.386 9.28465 106.945 9.28465ZM112.956 18.5502V7.72217H119.661V9.39391H114.789V12.2348H119.192V13.8519H114.789V16.8676H119.661V18.5502H112.956ZM126.857 18.725C126.086 18.7699 125.315 18.6597 124.589 18.4011C123.864 18.1426 123.201 17.7413 122.64 17.2221C122.08 16.7028 121.634 16.0766 121.331 15.3823C121.028 14.688 120.874 13.9402 120.879 13.1854C120.87 12.4264 121.021 11.6737 121.321 10.9738C121.622 10.274 122.066 9.64184 122.626 9.11649C123.187 8.59114 123.851 8.18375 124.579 7.9195C125.307 7.65524 126.082 7.53974 126.857 7.58013C128.116 7.58772 129.348 7.93154 130.422 8.57443L129.774 10.1369C128.874 9.63165 127.861 9.35025 126.824 9.31743C126.297 9.28638 125.769 9.36589 125.277 9.5506C124.784 9.73532 124.338 10.021 123.967 10.3884C123.597 10.7558 123.311 11.1964 123.129 11.6807C122.947 12.165 122.873 12.6818 122.913 13.1963C122.878 13.714 122.957 14.2329 123.144 14.7183C123.331 15.2037 123.623 15.6443 123.998 16.0106C124.374 16.377 124.825 16.6605 125.322 16.8422C125.819 17.0239 126.35 17.0996 126.879 17.0642C127.947 17.0317 128.989 16.7347 129.908 16.201L130.466 17.7526C129.378 18.3961 128.129 18.7326 126.857 18.725ZM136.724 9.39391V18.5502H134.824V9.39391H131.304V7.72217H140.244V9.39391H136.724Z" fill="#0069CC"/>
<path d="M6.66714 54.7036H3.77302L6.98002 47.7325L0.487793 34.1073H3.71715L8.41032 44.8698L13.0365 34.0746H16.1317L6.66714 54.7036ZM27.1942 49.448C26.1471 49.4682 25.1067 49.2787 24.1373 48.8911C23.1678 48.5036 22.2897 47.9261 21.557 47.1943C20.8243 46.4625 20.2525 45.5918 19.8768 44.6359C19.5011 43.6799 19.3294 42.6589 19.3722 41.6356C19.3294 40.6123 19.5011 39.5913 19.8768 38.6354C20.2525 37.6794 20.8243 36.8087 21.557 36.0769C22.2897 35.3451 23.1678 34.7677 24.1373 34.3801C25.1067 33.9925 26.1471 33.803 27.1942 33.8232C28.2422 33.7998 29.284 33.9871 30.255 34.3736C31.226 34.76 32.1054 35.3374 32.8388 36.0699C33.5721 36.8023 34.1438 37.6743 34.5184 38.6317C34.8929 39.5891 35.0624 40.6115 35.0162 41.6356C35.064 42.6601 34.8957 43.6832 34.5218 44.6413C34.1478 45.5995 33.5762 46.4721 32.8425 47.2049C32.1088 47.9377 31.2287 48.515 30.2569 48.9009C29.2852 49.2868 28.2427 49.473 27.1942 49.448ZM27.1942 36.1178C24.233 36.1178 22.244 38.3031 22.244 41.581C22.244 44.8589 24.233 47.1097 27.1942 47.1097C30.1554 47.1097 32.1109 44.9245 32.1109 41.581C32.1109 38.2375 30.1219 36.1178 27.1942 36.1178ZM51.5652 49.1639V47.0551C50.0589 48.4855 48.0746 49.3354 45.9781 49.448C42.38 49.448 40.6703 47.3392 40.6703 44.3235V34.1073H43.6203V43.5696C43.6203 45.9078 44.6484 47.0879 46.8497 47.0879C47.7303 47.0194 48.5883 46.7814 49.3746 46.3877C50.1608 45.9939 50.8597 45.4521 51.4311 44.7933V34.1073H54.3252V49.1639H51.5652Z" fill="#E40034"/>
<path d="M72.6401 49.1651V47.6245C71.9886 48.237 71.2172 48.7144 70.3723 49.0279C69.5274 49.3415 68.6264 49.4848 67.7234 49.4492C63.2537 49.4492 60.2143 46.3024 60.2143 41.8008C60.1625 39.7677 60.9281 37.7958 62.3467 36.3085C63.7653 34.8213 65.7238 33.9373 67.8016 33.8464C69.4992 33.7898 71.1623 34.3241 72.4948 35.3542V27.3015H75.3554V49.1542L72.6401 49.1651ZM72.4948 38.2388C71.9551 37.5905 71.2731 37.0692 70.4993 36.7136C69.7256 36.3581 68.88 36.1772 68.0251 36.1846C65.1198 36.1846 63.0637 38.4901 63.0637 41.7134C63.0637 44.7181 64.9745 47.0564 68.2039 47.0564C69.0255 47.0656 69.8386 46.8924 70.5819 46.5499C71.3251 46.2073 71.9792 45.7043 72.4948 45.0787V38.2388ZM85.8815 38.8834V49.1651H82.9874V34.1086H85.7474V36.6217C86.3776 35.7688 87.2029 35.0718 88.1574 34.5862C89.1119 34.1005 90.1693 33.8397 91.2452 33.8245V36.5889C90.2288 36.5259 89.2119 36.7012 88.2789 37.1004C87.3459 37.4995 86.524 38.1108 85.8815 38.8834ZM99.2571 30.6668C98.8871 30.6777 98.5222 30.58 98.2094 30.3865C97.8966 30.1929 97.6502 29.9123 97.5019 29.5807C97.3535 29.2491 97.3101 28.8817 97.377 28.5257C97.444 28.1697 97.6183 27.8415 97.8777 27.5832C98.137 27.3249 98.4694 27.1484 98.8321 27.0763C99.1949 27.0043 99.5714 27.04 99.9132 27.1789C100.255 27.3178 100.547 27.5536 100.75 27.8558C100.954 28.158 101.06 28.5129 101.056 28.8749C101.053 29.3436 100.864 29.7929 100.528 30.1274C100.192 30.462 99.7364 30.6554 99.2571 30.6668ZM97.7933 49.1651V34.1086H100.687V49.1651H97.7933ZM114.555 49.5585H114.074L106.554 34.1086H109.783L114.465 44.6525L119.125 34.1086H122.231L114.555 49.5585ZM140.166 42.5001H128.88C129.204 45.0787 130.668 47.0126 134.635 47.0126C136.085 46.9541 137.517 46.6777 138.881 46.1932L139.395 48.597C137.765 49.1019 136.074 49.3922 134.367 49.4602C128.779 49.4602 126.042 46.0511 126.042 41.7134C126.042 37.5941 128.757 33.8354 133.528 33.8354C137.886 33.8354 140.233 36.9822 140.233 41.0687C140.267 41.5468 140.244 42.027 140.166 42.5001ZM137.596 40.3148C137.417 37.9875 136.065 36.1518 133.35 36.1518C130.858 36.1518 129.316 37.7362 128.981 40.3148H137.596Z" fill="#0069CC"/>
</g>
<defs>
<clipPath id="clip0">
<rect width="139.756" height="54.6319" fill="white" transform="translate(0.487793 0.0732422)"/>
</clipPath>
</defs>
</svg>
