<svg xmlns="http://www.w3.org/2000/svg" width="40" height="40" fill="none" viewBox="0 0 40 40">
    <path fill="#fff" d="M24.768 22.438c-1.554 0-2.25.812-4.768.812-2.571 0-3.268-.813-4.821-.813-3.965 0-7.179 3.098-7.179 6.856v1.27C8 31.933 9.125 33 10.571 33H29.43C30.82 33 32 31.934 32 30.562v-1.269c0-3.758-3.268-6.855-7.232-6.855zm4.66 8.125H10.572v-1.27c0-2.438 2.036-4.418 4.608-4.418.803 0 2.035.813 4.821.813 2.732 0 3.964-.813 4.768-.813 2.571 0 4.66 1.98 4.66 4.418v1.27zM20 21.624c4.232 0 7.714-3.25 7.714-7.313C27.714 10.302 24.232 7 20 7c-4.286 0-7.714 3.3-7.714 7.313 0 4.062 3.428 7.312 7.714 7.312zm0-12.188c2.786 0 5.143 2.235 5.143 4.876 0 2.69-2.357 4.874-5.143 4.874-2.84 0-5.143-2.183-5.143-4.875 0-2.64 2.304-4.874 5.143-4.874z"/>
</svg>
