<?xml version="1.0" encoding="utf-8"?>
<!-- Generator: Adobe Illustrator 25.1.0, SVG Export Plug-In . SVG Version: 6.00 Build 0)  -->
<svg width="40" height="40" version="1.1" id="Layer_1" xmlns="http://www.w3.org/2000/svg" xmlns:xlink="http://www.w3.org/1999/xlink" x="0px" y="0px"
	 viewBox="0 0 40 40" style="enable-background:new 0 0 40 40;" xml:space="preserve">
<style type="text/css">
	.st0{fill-rule:evenodd;clip-rule:evenodd;fill:#FFFFFF;}
</style>
<path class="st0" d="M33.5,13.7h4.8c0.3,0,0.6,0.3,0.6,0.6v3.1c0,0.4-0.3,0.6-0.6,0.6H35c1,0.9,1.6,2.3,1.6,3.7v12
	c0,0.4-0.3,0.6-0.6,0.6h-4.8c-0.3,0-0.6-0.3-0.6-0.6v-3.1H9.2v3.1c0,0.4-0.3,0.6-0.6,0.6H3.8c-0.3,0-0.6-0.3-0.6-0.6v-12
	c0-1.5,0.6-2.8,1.6-3.7H1.4c-0.3,0-0.6-0.3-0.6-0.6v-3.1c0-0.4,0.3-0.6,0.6-0.6h4.8c0.3,0,0.6,0.3,0.6,0.6v2.6l2.7-7.4
	c0.6-1.6,2.1-2.7,3.7-2.7h13.2c1.7,0,3.2,1.1,3.8,2.8l2.7,7.2v-2.4C32.9,13.9,33.1,13.7,33.5,13.7z M13.2,8c-1.1,0-2.2,0.8-2.6,1.9
	l-2.5,6.9h23.5L29.1,10c-0.4-1.2-1.5-2-2.7-2C26.4,8,13.2,8,13.2,8z M5.6,14.9H2v1.8h3.6L5.6,14.9L5.6,14.9z M35.3,33.1V21.8
	c0-2-1.6-3.7-3.5-3.7H7.9c-1.9,0-3.5,1.7-3.5,3.7v11.3H8V30c0-0.4,0.3-0.6,0.6-0.6h22.6c0.3,0,0.6,0.3,0.6,0.6v3.1L35.3,33.1
	L35.3,33.1z M34.1,16.8h3.6v-1.8h-3.6V16.8z M6.8,23.1c0-1.4,1.1-2.5,2.4-2.5c1.3,0,2.4,1.1,2.4,2.5c0,1.4-1.1,2.5-2.4,2.5
	C7.8,25.6,6.8,24.5,6.8,23.1z M8,23.1c0,0.7,0.5,1.3,1.2,1.3c0.6,0,1.2-0.6,1.2-1.3c0-0.7-0.5-1.3-1.2-1.3C8.5,21.9,8,22.4,8,23.1z
	 M30.5,20.6c-1.3,0-2.4,1.1-2.4,2.5c0,1.4,1.1,2.5,2.4,2.5c1.3,0,2.4-1.1,2.4-2.5C32.9,21.7,31.8,20.6,30.5,20.6z M30.5,24.4
	c-0.6,0-1.2-0.6-1.2-1.3c0-0.7,0.5-1.3,1.2-1.3s1.2,0.6,1.2,1.3C31.7,23.8,31.1,24.4,30.5,24.4z M11.5,25.6h16.6
	c0.3,0,0.6,0.3,0.6,0.6c0,0.4-0.3,0.6-0.6,0.6H11.5c-0.3,0-0.6-0.3-0.6-0.6C10.9,25.9,11.2,25.6,11.5,25.6L11.5,25.6z"/>
</svg>
