<svg width="103" height="35" viewBox="0 0 103 35" fill="none" xmlns="http://www.w3.org/2000/svg">
<path d="M94.1835 0.00011086H8.15374C7.84015 0.00011086 7.53032 0.00011086 7.21756 0.0018164C6.95575 0.00352195 6.69603 0.00847655 6.4317 0.0126466C5.85747 0.019385 5.28459 0.0697621 4.71804 0.16334C4.15228 0.258955 3.60424 0.439217 3.09247 0.698028C2.58132 0.959029 2.11427 1.29817 1.70825 1.70316C1.30011 2.107 0.959892 2.57379 0.70068 3.08558C0.440753 3.59634 0.260518 4.14368 0.166202 4.70867C0.0709881 5.27296 0.019753 5.84375 0.0129558 6.41592C0.00501983 6.67738 0.00418176 6.93971 0 7.20121V26.9124C0.00418176 27.1772 0.00501983 27.4337 0.0129558 27.6986C0.019755 28.2707 0.0709902 28.8415 0.166202 29.4057C0.260258 29.9711 0.440503 30.5187 0.70068 31.0297C0.959775 31.5398 1.30004 32.0047 1.70825 32.4063C2.11273 32.8131 2.58008 33.1525 3.09247 33.4115C3.60424 33.671 4.15222 33.8523 4.71804 33.9494C5.28469 34.0422 5.85751 34.0926 6.4317 34.1002C6.69603 34.106 6.95575 34.1093 7.21756 34.1093C7.53031 34.111 7.84016 34.111 8.15374 34.111H94.1835C94.4909 34.111 94.8032 34.111 95.1105 34.1093C95.3711 34.1093 95.6383 34.106 95.8989 34.1002C96.472 34.093 97.0438 34.0426 97.6092 33.9494C98.1769 33.8516 98.7268 33.6703 99.2411 33.4115C99.753 33.1523 100.22 32.8129 100.624 32.4063C101.031 32.0031 101.372 31.5386 101.634 31.0297C101.893 30.5183 102.071 29.9707 102.164 29.4057C102.259 28.8414 102.312 28.2708 102.323 27.6986C102.326 27.4337 102.326 27.1772 102.326 26.9124C102.333 26.6026 102.333 26.2945 102.333 25.9796V8.13226C102.333 7.81996 102.333 7.51017 102.326 7.20121C102.326 6.93971 102.326 6.67738 102.323 6.41589C102.312 5.84367 102.259 5.273 102.164 4.70864C102.071 4.14397 101.892 3.59668 101.634 3.08554C101.107 2.05972 100.27 1.22471 99.2411 0.697951C98.7268 0.439772 98.1768 0.259559 97.6092 0.163263C97.0438 0.069273 96.472 0.0188785 95.8989 0.0125272C95.6383 0.00836569 95.3711 0.00336845 95.1105 0.00170554C94.8032 0 94.4909 0 94.1835 0V0.00011086Z" fill="#A6A6A6"/>
<path d="M7.22126 33.3646C6.96071 33.3646 6.70645 33.3613 6.44794 33.3555C5.91242 33.3485 5.37815 33.3021 4.84951 33.2164C4.35659 33.1318 3.87908 32.9743 3.43273 32.7492C2.99047 32.5259 2.5871 32.2332 2.23806 31.8823C1.88397 31.5354 1.58917 31.1331 1.36535 30.6914C1.13907 30.2467 0.982464 29.7701 0.900999 29.2781C0.813023 28.7495 0.765424 28.215 0.758613 27.6792C0.753192 27.4993 0.746094 26.9005 0.746094 26.9005V7.20102C0.746094 7.20102 0.753653 6.6114 0.758656 6.43818C0.765178 5.90322 0.812499 5.36953 0.900212 4.84173C0.981828 4.34842 1.13855 3.87044 1.36496 3.42434C1.58796 2.98287 1.88112 2.58029 2.23307 2.2322C2.58464 1.88081 2.9893 1.58659 3.43231 1.36027C3.87763 1.13589 4.35424 0.979525 4.84617 0.896412C5.37654 0.809912 5.91267 0.763146 6.45004 0.756506L7.22168 0.746094H95.1059L95.8867 0.756924C96.4192 0.763234 96.9505 0.809583 97.476 0.895576C97.9729 0.979732 98.4544 1.13719 98.9049 1.36277C99.7924 1.81887 100.515 2.54047 100.97 3.42642C101.193 3.86944 101.347 4.34352 101.428 4.83257C101.517 5.3647 101.566 5.90258 101.576 6.44193C101.579 6.68343 101.579 6.94285 101.579 7.20102C101.586 7.52081 101.586 7.82519 101.586 8.13206V25.9795C101.586 26.2893 101.586 26.5916 101.579 26.8964C101.579 27.1737 101.579 27.4277 101.576 27.6892C101.566 28.2189 101.517 28.7472 101.429 29.2698C101.35 29.7653 101.194 30.2456 100.968 30.6939C100.742 31.1309 100.449 31.5297 100.099 31.8756C99.7497 32.2285 99.3457 32.5229 98.9024 32.7476C98.4532 32.9744 97.9723 33.1325 97.476 33.2164C96.9474 33.3025 96.413 33.349 95.8775 33.3555C95.627 33.3613 95.3647 33.3646 95.1101 33.3646L94.1831 33.3663L7.22126 33.3646Z" fill="black"/>
<path d="M21.1815 17.3121C21.1907 16.6003 21.3803 15.9024 21.7326 15.2833C22.085 14.6643 22.5886 14.1441 23.1968 13.7713C22.8104 13.2211 22.3008 12.7684 21.7083 12.449C21.1158 12.1296 20.4568 11.9523 19.7836 11.9313C18.3476 11.781 16.9555 12.7882 16.2237 12.7882C15.4777 12.7882 14.3511 11.9462 13.1378 11.9711C12.353 11.9964 11.5882 12.224 10.9179 12.6316C10.2475 13.0393 9.69453 13.6132 9.31272 14.2974C7.65883 17.1528 8.89248 21.3493 10.4768 23.6575C11.2694 24.7877 12.1958 26.0502 13.408 26.0054C14.5941 25.9563 15.0371 25.2511 16.4689 25.2511C17.8875 25.2511 18.3031 26.0054 19.5398 25.9769C20.8127 25.9563 21.6146 24.8417 22.3794 23.7008C22.949 22.8955 23.3872 22.0054 23.6779 21.0636C22.9385 20.7517 22.3074 20.2296 21.8635 19.5625C21.4196 18.8954 21.1824 18.1127 21.1815 17.3121Z" fill="white"/>
<path d="M18.8467 10.4142C19.5407 9.58343 19.8826 8.5156 19.7998 7.4375C18.7395 7.54855 17.7601 8.05387 17.0567 8.85277C16.7128 9.24305 16.4495 9.6971 16.2816 10.189C16.1138 10.6808 16.0448 11.2008 16.0787 11.7193C16.609 11.7247 17.1337 11.6101 17.6131 11.384C18.0926 11.158 18.5143 10.8264 18.8467 10.4142Z" fill="white"/>
<path d="M36.1758 23.1435H32.128L31.1559 26.0057H29.4414L33.2755 15.416H35.0568L38.8908 26.0057H37.1471L36.1758 23.1435ZM32.5472 21.8227H35.7558L34.1741 17.1774H34.1298L32.5472 21.8227Z" fill="white"/>
<path d="M47.1721 22.1461C47.1721 24.5454 45.8843 26.0869 43.941 26.0869C43.4487 26.1125 42.9591 25.9995 42.5283 25.7606C42.0975 25.5217 41.7428 25.1666 41.5049 24.7361H41.4681V28.5602H39.8789V18.2853H41.4172V19.5695H41.4465C41.6953 19.141 42.0559 18.7878 42.49 18.5474C42.9241 18.3071 43.4155 18.1886 43.9117 18.2045C45.8767 18.2046 47.1721 19.7535 47.1721 22.1461ZM45.5386 22.1461C45.5386 20.583 44.7285 19.5553 43.4925 19.5553C42.2782 19.5553 41.4615 20.6046 41.4615 22.1461C41.4615 23.7018 42.2782 24.7436 43.4925 24.7436C44.7285 24.7436 45.5386 23.7234 45.5386 22.1461Z" fill="white"/>
<path d="M55.6916 22.1461C55.6916 24.5454 54.4038 26.0869 52.4605 26.0869C51.9682 26.1125 51.4786 25.9995 51.0478 25.7606C50.617 25.5217 50.2623 25.1666 50.0245 24.7361H49.9877V28.5602H48.3984V18.2853H49.9367V19.5695H49.966C50.2148 19.141 50.5754 18.7878 51.0095 18.5474C51.4436 18.3071 51.935 18.1886 52.4312 18.2045C54.3963 18.2045 55.6916 19.7535 55.6916 22.1461ZM54.0581 22.1461C54.0581 20.583 53.248 19.5553 52.012 19.5553C50.7978 19.5553 49.981 20.6046 49.981 22.1461C49.981 23.7018 50.7978 24.7436 52.012 24.7436C53.248 24.7436 54.0581 23.7234 54.0581 22.1461H54.0581Z" fill="white"/>
<path d="M61.3261 23.056C61.4438 24.1061 62.4669 24.7956 63.8648 24.7956C65.2044 24.7956 66.1681 24.1061 66.1681 23.1592C66.1681 22.3372 65.5869 21.8451 64.2106 21.5078L62.8343 21.1772C60.8843 20.7075 59.979 19.7981 59.979 18.3224C59.979 16.4952 61.5758 15.2402 63.8431 15.2402C66.0871 15.2402 67.6254 16.4952 67.6772 18.3224H66.0729C65.9768 17.2656 65.1008 16.6277 63.8206 16.6277C62.5403 16.6277 61.6643 17.2731 61.6643 18.2125C61.6643 18.9611 62.2238 19.4017 63.5926 19.7389L64.7626 20.0254C66.9414 20.5392 67.8467 21.412 67.8467 22.961C67.8467 24.9422 66.2641 26.183 63.7471 26.183C61.392 26.183 59.8019 24.9713 59.6992 23.0559L61.3261 23.056Z" fill="white"/>
<path d="M71.2772 16.457V18.2842H72.7495V19.5392H71.2772V23.7955C71.2772 24.4568 71.572 24.7649 72.2192 24.7649C72.394 24.7619 72.5685 24.7496 72.742 24.7282V25.9757C72.451 26.03 72.1552 26.0545 71.8593 26.049C70.2917 26.049 69.6804 25.4619 69.6804 23.9646V19.5392H68.5547V18.2842H69.6804V16.457H71.2772Z" fill="white"/>
<path d="M73.6016 22.1471C73.6016 19.7179 75.0363 18.1914 77.2736 18.1914C79.5184 18.1914 80.9465 19.7179 80.9465 22.1471C80.9465 24.583 79.5259 26.1029 77.2736 26.1029C75.0221 26.1029 73.6016 24.583 73.6016 22.1471ZM79.3272 22.1471C79.3272 20.4807 78.5614 19.4972 77.2736 19.4972C75.9858 19.4972 75.2209 20.4882 75.2209 22.1471C75.2209 23.8202 75.9858 24.7962 77.2736 24.7962C78.5614 24.7962 79.3271 23.8202 79.3271 22.1471H79.3272Z" fill="white"/>
<path d="M82.2539 18.2853H83.7697V19.5994H83.8064C83.909 19.189 84.1501 18.8262 84.4892 18.5722C84.8284 18.3182 85.2449 18.1883 85.6688 18.2045C85.8519 18.2038 86.0345 18.2237 86.2133 18.2636V19.746C85.982 19.6755 85.7409 19.6432 85.4992 19.6502C85.2683 19.6408 85.0382 19.6814 84.8245 19.7692C84.6108 19.8569 84.4187 19.9897 84.2614 20.1585C84.1041 20.3272 83.9852 20.5279 83.913 20.7468C83.8408 20.9657 83.817 21.1976 83.8431 21.4265V26.006H82.2539L82.2539 18.2853Z" fill="white"/>
<path d="M93.5427 23.7394C93.3289 25.141 91.9602 26.1029 90.2089 26.1029C87.9566 26.1029 86.5586 24.598 86.5586 22.1838C86.5586 19.762 87.9641 18.1914 90.1421 18.1914C92.2842 18.1914 93.6312 19.6588 93.6312 21.9997V22.5427H88.1629V22.6385C88.1376 22.9226 88.1733 23.2089 88.2675 23.4782C88.3617 23.7475 88.5124 23.9938 88.7093 24.2007C88.9063 24.4075 89.1452 24.5702 89.4101 24.6779C89.675 24.7856 89.9598 24.8359 90.2457 24.8254C90.6212 24.8605 90.9981 24.7737 91.3202 24.5781C91.6424 24.3824 91.8926 24.0883 92.0337 23.7394L93.5427 23.7394ZM88.1704 21.4351H92.0412C92.0554 21.1796 92.0166 20.9239 91.9271 20.6841C91.8376 20.4443 91.6993 20.2256 91.521 20.0416C91.3427 19.8576 91.1281 19.7123 90.8908 19.6149C90.6536 19.5175 90.3986 19.4701 90.1421 19.4756C89.8833 19.474 89.6268 19.5236 89.3873 19.6215C89.1478 19.7193 88.9301 19.8635 88.7468 20.0457C88.5635 20.2278 88.4182 20.4444 88.3192 20.6829C88.2203 20.9214 88.1697 21.177 88.1704 21.4351V21.4351Z" fill="white"/>
<path d="M32.347 7.44523C32.6802 7.42138 33.0145 7.47158 33.3259 7.59219C33.6373 7.7128 33.9179 7.90082 34.1476 8.14269C34.3773 8.38455 34.5503 8.67424 34.6541 8.99085C34.7579 9.30746 34.79 9.6431 34.748 9.97356C34.748 11.5992 33.8669 12.5336 32.347 12.5336H30.5039V7.44523H32.347ZM31.2964 11.814H32.2585C32.4966 11.8282 32.7348 11.7892 32.9559 11.7C33.177 11.6108 33.3754 11.4736 33.5366 11.2983C33.6978 11.123 33.8177 10.914 33.8877 10.6867C33.9577 10.4593 33.976 10.2192 33.9413 9.98393C33.9735 9.74956 33.9534 9.51098 33.8823 9.28528C33.8112 9.05958 33.6909 8.85236 33.5301 8.67845C33.3693 8.50454 33.1719 8.36826 32.952 8.27937C32.7322 8.19048 32.4954 8.15119 32.2585 8.16429H31.2964V11.814Z" fill="white"/>
<path d="M35.6414 10.6135C35.6172 10.3611 35.6461 10.1065 35.7264 9.86599C35.8066 9.62545 35.9364 9.40429 36.1074 9.21669C36.2784 9.0291 36.4868 8.87921 36.7193 8.77664C36.9518 8.67408 37.2032 8.62109 37.4574 8.62109C37.7116 8.62109 37.963 8.67408 38.1955 8.77664C38.428 8.87921 38.6364 9.0291 38.8074 9.21669C38.9783 9.40429 39.1081 9.62545 39.1884 9.86599C39.2686 10.1065 39.2976 10.3611 39.2734 10.6135C39.298 10.8661 39.2694 11.1211 39.1894 11.362C39.1093 11.6029 38.9796 11.8245 38.8086 12.0125C38.6376 12.2004 38.429 12.3506 38.1963 12.4534C37.9636 12.5562 37.7119 12.6093 37.4574 12.6093C37.2029 12.6093 36.9512 12.5562 36.7184 12.4534C36.4857 12.3506 36.2772 12.2004 36.1061 12.0125C35.9351 11.8245 35.8054 11.6029 35.7254 11.362C35.6453 11.1211 35.6167 10.8661 35.6414 10.6135ZM38.4917 10.6135C38.4917 9.78113 38.1167 9.29436 37.4586 9.29436C36.798 9.29436 36.4264 9.78113 36.4264 10.6135C36.4264 11.4525 36.7981 11.9355 37.4586 11.9355C38.1167 11.9355 38.4917 11.4492 38.4917 10.6135H38.4917Z" fill="white"/>
<path d="M44.1034 12.5333H43.315L42.5192 9.70519H42.459L41.6665 12.5333H40.8857L39.8242 8.69336H40.595L41.2849 11.6235H41.3416L42.1333 8.69336H42.8624L43.6541 11.6235H43.7142L44.4007 8.69336H45.1607L44.1034 12.5333Z" fill="white"/>
<path d="M46.0547 8.69509H46.7863V9.3051H46.843C46.9394 9.08601 47.1019 8.90235 47.3079 8.77971C47.5138 8.65708 47.7531 8.60159 47.9922 8.62097C48.1795 8.60692 48.3677 8.63509 48.5426 8.7034C48.7176 8.7717 48.8749 8.87838 49.0029 9.01555C49.1309 9.15271 49.2263 9.31684 49.2821 9.49576C49.3379 9.67469 49.3525 9.86384 49.325 10.0492V12.535H48.5651V10.2395C48.5651 9.6224 48.2962 9.31552 47.7341 9.31552C47.6069 9.30961 47.4799 9.3312 47.3619 9.37881C47.2438 9.42642 47.1375 9.49892 47.0501 9.59135C46.9628 9.68378 46.8965 9.79394 46.8559 9.9143C46.8152 10.0346 46.8012 10.1623 46.8146 10.2886V12.5351H46.0547L46.0547 8.69509Z" fill="white"/>
<path d="M50.5352 7.19531H51.2951V12.5343H50.5352V7.19531Z" fill="white"/>
<path d="M52.3523 10.6136C52.3281 10.3612 52.3571 10.1066 52.4374 9.86602C52.5176 9.62547 52.6474 9.4043 52.8184 9.21671C52.9894 9.02911 53.1979 8.87922 53.4304 8.77665C53.6629 8.67408 53.9143 8.62109 54.1685 8.62109C54.4227 8.62109 54.6742 8.67408 54.9067 8.77665C55.1392 8.87922 55.3476 9.02911 55.5186 9.21671C55.6896 9.4043 55.8194 9.62547 55.8996 9.86602C55.9799 10.1066 56.0089 10.3612 55.9847 10.6136C56.0093 10.8662 55.9807 11.1211 55.9006 11.3621C55.8206 11.603 55.6909 11.8246 55.5198 12.0125C55.3488 12.2005 55.1402 12.3507 54.9075 12.4535C54.6747 12.5562 54.423 12.6093 54.1685 12.6093C53.914 12.6093 53.6623 12.5562 53.4296 12.4535C53.1968 12.3507 52.9882 12.2005 52.8172 12.0125C52.6462 11.8246 52.5164 11.603 52.4364 11.3621C52.3563 11.1211 52.3277 10.8662 52.3523 10.6136ZM55.2026 10.6136C55.2026 9.7812 54.8276 9.29444 54.1696 9.29444C53.509 9.29444 53.1374 9.7812 53.1374 10.6136C53.1374 11.4526 53.509 11.9356 54.1696 11.9356C54.8276 11.9356 55.2026 11.4493 55.2026 10.6136H55.2026Z" fill="white"/>
<path d="M56.7812 11.4492C56.7812 10.758 57.2974 10.3595 58.2135 10.3029L59.2566 10.2429V9.91149C59.2566 9.50592 58.9877 9.27691 58.4682 9.27691C58.044 9.27691 57.75 9.43223 57.6657 9.70371H56.9299C57.0076 9.04415 57.6297 8.62109 58.5033 8.62109C59.4687 8.62109 60.0132 9.10035 60.0132 9.91149V12.5352H59.2816V11.9955H59.2215C59.0994 12.1891 58.9281 12.3469 58.7249 12.4528C58.5217 12.5588 58.2939 12.609 58.0648 12.5985C57.9032 12.6152 57.7398 12.598 57.5852 12.548C57.4306 12.4979 57.2883 12.4161 57.1674 12.3078C57.0464 12.1996 56.9496 12.0672 56.8831 11.9193C56.8166 11.7714 56.7819 11.6113 56.7812 11.4492ZM59.2566 11.1211V10.8001L58.3162 10.86C57.7859 10.8954 57.5454 11.0753 57.5454 11.4138C57.5454 11.7594 57.846 11.9606 58.2595 11.9606C58.3806 11.9728 58.5029 11.9606 58.6192 11.9247C58.7356 11.8888 58.8434 11.8299 58.9365 11.7516C59.0295 11.6733 59.1058 11.5771 59.1608 11.4688C59.2158 11.3605 59.2483 11.2422 59.2566 11.1211Z" fill="white"/>
<path d="M61.0156 10.6127C61.0156 9.39929 61.6411 8.63063 62.6141 8.63063C62.8547 8.61957 63.0936 8.67705 63.3027 8.79635C63.5118 8.91565 63.6825 9.09184 63.7949 9.30432H63.8517V7.19531H64.6117V12.5343H63.8834V11.9276H63.8233C63.7022 12.1387 63.5255 12.3127 63.3124 12.4308C63.0992 12.5488 62.8577 12.6065 62.6141 12.5976C61.6345 12.5976 61.0156 11.8289 61.0156 10.6127ZM61.8007 10.6127C61.8007 11.4271 62.1857 11.9172 62.8295 11.9172C63.4701 11.9172 63.8659 11.4201 63.8659 10.616C63.8659 9.81568 63.4659 9.31143 62.8295 9.31143C62.1898 9.31143 61.8006 9.80485 61.8006 10.6127H61.8007Z" fill="white"/>
<path d="M67.7547 10.6115C67.7305 10.3592 67.7594 10.1046 67.8397 9.86404C67.9199 9.6235 68.0497 9.40234 68.2207 9.21474C68.3917 9.02715 68.6001 8.87726 68.8326 8.77469C69.065 8.67212 69.3164 8.61914 69.5707 8.61914C69.8249 8.61914 70.0763 8.67212 70.3088 8.77469C70.5412 8.87726 70.7497 9.02715 70.9206 9.21474C71.0916 9.40234 71.2214 9.6235 71.3016 9.86404C71.3819 10.1046 71.4109 10.3592 71.3866 10.6115C71.4113 10.8641 71.3827 11.1191 71.3027 11.36C71.2226 11.601 71.0929 11.8225 70.9219 12.0105C70.7509 12.1985 70.5423 12.3487 70.3096 12.4515C70.0769 12.5542 69.8252 12.6073 69.5707 12.6073C69.3161 12.6073 69.0644 12.5542 68.8317 12.4515C68.599 12.3487 68.3904 12.1985 68.2194 12.0105C68.0484 11.8225 67.9187 11.601 67.8387 11.36C67.7586 11.1191 67.73 10.8641 67.7547 10.6115ZM70.605 10.6115C70.605 9.77917 70.23 9.29241 69.5719 9.29241C68.9113 9.29241 68.5397 9.77917 68.5397 10.6115C68.5397 11.4506 68.9114 11.9336 69.5719 11.9336C70.23 11.9336 70.605 11.4472 70.605 10.6115Z" fill="white"/>
<path d="M72.4062 8.69314H73.1378V9.30315H73.1946C73.2909 9.08406 73.4534 8.90039 73.6594 8.77776C73.8654 8.65513 74.1046 8.59963 74.3437 8.61901C74.5311 8.60497 74.7192 8.63314 74.8942 8.70144C75.0692 8.76975 75.2265 8.87643 75.3545 9.01359C75.4825 9.15076 75.5779 9.31488 75.6337 9.49381C75.6894 9.67274 75.7041 9.86189 75.6766 10.0472V12.5331H74.9166V10.2375C74.9166 9.62045 74.6477 9.31356 74.0857 9.31356C73.9585 9.30766 73.8315 9.32925 73.7134 9.37686C73.5954 9.42447 73.489 9.49697 73.4017 9.5894C73.3143 9.68183 73.2481 9.79199 73.2074 9.91234C73.1668 10.0327 73.1527 10.1604 73.1662 10.2867V12.5331H72.4062V8.69314Z" fill="white"/>
<path d="M79.9698 7.73828V8.71181H80.8041V9.35014H79.9698V11.3247C79.9698 11.7269 80.136 11.903 80.5143 11.903C80.6111 11.9027 80.7079 11.8969 80.8041 11.8856V12.5168C80.6676 12.5411 80.5293 12.5541 80.3907 12.5555C79.5455 12.5555 79.209 12.259 79.209 11.5187V9.35011H78.5977V8.71177H79.209V7.73828H79.9698Z" fill="white"/>
<path d="M81.8438 7.19531H82.597V9.31142H82.6572C82.7582 9.09028 82.9251 8.90558 83.1352 8.78248C83.3453 8.65939 83.5884 8.60389 83.8313 8.62354C84.0177 8.61343 84.204 8.64446 84.377 8.71442C84.55 8.78439 84.7054 8.89156 84.832 9.02829C84.9587 9.16502 85.0535 9.32794 85.1098 9.50544C85.1661 9.68293 85.1823 9.87061 85.1575 10.0551V12.5343H84.3968V10.2421C84.3968 9.62871 84.1103 9.31808 83.5733 9.31808C83.4427 9.30739 83.3113 9.3253 83.1884 9.37054C83.0654 9.41578 82.9539 9.48727 82.8615 9.58C82.7692 9.67273 82.6982 9.78446 82.6537 9.90737C82.6092 10.0303 82.5921 10.1614 82.6037 10.2916V12.5343H81.8438L81.8438 7.19531Z" fill="white"/>
<path d="M89.5888 11.4984C89.4856 11.8494 89.2619 12.1529 88.9568 12.356C88.6518 12.5591 88.2849 12.6488 87.9202 12.6094C87.6665 12.616 87.4144 12.5676 87.1814 12.4674C86.9484 12.3671 86.74 12.2175 86.5707 12.029C86.4015 11.8404 86.2754 11.6173 86.2013 11.3753C86.1272 11.1333 86.1067 10.878 86.1414 10.6273C86.1076 10.3759 86.1284 10.1201 86.2024 9.87733C86.2763 9.63457 86.4018 9.41049 86.5701 9.22026C86.7385 9.03003 86.9458 8.87809 87.1782 8.77473C87.4106 8.67137 87.6625 8.61899 87.9169 8.62116C88.9884 8.62116 89.6348 9.35113 89.6348 10.5569V10.8214H86.9156V10.8639C86.9037 11.0048 86.9214 11.1466 86.9677 11.2803C87.014 11.414 87.0878 11.5365 87.1844 11.6401C87.2809 11.7437 87.3981 11.826 87.5284 11.8817C87.6587 11.9375 87.7993 11.9655 87.9411 11.9639C88.1229 11.9857 88.3071 11.9531 88.4702 11.8702C88.6333 11.7873 88.7681 11.6579 88.8572 11.4984L89.5888 11.4984ZM86.9156 10.2609H88.8606C88.8701 10.132 88.8526 10.0026 88.809 9.88088C88.7654 9.75917 88.6968 9.6479 88.6075 9.55422C88.5183 9.46053 88.4103 9.38651 88.2907 9.3369C88.171 9.28729 88.0423 9.26319 87.9127 9.26615C87.7813 9.26451 87.6508 9.28911 87.5291 9.33853C87.4073 9.38794 87.2967 9.46116 87.2038 9.55387C87.1109 9.64658 87.0375 9.7569 86.988 9.87833C86.9385 9.99976 86.9139 10.1298 86.9156 10.2609H86.9156Z" fill="white"/>
</svg>
