<svg id="_-Rating-Category-Year-5-Colour-" data-name="-Rating-Category-Year-5-Colour-" xmlns="http://www.w3.org/2000/svg" width="600" height="380" viewBox="0 0 600 380">
  <defs>
    <style>
      .cls-1 {
        fill: #fff;
      }

      .cls-2 {
        fill-rule: evenodd;
      }

      .cls-3 {
        fill: #ee7203;
      }
    </style>
  </defs>
  <g>
    <rect class="cls-1" x="2.5" y="2.5" width="595" height="375" rx="16.5"/>
    <path d="M606.36,35a14,14,0,0,1,14,14V391a14,14,0,0,1-14,14h-562a14,14,0,0,1-14-14V49a14,14,0,0,1,14-14h562m0-5h-562a19,19,0,0,0-19,19V391a19,19,0,0,0,19,19h562a19,19,0,0,0,19-19V49a19,19,0,0,0-19-19Z" transform="translate(-25.36 -29.95)"/>
  </g>
  <rect y="126.05" width="600" height="70"/>
  <g>
    <path class="cls-2" d="M204.36,55h-6V80h-.18c-5.14-7.47-13.32-9.39-18.55-9.39C164,70.56,154,82.72,154,95.4c0,13.63,10.63,25,25.61,25,5.05,0,13.49-1.9,18.55-9.45h.18v8h6V55Zm-44.72,40.3c0-12.1,9.07-19.67,19.56-19.67,11,0,19.12,9.14,19.12,19.59a19.16,19.16,0,0,1-19.12,19.41c-11.71,0-19.56-8.71-19.56-19.33Z" transform="translate(-25.36 -29.95)"/>
    <path class="cls-2" d="M263,97a25.43,25.43,0,1,0-1.4,6h-6.46c-2.18,5.92-8.38,11-17.1,11.22-9.33,0-18.06-7.92-18.49-17.22Zm-43.47-5a18.82,18.82,0,0,1,37.29,0Z" transform="translate(-25.36 -29.95)"/>
    <path d="M275.36,119h6V77h13V72H282c0-4-.17-11.19,12.34-11.19V55.6C276.55,55.77,276,65.91,275.84,72h-7.48v5h7v42Z" transform="translate(-25.36 -29.95)"/>
    <path class="cls-2" d="M348.36,71h-6v9h-.17c-5.08-8-13.48-9.6-18.66-9.6-15.68,0-25.75,12.22-25.75,25,0,13.71,10.69,25.15,25.75,25.15,5,0,13.4-1.66,18.66-9.51h.17v8h6V71Zm-44.49,24.3c0-12.1,9.08-19.67,19.56-19.67,11,0,19.13,9.14,19.13,19.59a19.17,19.17,0,0,1-19.13,19.41c-11.7,0-19.56-8.71-19.56-19.33Z" transform="translate(-25.36 -29.95)"/>
    <path class="cls-2" d="M407.36,72h-6v8h-.18c-5.08-7.85-13.49-9.6-18.65-9.6-15.67,0-25.75,12.22-25.75,25,0,13.71,10.69,25.15,25.75,25.15,5,0,13.48-1.66,18.65-9.51h.18v25h6V72Zm-44.29,23.3c0-12.1,9.08-19.67,19.55-19.67,11,0,19.13,9.14,19.13,19.59a19.17,19.17,0,0,1-19.13,19.41c-11.69,0-19.55-8.71-19.55-19.33Z" transform="translate(-25.36 -29.95)"/>
    <polygon points="399 89 406 89 406 47 417 47 417 41 406 41 406 24 399 24 399 41 389 41 389 47 399 47 399 89 399 89"/>
    <path class="cls-2" d="M446.53,95.43A25,25,0,1,0,471.41,70.1a25.08,25.08,0,0,0-24.88,25.33Zm6.11-.1A19.27,19.27,0,0,1,471.5,75.58c8.2,0,18.86,6.7,18.86,19.24s-9.61,19.76-18.86,19.76a19.13,19.13,0,0,1-18.86-19.25Z" transform="translate(-25.36 -29.95)"/>
  </g>
  <g>
    <polygon class="cls-3" points="517.16 215.07 527.84 247.92 562.38 247.92 534.43 268.22 545.11 301.07 517.16 280.77 489.22 301.07 499.9 268.22 471.95 247.92 506.49 247.92 517.16 215.07"/>
    <polygon class="cls-3" points="191.87 215.07 202.54 247.92 237.08 247.92 209.14 268.22 219.81 301.07 191.87 280.77 163.92 301.07 174.6 268.22 146.66 247.92 181.19 247.92 191.87 215.07"/>
    <polygon class="cls-3" points="83.44 215.07 94.11 247.92 128.65 247.92 100.7 268.22 111.38 301.07 83.44 280.77 55.49 301.07 66.17 268.22 38.22 247.92 72.76 247.92 83.44 215.07"/>
    <polygon class="cls-3" points="300.3 215.07 310.97 247.92 345.51 247.92 317.57 268.22 328.24 301.07 300.3 280.77 272.36 301.07 283.03 268.22 255.09 247.92 289.63 247.92 300.3 215.07"/>
    <polygon class="cls-3" points="408.73 215.07 419.41 247.92 453.94 247.92 426 268.22 436.68 301.07 408.73 280.77 380.79 301.07 391.46 268.22 363.52 247.92 398.06 247.92 408.73 215.07"/>
  </g>
  <g>
    <path class="cls-1" d="M115.24,169.46h25.89v6.45H122.88v11h15.48v6.46H122.88v12.71h18.91v6.46H115.24Z" transform="translate(-25.36 -29.95)"/>
    <path class="cls-1" d="M158.91,190.34l-11.46-20.88H156l4.81,9.55c1,2,1.91,4,3.22,6.59h.27c1.05-2.57,2-4.61,2.9-6.59l4.54-9.55h8.1l-11.46,21.21,12.25,21.87h-8.49l-5.27-10.15c-1.12-2.24-2.18-4.41-3.43-7h-.26c-1.12,2.63-2.18,4.8-3.23,7l-5.07,10.15h-8.1Z" transform="translate(-25.36 -29.95)"/>
    <path class="cls-1" d="M187.69,169.46h14.5c9.41,0,16.33,3.29,16.33,13.3,0,9.56-7.11,14-16.33,14h-6.86v15.81h-7.64Zm13.84,21.14c6.45,0,9.48-2.57,9.48-7.84s-3.23-7.18-9.48-7.18h-6.2v15Z" transform="translate(-25.36 -29.95)"/>
    <path class="cls-1" d="M227.34,169.46h25.89v6.45H235v11h15.48v6.46H235v12.71h18.9v6.46H227.34Z" transform="translate(-25.36 -29.95)"/>
    <path class="cls-1" d="M286.89,212.54l-9.29-16.86h-6.52v16.86h-7.64V169.46h14.49c9,0,15.88,3.16,15.88,12.78,0,6.58-3.43,10.54-8.63,12.32l10.27,18Zm-15.81-22.92h6.06c5.93,0,9.09-2.51,9.09-7.38s-3.16-6.66-9.09-6.66h-6.06Z" transform="translate(-25.36 -29.95)"/>
    <path class="cls-1" d="M311,175.91H298.54v-6.45H331v6.45H318.64v36.63H311Z" transform="translate(-25.36 -29.95)"/>
    <path class="cls-1" d="M376.86,212.54l-9.29-16.86h-6.52v16.86h-7.64V169.46H367.9c9,0,15.88,3.16,15.88,12.78,0,6.58-3.43,10.54-8.63,12.32l10.27,18Zm-15.81-22.92h6.06c5.93,0,9.09-2.51,9.09-7.38s-3.16-6.66-9.09-6.66h-6.06Z" transform="translate(-25.36 -29.95)"/>
    <path class="cls-1" d="M414.21,200.88H399.78l-3.36,11.66h-7.84l14.1-43.08h9l14,43.08h-8.11Zm-1.72-6L411,189.62c-1.32-4.55-2.64-9.49-3.89-14.23h-.26c-1.19,4.81-2.44,9.68-3.82,14.23l-1.52,5.26Z" transform="translate(-25.36 -29.95)"/>
    <path class="cls-1" d="M437.78,175.91H425.33v-6.45h32.48v6.45H445.43v36.63h-7.65Z" transform="translate(-25.36 -29.95)"/>
    <path class="cls-1" d="M465.78,169.46h25.88v6.45H473.42v11H488.9v6.46H473.42v12.71h18.9v6.46H465.78Z" transform="translate(-25.36 -29.95)"/>
    <path class="cls-1" d="M501.87,169.46h11.46c13.18,0,21,7.11,21,21.34s-7.84,21.74-20.62,21.74H501.87Zm10.93,36.89c8.7,0,13.71-4.94,13.71-15.55s-5-15.15-13.71-15.15h-3.29v30.7Z" transform="translate(-25.36 -29.95)"/>
  </g>
  <g>
    <path d="M114.2,354.81h3.86l5,13.73,1.83,5.22H125l1.79-5.22,4.91-13.73h3.83v25.58h-3.08V366.31c0-2.26.27-5.3.42-7.56h-.15l-2,5.69-4.91,13.38h-1.88L119,364.44l-2-5.69h-.15c.15,2.26.39,5.3.39,7.56v14.08h-3Z" transform="translate(-25.36 -29.95)"/>
    <path d="M149,361c4.64,0,8.78,3.63,8.78,10s-4.14,9.9-8.78,9.9-8.77-3.63-8.77-9.9S144.39,361,149,361Zm0,17.24c3.28,0,5.46-2.93,5.46-7.25s-2.18-7.34-5.46-7.34-5.46,3-5.46,7.34S145.8,378.21,149,378.21Z" transform="translate(-25.36 -29.95)"/>
    <path d="M162.48,364.05h-2.8v-2.42l3-.19.39-5.3h2.69v5.3h5.11v2.61h-5.11v10.53c0,2.34.74,3.67,2.93,3.67a6.69,6.69,0,0,0,2.14-.51l.63,2.42a11.77,11.77,0,0,1-3.51.7c-4.06,0-5.43-2.57-5.43-6.32Z" transform="translate(-25.36 -29.95)"/>
    <path d="M181.54,361c4.64,0,8.78,3.63,8.78,10s-4.14,9.9-8.78,9.9-8.77-3.63-8.77-9.9S176.9,361,181.54,361Zm0,17.24c3.28,0,5.46-2.93,5.46-7.25s-2.18-7.34-5.46-7.34-5.46,3-5.46,7.34S178.31,378.21,181.54,378.21Z" transform="translate(-25.36 -29.95)"/>
    <path d="M194.77,361.44h2.65l.27,3.43h.12c1.29-2.38,3.24-3.9,5.38-3.9a4.75,4.75,0,0,1,2,.39l-.62,2.81a5.26,5.26,0,0,0-1.84-.31c-1.6,0-3.51,1.17-4.79,4.37v12.16h-3.2Z" transform="translate(-25.36 -29.95)"/>
    <path d="M216.37,354.81h3.28v22.81H230.8v2.77H216.37Z" transform="translate(-25.36 -29.95)"/>
    <path d="M241.36,361c4.84,0,7.57,3.47,7.57,8.89a11,11,0,0,1-.12,1.76H236c.23,4.09,2.69,6.67,6.32,6.67a8.59,8.59,0,0,0,4.71-1.48l1.14,2.1a11.25,11.25,0,0,1-6.24,1.95c-5.08,0-9.09-3.7-9.09-9.9S237,361,241.36,361Zm4.76,8.54c0-3.86-1.72-6-4.68-6-2.65,0-5.07,2.18-5.46,6Z" transform="translate(-25.36 -29.95)"/>
    <path d="M254.39,379.73v-.16a3.49,3.49,0,0,1-1.67-3.08,4.47,4.47,0,0,1,2.06-3.51v-.15a6.75,6.75,0,0,1-2.45-5.11c0-4.14,3.27-6.75,7.13-6.75a7.59,7.59,0,0,1,2.69.47h6.6v2.46h-3.9a5.51,5.51,0,0,1,1.56,3.9c0,4.05-3.09,6.59-7,6.59a6.71,6.71,0,0,1-2.84-.66,2.83,2.83,0,0,0-1.21,2.26c0,1.21.78,2.06,3.35,2.06h3.67c4.4,0,6.63,1.37,6.63,4.53,0,3.51-3.71,6.55-9.6,6.55-4.64,0-7.84-1.83-7.84-5.11C251.62,382.42,252.68,380.9,254.39,379.73Zm5.54,7.18c3.63,0,6-1.87,6-3.86,0-1.76-1.37-2.34-3.82-2.34h-3.28a9,9,0,0,1-2.46-.32,4,4,0,0,0-1.95,3.2C254.43,385.62,256.5,386.91,259.93,386.91Zm3.55-19.19c0-2.77-1.79-4.41-4-4.41s-4,1.64-4,4.41,1.83,4.52,4,4.52S263.48,370.49,263.48,367.72Z" transform="translate(-25.36 -29.95)"/>
    <path d="M283,368.38c0-2.42-.82-4.76-3.9-4.76a10.27,10.27,0,0,0-5.66,2l-1.28-2.22a14,14,0,0,1,7.45-2.46c4.64,0,6.59,3.08,6.59,7.8v11.62h-2.65l-.28-2.26h-.08a10.31,10.31,0,0,1-6.28,2.73c-3.19,0-5.57-2-5.57-5.38C271.31,371.35,274.9,369.28,283,368.38Zm-5.19,9.91c1.83,0,3.36-.9,5.19-2.54v-5.26c-6.36.78-8.5,2.34-8.5,4.76C274.47,377.39,275.91,378.29,277.78,378.29Z" transform="translate(-25.36 -29.95)"/>
    <path d="M291.51,352.63h3.19v24.18c0,1,.43,1.4.9,1.4a2.59,2.59,0,0,0,.7-.08l.43,2.42a4.37,4.37,0,0,1-1.83.31c-2.42,0-3.39-1.52-3.39-4.29Z" transform="translate(-25.36 -29.95)"/>
    <path d="M309.52,354.81h14.75v2.73H312.8v8h9.67v2.77H312.8v9.28h11.86v2.77H309.52Z" transform="translate(-25.36 -29.95)"/>
    <path d="M333.58,370.49l-5.74-9.05h3.48l2.53,4.17c.59,1,1.21,2.11,1.87,3.16h.16c.55-1,1.13-2.14,1.72-3.16l2.3-4.17h3.35l-5.73,9.4,6.16,9.55h-3.47l-2.77-4.4c-.66-1.13-1.37-2.3-2.07-3.4h-.15c-.67,1.1-1.29,2.23-1.91,3.4l-2.58,4.4h-3.35Z" transform="translate(-25.36 -29.95)"/>
    <path d="M350.2,382v6.4H347V361.44h2.65l.27,2.18h.12a9.8,9.8,0,0,1,6-2.65c4.88,0,7.49,3.78,7.49,9.67,0,6.44-3.86,10.22-8.19,10.22a8.8,8.8,0,0,1-5.26-2.18Zm4.64-3.82c3.12,0,5.43-2.85,5.43-7.53,0-4.17-1.41-7-5-7-1.6,0-3.19.9-5.07,2.58v9.94A7.55,7.55,0,0,0,354.84,378.17Z" transform="translate(-25.36 -29.95)"/>
    <path d="M375.46,361c4.84,0,7.57,3.47,7.57,8.89a11,11,0,0,1-.12,1.76H370.12c.23,4.09,2.69,6.67,6.32,6.67a8.59,8.59,0,0,0,4.71-1.48l1.14,2.1a11.25,11.25,0,0,1-6.24,1.95c-5.07,0-9.09-3.7-9.09-9.9S371.13,361,375.46,361Zm4.76,8.54c0-3.86-1.72-6-4.68-6-2.65,0-5.07,2.18-5.46,6Z" transform="translate(-25.36 -29.95)"/>
    <path d="M387.33,361.44H390l.27,2.73h.12c1.79-1.79,3.74-3.2,6.36-3.2,4,0,5.77,2.58,5.77,7.41v12h-3.2V368.81c0-3.55-1.09-5.07-3.59-5.07-1.95,0-3.27,1-5.19,2.93v13.72h-3.19Z" transform="translate(-25.36 -29.95)"/>
    <path d="M407.57,376.1a8.53,8.53,0,0,0,5.58,2.27c2.49,0,3.74-1.33,3.74-3,0-1.95-2.26-2.81-4.33-3.59-2.69-1-5.65-2.26-5.65-5.46,0-3,2.42-5.38,6.51-5.38a9.46,9.46,0,0,1,5.89,2.15l-1.52,2a7.06,7.06,0,0,0-4.33-1.67c-2.38,0-3.47,1.28-3.47,2.73,0,1.75,2.07,2.45,4.21,3.27,2.73,1,5.77,2.15,5.77,5.74,0,3.08-2.45,5.65-6.94,5.65a11.44,11.44,0,0,1-7.06-2.61Z" transform="translate(-25.36 -29.95)"/>
    <path d="M431.28,361c4.84,0,7.57,3.47,7.57,8.89a11,11,0,0,1-.12,1.76H425.94c.23,4.09,2.69,6.67,6.32,6.67a8.65,8.65,0,0,0,4.72-1.48l1.13,2.1a11.25,11.25,0,0,1-6.24,1.95c-5.07,0-9.09-3.7-9.09-9.9S427,361,431.28,361Zm4.76,8.54c0-3.86-1.71-6-4.68-6-2.65,0-5.07,2.18-5.46,6Z" transform="translate(-25.36 -29.95)"/>
    <path d="M442.81,376.1a8.53,8.53,0,0,0,5.58,2.27c2.49,0,3.74-1.33,3.74-3,0-1.95-2.26-2.81-4.33-3.59-2.69-1-5.65-2.26-5.65-5.46,0-3,2.42-5.38,6.51-5.38a9.46,9.46,0,0,1,5.89,2.15l-1.52,2a7.06,7.06,0,0,0-4.33-1.67c-2.38,0-3.47,1.28-3.47,2.73,0,1.75,2.07,2.45,4.21,3.27,2.73,1,5.77,2.15,5.77,5.74,0,3.08-2.45,5.65-6.94,5.65a11.44,11.44,0,0,1-7.06-2.61Z" transform="translate(-25.36 -29.95)"/>
    <path d="M465.9,378.48c7.49-7.45,11.7-11.93,11.7-16,0-2.85-1.56-4.87-4.72-4.87-2.07,0-3.86,1.32-5.3,3l-1.84-1.83c2.07-2.27,4.29-3.79,7.53-3.79,4.6,0,7.45,2.93,7.45,7.34,0,4.68-4.25,9.32-10.14,15.48,1.36-.12,2.88-.24,4.17-.24H482v2.77H465.9Z" transform="translate(-25.36 -29.95)"/>
    <path d="M484.44,367.87c0-8.34,3-12.83,8-12.83s7.95,4.49,7.95,12.83-3,13-7.95,13S484.44,376.22,484.44,367.87Zm12.83,0c0-7.29-1.95-10.25-4.83-10.25s-4.88,3-4.88,10.25,1.95,10.42,4.88,10.42S497.27,375.17,497.27,367.87Z" transform="translate(-25.36 -29.95)"/>
    <path d="M502.88,378.48c7.49-7.45,11.7-11.93,11.7-16,0-2.85-1.56-4.87-4.72-4.87-2.07,0-3.86,1.32-5.3,3l-1.84-1.83c2.07-2.27,4.29-3.79,7.53-3.79,4.6,0,7.45,2.93,7.45,7.34,0,4.68-4.25,9.32-10.14,15.48,1.36-.12,2.88-.24,4.17-.24H519v2.77H502.88Z" transform="translate(-25.36 -29.95)"/>
    <path d="M522.89,377.74h5.69V359.41h-4.52v-2.07a14.73,14.73,0,0,0,5.26-1.83h2.46v22.23h5.15v2.65h-14Z" transform="translate(-25.36 -29.95)"/>
  </g>
</svg>
