<svg width="75" height="16" viewBox="0 0 75 16" fill="none" xmlns="http://www.w3.org/2000/svg">
<path d="M63.1908 0.282836V2.52815H67.8832V15.8452H70.3076V2.52815H75V0.282836H63.1908ZM56.3086 0.0505632C53.9625 0.0505632 52.0073 0.824808 50.365 2.3733C48.8008 3.92179 48.0188 5.77997 48.0188 8.02528C48.0188 10.2706 48.8008 12.1288 50.365 13.6773C51.9291 15.2258 53.9625 16 56.3086 16C57.0907 16 57.8728 15.9226 58.5766 15.6903C59.3587 15.458 59.9062 15.2258 60.3754 14.9161C60.8446 14.6064 61.3139 14.2967 61.7049 13.987C62.0959 13.6773 62.4088 13.3676 62.487 13.2127C62.6434 13.0579 62.7216 12.9804 62.7216 12.903L61.1575 11.3545L61.001 11.5868C60.8446 11.7417 60.6882 11.9739 60.3754 12.2062C60.0626 12.4385 59.7497 12.6707 59.4369 12.903C59.0459 13.1353 58.5766 13.3676 58.0292 13.5224C57.4818 13.6773 56.8561 13.7547 56.3086 13.7547C54.6663 13.7547 53.2586 13.2127 52.1637 12.0514C51.0688 10.9674 50.4432 9.57377 50.4432 7.94786C50.4432 6.32194 50.9906 5.00573 52.1637 3.84436C53.2586 2.76042 54.6663 2.14102 56.3086 2.14102C56.9343 2.14102 57.4818 2.21845 58.0292 2.3733C58.5766 2.52815 59.0459 2.76042 59.3587 2.91527C59.6715 3.14754 59.9844 3.37982 60.2972 3.61209C60.61 3.92179 60.7664 4.07663 60.8446 4.15406C60.9228 4.23148 61.001 4.30891 61.001 4.38633L62.5652 2.83784L62.3306 2.52815C62.1741 2.29587 61.8613 2.0636 61.5485 1.7539C61.1575 1.4442 60.7664 1.13451 60.2972 0.902232C59.8279 0.592534 59.2023 0.360261 58.4984 0.127987C57.7946 -0.104286 57.0907 0.0505632 56.3086 0.0505632ZM38.5558 13.5998V8.79953H45.3597V6.55422H38.5558V2.45072H47.1585V0.205412H36.0532V15.8452H47.3931V13.5998H38.5558ZM30.8916 5.08315C30.8916 5.77997 30.6569 6.39937 30.1877 6.94134C29.7185 7.48331 29.0928 7.63816 28.3889 7.63816H24.244V2.52815H28.3889C29.0928 2.52815 29.7185 2.76042 30.1877 3.22497C30.6569 3.68951 30.8916 4.30891 30.8916 5.08315ZM21.6632 15.8452H24.0876V9.88347H27.6851L31.048 15.8452H33.707L30.1095 9.6512L30.4223 9.49635C30.6569 9.41892 30.8916 9.26407 31.2044 9.0318C31.5172 8.79953 31.83 8.48983 32.1429 8.18013C32.4557 7.87043 32.6903 7.40589 32.9249 6.86391C33.1595 6.32194 33.2377 5.70255 33.2377 5.08315C33.2377 3.76694 32.7685 2.60557 31.83 1.67648C30.8916 0.747383 29.6403 0.282836 28.2325 0.282836H21.6632V15.8452ZM15.8759 15.8452H18.3003V0.282836H15.8759V15.8452ZM5.47445 2.52815C6.96037 2.52815 8.28988 3.07012 9.38478 4.15406C10.4797 5.238 10.9489 6.55422 10.9489 8.10271C10.9489 9.6512 10.4015 10.9674 9.38478 12.0514C8.28988 13.1353 7.03858 13.6773 5.47445 13.6773H2.4244V2.52815H5.47445ZM0 0.282836V15.8452H5.47445C7.66423 15.8452 9.5412 15.0709 11.1053 13.5224C12.6695 11.9739 13.4515 10.1932 13.4515 8.02528C13.4515 5.93482 12.6695 4.07663 11.1053 2.52815C9.5412 0.979656 7.66423 0.205412 5.47445 0.205412H0V0.282836Z" fill="white"/>
</svg>
