<svg width="117" height="33" viewBox="0 0 117 33" fill="none" xmlns="http://www.w3.org/2000/svg">
<path fill-rule="evenodd" clip-rule="evenodd" d="M69.1729 1.80074C61.2854 5.71309 55.6854 0.86177 55.6854 0.86177C57.815 5.5566 64.8348 8.60824 72.6433 4.46114C80.9251 0.157545 87.1562 6.80855 87.1562 6.80855C82.1871 0.0792979 76.5871 -1.79863 69.1729 1.80074ZM13.5664 2.2702V10.9556H4.02259V2.2702H0V13.1466V17.4501V25.0401H4.02259V16.9807V14.1638H13.5664V14.6333V25.0401H17.589V16.0417V14.3203V2.2702H13.5664ZM59.4711 22.3012C59.1556 22.3795 58.7612 22.3795 58.3668 22.3795C58.1302 22.3795 57.9725 22.3795 57.7358 22.223C57.5781 22.1447 57.4203 21.9882 57.2626 21.8318C57.1049 21.597 57.026 21.3623 56.9471 21.1275C56.8682 20.7363 56.8682 20.3451 56.8682 20.0321V20.0321V12.0509H60.4176L60.7331 9.39046H56.8682V5.32161H54.0288L53.1611 9.39046L50.7949 10.1729V12.0509H53.1611V20.5016C53.1611 21.2058 53.24 21.91 53.3189 22.536L53.3189 22.536C53.4766 23.0837 53.6344 23.6314 54.0288 24.1009C54.4231 24.5704 54.8175 24.8834 55.3696 25.0399C56.0795 25.2746 56.7894 25.4311 57.5781 25.3529C58.288 25.3529 58.919 25.1964 59.55 24.9616C60.3387 24.6486 60.9697 24.2574 61.6007 23.7879L60.7331 21.9882C60.3387 22.1447 59.9443 22.223 59.4711 22.3012ZM49.0598 18.2324C48.8232 17.9194 48.5865 17.6064 48.271 17.3717C47.9556 17.137 47.6401 16.9022 47.3246 16.7457C47.0091 16.5892 46.6936 16.4327 46.3781 16.3545L45.5893 16.0415L45.5893 16.0415C45.1949 15.885 44.8005 15.7285 44.3273 15.572L44.3273 15.572C43.9329 15.4155 43.5386 15.259 43.0653 15.1025C43.0198 15.0875 42.9713 15.0724 42.921 15.0568C42.7101 14.9913 42.4677 14.9159 42.2766 14.7896C42.04 14.7113 41.8034 14.5548 41.5667 14.3983L41.0935 13.9288C40.9357 13.7723 40.9357 13.4594 40.9357 13.2246C40.9357 12.9899 40.9357 12.7551 41.0935 12.5204C41.1724 12.2856 41.3301 12.1292 41.4879 11.9727C41.7245 11.8162 41.9611 11.6597 42.2766 11.5814C42.5921 11.5032 42.9865 11.4249 43.3808 11.4249C43.8541 11.4249 44.2485 11.4249 44.6428 11.5814C44.9473 11.6418 45.2047 11.7489 45.4878 11.8665C45.5714 11.9013 45.6572 11.937 45.7471 11.9727C46.0626 12.1292 46.3781 12.3639 46.6936 12.5986C47.0091 12.8334 47.3246 13.1464 47.5612 13.3811L49.2964 10.7207C48.5077 10.0947 47.5612 9.62524 46.6147 9.31225C45.5104 8.99926 44.4062 8.84277 43.302 8.84277C42.5132 8.84277 41.8034 8.92102 41.0935 9.15576C40.3836 9.31225 39.7526 9.62524 39.2005 9.93823C38.6484 10.2512 38.1751 10.7207 37.8596 11.2684C37.5441 11.8162 37.3075 12.4421 37.3864 13.1464C37.3864 13.6158 37.4653 14.1636 37.623 14.6331C37.7808 15.0243 38.0174 15.4155 38.254 15.8067L38.254 15.8068C38.4906 16.1198 38.8061 16.4327 39.2005 16.6675C39.516 16.9022 39.8315 17.137 40.2259 17.2935L41.1724 17.7629C41.3572 17.8546 41.542 17.9194 41.6951 17.9731C41.8034 18.0111 41.8958 18.0435 41.9611 18.0759L43.1442 18.5454L44.3273 19.0149C44.564 19.0931 44.7217 19.1714 44.9583 19.3279C45.1243 19.3828 45.2515 19.4762 45.3944 19.5811L45.3944 19.5811L45.3945 19.5812L45.3945 19.5812L45.3945 19.5812L45.3946 19.5813L45.3946 19.5813C45.4553 19.6259 45.5188 19.6725 45.5893 19.7191L46.0626 20.1886C46.2203 20.3451 46.2203 20.6581 46.2203 20.8146C46.2203 21.1276 46.1414 21.4406 46.0626 21.6753C45.9048 21.91 45.7471 22.1448 45.5104 22.3013C45.2738 22.4578 45.0372 22.6143 44.7217 22.6143C44.4062 22.6925 44.0907 22.6925 43.6963 22.6925C42.04 22.6925 40.5414 21.91 39.0428 20.3451L36.992 22.849C37.3864 23.3185 37.9385 23.7097 38.4118 24.0227C38.885 24.3357 39.4371 24.5704 39.9892 24.8052L39.9892 24.8052C40.5414 24.9617 41.1724 25.1182 41.8034 25.1964C42.4343 25.2747 43.1442 25.3529 43.8541 25.3529C44.6428 25.3529 45.4316 25.2747 46.1414 25.0399C46.8513 24.8834 47.5612 24.5704 48.1922 24.1792C48.7443 23.8662 49.2964 23.3185 49.6119 22.7708C50.0063 22.1448 50.164 21.5188 50.164 20.8146C50.164 20.2669 50.0852 19.7974 49.9274 19.2496C49.533 19.0149 49.2964 18.6237 49.0598 18.2324ZM28.7892 22.1447C29.1047 21.9883 29.4202 21.8318 29.7356 21.597V16.6675L29.6225 16.6776C28.786 16.7528 27.8805 16.8341 26.975 17.0587C26.344 17.2152 25.7919 17.5282 25.2398 17.8412C24.8454 18.1542 24.5299 18.4671 24.3722 18.9366C24.2144 19.4061 24.1356 19.8756 24.1356 20.3451C24.1356 20.7363 24.2144 21.1275 24.2933 21.4405C24.3722 21.7535 24.5299 21.9883 24.6877 22.1448C24.8454 22.3795 25.082 22.4577 25.3187 22.536C25.5553 22.6142 25.7919 22.6142 26.1074 22.6142H26.975C27.2117 22.6142 27.5272 22.536 27.8427 22.4578C28.1581 22.3795 28.4736 22.3013 28.7891 22.1448L28.7892 22.1447ZM34.6259 22.7707H35.0991C35.178 22.7447 35.2568 22.7273 35.3357 22.7099C35.4935 22.6751 35.6512 22.6403 35.809 22.536L36.2033 24.2574C35.9667 24.3357 35.7301 24.4922 35.4935 24.6487C35.2568 24.8052 35.0202 24.8834 34.7047 24.9617L33.7582 25.1964C33.3639 25.2746 32.9695 25.2746 32.654 25.2746C32.023 25.3529 31.392 25.1182 30.8399 24.8052C30.3666 24.4922 30.0511 24.0227 29.8934 23.3967C29.791 23.478 29.6886 23.5645 29.5849 23.6522C29.2889 23.9023 28.9818 24.1619 28.6314 24.3357C28.237 24.6487 27.7638 24.8052 27.2905 24.9617L27.2905 24.9617C26.8962 25.1181 26.423 25.1964 25.9498 25.2746L25.9498 25.2746L25.9498 25.2746L25.9498 25.2746L25.9497 25.2746L25.9497 25.2746L25.9497 25.2746L25.9497 25.2746C25.5553 25.3529 25.1609 25.3529 24.6877 25.3529C24.0567 25.3529 23.4257 25.1964 22.7947 25.0399L22.7947 25.0399C22.3214 24.8834 21.8482 24.6487 21.375 24.2574C20.9017 23.8662 20.5862 23.475 20.4285 22.9272C20.1918 22.3013 20.113 21.6753 20.113 21.0493C20.113 20.3451 20.2707 19.6409 20.5073 18.9366C20.744 18.3107 21.0595 17.8412 21.5327 17.3717C22.0059 16.9022 22.5581 16.5892 23.1102 16.2762C23.7412 15.9632 24.3722 15.7285 25.082 15.572C25.7919 15.4155 26.5807 15.3373 27.3694 15.259C28.1581 15.1808 29.0258 15.1808 29.8145 15.1808V14.633C29.8145 14.1636 29.7356 13.7723 29.5779 13.3028C29.4201 12.9116 29.2624 12.5986 28.9469 12.3639C28.8417 12.3117 28.7366 12.2508 28.6314 12.19C28.4211 12.0683 28.2107 11.9465 28.0004 11.8944C27.606 11.8161 27.2117 11.7379 26.8173 11.7379C26.4229 11.7379 26.1074 11.7379 25.7919 11.8161C25.3975 11.8161 25.082 11.9726 24.7666 12.1291C24.4511 12.2856 24.0567 12.5204 23.7412 12.7551L23.7412 12.7551C23.3468 13.0681 22.9524 13.3811 22.5581 13.7723L20.5073 11.5031C21.375 10.7989 22.4003 10.1729 23.5046 9.78171C24.6088 9.39048 25.7919 9.15574 27.0539 9.15574C27.9215 9.15574 28.7103 9.31223 29.499 9.46872C30.2089 9.62522 30.9188 9.93821 31.5497 10.3294C32.1019 10.7207 32.654 11.2684 32.9695 11.8944C33.3639 12.5204 33.5216 13.3028 33.5216 14.0853V20.9711C33.5216 21.1275 33.5413 21.2645 33.561 21.4014C33.5808 21.5383 33.6005 21.6753 33.6005 21.8318C33.6005 22.0665 33.6794 22.223 33.7582 22.3795C33.7582 22.536 33.916 22.6142 34.0737 22.6925C34.2315 22.7707 34.4681 22.7707 34.6259 22.7707ZM67.9111 9.39046H64.1252V25.0399H67.9111V9.39046ZM96.9368 16.9805C97.0945 16.6675 97.2523 16.2762 97.2523 15.885C97.2786 15.7285 97.2961 15.572 97.3136 15.4155C97.3487 15.1025 97.3837 14.7895 97.4889 14.4765C97.4889 13.3811 97.2523 12.5204 96.779 12.0509C96.2269 11.5032 95.517 11.1902 94.7283 11.2684C94.0184 11.2684 93.3085 11.5032 92.8353 12.0509C92.3621 12.5986 92.1254 13.3811 92.1254 14.3983C92.1254 14.8678 92.2043 15.3373 92.2832 15.8067C92.3621 16.198 92.5198 16.6675 92.7564 16.9805C92.993 17.2934 93.3085 17.6064 93.624 17.7629C94.0184 17.9977 94.4917 18.0759 94.9649 18.0759C95.3593 18.0759 95.8325 17.9977 96.2269 17.7629C96.5424 17.6064 96.779 17.2934 96.9368 16.9805ZM91.2578 26.4484C91.1789 26.6049 91.1001 26.8396 91.1001 27.0743C91.1001 27.3091 91.0212 27.5438 90.8634 27.7003C90.8634 28.0133 91.0212 28.3263 91.1789 28.561C91.4156 28.874 91.6522 29.187 91.9677 29.3435C92.2832 29.5782 92.6776 29.7347 93.0719 29.8912C93.4663 29.9695 93.8607 30.0477 94.3339 30.0477C95.1227 30.126 95.9114 30.0477 96.7001 29.8912C97.2523 29.813 97.7255 29.5782 98.1988 29.3435C98.8298 29.0305 99.2241 28.3263 99.2241 27.6221C99.2241 27.3873 99.1452 27.1526 98.9875 26.9961C98.7509 26.7613 98.5143 26.6049 98.2776 26.5266C97.9621 26.3701 97.5678 26.2919 97.1734 26.2136C96.9368 26.1745 96.7002 26.1158 96.4636 26.0571L96.4635 26.0571C96.2269 25.9984 95.9903 25.9397 95.7537 25.9006C95.5183 25.8539 95.2969 25.8072 95.0855 25.7626C94.5883 25.6577 94.1456 25.5643 93.7029 25.5094C93.0719 25.4311 92.5198 25.3529 92.0466 25.2746C91.8888 25.4311 91.7311 25.5876 91.5733 25.8224C91.5494 25.8698 91.5183 25.9243 91.4844 25.9839C91.4061 26.121 91.3128 26.2847 91.2578 26.4484ZM97.9621 9.62522C98.1988 9.70347 98.5931 9.85996 98.9086 10.0165C99.6974 9.78172 100.486 9.62522 101.59 9.54698L101.805 9.52552C102.509 9.45504 103.154 9.39048 103.799 9.39048L103.168 12.2074L100.407 11.7379C100.723 12.1291 100.88 12.5204 101.038 12.9899C101.275 13.6158 101.354 14.3201 101.354 14.946C101.354 15.7285 101.196 16.511 100.802 17.2152C100.407 17.9194 99.934 18.4671 99.3819 18.9366C98.7509 19.3279 98.1199 19.7191 97.4889 19.9538C96.9368 20.1886 96.2269 20.3451 95.5959 20.3451C94.886 20.3451 94.1762 20.3451 93.4663 20.1886L92.0466 19.7191C91.8099 19.9538 91.6522 20.1103 91.4944 20.3451C91.3367 20.5798 91.2578 20.8146 91.2578 21.1276C91.2578 21.284 91.3367 21.4405 91.4944 21.5188C91.6522 21.6753 91.8888 21.7535 92.1254 21.8318C92.4409 21.9883 92.7564 22.0665 93.0719 22.1448C93.2297 22.1839 93.4071 22.223 93.5846 22.2621L93.5848 22.2622C93.7622 22.3013 93.9396 22.3404 94.0973 22.3795C94.4917 22.3795 94.886 22.4578 95.2015 22.536C95.517 22.6142 95.8325 22.6925 96.148 22.6925C96.3846 22.7316 96.6606 22.7707 96.9366 22.8098L96.9368 22.8099C97.2128 22.849 97.4889 22.8881 97.7255 22.9272C98.2776 23.0055 98.8298 23.0837 99.303 23.2402L100.723 23.7097C101.117 23.8662 101.59 24.1009 101.906 24.4139C102.221 24.6487 102.537 25.0399 102.695 25.4311C102.931 25.9006 103.01 26.3701 103.01 26.8396C103.01 27.4656 102.931 28.0915 102.616 28.7175C102.379 29.2653 102.064 29.7347 101.59 30.126C101.196 30.5172 100.644 30.8302 100.092 31.0649C99.5396 31.2997 98.9086 31.4562 98.2776 31.6127C97.6466 31.7692 96.9368 31.9257 96.3058 31.9257C95.6748 32.0039 95.0438 32.0039 94.4128 32.0039C93.3874 32.0039 92.3621 31.9257 91.4156 31.7692C90.7057 31.6909 89.9958 31.4562 89.3648 31.1432C88.8916 30.9084 88.4972 30.5955 88.1817 30.126C87.9451 29.813 87.7874 29.3435 87.7874 28.874C87.7085 28.4045 87.8662 27.9351 88.024 27.4656C88.1817 27.0743 88.4183 26.6831 88.7338 26.3701L88.7339 26.3701C89.0494 26.0571 89.3649 25.7441 89.7592 25.5094C90.0747 25.2746 90.4691 25.0399 90.8634 24.8052C90.7106 24.7546 90.5578 24.6715 90.3838 24.5768C90.2883 24.5248 90.1865 24.4694 90.0747 24.4139C89.7592 24.2574 89.4437 24.1009 89.2071 23.8662L89.207 23.8662L89.207 23.8661C88.9704 23.6314 88.6549 23.3184 88.4972 23.0055C88.2606 22.6142 88.1817 22.223 88.1817 21.7535C88.1817 21.4405 88.1817 21.1276 88.3395 20.8146C88.4972 20.5016 88.655 20.2668 88.8916 20.0321C89.1282 19.7973 89.3648 19.5626 89.6803 19.4061C89.8381 19.3279 90.0155 19.2496 90.193 19.1714C90.3705 19.0931 90.5479 19.0149 90.7057 18.9366C90.3113 18.6236 89.9958 18.3107 89.6803 17.9977C89.4437 17.6847 89.2071 17.2934 89.0493 16.9805C88.8127 16.5892 88.7338 16.198 88.655 15.8067C88.4972 15.3373 88.4972 14.8678 88.4972 14.3983C88.4972 13.6158 88.655 12.8334 88.9705 12.1291C89.286 11.4249 89.7592 10.8772 90.3113 10.4077C90.9423 9.93821 91.5733 9.62522 92.3621 9.39048C93.2297 9.23399 94.1762 9.07749 95.0438 9.07749C95.252 9.07749 95.4601 9.09929 95.6567 9.11988C95.8325 9.1383 95.9991 9.15574 96.148 9.15574C96.4635 9.15574 96.779 9.23399 97.0945 9.31223C97.41 9.39048 97.6466 9.46873 97.9621 9.62522ZM116.734 19.4061C116.576 19.0149 116.418 18.6237 116.103 18.2324C115.866 17.9194 115.63 17.6064 115.314 17.3717C114.999 17.137 114.683 16.9022 114.368 16.7457C114.052 16.5892 113.737 16.4327 113.421 16.3545L112.632 16.0415C112.238 15.885 111.844 15.7285 111.37 15.572L111.37 15.5719C110.976 15.4155 110.581 15.259 110.108 15.1025C110.063 15.0875 110.014 15.0724 109.964 15.0568L109.964 15.0568L109.964 15.0568C109.753 14.9913 109.511 14.9159 109.32 14.7896C109.083 14.7113 108.846 14.5548 108.61 14.3983L108.137 13.9288C107.979 13.7723 107.979 13.4594 107.979 13.2246C107.979 12.9899 107.979 12.7551 108.137 12.5204C108.215 12.2856 108.373 12.1292 108.531 11.9727C108.767 11.8162 109.004 11.6597 109.241 11.5814C109.556 11.5032 109.951 11.4249 110.345 11.4249C110.818 11.4249 111.213 11.4249 111.607 11.5814C111.911 11.6418 112.169 11.7489 112.452 11.8665L112.452 11.8666L112.452 11.8667C112.536 11.9014 112.621 11.937 112.711 11.9727C113.027 12.1292 113.342 12.3639 113.658 12.5986C113.973 12.8334 114.21 13.0681 114.525 13.3811L116.261 10.7207C115.472 10.0947 114.525 9.62524 113.579 9.31225C112.475 8.99926 111.37 8.84277 110.266 8.84277C109.477 8.84277 108.767 8.92102 108.058 9.15576C107.348 9.31225 106.717 9.62524 106.165 9.93823C105.613 10.2512 105.139 10.7207 104.745 11.2684C104.429 11.8162 104.193 12.4421 104.272 13.1464C104.272 13.6158 104.351 14.1636 104.508 14.6331C104.666 15.0243 104.903 15.4155 105.139 15.8068C105.376 16.1198 105.691 16.4327 106.086 16.6675C106.401 16.9022 106.717 17.137 107.111 17.2935L108.058 17.7629C108.242 17.8546 108.427 17.9194 108.58 17.9731C108.689 18.0111 108.781 18.0435 108.846 18.0759L110.029 18.5454L111.213 19.0149C111.449 19.0931 111.686 19.1714 111.844 19.3279C112.01 19.3828 112.137 19.4762 112.28 19.5811L112.28 19.5811C112.34 19.6257 112.404 19.6724 112.475 19.7191L112.948 20.1886C113.106 20.3451 113.106 20.6581 113.106 20.8146C113.106 21.4406 112.869 21.91 112.396 22.3013C112.159 22.4578 111.922 22.6143 111.607 22.6143C111.291 22.6925 110.976 22.6925 110.582 22.6925C108.925 22.6925 107.427 21.91 105.928 20.3451L103.877 22.849C104.351 23.3185 104.824 23.7097 105.297 24.0227C105.77 24.3357 106.322 24.5704 106.875 24.8052C107.427 24.9617 108.058 25.1182 108.61 25.1964C109.241 25.2747 109.951 25.3529 110.582 25.3529C111.37 25.3529 112.159 25.2747 112.948 25.0399C113.658 24.8834 114.368 24.5704 114.999 24.1792C115.551 23.8662 116.103 23.3185 116.418 22.7708C116.813 22.223 116.97 21.5188 116.97 20.8146C117.049 20.4233 116.97 19.9539 116.734 19.4061ZM82.3446 9.46873C83.0545 9.70347 83.6855 10.0947 84.2376 10.5642C84.7897 11.1119 85.1841 11.6596 85.4207 12.3639C85.7362 13.1463 85.8939 13.9288 85.8939 14.7113V25.0399H82.0291V15.4155C82.0291 14.946 82.0291 14.3983 81.8714 13.8506C81.7925 13.3811 81.5559 13.0681 81.3192 12.7551C81.0037 12.4421 80.6882 12.2856 80.3727 12.1291C79.9784 12.0509 79.584 11.9726 79.1107 11.9726C78.953 11.9726 78.815 11.9922 78.6769 12.0118C78.5389 12.0313 78.4009 12.0509 78.2431 12.0509C77.9276 12.0509 77.6121 12.1291 77.2966 12.2074C76.9811 12.2856 76.6656 12.3639 76.3501 12.5204C76.1135 12.5986 75.798 12.7551 75.4825 12.9116V25.0399H71.6965V11.8944V10.7207C71.6965 10.2512 71.6177 9.70347 71.5388 9.23399H75.0882C75.0882 9.32566 75.1152 9.39048 75.1376 9.44418C75.1535 9.48215 75.167 9.51456 75.167 9.54698C75.167 9.57939 75.1806 9.62522 75.1964 9.67892C75.2188 9.75487 75.2459 9.84654 75.2459 9.93821C75.2459 10.0165 75.2656 10.0947 75.2853 10.173C75.3051 10.2512 75.3248 10.3294 75.3248 10.4077C75.4036 10.5642 75.4036 10.6424 75.4036 10.7989C75.6403 10.5642 75.9558 10.3294 76.2713 10.173C76.5868 9.93821 76.9811 9.78172 77.3755 9.62522C77.7699 9.46873 78.1643 9.31223 78.6375 9.23399C79.1107 9.15574 79.584 9.07749 80.0572 9.07749C80.846 9.07749 81.6347 9.23399 82.3446 9.46873Z" fill="white"/>
</svg>
