<?xml version="1.0" encoding="utf-8"?>
<!-- Generator: Adobe Illustrator 25.4.1, SVG Export Plug-In . SVG Version: 6.00 Build 0)  -->
<svg version="1.1" id="Layer_1" xmlns="http://www.w3.org/2000/svg" xmlns:xlink="http://www.w3.org/1999/xlink" x="0px" y="0px"
	 viewBox="0 0 163 60" style="enable-background:new 0 0 163 60;" xml:space="preserve">
<style type="text/css">
	.st0{fill:#009DDB;}
</style>
<g>
	<path class="st0" d="M126.7,29c-0.2,0.2-0.3,0.4-0.3,0.7c0,0.3,0.1,0.6,0.3,0.8c0.2,0.2,0.5,0.3,0.9,0.3c0.6,0,1.1-0.2,1.5-0.6
		c0.4-0.4,0.6-1,0.6-1.7v-0.2l-2.2,0.4C127.2,28.7,126.9,28.9,126.7,29z"/>
	<path class="st0" d="M94.5,28.4v-0.2l-2.2,0.4c-0.3,0.1-0.6,0.2-0.8,0.4c-0.2,0.2-0.3,0.4-0.3,0.7c0,0.3,0.1,0.6,0.3,0.8
		c0.2,0.2,0.5,0.3,0.9,0.3c0.6,0,1.1-0.2,1.5-0.6C94.3,29.7,94.5,29.1,94.5,28.4z"/>
	<path class="st0" d="M86.9,44c-0.2-0.2-0.5-0.4-0.7-0.5c-0.3-0.1-0.6-0.2-0.9-0.2c-0.3,0-0.6,0.1-0.9,0.2c-0.3,0.1-0.5,0.3-0.7,0.5
		c-0.2,0.2-0.4,0.5-0.5,0.7c-0.1,0.3-0.2,0.6-0.2,0.9s0.1,0.7,0.2,0.9c0.1,0.3,0.3,0.5,0.5,0.7c0.2,0.2,0.5,0.4,0.7,0.5
		c0.3,0.1,0.6,0.2,0.9,0.2v0c0.3,0,0.6-0.1,0.9-0.2c0.3-0.1,0.5-0.3,0.7-0.5c0.2-0.2,0.4-0.5,0.5-0.7c0.1-0.3,0.2-0.6,0.2-0.9
		s-0.1-0.7-0.2-0.9C87.3,44.5,87.1,44.2,86.9,44z"/>
	<path class="st0" d="M75.9,44c-0.2-0.2-0.5-0.4-0.7-0.5c-0.3-0.1-0.6-0.2-0.9-0.2s-0.6,0.1-0.9,0.2c-0.3,0.1-0.5,0.3-0.7,0.5
		c-0.2,0.2-0.4,0.5-0.5,0.7c-0.1,0.3-0.2,0.6-0.2,0.9s0.1,0.7,0.2,0.9c0.1,0.3,0.3,0.5,0.5,0.7c0.2,0.2,0.5,0.4,0.7,0.5
		c0.3,0.1,0.6,0.2,0.9,0.2v0c0.3,0,0.6-0.1,0.9-0.2c0.3-0.1,0.5-0.3,0.7-0.5c0.2-0.2,0.4-0.5,0.5-0.7c0.1-0.3,0.2-0.6,0.2-0.9
		s-0.1-0.7-0.2-0.9C76.3,44.5,76.1,44.2,75.9,44z"/>
	<path class="st0" d="M118.2,25.7c-0.2-0.2-0.5-0.4-0.8-0.6c-0.3-0.1-0.6-0.2-1-0.2c-0.3,0-0.7,0.1-1,0.2c-0.3,0.1-0.6,0.3-0.8,0.6
		c-0.2,0.2-0.4,0.5-0.5,0.9c-0.1,0.3-0.2,0.7-0.2,1.1c0,0.4,0.1,0.8,0.2,1.1c0.1,0.3,0.3,0.6,0.5,0.9c0.2,0.2,0.5,0.4,0.8,0.6
		c0.3,0.1,0.6,0.2,1,0.2c0.3,0,0.7-0.1,1-0.2c0.3-0.1,0.6-0.3,0.8-0.6c0.2-0.2,0.4-0.5,0.5-0.9c0.1-0.3,0.2-0.7,0.2-1.1
		c0-0.4-0.1-0.8-0.2-1.1C118.6,26.3,118.4,26,118.2,25.7z"/>
	<path class="st0" d="M59.8,0H0l59.1,59.1v0h69.4V42H163V14L59.8,0z M99.8,22.5h2.7V24h0.1c0.2-0.3,0.5-0.6,0.7-0.9
		c0.2-0.2,0.5-0.4,0.9-0.6c0.4-0.2,0.8-0.3,1.3-0.3c0.5,0,1,0.1,1.4,0.3c0.4,0.2,0.8,0.5,1.1,0.9c0.3,0.4,0.6,0.8,0.8,1.4
		c0.2,0.5,0.3,1.1,0.3,1.8v6.3h-2.7v-5.9c0-0.6-0.2-1.1-0.5-1.5c-0.3-0.4-0.8-0.5-1.3-0.5c-0.6,0-1.1,0.2-1.5,0.7
		c-0.4,0.4-0.6,1-0.6,1.7v5.5h-2.7V22.5z M78.8,47.6c-0.2,0.6-0.5,1.1-0.9,1.5c-0.4,0.4-0.8,0.7-1.3,1c-0.5,0.2-1,0.3-1.6,0.3
		c-0.5,0-0.9-0.1-1.3-0.2c-0.3-0.2-0.6-0.3-0.9-0.5c-0.3-0.2-0.5-0.5-0.7-0.7H72V54h-2.5V41.3H72v1.3h0.1c0.2-0.3,0.4-0.5,0.7-0.7
		c0.3-0.2,0.5-0.3,0.9-0.5c0.4-0.2,0.8-0.2,1.3-0.2c0.5,0,1.1,0.1,1.6,0.3c0.5,0.2,0.9,0.5,1.3,1c0.4,0.4,0.7,0.9,0.9,1.5
		c0.2,0.6,0.3,1.2,0.3,1.9S79,47,78.8,47.6z M78.8,30.4c-0.2,0.6-0.6,1-1.1,1.5c-0.5,0.4-1,0.7-1.7,1c-0.7,0.2-1.4,0.4-2.2,0.4h0
		c-0.9,0-1.7-0.1-2.4-0.4c-0.7-0.2-1.2-0.5-1.7-0.8c-0.5-0.3-1-0.7-1.3-1.2l2-2.1c0.2,0.3,0.5,0.6,0.9,0.8c0.3,0.2,0.6,0.4,1,0.6
		c0.4,0.2,0.9,0.2,1.4,0.2c0.8,0,1.4-0.2,1.8-0.5c0.4-0.3,0.6-0.7,0.6-1.2c0-0.4-0.2-0.8-0.5-1c-0.3-0.3-0.8-0.5-1.3-0.7
		c-0.5-0.2-1.1-0.4-1.7-0.6c-0.6-0.2-1.2-0.5-1.7-0.8c-0.5-0.4-1-0.8-1.3-1.3c-0.3-0.6-0.5-1.3-0.5-2.1c0-0.6,0.1-1.1,0.3-1.7
		c0.2-0.5,0.6-1,1-1.4c0.4-0.4,1-0.7,1.6-0.9c0.6-0.2,1.4-0.4,2.2-0.4c0.8,0,1.5,0.1,2.1,0.3c0.6,0.2,1.1,0.4,1.5,0.7
		c0.5,0.3,0.9,0.6,1.2,1l-2,2.1c-0.2-0.2-0.4-0.5-0.7-0.6c-0.2-0.2-0.5-0.3-0.8-0.4c-0.3-0.1-0.7-0.2-1.1-0.2
		c-0.8,0-1.3,0.1-1.6,0.4s-0.5,0.6-0.5,1.1c0,0.4,0.2,0.8,0.5,1c0.3,0.2,0.8,0.5,1.3,0.7c0.5,0.2,1.1,0.4,1.7,0.6
		c0.6,0.2,1.2,0.5,1.7,0.9c0.5,0.3,1,0.8,1.3,1.3c0.3,0.5,0.5,1.2,0.5,2.1C79.2,29.3,79.1,29.9,78.8,30.4z M80.2,22.7h0.9
		c0.7,0,1.1-0.4,1.1-1.3v-1.9h2.4v3.2h2.2v2.7h-2.2v3.5c0,0.5,0.1,0.9,0.3,1.1c0.2,0.3,0.6,0.4,1,0.4c0.3,0,0.6,0,0.8-0.1
		c0.1,0,0.2-0.1,0.3-0.1v2.7c-0.2,0.1-0.3,0.1-0.5,0.2c-0.2,0-0.4,0.1-0.6,0.1c-0.2,0-0.5,0-0.7,0c-1,0-1.8-0.3-2.4-1
		c-0.6-0.7-0.9-1.6-0.9-2.9v-3.9h-1.7V22.7z M89.7,47.5c-0.3,0.6-0.6,1-1,1.5c-0.4,0.4-1,0.8-1.6,1c-0.6,0.2-1.2,0.4-1.9,0.4
		c-0.7,0-1.3-0.1-1.9-0.4c-0.6-0.2-1.1-0.6-1.6-1c-0.4-0.4-0.8-0.9-1-1.5c-0.3-0.6-0.4-1.2-0.4-1.8c0-0.6,0.1-1.2,0.4-1.8
		c0.3-0.6,0.6-1.1,1-1.5c0.4-0.4,1-0.8,1.5-1c0.6-0.2,1.2-0.4,1.9-0.4c0.7,0,1.3,0.1,1.9,0.4c0.6,0.2,1.1,0.6,1.6,1
		c0.4,0.4,0.8,0.9,1,1.5c0.2,0.6,0.4,1.1,0.4,1.8C90.1,46.4,90,47,89.7,47.5z M90.2,32.9c-0.4-0.2-0.7-0.4-0.9-0.6
		c-0.3-0.3-0.5-0.6-0.6-0.9c-0.1-0.4-0.2-0.8-0.2-1.2c0-0.9,0.3-1.6,0.8-2.2c0.5-0.6,1.2-1,2.2-1.2l3.1-0.6c-0.1-0.4-0.2-0.7-0.5-1
		c-0.3-0.3-0.7-0.4-1.2-0.4c-0.3,0-0.7,0.1-0.9,0.2c-0.3,0.1-0.5,0.2-0.7,0.4c-0.2,0.2-0.4,0.4-0.6,0.6L89,24.3c0.3-0.4,0.6-0.7,1-1
		c0.3-0.3,0.8-0.5,1.3-0.7c0.5-0.2,1.1-0.3,1.7-0.3c0.6,0,1.2,0.1,1.7,0.3c0.5,0.2,1,0.5,1.3,0.9c0.4,0.4,0.7,0.8,0.9,1.3
		c0.2,0.5,0.3,1,0.3,1.6v6.5h-2.7v-1.3h-0.1c-0.2,0.3-0.5,0.5-0.7,0.7c-0.2,0.2-0.5,0.4-0.9,0.5c-0.4,0.1-0.8,0.2-1.2,0.2
		C91,33.1,90.6,33.1,90.2,32.9z M94.6,50.2h-2.5V37.5h2.5V50.2z M99.7,50.2h-2.5v-8.9h2.5V50.2z M99.4,39.7c-0.3,0.3-0.6,0.4-1,0.4
		v0c-0.4,0-0.7-0.1-1-0.4c-0.3-0.3-0.4-0.6-0.4-1s0.1-0.7,0.4-0.9c0.3-0.3,0.6-0.4,1-0.4c0.4,0,0.7,0.1,1,0.4
		c0.3,0.3,0.4,0.6,0.4,0.9S99.7,39.4,99.4,39.7z M104.2,46.7c0.1,0.3,0.3,0.5,0.5,0.7c0.2,0.2,0.5,0.4,0.7,0.5
		c0.3,0.1,0.6,0.2,0.9,0.2c0.3,0,0.7-0.1,0.9-0.2c0.3-0.1,0.5-0.2,0.7-0.4c0.2-0.2,0.4-0.3,0.6-0.5l1.6,1.5
		c-0.2,0.3-0.6,0.6-0.9,0.9c-0.3,0.2-0.7,0.4-1.2,0.6c-0.5,0.2-1,0.3-1.7,0.3c-0.7,0-1.3-0.1-1.9-0.4c-0.6-0.2-1.1-0.6-1.6-1
		c-0.4-0.4-0.8-0.9-1-1.5c-0.2-0.6-0.4-1.2-0.4-1.8c0-0.6,0.1-1.2,0.4-1.8c0.3-0.6,0.6-1.1,1-1.5c0.4-0.4,1-0.8,1.6-1
		c0.6-0.2,1.2-0.4,1.9-0.4c0.7,0,1.2,0.1,1.7,0.3c0.5,0.2,0.9,0.4,1.2,0.6c0.4,0.3,0.7,0.6,0.9,0.9l-1.6,1.5
		c-0.2-0.2-0.4-0.4-0.6-0.5c-0.2-0.1-0.4-0.3-0.7-0.4c-0.3-0.1-0.6-0.2-0.9-0.2c-0.3,0-0.6,0.1-0.9,0.2c-0.3,0.1-0.5,0.3-0.7,0.5
		c-0.2,0.2-0.4,0.5-0.5,0.7c-0.1,0.3-0.2,0.6-0.2,0.9S104.1,46.4,104.2,46.7z M116.5,50.9c-0.4,1-0.9,1.8-1.4,2.3
		c-0.6,0.5-1.3,0.8-2.1,0.8c-0.2,0-0.5,0-0.7,0c-0.2,0-0.4-0.1-0.5-0.1c-0.2,0-0.3-0.1-0.5-0.1v-2.3c0.1,0,0.2,0.1,0.3,0.1
		c0.2,0.1,0.5,0.1,0.7,0.1c0.4,0,0.8-0.1,1-0.3c0.2-0.2,0.4-0.5,0.6-0.8l0.2-0.5l-3.5-8.8h2.7l2.1,5.9h0.1l2.1-5.9h2.7L116.5,50.9z
		 M121.5,32.9h-2.7v-1.5h-0.1c-0.2,0.3-0.5,0.6-0.8,0.9c-0.3,0.2-0.6,0.4-1,0.6c-0.4,0.2-0.8,0.3-1.4,0.3v0c-0.6,0-1.1-0.1-1.7-0.4
		c-0.5-0.3-1-0.6-1.4-1.1c-0.4-0.5-0.7-1.1-1-1.7c-0.2-0.7-0.4-1.4-0.4-2.2s0.1-1.5,0.4-2.2c0.2-0.7,0.6-1.2,1-1.7
		c0.4-0.5,0.9-0.9,1.4-1.1c0.5-0.3,1.1-0.4,1.7-0.4c0.5,0,1,0.1,1.4,0.3c0.4,0.2,0.7,0.4,1,0.6c0.3,0.3,0.6,0.5,0.8,0.9h0.1v-6h2.7
		V32.9z M132.5,32.9h-2.7v-1.3h-0.1c-0.2,0.3-0.5,0.5-0.7,0.7c-0.2,0.2-0.5,0.4-0.9,0.5c-0.4,0.1-0.8,0.2-1.2,0.2
		c-0.5,0-0.9-0.1-1.2-0.2c-0.4-0.2-0.7-0.4-0.9-0.6c-0.3-0.3-0.5-0.6-0.6-0.9c-0.1-0.4-0.2-0.8-0.2-1.2c0-0.9,0.3-1.6,0.8-2.2
		c0.5-0.6,1.2-1,2.2-1.2l3.1-0.6c-0.1-0.4-0.2-0.7-0.5-1c-0.3-0.3-0.7-0.4-1.2-0.4c-0.3,0-0.7,0.1-0.9,0.2c-0.3,0.1-0.5,0.2-0.7,0.4
		c-0.2,0.2-0.4,0.4-0.6,0.6l-1.6-1.7c0.3-0.4,0.6-0.7,1-1c0.3-0.3,0.8-0.5,1.3-0.7c0.5-0.2,1.1-0.3,1.7-0.3c0.6,0,1.2,0.1,1.7,0.3
		c0.5,0.2,1,0.5,1.3,0.9c0.4,0.4,0.7,0.8,0.9,1.3c0.2,0.5,0.3,1,0.3,1.6V32.9z M141,25.4c-0.1,0-0.1,0-0.2,0c-0.1,0-0.2,0-0.3,0
		c-0.1,0-0.2,0-0.4,0c-0.7,0-1.2,0.2-1.6,0.7c-0.4,0.5-0.7,1.2-0.7,2v4.9h-2.7V22.5h2.7V24h0.1c0.2-0.3,0.5-0.6,0.7-0.9
		c0.2-0.2,0.5-0.4,0.9-0.6c0.4-0.2,0.8-0.3,1.3-0.3h0.2V25.4z M152.3,32.9h-2.7v-1.5h-0.1c-0.2,0.3-0.5,0.6-0.8,0.9
		c-0.3,0.2-0.6,0.4-1,0.6c-0.4,0.2-0.8,0.3-1.4,0.3v0c-0.6,0-1.1-0.1-1.7-0.4c-0.5-0.3-1-0.6-1.4-1.1c-0.4-0.5-0.7-1.1-1-1.7
		c-0.2-0.7-0.4-1.4-0.4-2.2s0.1-1.5,0.4-2.2c0.2-0.7,0.6-1.2,1-1.7c0.4-0.5,0.9-0.9,1.4-1.1c0.5-0.3,1.1-0.4,1.7-0.4
		c0.5,0,1,0.1,1.4,0.3c0.4,0.2,0.7,0.4,1,0.6c0.3,0.3,0.6,0.5,0.8,0.9h0.1v-6h2.7V32.9z"/>
	<path class="st0" d="M149,25.7c-0.2-0.2-0.5-0.4-0.8-0.6c-0.3-0.1-0.6-0.2-1-0.2c-0.3,0-0.7,0.1-1,0.2c-0.3,0.1-0.6,0.3-0.8,0.6
		c-0.2,0.2-0.4,0.5-0.5,0.9c-0.1,0.3-0.2,0.7-0.2,1.1c0,0.4,0.1,0.8,0.2,1.1c0.1,0.3,0.3,0.6,0.5,0.9c0.2,0.2,0.5,0.4,0.8,0.6
		c0.3,0.1,0.6,0.2,1,0.2c0.3,0,0.7-0.1,1-0.2c0.3-0.1,0.6-0.3,0.8-0.6c0.2-0.2,0.4-0.5,0.5-0.9c0.1-0.3,0.2-0.7,0.2-1.1
		c0-0.4-0.1-0.8-0.2-1.1C149.4,26.3,149.2,26,149,25.7z"/>
</g>
</svg>
