<?xml version="1.0" encoding="utf-8"?>
<!-- Generator: Adobe Illustrator 25.4.1, SVG Export Plug-In . SVG Version: 6.00 Build 0)  -->
<svg version="1.1" id="Layer_4" xmlns="http://www.w3.org/2000/svg" xmlns:xlink="http://www.w3.org/1999/xlink" x="0px" y="0px"
	 viewBox="0 0 163 60" style="enable-background:new 0 0 163 60;" xml:space="preserve">
<style type="text/css">
	.st0{fill:#00ADAB;}
</style>
<g>
	<path class="st0" d="M88.6,43.8c-0.2-0.2-0.5-0.4-0.8-0.5c-0.3-0.1-0.6-0.2-0.9-0.2c-0.3,0-0.6,0.1-0.9,0.2c-0.6,0.2-1,0.7-1.3,1.3
		c-0.1,0.3-0.2,0.6-0.2,1c0,0.3,0.1,0.7,0.2,1c0.2,0.6,0.7,1,1.3,1.3c0.3,0.1,0.6,0.2,0.9,0.2c0.3,0,0.6-0.1,0.9-0.2
		c0.3-0.1,0.5-0.3,0.8-0.5c0.2-0.2,0.4-0.5,0.5-0.8c0.1-0.3,0.2-0.6,0.2-1c0-0.3-0.1-0.7-0.2-1C89,44.3,88.8,44,88.6,43.8z"/>
	<path class="st0" d="M99.7,43.8c-0.2-0.2-0.5-0.4-0.8-0.5c-0.3-0.1-0.6-0.2-0.9-0.2c-0.3,0-0.6,0.1-0.9,0.2c-0.6,0.2-1,0.7-1.3,1.3
		c-0.1,0.3-0.2,0.6-0.2,1c0,0.3,0.1,0.7,0.2,1c0.2,0.6,0.7,1,1.3,1.3c0.3,0.1,0.6,0.2,0.9,0.2v0c0.3,0,0.6-0.1,0.9-0.2
		c0.3-0.1,0.5-0.3,0.8-0.5c0.2-0.2,0.4-0.5,0.5-0.8c0.1-0.3,0.2-0.6,0.2-1c0-0.3-0.1-0.7-0.2-1C100.1,44.3,99.9,44,99.7,43.8z"/>
	<path class="st0" d="M85.1,28.1c0.4,0.4,0.8,0.7,1.4,1c0.5,0.2,1.1,0.3,1.7,0.3v0c0.6,0,1.2-0.1,1.7-0.3c0.5-0.2,1-0.6,1.3-1
		c0.4-0.4,0.7-0.9,0.9-1.4c0.2-0.6,0.3-1.1,0.3-1.8c0-0.6-0.1-1.2-0.3-1.8c-0.2-0.5-0.5-1-0.9-1.4c-0.4-0.4-0.8-0.7-1.3-1
		c-0.5-0.2-1.1-0.4-1.7-0.4c-0.6,0-1.2,0.1-1.7,0.4c-0.5,0.2-1,0.5-1.4,1c-0.4,0.4-0.7,0.9-0.9,1.4c-0.2,0.6-0.3,1.2-0.3,1.8
		c0,0.6,0.1,1.2,0.3,1.7C84.4,27.2,84.7,27.7,85.1,28.1z"/>
	<path class="st0" d="M61.6,0H0l71.9,59H141V42.1h7.3V11.7L61.6,0z M119,22.1L119,22.1h2.6v1.4h0.1c0.2-0.3,0.4-0.6,0.7-0.8
		c0.2-0.2,0.5-0.4,0.9-0.5c0.3-0.2,0.7-0.3,1.2-0.3c0.5,0,0.9,0.1,1.3,0.3c0.4,0.2,0.8,0.5,1.1,0.8c0.3,0.3,0.6,0.8,0.7,1.3
		c0.2,0.5,0.3,1.1,0.3,1.7v5.9h-2.6v-5.5c0-0.6-0.2-1.1-0.5-1.4c-0.3-0.3-0.7-0.5-1.3-0.5c-0.6,0-1,0.2-1.4,0.6
		c-0.4,0.4-0.6,0.9-0.6,1.6v5.2H119V22.1z M80.9,24.9c0-1,0.2-1.9,0.6-2.8c0.3-0.9,0.9-1.6,1.5-2.3c0.7-0.7,1.4-1.2,2.3-1.6
		c0.9-0.4,1.9-0.6,2.9-0.6c1,0,2,0.2,2.8,0.6c0.9,0.4,1.6,0.9,2.3,1.6c0.7,0.7,1.2,1.4,1.5,2.3c0.4,0.9,0.6,1.8,0.6,2.8
		c0,1-0.2,1.9-0.6,2.8c-0.4,0.9-0.9,1.6-1.5,2.3c-0.7,0.7-1.4,1.2-2.3,1.6c-0.9,0.4-1.9,0.6-2.8,0.6c-1,0-2-0.2-2.9-0.6
		c-0.9-0.4-1.6-0.9-2.3-1.6c-0.6-0.7-1.2-1.4-1.5-2.3C81.1,26.9,80.9,25.9,80.9,24.9z M91.5,47.4c-0.2,0.6-0.5,1.1-0.9,1.5
		c-0.4,0.4-0.8,0.7-1.3,1c-0.5,0.2-1,0.3-1.6,0.3c-0.5,0-0.9-0.1-1.3-0.2c-0.3-0.1-0.6-0.3-0.9-0.5c-0.3-0.2-0.5-0.5-0.7-0.7h-0.1
		V54h-2.5V41h2.5v1.3h0.1c0.2-0.3,0.4-0.5,0.7-0.7c0.3-0.2,0.6-0.4,0.9-0.5c0.4-0.2,0.8-0.2,1.3-0.2c0.5,0,1.1,0.1,1.6,0.4
		c0.5,0.2,0.9,0.6,1.3,1c0.4,0.4,0.7,0.9,0.9,1.5c0.2,0.6,0.3,1.2,0.3,1.9S91.7,46.9,91.5,47.4z M102.6,47.4
		c-0.2,0.6-0.6,1.1-1.1,1.5c-0.4,0.4-1,0.8-1.6,1c-0.6,0.2-1.2,0.4-1.9,0.4c-0.7,0-1.3-0.1-1.9-0.4c-0.6-0.2-1.1-0.6-1.6-1
		c-0.4-0.4-0.8-0.9-1-1.5c-0.3-0.6-0.4-1.2-0.4-1.8c0-0.6,0.1-1.2,0.4-1.8c0.3-0.6,0.6-1.1,1-1.5c0.5-0.4,1-0.8,1.6-1
		c0.6-0.2,1.3-0.4,1.9-0.4c0.7,0,1.3,0.1,1.9,0.4c0.6,0.2,1.1,0.6,1.6,1c0.5,0.4,0.8,0.9,1.1,1.5c0.3,0.6,0.4,1.2,0.4,1.8
		C102.9,46.2,102.8,46.8,102.6,47.4z M103.3,25c-0.3-0.3-0.7-0.5-1.3-0.5c-0.6,0-1,0.2-1.4,0.6c-0.4,0.4-0.6,0.9-0.6,1.6v5.2h-2.6
		v-9.7h2.6v1.4h0.1c0.2-0.3,0.4-0.6,0.7-0.8c0.2-0.2,0.5-0.4,0.9-0.5c0.3-0.2,0.7-0.3,1.2-0.3c0.5,0,0.9,0.1,1.3,0.3
		c0.4,0.2,0.8,0.5,1.1,0.8c0.3,0.3,0.6,0.8,0.7,1.3c0.2,0.5,0.3,1.1,0.3,1.7v5.9h-2.6v-5.5C103.7,25.8,103.6,25.4,103.3,25z
		 M107.4,50.1h-2.5v-13h2.5V50.1z M108.9,18h2.6v13.9h-2.6V18z M112.5,50.1H110V41h2.5V50.1z M112.3,39.4c-0.3,0.3-0.6,0.4-1,0.4v0
		c-0.4,0-0.7-0.1-1-0.4c-0.3-0.3-0.4-0.6-0.4-1c0-0.4,0.1-0.7,0.4-1c0.3-0.3,0.6-0.4,1-0.4c0.4,0,0.7,0.1,1,0.4
		c0.3,0.3,0.4,0.6,0.4,1C112.7,38.8,112.6,39.1,112.3,39.4z M114.2,18.3c0.3-0.3,0.6-0.5,1-0.5c0.4,0,0.7,0.2,1,0.5
		c0.3,0.3,0.4,0.6,0.4,1s-0.1,0.8-0.4,1.1c-0.3,0.3-0.6,0.4-1,0.4c-0.4,0-0.8-0.1-1-0.4c-0.3-0.3-0.4-0.7-0.4-1.1
		C113.8,19,114,18.6,114.2,18.3z M114,22.1h2.6v9.7H114V22.1z M117.1,46.5c0.2,0.6,0.7,1,1.3,1.3c0.3,0.1,0.6,0.2,0.9,0.2
		c0.3,0,0.6-0.1,0.9-0.2c0.3-0.1,0.5-0.3,0.7-0.4c0.2-0.2,0.4-0.3,0.6-0.6l1.6,1.6c-0.3,0.3-0.6,0.7-0.9,0.9
		c-0.4,0.3-0.8,0.5-1.2,0.6c-0.5,0.2-1,0.3-1.7,0.3c-0.7,0-1.3-0.1-1.9-0.4c-0.6-0.2-1.1-0.6-1.6-1c-0.4-0.4-0.8-0.9-1-1.5
		c-0.3-0.6-0.4-1.2-0.4-1.8c0-0.6,0.1-1.2,0.4-1.8c0.3-0.6,0.6-1.1,1-1.5c0.5-0.4,1-0.8,1.6-1c0.6-0.2,1.3-0.4,1.9-0.4
		c0.7,0,1.2,0.1,1.7,0.3c0.5,0.2,0.9,0.4,1.2,0.6c0.4,0.3,0.7,0.6,0.9,0.9l-1.6,1.6c-0.2-0.2-0.4-0.4-0.6-0.6
		c-0.2-0.1-0.5-0.3-0.7-0.4c-0.3-0.1-0.6-0.2-0.9-0.2c-0.3,0-0.6,0.1-0.9,0.2c-0.6,0.2-1,0.7-1.3,1.3c-0.1,0.3-0.2,0.6-0.2,1
		C116.9,45.9,117,46.2,117.1,46.5z M129.4,50.8c-0.4,1-0.9,1.8-1.4,2.3c-0.6,0.5-1.3,0.8-2.1,0.8c-0.2,0-0.5,0-0.7,0
		c-0.2,0-0.4-0.1-0.5-0.1c-0.2,0-0.3-0.1-0.5-0.1v-2.3c0.1,0,0.2,0.1,0.3,0.1c0.2,0.1,0.5,0.1,0.7,0.1c0.4,0,0.8-0.1,1-0.3
		c0.3-0.2,0.4-0.5,0.6-0.8L127,50l-3.6-9h2.7l2.2,6h0.1l2.1-6h2.7L129.4,50.8z M139.2,27.7c0,0.1,0,0.2,0,0.3h-6.7
		c0.1,0.5,0.4,0.8,0.8,1.2c0.4,0.3,1,0.5,1.7,0.5c0.7,0,1.3-0.2,1.8-0.5c0.2-0.2,0.5-0.3,0.6-0.6l1.3,1.9c-0.3,0.3-0.6,0.6-1,0.8
		c-0.3,0.2-0.8,0.4-1.3,0.6c-0.5,0.2-1.1,0.2-1.7,0.2l0,0c-0.7,0-1.3-0.1-1.9-0.4c-0.6-0.3-1.1-0.6-1.6-1.1c-0.4-0.5-0.8-1-1-1.6
		c-0.3-0.6-0.4-1.3-0.4-2c0-0.7,0.1-1.3,0.4-1.9c0.2-0.6,0.6-1.2,1-1.6c0.4-0.5,1-0.8,1.5-1.1c0.6-0.3,1.2-0.4,1.9-0.4
		c0.6,0,1.2,0.1,1.8,0.4c0.6,0.2,1.1,0.6,1.5,1c0.4,0.4,0.7,1,1,1.6c0.3,0.6,0.4,1.2,0.4,1.9C139.3,27.1,139.2,27.4,139.2,27.7z"/>
	<path class="st0" d="M134.5,24.3c-0.5,0-1,0.2-1.3,0.5c-0.3,0.3-0.6,0.7-0.7,1.2h4.2c-0.1-0.5-0.4-0.9-0.8-1.2
		C135.5,24.5,135,24.3,134.5,24.3z"/>
</g>
</svg>
