<svg width="40" height="40" viewBox="0 0 40 40" fill="none" xmlns="http://www.w3.org/2000/svg">
<path fill-rule="evenodd" clip-rule="evenodd" d="M10.8076 26.3638C10.4171 26.7543 10.4171 27.3875 10.8076 27.778L12.2219 29.1922C12.6124 29.5828 13.2455 29.5828 13.6361 29.1922L20 22.8283L26.364 29.1922C26.7545 29.5828 27.3877 29.5828 27.7782 29.1922L29.1924 27.778C29.5829 27.3875 29.5829 26.7543 29.1924 26.3638L22.8285 19.9999L29.1924 13.6359C29.5829 13.2454 29.5829 12.6122 29.1924 12.2217L27.7782 10.8075C27.3877 10.4169 26.7545 10.4169 26.364 10.8075L20 17.1714L13.6361 10.8075C13.2455 10.4169 12.6124 10.4169 12.2219 10.8075L10.8076 12.2217C10.4171 12.6122 10.4171 13.2454 10.8076 13.6359L17.1716 19.9999L10.8076 26.3638Z" fill="white"/>
</svg>
