<svg width="40" height="40" viewBox="0 0 40 40" fill="none" xmlns="http://www.w3.org/2000/svg">
<path d="M23.75 28.25C23.75 26.1875 22.0625 24.5 20 24.5C17.8906 24.5 16.25 26.1875 16.25 28.25C16.25 30.3594 17.8906 32 20 32C22.0625 32 23.75 30.3594 23.75 28.25ZM16.6719 9.21875L17.2812 21.9688C17.3281 22.5312 17.8438 23 18.4062 23H21.5469C22.1094 23 22.625 22.5312 22.6719 21.9688L23.2812 9.21875C23.3281 8.5625 22.8125 8 22.1562 8H17.7969C17.1406 8 16.625 8.5625 16.6719 9.21875Z" fill="white"/>
</svg>
