<svg width="16" height="13" viewBox="0 0 16 13" fill="none" xmlns="http://www.w3.org/2000/svg">
<path d="M7.22656 9.48141C7.22656 9.83607 7.16123 10.1674 7.03056 10.4754C6.8999 10.7741 6.7179 11.0401 6.48456 11.2734C6.26056 11.4974 5.99456 11.6747 5.68656 11.8054C5.37856 11.9361 5.0519 12.0014 4.70656 12.0014H2.74656C2.3919 12.0014 2.06056 11.9361 1.75256 11.8054C1.4539 11.6747 1.1879 11.4974 0.954563 11.2734C0.730563 11.0401 0.553229 10.7741 0.422562 10.4754C0.291896 10.1674 0.226562 9.83607 0.226562 9.48141V3.46141C0.226562 3.11607 0.291896 2.78941 0.422562 2.48141C0.553229 2.17341 0.730563 1.90741 0.954563 1.68341C1.1879 1.45007 1.4539 1.26807 1.75256 1.13741C2.06056 1.00674 2.3919 0.941406 2.74656 0.941406H4.70656C5.0519 0.941406 5.36923 1.00207 5.65856 1.12341C5.9479 1.23541 6.1999 1.39407 6.41456 1.59941C6.63856 1.80474 6.8159 2.04741 6.94656 2.32741C7.08656 2.59807 7.1799 2.89207 7.22656 3.20941L5.26656 3.69941C5.26656 3.47541 5.18256 3.27941 5.01456 3.11141C4.84656 2.93407 4.6039 2.84541 4.28656 2.84541H3.16656C2.51323 2.84541 2.18656 3.17207 2.18656 3.82541V9.11741C2.18656 9.77074 2.51323 10.0974 3.16656 10.0974H4.28656C4.9399 10.0974 5.26656 9.77074 5.26656 9.11741V8.06741H3.86656V6.16341H7.22656V9.48141Z" fill="white"/>
<path d="M15.7715 9.48141C15.7715 9.83607 15.7062 10.1674 15.5755 10.4754C15.4448 10.7741 15.2628 11.0401 15.0295 11.2734C14.8055 11.4974 14.5395 11.6747 14.2315 11.8054C13.9235 11.9361 13.5968 12.0014 13.2515 12.0014H8.77148V10.0974H9.33148V2.84541H8.77148V0.941406H13.2515C13.5968 0.941406 13.9235 1.00674 14.2315 1.13741C14.5395 1.26807 14.8055 1.45007 15.0295 1.68341C15.2628 1.90741 15.4448 2.17341 15.5755 2.48141C15.7062 2.78941 15.7715 3.11607 15.7715 3.46141V4.62341C15.7715 4.93141 15.7388 5.19274 15.6735 5.40741C15.6082 5.61274 15.5242 5.78541 15.4215 5.92541C15.3282 6.06541 15.2255 6.17741 15.1135 6.26141C15.0108 6.34541 14.9175 6.41074 14.8335 6.45741C14.9268 6.51341 15.0248 6.58341 15.1275 6.66741C15.2395 6.75141 15.3422 6.86341 15.4355 7.00341C15.5288 7.13407 15.6082 7.30207 15.6735 7.50741C15.7388 7.71274 15.7715 7.97407 15.7715 8.29141V9.48141ZM13.8115 4.55341V3.82541C13.8115 3.17207 13.4848 2.84541 12.8315 2.84541H11.2915V5.53341H12.8315C13.4848 5.53341 13.8115 5.20674 13.8115 4.55341ZM13.8115 9.11741V8.41741C13.8115 7.76407 13.4848 7.43741 12.8315 7.43741H11.2915V10.0974H12.8315C13.1488 10.0974 13.3915 10.0134 13.5595 9.84541C13.7275 9.66807 13.8115 9.42541 13.8115 9.11741Z" fill="white"/>
</svg>
