<svg width="40" height="40" viewBox="0 0 40 40" fill="none" xmlns="http://www.w3.org/2000/svg">
<path fill="#60759E" d="M20.0261 14.1667C19.5565 14.2188 18.8261 14.3229 18.3565 14.4271C18.5652 14.7917 18.7217 15.4688 18.7739 15.8333C18.7739 17.4479 17.4174 18.75 15.8522 18.75C15.4348 18.75 14.7565 18.5938 14.4435 18.3854C14.287 18.8542 14.1826 19.5313 14.1826 20C14.1826 23.2292 16.7913 25.8333 20.0261 25.8333C23.2609 25.8333 25.8696 23.2292 25.8696 20C25.8696 16.8229 23.2609 14.1667 20.0261 14.1667ZM34.8435 19.2708C32.0261 13.75 26.3913 10 20.0261 10C13.6087 10 7.97391 13.75 5.15652 19.2708C5.05217 19.4792 5 19.7917 5 20.0521C5 20.2604 5.05217 20.5729 5.15652 20.7813C7.97391 26.3021 13.6087 30 20.0261 30C26.3913 30 32.0261 26.3021 34.8435 20.7813C34.9478 20.5729 35 20.2604 35 20C35 19.7917 34.9478 19.4792 34.8435 19.2708ZM20.0261 27.5C14.8609 27.5 10.113 24.6354 7.6087 20C10.113 15.3646 14.8609 12.5 20.0261 12.5C25.1391 12.5 29.887 15.3646 32.3913 20C29.887 24.6354 25.1391 27.5 20.0261 27.5Z" />
</svg>
