<svg xmlns="http://www.w3.org/2000/svg" width="25" height="24" fill="none" viewBox="0 0 25 24">
    <path fill="#60759E" d="M19.76 6.44l-1.645-1.646c-.793-.792-2.104-.792-2.896 0l-9.693 9.628-.732 4.54c-.091.488.335.914.823.823l4.542-.731 9.632-9.69c.793-.792.793-2.102-.03-2.924zm-8.87 7.251c.122.122.305.183.488.183.153 0 .335-.06.457-.183l3.628-3.626.884.884-5.152 5.18v-1.28H9.732v-1.463h-1.28l5.182-5.149.884.884-3.628 3.626c-.274.274-.274.67 0 .944zm-3.596 4.48l-.884-.884.396-2.225.549-.579h1.28v1.463h1.463v1.28l-.58.548-2.224.396zm11.552-9.75l-1.493 1.492-2.683-2.681 1.494-1.493c.274-.274.731-.274 1.006 0l1.646 1.645c.305.305.305.762.03 1.036z"/>
</svg>
