<?xml version="1.0" encoding="utf-8"?>
<!-- Generator: Adobe Illustrator 25.1.0, SVG Export Plug-In . SVG Version: 6.00 Build 0)  -->
<svg version="1.1" id="Layer_1" xmlns="http://www.w3.org/2000/svg" xmlns:xlink="http://www.w3.org/1999/xlink" x="0px" y="0px"
	 viewBox="0 0 40 40" style="enable-background:new 0 0 40 40;" xml:space="preserve">
<style type="text/css">
	.st0{fill:#0085FF;}
</style>
<path class="st0" d="M24.6,21.7c-1.5,0-2.2,0.8-4.6,0.8s-3.1-0.8-4.6-0.8c-3.8,0-6.9,3.1-6.9,6.9v2.1c0,1.4,1.1,2.5,2.5,2.5h18.2
	c1.4,0,2.5-1.1,2.5-2.5v-2.1C31.6,24.8,28.5,21.7,24.6,21.7z M29.9,30.8c0,0.5-0.4,0.8-0.8,0.8H10.9c-0.5,0-0.8-0.4-0.8-0.8v-2.1
	c0-2.9,2.4-5.3,5.3-5.3c1,0,2,0.8,4.6,0.8c2.6,0,3.6-0.8,4.6-0.8c2.9,0,5.3,2.4,5.3,5.3V30.8z M20,20c3.7,0,6.6-3,6.6-6.6
	s-3-6.6-6.6-6.6s-6.6,3-6.6,6.6S16.3,20,20,20z M20,8.5c2.7,0,5,2.2,5,5s-2.2,5-5,5s-5-2.2-5-5S17.3,8.5,20,8.5z"/>
</svg>
