<svg xmlns="http://www.w3.org/2000/svg" width="30" height="30" fill="none" viewBox="0 0 30 30">
    <path fill="#60759E" d="M26.775 23.189L4.385 5.402c-.112-.076-.262-.152-.374-.152-.187 0-.374.114-.487.229l-.374.495c-.075.076-.15.266-.15.38 0 .153.112.381.262.458l22.39 17.824c.075.076.225.114.374.114.15 0 .337-.076.45-.229l.374-.457c.075-.076.15-.266.15-.38 0-.153-.112-.381-.225-.495zM14.12 10.849l5.055 3.999c-.075-2.286-1.91-4.114-4.156-4.114-.262.039-.637.076-.899.115zm1.76 8.34l-5.055-3.999c.075 2.286 1.91 4.076 4.194 4.076.224 0 .599-.038.86-.076zm-.861-9.673c3.669 0 7.076 2.094 8.873 5.484-.374.724-1.085 1.752-1.647 2.323l1.423 1.105c.674-.724 1.535-1.98 1.984-2.857.075-.152.15-.38.15-.571 0-.152-.075-.38-.15-.533-2.022-4.037-6.065-6.78-10.633-6.78-1.386 0-2.696.267-3.932.724l1.723 1.41c.711-.191 1.46-.305 2.209-.305zm0 10.968c-3.707 0-7.114-2.094-8.911-5.484.374-.685 1.085-1.714 1.647-2.285L6.332 11.61c-.674.724-1.535 1.98-1.984 2.857-.075.152-.112.38-.112.571 0 .152.037.38.112.533 2.022 4.037 6.065 6.742 10.67 6.742 1.349 0 2.66-.267 3.895-.686l-1.723-1.41c-.711.191-1.46.267-2.171.267z"/>
</svg>
