<svg xmlns="http://www.w3.org/2000/svg" width="25" height="24" fill="none" viewBox="0 0 25 24">
    <path fill="#60759E" d="M13.878 16.875h.707c.177 0 .354-.152.354-.365V9.928c0-.182-.177-.365-.354-.365h-.707c-.206 0-.354.183-.354.365v6.582c0 .213.148.365.354.365zM18.71 6.638h-2.445L15.263 4.93c-.236-.396-.766-.73-1.208-.73h-2.976c-.442 0-.972.334-1.208.73L8.869 6.638H6.453c-.265 0-.471.243-.471.487v.488c0 .274.206.487.471.487h.472v10.238c0 .822.618 1.462 1.414 1.462h8.486c.766 0 1.414-.64 1.414-1.462V8.1h.471c.236 0 .472-.213.472-.487v-.488c0-.244-.236-.487-.472-.487zm-7.69-.884c.03-.03.118-.091.147-.091h2.8c.029 0 .117.06.147.091l.5.884H10.52l.501-.884zm5.805 12.584H8.338V8.1h8.486v10.238zm-6.247-1.463h.707c.177 0 .354-.152.354-.365V9.928c0-.182-.177-.365-.354-.365h-.707c-.206 0-.353.183-.353.365v6.582c0 .213.147.365.353.365z"/>
</svg>
