<svg width="74" height="74" viewBox="0 0 74 74" fill="none" xmlns="http://www.w3.org/2000/svg">
<style type="text/css">
	.st0{fill:#0069CC;}
	.st1{fill:#FFFFFF;}
</style>
<circle class="st0" cx="37" cy="38" r="30"/>
<path class="st1" d="M37,57.6c0,0-0.1,0-0.1,0c-8.4-1.7-12.4-6.8-14.2-10.7c-1.2-2.6-1.9-5.4-1.9-8.2V24.3c0-0.1,0.1-0.3,0.2-0.4
	c0.1-0.1,0.2-0.2,0.4-0.2c9.3-0.9,15.4-3.8,15.4-3.9c0.1,0,0.2-0.1,0.3-0.1c0.1,0,0.2,0,0.3,0.1c0.1,0,6.2,2.9,15.4,3.9
	c0.1,0,0.3,0.1,0.4,0.2c0.1,0.1,0.2,0.3,0.2,0.4v14.3c-0.1,2.8-0.7,5.6-1.9,8.2c-1.8,4-5.8,9-14.2,10.7C37.1,57.6,37,57.6,37,57.6z
	 M21.9,24.9v13.8c0.1,2.7,0.7,5.3,1.9,7.8c2.5,5.3,6.9,8.7,13.2,10c6.3-1.3,10.7-4.7,13.2-10c1.1-2.4,1.8-5.1,1.8-7.8V24.9
	c-8.2-0.9-13.8-3.2-15-3.8C35.7,21.6,30.2,24,21.9,24.9L21.9,24.9z" fill="white"/>
</svg>
