<?xml version="1.0" encoding="utf-8"?>
<!-- Generator: Adobe Illustrator 25.1.0, SVG Export Plug-In . SVG Version: 6.00 Build 0)  -->
<svg version="1.1" id="Layer_1" xmlns="http://www.w3.org/2000/svg" xmlns:xlink="http://www.w3.org/1999/xlink" x="0px" y="0px"
	 viewBox="0 0 40 40" style="enable-background:new 0 0 40 40;" xml:space="preserve">
<style type="text/css">
	.st0{fill-rule:evenodd;clip-rule:evenodd;fill:#0085FF;}
</style>
<path class="st0" d="M33,13.4h4.6c0.3,0,0.6,0.3,0.6,0.6v3c0,0.3-0.3,0.6-0.6,0.6h-3.2c0.9,0.9,1.5,2.2,1.5,3.6v11.5
	c0,0.3-0.3,0.6-0.6,0.6h-4.6c-0.3,0-0.6-0.3-0.6-0.6v-3H9.7v3c0,0.3-0.2,0.6-0.6,0.6H4.6C4.3,33.2,4,33,4,32.6V21.2
	c0-1.4,0.6-2.7,1.5-3.6H2.3c-0.3,0-0.6-0.3-0.6-0.6v-3c0-0.3,0.3-0.6,0.6-0.6h4.6c0.3,0,0.6,0.3,0.6,0.6v2.5l2.6-7.1
	c0.6-1.6,2-2.6,3.6-2.6h12.6c1.6,0,3.1,1.1,3.6,2.7l2.5,6.9V14C32.4,13.7,32.7,13.4,33,13.4z M13.6,8c-1.1,0-2.1,0.7-2.5,1.8
	l-2.4,6.6h22.5l-2.4-6.5C28.4,8.7,27.4,8,26.2,8C26.2,8,13.6,8,13.6,8z M6.3,14.6H2.9v1.8h3.4L6.3,14.6L6.3,14.6z M34.8,32V21.2
	c0-2-1.5-3.6-3.4-3.6H8.6c-1.9,0-3.4,1.6-3.4,3.6V32h3.4v-3c0-0.3,0.2-0.6,0.6-0.6h21.6c0.3,0,0.6,0.3,0.6,0.6v3L34.8,32L34.8,32z
	 M33.6,16.4H37v-1.8h-3.4V16.4z M7.5,22.4c0-1.3,1-2.4,2.3-2.4c1.3,0,2.3,1.1,2.3,2.4c0,1.3-1,2.4-2.3,2.4
	C8.5,24.9,7.5,23.8,7.5,22.4z M8.6,22.4c0,0.7,0.5,1.2,1.1,1.2c0.6,0,1.1-0.5,1.1-1.2c0-0.7-0.5-1.2-1.1-1.2
	C9.1,21.2,8.6,21.8,8.6,22.4z M30.2,20c-1.3,0-2.3,1.1-2.3,2.4c0,1.3,1,2.4,2.3,2.4c1.3,0,2.3-1.1,2.3-2.4
	C32.5,21.1,31.4,20,30.2,20z M30.2,23.6c-0.6,0-1.1-0.5-1.1-1.2c0-0.7,0.5-1.2,1.1-1.2s1.1,0.5,1.1,1.2
	C31.3,23.1,30.8,23.6,30.2,23.6z M12,24.8H28c0.3,0,0.6,0.3,0.6,0.6c0,0.3-0.3,0.6-0.6,0.6H12c-0.3,0-0.6-0.3-0.6-0.6
	C11.4,25.1,11.7,24.8,12,24.8L12,24.8z"/>
</svg>
