<?xml version="1.0" encoding="utf-8"?>
<!-- Generator: Adobe Illustrator 25.1.0, SVG Export Plug-In . SVG Version: 6.00 Build 0)  -->
<svg version="1.1" id="Layer_1" xmlns="http://www.w3.org/2000/svg" xmlns:xlink="http://www.w3.org/1999/xlink" x="0px" y="0px"
	 viewBox="0 0 62 62" style="enable-background:new 0 0 62 62;" xml:space="preserve" width="62" height="62">
<style type="text/css">
	.st0{fill:#0069CC;}
	.st1{fill-rule:evenodd;clip-rule:evenodd;fill:#FFFFFF;}
</style>
<circle class="st0" cx="31" cy="31" r="31"/>
<path class="st1" d="M19.1,32.9c-3.8-3.8-3.8-10,0-13.8c3.8-3.8,10-3.8,13.8,0c2.5,2.5,3.4,6.1,2.4,9.4l1.8,1.8c0,0,0,0,0,0
	c0.3,0.3,0.5,0.7,0.5,1.1v0.7h0.8c0.5,0,0.9,0.2,1.2,0.5l0,0c0.3,0.3,0.4,0.8,0.4,1.2l-0.1,0.5l1,0.1l0,0c0.8,0.1,1.3,0.7,1.4,1.4
	l0.1,1l0.5-0.1c0.5-0.1,0.9,0.1,1.3,0.5l1.2,1.2c0.3,0.3,0.5,0.7,0.5,1.1v4.6c0,0.9-0.7,1.6-1.6,1.6h-4.6c-0.4,0-0.8-0.2-1.1-0.5
	l-9.8-9.8C25.2,36.4,21.6,35.4,19.1,32.9z M20.2,20.2c-3.2,3.2-3.2,8.5,0,11.7c2.2,2.2,5.5,3,8.4,2c0.3-0.1,0.6,0,0.8,0.2l10.2,10.2
	c0,0,0,0,0,0c0,0,0,0,0,0h4.6c0,0,0.1,0,0.1-0.1v-4.6c0,0,0,0,0,0l-1.2-1.2c0,0,0,0-0.1,0c0,0,0,0,0,0l-1.2,0.1
	c-0.2,0-0.4,0-0.6-0.2c-0.2-0.1-0.3-0.3-0.3-0.5L40.8,36c0,0,0,0,0,0c0,0,0,0,0,0c0,0,0,0,0,0c0,0,0,0,0,0L39,35.8
	c-0.2,0-0.4-0.1-0.5-0.3c-0.1-0.2-0.2-0.4-0.2-0.6l0.1-1.2l0,0c0,0,0,0,0,0c0,0,0,0,0,0c0,0,0,0,0,0c0,0,0,0,0,0h-1.5
	c-0.4,0-0.8-0.3-0.8-0.8v-1.5c0,0,0,0,0,0l0,0L34,29.3c-0.2-0.2-0.3-0.5-0.2-0.8c1-3,0.2-6.1-1.9-8.3C28.6,16.9,23.4,16.9,20.2,20.2
	z M22.5,22.5c-0.7,0.7-0.7,1.8,0,2.4c0.7,0.7,1.8,0.7,2.4,0c0.7-0.7,0.7-1.8,0-2.4l0,0C24.2,21.8,23.2,21.8,22.5,22.5z M21.4,26
	c-1.3-1.2-1.3-3.3,0-4.5c1.2-1.2,3.3-1.3,4.5,0L25.4,22l0.5-0.5c0,0,0,0,0,0c1.2,1.3,1.2,3.3,0,4.5C24.7,27.2,22.7,27.2,21.4,26z"/>
</svg>
