<svg width="40" height="40" viewBox="0 0 40 40" fill="none" xmlns="http://www.w3.org/2000/svg">
<path fill-rule="evenodd" clip-rule="evenodd" d="M8.10741 21.9307C4.2976 18.1215 4.29753 11.9211 8.10719 8.11187C11.9173 4.29673 18.1185 4.2974 21.9335 8.10577C24.4311 10.603 25.2994 14.1762 24.3824 17.5199L26.1455 19.3059C26.1462 19.3066 26.1469 19.3073 26.1476 19.308C26.4385 19.6 26.6058 19.997 26.6058 20.416L26.6058 21.1644L27.3818 21.1644C27.8324 21.1644 28.2518 21.355 28.5501 21.6841L28.5589 21.6938C28.8348 22.009 29.0044 22.4537 28.9407 22.9232L28.8842 23.4004L29.8484 23.4919L29.8501 23.492C30.6006 23.565 31.1894 24.1535 31.2624 24.9042L31.3544 25.8731L31.8442 25.8173C32.3151 25.765 32.7928 25.9302 33.1301 26.2675L34.2896 27.4268C34.5818 27.719 34.75 28.1169 34.75 28.5369L34.75 33.1797C34.75 34.0479 34.0476 34.75 33.1796 34.75L28.5359 34.75C28.116 34.75 27.7181 34.5819 27.4259 34.2898L17.5844 24.4447C14.2242 25.3573 10.5988 24.4216 8.10741 21.9307ZM9.16798 9.1724C5.94401 12.3958 5.94401 17.6465 9.16798 20.8699C11.3684 23.07 14.6183 23.8382 17.5686 22.885C17.8366 22.7984 18.1305 22.8693 18.3296 23.0685L28.4864 33.229C28.4865 33.2291 28.4864 33.229 28.4864 33.229C28.5005 33.243 28.5183 33.25 28.5359 33.25L33.1796 33.25C33.2194 33.25 33.25 33.2193 33.25 33.1797L33.25 28.5369C33.25 28.5193 33.2431 28.5016 33.2291 28.4876L32.0695 27.3282C32.0569 27.3156 32.0316 27.3059 32.0103 27.308C32.0101 27.3081 32.0104 27.308 32.0103 27.308L30.7649 27.45C30.5649 27.4728 30.364 27.4143 30.2076 27.2874C30.0512 27.1606 29.9524 26.9762 29.9333 26.7758L29.7694 25.0494C29.7694 25.0492 29.7694 25.0495 29.7694 25.0494C29.7673 25.0284 29.7592 25.0142 29.7497 25.0047C29.7402 24.9952 29.7264 24.9872 29.7053 24.985C29.7052 24.985 29.7055 24.9851 29.7053 24.985L27.9783 24.8211C27.7772 24.802 27.5924 24.7027 27.4655 24.5456C27.3387 24.3884 27.2806 24.1868 27.3043 23.9862L27.452 22.7394L27.4538 22.7256C27.4536 22.7244 27.4531 22.7222 27.4521 22.719C27.4492 22.7101 27.4433 22.6984 27.4343 22.6868C27.4253 22.678 27.4172 22.673 27.4106 22.6701C27.4031 22.6667 27.394 22.6644 27.3818 22.6644L25.8558 22.6644C25.4416 22.6644 25.1058 22.3286 25.1058 21.9144L25.1058 20.416C25.1058 20.3984 25.099 20.3807 25.0849 20.3667L25.0814 20.3632L23.003 18.2578C22.8063 18.0585 22.737 17.7663 22.8232 17.4999C23.779 14.5476 23.0677 11.3612 20.8738 9.16735C17.644 5.94315 12.3918 5.94416 9.16798 9.1724ZM11.4871 11.4911C10.8228 12.1552 10.8228 13.2443 11.4871 13.9084C12.1514 14.5726 13.2408 14.5726 13.9051 13.9084C14.5693 13.2443 14.5693 12.1552 13.9051 11.4911L13.9036 11.4896C13.2416 10.8239 12.1533 10.825 11.4871 11.4911ZM10.4265 14.9691C9.17637 13.7192 9.17637 11.6803 10.4265 10.4303C11.6746 9.18243 13.7149 9.17261 14.9672 10.4319L14.4354 10.9607L14.9657 10.4303C14.9662 10.4308 14.9667 10.4314 14.9672 10.4319C16.2158 11.6819 16.2153 13.7197 14.9657 14.9691C13.7156 16.219 11.6766 16.219 10.4265 14.9691Z" fill="white"/>
</svg>
