<svg width="40" height="40" viewBox="0 0 40 40" fill="none" xmlns="http://www.w3.org/2000/svg">
<path d="M6.2 24.4531C5.85 24.6562 5.7 25.1641 5.9 25.5703L6.3 26.2305C6.55 26.6367 7.05 26.7891 7.4 26.5352L12.05 23.793C11.65 23.2852 11.05 22.3711 10.75 21.8125L6.2 24.4531ZM9.6 16.5312H4.8C4.35 16.5312 4 16.9375 4 17.3438V18.1562C4 18.6133 4.35 18.9688 4.8 18.9688H9.8C9.7 18.4102 9.6 17.4961 9.6 16.9375C9.6 16.8359 9.6 16.6836 9.6 16.5312ZM16 31.3594C16 31.5117 16 31.6641 16.1 31.8164L17.35 33.6445C17.5 33.8984 17.75 34 18 34H21.95C22.2 34 22.45 33.8984 22.6 33.6445L23.85 31.8164C23.9 31.6641 23.95 31.5117 23.95 31.3594V29.125H16V31.3594ZM6.2 11.0977L10.15 13.4336C10.45 12.6719 10.8 11.9102 11.25 11.25L7.4 9.01562C7.05 8.76172 6.55 8.91406 6.3 9.32031L5.9 9.98047C5.7 10.3867 5.85 10.8945 6.2 11.0977ZM33.75 11.0977C34.1 10.8945 34.25 10.3867 34.05 9.98047L33.65 9.32031C33.4 8.91406 32.9 8.76172 32.55 9.01562L28.7 11.25C29.15 11.9102 29.5 12.6719 29.75 13.4336L33.75 11.0977ZM33.75 24.4531L29.2 21.7617C28.8 22.4727 28.4 23.1836 27.85 23.793L32.55 26.5352C32.9 26.7891 33.4 26.6367 33.65 26.2305L34.05 25.5703C34.25 25.1641 34.1 24.6562 33.75 24.4531ZM35.2 16.5312H30.35C30.35 16.6836 30.4 16.8359 30.4 16.9375C30.4 17.6484 30.3 18.3086 30.15 18.9688H35.2C35.6 18.9688 36 18.6133 36 18.1562V17.3438C36 16.9375 35.6 16.5312 35.2 16.5312ZM20 8C14.85 8 11.2 12.2148 11.2 16.9375C11.2 19.2227 12 21.2539 13.35 22.8281C14.2 23.793 15.5 25.8242 15.95 27.5H18.35C18.35 27.2969 18.35 27.043 18.25 26.7891C18 25.875 17.15 23.5391 15.15 21.2539C14.15 20.0352 13.6 18.5117 13.6 16.9375C13.55 13.2305 16.55 10.4375 20 10.4375C23.5 10.4375 26.4 13.3828 26.4 16.9375C26.4 18.5117 25.8 20.0352 24.8 21.2539C22.85 23.4883 21.95 25.875 21.7 26.7891C21.65 26.9922 21.6 27.2969 21.6 27.5H24C24.45 25.8242 25.75 23.793 26.6 22.8281C27.95 21.2539 28.8 19.2227 28.8 16.9375C28.8 12.0117 24.85 8 20 8Z" fill="white"/>
</svg>
