 <svg width="62" height="62" viewBox="0 0 62 62" fill="none" xmlns="http://www.w3.org/2000/svg">
        <circle cx="31" cy="31" r="31" fill="#0069CC" />
        <path d="M41.0841 32.3091H41.0042C40.8529 32.3091 40.7077 32.249 40.6007 32.142C40.4937 32.035 40.4336 31.8899 40.4336 31.7386C40.4336 31.5872 40.4937 31.4421 40.6007 31.3351C40.7077 31.2281 40.8529 31.168 41.0042 31.168H41.0841C41.2354 31.168 41.3805 31.2281 41.4875 31.3351C41.5945 31.4421 41.6547 31.5872 41.6547 31.7386C41.6547 31.8899 41.5945 32.035 41.4875 32.142C41.3805 32.249 41.2354 32.3091 41.0841 32.3091Z" fill="white" />
        <path d="M31.3774 46.1762H21.9817C21.5105 46.1777 21.0436 46.086 20.6079 45.9063C20.1723 45.7267 19.7764 45.4627 19.4432 45.1294C19.11 44.7962 18.846 44.4004 18.6663 43.9647C18.4867 43.5291 18.395 43.0622 18.3965 42.591V31.8753C18.3965 31.7239 18.4566 31.5788 18.5636 31.4718C18.6706 31.3648 18.8158 31.3047 18.9671 31.3047H24.2926C24.4439 31.3047 24.5891 31.3648 24.6961 31.4718C24.8031 31.5788 24.8632 31.7239 24.8632 31.8753V35.586C24.8629 35.7265 24.8107 35.862 24.7167 35.9664C20.6256 40.5311 19.7526 41.6229 19.5814 41.8777C19.5312 42.297 19.5629 42.722 19.6746 43.1292C19.9656 44.0269 20.8538 44.9475 21.9836 44.9475H26.206C26.5502 44.2723 27.427 42.5548 28.5188 40.3828C28.5666 40.2887 28.6395 40.2098 28.7295 40.1547C28.8195 40.0997 28.923 40.0706 29.0285 40.0709H31.5296C31.6573 40.0765 31.7845 40.0917 31.91 40.1165C32.6684 40.2401 33.3521 40.6461 33.8236 41.2529C34.2951 41.8597 34.5196 42.6225 34.4519 43.388C34.3842 44.1535 34.0295 44.865 33.4588 45.3798C32.8882 45.8945 32.1439 46.1742 31.3755 46.1629L31.3774 46.1762ZM27.4422 45.035H31.3774C31.8622 45.0484 32.3338 44.8761 32.6958 44.5533C33.0578 44.2306 33.2828 43.7817 33.3248 43.2986C33.3669 42.8154 33.2227 42.3344 32.9219 41.954C32.6211 41.5736 32.1863 41.3225 31.7064 41.252H31.6874C31.6191 41.2387 31.5497 41.231 31.4801 41.2291H29.3765C28.5416 42.8782 27.8474 44.2419 27.4365 45.035H27.4422ZM19.5377 32.4421V40.1222C20.2756 39.2511 21.5404 37.8056 23.722 35.3673V32.4459L19.5377 32.4421Z" fill="white" />
        <path d="M34.7629 24.6276C34.6532 24.6267 34.5461 24.5941 34.4544 24.5338C34.3627 24.4735 34.2903 24.3881 34.246 24.2877C34.2016 24.1874 34.1871 24.0764 34.2043 23.968C34.2214 23.8596 34.2694 23.7584 34.3426 23.6767L34.5328 23.4636C34.586 23.4042 34.651 23.3565 34.7237 23.3238C34.7965 23.291 34.8753 23.2739 34.955 23.2734H35.189C35.3171 23.2742 35.4412 23.3181 35.5414 23.398C35.6415 23.4779 35.7119 23.5892 35.7411 23.7139C35.7703 23.8387 35.7567 23.9696 35.7024 24.0857C35.6481 24.2018 35.5564 24.2962 35.4419 24.3538L35.0102 24.5687C34.9332 24.6067 34.8487 24.6268 34.7629 24.6276Z" fill="white" />
        <path d="M41.0036 32.3091H36.9886C36.8372 32.3091 36.6921 32.249 36.5851 32.142C36.4781 32.035 36.418 31.8899 36.418 31.7386C36.418 31.5872 36.4781 31.4421 36.5851 31.3351C36.6921 31.2281 36.8372 31.168 36.9886 31.168H41.0093C41.1606 31.168 41.3058 31.2281 41.4128 31.3351C41.5198 31.4421 41.5799 31.5872 41.5799 31.7386C41.5799 31.8899 41.5198 32.035 41.4128 32.142C41.3058 32.249 41.1606 32.3091 41.0093 32.3091H41.0036Z" fill="white" />
        <path d="M41.8137 32.3074H41.0833C40.932 32.3074 40.7869 32.2473 40.6799 32.1403C40.5728 32.0333 40.5127 31.8882 40.5127 31.7369C40.5127 31.5855 40.5728 31.4404 40.6799 31.3334C40.7869 31.2264 40.932 31.1663 41.0833 31.1663H41.2431V28.9904C41.257 28.1608 41.0475 27.3428 40.6366 26.622C40.2257 25.9012 39.6284 25.3042 38.9075 24.8936C38.8219 24.8461 38.7363 24.8042 38.6507 24.7643C38.127 24.5258 37.5582 24.4026 36.9827 24.4029C36.8314 24.4029 36.6862 24.3428 36.5792 24.2358C36.4722 24.1288 36.4121 23.9836 36.4121 23.8323C36.4121 23.681 36.4722 23.5358 36.5792 23.4288C36.6862 23.3218 36.8314 23.2617 36.9827 23.2617C37.723 23.2615 38.4546 23.4204 39.1281 23.7277C39.2441 23.7829 39.3525 23.8361 39.4552 23.8932C40.3564 24.4013 41.104 25.1428 41.6194 26.0398C42.1348 26.9367 42.399 27.956 42.3843 28.9904V31.7369C42.3843 31.8882 42.3241 32.0333 42.2171 32.1403C42.1101 32.2473 41.965 32.3074 41.8137 32.3074Z" fill="white" />
        <path d="M18.9866 32.5034C18.8353 32.5034 18.6901 32.4432 18.5831 32.3362C18.4761 32.2292 18.416 32.0841 18.416 31.9328V28.9942C18.416 25.8332 20.8391 23.2617 23.8176 23.2617H34.9612C35.0709 23.2627 35.178 23.2952 35.2697 23.3555C35.3614 23.4158 35.4338 23.5012 35.4781 23.6016C35.5225 23.702 35.537 23.813 35.5198 23.9214C35.5027 24.0298 35.4547 24.1309 35.3815 24.2127L35.1818 24.4295C35.131 24.4846 35.0698 24.5291 35.0018 24.5606C34.9337 24.592 34.8602 24.6097 34.7853 24.6128C34.7104 24.6158 34.6357 24.604 34.5653 24.5781C34.495 24.5522 34.4304 24.5127 34.3754 24.4619C34.3545 24.4409 34.3335 24.42 34.3164 24.3991H23.8157C21.4687 24.3991 19.5572 26.4589 19.5572 28.9904V31.929C19.5577 32.0042 19.5433 32.0788 19.5149 32.1485C19.4864 32.2182 19.4445 32.2815 19.3914 32.3349C19.3384 32.3883 19.2753 32.4307 19.2058 32.4596C19.1364 32.4885 19.0619 32.5034 18.9866 32.5034Z" fill="white" />
        <path d="M24.2952 36.1525C24.2256 36.1524 24.1566 36.1395 24.0917 36.1145C23.9838 36.0733 23.8909 36.0003 23.8254 35.9053C23.7599 35.8102 23.7247 35.6974 23.7246 35.5819V31.9302C23.7246 31.7788 23.7847 31.6337 23.8917 31.5267C23.9987 31.4197 24.1439 31.3596 24.2952 31.3596C24.4465 31.3596 24.5917 31.4197 24.6987 31.5267C24.8057 31.6337 24.8658 31.7788 24.8658 31.9302V34.0908C28.2893 30.2869 32.1028 26.1025 33.9952 24.0465C34.0449 23.9876 34.1059 23.9394 34.1747 23.9048C34.2435 23.8701 34.3186 23.8497 34.3955 23.8449C34.4723 23.84 34.5494 23.8508 34.622 23.8765C34.6946 23.9022 34.7612 23.9424 34.8179 23.9946C34.8746 24.0467 34.9201 24.1098 34.9517 24.1801C34.9833 24.2503 35.0004 24.3262 35.0019 24.4032C35.0034 24.4802 34.9893 24.5567 34.9604 24.6281C34.9316 24.6996 34.8886 24.7644 34.834 24.8187C32.7627 27.0764 28.354 31.9054 24.7193 35.9623C24.6659 36.022 24.6006 36.0698 24.5275 36.1026C24.4544 36.1354 24.3753 36.1524 24.2952 36.1525Z" fill="white" />
        <path d="M34.9619 24.4107H34.1155C33.9642 24.4107 33.819 24.3506 33.712 24.2436C33.605 24.1366 33.5449 23.9915 33.5449 23.8401C33.5449 23.6888 33.605 23.5437 33.712 23.4367C33.819 23.3296 33.9642 23.2695 34.1155 23.2695H34.9657C35.0806 23.2702 35.1926 23.3056 35.287 23.3709C35.3815 23.4363 35.454 23.5287 35.4951 23.636C35.5362 23.7432 35.544 23.8604 35.5174 23.9722C35.4908 24.084 35.4311 24.1851 35.3461 24.2624C35.241 24.3579 35.104 24.4108 34.9619 24.4107Z" fill="white" />
        <path d="M34.7629 24.6276C34.6532 24.6267 34.5461 24.5941 34.4544 24.5338C34.3627 24.4735 34.2903 24.3881 34.246 24.2877C34.2016 24.1874 34.1871 24.0764 34.2043 23.968C34.2214 23.8596 34.2694 23.7584 34.3426 23.6767L34.5328 23.4636C34.586 23.4042 34.651 23.3565 34.7237 23.3238C34.7965 23.291 34.8753 23.2739 34.955 23.2734H35.189C35.3171 23.2742 35.4412 23.3181 35.5414 23.398C35.6415 23.4779 35.7119 23.5892 35.7411 23.7139C35.7703 23.8387 35.7567 23.9696 35.7024 24.0857C35.6481 24.2018 35.5564 24.2962 35.4419 24.3538L35.0102 24.5687C34.9332 24.6067 34.8487 24.6268 34.7629 24.6276Z" fill="white" />
        <path d="M41.0841 32.3091H41.0042C40.8529 32.3091 40.7077 32.249 40.6007 32.142C40.4937 32.035 40.4336 31.8899 40.4336 31.7386C40.4336 31.5872 40.4937 31.4421 40.6007 31.3351C40.7077 31.2281 40.8529 31.168 41.0042 31.168H41.0841C41.2354 31.168 41.3805 31.2281 41.4875 31.3351C41.5945 31.4421 41.6547 31.5872 41.6547 31.7386C41.6547 31.8899 41.5945 32.035 41.4875 32.142C41.3805 32.249 41.2354 32.3091 41.0841 32.3091Z" fill="white" />
        <path d="M26.5543 46.0915H21.9896C20.489 46.0915 19.091 45.0131 18.5908 43.4706C18.412 42.8528 18.3762 42.2023 18.4862 41.5686C18.5338 41.3518 18.5832 41.1255 23.8764 35.2142C27.5148 31.1478 31.9236 26.3149 33.9986 24.0592L34.3505 23.6788C34.3838 23.643 34.4215 23.6117 34.4627 23.5856C34.4937 23.5268 34.5349 23.4739 34.5844 23.4296C34.6886 23.3349 34.8241 23.2821 34.9648 23.2813H36.9866C37.0864 23.2809 37.1846 23.3058 37.272 23.3537C37.3595 23.4016 37.4334 23.4709 37.4868 23.5551C37.677 23.8614 37.7721 24.0002 36.2372 27.3153C34.5616 30.929 31.6725 36.711 29.5385 40.9258C28.1273 43.7236 27.066 45.7758 27.066 45.7948C27.0159 45.8863 26.9418 45.9623 26.8516 46.0146C26.7614 46.0669 26.6586 46.0935 26.5543 46.0915ZM19.5798 41.8806C19.5297 42.2998 19.5613 42.7248 19.673 43.132C19.964 44.0298 20.8523 44.9503 21.982 44.9503H26.2044C26.5486 44.2751 27.4254 42.5576 28.5172 40.3856C30.6436 36.1804 33.5288 30.4098 35.1969 26.8094C35.7827 25.5484 36.0927 24.818 36.2582 24.3977H35.2102C35.2018 24.41 35.1923 24.4215 35.1817 24.4319L34.8317 24.8123C32.7586 27.0681 28.3536 31.8971 24.719 35.9578C20.6278 40.5302 19.7548 41.6257 19.5798 41.8806Z" fill="white" />
        <path d="M30.9998 22.1793C29.8209 22.1793 28.6684 21.8297 27.6882 21.1748C26.708 20.5198 25.944 19.5888 25.4928 18.4997C25.0416 17.4105 24.9236 16.212 25.1536 15.0557C25.3836 13.8994 25.9513 12.8373 26.7849 12.0037C27.6186 11.1701 28.6807 10.6023 29.8369 10.3723C30.9932 10.1424 32.1917 10.2604 33.2809 10.7116C34.3701 11.1627 35.301 11.9267 35.956 12.907C36.611 13.8872 36.9606 15.0396 36.9606 16.2186C36.9586 17.7988 36.3299 19.3138 35.2125 20.4312C34.0951 21.5487 32.5801 22.1773 30.9998 22.1793ZM30.9998 11.399C30.0466 11.399 29.1148 11.6817 28.3222 12.2112C27.5296 12.7408 26.9119 13.4935 26.5471 14.3742C26.1823 15.2549 26.0869 16.2239 26.2729 17.1588C26.4588 18.0937 26.9178 18.9525 27.5919 19.6265C28.2659 20.3006 29.1247 20.7596 30.0596 20.9455C30.9945 21.1315 31.9635 21.0361 32.8442 20.6713C33.7249 20.3065 34.4776 19.6888 35.0071 18.8962C35.5367 18.1036 35.8194 17.1718 35.8194 16.2186C35.8179 14.9408 35.3096 13.7158 34.4061 12.8123C33.5026 11.9088 32.2776 11.4005 30.9998 11.399Z" fill="white" />
        <path d="M37.0807 43.9359H34.1155C33.9642 43.9359 33.819 43.8757 33.712 43.7687C33.605 43.6617 33.5449 43.5166 33.5449 43.3653C33.5449 43.2139 33.605 43.0688 33.712 42.9618C33.819 42.8548 33.9642 42.7947 34.1155 42.7947H36.5063L36.4188 31.7424C36.4181 31.667 36.4324 31.5922 36.4608 31.5223C36.4892 31.4524 36.5312 31.3889 36.5843 31.3353C36.6374 31.2821 36.7006 31.2399 36.7701 31.2112C36.8396 31.1825 36.9142 31.1678 36.9894 31.168H41.0843C41.2357 31.168 41.3808 31.2281 41.4878 31.3351C41.5948 31.4421 41.6549 31.5872 41.6549 31.7386V43.3653C41.6549 43.5166 41.5948 43.6617 41.4878 43.7687C41.3808 43.8757 41.2357 43.9359 41.0843 43.9359H37.0807ZM37.6513 42.7947H40.5175V32.3091H37.5638L37.6513 42.7947Z" fill="white" />
        <path d="M36.9886 32.3115C36.8372 32.3115 36.6921 32.2514 36.5851 32.1444C36.4781 32.0374 36.418 31.8922 36.418 31.7409V29.3597C36.418 29.2083 36.4781 29.0632 36.5851 28.9562C36.6921 28.8492 36.8372 28.7891 36.9886 28.7891C37.1399 28.7891 37.285 28.8492 37.392 28.9562C37.499 29.0632 37.5591 29.2083 37.5591 29.3597V31.7409C37.5591 31.8922 37.499 32.0374 37.392 32.1444C37.285 32.2514 37.1399 32.3115 36.9886 32.3115Z" fill="white" />
        <path d="M23.5335 32.3115C23.3821 32.3115 23.237 32.2514 23.13 32.1444C23.023 32.0374 22.9629 31.8922 22.9629 31.7409V29.3597C22.9629 29.2083 23.023 29.0632 23.13 28.9562C23.237 28.8492 23.3821 28.7891 23.5335 28.7891C23.6848 28.7891 23.8299 28.8492 23.9369 28.9562C24.044 29.0632 24.1041 29.2083 24.1041 29.3597V31.7409C24.1041 31.8922 24.044 32.0374 23.9369 32.1444C23.8299 32.2514 23.6848 32.3115 23.5335 32.3115Z" fill="white" />
    </svg>
    