<svg xmlns="http://www.w3.org/2000/svg" width="30" height="30" viewBox="0 0 30 30">
  <g id="Group_95" data-name="Group 95" transform="translate(-787 -1801)">
    <path id="Subtraction_2" data-name="Subtraction 2" d="M15,0A15,15,0,1,1,0,15,15,15,0,0,1,15,0Z" transform="translate(787 1801)" fill="#e10930"/>
    <path id="Path_865" data-name="Path 865" d="M9017.56,672.719A2.281,2.281,0,1,0,9015.28,675a2.28,2.28,0,0,0,2.279-2.282Zm-4.3-11.577.373,7.756a.7.7,0,0,0,.685.627h1.909a.706.706,0,0,0,.684-.627l.373-7.756a.7.7,0,0,0-.685-.741h-2.653a.687.687,0,0,0-.685.74Z" transform="translate(-8213 1148)" fill="#fff"/>
  </g>
</svg>
