<svg xmlns="http://www.w3.org/2000/svg" width="23" height="22" fill="none" viewBox="0 0 23 22">
    <path fill="#fff" d="M11.895 18.422c-.015 0-.03-.001-.046-.004-3.306-.675-4.853-2.664-5.567-4.216-.472-1.014-.731-2.114-.762-3.232V5.344c0-.058.02-.114.06-.157.038-.043.092-.07.15-.076 3.64-.357 6.04-1.502 6.064-1.513.031-.016.066-.024.101-.024.036 0 .07.008.102.024.024.011 2.425 1.156 6.064 1.513.058.006.111.033.15.076.04.043.06.099.06.157v5.631c-.031 1.117-.29 2.216-.762 3.23-.714 1.551-2.26 3.538-5.567 4.213-.015.003-.031.004-.047.004zM5.985 5.554v5.421c.038 1.056.286 2.093.731 3.05.97 2.09 2.717 3.41 5.183 3.926 2.47-.515 4.214-1.836 5.184-3.925.443-.958.69-1.994.727-3.048V5.554c-3.232-.346-5.42-1.266-5.91-1.49-.496.224-2.683 1.144-5.915 1.49z"/>
    <path fill="#fff" d="M11.896 16.991c-.018 0-.035-.002-.053-.006-2.022-.473-3.462-1.58-4.278-3.29-.405-.849-.632-1.771-.669-2.71V6.568c0-.056.02-.111.056-.154.037-.043.088-.07.143-.079 1.614-.227 3.196-.64 4.714-1.233.056-.023.118-.023.174 0 1.518.592 3.1 1.006 4.714 1.233.056.008.107.036.144.079.037.043.056.097.056.154v4.424c-.04.937-.268 1.856-.67 2.703-.816 1.707-2.255 2.817-4.277 3.29-.018.004-.036.005-.054.005zM7.362 6.77v4.217c.038.87.25 1.722.621 2.509.746 1.56 2.062 2.578 3.912 3.027 1.85-.446 3.165-1.464 3.911-3.027.37-.785.582-1.636.621-2.504V6.77c-1.55-.232-3.069-.634-4.53-1.197-1.464.563-2.984.965-4.535 1.197z"/>
    <path fill="#fff" d="M10.917 12.904c-.031 0-.062-.007-.09-.02-.03-.013-.055-.03-.076-.053-.306-.323-1.147-1.2-1.36-1.38-.047-.04-.076-.096-.082-.157-.005-.061.014-.122.054-.17.039-.046.095-.076.156-.082.062-.006.123.013.17.052.217.18.913.905 1.235 1.242L14.09 9.16c.02-.022.047-.04.075-.054.029-.012.06-.02.09-.02.032 0 .063.005.092.017.03.011.055.029.078.05.022.023.04.05.051.078.012.029.018.06.017.091 0 .032-.007.062-.02.091-.012.029-.03.054-.054.076l-3.337 3.349c-.044.043-.104.067-.165.066z"/>
</svg>
