<svg xmlns="http://www.w3.org/2000/svg" width="30" height="30" viewBox="0 0 30 30">
  <g id="Group_110" data-name="Group 110" transform="translate(-667 -1641)">
    <path id="Subtraction_2" data-name="Subtraction 2" d="M15,0A15,15,0,1,1,0,15,15,15,0,0,1,15,0Z" transform="translate(667 1641)" fill="#fff"/>
    <path id="Path_889" data-name="Path 889" d="M8900.72,675.376a.685.685,0,0,0,0,.969l.966.969a.691.691,0,0,0,.974,0l4.359-4.36,4.36,4.36a.69.69,0,0,0,.974,0l.967-.969a.685.685,0,0,0,0-.969l-4.359-4.361,4.359-4.361a.685.685,0,0,0,0-.969l-.967-.969a.69.69,0,0,0-.974,0l-4.36,4.361-4.359-4.361a.69.69,0,0,0-.973,0l-.967.969a.685.685,0,0,0,0,.969l4.358,4.361Z" transform="translate(-8225 985)" fill-rule="evenodd"/>
  </g>
</svg>
