<svg xmlns="http://www.w3.org/2000/svg" width="36" height="38" fill="none" viewBox="0 0 36 38">
    <circle cx="18" cy="19.695" r="17.5" fill="#fff" stroke="#AFBDD1"/>
    <path fill="#011831" d="M19.678 19.67l5.158-5.108 1.051-1.051c.15-.15.15-.401 0-.601l-1.101-1.102c-.2-.15-.451-.15-.601 0l-6.16 6.21-6.21-6.21c-.15-.15-.4-.15-.6 0l-1.102 1.102c-.15.2-.15.45 0 .6l6.21 6.16-6.21 6.21c-.15.15-.15.4 0 .6l1.101 1.103c.2.15.451.15.601 0l6.21-6.21 5.108 5.158 1.052 1.052c.15.15.4.15.6 0l1.102-1.102c.15-.2.15-.45 0-.601l-6.21-6.21z"/>
</svg>
