<svg width="78" height="27" viewBox="0 0 78 27" fill="none" xmlns="http://www.w3.org/2000/svg">
<path d="M26.3193 9.12C25.8473 9.12 25.4353 9.056 25.0833 8.928C24.7313 8.8 24.4393 8.656 24.2073 8.496C23.9353 8.312 23.6993 8.1 23.4993 7.86L24.2793 7.14C24.4153 7.316 24.5833 7.476 24.7833 7.62C24.9513 7.74 25.1593 7.852 25.4073 7.956C25.6633 8.052 25.9673 8.1 26.3193 8.1C26.6073 8.1 26.8673 8.056 27.0993 7.968C27.3393 7.872 27.5433 7.748 27.7113 7.596C27.8793 7.436 28.0073 7.252 28.0953 7.044C28.1913 6.828 28.2393 6.6 28.2393 6.36C28.2393 6.104 28.1913 5.868 28.0953 5.652C28.0073 5.428 27.8793 5.236 27.7113 5.076C27.5513 4.916 27.3553 4.792 27.1233 4.704C26.8993 4.608 26.6513 4.56 26.3793 4.56C26.0753 4.56 25.8153 4.604 25.5993 4.692C25.3833 4.78 25.2033 4.876 25.0593 4.98C24.8913 5.108 24.7513 5.248 24.6393 5.4L23.8593 5.34L24.1593 0.599999H28.7793V1.62H25.1193L24.9393 3.96C25.0673 3.888 25.2073 3.82 25.3593 3.756C25.4953 3.7 25.6553 3.652 25.8393 3.612C26.0313 3.564 26.2513 3.54 26.4993 3.54C26.8913 3.54 27.2553 3.616 27.5913 3.768C27.9353 3.912 28.2353 4.112 28.4913 4.368C28.7473 4.624 28.9473 4.924 29.0913 5.268C29.2433 5.604 29.3193 5.968 29.3193 6.36C29.3193 6.752 29.2473 7.116 29.1033 7.452C28.9593 7.788 28.7553 8.08 28.4913 8.328C28.2273 8.576 27.9113 8.772 27.5433 8.916C27.1753 9.052 26.7673 9.12 26.3193 9.12ZM35.8541 9.12C35.3501 9.12 34.9181 9.056 34.5581 8.928C34.1981 8.8 33.8941 8.656 33.6461 8.496C33.3581 8.312 33.1141 8.1 32.9141 7.86L33.6341 7.14C33.7861 7.316 33.9701 7.476 34.1861 7.62C34.3701 7.74 34.5981 7.852 34.8701 7.956C35.1421 8.052 35.4701 8.1 35.8541 8.1C36.4541 8.1 36.9021 7.968 37.1981 7.704C37.5021 7.44 37.6541 7.112 37.6541 6.72C37.6541 6.464 37.5901 6.256 37.4621 6.096C37.3341 5.928 37.1621 5.788 36.9461 5.676C36.7381 5.564 36.4981 5.472 36.2261 5.4C35.9621 5.32 35.6861 5.24 35.3981 5.16C35.1181 5.072 34.8421 4.972 34.5701 4.86C34.3061 4.748 34.0661 4.608 33.8501 4.44C33.6421 4.264 33.4741 4.048 33.3461 3.792C33.2181 3.528 33.1541 3.204 33.1541 2.82C33.1541 2.524 33.2141 2.236 33.3341 1.956C33.4621 1.668 33.6421 1.416 33.8741 1.2C34.1141 0.983999 34.4061 0.812 34.7501 0.684C35.0941 0.548 35.4821 0.48 35.9141 0.48C36.3301 0.48 36.6981 0.536 37.0181 0.648C37.3461 0.76 37.6181 0.884 37.8341 1.02C38.0901 1.18 38.3101 1.36 38.4941 1.56L37.7741 2.28C37.6381 2.136 37.4781 2.008 37.2941 1.896C37.1341 1.8 36.9381 1.712 36.7061 1.632C36.4821 1.544 36.2181 1.5 35.9141 1.5C35.3701 1.5 34.9541 1.632 34.6661 1.896C34.3781 2.152 34.2341 2.46 34.2341 2.82C34.2341 3.076 34.2981 3.288 34.4261 3.456C34.5541 3.616 34.7221 3.752 34.9301 3.864C35.1461 3.976 35.3861 4.072 35.6501 4.152C35.9221 4.224 36.1981 4.304 36.4781 4.392C36.7661 4.472 37.0421 4.568 37.3061 4.68C37.5781 4.792 37.8181 4.936 38.0261 5.112C38.2421 5.28 38.4141 5.496 38.5421 5.76C38.6701 6.016 38.7341 6.336 38.7341 6.72C38.7341 7.048 38.6661 7.36 38.5301 7.656C38.4021 7.944 38.2141 8.196 37.9661 8.412C37.7181 8.628 37.4141 8.8 37.0541 8.928C36.7021 9.056 36.3021 9.12 35.8541 9.12ZM42.4593 9.12C41.2993 9.12 40.7193 8.52 40.7193 7.32V4.2H39.6393V3.24H40.2993C40.4513 3.24 40.5673 3.196 40.6473 3.108C40.7353 3.012 40.7793 2.856 40.7793 2.64V1.32H41.7393V3.24H43.0593V4.2H41.7393V7.26C41.7393 7.564 41.8073 7.792 41.9433 7.944C42.0873 8.088 42.2873 8.16 42.5433 8.16C42.6393 8.16 42.7313 8.152 42.8193 8.136C42.9153 8.12 42.9993 8.1 43.0713 8.076C43.1593 8.044 43.2353 8.012 43.2993 7.98V8.94C43.2273 8.972 43.1473 9.004 43.0593 9.036C42.9793 9.06 42.8873 9.08 42.7833 9.096C42.6873 9.112 42.5793 9.12 42.4593 9.12ZM46.1807 9.12C45.8767 9.12 45.6047 9.076 45.3647 8.988C45.1247 8.892 44.9167 8.768 44.7407 8.616C44.5647 8.464 44.4287 8.288 44.3327 8.088C44.2447 7.88 44.2007 7.664 44.2007 7.44C44.2007 6.96 44.3447 6.572 44.6327 6.276C44.9207 5.98 45.3367 5.788 45.8807 5.7L48.0407 5.34C48.0407 4.98 47.9167 4.68 47.6687 4.44C47.4287 4.2 47.1127 4.08 46.7207 4.08C46.4807 4.08 46.2647 4.124 46.0727 4.212C45.8807 4.292 45.7167 4.38 45.5807 4.476C45.4207 4.588 45.2807 4.716 45.1607 4.86L44.5007 4.2C44.6607 4 44.8487 3.82 45.0647 3.66C45.2487 3.524 45.4807 3.4 45.7607 3.288C46.0407 3.176 46.3607 3.12 46.7207 3.12C47.0647 3.12 47.3807 3.176 47.6687 3.288C47.9567 3.4 48.2007 3.556 48.4007 3.756C48.6087 3.956 48.7687 4.192 48.8807 4.464C49.0007 4.736 49.0607 5.028 49.0607 5.34V9H48.0407V8.22C47.9207 8.388 47.7687 8.54 47.5847 8.676C47.4247 8.788 47.2287 8.892 46.9967 8.988C46.7647 9.076 46.4927 9.12 46.1807 9.12ZM46.3007 8.22C46.5407 8.22 46.7647 8.176 46.9727 8.088C47.1887 7.992 47.3727 7.864 47.5247 7.704C47.6847 7.544 47.8087 7.356 47.8967 7.14C47.9927 6.916 48.0407 6.676 48.0407 6.42V6.18L46.1807 6.48C45.8767 6.528 45.6407 6.64 45.4727 6.816C45.3047 6.984 45.2207 7.172 45.2207 7.38C45.2207 7.612 45.3127 7.812 45.4967 7.98C45.6807 8.14 45.9487 8.22 46.3007 8.22ZM50.8551 3.24H51.8751V4.02C51.9951 3.86 52.1471 3.712 52.3311 3.576C52.4911 3.464 52.6831 3.36 52.9071 3.264C53.1391 3.168 53.4151 3.12 53.7351 3.12H53.9751V4.2C53.9351 4.192 53.8951 4.184 53.8551 4.176C53.8151 4.168 53.7711 4.16 53.7231 4.152C53.6751 4.144 53.6191 4.14 53.5551 4.14C53.3151 4.14 53.0911 4.184 52.8831 4.272C52.6831 4.36 52.5071 4.484 52.3551 4.644C52.2031 4.796 52.0831 4.984 51.9951 5.208C51.9151 5.424 51.8751 5.668 51.8751 5.94V9H50.8551V3.24ZM0.279531 15.6H2.97953C3.59553 15.6 4.16753 15.712 4.69553 15.936C5.23153 16.16 5.69553 16.464 6.08753 16.848C6.48753 17.232 6.79953 17.68 7.02353 18.192C7.24753 18.696 7.35953 19.232 7.35953 19.8C7.35953 20.368 7.24753 20.908 7.02353 21.42C6.79953 21.924 6.48753 22.368 6.08753 22.752C5.69553 23.136 5.23153 23.44 4.69553 23.664C4.16753 23.888 3.59553 24 2.97953 24H0.279531V15.6ZM2.97953 22.98C3.44353 22.98 3.87553 22.896 4.27553 22.728C4.68353 22.56 5.03553 22.332 5.33153 22.044C5.62753 21.756 5.85953 21.42 6.02753 21.036C6.19553 20.644 6.27953 20.232 6.27953 19.8C6.27953 19.368 6.19553 18.96 6.02753 18.576C5.85953 18.184 5.62753 17.844 5.33153 17.556C5.03553 17.268 4.68353 17.04 4.27553 16.872C3.87553 16.704 3.44353 16.62 2.97953 16.62H1.35953V22.98H2.97953ZM11.5595 24.12C11.1355 24.12 10.7395 24.044 10.3715 23.892C10.0115 23.732 9.69553 23.52 9.42353 23.256C9.15953 22.984 8.94753 22.668 8.78753 22.308C8.63553 21.94 8.55953 21.544 8.55953 21.12C8.55953 20.704 8.63553 20.312 8.78753 19.944C8.93953 19.576 9.14753 19.26 9.41153 18.996C9.67553 18.724 9.97953 18.512 10.3235 18.36C10.6755 18.2 11.0475 18.12 11.4395 18.12C11.8475 18.12 12.2235 18.192 12.5675 18.336C12.9115 18.472 13.2075 18.668 13.4555 18.924C13.7115 19.172 13.9075 19.468 14.0435 19.812C14.1875 20.156 14.2595 20.532 14.2595 20.94C14.2595 21.02 14.2555 21.092 14.2475 21.156C14.2395 21.22 14.2315 21.276 14.2235 21.324C14.2155 21.38 14.2075 21.432 14.1995 21.48H9.63953C9.67153 21.704 9.73953 21.92 9.84353 22.128C9.95553 22.328 10.0955 22.504 10.2635 22.656C10.4315 22.808 10.6235 22.932 10.8395 23.028C11.0635 23.116 11.3035 23.16 11.5595 23.16C11.8395 23.16 12.0875 23.12 12.3035 23.04C12.5275 22.952 12.7115 22.852 12.8555 22.74C13.0235 22.62 13.1715 22.48 13.2995 22.32L13.9595 22.98C13.7995 23.196 13.6035 23.388 13.3715 23.556C13.1715 23.7 12.9195 23.832 12.6155 23.952C12.3195 24.064 11.9675 24.12 11.5595 24.12ZM13.2395 20.58C13.1915 20.372 13.1155 20.176 13.0115 19.992C12.9155 19.808 12.7875 19.648 12.6275 19.512C12.4755 19.376 12.2995 19.272 12.0995 19.2C11.8995 19.12 11.6795 19.08 11.4395 19.08C11.1995 19.08 10.9795 19.12 10.7795 19.2C10.5795 19.272 10.3995 19.376 10.2395 19.512C10.0875 19.648 9.95953 19.808 9.85553 19.992C9.75953 20.176 9.68753 20.372 9.63953 20.58H13.2395ZM16.0647 19.2H15.1647V18.24H16.0647V17.28C16.0647 16.704 16.2167 16.26 16.5207 15.948C16.8247 15.636 17.2327 15.48 17.7447 15.48C17.8807 15.48 18.0007 15.492 18.1047 15.516C18.2167 15.532 18.3127 15.552 18.3927 15.576C18.4807 15.608 18.5647 15.636 18.6447 15.66V16.62C18.5807 16.596 18.5047 16.568 18.4167 16.536C18.3447 16.512 18.2607 16.492 18.1647 16.476C18.0687 16.452 17.9687 16.44 17.8647 16.44C17.6247 16.44 17.4327 16.516 17.2887 16.668C17.1527 16.812 17.0847 17.036 17.0847 17.34V18.24H18.4647V19.2H17.0847V24H16.0647V19.2ZM21.2842 24.12C20.9802 24.12 20.7082 24.076 20.4682 23.988C20.2282 23.892 20.0202 23.768 19.8442 23.616C19.6682 23.464 19.5322 23.288 19.4362 23.088C19.3482 22.88 19.3042 22.664 19.3042 22.44C19.3042 21.96 19.4482 21.572 19.7362 21.276C20.0242 20.98 20.4402 20.788 20.9842 20.7L23.1442 20.34C23.1442 19.98 23.0202 19.68 22.7722 19.44C22.5322 19.2 22.2162 19.08 21.8242 19.08C21.5842 19.08 21.3682 19.124 21.1762 19.212C20.9842 19.292 20.8202 19.38 20.6842 19.476C20.5242 19.588 20.3842 19.716 20.2642 19.86L19.6042 19.2C19.7642 19 19.9522 18.82 20.1682 18.66C20.3522 18.524 20.5842 18.4 20.8642 18.288C21.1442 18.176 21.4642 18.12 21.8242 18.12C22.1682 18.12 22.4842 18.176 22.7722 18.288C23.0602 18.4 23.3042 18.556 23.5042 18.756C23.7122 18.956 23.8722 19.192 23.9842 19.464C24.1042 19.736 24.1642 20.028 24.1642 20.34V24H23.1442V23.22C23.0242 23.388 22.8722 23.54 22.6882 23.676C22.5282 23.788 22.3322 23.892 22.1002 23.988C21.8682 24.076 21.5962 24.12 21.2842 24.12ZM21.4042 23.22C21.6442 23.22 21.8682 23.176 22.0762 23.088C22.2922 22.992 22.4762 22.864 22.6282 22.704C22.7882 22.544 22.9122 22.356 23.0002 22.14C23.0962 21.916 23.1442 21.676 23.1442 21.42V21.18L21.2842 21.48C20.9802 21.528 20.7442 21.64 20.5762 21.816C20.4082 21.984 20.3242 22.172 20.3242 22.38C20.3242 22.612 20.4162 22.812 20.6002 22.98C20.7842 23.14 21.0522 23.22 21.4042 23.22ZM30.3386 23.16C30.2186 23.336 30.0626 23.496 29.8706 23.64C29.7106 23.76 29.5026 23.872 29.2466 23.976C28.9986 24.072 28.7026 24.12 28.3586 24.12C27.9826 24.12 27.6266 24.048 27.2906 23.904C26.9626 23.752 26.6706 23.544 26.4146 23.28C26.1666 23.008 25.9666 22.688 25.8146 22.32C25.6706 21.952 25.5986 21.552 25.5986 21.12C25.5986 20.688 25.6706 20.288 25.8146 19.92C25.9666 19.552 26.1666 19.236 26.4146 18.972C26.6706 18.7 26.9626 18.492 27.2906 18.348C27.6266 18.196 27.9826 18.12 28.3586 18.12C28.7026 18.12 28.9986 18.172 29.2466 18.276C29.5026 18.372 29.7106 18.48 29.8706 18.6C30.0626 18.744 30.2186 18.904 30.3386 19.08V18.24H31.3586V26.52H30.3386V23.16ZM28.4786 23.16C28.7346 23.16 28.9746 23.112 29.1986 23.016C29.4226 22.912 29.6186 22.772 29.7866 22.596C29.9546 22.412 30.0866 22.196 30.1826 21.948C30.2866 21.7 30.3386 21.424 30.3386 21.12C30.3386 20.824 30.2866 20.552 30.1826 20.304C30.0866 20.048 29.9546 19.832 29.7866 19.656C29.6186 19.472 29.4226 19.332 29.1986 19.236C28.9746 19.132 28.7346 19.08 28.4786 19.08C28.2226 19.08 27.9826 19.132 27.7586 19.236C27.5346 19.332 27.3386 19.472 27.1706 19.656C27.0026 19.832 26.8666 20.048 26.7626 20.304C26.6666 20.552 26.6186 20.824 26.6186 21.12C26.6186 21.424 26.6666 21.7 26.7626 21.948C26.8666 22.196 27.0026 22.412 27.1706 22.596C27.3386 22.772 27.5346 22.912 27.7586 23.016C27.9826 23.112 28.2226 23.16 28.4786 23.16ZM35.4339 24.12C34.2739 24.12 33.6939 23.52 33.6939 22.32V19.2H32.6139V18.24H33.2739C33.4259 18.24 33.5419 18.196 33.6219 18.108C33.7099 18.012 33.7539 17.856 33.7539 17.64V16.32H34.7139V18.24H36.0339V19.2H34.7139V22.26C34.7139 22.564 34.7819 22.792 34.9179 22.944C35.0619 23.088 35.2619 23.16 35.5179 23.16C35.6139 23.16 35.7059 23.152 35.7939 23.136C35.8899 23.12 35.9739 23.1 36.0459 23.076C36.1339 23.044 36.2099 23.012 36.2739 22.98V23.94C36.2019 23.972 36.1219 24.004 36.0339 24.036C35.9539 24.06 35.8619 24.08 35.7579 24.096C35.6619 24.112 35.5539 24.12 35.4339 24.12ZM40.1753 24.12C39.7673 24.12 39.3833 24.044 39.0233 23.892C38.6713 23.732 38.3633 23.52 38.0993 23.256C37.8353 22.984 37.6233 22.668 37.4633 22.308C37.3113 21.94 37.2353 21.544 37.2353 21.12C37.2353 20.704 37.3113 20.312 37.4633 19.944C37.6233 19.576 37.8353 19.26 38.0993 18.996C38.3633 18.724 38.6713 18.512 39.0233 18.36C39.3833 18.2 39.7673 18.12 40.1753 18.12C40.5833 18.12 40.9633 18.2 41.3153 18.36C41.6753 18.512 41.9873 18.724 42.2513 18.996C42.5153 19.26 42.7233 19.576 42.8753 19.944C43.0353 20.312 43.1153 20.704 43.1153 21.12C43.1153 21.544 43.0353 21.94 42.8753 22.308C42.7233 22.668 42.5153 22.984 42.2513 23.256C41.9873 23.52 41.6753 23.732 41.3153 23.892C40.9633 24.044 40.5833 24.12 40.1753 24.12ZM40.1753 23.16C40.4473 23.16 40.6993 23.112 40.9313 23.016C41.1633 22.912 41.3633 22.772 41.5313 22.596C41.7073 22.412 41.8433 22.196 41.9393 21.948C42.0433 21.7 42.0953 21.424 42.0953 21.12C42.0953 20.824 42.0433 20.552 41.9393 20.304C41.8433 20.048 41.7073 19.832 41.5313 19.656C41.3633 19.472 41.1633 19.332 40.9313 19.236C40.6993 19.132 40.4473 19.08 40.1753 19.08C39.9033 19.08 39.6513 19.132 39.4193 19.236C39.1873 19.332 38.9833 19.472 38.8073 19.656C38.6393 19.832 38.5033 20.048 38.3993 20.304C38.3033 20.552 38.2553 20.824 38.2553 21.12C38.2553 21.424 38.3033 21.7 38.3993 21.948C38.5033 22.196 38.6393 22.412 38.8073 22.596C38.9833 22.772 39.1873 22.912 39.4193 23.016C39.6513 23.112 39.9033 23.16 40.1753 23.16ZM47.0758 18.24H48.0958V19.02C48.2158 18.86 48.3678 18.712 48.5518 18.576C48.7118 18.464 48.9038 18.36 49.1278 18.264C49.3598 18.168 49.6358 18.12 49.9558 18.12H50.1958V19.2C50.1558 19.192 50.1158 19.184 50.0758 19.176C50.0358 19.168 49.9918 19.16 49.9438 19.152C49.8958 19.144 49.8398 19.14 49.7758 19.14C49.5358 19.14 49.3118 19.184 49.1038 19.272C48.9038 19.36 48.7278 19.484 48.5758 19.644C48.4238 19.796 48.3038 19.984 48.2158 20.208C48.1358 20.424 48.0958 20.668 48.0958 20.94V24H47.0758V18.24ZM52.9014 24.12C52.5974 24.12 52.3254 24.076 52.0854 23.988C51.8454 23.892 51.6374 23.768 51.4614 23.616C51.2854 23.464 51.1494 23.288 51.0534 23.088C50.9654 22.88 50.9214 22.664 50.9214 22.44C50.9214 21.96 51.0654 21.572 51.3534 21.276C51.6414 20.98 52.0574 20.788 52.6014 20.7L54.7614 20.34C54.7614 19.98 54.6374 19.68 54.3894 19.44C54.1494 19.2 53.8334 19.08 53.4414 19.08C53.2014 19.08 52.9854 19.124 52.7934 19.212C52.6014 19.292 52.4374 19.38 52.3014 19.476C52.1414 19.588 52.0014 19.716 51.8814 19.86L51.2214 19.2C51.3814 19 51.5694 18.82 51.7854 18.66C51.9694 18.524 52.2014 18.4 52.4814 18.288C52.7614 18.176 53.0814 18.12 53.4414 18.12C53.7854 18.12 54.1014 18.176 54.3894 18.288C54.6774 18.4 54.9214 18.556 55.1214 18.756C55.3294 18.956 55.4894 19.192 55.6014 19.464C55.7214 19.736 55.7814 20.028 55.7814 20.34V24H54.7614V23.22C54.6414 23.388 54.4894 23.54 54.3054 23.676C54.1454 23.788 53.9494 23.892 53.7174 23.988C53.4854 24.076 53.2134 24.12 52.9014 24.12ZM53.0214 23.22C53.2614 23.22 53.4854 23.176 53.6934 23.088C53.9094 22.992 54.0934 22.864 54.2454 22.704C54.4054 22.544 54.5294 22.356 54.6174 22.14C54.7134 21.916 54.7614 21.676 54.7614 21.42V21.18L52.9014 21.48C52.5974 21.528 52.3614 21.64 52.1934 21.816C52.0254 21.984 51.9414 22.172 51.9414 22.38C51.9414 22.612 52.0334 22.812 52.2174 22.98C52.4014 23.14 52.6694 23.22 53.0214 23.22ZM59.7386 24.12C58.5786 24.12 57.9986 23.52 57.9986 22.32V19.2H56.9186V18.24H57.5786C57.7306 18.24 57.8466 18.196 57.9266 18.108C58.0146 18.012 58.0586 17.856 58.0586 17.64V16.32H59.0186V18.24H60.3386V19.2H59.0186V22.26C59.0186 22.564 59.0866 22.792 59.2226 22.944C59.3666 23.088 59.5666 23.16 59.8226 23.16C59.9186 23.16 60.0106 23.152 60.0986 23.136C60.1946 23.12 60.2786 23.1 60.3506 23.076C60.4386 23.044 60.5146 23.012 60.5786 22.98V23.94C60.5066 23.972 60.4266 24.004 60.3386 24.036C60.2586 24.06 60.1666 24.08 60.0626 24.096C59.9666 24.112 59.8586 24.12 59.7386 24.12ZM62.0772 18.24H63.0972V24H62.0772V18.24ZM62.5572 17.04C62.3732 17.04 62.2172 16.976 62.0892 16.848C61.9612 16.72 61.8972 16.564 61.8972 16.38C61.8972 16.196 61.9612 16.04 62.0892 15.912C62.2172 15.784 62.3732 15.72 62.5572 15.72C62.7412 15.72 62.8972 15.784 63.0252 15.912C63.1532 16.04 63.2172 16.196 63.2172 16.38C63.2172 16.564 63.1532 16.72 63.0252 16.848C62.8972 16.976 62.7412 17.04 62.5572 17.04ZM64.9586 18.24H65.9786V19.08C66.1066 18.904 66.2586 18.744 66.4346 18.6C66.5866 18.48 66.7746 18.372 66.9986 18.276C67.2306 18.172 67.4986 18.12 67.8026 18.12C68.1386 18.12 68.4466 18.18 68.7266 18.3C69.0146 18.412 69.2586 18.576 69.4586 18.792C69.6666 19.008 69.8266 19.272 69.9386 19.584C70.0586 19.896 70.1186 20.248 70.1186 20.64V24H69.0986V20.64C69.0986 20.16 68.9626 19.78 68.6906 19.5C68.4266 19.22 68.0826 19.08 67.6586 19.08C67.4186 19.08 67.1946 19.124 66.9866 19.212C66.7866 19.3 66.6106 19.424 66.4586 19.584C66.3066 19.736 66.1866 19.924 66.0986 20.148C66.0186 20.364 65.9786 20.608 65.9786 20.88V24H64.9586V18.24ZM74.1995 26.52C73.7915 26.52 73.4355 26.456 73.1315 26.328C72.8275 26.208 72.5715 26.072 72.3635 25.92C72.1235 25.744 71.9155 25.544 71.7395 25.32L72.3995 24.66C72.5275 24.828 72.6835 24.98 72.8675 25.116C73.0275 25.228 73.2155 25.328 73.4315 25.416C73.6555 25.512 73.9115 25.56 74.1995 25.56C74.4715 25.56 74.7195 25.512 74.9435 25.416C75.1755 25.328 75.3715 25.196 75.5315 25.02C75.6995 24.844 75.8275 24.636 75.9155 24.396C76.0115 24.156 76.0595 23.884 76.0595 23.58V22.98C75.9475 23.148 75.8035 23.3 75.6275 23.436C75.4755 23.548 75.2835 23.652 75.0515 23.748C74.8195 23.836 74.5355 23.88 74.1995 23.88C73.8395 23.88 73.4995 23.808 73.1795 23.664C72.8595 23.52 72.5795 23.324 72.3395 23.076C72.0995 22.82 71.9075 22.516 71.7635 22.164C71.6275 21.812 71.5595 21.424 71.5595 21C71.5595 20.584 71.6275 20.2 71.7635 19.848C71.9075 19.488 72.0995 19.184 72.3395 18.936C72.5795 18.68 72.8595 18.48 73.1795 18.336C73.4995 18.192 73.8395 18.12 74.1995 18.12C74.5355 18.12 74.8195 18.168 75.0515 18.264C75.2835 18.36 75.4755 18.464 75.6275 18.576C75.8035 18.712 75.9475 18.86 76.0595 19.02V18.24H77.0795V23.58C77.0795 24.004 77.0035 24.392 76.8515 24.744C76.7075 25.104 76.5035 25.416 76.2395 25.68C75.9835 25.944 75.6795 26.148 75.3275 26.292C74.9835 26.444 74.6075 26.52 74.1995 26.52ZM74.3195 22.92C74.5675 22.92 74.7955 22.872 75.0035 22.776C75.2195 22.68 75.4035 22.548 75.5555 22.38C75.7155 22.212 75.8395 22.012 75.9275 21.78C76.0155 21.54 76.0595 21.28 76.0595 21C76.0595 20.424 75.9035 19.96 75.5915 19.608C75.2875 19.256 74.8635 19.08 74.3195 19.08C74.0795 19.08 73.8515 19.128 73.6355 19.224C73.4275 19.312 73.2435 19.44 73.0835 19.608C72.9315 19.776 72.8075 19.98 72.7115 20.22C72.6235 20.452 72.5795 20.712 72.5795 21C72.5795 21.288 72.6235 21.552 72.7115 21.792C72.8075 22.024 72.9315 22.224 73.0835 22.392C73.2435 22.56 73.4275 22.692 73.6355 22.788C73.8515 22.876 74.0795 22.92 74.3195 22.92Z" fill="#011831"/>
</svg>
