<svg xmlns="http://www.w3.org/2000/svg" width="25" height="24" fill="none" viewBox="0 0 25 24">
    <path fill="#011831" d="M19.76 6.439l-1.646-1.646c-.792-.792-2.103-.792-2.896 0l-9.693 9.628-.731 4.54c-.092.488.335.914.823.823l4.541-.731 9.633-9.69c.792-.792.792-2.102-.03-2.924zm-8.87 7.251c.122.122.305.183.488.183.152 0 .335-.06.457-.183l3.627-3.625.884.883-5.151 5.18v-1.28H9.732v-1.463h-1.28l5.181-5.149.884.884-3.627 3.626c-.274.274-.274.67 0 .944zm-3.597 4.48l-.884-.885.396-2.224.55-.579h1.28v1.463h1.463v1.28l-.58.548-2.225.396zm11.553-9.75l-1.494 1.492-2.682-2.681 1.493-1.493c.275-.274.732-.274 1.006 0l1.646 1.645c.305.305.305.762.03 1.036z"/>
</svg>
