<svg width="23" height="22" viewBox="0 0 23 22" fill="none" xmlns="http://www.w3.org/2000/svg">
<ellipse cx="11.2288" cy="11" rx="11.2288" ry="11" fill="#0E838A"/>
<ellipse cx="11.2288" cy="11" rx="9.12336" ry="8.9375" fill="#0E838A"/>
<path d="M12.9408 14.6859C12.9408 13.7643 12.171 13.0102 11.2302 13.0102C10.2679 13.0102 9.51953 13.7643 9.51953 14.6859C9.51953 15.6286 10.2679 16.3617 11.2302 16.3617C12.171 16.3617 12.9408 15.6286 12.9408 14.6859ZM9.71198 6.18135L9.98995 11.879C10.0113 12.1304 10.2465 12.3398 10.5031 12.3398H11.9358C12.1924 12.3398 12.4276 12.1304 12.449 11.879L12.727 6.18135C12.7483 5.88809 12.5131 5.63672 12.2138 5.63672H10.2252C9.92581 5.63672 9.69059 5.88809 9.71198 6.18135Z" fill="white"/>
</svg>