<svg width="18" height="18" viewBox="0 0 18 18" fill="none" xmlns="http://www.w3.org/2000/svg">
<path d="M0.372984 2.10576C2.67379 -2.19897 5.86523 0.99247 6.83008 3.73859C7.34962 5.14876 6.97852 5.74252 6.1621 6.33627C4.60349 7.598 9.42776 12.4223 10.6895 10.8637C11.2832 10.1215 11.877 9.67615 13.2872 10.1957C16.0333 11.1605 19.2247 14.352 14.92 16.727C10.0957 19.3247 -2.29892 6.93003 0.372984 2.10576ZM9.27932 2.17998C8.68557 2.17998 8.68557 1.28935 9.27932 1.28935C12.8419 1.28935 15.7364 4.18391 15.7364 7.74644C15.7364 8.3402 14.8458 8.3402 14.8458 7.74644C14.8458 4.62922 12.3965 2.17998 9.27932 2.17998ZM9.5762 4.48079C8.98244 4.48079 8.98244 3.59015 9.5762 3.59015C11.7286 3.59015 13.5098 5.2972 13.5098 7.44956C13.5098 8.04332 12.6192 8.04332 12.6192 7.44956C12.6192 5.81674 11.209 4.48079 9.5762 4.48079ZM2.08003 1.43779C0.521423 2.84796 0.744081 4.555 2.00581 6.85581C4.08396 10.7152 11.209 17.6176 14.4747 15.8364C15.9591 15.02 16.7013 13.9067 15.2911 12.6449C14.4747 11.9027 12.3965 10.4926 11.8028 11.1605C11.0606 11.9027 11.1348 12.4223 9.27932 12.0512C7.72071 11.7543 5.34569 9.37927 4.97459 7.74644C4.38084 4.77766 6.68164 6.18783 5.86523 4.03547C5.64257 3.21905 3.8613 -0.120823 2.08003 1.43779Z" fill="white"/>
</svg>
