<svg xmlns="http://www.w3.org/2000/svg" width="16" height="16" fill="none" viewBox="0 0 16 16">
    <circle cx="8" cy="8" r="8" fill="#E40034"/>
    <path fill="#fff" d="M7.842 12.8c-.287 0-.528-.102-.722-.307-.194-.204-.292-.457-.292-.76 0-.302.098-.555.292-.76.194-.204.435-.306.722-.306.288 0 .528.102.723.306.194.205.291.458.291.76 0 .303-.097.556-.291.76-.195.205-.435.307-.723.307zm-.76-3c-.025-.053-.046-.11-.063-.173-.043-.116-.064-.258-.064-.427 0-.302.055-.564.165-.786.11-.223.245-.418.406-.587.169-.178.346-.333.532-.467.194-.142.372-.275.532-.4.17-.133.308-.27.418-.413.11-.142.165-.302.165-.48 0-.231-.106-.445-.317-.64-.203-.196-.477-.293-.824-.293-.287 0-.532.057-.735.173-.194.107-.354.227-.481.36-.152.16-.275.338-.368.533l-1.647-.8c.152-.409.372-.773.659-1.093.127-.133.27-.267.43-.4.17-.133.36-.253.571-.36.211-.107.444-.191.697-.253.262-.063.553-.094.874-.094.49 0 .93.076 1.318.227.398.142.731.338 1.002.587.27.248.477.542.62.88.153.328.229.675.229 1.04 0 .373-.064.693-.19.96-.119.266-.27.497-.457.693-.177.195-.376.373-.595.533-.211.151-.41.307-.596.467-.177.16-.33.338-.456.533-.118.187-.178.414-.178.68H7.082z"/>
</svg>
