<svg width="26" height="26" viewBox="0 0 40 40" fill="none" xmlns="http://www.w3.org/2000/svg">
    <circle cx="28.391285" cy="17" r="9" fill="#0069cc" stroke="#ffffff" strokeWidth="2" id="circle2" />
    <path
        d="m 34.241299,14.2266 -1,-1.0157 c -0.2,-0.2031 -0.5,-0.2031 -0.7,0 l -5.15,5.2813 -2.4,-2.4375 c -0.2,-0.2031 -0.5,-0.2031 -0.7,0 l -0.95,1.0156 c -0.2,0.2031 -0.2,0.5078 0,0.7109 l 3.65,3.8086 c 0.2,0.2032 0.55,0.2032 0.75,0 l 6.5,-6.6523 c 0.2,-0.2031 0.2,-0.5078 0,-0.7109 z m -20.65,6.3984 c 3.95,0 7.2,-3.25 7.2,-7.3125 0,-4.01172 -3.25,-7.3125 -7.2,-7.3125 -3.9999992,0 -7.1999949,3.30078 -7.1999949,7.3125 0,4.0625 3.1999957,7.3125 7.1999949,7.3125 z m 0,-12.1875 c 2.6,0 4.8,2.2344 4.8,4.875 0,2.6914 -2.2,4.875 -4.8,4.875 -2.65,0 -4.7999976,-2.1836 -4.7999976,-4.875 0,-2.6406 2.1499976,-4.875 4.7999976,-4.875 z m 4.45,13 c -1.45,0 -2.1,0.8125 -4.45,0.8125 -2.4,0 -3.05,-0.8125 -4.4999982,-0.8125 -3.6999967,0 -6.6999967,3.0977 -6.6999967,6.8555 v 1.2695 c 0,1.3711 1.05,2.4375 2.4,2.4375 H 22.391299 c 1.3,0 2.4,-1.0664 2.4,-2.4375 V 28.293 c 0,-3.7578 -3.05,-6.8555 -6.75,-6.8555 z m 4.35,8.125 H 4.7913041 V 28.293 c 0,-2.4375 1.9,-4.418 4.2999967,-4.418 0.7499986,0 1.8999982,0.8125 4.4999982,0.8125 2.55,0 3.7,-0.8125 4.45,-0.8125 2.4,0 4.35,1.9805 4.35,4.418 z"
        fill="#ffffff"
        id="path4" />
</svg>
