<svg xmlns="http://www.w3.org/2000/svg" width="32" height="32" fill="none" viewBox="0 0 32 32">
    <path fill="#0085FF" d="M12.741 17.302c.257 0 .515-.204.515-.488V15.19c0-.244-.258-.487-.515-.487h-1.714c-.3 0-.514.243-.514.487v1.625c0 .284.214.488.514.488h1.714zm4.629-.488V15.19c0-.244-.257-.487-.514-.487H15.14c-.3 0-.514.243-.514.487v1.625c0 .284.214.488.514.488h1.715c.257 0 .514-.204.514-.488zm4.114 0V15.19c0-.244-.257-.487-.514-.487h-1.714c-.3 0-.515.243-.515.487v1.625c0 .284.215.488.515.488h1.714c.257 0 .514-.204.514-.488zm-4.114 3.9V19.09c0-.244-.257-.487-.514-.487H15.14c-.3 0-.514.243-.514.487v1.625c0 .284.214.488.514.488h1.715c.257 0 .514-.204.514-.488zm-4.114 0V19.09c0-.244-.258-.487-.515-.487h-1.714c-.3 0-.514.243-.514.487v1.625c0 .284.214.488.514.488h1.714c.257 0 .515-.204.515-.488zm8.228 0V19.09c0-.244-.257-.487-.514-.487h-1.714c-.3 0-.515.243-.515.487v1.625c0 .284.215.488.515.488h1.714c.257 0 .514-.204.514-.488zm4.114-10.562c0-1.057-.942-1.95-2.057-1.95h-2.057V6.089c0-.244-.257-.487-.514-.487h-1.714c-.3 0-.515.243-.515.487v2.113h-5.485V6.089c0-.244-.258-.487-.515-.487h-1.714c-.3 0-.514.243-.514.487v2.113H8.456c-1.158 0-2.058.893-2.058 1.95v14.3c0 1.096.9 1.95 2.058 1.95H23.54c1.115 0 2.057-.854 2.057-1.95v-14.3zm-2.057 14.056c0 .162-.128.244-.257.244H8.713c-.172 0-.257-.082-.257-.244V12.102H23.54v12.106z"/>
</svg>
