<svg xmlns="http://www.w3.org/2000/svg" width="23" height="22" fill="none" viewBox="0 0 23 22">
    <path fill="#fff" d="M14.613 7.894H8.87c-.062 0-.121-.024-.165-.068-.044-.044-.068-.103-.068-.165V5.758c0-.236.094-.463.26-.63.168-.167.394-.26.63-.26h4.425c.236 0 .462.093.63.26.166.167.26.394.26.63v1.903c0 .061-.024.12-.067.164-.043.043-.1.068-.162.07zm-5.51-.466h5.277v-1.67c0-.113-.045-.22-.125-.3-.08-.08-.188-.125-.3-.125H9.53c-.113 0-.221.045-.3.125-.08.08-.125.187-.126.3l-.003 1.67z"/>
    <path fill="#fff" d="M7.938 11.913c-.036 0-.07-.008-.103-.023-.039-.02-.072-.049-.095-.086-.023-.037-.035-.08-.035-.123V8.748c0-.35.14-.685.387-.933.247-.247.583-.386.932-.386h5.433c.35 0 .686.139.933.386.248.248.387.583.387.933v2.885c0 .044-.013.087-.036.124-.024.038-.057.067-.097.086-.04.02-.084.026-.128.021-.043-.005-.085-.023-.119-.05-1.94-1.574-3.316-2.09-3.642-2.197-1.307.606-2.54 1.36-3.674 2.246-.041.032-.091.05-.143.05zm1.086-4.018c-.226 0-.443.09-.603.25-.16.16-.25.377-.25.603v2.464c1.876-1.388 3.415-2.03 3.481-2.059.047-.019.1-.023.149-.01.06.017 1.42.388 3.51 2.008V8.745c0-.226-.09-.443-.25-.603-.16-.16-.377-.25-.604-.25l-5.433.003z"/>
    <path fill="#fff" d="M14.952 18.322c-.05 0-.097-.015-.137-.044-.04-.029-.07-.07-.085-.117-.015-.046-.015-.097 0-.144.016-.046.046-.087.085-.116 1.32-.955 2.251-2.816 2.282-4.555-.56-.556-1.13-1.07-1.698-1.53-1.94-1.575-3.317-2.09-3.643-2.199-1.987.93-3.802 2.19-5.368 3.726.036 1.663.997 3.451 2.414 4.477.025.018.046.04.062.067.016.026.027.055.031.085.005.03.004.061-.003.09-.007.03-.02.059-.038.083-.018.025-.04.046-.067.062-.026.016-.055.027-.085.032-.03.005-.06.003-.09-.004s-.058-.02-.083-.037c-1.56-1.124-2.607-3.116-2.607-4.947 0-.062.025-.121.068-.165.568-.567 1.172-1.098 1.807-1.589 2.043-1.585 3.784-2.313 3.856-2.343.048-.02.1-.023.15-.01.063.018 1.585.438 3.89 2.31.628.512 1.23 1.056 1.802 1.63.044.043.069.102.069.164 0 1.936-.995 3.958-2.475 5.028-.04.03-.088.046-.137.046z"/>
    <path fill="#fff" d="M11.74 16.383c-.061 0-.12-.025-.164-.069-.044-.043-.068-.102-.068-.164V9.37c0-.062.024-.121.068-.165.044-.044.103-.068.165-.068.061 0 .12.024.164.068.044.044.069.103.069.165v6.78c0 .062-.025.12-.069.164-.043.044-.103.069-.164.069zM11.77 5.285c-.062 0-.121-.025-.165-.069-.043-.043-.068-.103-.068-.164V3.655c0-.062.025-.121.068-.165.044-.044.103-.068.165-.068.062 0 .12.024.165.068.043.044.068.103.068.165v1.397c0 .061-.025.12-.068.164-.044.044-.103.069-.165.069zM17.574 18.345c-.445 0-.678-.218-.865-.393-.166-.155-.287-.268-.544-.268-.257 0-.381.113-.548.268-.187.175-.42.393-.865.393-.446 0-.678-.218-.865-.393-.166-.155-.286-.268-.548-.268-.261 0-.38.113-.547.268-.187.175-.42.393-.864.393-.445 0-.679-.218-.866-.393-.166-.155-.286-.268-.547-.268-.26 0-.38.113-.543.268-.188.175-.42.393-.866.393-.444 0-.678-.218-.865-.393-.166-.155-.285-.268-.543-.268-.258 0-.381.113-.543.268-.188.175-.42.393-.865.393s-.678-.218-.865-.393c-.167-.155-.287-.268-.544-.268-.061 0-.12-.024-.164-.068-.044-.043-.069-.103-.069-.164 0-.062.025-.121.069-.165.043-.044.103-.068.164-.068.445 0 .678.218.866.393.165.155.285.267.547.267.261 0 .38-.112.543-.267.188-.175.42-.393.865-.393s.679.218.866.393c.166.155.285.267.547.267.262 0 .381-.112.543-.268.187-.174.42-.392.866-.392.445 0 .677.218.865.393.165.155.286.267.547.267.262 0 .381-.112.543-.267.188-.175.42-.393.865-.393s.679.218.866.393c.166.155.286.267.547.267.26 0 .382-.112.548-.267.187-.175.42-.393.865-.393s.677.218.865.392c.166.156.286.268.544.268.257 0 .381-.112.548-.268.187-.174.42-.392.865-.392.062 0 .12.024.165.068.043.044.068.103.068.165 0 .061-.025.12-.068.164-.044.044-.103.068-.165.068-.262 0-.382.113-.548.268-.192.175-.424.393-.87.393z"/>
</svg>
