<svg width="105" height="27" viewBox="0 0 105 27" fill="none" xmlns="http://www.w3.org/2000/svg">
<path d="M19.9502 9.12C19.3342 9.12 18.7582 9.008 18.2222 8.784C17.6942 8.56 17.2302 8.252 16.8302 7.86C16.4382 7.468 16.1302 7.012 15.9062 6.492C15.6822 5.964 15.5702 5.4 15.5702 4.8C15.5702 4.2 15.6822 3.64 15.9062 3.12C16.1302 2.592 16.4382 2.132 16.8302 1.74C17.2302 1.348 17.6942 1.04 18.2222 0.816C18.7582 0.592 19.3342 0.48 19.9502 0.48C20.5262 0.48 21.0262 0.568 21.4502 0.744C21.8742 0.92 22.2302 1.112 22.5182 1.32C22.8462 1.568 23.1302 1.848 23.3702 2.16L22.6502 2.88C22.4822 2.632 22.2662 2.404 22.0022 2.196C21.7782 2.02 21.4942 1.86 21.1502 1.716C20.8142 1.572 20.4142 1.5 19.9502 1.5C19.4862 1.5 19.0502 1.584 18.6422 1.752C18.2422 1.92 17.8942 2.152 17.5982 2.448C17.3022 2.744 17.0702 3.096 16.9022 3.504C16.7342 3.904 16.6502 4.336 16.6502 4.8C16.6502 5.264 16.7342 5.7 16.9022 6.108C17.0702 6.508 17.3022 6.856 17.5982 7.152C17.8942 7.448 18.2422 7.68 18.6422 7.848C19.0502 8.016 19.4862 8.1 19.9502 8.1C20.4142 8.1 20.8182 8.032 21.1622 7.896C21.5062 7.752 21.7942 7.592 22.0262 7.416C22.2902 7.208 22.5182 6.976 22.7102 6.72L23.4302 7.44C23.1822 7.752 22.8862 8.032 22.5422 8.28C22.2462 8.488 21.8822 8.68 21.4502 8.856C21.0262 9.032 20.5262 9.12 19.9502 9.12ZM26.253 9.12C25.949 9.12 25.677 9.076 25.437 8.988C25.197 8.892 24.989 8.768 24.813 8.616C24.637 8.464 24.501 8.288 24.405 8.088C24.317 7.88 24.273 7.664 24.273 7.44C24.273 6.96 24.417 6.572 24.705 6.276C24.993 5.98 25.409 5.788 25.953 5.7L28.113 5.34C28.113 4.98 27.989 4.68 27.741 4.44C27.501 4.2 27.185 4.08 26.793 4.08C26.553 4.08 26.337 4.124 26.145 4.212C25.953 4.292 25.789 4.38 25.653 4.476C25.493 4.588 25.353 4.716 25.233 4.86L24.573 4.2C24.733 4 24.921 3.82 25.137 3.66C25.321 3.524 25.553 3.4 25.833 3.288C26.113 3.176 26.433 3.12 26.793 3.12C27.137 3.12 27.453 3.176 27.741 3.288C28.029 3.4 28.273 3.556 28.473 3.756C28.681 3.956 28.841 4.192 28.953 4.464C29.073 4.736 29.133 5.028 29.133 5.34V9H28.113V8.22C27.993 8.388 27.841 8.54 27.657 8.676C27.497 8.788 27.301 8.892 27.069 8.988C26.837 9.076 26.565 9.12 26.253 9.12ZM26.373 8.22C26.613 8.22 26.837 8.176 27.045 8.088C27.261 7.992 27.445 7.864 27.597 7.704C27.757 7.544 27.881 7.356 27.969 7.14C28.065 6.916 28.113 6.676 28.113 6.42V6.18L26.253 6.48C25.949 6.528 25.713 6.64 25.545 6.816C25.377 6.984 25.293 7.172 25.293 7.38C25.293 7.612 25.385 7.812 25.569 7.98C25.753 8.14 26.021 8.22 26.373 8.22ZM30.9273 3.24H31.9473V4.02C32.0673 3.86 32.2193 3.712 32.4033 3.576C32.5633 3.464 32.7553 3.36 32.9793 3.264C33.2113 3.168 33.4873 3.12 33.8073 3.12H34.0473V4.2C34.0073 4.192 33.9673 4.184 33.9273 4.176C33.8873 4.168 33.8433 4.16 33.7953 4.152C33.7473 4.144 33.6913 4.14 33.6273 4.14C33.3873 4.14 33.1633 4.184 32.9553 4.272C32.7553 4.36 32.5793 4.484 32.4273 4.644C32.2753 4.796 32.1553 4.984 32.0673 5.208C31.9873 5.424 31.9473 5.668 31.9473 5.94V9H30.9273V3.24ZM37.5381 3.24H38.5581V9H37.5381V3.24ZM38.0181 2.04C37.8341 2.04 37.6781 1.976 37.5501 1.848C37.4221 1.72 37.3581 1.564 37.3581 1.38C37.3581 1.196 37.4221 1.04 37.5501 0.912C37.6781 0.783999 37.8341 0.719999 38.0181 0.719999C38.2021 0.719999 38.3581 0.783999 38.4861 0.912C38.6141 1.04 38.6781 1.196 38.6781 1.38C38.6781 1.564 38.6141 1.72 38.4861 1.848C38.3581 1.976 38.2021 2.04 38.0181 2.04ZM40.4195 3.24H41.4395V4.08C41.5675 3.904 41.7195 3.744 41.8955 3.6C42.0475 3.48 42.2355 3.372 42.4595 3.276C42.6915 3.172 42.9595 3.12 43.2635 3.12C43.5995 3.12 43.9075 3.18 44.1875 3.3C44.4755 3.412 44.7195 3.576 44.9195 3.792C45.1275 4.008 45.2875 4.272 45.3995 4.584C45.5195 4.896 45.5795 5.248 45.5795 5.64V9H44.5595V5.64C44.5595 5.16 44.4235 4.78 44.1515 4.5C43.8875 4.22 43.5435 4.08 43.1195 4.08C42.8795 4.08 42.6555 4.124 42.4475 4.212C42.2475 4.3 42.0715 4.424 41.9195 4.584C41.7675 4.736 41.6475 4.924 41.5595 5.148C41.4795 5.364 41.4395 5.608 41.4395 5.88V9H40.4195V3.24ZM49.0005 9.12C48.6405 9.12 48.3245 9.068 48.0525 8.964C47.7885 8.86 47.5645 8.744 47.3805 8.616C47.1725 8.472 46.9925 8.3 46.8405 8.1L47.5005 7.38C47.6125 7.532 47.7405 7.664 47.8845 7.776C48.0125 7.872 48.1685 7.96 48.3525 8.04C48.5445 8.12 48.7605 8.16 49.0005 8.16C49.3925 8.16 49.6805 8.084 49.8645 7.932C50.0485 7.772 50.1405 7.588 50.1405 7.38C50.1405 7.188 50.0645 7.036 49.9125 6.924C49.7605 6.812 49.5725 6.716 49.3485 6.636C49.1245 6.548 48.8765 6.464 48.6045 6.384C48.3405 6.296 48.0965 6.188 47.8725 6.06C47.6485 5.924 47.4605 5.752 47.3085 5.544C47.1565 5.336 47.0805 5.068 47.0805 4.74C47.0805 4.532 47.1245 4.332 47.2125 4.14C47.3085 3.94 47.4445 3.768 47.6205 3.624C47.7965 3.472 48.0045 3.352 48.2445 3.264C48.4845 3.168 48.7565 3.12 49.0605 3.12C49.3965 3.12 49.6845 3.164 49.9245 3.252C50.1725 3.332 50.3805 3.42 50.5485 3.516C50.7405 3.628 50.9045 3.756 51.0405 3.9L50.3205 4.62C50.2325 4.524 50.1285 4.436 50.0085 4.356C49.8965 4.292 49.7605 4.232 49.6005 4.176C49.4485 4.112 49.2685 4.08 49.0605 4.08C48.7245 4.08 48.4805 4.144 48.3285 4.272C48.1765 4.4 48.1005 4.556 48.1005 4.74C48.1005 4.924 48.1765 5.068 48.3285 5.172C48.4805 5.276 48.6685 5.372 48.8925 5.46C49.1165 5.54 49.3605 5.62 49.6245 5.7C49.8965 5.78 50.1445 5.888 50.3685 6.024C50.5925 6.16 50.7805 6.336 50.9325 6.552C51.0845 6.768 51.1605 7.044 51.1605 7.38C51.1605 7.62 51.1125 7.848 51.0165 8.064C50.9205 8.272 50.7805 8.456 50.5965 8.616C50.4125 8.768 50.1845 8.892 49.9125 8.988C49.6485 9.076 49.3445 9.12 49.0005 9.12ZM54.9113 9.12C54.5753 9.12 54.2633 9.064 53.9753 8.952C53.6953 8.832 53.4513 8.664 53.2433 8.448C53.0433 8.232 52.8833 7.968 52.7633 7.656C52.6513 7.344 52.5953 6.992 52.5953 6.6V3.24H53.6153V6.6C53.6153 7.08 53.7473 7.46 54.0113 7.74C54.2833 8.02 54.6313 8.16 55.0553 8.16C55.2953 8.16 55.5153 8.116 55.7153 8.028C55.9233 7.94 56.1033 7.82 56.2553 7.668C56.4073 7.508 56.5233 7.32 56.6033 7.104C56.6913 6.88 56.7353 6.632 56.7353 6.36V3.24H57.7553V9H56.7353V8.16C56.6073 8.336 56.4553 8.496 56.2793 8.64C56.1273 8.76 55.9353 8.872 55.7033 8.976C55.4793 9.072 55.2153 9.12 54.9113 9.12ZM59.5563 3.24H60.5763V4.02C60.6963 3.86 60.8483 3.712 61.0323 3.576C61.1923 3.464 61.3843 3.36 61.6083 3.264C61.8403 3.168 62.1163 3.12 62.4363 3.12H62.6763V4.2C62.6363 4.192 62.5963 4.184 62.5563 4.176C62.5163 4.168 62.4723 4.16 62.4243 4.152C62.3763 4.144 62.3203 4.14 62.2563 4.14C62.0163 4.14 61.7923 4.184 61.5843 4.272C61.3843 4.36 61.2083 4.484 61.0563 4.644C60.9043 4.796 60.7843 4.984 60.6963 5.208C60.6163 5.424 60.5763 5.668 60.5763 5.94V9H59.5563V3.24ZM65.3819 9.12C65.0779 9.12 64.8059 9.076 64.5659 8.988C64.3259 8.892 64.1179 8.768 63.9419 8.616C63.7659 8.464 63.6299 8.288 63.5339 8.088C63.4459 7.88 63.4019 7.664 63.4019 7.44C63.4019 6.96 63.5459 6.572 63.8339 6.276C64.1219 5.98 64.5379 5.788 65.0819 5.7L67.2419 5.34C67.2419 4.98 67.1179 4.68 66.8699 4.44C66.6299 4.2 66.3139 4.08 65.9219 4.08C65.6819 4.08 65.4659 4.124 65.2739 4.212C65.0819 4.292 64.9179 4.38 64.7819 4.476C64.6219 4.588 64.4819 4.716 64.3619 4.86L63.7019 4.2C63.8619 4 64.0499 3.82 64.2659 3.66C64.4499 3.524 64.6819 3.4 64.9619 3.288C65.2419 3.176 65.5619 3.12 65.9219 3.12C66.2659 3.12 66.5819 3.176 66.8699 3.288C67.1579 3.4 67.4019 3.556 67.6019 3.756C67.8099 3.956 67.9699 4.192 68.0819 4.464C68.2019 4.736 68.2619 5.028 68.2619 5.34V9H67.2419V8.22C67.1219 8.388 66.9699 8.54 66.7859 8.676C66.6259 8.788 66.4299 8.892 66.1979 8.988C65.9659 9.076 65.6939 9.12 65.3819 9.12ZM65.5019 8.22C65.7419 8.22 65.9659 8.176 66.1739 8.088C66.3899 7.992 66.5739 7.864 66.7259 7.704C66.8859 7.544 67.0099 7.356 67.0979 7.14C67.1939 6.916 67.2419 6.676 67.2419 6.42V6.18L65.3819 6.48C65.0779 6.528 64.8419 6.64 64.6739 6.816C64.5059 6.984 64.4219 7.172 64.4219 7.38C64.4219 7.612 64.5139 7.812 64.6979 7.98C64.8819 8.14 65.1499 8.22 65.5019 8.22ZM70.0563 3.24H71.0763V4.08C71.2043 3.904 71.3563 3.744 71.5323 3.6C71.6843 3.48 71.8723 3.372 72.0963 3.276C72.3283 3.172 72.5963 3.12 72.9003 3.12C73.2363 3.12 73.5443 3.18 73.8243 3.3C74.1123 3.412 74.3563 3.576 74.5563 3.792C74.7643 4.008 74.9243 4.272 75.0363 4.584C75.1562 4.896 75.2162 5.248 75.2162 5.64V9H74.1963V5.64C74.1963 5.16 74.0603 4.78 73.7883 4.5C73.5243 4.22 73.1803 4.08 72.7563 4.08C72.5163 4.08 72.2923 4.124 72.0843 4.212C71.8843 4.3 71.7083 4.424 71.5563 4.584C71.4043 4.736 71.2843 4.924 71.1963 5.148C71.1163 5.364 71.0763 5.608 71.0763 5.88V9H70.0563V3.24ZM79.5972 9.12C79.1892 9.12 78.8052 9.044 78.4452 8.892C78.0932 8.732 77.7852 8.52 77.5212 8.256C77.2572 7.984 77.0452 7.668 76.8852 7.308C76.7332 6.94 76.6572 6.544 76.6572 6.12C76.6572 5.704 76.7332 5.312 76.8852 4.944C77.0452 4.576 77.2572 4.26 77.5212 3.996C77.7852 3.724 78.0932 3.512 78.4452 3.36C78.8052 3.2 79.1892 3.12 79.5972 3.12C79.9892 3.12 80.3332 3.18 80.6292 3.3C80.9252 3.42 81.1772 3.552 81.3852 3.696C81.6252 3.864 81.8292 4.052 81.9972 4.26L81.2772 4.98C81.1572 4.82 81.0132 4.672 80.8452 4.536C80.7012 4.424 80.5252 4.32 80.3172 4.224C80.1092 4.128 79.8692 4.08 79.5972 4.08C79.3412 4.08 79.0972 4.132 78.8652 4.236C78.6332 4.34 78.4292 4.484 78.2532 4.668C78.0772 4.852 77.9372 5.068 77.8332 5.316C77.7292 5.564 77.6772 5.832 77.6772 6.12C77.6772 6.408 77.7292 6.676 77.8332 6.924C77.9372 7.172 78.0772 7.388 78.2532 7.572C78.4292 7.756 78.6332 7.9 78.8652 8.004C79.0972 8.108 79.3412 8.16 79.5972 8.16C79.8692 8.16 80.1092 8.116 80.3172 8.028C80.5332 7.932 80.7172 7.828 80.8692 7.716C81.0452 7.58 81.2012 7.428 81.3372 7.26L82.0572 7.92C81.8732 8.144 81.6572 8.344 81.4092 8.52C81.2012 8.672 80.9452 8.812 80.6412 8.94C80.3372 9.06 79.9892 9.12 79.5972 9.12ZM85.8447 9.12C85.4207 9.12 85.0247 9.044 84.6567 8.892C84.2967 8.732 83.9807 8.52 83.7087 8.256C83.4447 7.984 83.2327 7.668 83.0727 7.308C82.9207 6.94 82.8447 6.544 82.8447 6.12C82.8447 5.704 82.9207 5.312 83.0727 4.944C83.2247 4.576 83.4327 4.26 83.6967 3.996C83.9607 3.724 84.2647 3.512 84.6087 3.36C84.9607 3.2 85.3327 3.12 85.7247 3.12C86.1327 3.12 86.5087 3.192 86.8527 3.336C87.1967 3.472 87.4927 3.668 87.7407 3.924C87.9967 4.172 88.1927 4.468 88.3287 4.812C88.4727 5.156 88.5447 5.532 88.5447 5.94C88.5447 6.02 88.5407 6.092 88.5327 6.156C88.5247 6.22 88.5167 6.276 88.5087 6.324C88.5007 6.38 88.4927 6.432 88.4847 6.48H83.9247C83.9567 6.704 84.0247 6.92 84.1287 7.128C84.2407 7.328 84.3807 7.504 84.5487 7.656C84.7167 7.808 84.9087 7.932 85.1247 8.028C85.3487 8.116 85.5887 8.16 85.8447 8.16C86.1247 8.16 86.3727 8.12 86.5887 8.04C86.8127 7.952 86.9967 7.852 87.1407 7.74C87.3087 7.62 87.4567 7.48 87.5847 7.32L88.2447 7.98C88.0847 8.196 87.8887 8.388 87.6567 8.556C87.4567 8.7 87.2047 8.832 86.9007 8.952C86.6047 9.064 86.2527 9.12 85.8447 9.12ZM87.5247 5.58C87.4767 5.372 87.4007 5.176 87.2967 4.992C87.2007 4.808 87.0727 4.648 86.9127 4.512C86.7607 4.376 86.5847 4.272 86.3847 4.2C86.1847 4.12 85.9647 4.08 85.7247 4.08C85.4847 4.08 85.2647 4.12 85.0647 4.2C84.8647 4.272 84.6847 4.376 84.5247 4.512C84.3727 4.648 84.2447 4.808 84.1407 4.992C84.0447 5.176 83.9727 5.372 83.9247 5.58H87.5247ZM0.259375 18.24H1.27938V19.08C1.39938 18.904 1.55538 18.744 1.74738 18.6C1.90738 18.48 2.11138 18.372 2.35938 18.276C2.60738 18.172 2.90738 18.12 3.25938 18.12C3.63538 18.12 3.98738 18.196 4.31538 18.348C4.65138 18.492 4.94338 18.7 5.19138 18.972C5.44738 19.236 5.64738 19.552 5.79138 19.92C5.94338 20.288 6.01938 20.688 6.01938 21.12C6.01938 21.552 5.94338 21.952 5.79138 22.32C5.64738 22.688 5.44738 23.008 5.19138 23.28C4.94338 23.544 4.65138 23.752 4.31538 23.904C3.98738 24.048 3.63538 24.12 3.25938 24.12C2.90738 24.12 2.60738 24.072 2.35938 23.976C2.11138 23.872 1.90738 23.76 1.74738 23.64C1.55538 23.496 1.39938 23.336 1.27938 23.16V26.52H0.259375V18.24ZM3.13938 23.16C3.39538 23.16 3.63538 23.112 3.85938 23.016C4.08338 22.912 4.27938 22.772 4.44738 22.596C4.61538 22.412 4.74738 22.196 4.84338 21.948C4.94738 21.7 4.99938 21.424 4.99938 21.12C4.99938 20.824 4.94738 20.552 4.84338 20.304C4.74738 20.048 4.61538 19.832 4.44738 19.656C4.27938 19.472 4.08338 19.332 3.85938 19.236C3.63538 19.132 3.39538 19.08 3.13938 19.08C2.88338 19.08 2.64338 19.132 2.41938 19.236C2.19538 19.332 1.99938 19.472 1.83138 19.656C1.66338 19.832 1.52738 20.048 1.42338 20.304C1.32738 20.552 1.27938 20.824 1.27938 21.12C1.27938 21.424 1.32738 21.7 1.42338 21.948C1.52738 22.196 1.66338 22.412 1.83138 22.596C1.99938 22.772 2.19538 22.912 2.41938 23.016C2.64338 23.112 2.88338 23.16 3.13938 23.16ZM7.45469 18.24H8.47469V19.02C8.59469 18.86 8.74669 18.712 8.93069 18.576C9.09069 18.464 9.28269 18.36 9.50669 18.264C9.73869 18.168 10.0147 18.12 10.3347 18.12H10.5747V19.2C10.5347 19.192 10.4947 19.184 10.4547 19.176C10.4147 19.168 10.3707 19.16 10.3227 19.152C10.2747 19.144 10.2187 19.14 10.1547 19.14C9.91469 19.14 9.69069 19.184 9.48269 19.272C9.28269 19.36 9.10669 19.484 8.95469 19.644C8.80269 19.796 8.68269 19.984 8.59469 20.208C8.51469 20.424 8.47469 20.668 8.47469 20.94V24H7.45469V18.24ZM14.1831 24.12C13.7751 24.12 13.3911 24.044 13.0311 23.892C12.6791 23.732 12.3711 23.52 12.1071 23.256C11.8431 22.984 11.6311 22.668 11.4711 22.308C11.3191 21.94 11.2431 21.544 11.2431 21.12C11.2431 20.704 11.3191 20.312 11.4711 19.944C11.6311 19.576 11.8431 19.26 12.1071 18.996C12.3711 18.724 12.6791 18.512 13.0311 18.36C13.3911 18.2 13.7751 18.12 14.1831 18.12C14.5911 18.12 14.9711 18.2 15.3231 18.36C15.6831 18.512 15.9951 18.724 16.2591 18.996C16.5231 19.26 16.7311 19.576 16.8831 19.944C17.0431 20.312 17.1231 20.704 17.1231 21.12C17.1231 21.544 17.0431 21.94 16.8831 22.308C16.7311 22.668 16.5231 22.984 16.2591 23.256C15.9951 23.52 15.6831 23.732 15.3231 23.892C14.9711 24.044 14.5911 24.12 14.1831 24.12ZM14.1831 23.16C14.4551 23.16 14.7071 23.112 14.9391 23.016C15.1711 22.912 15.3711 22.772 15.5391 22.596C15.7151 22.412 15.8511 22.196 15.9471 21.948C16.0511 21.7 16.1031 21.424 16.1031 21.12C16.1031 20.824 16.0511 20.552 15.9471 20.304C15.8511 20.048 15.7151 19.832 15.5391 19.656C15.3711 19.472 15.1711 19.332 14.9391 19.236C14.7071 19.132 14.4551 19.08 14.1831 19.08C13.9111 19.08 13.6591 19.132 13.4271 19.236C13.1951 19.332 12.9911 19.472 12.8151 19.656C12.6471 19.832 12.5111 20.048 12.4071 20.304C12.3111 20.552 12.2631 20.824 12.2631 21.12C12.2631 21.424 12.3111 21.7 12.4071 21.948C12.5111 22.196 12.6471 22.412 12.8151 22.596C12.9911 22.772 13.1951 22.912 13.4271 23.016C13.6591 23.112 13.9111 23.16 14.1831 23.16ZM17.8441 18.24H18.9241L20.6641 22.68L22.4041 18.24H23.4841L21.2041 24H20.1241L17.8441 18.24ZM24.6241 18.24H25.6441V24H24.6241V18.24ZM25.1041 17.04C24.9201 17.04 24.7641 16.976 24.6361 16.848C24.5081 16.72 24.4441 16.564 24.4441 16.38C24.4441 16.196 24.5081 16.04 24.6361 15.912C24.7641 15.784 24.9201 15.72 25.1041 15.72C25.2881 15.72 25.4441 15.784 25.5721 15.912C25.7001 16.04 25.7641 16.196 25.7641 16.38C25.7641 16.564 25.7001 16.72 25.5721 16.848C25.4441 16.976 25.2881 17.04 25.1041 17.04ZM29.9055 24.12C29.5295 24.12 29.1735 24.048 28.8375 23.904C28.5095 23.752 28.2175 23.544 27.9615 23.28C27.7135 23.008 27.5135 22.688 27.3615 22.32C27.2175 21.952 27.1455 21.552 27.1455 21.12C27.1455 20.688 27.2175 20.288 27.3615 19.92C27.5135 19.552 27.7135 19.236 27.9615 18.972C28.2175 18.7 28.5095 18.492 28.8375 18.348C29.1735 18.196 29.5295 18.12 29.9055 18.12C30.2495 18.12 30.5455 18.172 30.7935 18.276C31.0495 18.372 31.2575 18.48 31.4175 18.6C31.6095 18.744 31.7655 18.904 31.8855 19.08V15.6H32.9055V24H31.8855V23.16C31.7575 23.336 31.5975 23.496 31.4055 23.64C31.2455 23.76 31.0375 23.872 30.7815 23.976C30.5335 24.072 30.2415 24.12 29.9055 24.12ZM30.0255 23.16C30.2815 23.16 30.5215 23.112 30.7455 23.016C30.9695 22.912 31.1655 22.772 31.3335 22.596C31.5015 22.412 31.6335 22.196 31.7295 21.948C31.8335 21.7 31.8855 21.424 31.8855 21.12C31.8855 20.824 31.8335 20.552 31.7295 20.304C31.6335 20.048 31.5015 19.832 31.3335 19.656C31.1655 19.472 30.9695 19.332 30.7455 19.236C30.5215 19.132 30.2815 19.08 30.0255 19.08C29.7695 19.08 29.5295 19.132 29.3055 19.236C29.0815 19.332 28.8855 19.472 28.7175 19.656C28.5495 19.832 28.4135 20.048 28.3095 20.304C28.2135 20.552 28.1655 20.824 28.1655 21.12C28.1655 21.424 28.2135 21.7 28.3095 21.948C28.4135 22.196 28.5495 22.412 28.7175 22.596C28.8855 22.772 29.0815 22.912 29.3055 23.016C29.5295 23.112 29.7695 23.16 30.0255 23.16ZM37.4111 24.12C36.9871 24.12 36.5911 24.044 36.2231 23.892C35.8631 23.732 35.5471 23.52 35.2751 23.256C35.0111 22.984 34.7991 22.668 34.6391 22.308C34.4871 21.94 34.4111 21.544 34.4111 21.12C34.4111 20.704 34.4871 20.312 34.6391 19.944C34.7911 19.576 34.9991 19.26 35.2631 18.996C35.5271 18.724 35.8311 18.512 36.1751 18.36C36.5271 18.2 36.8991 18.12 37.2911 18.12C37.6991 18.12 38.0751 18.192 38.4191 18.336C38.7631 18.472 39.0591 18.668 39.3071 18.924C39.5631 19.172 39.7591 19.468 39.8951 19.812C40.0391 20.156 40.1111 20.532 40.1111 20.94C40.1111 21.02 40.1071 21.092 40.0991 21.156C40.0911 21.22 40.0831 21.276 40.0751 21.324C40.0671 21.38 40.0591 21.432 40.0511 21.48H35.4911C35.5231 21.704 35.5911 21.92 35.6951 22.128C35.8071 22.328 35.9471 22.504 36.1151 22.656C36.2831 22.808 36.4751 22.932 36.6911 23.028C36.9151 23.116 37.1551 23.16 37.4111 23.16C37.6911 23.16 37.9391 23.12 38.1551 23.04C38.3791 22.952 38.5631 22.852 38.7071 22.74C38.8751 22.62 39.0231 22.48 39.1511 22.32L39.8111 22.98C39.6511 23.196 39.4551 23.388 39.2231 23.556C39.0231 23.7 38.7711 23.832 38.4671 23.952C38.1711 24.064 37.8191 24.12 37.4111 24.12ZM39.0911 20.58C39.0431 20.372 38.9671 20.176 38.8631 19.992C38.7671 19.808 38.6391 19.648 38.4791 19.512C38.3271 19.376 38.1511 19.272 37.9511 19.2C37.7511 19.12 37.5311 19.08 37.2911 19.08C37.0511 19.08 36.8311 19.12 36.6311 19.2C36.4311 19.272 36.2511 19.376 36.0911 19.512C35.9391 19.648 35.8111 19.808 35.7071 19.992C35.6111 20.176 35.5391 20.372 35.4911 20.58H39.0911ZM41.5563 18.24H42.5763V19.02C42.6963 18.86 42.8483 18.712 43.0323 18.576C43.1923 18.464 43.3843 18.36 43.6083 18.264C43.8403 18.168 44.1163 18.12 44.4363 18.12H44.6763V19.2C44.6363 19.192 44.5963 19.184 44.5563 19.176C44.5163 19.168 44.4723 19.16 44.4243 19.152C44.3763 19.144 44.3203 19.14 44.2563 19.14C44.0163 19.14 43.7923 19.184 43.5843 19.272C43.3843 19.36 43.2083 19.484 43.0563 19.644C42.9043 19.796 42.7843 19.984 42.6963 20.208C42.6163 20.424 42.5763 20.668 42.5763 20.94V24H41.5563V18.24ZM50.687 24.12C50.279 24.12 49.895 24.044 49.535 23.892C49.183 23.732 48.875 23.52 48.611 23.256C48.347 22.984 48.135 22.668 47.975 22.308C47.823 21.94 47.747 21.544 47.747 21.12C47.747 20.704 47.823 20.312 47.975 19.944C48.135 19.576 48.347 19.26 48.611 18.996C48.875 18.724 49.183 18.512 49.535 18.36C49.895 18.2 50.279 18.12 50.687 18.12C51.095 18.12 51.475 18.2 51.827 18.36C52.187 18.512 52.499 18.724 52.763 18.996C53.027 19.26 53.235 19.576 53.387 19.944C53.547 20.312 53.627 20.704 53.627 21.12C53.627 21.544 53.547 21.94 53.387 22.308C53.235 22.668 53.027 22.984 52.763 23.256C52.499 23.52 52.187 23.732 51.827 23.892C51.475 24.044 51.095 24.12 50.687 24.12ZM50.687 23.16C50.959 23.16 51.211 23.112 51.443 23.016C51.675 22.912 51.875 22.772 52.043 22.596C52.219 22.412 52.355 22.196 52.451 21.948C52.555 21.7 52.607 21.424 52.607 21.12C52.607 20.824 52.555 20.552 52.451 20.304C52.355 20.048 52.219 19.832 52.043 19.656C51.875 19.472 51.675 19.332 51.443 19.236C51.211 19.132 50.959 19.08 50.687 19.08C50.415 19.08 50.163 19.132 49.931 19.236C49.699 19.332 49.495 19.472 49.319 19.656C49.151 19.832 49.015 20.048 48.911 20.304C48.815 20.552 48.767 20.824 48.767 21.12C48.767 21.424 48.815 21.7 48.911 21.948C49.015 22.196 49.151 22.412 49.319 22.596C49.495 22.772 49.699 22.912 49.931 23.016C50.163 23.112 50.415 23.16 50.687 23.16ZM55.428 19.2H54.528V18.24H55.428V17.28C55.428 16.704 55.58 16.26 55.884 15.948C56.188 15.636 56.596 15.48 57.108 15.48C57.244 15.48 57.364 15.492 57.468 15.516C57.58 15.532 57.676 15.552 57.756 15.576C57.844 15.608 57.928 15.636 58.008 15.66V16.62C57.944 16.596 57.868 16.568 57.78 16.536C57.708 16.512 57.624 16.492 57.528 16.476C57.432 16.452 57.332 16.44 57.228 16.44C56.988 16.44 56.796 16.516 56.652 16.668C56.516 16.812 56.448 17.036 56.448 17.34V18.24H57.828V19.2H56.448V24H55.428V19.2ZM63.887 24.12C62.727 24.12 62.147 23.52 62.147 22.32V19.2H61.067V18.24H61.727C61.879 18.24 61.995 18.196 62.075 18.108C62.163 18.012 62.207 17.856 62.207 17.64V16.32H63.167V18.24H64.487V19.2H63.167V22.26C63.167 22.564 63.235 22.792 63.371 22.944C63.515 23.088 63.715 23.16 63.971 23.16C64.067 23.16 64.159 23.152 64.247 23.136C64.343 23.12 64.427 23.1 64.499 23.076C64.587 23.044 64.663 23.012 64.727 22.98V23.94C64.655 23.972 64.575 24.004 64.487 24.036C64.407 24.06 64.315 24.08 64.211 24.096C64.115 24.112 64.007 24.12 63.887 24.12ZM66.2256 15.6H67.2456V19.08C67.3656 18.904 67.5136 18.744 67.6896 18.6C67.8416 18.48 68.0296 18.372 68.2536 18.276C68.4776 18.172 68.7416 18.12 69.0456 18.12C69.3896 18.12 69.7056 18.18 69.9936 18.3C70.2816 18.412 70.5256 18.576 70.7256 18.792C70.9336 19.008 71.0936 19.272 71.2056 19.584C71.3256 19.896 71.3856 20.248 71.3856 20.64V24H70.3656V20.64C70.3656 20.16 70.2296 19.78 69.9576 19.5C69.6936 19.22 69.3496 19.08 68.9256 19.08C68.6856 19.08 68.4616 19.124 68.2536 19.212C68.0536 19.292 67.8776 19.412 67.7256 19.572C67.5736 19.724 67.4536 19.908 67.3656 20.124C67.2856 20.332 67.2456 20.564 67.2456 20.82V24H66.2256V15.6ZM75.8252 24.12C75.4012 24.12 75.0052 24.044 74.6372 23.892C74.2772 23.732 73.9612 23.52 73.6892 23.256C73.4252 22.984 73.2132 22.668 73.0532 22.308C72.9012 21.94 72.8252 21.544 72.8252 21.12C72.8252 20.704 72.9012 20.312 73.0532 19.944C73.2052 19.576 73.4132 19.26 73.6772 18.996C73.9412 18.724 74.2452 18.512 74.5892 18.36C74.9412 18.2 75.3132 18.12 75.7052 18.12C76.1132 18.12 76.4892 18.192 76.8332 18.336C77.1772 18.472 77.4732 18.668 77.7212 18.924C77.9772 19.172 78.1732 19.468 78.3092 19.812C78.4532 20.156 78.5252 20.532 78.5252 20.94C78.5252 21.02 78.5212 21.092 78.5132 21.156C78.5052 21.22 78.4972 21.276 78.4892 21.324C78.4812 21.38 78.4732 21.432 78.4652 21.48H73.9052C73.9372 21.704 74.0052 21.92 74.1092 22.128C74.2212 22.328 74.3612 22.504 74.5292 22.656C74.6972 22.808 74.8892 22.932 75.1052 23.028C75.3292 23.116 75.5692 23.16 75.8252 23.16C76.1052 23.16 76.3532 23.12 76.5692 23.04C76.7932 22.952 76.9772 22.852 77.1212 22.74C77.2892 22.62 77.4372 22.48 77.5652 22.32L78.2252 22.98C78.0652 23.196 77.8692 23.388 77.6372 23.556C77.4372 23.7 77.1852 23.832 76.8812 23.952C76.5852 24.064 76.2332 24.12 75.8252 24.12ZM77.5052 20.58C77.4572 20.372 77.3812 20.176 77.2772 19.992C77.1812 19.808 77.0532 19.648 76.8932 19.512C76.7412 19.376 76.5652 19.272 76.3652 19.2C76.1652 19.12 75.9452 19.08 75.7052 19.08C75.4652 19.08 75.2452 19.12 75.0452 19.2C74.8452 19.272 74.6652 19.376 74.5052 19.512C74.3532 19.648 74.2252 19.808 74.1212 19.992C74.0252 20.176 73.9532 20.372 73.9052 20.58H77.5052ZM82.6755 26.52C82.4355 26.52 82.2355 26.5 82.0755 26.46C81.9875 26.444 81.9075 26.424 81.8355 26.4V25.44C81.8915 25.464 81.9555 25.484 82.0275 25.5C82.1635 25.54 82.3195 25.56 82.4955 25.56C82.7675 25.56 82.9875 25.488 83.1555 25.344C83.3235 25.2 83.4635 24.992 83.5755 24.72L83.8755 24L81.5355 18.24H82.6155L84.3555 22.68L86.0955 18.24H87.1755L84.5955 24.78C84.3555 25.38 84.0875 25.82 83.7915 26.1C83.5035 26.38 83.1315 26.52 82.6755 26.52ZM90.8955 24.12C90.4715 24.12 90.0755 24.044 89.7075 23.892C89.3475 23.732 89.0315 23.52 88.7595 23.256C88.4955 22.984 88.2835 22.668 88.1235 22.308C87.9715 21.94 87.8955 21.544 87.8955 21.12C87.8955 20.704 87.9715 20.312 88.1235 19.944C88.2755 19.576 88.4835 19.26 88.7475 18.996C89.0115 18.724 89.3155 18.512 89.6595 18.36C90.0115 18.2 90.3835 18.12 90.7755 18.12C91.1835 18.12 91.5595 18.192 91.9035 18.336C92.2475 18.472 92.5435 18.668 92.7915 18.924C93.0475 19.172 93.2435 19.468 93.3795 19.812C93.5235 20.156 93.5955 20.532 93.5955 20.94C93.5955 21.02 93.5915 21.092 93.5835 21.156C93.5755 21.22 93.5675 21.276 93.5595 21.324C93.5515 21.38 93.5435 21.432 93.5355 21.48H88.9755C89.0075 21.704 89.0755 21.92 89.1795 22.128C89.2915 22.328 89.4315 22.504 89.5995 22.656C89.7675 22.808 89.9595 22.932 90.1755 23.028C90.3995 23.116 90.6395 23.16 90.8955 23.16C91.1755 23.16 91.4235 23.12 91.6395 23.04C91.8635 22.952 92.0475 22.852 92.1915 22.74C92.3595 22.62 92.5075 22.48 92.6355 22.32L93.2955 22.98C93.1355 23.196 92.9395 23.388 92.7075 23.556C92.5075 23.7 92.2555 23.832 91.9515 23.952C91.6555 24.064 91.3035 24.12 90.8955 24.12ZM92.5755 20.58C92.5275 20.372 92.4515 20.176 92.3475 19.992C92.2515 19.808 92.1235 19.648 91.9635 19.512C91.8115 19.376 91.6355 19.272 91.4355 19.2C91.2355 19.12 91.0155 19.08 90.7755 19.08C90.5355 19.08 90.3155 19.12 90.1155 19.2C89.9155 19.272 89.7355 19.376 89.5755 19.512C89.4235 19.648 89.2955 19.808 89.1915 19.992C89.0955 20.176 89.0235 20.372 88.9755 20.58H92.5755ZM96.6006 24.12C96.2966 24.12 96.0246 24.076 95.7846 23.988C95.5446 23.892 95.3366 23.768 95.1606 23.616C94.9846 23.464 94.8486 23.288 94.7526 23.088C94.6646 22.88 94.6206 22.664 94.6206 22.44C94.6206 21.96 94.7646 21.572 95.0526 21.276C95.3406 20.98 95.7566 20.788 96.3006 20.7L98.4606 20.34C98.4606 19.98 98.3366 19.68 98.0886 19.44C97.8486 19.2 97.5326 19.08 97.1406 19.08C96.9006 19.08 96.6846 19.124 96.4926 19.212C96.3006 19.292 96.1366 19.38 96.0006 19.476C95.8406 19.588 95.7006 19.716 95.5806 19.86L94.9206 19.2C95.0806 19 95.2686 18.82 95.4846 18.66C95.6686 18.524 95.9006 18.4 96.1806 18.288C96.4606 18.176 96.7806 18.12 97.1406 18.12C97.4846 18.12 97.8006 18.176 98.0886 18.288C98.3766 18.4 98.6206 18.556 98.8206 18.756C99.0286 18.956 99.1886 19.192 99.3006 19.464C99.4206 19.736 99.4806 20.028 99.4806 20.34V24H98.4606V23.22C98.3406 23.388 98.1886 23.54 98.0046 23.676C97.8446 23.788 97.6486 23.892 97.4166 23.988C97.1846 24.076 96.9126 24.12 96.6006 24.12ZM96.7206 23.22C96.9606 23.22 97.1846 23.176 97.3926 23.088C97.6086 22.992 97.7926 22.864 97.9446 22.704C98.1046 22.544 98.2286 22.356 98.3166 22.14C98.4126 21.916 98.4606 21.676 98.4606 21.42V21.18L96.6006 21.48C96.2966 21.528 96.0606 21.64 95.8926 21.816C95.7246 21.984 95.6406 22.172 95.6406 22.38C95.6406 22.612 95.7326 22.812 95.9166 22.98C96.1006 23.14 96.3686 23.22 96.7206 23.22ZM101.275 18.24H102.295V19.02C102.415 18.86 102.567 18.712 102.751 18.576C102.911 18.464 103.103 18.36 103.327 18.264C103.559 18.168 103.835 18.12 104.155 18.12H104.395V19.2C104.355 19.192 104.315 19.184 104.275 19.176C104.235 19.168 104.191 19.16 104.143 19.152C104.095 19.144 104.039 19.14 103.975 19.14C103.735 19.14 103.511 19.184 103.303 19.272C103.103 19.36 102.927 19.484 102.775 19.644C102.623 19.796 102.503 19.984 102.415 20.208C102.335 20.424 102.295 20.668 102.295 20.94V24H101.275V18.24Z" fill="#011831"/>
</svg>
