<svg width="62" height="62" viewBox="0 0 62 62" fill="none" xmlns="http://www.w3.org/2000/svg">
    <circle cx="31" cy="31" r="31" fill="#0069CC" />
    <path d="M23.3119 35.9027H16.229C15.8151 35.9033 15.4109 35.7772 15.0709 35.5412C14.7308 35.3052 14.4712 34.9707 14.3271 34.5827L13.3647 31.9561C13.3343 31.8702 13.3249 31.7782 13.3374 31.6879C13.3498 31.5976 13.3838 31.5116 13.4363 31.4371C13.4888 31.3626 13.5584 31.3018 13.6393 31.2597C13.7201 31.2177 13.8099 31.1956 13.901 31.1953H25.6418C25.7328 31.1959 25.8224 31.2182 25.903 31.2604C25.9836 31.3026 26.0529 31.3634 26.1052 31.4379C26.1575 31.5123 26.1913 31.5982 26.2036 31.6884C26.216 31.7785 26.2066 31.8703 26.1763 31.9561L25.2044 34.5846C25.0605 34.9707 24.8022 35.3038 24.4641 35.5393C24.1259 35.7748 23.724 35.9015 23.3119 35.9027ZM14.7189 32.3289L15.4074 34.1871C15.4698 34.3546 15.582 34.4991 15.7288 34.6011C15.8757 34.703 16.0502 34.7577 16.229 34.7577H23.3119C23.4907 34.7577 23.6653 34.703 23.8121 34.6011C23.959 34.4991 24.0711 34.3546 24.1336 34.1871L24.8221 32.3289H14.7189Z" fill="white" />
    <path d="M14.5787 32.1575C14.4823 32.1576 14.3875 32.1332 14.3031 32.0867C14.2187 32.0402 14.1475 31.9731 14.096 31.8917C14.0445 31.8102 14.0145 31.717 14.0088 31.6208C14.0031 31.5246 14.0218 31.4286 14.0633 31.3416L19.17 20.6221C19.2164 20.5247 19.2895 20.4425 19.3807 20.3849C19.4719 20.3273 19.5776 20.2968 19.6855 20.2969C19.793 20.2972 19.8983 20.3279 19.9891 20.3854C20.08 20.443 20.1527 20.525 20.199 20.6221L25.3039 31.3416C25.3402 31.4096 25.3624 31.4843 25.3691 31.5611C25.3757 31.638 25.3668 31.7154 25.3427 31.7886C25.3186 31.8619 25.2799 31.9296 25.229 31.9875C25.178 32.0454 25.1159 32.0923 25.0462 32.1255C24.9766 32.1587 24.901 32.1775 24.8239 32.1806C24.7469 32.1838 24.6699 32.1713 24.5978 32.1439C24.5258 32.1164 24.46 32.0747 24.4045 32.0211C24.3489 31.9676 24.3049 31.9033 24.2749 31.8323L19.6855 22.1931L15.0941 31.8323C15.0477 31.9297 14.9747 32.0119 14.8835 32.0695C14.7922 32.127 14.6866 32.1576 14.5787 32.1575Z" fill="white" />
    <path d="M45.7729 35.9027H38.69C38.2777 35.9014 37.8756 35.7744 37.5374 35.5385C37.1993 35.3026 36.9411 34.9692 36.7975 34.5827L35.8256 31.9561C35.7952 31.8702 35.7859 31.7782 35.7983 31.6879C35.8108 31.5976 35.8447 31.5116 35.8972 31.4371C35.9497 31.3626 36.0193 31.3018 36.1002 31.2597C36.1811 31.2177 36.2708 31.1956 36.362 31.1953H48.1028C48.1938 31.1959 48.2833 31.2182 48.3639 31.2604C48.4445 31.3026 48.5139 31.3634 48.5662 31.4379C48.6185 31.5124 48.6522 31.5982 48.6646 31.6884C48.677 31.7785 48.6676 31.8703 48.6372 31.9561L47.6653 34.5846C47.5214 34.9707 47.2631 35.3038 46.925 35.5393C46.5869 35.7748 46.1849 35.9016 45.7729 35.9027ZM37.1798 32.3289L37.8683 34.1871C37.931 34.3545 38.0432 34.4988 38.19 34.6007C38.3368 34.7027 38.5112 34.7574 38.69 34.7577H45.7729C45.9518 34.7573 46.1264 34.7025 46.2735 34.6006C46.4206 34.4987 46.5332 34.3545 46.5964 34.1871L47.283 32.3289H37.1798Z" fill="white" />
    <path d="M37.0396 32.1575C36.9433 32.1576 36.8485 32.1332 36.7641 32.0867C36.6797 32.0402 36.6084 31.9731 36.5569 31.8917C36.5055 31.8102 36.4755 31.717 36.4698 31.6208C36.464 31.5247 36.4828 31.4286 36.5242 31.3416L41.631 20.6221C41.6773 20.5247 41.7504 20.4425 41.8416 20.3849C41.9328 20.3273 42.0385 20.2968 42.1464 20.2969C42.2539 20.2972 42.3592 20.3279 42.4501 20.3854C42.5409 20.443 42.6137 20.525 42.6599 20.6221L47.7667 31.3416C47.8318 31.4783 47.8399 31.6352 47.7892 31.7779C47.7386 31.9206 47.6333 32.0373 47.4966 32.1024C47.3599 32.1674 47.203 32.1755 47.0603 32.1249C46.9176 32.0742 46.8009 31.969 46.7358 31.8323L42.1464 22.1931L37.5551 31.8323C37.5087 31.9297 37.4356 32.0119 37.3444 32.0695C37.2532 32.1271 37.1475 32.1576 37.0396 32.1575Z" fill="white" />
    <path d="M32.149 43.2177H29.937C29.7856 43.2177 29.6405 43.1576 29.5335 43.0506C29.4265 42.9436 29.3664 42.7985 29.3664 42.6471V21.096H16.2809C16.056 21.1036 15.8318 21.0658 15.6218 20.985C15.4118 20.9041 15.2201 20.7819 15.0584 20.6254C14.8966 20.469 14.7679 20.2816 14.68 20.0744C14.5922 19.8672 14.5469 19.6445 14.5469 19.4194C14.5469 19.1944 14.5922 18.9716 14.68 18.7644C14.7679 18.5572 14.8966 18.3699 15.0584 18.2134C15.2201 18.057 15.4118 17.9347 15.6218 17.8539C15.8318 17.773 16.056 17.7353 16.2809 17.7428H29.3664V15.4015C28.9961 15.0825 28.7301 14.6597 28.6028 14.1878C28.4754 13.7159 28.4926 13.2167 28.6521 12.7546C28.8116 12.2926 29.106 11.8891 29.4973 11.5963C29.8887 11.3034 30.3588 11.1347 30.8471 11.112C31.3353 11.0893 31.8191 11.2136 32.236 11.4689C32.6528 11.7241 32.9834 12.0986 33.1851 12.5438C33.3867 12.989 33.4502 13.4845 33.3672 13.9662C33.2842 14.4478 33.0586 14.8935 32.7195 15.2456V17.7428H45.7195C45.9444 17.7353 46.1685 17.773 46.3786 17.8539C46.5886 17.9347 46.7802 18.057 46.942 18.2134C47.1038 18.3699 47.2324 18.5572 47.3203 18.7644C47.4082 18.9716 47.4535 19.1944 47.4535 19.4194C47.4535 19.6445 47.4082 19.8672 47.3203 20.0744C47.2324 20.2816 47.1038 20.469 46.942 20.6254C46.7802 20.7819 46.5886 20.9041 46.3786 20.985C46.1685 21.0658 45.9444 21.1036 45.7195 21.096H32.7195V42.6471C32.7195 42.7985 32.6594 42.9436 32.5524 43.0506C32.4454 43.1576 32.3003 43.2177 32.149 43.2177ZM30.5076 42.0766H31.5784V20.5254C31.5784 20.3741 31.6385 20.229 31.7455 20.1219C31.8525 20.0149 31.9976 19.9548 32.149 19.9548H45.7195C45.79 19.9553 45.86 19.9418 45.9253 19.915C45.9906 19.8883 46.0499 19.8488 46.0998 19.7989C46.1498 19.749 46.1892 19.6896 46.216 19.6243C46.2428 19.559 46.2563 19.489 46.2558 19.4185C46.2558 19.3481 46.2419 19.2785 46.215 19.2135C46.188 19.1485 46.1484 19.0895 46.0986 19.0399C46.0488 18.9902 45.9896 18.9509 45.9246 18.9242C45.8595 18.8974 45.7898 18.8838 45.7195 18.884H32.149C31.9976 18.884 31.8525 18.8239 31.7455 18.7169C31.6385 18.6099 31.5784 18.4648 31.5784 18.3134V14.9926C31.5785 14.9086 31.5971 14.8257 31.6329 14.7498C31.6688 14.6738 31.7209 14.6067 31.7857 14.5533C31.9974 14.379 32.1487 14.1423 32.2178 13.8769C32.287 13.6116 32.2706 13.3312 32.1709 13.0757C32.0712 12.8203 31.8933 12.6029 31.6627 12.4546C31.432 12.3062 31.1604 12.2346 30.8866 12.2498C30.6128 12.2651 30.3509 12.3665 30.1381 12.5395C29.9254 12.7125 29.7728 12.9483 29.702 13.2132C29.6313 13.4782 29.6461 13.7587 29.7443 14.0147C29.8425 14.2707 30.0191 14.4892 30.2489 14.6388C30.3283 14.6907 30.3935 14.7614 30.4387 14.8448C30.4838 14.9281 30.5075 15.0214 30.5076 15.1162V18.3134C30.5076 18.4648 30.4475 18.6099 30.3404 18.7169C30.2334 18.8239 30.0883 18.884 29.937 18.884H16.2809C16.1444 18.8922 16.0162 18.9521 15.9224 19.0516C15.8287 19.1511 15.7765 19.2827 15.7765 19.4194C15.7765 19.5561 15.8287 19.6877 15.9224 19.7872C16.0162 19.8867 16.1444 19.9467 16.2809 19.9548H29.937C30.0883 19.9548 30.2334 20.0149 30.3404 20.1219C30.4475 20.229 30.5076 20.3741 30.5076 20.5254V42.0766Z" fill="white" />
    <path d="M37.2533 45.4313H24.6604C24.5091 45.4313 24.364 45.3712 24.257 45.2642C24.15 45.1572 24.0899 45.012 24.0899 44.8607V44.0999C24.0891 43.8347 24.1407 43.5719 24.2417 43.3266C24.3427 43.0814 24.491 42.8585 24.6783 42.6706C24.8656 42.4828 25.0881 42.3338 25.3331 42.2321C25.5781 42.1305 25.8407 42.0781 26.1059 42.0781H35.806C36.3393 42.0791 36.8506 42.2915 37.2277 42.6686C37.6049 43.0458 37.8172 43.557 37.8182 44.0904V44.8512C37.8195 44.9264 37.8058 45.0012 37.7781 45.0712C37.7503 45.1411 37.709 45.2049 37.6565 45.2588C37.604 45.3127 37.5414 45.3557 37.4722 45.3853C37.403 45.4149 37.3286 45.4305 37.2533 45.4313ZM25.231 44.2901H36.6828V44.0999C36.6823 43.869 36.5903 43.6478 36.4271 43.4845C36.2638 43.3213 36.0425 43.2293 35.8117 43.2288H26.1059C25.8747 43.2288 25.653 43.3205 25.4893 43.4838C25.3256 43.6471 25.2334 43.8687 25.2329 44.0999L25.231 44.2901Z" fill="white" />
    <path d="M39.2978 47.5993H22.6214C22.47 47.5993 22.3249 47.5391 22.2179 47.4321C22.1109 47.3251 22.0508 47.18 22.0508 47.0287V46.4771C22.0513 45.8856 22.2865 45.3184 22.7048 44.9001C23.1231 44.4818 23.6902 44.2466 24.2818 44.2461H37.6355C38.2272 44.2466 38.7946 44.4817 39.2132 44.9C39.6317 45.3182 39.8674 45.8854 39.8684 46.4771V47.0287C39.8684 47.18 39.8083 47.3251 39.7013 47.4321C39.5943 47.5391 39.4491 47.5993 39.2978 47.5993ZM23.192 46.4581H38.7272C38.7217 46.1722 38.6043 45.8998 38.4001 45.6996C38.196 45.4994 37.9214 45.3872 37.6355 45.3873H24.2818C23.9962 45.3877 23.7221 45.5001 23.5183 45.7003C23.3146 45.9004 23.1974 46.1725 23.192 46.4581Z" fill="white" />
</svg>
