<svg width="13" height="14" viewBox="0 0 13 14" fill="none" xmlns="http://www.w3.org/2000/svg">
<path fill-rule="evenodd" clip-rule="evenodd" d="M8.69191 4.10777V5.123H3.61579V4.10777C3.61579 2.70604 4.75211 1.56971 6.15385 1.56971C7.55558 1.56971 8.69191 2.70604 8.69191 4.10777ZM2.09295 5.123V4.10777C2.09295 1.865 3.91107 0.046875 6.15385 0.046875C8.39662 0.046875 10.2147 1.865 10.2147 4.10777V5.123L11.23 5.123C11.7907 5.123 12.2452 5.57753 12.2452 6.13822V12.2296C12.2452 12.7903 11.7907 13.2448 11.23 13.2448H1.07772C0.517031 13.2448 0.0625 12.7903 0.0625 12.2296V6.13822C0.0625 5.57753 0.517031 5.123 1.07772 5.123L2.09295 5.123ZM10.2147 6.64583H8.69191H3.61579H2.09295L1.58534 6.64583V11.722H10.7224V6.64583L10.2147 6.64583Z" fill="#AFBDD1"/>
</svg>
