<svg width="155" height="50" viewBox="0 0 155 50" fill="none" xmlns="http://www.w3.org/2000/svg">
<path fill-rule="evenodd" clip-rule="evenodd" d="M72.9174 10.4975H80.9563C80.9563 10.4975 88.9159 10.3376 88.8356 17.5484C88.7563 22.9175 81.1186 23.7184 81.1186 23.7184H72.9183V10.4975H72.9174V10.4975ZM96.9672 36.381C97.1929 37.4297 97.9541 38.5856 100.493 38.7043C103.869 38.7834 105.799 37.5009 105.799 37.5009V39.9851C105.799 39.9851 102.101 40.8676 100.332 40.8676C98.4832 40.8676 93.0161 40.4659 93.0161 35.4184C93.0161 31.3326 97.5184 30.0501 100.09 30.0501C104.592 30.2101 106.763 31.8135 106.683 36.3801C106.683 36.446 99.2752 36.3968 96.9672 36.381V36.381ZM96.9777 34.3759H103.146C103.146 34.3759 103.146 32.0526 100.171 32.0526C97.9338 32.0526 97.2018 33.2551 96.9777 34.3759ZM116.491 31.8671C117.383 30.9019 118.882 30.1292 121.395 30.1292C126.38 30.1292 127.184 34.2959 127.104 35.4175C127.024 36.5392 126.622 40.7859 120.834 40.7859C118.648 40.7859 117.31 40.0422 116.492 39.1192V40.465H112.552V26.0417H116.492V31.8671H116.491V31.8671ZM119.869 38.5425C122.2 38.4617 123.245 36.4601 123.245 35.4984C123.245 34.5367 122.681 32.5334 119.706 32.5334C117.398 32.5334 116.695 34.2713 116.491 35.1204V36.1656C116.694 37.0315 117.4 38.5425 119.869 38.5425V38.5425ZM153.876 38.1426L153.955 40.3868C153.955 40.3868 152.106 40.7867 150.901 40.7867C149.695 40.7867 146.558 40.0659 146.558 37.02V32.3725H143.263V30.2901H146.558V27.8059H150.579V30.2901H153.876V32.3725H150.579V36.3801C150.579 36.3801 150.579 38.3834 152.187 38.3834C153.794 38.3834 153.876 38.1426 153.876 38.1426V38.1426ZM141.655 12.6609H146.318V23.7984H150.256V12.6609H155V10.3367H141.655V12.6609ZM140.047 13.2217L140.529 10.8975C140.529 10.8975 138.519 10.0167 134.982 10.0167C131.525 10.0167 125.979 11.9401 125.979 17.1484C125.979 22.2767 131.847 24.0392 135.465 24.0392C139.083 24.0392 140.288 23.4784 140.288 23.4784L139.887 20.9142C139.887 20.9142 138.278 21.395 135.544 21.395C132.891 21.3151 130.16 19.2317 130.16 16.9084C130.239 14.8251 132.651 12.5009 135.788 12.5009C138.198 12.5009 140.047 13.2217 140.047 13.2217V13.2217ZM104.512 10.4175C104.512 10.4175 111.105 10.0976 111.105 13.9434C111.105 17.2293 107.327 17.4692 107.327 17.4692C107.327 17.4692 108.372 17.6292 108.855 18.35C109.256 18.9909 111.909 23.7992 111.909 23.7992H107.888C107.888 23.7992 107.245 22.9975 106.923 22.4376C106.683 21.8768 105.959 20.6742 105.959 20.6742C105.959 20.6742 105.397 18.6709 103.466 18.6709C103.418 18.6709 102.633 18.641 102.019 18.6181V23.7992H98.1604V10.4175H104.512V10.4175ZM102.02 16.4276H104.111C104.111 16.4276 107.005 16.2667 107.165 14.5042C107.246 12.8217 104.353 12.5809 104.353 12.5809H102.02V16.4276V16.4276ZM118.179 18.5109H124.611V16.0267H118.179V12.9817H125.174V10.4175H114.242V23.7992H125.256V21.395H118.18V18.5109H118.179ZM133.855 28.7667H137.795V26.0417H133.855V28.7667ZM133.855 40.4659H137.795V30.2901H133.855V40.4659V40.4659ZM90.9267 23.7992H94.7852V10.4175H90.9267V23.7992V23.7992ZM72.9174 27.1651H80.9563C80.9563 27.1651 88.9159 27.0033 88.8356 34.2159C88.7563 39.5842 81.1186 40.3868 81.1186 40.3868H72.9183V27.1651H72.9174V27.1651ZM76.8571 37.9026H79.4297C79.4297 37.9026 84.7355 37.5818 84.7355 33.4951C84.7355 29.4084 79.1078 29.0076 79.1078 29.0076H76.8571V37.9026ZM76.8571 21.2351H79.4297C79.4297 21.2351 84.7355 20.8342 84.7355 16.8275C84.7355 12.6609 79.1078 12.3409 79.1078 12.3409H76.8571V21.2351ZM36.8203 18.4634V45.2743C36.8203 45.2743 21.2231 42.4692 21.2231 31.8126C21.224 23.3131 32.7695 19.5666 36.8203 18.4634ZM36.8203 17.9633C27.4461 17.2873 6.19037 21.6667 6.19037 31.2509C6.19037 37.5 17.4457 46.6359 35.7752 46.8759C36.4984 46.8759 57.3202 46.0742 56.9992 23.7984C56.7293 5.08879 42.6799 1.81171 38.1873 1.24121V0.101095C56.0979 1.23418 70.1843 11.9699 70.1843 25C70.1843 38.7825 54.4266 50 35.052 50C15.6774 50 0 38.7816 0 25C0 11.2184 15.6766 0 35.052 0C35.6456 0 36.2356 0.0105513 36.8212 0.0316483V17.9633H36.8203Z" fill="black"/>
</svg>
