<svg width="60" height="60" viewBox="0 0 40 40" fill="none" xmlns="http://www.w3.org/2000/svg">
    <path fill-rule="evenodd" clip-rule="evenodd" d="M17.3681 10.7626C17.6003 10.1331 18.2126 9.71267 18.8851 9.71267H22.5513H22.6937H26.6565C27.3631 9.71267 27.9906 10.1441 28.2464 10.8027L28.2468 10.8037L29.6983 14.6182H21.0682H20.4869H17.1054H16.963H15.8794L17.3662 10.7676L17.3674 10.7646L17.3681 10.7626ZM20.4869 15.3309H17.1054H16.963H13.2968C12.6148 15.3309 12.0107 15.7496 11.7665 16.3847L11.7663 16.3852L10.3244 20.177H16.8207H17.6037H24.1077L22.6585 16.4219L22.6584 16.4216C22.4028 15.7626 21.775 15.3309 21.0682 15.3309H20.4869ZM22.7821 15.3309C23.0129 15.5634 23.1985 15.845 23.3221 16.164L23.3223 16.1645L24.8943 20.2378V18.7764C24.8943 18.5796 25.0537 18.4201 25.2503 18.4201H27.6916C27.6742 18.3314 27.665 18.2397 27.665 18.1459C27.665 17.3653 28.2972 16.7325 29.077 16.7325C29.8567 16.7325 30.4889 17.3653 30.4889 18.1459C30.4889 18.9266 29.8567 19.5594 29.077 19.5594C28.839 19.5594 28.6148 19.5005 28.4182 19.3964V20.5225C28.4182 20.7193 28.2588 20.8788 28.0622 20.8788H26.0947C26.3374 21.094 26.5425 21.3508 26.6986 21.638H29.4685C29.6651 21.638 29.8244 21.7975 29.8244 21.9943V23.7285H31.9245V17.4095C31.9245 16.2641 30.9923 15.3309 29.8482 15.3309H22.7821ZM26.9674 22.3506C27.0124 22.5494 27.0362 22.7561 27.0362 22.9683V29.6437C27.0362 29.8405 26.8769 30 26.6803 30H23.8683C23.6718 30 23.5124 29.8405 23.5124 29.6437V27.9095H17.2241C17.2221 27.9095 17.2201 27.9095 17.2181 27.9095L17.2144 27.9095L17.2122 27.9095H10.912V29.6437C10.912 29.8405 10.7527 30 10.5561 30H7.74414C7.54756 30 7.3882 29.8405 7.3882 29.6437V22.9683C7.3882 22.1372 7.75306 21.3896 8.33085 20.8778H6.35594C6.15936 20.8778 6 20.7183 6 20.5215V18.7873C6 18.5905 6.15936 18.431 6.35594 18.431H9.16789C9.36447 18.431 9.52383 18.5905 9.52383 18.7873V20.2543L9.53429 20.2518L11.1019 16.1294C11.451 15.2207 12.318 14.6182 13.2968 14.6182H15.1162L16.7013 10.5131C17.0394 9.59988 17.9212 9 18.8851 9H22.5513H22.6937H26.6565C27.6582 9 28.549 9.61341 28.9105 10.5459L28.9112 10.5479L30.4762 14.6604V13.2253C30.4762 13.0286 30.6355 12.869 30.8321 12.869H33.6441C33.8406 12.869 34 13.0286 34 13.2253V14.9714C34 15.1682 33.8406 15.3277 33.6441 15.3277H31.7036C32.2757 15.8393 32.6364 16.583 32.6364 17.4095V24.0848C32.6364 24.2816 32.477 24.4411 32.2804 24.4411H29.4685C29.2719 24.4411 29.1125 24.2816 29.1125 24.0848V22.3506H26.9674ZM17.2241 27.1968C17.2221 27.1968 17.2201 27.1968 17.2181 27.1969L17.2155 27.1968L17.2122 27.1968H10.5561C10.3595 27.1968 10.2001 27.3564 10.2001 27.5532V29.2873H8.10008V22.9683C8.10008 21.8229 9.03228 20.8897 10.1764 20.8897H16.8207H17.6037H24.248C25.3921 20.8897 26.3243 21.8229 26.3243 22.9683V29.2873H24.2243V27.5532C24.2243 27.3564 24.0649 27.1968 23.8683 27.1968H17.2241ZM6.71188 20.1651V19.1436H8.81195V20.1651H6.71188ZM27.7063 19.1328V20.1661H25.6062V19.1328H27.7063ZM10.912 23.0039C10.5254 23.0039 10.212 23.3177 10.212 23.7047C10.212 24.0918 10.5254 24.4055 10.912 24.4055C11.2986 24.4055 11.612 24.0918 11.612 23.7047C11.612 23.3177 11.2986 23.0039 10.912 23.0039ZM9.5001 23.7047C9.5001 22.9241 10.1322 22.2913 10.912 22.2913C11.6918 22.2913 12.3239 22.9241 12.3239 23.7047C12.3239 24.4854 11.6918 25.1182 10.912 25.1182C10.1322 25.1182 9.5001 24.4854 9.5001 23.7047ZM22.7767 23.7047C22.7767 23.3177 23.0902 23.0039 23.4768 23.0039C23.8634 23.0039 24.1768 23.3177 24.1768 23.7047C24.1768 24.0918 23.8634 24.4055 23.4768 24.4055C23.0902 24.4055 22.7767 24.0918 22.7767 23.7047ZM23.4768 22.2913C22.697 22.2913 22.0649 22.9241 22.0649 23.7047C22.0649 24.4854 22.697 25.1182 23.4768 25.1182C24.2565 25.1182 24.8887 24.4854 24.8887 23.7047C24.8887 22.9241 24.2565 22.2913 23.4768 22.2913ZM11.9561 25.4508C11.9561 25.254 12.1155 25.0944 12.3121 25.0944H22.1242C22.3208 25.0944 22.4802 25.254 22.4802 25.4508C22.4802 25.6476 22.3208 25.8071 22.1242 25.8071H12.3121C12.1155 25.8071 11.9561 25.6476 11.9561 25.4508ZM33.2881 13.5817V14.6151H31.1881V13.5817H33.2881ZM29.077 17.4451C28.6903 17.4451 28.3769 17.7589 28.3769 18.1459C28.3769 18.533 28.6903 18.8467 29.077 18.8467C29.4636 18.8467 29.777 18.533 29.777 18.1459C29.777 17.7589 29.4636 17.4451 29.077 17.4451Z" fill="white"/>
</svg>
