<svg width="60" height="60" viewBox="0 0 40 40" fill="none" xmlns="http://www.w3.org/2000/svg">
    <path fillRule="evenodd" clipRule="evenodd" d="M27.8704 16.0123H30.6277C30.8255 16.0123 30.9767 16.1723 31 16.3815V18.1785C31 18.3877 30.8488 18.5477 30.651 18.5477H28.7314C29.2898 19.0769 29.6504 19.8523 29.6504 20.7138V27.6308C29.6504 27.84 29.4992 28 29.3014 28H26.5442C26.3464 28 26.1951 27.84 26.1951 27.6308V25.8338H20.0175H20.0058H19.9942H13.8165V27.6308C13.8165 27.84 13.6653 28 13.4675 28H10.7102C10.5124 28 10.3612 27.84 10.3612 27.6308V20.7138C10.3612 19.8523 10.7102 19.0769 11.2803 18.5477H9.34902C9.15124 18.5477 9 18.3877 9 18.1785V16.3815C9 16.1723 9.15124 16.0123 9.34902 16.0123H12.1063C12.3041 16.0123 12.4553 16.1723 12.4553 16.3815V17.8831L14.0026 13.5754C14.34 12.6277 15.2126 12 16.1549 12H19.7499H19.8895H23.7869C24.7525 12 25.6367 12.6523 25.9857 13.6123L27.5214 17.7723V16.3815C27.5214 16.1723 27.6727 16.0123 27.8704 16.0123ZM16.1549 12.7385C15.4918 12.7385 14.8868 13.1815 14.6542 13.8338L13.2232 17.8215H19.6103H20.3781H26.8001L25.3342 13.8708C25.0899 13.1938 24.4617 12.7385 23.7752 12.7385H19.8895H19.7499H16.1549ZM11.7573 16.7508H9.69804V17.8092H11.7573V16.7508ZM28.9291 27.2615V20.7138C28.9291 19.5323 28.0217 18.56 26.8932 18.56H20.3781H19.6103H13.0952C11.9783 18.56 11.0592 19.52 11.0592 20.7138V27.2615H13.1185V25.4646C13.1185 25.2554 13.2697 25.0954 13.4675 25.0954H19.9825H19.9942H20.0058H26.5209C26.7187 25.0954 26.8699 25.2554 26.8699 25.4646V27.2615H28.9291ZM28.2195 17.8092H30.2787V16.7385H28.2195V17.8092ZM12.4321 21.477C12.4321 20.6647 13.0487 20.0124 13.8166 20.0124C14.5728 20.0124 15.201 20.6647 15.201 21.477C15.201 22.2893 14.5844 22.9416 13.8166 22.9416C13.0487 22.9416 12.4321 22.2893 12.4321 21.477ZM13.1302 21.477C13.1302 21.8831 13.4443 22.2031 13.8166 22.2031C14.1889 22.2031 14.503 21.8708 14.503 21.477C14.503 21.0708 14.2005 20.7508 13.8166 20.7508C13.4327 20.7508 13.1302 21.0831 13.1302 21.477ZM26.1369 20.0124C25.3691 20.0124 24.7525 20.6647 24.7525 21.477C24.7525 22.2893 25.3691 22.9416 26.1369 22.9416C26.9048 22.9416 27.5214 22.2893 27.5214 21.477C27.5214 20.6647 26.9048 20.0124 26.1369 20.0124ZM26.1369 22.2031C25.7646 22.2031 25.4505 21.8831 25.4505 21.477C25.4505 21.0831 25.753 20.7508 26.1369 20.7508C26.5208 20.7508 26.8233 21.0708 26.8233 21.477C26.8233 21.8708 26.5208 22.2031 26.1369 22.2031ZM15.1892 22.9169H24.8105C24.9967 22.9169 25.1595 23.0769 25.1595 23.2862C25.1595 23.4954 25.0083 23.6554 24.8105 23.6554H15.1892C14.9914 23.6554 14.8401 23.4954 14.8401 23.2862C14.8401 23.0769 14.9914 22.9169 15.1892 22.9169Z" fill="#0085ff" />
</svg>