<svg xmlns="http://www.w3.org/2000/svg" width="23" height="22" fill="none" viewBox="0 0 23 22">
    <path fill="#fff" d="M13.491 7.487h-3.187c-.156 0-.309-.036-.448-.106-.14-.07-.26-.17-.353-.295-.094-.124-.156-.269-.184-.422-.028-.153-.02-.31.024-.46L9.9 4.31c.06-.208.186-.391.36-.52.173-.13.384-.2.601-.2h2.08c.217.002.427.072.6.202s.3.31.362.518l.553 1.896c.043.149.052.306.024.459-.028.153-.09.297-.184.422-.093.124-.214.225-.353.295-.14.07-.292.106-.448.106h-.004zm-2.634-3.431c-.116-.001-.229.036-.321.105-.093.07-.161.167-.193.279L9.79 6.335c-.023.08-.028.164-.013.246.015.082.048.159.098.226.05.066.115.12.19.157.074.038.156.057.239.057h3.187c.084 0 .165-.02.24-.057.074-.037.139-.091.188-.158.05-.066.084-.143.099-.225.015-.082.01-.166-.013-.246l-.553-1.895c-.032-.112-.1-.21-.193-.279-.092-.069-.205-.106-.321-.105h-2.08zM14.938 16.376c-.018 0-.035-.003-.052-.007-.088-.02-.612-.09-1.38-.147-.06-.004-.114-.03-.154-.074-.04-.043-.063-.1-.063-.159v-5.226h-2.785v5.216c0 .06-.022.116-.063.16-.04.043-.095.069-.154.073-.781.054-1.302.126-1.38.143-.052.01-.106.003-.154-.022-.047-.024-.084-.064-.105-.113l-.138-.31c-.138-.316-.483-.537-.88-.564-.054-.004-.104-.026-.143-.063-.039-.036-.064-.085-.071-.138-.098-.646.055-1.577.397-2.428.388-.956.388-1.49.388-3.073 0-1.792 1.618-1.812 1.634-1.812h4.203c.016 0 1.634.02 1.634 1.812 0 1.583 0 2.117.384 3.073.297.77.409 1.6.327 2.42-.006.055-.031.105-.07.143-.04.037-.091.06-.146.063-.396.027-.742.249-.88.564l-.13.321c-.017.044-.047.082-.086.108-.04.026-.086.04-.133.04zm-1.183-.602c.441.036.812.078 1.036.109l.062-.155c.1-.215.25-.402.438-.546.188-.143.408-.239.641-.277.042-.686-.064-1.372-.31-2.013-.418-1.04-.418-1.641-.418-3.247 0-1.298-1.05-1.346-1.17-1.347H9.83c-.119 0-1.168.049-1.168 1.347 0 1.606 0 2.207-.418 3.247-.279.691-.424 1.457-.388 2.012.232.038.452.132.64.274.188.143.339.329.438.543l.066.148c.219-.03.588-.07 1.037-.106v-5.232c0-.062.024-.121.068-.165.043-.044.103-.068.164-.068h3.252c.061 0 .12.024.164.068.044.044.068.103.068.165l.001 5.243z"/>
    <path fill="#fff" d="M13.523 16.22h-.017c-.582-.043-1.164-.066-1.678-.066-.495 0-1.009.019-1.54.056-.032.002-.064-.002-.094-.013-.03-.01-.058-.027-.081-.049-.024-.022-.042-.048-.055-.077-.012-.03-.019-.061-.019-.093V10.53c0-.062.025-.121.068-.165.044-.044.103-.068.165-.068h3.251c.062 0 .121.024.165.068.043.044.068.103.068.165v5.457c0 .061-.025.12-.068.164-.044.044-.103.069-.165.069zm-1.695-.532c.453 0 .954.017 1.462.049v-4.975h-2.785v4.967c.451-.027.895-.04 1.323-.04v-.001z"/>
    <path fill="#fff" d="M16.746 18.414H7.068c-.045 0-.09-.014-.127-.038-.038-.025-.068-.06-.086-.102l-.699-1.585c-.068-.153-.103-.318-.103-.486 0-.167.035-.333.103-.486.085-.18.207-.34.357-.47.15-.13.326-.227.516-.286.205-.067.42-.093.635-.077.578.04 1.067.362 1.276.841l.066.149c.253-.035.708-.084 1.253-.122.545-.038 1.066-.057 1.572-.057.527 0 1.12.022 1.713.066.534.04.991.09 1.251.126l.063-.155c.212-.486.698-.808 1.278-.849.214-.015.43.011.635.078l.01.004c.187.06.359.158.506.287.147.13.265.288.348.465.068.153.104.319.104.486 0 .167-.036.333-.104.485l-.675 1.584c-.018.042-.048.078-.086.103-.038.025-.082.039-.128.039zm-9.526-.466h9.371l.617-1.444c.042-.093.063-.195.063-.298 0-.102-.021-.204-.063-.298-.058-.12-.14-.226-.24-.312-.101-.087-.219-.152-.346-.19h-.009c-.145-.047-.297-.066-.45-.056-.395.028-.741.249-.88.564l-.128.321c-.021.052-.06.094-.108.12-.05.025-.106.032-.16.02-.088-.02-.612-.09-1.38-.148-.583-.042-1.165-.065-1.679-.065-.495 0-1.009.019-1.54.056-.781.054-1.302.127-1.38.143-.053.01-.107.002-.155-.024-.047-.025-.084-.066-.104-.115l-.138-.31c-.138-.316-.483-.538-.88-.565-.155-.01-.31.01-.456.058-.128.039-.246.103-.347.19-.1.087-.183.194-.24.313-.043.094-.064.196-.064.298 0 .103.021.205.063.299l.633 1.443z"/>
</svg>
