<svg xmlns="http://www.w3.org/2000/svg" width="23" height="22" fill="none" viewBox="0 0 23 22">
    <path fill="#fff" d="M11.847 18.091c-1.44 0-2.847-.426-4.045-1.226-1.197-.8-2.13-1.937-2.681-3.267-.551-1.33-.696-2.794-.415-4.207.281-1.412.974-2.709 1.992-3.727 1.019-1.018 2.316-1.712 3.728-1.993 1.412-.28 2.876-.137 4.206.414 1.33.551 2.468 1.484 3.268 2.682.8 1.197 1.227 2.604 1.227 4.044-.003 1.93-.77 3.78-2.135 5.145-1.365 1.365-3.215 2.133-5.145 2.135zm0-14.093c-1.348 0-2.665.4-3.786 1.148-1.12.749-1.994 1.813-2.51 3.058-.516 1.245-.65 2.615-.388 3.937.263 1.322.912 2.537 1.865 3.49.953.953 2.167 1.602 3.49 1.864 1.321.263 2.691.128 3.937-.387 1.245-.516 2.309-1.39 3.058-2.51.748-1.121 1.148-2.439 1.148-3.787-.002-1.806-.72-3.538-1.998-4.815-1.277-1.278-3.01-1.996-4.816-1.998z"/>
    <path fill="#fff" d="M11.846 12.456c-.325 0-.644-.096-.915-.277-.27-.18-.481-.438-.606-.738-.125-.301-.158-.632-.094-.952.063-.319.22-.612.45-.843.23-.23.524-.387.843-.45.32-.064.65-.031.951.093.301.125.558.336.74.607.18.27.277.589.277.914 0 .436-.174.855-.483 1.163-.308.31-.726.483-1.163.483zm0-2.825c-.233 0-.462.068-.656.198s-.346.314-.435.53c-.09.216-.113.453-.068.682.046.23.159.44.324.605.165.165.375.277.604.323.23.045.467.022.682-.067.216-.09.4-.241.53-.436.13-.194.199-.422.199-.656 0-.313-.125-.612-.346-.834-.221-.22-.521-.345-.834-.345zM10.79 16.325c-.016 0-.031-.001-.046-.004-1.167-.235-2.23-.833-3.034-1.71-.805-.876-1.31-1.986-1.444-3.168-.024-.21-.036-.42-.036-.63 0-.106 0-.205.008-.3.002-.039.014-.076.034-.109.02-.033.048-.06.082-.08.033-.019.07-.03.109-.03.039-.002.077.006.111.023 2.109 1.044 3.726 3.127 4.44 5.713.01.039.01.079.001.118-.01.038-.029.074-.056.103-.021.023-.048.042-.077.055-.03.012-.06.02-.093.02zM6.696 10.91c0 .161.013.323.032.482.11 1.019.525 1.982 1.19 2.763.664.781 1.547 1.345 2.535 1.619-.685-2.147-2.03-3.888-3.757-4.864zM8.455 9.075H6.836c-.038 0-.075-.009-.109-.027-.033-.017-.062-.043-.083-.074-.021-.032-.035-.068-.04-.106-.003-.037.002-.075.016-.11.413-1.05 1.133-1.95 2.065-2.585.932-.634 2.034-.974 3.161-.974 1.128 0 2.23.34 3.161.974.933.635 1.652 1.535 2.066 2.584.014.036.019.074.014.111-.004.038-.017.074-.038.106-.022.031-.05.057-.084.074-.034.018-.071.027-.109.027h-1.52c-.097.004-.193-.017-.28-.06-.088-.042-.163-.106-.22-.185-.077-.108-.155-.212-.237-.317l-.2-.266c-.066-.098-.156-.176-.261-.229-.106-.053-.223-.077-.34-.072-1.259.006-2.535.006-3.793 0-.12-.005-.24.02-.347.075-.108.054-.2.136-.267.236-.066.091-.135.181-.203.271-.068.09-.144.19-.214.286-.057.083-.135.15-.226.197-.09.045-.191.068-.293.064zm-.953-.465h.952c.028.002.056-.003.081-.016.025-.013.046-.033.06-.057.071-.1.145-.197.219-.294l.2-.265c.11-.159.26-.287.432-.374.173-.087.366-.13.56-.124 1.255.005 2.529.005 3.786 0 .19-.006.38.036.551.12.17.086.318.212.428.368l.198.264c.078.106.16.212.239.32.012.02.03.035.052.046.021.01.045.014.069.011.268-.004.543 0 .804 0h.366c-.418-.882-1.077-1.627-1.901-2.148-.825-.522-1.78-.799-2.756-.799-.975 0-1.93.277-2.755.799-.825.521-1.484 1.266-1.901 2.148h.316zM13.028 16.3c-.036 0-.072-.009-.104-.025s-.06-.04-.082-.068c-.022-.029-.036-.062-.043-.097-.007-.035-.005-.072.005-.107.698-2.518 2.273-4.569 4.313-5.626.035-.017.073-.026.112-.025.04 0 .077.011.11.03.035.02.063.047.083.08.02.034.032.071.034.11 0 .078.007.155.007.242 0 .225-.014.45-.041.672-.14 1.153-.631 2.234-1.41 3.095-.778.86-1.804 1.459-2.937 1.712-.015.004-.031.006-.047.006zm3.966-5.322c-1.658.981-2.954 2.682-3.624 4.756.95-.294 1.796-.857 2.434-1.62.637-.765 1.04-1.698 1.158-2.686.016-.149.027-.3.032-.452v.002z"/>
    <path fill="#fff" d="M13.028 16.3c-.021 0-.043-.004-.063-.01-.03-.007-.057-.021-.081-.04-.024-.02-.044-.043-.06-.07-.014-.026-.024-.055-.027-.086-.004-.03-.002-.06.007-.09.698-2.519 2.273-4.57 4.313-5.626.055-.029.119-.034.178-.015.059.018.108.06.136.114.029.055.034.12.015.178-.018.059-.06.108-.115.136-1.926.998-3.414 2.943-4.079 5.338-.013.049-.043.092-.083.123-.04.03-.09.047-.141.047zM10.789 16.325c-.051 0-.1-.017-.141-.048-.04-.03-.07-.074-.083-.123-.677-2.46-2.207-4.433-4.197-5.42-.055-.027-.098-.075-.117-.133-.02-.059-.016-.123.011-.178.028-.056.076-.098.135-.118.058-.02.122-.015.177.012 2.11 1.044 3.726 3.126 4.44 5.713.008.03.01.06.006.09-.003.031-.013.06-.028.087-.015.027-.036.05-.06.069-.024.019-.052.032-.081.04-.02.006-.041.009-.062.01zM8.457 9.073H6.838v-.466h1.618c.028.003.056-.003.081-.016.025-.013.046-.032.06-.057l.218-.292c.073-.097.135-.177.2-.267.111-.158.26-.287.433-.374.174-.087.366-.13.56-.124 1.255.006 2.53.006 3.786 0 .191-.006.38.036.551.12.171.086.319.212.429.368l.198.264c.077.107.16.213.238.32.013.02.03.036.052.046.022.01.045.014.069.011.269-.003.543 0 .804 0h.721v.466h-1.52c-.097.004-.193-.017-.28-.06-.087-.042-.163-.106-.22-.185-.077-.108-.155-.213-.237-.318l-.2-.266c-.066-.097-.156-.176-.261-.228-.106-.053-.223-.078-.34-.072-1.26.005-2.535.005-3.793 0-.12-.005-.24.02-.348.075-.108.054-.2.135-.266.235-.067.092-.135.183-.205.273-.071.094-.142.189-.212.285-.058.083-.135.15-.225.196-.09.046-.191.068-.292.066z"/>
</svg>
