<svg xmlns="http://www.w3.org/2000/svg" width="22" height="23" fill="none" viewBox="0 0 22 23">
    <circle cx="11" cy="11.473" r="11" fill="#0E838A"/>
    <circle cx="11" cy="11.473" r="8.938" fill="#0E838A"/>
    <path fill="#fff" d="M12.676 15.16c0-.921-.754-1.675-1.676-1.675-.943 0-1.676.754-1.676 1.676 0 .942.733 1.675 1.676 1.675.922 0 1.676-.733 1.676-1.675zM9.513 6.657l.272 5.698c.021.251.251.46.503.46h1.403c.252 0 .482-.209.503-.46l.272-5.698c.021-.293-.21-.545-.502-.545h-1.949c-.293 0-.523.252-.502.545z"/>
</svg>
