<svg xmlns="http://www.w3.org/2000/svg" width="30" height="30" viewBox="0 0 30 30">
  <g id="Group_101" data-name="Group 101" transform="translate(-747 -1681)">
    <path id="Subtraction_2" data-name="Subtraction 2" d="M15,0A15,15,0,1,1,0,15,15,15,0,0,1,15,0Z" transform="translate(747 1681)" fill="#a24593"/>
    <path id="Path_884" data-name="Path 884" d="M8346.24,671.255a.489.489,0,0,0-.167.628l.224.371a.438.438,0,0,0,.62.172l2.614-1.542a9.555,9.555,0,0,1-.73-1.114Zm1.913-4.456h-2.7a.466.466,0,0,0-.449.457v.457a.446.446,0,0,0,.448.457h2.814a8,8,0,0,1-.111-1.142Zm3.6,8.341a.43.43,0,0,0,.055.257l.7,1.029a.412.412,0,0,0,.367.2h2.22a.412.412,0,0,0,.367-.2l.7-1.029a.8.8,0,0,0,.056-.257v-1.257h-4.471Zm-5.514-11.4,2.224,1.314a6.1,6.1,0,0,1,.618-1.229l-2.165-1.257a.439.439,0,0,0-.621.171l-.223.371a.49.49,0,0,0,.168.633Zm15.5,0a.489.489,0,0,0,.168-.629l-.224-.371a.438.438,0,0,0-.619-.171l-2.167,1.257a4.875,4.875,0,0,1,.592,1.229Zm0,7.512-2.561-1.514a6.089,6.089,0,0,1-.759,1.142l2.644,1.542a.44.44,0,0,0,.621-.172l.223-.371a.49.49,0,0,0-.167-.624Zm.814-4.456h-2.728c0,.086.029.172.029.229a5.231,5.231,0,0,1-.141,1.142h2.839a.467.467,0,0,0,.451-.457v-.457a.49.49,0,0,0-.455-.453ZM8354,662a4.962,4.962,0,0,0-4.951,5.028,5.031,5.031,0,0,0,1.21,3.313,7.754,7.754,0,0,1,1.461,2.628h1.352a1.09,1.09,0,0,0-.057-.4,8.39,8.39,0,0,0-1.742-3.113,3.836,3.836,0,0,1-.873-2.428,3.6,3.6,0,0,1,3.6-3.656,3.654,3.654,0,0,1,3.6,3.656,3.864,3.864,0,0,1-.9,2.428,8.612,8.612,0,0,0-1.743,3.113,1.977,1.977,0,0,0-.056.4h1.351a7.738,7.738,0,0,1,1.462-2.628,5.06,5.06,0,0,0,1.236-3.313A5,5,0,0,0,8354,662Z" transform="translate(-7592 1027)" fill="#fff"/>
  </g>
</svg>
