<svg xmlns="http://www.w3.org/2000/svg" width="25" height="25" fill="none" viewBox="0 0 25 25">
    <path fill="#011831" d="M13.46 17.374h.708c.177 0 .354-.152.354-.365v-6.582c0-.182-.177-.365-.354-.365h-.707c-.206 0-.354.183-.354.365v6.582c0 .213.148.365.354.365zm4.833-10.237h-2.445L14.845 5.43c-.236-.396-.766-.73-1.208-.73h-2.976c-.442 0-.973.334-1.208.73L8.452 7.137H6.036c-.265 0-.472.243-.472.487v.488c0 .274.207.487.472.487h.471v10.238c0 .822.62 1.462 1.415 1.462h8.485c.766 0 1.415-.64 1.415-1.462V8.599h.471c.236 0 .472-.213.472-.487v-.488c0-.244-.236-.487-.472-.487zm-7.69-.884c.03-.03.118-.091.147-.091h2.8c.029 0 .117.06.147.091l.5.884h-4.095l.5-.884zm5.804 12.584H7.922V8.599h8.485v10.238zm-6.246-1.463h.707c.177 0 .354-.152.354-.365v-6.582c0-.182-.177-.365-.354-.365h-.707c-.206 0-.354.183-.354.365v6.582c0 .213.148.365.354.365z"/>
</svg>
