<svg xmlns="http://www.w3.org/2000/svg" width="27.692" height="30" viewBox="0 0 27.692 30">
  <path id="Path_802" data-name="Path 802" d="M9468.352,569.813c-1.8,0-2.6.937-5.5.937-2.965,0-3.772-.937-5.562-.937a8.12,8.12,0,0,0-8.283,7.91v1.464a2.858,2.858,0,0,0,2.966,2.813h21.76a2.9,2.9,0,0,0,2.967-2.813v-1.464A8.18,8.18,0,0,0,9468.352,569.813Zm5.376,9.374h-21.76v-1.464a5.2,5.2,0,0,1,5.317-5.1c.925,0,2.343.938,5.563.938,3.15,0,4.569-.938,5.5-.938a5.246,5.246,0,0,1,5.376,5.1Zm-10.88-10.312a8.449,8.449,0,1,0-8.9-8.438A8.678,8.678,0,0,0,9462.848,568.875Zm0-14.062a5.633,5.633,0,1,1,0,11.25,5.633,5.633,0,1,1,0-11.25Z" transform="translate(-9449.002 -552)" fill="#0085ff"/>
</svg>
